<?xml version="1.0" encoding="utf-8" standalone="no"?>
<!DOCTYPE svg PUBLIC "-//W3C//DTD SVG 1.1//EN"
  "http://www.w3.org/Graphics/SVG/1.1/DTD/svg11.dtd">
<!-- Created with matplotlib (https://matplotlib.org/) -->
<svg height="769.798125pt" version="1.1" viewBox="0 0 519.653125 769.798125" width="519.653125pt" xmlns="http://www.w3.org/2000/svg" xmlns:xlink="http://www.w3.org/1999/xlink">
 <defs>
  <style type="text/css">
*{stroke-linecap:butt;stroke-linejoin:round;}
  </style>
 </defs>
 <g id="figure_1">
  <g id="patch_1">
   <path d="M 0 769.798125 
L 519.653125 769.798125 
L 519.653125 0 
L 0 0 
z
" style="fill:none;"/>
  </g>
  <g id="axes_1">
   <g id="patch_2">
    <path d="M 53.328125 285.458824 
L 256.237216 285.458824 
L 256.237216 93.6 
L 53.328125 93.6 
z
" style="fill:#ffffff;"/>
   </g>
   <g id="matplotlib.axis_1">
    <g id="xtick_1">
     <g id="line2d_1">
      <defs>
       <path d="M 0 0 
L 0 3.5 
" id="mf0edfa6632" style="stroke:#000000;stroke-width:0.8;"/>
      </defs>
      <g>
       <use style="stroke:#000000;stroke-width:0.8;" x="53.328125" xlink:href="#mf0edfa6632" y="285.458824"/>
      </g>
     </g>
    </g>
    <g id="xtick_2">
     <g id="line2d_2">
      <g>
       <use style="stroke:#000000;stroke-width:0.8;" x="93.909943" xlink:href="#mf0edfa6632" y="285.458824"/>
      </g>
     </g>
    </g>
    <g id="xtick_3">
     <g id="line2d_3">
      <g>
       <use style="stroke:#000000;stroke-width:0.8;" x="134.491761" xlink:href="#mf0edfa6632" y="285.458824"/>
      </g>
     </g>
    </g>
    <g id="xtick_4">
     <g id="line2d_4">
      <g>
       <use style="stroke:#000000;stroke-width:0.8;" x="175.07358" xlink:href="#mf0edfa6632" y="285.458824"/>
      </g>
     </g>
    </g>
    <g id="xtick_5">
     <g id="line2d_5">
      <g>
       <use style="stroke:#000000;stroke-width:0.8;" x="215.655398" xlink:href="#mf0edfa6632" y="285.458824"/>
      </g>
     </g>
    </g>
    <g id="xtick_6">
     <g id="line2d_6">
      <g>
       <use style="stroke:#000000;stroke-width:0.8;" x="256.237216" xlink:href="#mf0edfa6632" y="285.458824"/>
      </g>
     </g>
    </g>
   </g>
   <g id="matplotlib.axis_2">
    <g id="ytick_1">
     <g id="line2d_7">
      <defs>
       <path d="M 0 0 
L -3.5 0 
" id="m2549efb09e" style="stroke:#000000;stroke-width:0.8;"/>
      </defs>
      <g>
       <use style="stroke:#000000;stroke-width:0.8;" x="53.328125" xlink:href="#m2549efb09e" y="285.458824"/>
      </g>
     </g>
     <g id="text_1">
      <!-- 0 -->
      <defs>
       <path d="M 31.78125 66.40625 
Q 24.171875 66.40625 20.328125 58.90625 
Q 16.5 51.421875 16.5 36.375 
Q 16.5 21.390625 20.328125 13.890625 
Q 24.171875 6.390625 31.78125 6.390625 
Q 39.453125 6.390625 43.28125 13.890625 
Q 47.125 21.390625 47.125 36.375 
Q 47.125 51.421875 43.28125 58.90625 
Q 39.453125 66.40625 31.78125 66.40625 
z
M 31.78125 74.21875 
Q 44.046875 74.21875 50.515625 64.515625 
Q 56.984375 54.828125 56.984375 36.375 
Q 56.984375 17.96875 50.515625 8.265625 
Q 44.046875 -1.421875 31.78125 -1.421875 
Q 19.53125 -1.421875 13.0625 8.265625 
Q 6.59375 17.96875 6.59375 36.375 
Q 6.59375 54.828125 13.0625 64.515625 
Q 19.53125 74.21875 31.78125 74.21875 
z
" id="DejaVuSans-48"/>
      </defs>
      <g transform="translate(39.965625 289.258042)scale(0.1 -0.1)">
       <use xlink:href="#DejaVuSans-48"/>
      </g>
     </g>
    </g>
    <g id="ytick_2">
     <g id="line2d_8">
      <g>
       <use style="stroke:#000000;stroke-width:0.8;" x="53.328125" xlink:href="#m2549efb09e" y="247.087059"/>
      </g>
     </g>
     <g id="text_2">
      <!-- 200 -->
      <defs>
       <path d="M 19.1875 8.296875 
L 53.609375 8.296875 
L 53.609375 0 
L 7.328125 0 
L 7.328125 8.296875 
Q 12.9375 14.109375 22.625 23.890625 
Q 32.328125 33.6875 34.8125 36.53125 
Q 39.546875 41.84375 41.421875 45.53125 
Q 43.3125 49.21875 43.3125 52.78125 
Q 43.3125 58.59375 39.234375 62.25 
Q 35.15625 65.921875 28.609375 65.921875 
Q 23.96875 65.921875 18.8125 64.3125 
Q 13.671875 62.703125 7.8125 59.421875 
L 7.8125 69.390625 
Q 13.765625 71.78125 18.9375 73 
Q 24.125 74.21875 28.421875 74.21875 
Q 39.75 74.21875 46.484375 68.546875 
Q 53.21875 62.890625 53.21875 53.421875 
Q 53.21875 48.921875 51.53125 44.890625 
Q 49.859375 40.875 45.40625 35.40625 
Q 44.1875 33.984375 37.640625 27.21875 
Q 31.109375 20.453125 19.1875 8.296875 
z
" id="DejaVuSans-50"/>
      </defs>
      <g transform="translate(27.240625 250.886278)scale(0.1 -0.1)">
       <use xlink:href="#DejaVuSans-50"/>
       <use x="63.623047" xlink:href="#DejaVuSans-48"/>
       <use x="127.246094" xlink:href="#DejaVuSans-48"/>
      </g>
     </g>
    </g>
    <g id="ytick_3">
     <g id="line2d_9">
      <g>
       <use style="stroke:#000000;stroke-width:0.8;" x="53.328125" xlink:href="#m2549efb09e" y="208.715294"/>
      </g>
     </g>
     <g id="text_3">
      <!-- 400 -->
      <defs>
       <path d="M 37.796875 64.3125 
L 12.890625 25.390625 
L 37.796875 25.390625 
z
M 35.203125 72.90625 
L 47.609375 72.90625 
L 47.609375 25.390625 
L 58.015625 25.390625 
L 58.015625 17.1875 
L 47.609375 17.1875 
L 47.609375 0 
L 37.796875 0 
L 37.796875 17.1875 
L 4.890625 17.1875 
L 4.890625 26.703125 
z
" id="DejaVuSans-52"/>
      </defs>
      <g transform="translate(27.240625 212.514513)scale(0.1 -0.1)">
       <use xlink:href="#DejaVuSans-52"/>
       <use x="63.623047" xlink:href="#DejaVuSans-48"/>
       <use x="127.246094" xlink:href="#DejaVuSans-48"/>
      </g>
     </g>
    </g>
    <g id="ytick_4">
     <g id="line2d_10">
      <g>
       <use style="stroke:#000000;stroke-width:0.8;" x="53.328125" xlink:href="#m2549efb09e" y="170.343529"/>
      </g>
     </g>
     <g id="text_4">
      <!-- 600 -->
      <defs>
       <path d="M 33.015625 40.375 
Q 26.375 40.375 22.484375 35.828125 
Q 18.609375 31.296875 18.609375 23.390625 
Q 18.609375 15.53125 22.484375 10.953125 
Q 26.375 6.390625 33.015625 6.390625 
Q 39.65625 6.390625 43.53125 10.953125 
Q 47.40625 15.53125 47.40625 23.390625 
Q 47.40625 31.296875 43.53125 35.828125 
Q 39.65625 40.375 33.015625 40.375 
z
M 52.59375 71.296875 
L 52.59375 62.3125 
Q 48.875 64.0625 45.09375 64.984375 
Q 41.3125 65.921875 37.59375 65.921875 
Q 27.828125 65.921875 22.671875 59.328125 
Q 17.53125 52.734375 16.796875 39.40625 
Q 19.671875 43.65625 24.015625 45.921875 
Q 28.375 48.1875 33.59375 48.1875 
Q 44.578125 48.1875 50.953125 41.515625 
Q 57.328125 34.859375 57.328125 23.390625 
Q 57.328125 12.15625 50.6875 5.359375 
Q 44.046875 -1.421875 33.015625 -1.421875 
Q 20.359375 -1.421875 13.671875 8.265625 
Q 6.984375 17.96875 6.984375 36.375 
Q 6.984375 53.65625 15.1875 63.9375 
Q 23.390625 74.21875 37.203125 74.21875 
Q 40.921875 74.21875 44.703125 73.484375 
Q 48.484375 72.75 52.59375 71.296875 
z
" id="DejaVuSans-54"/>
      </defs>
      <g transform="translate(27.240625 174.142748)scale(0.1 -0.1)">
       <use xlink:href="#DejaVuSans-54"/>
       <use x="63.623047" xlink:href="#DejaVuSans-48"/>
       <use x="127.246094" xlink:href="#DejaVuSans-48"/>
      </g>
     </g>
    </g>
    <g id="ytick_5">
     <g id="line2d_11">
      <g>
       <use style="stroke:#000000;stroke-width:0.8;" x="53.328125" xlink:href="#m2549efb09e" y="131.971765"/>
      </g>
     </g>
     <g id="text_5">
      <!-- 800 -->
      <defs>
       <path d="M 31.78125 34.625 
Q 24.75 34.625 20.71875 30.859375 
Q 16.703125 27.09375 16.703125 20.515625 
Q 16.703125 13.921875 20.71875 10.15625 
Q 24.75 6.390625 31.78125 6.390625 
Q 38.8125 6.390625 42.859375 10.171875 
Q 46.921875 13.96875 46.921875 20.515625 
Q 46.921875 27.09375 42.890625 30.859375 
Q 38.875 34.625 31.78125 34.625 
z
M 21.921875 38.8125 
Q 15.578125 40.375 12.03125 44.71875 
Q 8.5 49.078125 8.5 55.328125 
Q 8.5 64.0625 14.71875 69.140625 
Q 20.953125 74.21875 31.78125 74.21875 
Q 42.671875 74.21875 48.875 69.140625 
Q 55.078125 64.0625 55.078125 55.328125 
Q 55.078125 49.078125 51.53125 44.71875 
Q 48 40.375 41.703125 38.8125 
Q 48.828125 37.15625 52.796875 32.3125 
Q 56.78125 27.484375 56.78125 20.515625 
Q 56.78125 9.90625 50.3125 4.234375 
Q 43.84375 -1.421875 31.78125 -1.421875 
Q 19.734375 -1.421875 13.25 4.234375 
Q 6.78125 9.90625 6.78125 20.515625 
Q 6.78125 27.484375 10.78125 32.3125 
Q 14.796875 37.15625 21.921875 38.8125 
z
M 18.3125 54.390625 
Q 18.3125 48.734375 21.84375 45.5625 
Q 25.390625 42.390625 31.78125 42.390625 
Q 38.140625 42.390625 41.71875 45.5625 
Q 45.3125 48.734375 45.3125 54.390625 
Q 45.3125 60.0625 41.71875 63.234375 
Q 38.140625 66.40625 31.78125 66.40625 
Q 25.390625 66.40625 21.84375 63.234375 
Q 18.3125 60.0625 18.3125 54.390625 
z
" id="DejaVuSans-56"/>
      </defs>
      <g transform="translate(27.240625 135.770983)scale(0.1 -0.1)">
       <use xlink:href="#DejaVuSans-56"/>
       <use x="63.623047" xlink:href="#DejaVuSans-48"/>
       <use x="127.246094" xlink:href="#DejaVuSans-48"/>
      </g>
     </g>
    </g>
    <g id="ytick_6">
     <g id="line2d_12">
      <g>
       <use style="stroke:#000000;stroke-width:0.8;" x="53.328125" xlink:href="#m2549efb09e" y="93.6"/>
      </g>
     </g>
     <g id="text_6">
      <!-- 1000 -->
      <defs>
       <path d="M 12.40625 8.296875 
L 28.515625 8.296875 
L 28.515625 63.921875 
L 10.984375 60.40625 
L 10.984375 69.390625 
L 28.421875 72.90625 
L 38.28125 72.90625 
L 38.28125 8.296875 
L 54.390625 8.296875 
L 54.390625 0 
L 12.40625 0 
z
" id="DejaVuSans-49"/>
      </defs>
      <g transform="translate(20.878125 97.399219)scale(0.1 -0.1)">
       <use xlink:href="#DejaVuSans-49"/>
       <use x="63.623047" xlink:href="#DejaVuSans-48"/>
       <use x="127.246094" xlink:href="#DejaVuSans-48"/>
       <use x="190.869141" xlink:href="#DejaVuSans-48"/>
      </g>
     </g>
    </g>
    <g id="text_7">
     <!-- population that is... -->
     <defs>
      <path d="M 18.109375 8.203125 
L 18.109375 -20.796875 
L 9.078125 -20.796875 
L 9.078125 54.6875 
L 18.109375 54.6875 
L 18.109375 46.390625 
Q 20.953125 51.265625 25.265625 53.625 
Q 29.59375 56 35.59375 56 
Q 45.5625 56 51.78125 48.09375 
Q 58.015625 40.1875 58.015625 27.296875 
Q 58.015625 14.40625 51.78125 6.484375 
Q 45.5625 -1.421875 35.59375 -1.421875 
Q 29.59375 -1.421875 25.265625 0.953125 
Q 20.953125 3.328125 18.109375 8.203125 
z
M 48.6875 27.296875 
Q 48.6875 37.203125 44.609375 42.84375 
Q 40.53125 48.484375 33.40625 48.484375 
Q 26.265625 48.484375 22.1875 42.84375 
Q 18.109375 37.203125 18.109375 27.296875 
Q 18.109375 17.390625 22.1875 11.75 
Q 26.265625 6.109375 33.40625 6.109375 
Q 40.53125 6.109375 44.609375 11.75 
Q 48.6875 17.390625 48.6875 27.296875 
z
" id="DejaVuSans-112"/>
      <path d="M 30.609375 48.390625 
Q 23.390625 48.390625 19.1875 42.75 
Q 14.984375 37.109375 14.984375 27.296875 
Q 14.984375 17.484375 19.15625 11.84375 
Q 23.34375 6.203125 30.609375 6.203125 
Q 37.796875 6.203125 41.984375 11.859375 
Q 46.1875 17.53125 46.1875 27.296875 
Q 46.1875 37.015625 41.984375 42.703125 
Q 37.796875 48.390625 30.609375 48.390625 
z
M 30.609375 56 
Q 42.328125 56 49.015625 48.375 
Q 55.71875 40.765625 55.71875 27.296875 
Q 55.71875 13.875 49.015625 6.21875 
Q 42.328125 -1.421875 30.609375 -1.421875 
Q 18.84375 -1.421875 12.171875 6.21875 
Q 5.515625 13.875 5.515625 27.296875 
Q 5.515625 40.765625 12.171875 48.375 
Q 18.84375 56 30.609375 56 
z
" id="DejaVuSans-111"/>
      <path d="M 8.5 21.578125 
L 8.5 54.6875 
L 17.484375 54.6875 
L 17.484375 21.921875 
Q 17.484375 14.15625 20.5 10.265625 
Q 23.53125 6.390625 29.59375 6.390625 
Q 36.859375 6.390625 41.078125 11.03125 
Q 45.3125 15.671875 45.3125 23.6875 
L 45.3125 54.6875 
L 54.296875 54.6875 
L 54.296875 0 
L 45.3125 0 
L 45.3125 8.40625 
Q 42.046875 3.421875 37.71875 1 
Q 33.40625 -1.421875 27.6875 -1.421875 
Q 18.265625 -1.421875 13.375 4.4375 
Q 8.5 10.296875 8.5 21.578125 
z
M 31.109375 56 
z
" id="DejaVuSans-117"/>
      <path d="M 9.421875 75.984375 
L 18.40625 75.984375 
L 18.40625 0 
L 9.421875 0 
z
" id="DejaVuSans-108"/>
      <path d="M 34.28125 27.484375 
Q 23.390625 27.484375 19.1875 25 
Q 14.984375 22.515625 14.984375 16.5 
Q 14.984375 11.71875 18.140625 8.90625 
Q 21.296875 6.109375 26.703125 6.109375 
Q 34.1875 6.109375 38.703125 11.40625 
Q 43.21875 16.703125 43.21875 25.484375 
L 43.21875 27.484375 
z
M 52.203125 31.203125 
L 52.203125 0 
L 43.21875 0 
L 43.21875 8.296875 
Q 40.140625 3.328125 35.546875 0.953125 
Q 30.953125 -1.421875 24.3125 -1.421875 
Q 15.921875 -1.421875 10.953125 3.296875 
Q 6 8.015625 6 15.921875 
Q 6 25.140625 12.171875 29.828125 
Q 18.359375 34.515625 30.609375 34.515625 
L 43.21875 34.515625 
L 43.21875 35.40625 
Q 43.21875 41.609375 39.140625 45 
Q 35.0625 48.390625 27.6875 48.390625 
Q 23 48.390625 18.546875 47.265625 
Q 14.109375 46.140625 10.015625 43.890625 
L 10.015625 52.203125 
Q 14.9375 54.109375 19.578125 55.046875 
Q 24.21875 56 28.609375 56 
Q 40.484375 56 46.34375 49.84375 
Q 52.203125 43.703125 52.203125 31.203125 
z
" id="DejaVuSans-97"/>
      <path d="M 18.3125 70.21875 
L 18.3125 54.6875 
L 36.8125 54.6875 
L 36.8125 47.703125 
L 18.3125 47.703125 
L 18.3125 18.015625 
Q 18.3125 11.328125 20.140625 9.421875 
Q 21.96875 7.515625 27.59375 7.515625 
L 36.8125 7.515625 
L 36.8125 0 
L 27.59375 0 
Q 17.1875 0 13.234375 3.875 
Q 9.28125 7.765625 9.28125 18.015625 
L 9.28125 47.703125 
L 2.6875 47.703125 
L 2.6875 54.6875 
L 9.28125 54.6875 
L 9.28125 70.21875 
z
" id="DejaVuSans-116"/>
      <path d="M 9.421875 54.6875 
L 18.40625 54.6875 
L 18.40625 0 
L 9.421875 0 
z
M 9.421875 75.984375 
L 18.40625 75.984375 
L 18.40625 64.59375 
L 9.421875 64.59375 
z
" id="DejaVuSans-105"/>
      <path d="M 54.890625 33.015625 
L 54.890625 0 
L 45.90625 0 
L 45.90625 32.71875 
Q 45.90625 40.484375 42.875 44.328125 
Q 39.84375 48.1875 33.796875 48.1875 
Q 26.515625 48.1875 22.3125 43.546875 
Q 18.109375 38.921875 18.109375 30.90625 
L 18.109375 0 
L 9.078125 0 
L 9.078125 54.6875 
L 18.109375 54.6875 
L 18.109375 46.1875 
Q 21.34375 51.125 25.703125 53.5625 
Q 30.078125 56 35.796875 56 
Q 45.21875 56 50.046875 50.171875 
Q 54.890625 44.34375 54.890625 33.015625 
z
" id="DejaVuSans-110"/>
      <path id="DejaVuSans-32"/>
      <path d="M 54.890625 33.015625 
L 54.890625 0 
L 45.90625 0 
L 45.90625 32.71875 
Q 45.90625 40.484375 42.875 44.328125 
Q 39.84375 48.1875 33.796875 48.1875 
Q 26.515625 48.1875 22.3125 43.546875 
Q 18.109375 38.921875 18.109375 30.90625 
L 18.109375 0 
L 9.078125 0 
L 9.078125 75.984375 
L 18.109375 75.984375 
L 18.109375 46.1875 
Q 21.34375 51.125 25.703125 53.5625 
Q 30.078125 56 35.796875 56 
Q 45.21875 56 50.046875 50.171875 
Q 54.890625 44.34375 54.890625 33.015625 
z
" id="DejaVuSans-104"/>
      <path d="M 44.28125 53.078125 
L 44.28125 44.578125 
Q 40.484375 46.53125 36.375 47.5 
Q 32.28125 48.484375 27.875 48.484375 
Q 21.1875 48.484375 17.84375 46.4375 
Q 14.5 44.390625 14.5 40.28125 
Q 14.5 37.15625 16.890625 35.375 
Q 19.28125 33.59375 26.515625 31.984375 
L 29.59375 31.296875 
Q 39.15625 29.25 43.1875 25.515625 
Q 47.21875 21.78125 47.21875 15.09375 
Q 47.21875 7.46875 41.1875 3.015625 
Q 35.15625 -1.421875 24.609375 -1.421875 
Q 20.21875 -1.421875 15.453125 -0.5625 
Q 10.6875 0.296875 5.421875 2 
L 5.421875 11.28125 
Q 10.40625 8.6875 15.234375 7.390625 
Q 20.0625 6.109375 24.8125 6.109375 
Q 31.15625 6.109375 34.5625 8.28125 
Q 37.984375 10.453125 37.984375 14.40625 
Q 37.984375 18.0625 35.515625 20.015625 
Q 33.0625 21.96875 24.703125 23.78125 
L 21.578125 24.515625 
Q 13.234375 26.265625 9.515625 29.90625 
Q 5.8125 33.546875 5.8125 39.890625 
Q 5.8125 47.609375 11.28125 51.796875 
Q 16.75 56 26.8125 56 
Q 31.78125 56 36.171875 55.265625 
Q 40.578125 54.546875 44.28125 53.078125 
z
" id="DejaVuSans-115"/>
      <path d="M 10.6875 12.40625 
L 21 12.40625 
L 21 0 
L 10.6875 0 
z
" id="DejaVuSans-46"/>
     </defs>
     <g transform="translate(14.798438 238.228631)rotate(-90)scale(0.1 -0.1)">
      <use xlink:href="#DejaVuSans-112"/>
      <use x="63.476562" xlink:href="#DejaVuSans-111"/>
      <use x="124.658203" xlink:href="#DejaVuSans-112"/>
      <use x="188.134766" xlink:href="#DejaVuSans-117"/>
      <use x="251.513672" xlink:href="#DejaVuSans-108"/>
      <use x="279.296875" xlink:href="#DejaVuSans-97"/>
      <use x="340.576172" xlink:href="#DejaVuSans-116"/>
      <use x="379.785156" xlink:href="#DejaVuSans-105"/>
      <use x="407.568359" xlink:href="#DejaVuSans-111"/>
      <use x="468.75" xlink:href="#DejaVuSans-110"/>
      <use x="532.128906" xlink:href="#DejaVuSans-32"/>
      <use x="563.916016" xlink:href="#DejaVuSans-116"/>
      <use x="603.125" xlink:href="#DejaVuSans-104"/>
      <use x="666.503906" xlink:href="#DejaVuSans-97"/>
      <use x="727.783203" xlink:href="#DejaVuSans-116"/>
      <use x="766.992188" xlink:href="#DejaVuSans-32"/>
      <use x="798.779297" xlink:href="#DejaVuSans-105"/>
      <use x="826.5625" xlink:href="#DejaVuSans-115"/>
      <use x="878.662109" xlink:href="#DejaVuSans-46"/>
      <use x="910.449219" xlink:href="#DejaVuSans-46"/>
      <use x="942.236328" xlink:href="#DejaVuSans-46"/>
     </g>
    </g>
   </g>
   <g id="line2d_13">
    <path clip-path="url(#pc4edb0d055)" d="M 53.328125 95.518588 
L 139.077507 99.420807 
L 207.620198 102.320131 
L 256.196634 104.223519 
L 256.196634 104.223519 
" style="fill:none;stroke:#ff0000;stroke-linecap:square;stroke-width:1.5;"/>
   </g>
   <g id="line2d_14">
    <path clip-path="url(#pc4edb0d055)" d="M 53.328125 283.540235 
L 200.153143 283.720707 
L 256.196634 283.835985 
L 256.196634 283.835985 
" style="fill:none;stroke:#008000;stroke-linecap:square;stroke-width:1.5;"/>
   </g>
   <g id="patch_3">
    <path d="M 53.328125 285.458824 
L 53.328125 93.6 
" style="fill:none;stroke:#000000;stroke-linecap:square;stroke-linejoin:miter;stroke-width:0.8;"/>
   </g>
   <g id="patch_4">
    <path d="M 256.237216 285.458824 
L 256.237216 93.6 
" style="fill:none;stroke:#000000;stroke-linecap:square;stroke-linejoin:miter;stroke-width:0.8;"/>
   </g>
   <g id="patch_5">
    <path d="M 53.328125 285.458824 
L 256.237216 285.458824 
" style="fill:none;stroke:#000000;stroke-linecap:square;stroke-linejoin:miter;stroke-width:0.8;"/>
   </g>
   <g id="patch_6">
    <path d="M 53.328125 93.6 
L 256.237216 93.6 
" style="fill:none;stroke:#000000;stroke-linecap:square;stroke-linejoin:miter;stroke-width:0.8;"/>
   </g>
   <g id="text_8">
    <!-- $p_{\mathit{Infect}} = 0.0000010$ -->
    <defs>
     <path d="M 49.609375 33.6875 
Q 49.609375 40.875 46.484375 44.671875 
Q 43.359375 48.484375 37.5 48.484375 
Q 33.5 48.484375 29.859375 46.4375 
Q 26.21875 44.390625 23.390625 40.484375 
Q 20.609375 36.625 18.9375 31.15625 
Q 17.28125 25.6875 17.28125 20.3125 
Q 17.28125 13.484375 20.40625 9.796875 
Q 23.53125 6.109375 29.296875 6.109375 
Q 33.546875 6.109375 37.1875 8.109375 
Q 40.828125 10.109375 43.40625 13.921875 
Q 46.1875 17.921875 47.890625 23.34375 
Q 49.609375 28.765625 49.609375 33.6875 
z
M 21.78125 46.390625 
Q 25.390625 51.125 30.296875 53.5625 
Q 35.203125 56 41.21875 56 
Q 49.609375 56 54.25 50.5 
Q 58.890625 45.015625 58.890625 35.109375 
Q 58.890625 27 56 19.65625 
Q 53.125 12.3125 47.703125 6.5 
Q 44.09375 2.640625 39.546875 0.609375 
Q 35.015625 -1.421875 29.984375 -1.421875 
Q 24.171875 -1.421875 20.21875 1 
Q 16.265625 3.421875 14.3125 8.203125 
L 8.6875 -20.796875 
L -0.296875 -20.796875 
L 14.40625 54.6875 
L 23.390625 54.6875 
z
" id="DejaVuSans-Oblique-112"/>
     <path d="M 16.890625 72.90625 
L 26.8125 72.90625 
L 12.59375 0 
L 2.6875 0 
z
" id="DejaVuSans-Oblique-73"/>
     <path d="M 55.71875 33.015625 
L 49.3125 0 
L 40.28125 0 
L 46.6875 32.671875 
Q 47.125 34.96875 47.359375 36.71875 
Q 47.609375 38.484375 47.609375 39.5 
Q 47.609375 43.609375 45.015625 45.890625 
Q 42.4375 48.1875 37.796875 48.1875 
Q 30.5625 48.1875 25.34375 43.375 
Q 20.125 38.578125 18.5 30.328125 
L 12.5 0 
L 3.515625 0 
L 14.109375 54.6875 
L 23.09375 54.6875 
L 21.296875 46.09375 
Q 25.046875 50.828125 30.3125 53.40625 
Q 35.59375 56 41.40625 56 
Q 48.640625 56 52.609375 52.09375 
Q 56.59375 48.1875 56.59375 41.109375 
Q 56.59375 39.359375 56.375 37.359375 
Q 56.15625 35.359375 55.71875 33.015625 
z
" id="DejaVuSans-Oblique-110"/>
     <path d="M 47.796875 75.984375 
L 46.390625 68.5 
L 37.796875 68.5 
Q 32.90625 68.5 30.6875 66.578125 
Q 28.46875 64.65625 27.390625 59.515625 
L 26.421875 54.6875 
L 41.21875 54.6875 
L 39.890625 47.703125 
L 25.09375 47.703125 
L 15.828125 0 
L 6.78125 0 
L 16.109375 47.703125 
L 7.515625 47.703125 
L 8.796875 54.6875 
L 17.390625 54.6875 
L 18.109375 58.5 
Q 19.96875 68.171875 24.625 72.078125 
Q 29.296875 75.984375 39.3125 75.984375 
z
" id="DejaVuSans-Oblique-102"/>
     <path d="M 48.09375 32.234375 
Q 48.25 33.015625 48.3125 33.84375 
Q 48.390625 34.671875 48.390625 35.5 
Q 48.390625 41.453125 44.890625 44.921875 
Q 41.40625 48.390625 35.40625 48.390625 
Q 28.71875 48.390625 23.578125 44.15625 
Q 18.453125 39.9375 15.828125 32.171875 
z
M 55.90625 25.203125 
L 14.109375 25.203125 
Q 13.8125 23.34375 13.71875 22.265625 
Q 13.625 21.1875 13.625 20.40625 
Q 13.625 13.625 17.796875 9.90625 
Q 21.96875 6.203125 29.59375 6.203125 
Q 35.453125 6.203125 40.671875 7.515625 
Q 45.90625 8.84375 50.390625 11.375 
L 48.6875 2.484375 
Q 43.84375 0.53125 38.6875 -0.4375 
Q 33.546875 -1.421875 28.21875 -1.421875 
Q 16.84375 -1.421875 10.71875 4.015625 
Q 4.59375 9.46875 4.59375 19.484375 
Q 4.59375 28.03125 7.640625 35.375 
Q 10.6875 42.71875 16.609375 48.484375 
Q 20.40625 52.09375 25.65625 54.046875 
Q 30.90625 56 36.8125 56 
Q 46.09375 56 51.578125 50.4375 
Q 57.078125 44.875 57.078125 35.5 
Q 57.078125 33.25 56.78125 30.6875 
Q 56.5 28.125 55.90625 25.203125 
z
" id="DejaVuSans-Oblique-101"/>
     <path d="M 53.609375 52.59375 
L 51.8125 43.703125 
Q 48.578125 46.046875 44.9375 47.21875 
Q 41.3125 48.390625 37.40625 48.390625 
Q 33.109375 48.390625 29.21875 46.875 
Q 25.34375 45.359375 22.703125 42.578125 
Q 18.5 38.328125 16.203125 32.609375 
Q 13.921875 26.90625 13.921875 20.796875 
Q 13.921875 13.421875 17.609375 9.8125 
Q 21.296875 6.203125 28.8125 6.203125 
Q 32.515625 6.203125 36.6875 7.328125 
Q 40.875 8.453125 45.40625 10.6875 
L 43.703125 1.8125 
Q 39.796875 0.203125 35.671875 -0.609375 
Q 31.546875 -1.421875 27.203125 -1.421875 
Q 16.3125 -1.421875 10.453125 4.015625 
Q 4.59375 9.46875 4.59375 19.578125 
Q 4.59375 28.078125 7.640625 35.234375 
Q 10.6875 42.390625 16.703125 48.09375 
Q 20.796875 52 26.3125 54 
Q 31.84375 56 38.375 56 
Q 42.1875 56 45.9375 55.140625 
Q 49.703125 54.296875 53.609375 52.59375 
z
" id="DejaVuSans-Oblique-99"/>
     <path d="M 42.28125 54.6875 
L 40.921875 47.703125 
L 23 47.703125 
L 17.1875 18.015625 
Q 16.890625 16.359375 16.75 15.234375 
Q 16.609375 14.109375 16.609375 13.484375 
Q 16.609375 10.359375 18.484375 8.9375 
Q 20.359375 7.515625 24.515625 7.515625 
L 33.59375 7.515625 
L 32.078125 0 
L 23.484375 0 
Q 15.484375 0 11.546875 3.125 
Q 7.625 6.25 7.625 12.59375 
Q 7.625 13.71875 7.765625 15.0625 
Q 7.90625 16.40625 8.203125 18.015625 
L 14.015625 47.703125 
L 6.390625 47.703125 
L 7.8125 54.6875 
L 15.28125 54.6875 
L 18.3125 70.21875 
L 27.296875 70.21875 
L 24.3125 54.6875 
z
" id="DejaVuSans-Oblique-116"/>
     <path d="M 10.59375 45.40625 
L 73.1875 45.40625 
L 73.1875 37.203125 
L 10.59375 37.203125 
z
M 10.59375 25.484375 
L 73.1875 25.484375 
L 73.1875 17.1875 
L 10.59375 17.1875 
z
" id="DejaVuSans-61"/>
    </defs>
    <g transform="translate(99.04267 87.6)scale(0.12 -0.12)">
     <use transform="translate(0 0.78125)" xlink:href="#DejaVuSans-Oblique-112"/>
     <use transform="translate(63.476562 -15.625)scale(0.7)" xlink:href="#DejaVuSans-Oblique-73"/>
     <use transform="translate(84.121094 -15.625)scale(0.7)" xlink:href="#DejaVuSans-Oblique-110"/>
     <use transform="translate(128.486328 -15.625)scale(0.7)" xlink:href="#DejaVuSans-Oblique-102"/>
     <use transform="translate(153.129883 -15.625)scale(0.7)" xlink:href="#DejaVuSans-Oblique-101"/>
     <use transform="translate(196.196289 -15.625)scale(0.7)" xlink:href="#DejaVuSans-Oblique-99"/>
     <use transform="translate(234.682617 -15.625)scale(0.7)" xlink:href="#DejaVuSans-Oblique-116"/>
     <use transform="translate(284.345703 0.78125)" xlink:href="#DejaVuSans-61"/>
     <use transform="translate(387.617188 0.78125)" xlink:href="#DejaVuSans-48"/>
     <use transform="translate(451.240234 0.78125)" xlink:href="#DejaVuSans-46"/>
     <use transform="translate(483.027344 0.78125)" xlink:href="#DejaVuSans-48"/>
     <use transform="translate(546.650391 0.78125)" xlink:href="#DejaVuSans-48"/>
     <use transform="translate(610.273438 0.78125)" xlink:href="#DejaVuSans-48"/>
     <use transform="translate(673.896484 0.78125)" xlink:href="#DejaVuSans-48"/>
     <use transform="translate(737.519531 0.78125)" xlink:href="#DejaVuSans-48"/>
     <use transform="translate(801.142578 0.78125)" xlink:href="#DejaVuSans-49"/>
     <use transform="translate(864.765625 0.78125)" xlink:href="#DejaVuSans-48"/>
    </g>
   </g>
   <g id="legend_1">
    <g id="patch_7">
     <path d="M 60.328125 205.707537 
L 143.853125 205.707537 
Q 145.853125 205.707537 145.853125 203.707537 
L 145.853125 175.351287 
Q 145.853125 173.351287 143.853125 173.351287 
L 60.328125 173.351287 
Q 58.328125 173.351287 58.328125 175.351287 
L 58.328125 203.707537 
Q 58.328125 205.707537 60.328125 205.707537 
z
" style="fill:#ffffff;opacity:0.8;stroke:#cccccc;stroke-linejoin:miter;"/>
    </g>
    <g id="line2d_15">
     <path d="M 62.328125 181.449724 
L 82.328125 181.449724 
" style="fill:none;stroke:#ff0000;stroke-linecap:square;stroke-width:1.5;"/>
    </g>
    <g id="line2d_16"/>
    <g id="text_9">
     <!-- suceptible -->
     <defs>
      <path d="M 48.78125 52.59375 
L 48.78125 44.1875 
Q 44.96875 46.296875 41.140625 47.34375 
Q 37.3125 48.390625 33.40625 48.390625 
Q 24.65625 48.390625 19.8125 42.84375 
Q 14.984375 37.3125 14.984375 27.296875 
Q 14.984375 17.28125 19.8125 11.734375 
Q 24.65625 6.203125 33.40625 6.203125 
Q 37.3125 6.203125 41.140625 7.25 
Q 44.96875 8.296875 48.78125 10.40625 
L 48.78125 2.09375 
Q 45.015625 0.34375 40.984375 -0.53125 
Q 36.96875 -1.421875 32.421875 -1.421875 
Q 20.0625 -1.421875 12.78125 6.34375 
Q 5.515625 14.109375 5.515625 27.296875 
Q 5.515625 40.671875 12.859375 48.328125 
Q 20.21875 56 33.015625 56 
Q 37.15625 56 41.109375 55.140625 
Q 45.0625 54.296875 48.78125 52.59375 
z
" id="DejaVuSans-99"/>
      <path d="M 56.203125 29.59375 
L 56.203125 25.203125 
L 14.890625 25.203125 
Q 15.484375 15.921875 20.484375 11.0625 
Q 25.484375 6.203125 34.421875 6.203125 
Q 39.59375 6.203125 44.453125 7.46875 
Q 49.3125 8.734375 54.109375 11.28125 
L 54.109375 2.78125 
Q 49.265625 0.734375 44.1875 -0.34375 
Q 39.109375 -1.421875 33.890625 -1.421875 
Q 20.796875 -1.421875 13.15625 6.1875 
Q 5.515625 13.8125 5.515625 26.8125 
Q 5.515625 40.234375 12.765625 48.109375 
Q 20.015625 56 32.328125 56 
Q 43.359375 56 49.78125 48.890625 
Q 56.203125 41.796875 56.203125 29.59375 
z
M 47.21875 32.234375 
Q 47.125 39.59375 43.09375 43.984375 
Q 39.0625 48.390625 32.421875 48.390625 
Q 24.90625 48.390625 20.390625 44.140625 
Q 15.875 39.890625 15.1875 32.171875 
z
" id="DejaVuSans-101"/>
      <path d="M 48.6875 27.296875 
Q 48.6875 37.203125 44.609375 42.84375 
Q 40.53125 48.484375 33.40625 48.484375 
Q 26.265625 48.484375 22.1875 42.84375 
Q 18.109375 37.203125 18.109375 27.296875 
Q 18.109375 17.390625 22.1875 11.75 
Q 26.265625 6.109375 33.40625 6.109375 
Q 40.53125 6.109375 44.609375 11.75 
Q 48.6875 17.390625 48.6875 27.296875 
z
M 18.109375 46.390625 
Q 20.953125 51.265625 25.265625 53.625 
Q 29.59375 56 35.59375 56 
Q 45.5625 56 51.78125 48.09375 
Q 58.015625 40.1875 58.015625 27.296875 
Q 58.015625 14.40625 51.78125 6.484375 
Q 45.5625 -1.421875 35.59375 -1.421875 
Q 29.59375 -1.421875 25.265625 0.953125 
Q 20.953125 3.328125 18.109375 8.203125 
L 18.109375 0 
L 9.078125 0 
L 9.078125 75.984375 
L 18.109375 75.984375 
z
" id="DejaVuSans-98"/>
     </defs>
     <g transform="translate(90.328125 184.949724)scale(0.1 -0.1)">
      <use xlink:href="#DejaVuSans-115"/>
      <use x="52.099609" xlink:href="#DejaVuSans-117"/>
      <use x="115.478516" xlink:href="#DejaVuSans-99"/>
      <use x="170.458984" xlink:href="#DejaVuSans-101"/>
      <use x="231.982422" xlink:href="#DejaVuSans-112"/>
      <use x="295.458984" xlink:href="#DejaVuSans-116"/>
      <use x="334.667969" xlink:href="#DejaVuSans-105"/>
      <use x="362.451172" xlink:href="#DejaVuSans-98"/>
      <use x="425.927734" xlink:href="#DejaVuSans-108"/>
      <use x="453.710938" xlink:href="#DejaVuSans-101"/>
     </g>
    </g>
    <g id="line2d_17">
     <path d="M 62.328125 196.127849 
L 82.328125 196.127849 
" style="fill:none;stroke:#008000;stroke-linecap:square;stroke-width:1.5;"/>
    </g>
    <g id="line2d_18"/>
    <g id="text_10">
     <!-- infected -->
     <defs>
      <path d="M 37.109375 75.984375 
L 37.109375 68.5 
L 28.515625 68.5 
Q 23.6875 68.5 21.796875 66.546875 
Q 19.921875 64.59375 19.921875 59.515625 
L 19.921875 54.6875 
L 34.71875 54.6875 
L 34.71875 47.703125 
L 19.921875 47.703125 
L 19.921875 0 
L 10.890625 0 
L 10.890625 47.703125 
L 2.296875 47.703125 
L 2.296875 54.6875 
L 10.890625 54.6875 
L 10.890625 58.5 
Q 10.890625 67.625 15.140625 71.796875 
Q 19.390625 75.984375 28.609375 75.984375 
z
" id="DejaVuSans-102"/>
      <path d="M 45.40625 46.390625 
L 45.40625 75.984375 
L 54.390625 75.984375 
L 54.390625 0 
L 45.40625 0 
L 45.40625 8.203125 
Q 42.578125 3.328125 38.25 0.953125 
Q 33.9375 -1.421875 27.875 -1.421875 
Q 17.96875 -1.421875 11.734375 6.484375 
Q 5.515625 14.40625 5.515625 27.296875 
Q 5.515625 40.1875 11.734375 48.09375 
Q 17.96875 56 27.875 56 
Q 33.9375 56 38.25 53.625 
Q 42.578125 51.265625 45.40625 46.390625 
z
M 14.796875 27.296875 
Q 14.796875 17.390625 18.875 11.75 
Q 22.953125 6.109375 30.078125 6.109375 
Q 37.203125 6.109375 41.296875 11.75 
Q 45.40625 17.390625 45.40625 27.296875 
Q 45.40625 37.203125 41.296875 42.84375 
Q 37.203125 48.484375 30.078125 48.484375 
Q 22.953125 48.484375 18.875 42.84375 
Q 14.796875 37.203125 14.796875 27.296875 
z
" id="DejaVuSans-100"/>
     </defs>
     <g transform="translate(90.328125 199.627849)scale(0.1 -0.1)">
      <use xlink:href="#DejaVuSans-105"/>
      <use x="27.783203" xlink:href="#DejaVuSans-110"/>
      <use x="91.162109" xlink:href="#DejaVuSans-102"/>
      <use x="126.367188" xlink:href="#DejaVuSans-101"/>
      <use x="187.890625" xlink:href="#DejaVuSans-99"/>
      <use x="242.871094" xlink:href="#DejaVuSans-116"/>
      <use x="282.080078" xlink:href="#DejaVuSans-101"/>
      <use x="343.603516" xlink:href="#DejaVuSans-100"/>
     </g>
    </g>
   </g>
  </g>
  <g id="axes_2">
   <g id="patch_8">
    <path d="M 296.819034 285.458824 
L 499.728125 285.458824 
L 499.728125 93.6 
L 296.819034 93.6 
z
" style="fill:#ffffff;"/>
   </g>
   <g id="matplotlib.axis_3">
    <g id="xtick_7">
     <g id="line2d_19">
      <g>
       <use style="stroke:#000000;stroke-width:0.8;" x="296.819034" xlink:href="#mf0edfa6632" y="285.458824"/>
      </g>
     </g>
    </g>
    <g id="xtick_8">
     <g id="line2d_20">
      <g>
       <use style="stroke:#000000;stroke-width:0.8;" x="337.400852" xlink:href="#mf0edfa6632" y="285.458824"/>
      </g>
     </g>
    </g>
    <g id="xtick_9">
     <g id="line2d_21">
      <g>
       <use style="stroke:#000000;stroke-width:0.8;" x="377.98267" xlink:href="#mf0edfa6632" y="285.458824"/>
      </g>
     </g>
    </g>
    <g id="xtick_10">
     <g id="line2d_22">
      <g>
       <use style="stroke:#000000;stroke-width:0.8;" x="418.564489" xlink:href="#mf0edfa6632" y="285.458824"/>
      </g>
     </g>
    </g>
    <g id="xtick_11">
     <g id="line2d_23">
      <g>
       <use style="stroke:#000000;stroke-width:0.8;" x="459.146307" xlink:href="#mf0edfa6632" y="285.458824"/>
      </g>
     </g>
    </g>
    <g id="xtick_12">
     <g id="line2d_24">
      <g>
       <use style="stroke:#000000;stroke-width:0.8;" x="499.728125" xlink:href="#mf0edfa6632" y="285.458824"/>
      </g>
     </g>
    </g>
   </g>
   <g id="matplotlib.axis_4">
    <g id="ytick_7">
     <g id="line2d_25">
      <g>
       <use style="stroke:#000000;stroke-width:0.8;" x="296.819034" xlink:href="#m2549efb09e" y="285.458824"/>
      </g>
     </g>
    </g>
    <g id="ytick_8">
     <g id="line2d_26">
      <g>
       <use style="stroke:#000000;stroke-width:0.8;" x="296.819034" xlink:href="#m2549efb09e" y="247.087059"/>
      </g>
     </g>
    </g>
    <g id="ytick_9">
     <g id="line2d_27">
      <g>
       <use style="stroke:#000000;stroke-width:0.8;" x="296.819034" xlink:href="#m2549efb09e" y="208.715294"/>
      </g>
     </g>
    </g>
    <g id="ytick_10">
     <g id="line2d_28">
      <g>
       <use style="stroke:#000000;stroke-width:0.8;" x="296.819034" xlink:href="#m2549efb09e" y="170.343529"/>
      </g>
     </g>
    </g>
    <g id="ytick_11">
     <g id="line2d_29">
      <g>
       <use style="stroke:#000000;stroke-width:0.8;" x="296.819034" xlink:href="#m2549efb09e" y="131.971765"/>
      </g>
     </g>
    </g>
    <g id="ytick_12">
     <g id="line2d_30">
      <g>
       <use style="stroke:#000000;stroke-width:0.8;" x="296.819034" xlink:href="#m2549efb09e" y="93.6"/>
      </g>
     </g>
    </g>
   </g>
   <g id="line2d_31">
    <path clip-path="url(#p3f555799a1)" d="M 296.819034 95.518588 
L 306.518089 96.537917 
L 315.283761 97.679327 
L 323.318961 98.94634 
L 330.786016 100.346038 
L 337.80667 101.886984 
L 344.421507 103.564632 
L 350.75227 105.398878 
L 356.839543 107.394262 
L 362.723907 109.557149 
L 368.445943 111.896315 
L 374.086816 114.442634 
L 379.687107 117.216389 
L 385.246816 120.218566 
L 390.847107 123.495387 
L 396.569143 127.103023 
L 402.453507 131.078019 
L 408.621943 135.516172 
L 415.23678 140.553792 
L 422.62267 146.465929 
L 431.55067 153.912149 
L 449.122598 168.946623 
L 459.998525 178.067729 
L 468.15547 184.624265 
L 475.379034 190.150475 
L 482.115616 195.027068 
L 488.568125 199.424661 
L 494.817725 203.417199 
L 499.687543 206.34321 
L 499.687543 206.34321 
" style="fill:none;stroke:#ff0000;stroke-linecap:square;stroke-width:1.5;"/>
   </g>
   <g id="line2d_32">
    <path clip-path="url(#p3f555799a1)" d="M 296.819034 283.540235 
L 310.535689 282.79396 
L 322.588489 281.920134 
L 333.464416 280.912739 
L 343.528707 279.75993 
L 353.024852 278.449943 
L 362.155761 276.967137 
L 371.164925 275.279251 
L 380.336416 273.333576 
L 390.157216 271.01852 
L 401.925943 268.003906 
L 428.953434 260.990238 
L 437.191543 259.146457 
L 444.333943 257.771758 
L 450.908198 256.729529 
L 457.157798 255.961037 
L 463.24507 255.4344 
L 469.291761 255.133609 
L 475.379034 255.053078 
L 481.628634 255.19398 
L 488.121725 255.564571 
L 495.020634 256.184304 
L 499.687543 256.720309 
L 499.687543 256.720309 
" style="fill:none;stroke:#008000;stroke-linecap:square;stroke-width:1.5;"/>
   </g>
   <g id="patch_9">
    <path d="M 296.819034 285.458824 
L 296.819034 93.6 
" style="fill:none;stroke:#000000;stroke-linecap:square;stroke-linejoin:miter;stroke-width:0.8;"/>
   </g>
   <g id="patch_10">
    <path d="M 499.728125 285.458824 
L 499.728125 93.6 
" style="fill:none;stroke:#000000;stroke-linecap:square;stroke-linejoin:miter;stroke-width:0.8;"/>
   </g>
   <g id="patch_11">
    <path d="M 296.819034 285.458824 
L 499.728125 285.458824 
" style="fill:none;stroke:#000000;stroke-linecap:square;stroke-linejoin:miter;stroke-width:0.8;"/>
   </g>
   <g id="patch_12">
    <path d="M 296.819034 93.6 
L 499.728125 93.6 
" style="fill:none;stroke:#000000;stroke-linecap:square;stroke-linejoin:miter;stroke-width:0.8;"/>
   </g>
   <g id="text_11">
    <!-- $p_{\mathit{Infect}} = 0.0000020$ -->
    <g transform="translate(342.53358 87.6)scale(0.12 -0.12)">
     <use transform="translate(0 0.78125)" xlink:href="#DejaVuSans-Oblique-112"/>
     <use transform="translate(63.476562 -15.625)scale(0.7)" xlink:href="#DejaVuSans-Oblique-73"/>
     <use transform="translate(84.121094 -15.625)scale(0.7)" xlink:href="#DejaVuSans-Oblique-110"/>
     <use transform="translate(128.486328 -15.625)scale(0.7)" xlink:href="#DejaVuSans-Oblique-102"/>
     <use transform="translate(153.129883 -15.625)scale(0.7)" xlink:href="#DejaVuSans-Oblique-101"/>
     <use transform="translate(196.196289 -15.625)scale(0.7)" xlink:href="#DejaVuSans-Oblique-99"/>
     <use transform="translate(234.682617 -15.625)scale(0.7)" xlink:href="#DejaVuSans-Oblique-116"/>
     <use transform="translate(284.345703 0.78125)" xlink:href="#DejaVuSans-61"/>
     <use transform="translate(387.617188 0.78125)" xlink:href="#DejaVuSans-48"/>
     <use transform="translate(451.240234 0.78125)" xlink:href="#DejaVuSans-46"/>
     <use transform="translate(483.027344 0.78125)" xlink:href="#DejaVuSans-48"/>
     <use transform="translate(546.650391 0.78125)" xlink:href="#DejaVuSans-48"/>
     <use transform="translate(610.273438 0.78125)" xlink:href="#DejaVuSans-48"/>
     <use transform="translate(673.896484 0.78125)" xlink:href="#DejaVuSans-48"/>
     <use transform="translate(737.519531 0.78125)" xlink:href="#DejaVuSans-48"/>
     <use transform="translate(801.142578 0.78125)" xlink:href="#DejaVuSans-50"/>
     <use transform="translate(864.765625 0.78125)" xlink:href="#DejaVuSans-48"/>
    </g>
   </g>
  </g>
  <g id="axes_3">
   <g id="patch_13">
    <path d="M 53.328125 515.689412 
L 256.237216 515.689412 
L 256.237216 323.830588 
L 53.328125 323.830588 
z
" style="fill:#ffffff;"/>
   </g>
   <g id="matplotlib.axis_5">
    <g id="xtick_13">
     <g id="line2d_33">
      <g>
       <use style="stroke:#000000;stroke-width:0.8;" x="53.328125" xlink:href="#mf0edfa6632" y="515.689412"/>
      </g>
     </g>
    </g>
    <g id="xtick_14">
     <g id="line2d_34">
      <g>
       <use style="stroke:#000000;stroke-width:0.8;" x="93.909943" xlink:href="#mf0edfa6632" y="515.689412"/>
      </g>
     </g>
    </g>
    <g id="xtick_15">
     <g id="line2d_35">
      <g>
       <use style="stroke:#000000;stroke-width:0.8;" x="134.491761" xlink:href="#mf0edfa6632" y="515.689412"/>
      </g>
     </g>
    </g>
    <g id="xtick_16">
     <g id="line2d_36">
      <g>
       <use style="stroke:#000000;stroke-width:0.8;" x="175.07358" xlink:href="#mf0edfa6632" y="515.689412"/>
      </g>
     </g>
    </g>
    <g id="xtick_17">
     <g id="line2d_37">
      <g>
       <use style="stroke:#000000;stroke-width:0.8;" x="215.655398" xlink:href="#mf0edfa6632" y="515.689412"/>
      </g>
     </g>
    </g>
    <g id="xtick_18">
     <g id="line2d_38">
      <g>
       <use style="stroke:#000000;stroke-width:0.8;" x="256.237216" xlink:href="#mf0edfa6632" y="515.689412"/>
      </g>
     </g>
    </g>
    <g id="text_12">
     <!-- $t$ -->
     <g transform="translate(152.78267 527.287849)scale(0.1 -0.1)">
      <use transform="translate(0 0.78125)" xlink:href="#DejaVuSans-Oblique-116"/>
     </g>
    </g>
   </g>
   <g id="matplotlib.axis_6">
    <g id="ytick_13">
     <g id="line2d_39">
      <g>
       <use style="stroke:#000000;stroke-width:0.8;" x="53.328125" xlink:href="#m2549efb09e" y="515.689412"/>
      </g>
     </g>
     <g id="text_13">
      <!-- 0 -->
      <g transform="translate(39.965625 519.488631)scale(0.1 -0.1)">
       <use xlink:href="#DejaVuSans-48"/>
      </g>
     </g>
    </g>
    <g id="ytick_14">
     <g id="line2d_40">
      <g>
       <use style="stroke:#000000;stroke-width:0.8;" x="53.328125" xlink:href="#m2549efb09e" y="477.317647"/>
      </g>
     </g>
     <g id="text_14">
      <!-- 200 -->
      <g transform="translate(27.240625 481.116866)scale(0.1 -0.1)">
       <use xlink:href="#DejaVuSans-50"/>
       <use x="63.623047" xlink:href="#DejaVuSans-48"/>
       <use x="127.246094" xlink:href="#DejaVuSans-48"/>
      </g>
     </g>
    </g>
    <g id="ytick_15">
     <g id="line2d_41">
      <g>
       <use style="stroke:#000000;stroke-width:0.8;" x="53.328125" xlink:href="#m2549efb09e" y="438.945882"/>
      </g>
     </g>
     <g id="text_15">
      <!-- 400 -->
      <g transform="translate(27.240625 442.745101)scale(0.1 -0.1)">
       <use xlink:href="#DejaVuSans-52"/>
       <use x="63.623047" xlink:href="#DejaVuSans-48"/>
       <use x="127.246094" xlink:href="#DejaVuSans-48"/>
      </g>
     </g>
    </g>
    <g id="ytick_16">
     <g id="line2d_42">
      <g>
       <use style="stroke:#000000;stroke-width:0.8;" x="53.328125" xlink:href="#m2549efb09e" y="400.574118"/>
      </g>
     </g>
     <g id="text_16">
      <!-- 600 -->
      <g transform="translate(27.240625 404.373336)scale(0.1 -0.1)">
       <use xlink:href="#DejaVuSans-54"/>
       <use x="63.623047" xlink:href="#DejaVuSans-48"/>
       <use x="127.246094" xlink:href="#DejaVuSans-48"/>
      </g>
     </g>
    </g>
    <g id="ytick_17">
     <g id="line2d_43">
      <g>
       <use style="stroke:#000000;stroke-width:0.8;" x="53.328125" xlink:href="#m2549efb09e" y="362.202353"/>
      </g>
     </g>
     <g id="text_17">
      <!-- 800 -->
      <g transform="translate(27.240625 366.001572)scale(0.1 -0.1)">
       <use xlink:href="#DejaVuSans-56"/>
       <use x="63.623047" xlink:href="#DejaVuSans-48"/>
       <use x="127.246094" xlink:href="#DejaVuSans-48"/>
      </g>
     </g>
    </g>
    <g id="ytick_18">
     <g id="line2d_44">
      <g>
       <use style="stroke:#000000;stroke-width:0.8;" x="53.328125" xlink:href="#m2549efb09e" y="323.830588"/>
      </g>
     </g>
     <g id="text_18">
      <!-- 1000 -->
      <g transform="translate(20.878125 327.629807)scale(0.1 -0.1)">
       <use xlink:href="#DejaVuSans-49"/>
       <use x="63.623047" xlink:href="#DejaVuSans-48"/>
       <use x="127.246094" xlink:href="#DejaVuSans-48"/>
       <use x="190.869141" xlink:href="#DejaVuSans-48"/>
      </g>
     </g>
    </g>
    <g id="text_19">
     <!-- population that is... -->
     <g transform="translate(14.798438 468.459219)rotate(-90)scale(0.1 -0.1)">
      <use xlink:href="#DejaVuSans-112"/>
      <use x="63.476562" xlink:href="#DejaVuSans-111"/>
      <use x="124.658203" xlink:href="#DejaVuSans-112"/>
      <use x="188.134766" xlink:href="#DejaVuSans-117"/>
      <use x="251.513672" xlink:href="#DejaVuSans-108"/>
      <use x="279.296875" xlink:href="#DejaVuSans-97"/>
      <use x="340.576172" xlink:href="#DejaVuSans-116"/>
      <use x="379.785156" xlink:href="#DejaVuSans-105"/>
      <use x="407.568359" xlink:href="#DejaVuSans-111"/>
      <use x="468.75" xlink:href="#DejaVuSans-110"/>
      <use x="532.128906" xlink:href="#DejaVuSans-32"/>
      <use x="563.916016" xlink:href="#DejaVuSans-116"/>
      <use x="603.125" xlink:href="#DejaVuSans-104"/>
      <use x="666.503906" xlink:href="#DejaVuSans-97"/>
      <use x="727.783203" xlink:href="#DejaVuSans-116"/>
      <use x="766.992188" xlink:href="#DejaVuSans-32"/>
      <use x="798.779297" xlink:href="#DejaVuSans-105"/>
      <use x="826.5625" xlink:href="#DejaVuSans-115"/>
      <use x="878.662109" xlink:href="#DejaVuSans-46"/>
      <use x="910.449219" xlink:href="#DejaVuSans-46"/>
      <use x="942.236328" xlink:href="#DejaVuSans-46"/>
     </g>
    </g>
   </g>
   <g id="line2d_45">
    <path clip-path="url(#p5a1a645a20)" d="M 53.328125 325.749176 
L 57.91387 326.612026 
L 61.972052 327.597369 
L 65.664998 328.721277 
L 69.033289 329.976861 
L 72.158089 331.376214 
L 75.120561 332.946797 
L 77.920707 334.682545 
L 80.599107 336.601971 
L 83.196343 338.734032 
L 85.752998 341.120649 
L 88.26907 343.773964 
L 90.785143 346.753353 
L 93.301216 350.080055 
L 95.85787 353.833904 
L 98.455107 358.045204 
L 101.174089 362.888272 
L 104.014816 368.415297 
L 107.058452 374.839301 
L 110.386161 382.395528 
L 114.282016 391.814095 
L 119.760561 405.701623 
L 128.282743 427.277386 
L 132.381507 437.012426 
L 135.912125 444.839113 
L 139.15867 451.50327 
L 142.202307 457.254657 
L 145.16478 462.382273 
L 148.046089 466.929653 
L 150.886816 471.003172 
L 153.727543 474.690813 
L 156.56827 478.017738 
L 159.44958 481.051925 
L 162.37147 483.809084 
L 165.374525 486.339216 
L 168.499325 488.679037 
L 171.74587 490.829063 
L 175.114161 492.793366 
L 178.685361 494.617629 
L 182.45947 496.295816 
L 186.517652 497.855527 
L 190.900489 499.299155 
L 195.689143 500.637836 
L 200.924198 501.866633 
L 206.727398 502.996558 
L 213.220489 504.030096 
L 220.565798 504.969673 
L 229.006816 505.819352 
L 238.787034 506.574718 
L 250.352852 507.238849 
L 256.196634 507.503651 
L 256.196634 507.503651 
" style="fill:none;stroke:#ff0000;stroke-linecap:square;stroke-width:1.5;"/>
   </g>
   <g id="line2d_46">
    <path clip-path="url(#p5a1a645a20)" d="M 53.328125 513.770824 
L 58.725507 513.030685 
L 63.432998 512.163931 
L 67.612925 511.171254 
L 71.427616 510.037797 
L 74.917652 508.771872 
L 78.20478 507.344956 
L 81.32958 505.746744 
L 84.332634 503.961616 
L 87.254525 501.966984 
L 90.135834 499.731998 
L 93.057725 497.179391 
L 96.020198 494.289944 
L 99.104416 490.962905 
L 102.391543 487.080707 
L 106.084489 482.363632 
L 110.913725 475.80448 
L 119.598234 463.968181 
L 123.007107 459.743456 
L 125.847834 456.565844 
L 128.404489 454.033645 
L 130.758234 452.011936 
L 132.949652 450.416111 
L 135.059907 449.150715 
L 137.088998 448.188719 
L 139.077507 447.487246 
L 141.066016 447.019891 
L 143.054525 446.778792 
L 145.083616 446.755116 
L 147.19387 446.95445 
L 149.385289 447.385219 
L 151.739034 448.078846 
L 154.255107 449.055834 
L 157.01467 450.369846 
L 160.098889 452.089308 
L 163.670089 454.342193 
L 168.012343 457.355255 
L 174.059034 461.845237 
L 190.413507 474.109516 
L 196.622525 478.416609 
L 202.344561 482.119412 
L 207.863689 485.428911 
L 213.301652 488.432976 
L 218.780198 491.205196 
L 224.299325 493.749119 
L 229.940198 496.104566 
L 235.743398 498.28665 
L 241.749507 500.307306 
L 248.039689 502.187001 
L 254.613943 503.918226 
L 256.196634 504.302222 
L 256.196634 504.302222 
" style="fill:none;stroke:#008000;stroke-linecap:square;stroke-width:1.5;"/>
   </g>
   <g id="patch_14">
    <path d="M 53.328125 515.689412 
L 53.328125 323.830588 
" style="fill:none;stroke:#000000;stroke-linecap:square;stroke-linejoin:miter;stroke-width:0.8;"/>
   </g>
   <g id="patch_15">
    <path d="M 256.237216 515.689412 
L 256.237216 323.830588 
" style="fill:none;stroke:#000000;stroke-linecap:square;stroke-linejoin:miter;stroke-width:0.8;"/>
   </g>
   <g id="patch_16">
    <path d="M 53.328125 515.689412 
L 256.237216 515.689412 
" style="fill:none;stroke:#000000;stroke-linecap:square;stroke-linejoin:miter;stroke-width:0.8;"/>
   </g>
   <g id="patch_17">
    <path d="M 53.328125 323.830588 
L 256.237216 323.830588 
" style="fill:none;stroke:#000000;stroke-linecap:square;stroke-linejoin:miter;stroke-width:0.8;"/>
   </g>
   <g id="text_20">
    <!-- $p_{\mathit{Infect}} = 0.0000035$ -->
    <defs>
     <path d="M 40.578125 39.3125 
Q 47.65625 37.796875 51.625 33 
Q 55.609375 28.21875 55.609375 21.1875 
Q 55.609375 10.40625 48.1875 4.484375 
Q 40.765625 -1.421875 27.09375 -1.421875 
Q 22.515625 -1.421875 17.65625 -0.515625 
Q 12.796875 0.390625 7.625 2.203125 
L 7.625 11.71875 
Q 11.71875 9.328125 16.59375 8.109375 
Q 21.484375 6.890625 26.8125 6.890625 
Q 36.078125 6.890625 40.9375 10.546875 
Q 45.796875 14.203125 45.796875 21.1875 
Q 45.796875 27.640625 41.28125 31.265625 
Q 36.765625 34.90625 28.71875 34.90625 
L 20.21875 34.90625 
L 20.21875 43.015625 
L 29.109375 43.015625 
Q 36.375 43.015625 40.234375 45.921875 
Q 44.09375 48.828125 44.09375 54.296875 
Q 44.09375 59.90625 40.109375 62.90625 
Q 36.140625 65.921875 28.71875 65.921875 
Q 24.65625 65.921875 20.015625 65.03125 
Q 15.375 64.15625 9.8125 62.3125 
L 9.8125 71.09375 
Q 15.4375 72.65625 20.34375 73.4375 
Q 25.25 74.21875 29.59375 74.21875 
Q 40.828125 74.21875 47.359375 69.109375 
Q 53.90625 64.015625 53.90625 55.328125 
Q 53.90625 49.265625 50.4375 45.09375 
Q 46.96875 40.921875 40.578125 39.3125 
z
" id="DejaVuSans-51"/>
     <path d="M 10.796875 72.90625 
L 49.515625 72.90625 
L 49.515625 64.59375 
L 19.828125 64.59375 
L 19.828125 46.734375 
Q 21.96875 47.46875 24.109375 47.828125 
Q 26.265625 48.1875 28.421875 48.1875 
Q 40.625 48.1875 47.75 41.5 
Q 54.890625 34.8125 54.890625 23.390625 
Q 54.890625 11.625 47.5625 5.09375 
Q 40.234375 -1.421875 26.90625 -1.421875 
Q 22.3125 -1.421875 17.546875 -0.640625 
Q 12.796875 0.140625 7.71875 1.703125 
L 7.71875 11.625 
Q 12.109375 9.234375 16.796875 8.0625 
Q 21.484375 6.890625 26.703125 6.890625 
Q 35.15625 6.890625 40.078125 11.328125 
Q 45.015625 15.765625 45.015625 23.390625 
Q 45.015625 31 40.078125 35.4375 
Q 35.15625 39.890625 26.703125 39.890625 
Q 22.75 39.890625 18.8125 39.015625 
Q 14.890625 38.140625 10.796875 36.28125 
z
" id="DejaVuSans-53"/>
    </defs>
    <g transform="translate(99.04267 317.830588)scale(0.12 -0.12)">
     <use transform="translate(0 0.78125)" xlink:href="#DejaVuSans-Oblique-112"/>
     <use transform="translate(63.476562 -15.625)scale(0.7)" xlink:href="#DejaVuSans-Oblique-73"/>
     <use transform="translate(84.121094 -15.625)scale(0.7)" xlink:href="#DejaVuSans-Oblique-110"/>
     <use transform="translate(128.486328 -15.625)scale(0.7)" xlink:href="#DejaVuSans-Oblique-102"/>
     <use transform="translate(153.129883 -15.625)scale(0.7)" xlink:href="#DejaVuSans-Oblique-101"/>
     <use transform="translate(196.196289 -15.625)scale(0.7)" xlink:href="#DejaVuSans-Oblique-99"/>
     <use transform="translate(234.682617 -15.625)scale(0.7)" xlink:href="#DejaVuSans-Oblique-116"/>
     <use transform="translate(284.345703 0.78125)" xlink:href="#DejaVuSans-61"/>
     <use transform="translate(387.617188 0.78125)" xlink:href="#DejaVuSans-48"/>
     <use transform="translate(451.240234 0.78125)" xlink:href="#DejaVuSans-46"/>
     <use transform="translate(483.027344 0.78125)" xlink:href="#DejaVuSans-48"/>
     <use transform="translate(546.650391 0.78125)" xlink:href="#DejaVuSans-48"/>
     <use transform="translate(610.273438 0.78125)" xlink:href="#DejaVuSans-48"/>
     <use transform="translate(673.896484 0.78125)" xlink:href="#DejaVuSans-48"/>
     <use transform="translate(737.519531 0.78125)" xlink:href="#DejaVuSans-48"/>
     <use transform="translate(801.142578 0.78125)" xlink:href="#DejaVuSans-51"/>
     <use transform="translate(864.765625 0.78125)" xlink:href="#DejaVuSans-53"/>
    </g>
   </g>
  </g>
  <g id="axes_4">
   <g id="patch_18">
    <path d="M 296.819034 515.689412 
L 499.728125 515.689412 
L 499.728125 323.830588 
L 296.819034 323.830588 
z
" style="fill:#ffffff;"/>
   </g>
   <g id="matplotlib.axis_7">
    <g id="xtick_19">
     <g id="line2d_47">
      <g>
       <use style="stroke:#000000;stroke-width:0.8;" x="296.819034" xlink:href="#mf0edfa6632" y="515.689412"/>
      </g>
     </g>
    </g>
    <g id="xtick_20">
     <g id="line2d_48">
      <g>
       <use style="stroke:#000000;stroke-width:0.8;" x="337.400852" xlink:href="#mf0edfa6632" y="515.689412"/>
      </g>
     </g>
    </g>
    <g id="xtick_21">
     <g id="line2d_49">
      <g>
       <use style="stroke:#000000;stroke-width:0.8;" x="377.98267" xlink:href="#mf0edfa6632" y="515.689412"/>
      </g>
     </g>
    </g>
    <g id="xtick_22">
     <g id="line2d_50">
      <g>
       <use style="stroke:#000000;stroke-width:0.8;" x="418.564489" xlink:href="#mf0edfa6632" y="515.689412"/>
      </g>
     </g>
    </g>
    <g id="xtick_23">
     <g id="line2d_51">
      <g>
       <use style="stroke:#000000;stroke-width:0.8;" x="459.146307" xlink:href="#mf0edfa6632" y="515.689412"/>
      </g>
     </g>
    </g>
    <g id="xtick_24">
     <g id="line2d_52">
      <g>
       <use style="stroke:#000000;stroke-width:0.8;" x="499.728125" xlink:href="#mf0edfa6632" y="515.689412"/>
      </g>
     </g>
    </g>
    <g id="text_21">
     <!-- $t$ -->
     <g transform="translate(396.27358 527.287849)scale(0.1 -0.1)">
      <use transform="translate(0 0.78125)" xlink:href="#DejaVuSans-Oblique-116"/>
     </g>
    </g>
   </g>
   <g id="matplotlib.axis_8">
    <g id="ytick_19">
     <g id="line2d_53">
      <g>
       <use style="stroke:#000000;stroke-width:0.8;" x="296.819034" xlink:href="#m2549efb09e" y="515.689412"/>
      </g>
     </g>
    </g>
    <g id="ytick_20">
     <g id="line2d_54">
      <g>
       <use style="stroke:#000000;stroke-width:0.8;" x="296.819034" xlink:href="#m2549efb09e" y="477.317647"/>
      </g>
     </g>
    </g>
    <g id="ytick_21">
     <g id="line2d_55">
      <g>
       <use style="stroke:#000000;stroke-width:0.8;" x="296.819034" xlink:href="#m2549efb09e" y="438.945882"/>
      </g>
     </g>
    </g>
    <g id="ytick_22">
     <g id="line2d_56">
      <g>
       <use style="stroke:#000000;stroke-width:0.8;" x="296.819034" xlink:href="#m2549efb09e" y="400.574118"/>
      </g>
     </g>
    </g>
    <g id="ytick_23">
     <g id="line2d_57">
      <g>
       <use style="stroke:#000000;stroke-width:0.8;" x="296.819034" xlink:href="#m2549efb09e" y="362.202353"/>
      </g>
     </g>
    </g>
    <g id="ytick_24">
     <g id="line2d_58">
      <g>
       <use style="stroke:#000000;stroke-width:0.8;" x="296.819034" xlink:href="#m2549efb09e" y="323.830588"/>
      </g>
     </g>
    </g>
   </g>
   <g id="line2d_59">
    <path clip-path="url(#p7d001195f1)" d="M 296.819034 325.749176 
L 300.714889 326.589228 
L 304.164343 327.554299 
L 307.289143 328.655095 
L 310.170452 329.90439 
L 312.848852 331.307575 
L 315.364925 332.875546 
L 317.759252 334.627721 
L 320.072416 336.595218 
L 322.344998 338.824257 
L 324.576998 341.331264 
L 326.768416 344.129352 
L 328.959834 347.289236 
L 331.191834 350.905473 
L 333.464416 355.021884 
L 335.77758 359.676968 
L 338.212489 365.088552 
L 340.769143 371.32242 
L 343.569289 378.754698 
L 346.73467 387.813638 
L 350.711689 399.919073 
L 362.399252 435.953403 
L 365.68638 445.11555 
L 368.648852 452.728871 
L 371.408416 459.21682 
L 374.046234 464.857032 
L 376.602889 469.804635 
L 379.118961 474.192742 
L 381.594452 478.070177 
L 384.069943 481.541922 
L 386.586016 484.689135 
L 389.14267 487.529898 
L 391.739907 490.084861 
L 394.418307 492.409122 
L 397.218452 494.542079 
L 400.140343 496.485442 
L 403.224561 498.266585 
L 406.511689 499.903767 
L 410.001725 501.392577 
L 413.816416 502.774383 
L 417.955761 504.034603 
L 422.541507 505.194763 
L 427.654816 506.254934 
L 433.417434 507.218827 
L 440.03227 508.094471 
L 447.702234 508.879594 
L 456.75198 509.576224 
L 467.668489 510.186037 
L 481.141652 510.70729 
L 498.307761 511.138727 
L 499.687543 511.16544 
L 499.687543 511.16544 
" style="fill:none;stroke:#ff0000;stroke-linecap:square;stroke-width:1.5;"/>
   </g>
   <g id="line2d_60">
    <path clip-path="url(#p7d001195f1)" d="M 296.819034 513.770824 
L 301.323616 513.028711 
L 305.21947 512.166607 
L 308.709507 511.169641 
L 311.874889 510.036552 
L 314.79678 508.756915 
L 317.556343 507.30536 
L 320.15358 505.690374 
L 322.669652 503.865565 
L 325.145143 501.792645 
L 327.580052 499.46113 
L 330.014961 496.819972 
L 332.490452 493.804133 
L 335.047107 490.335712 
L 337.766089 486.264923 
L 340.769143 481.354112 
L 344.340343 475.066255 
L 356.068489 454.039933 
L 358.665725 450.052732 
L 360.938307 446.954192 
L 363.00798 444.494641 
L 364.955907 442.520433 
L 366.782089 440.981899 
L 368.527107 439.798159 
L 370.231543 438.910718 
L 371.895398 438.295254 
L 373.559252 437.919155 
L 375.223107 437.771415 
L 376.927543 437.843212 
L 378.713143 438.143721 
L 380.579907 438.683801 
L 382.608998 439.5066 
L 384.800416 440.638099 
L 387.275907 442.175447 
L 390.076052 444.186114 
L 393.36318 446.829707 
L 397.543107 450.494836 
L 404.036198 456.52675 
L 414.425143 466.154819 
L 420.228343 471.212283 
L 425.463398 475.483464 
L 430.454961 479.271785 
L 435.32478 482.692112 
L 440.194598 485.842056 
L 445.104998 488.75269 
L 450.05598 491.429945 
L 455.128707 493.920791 
L 460.363761 496.242321 
L 465.761143 498.391969 
L 471.402016 500.397285 
L 477.28638 502.251683 
L 483.495398 503.973118 
L 490.069652 505.562549 
L 497.090307 507.027815 
L 499.687543 507.515533 
L 499.687543 507.515533 
" style="fill:none;stroke:#008000;stroke-linecap:square;stroke-width:1.5;"/>
   </g>
   <g id="patch_19">
    <path d="M 296.819034 515.689412 
L 296.819034 323.830588 
" style="fill:none;stroke:#000000;stroke-linecap:square;stroke-linejoin:miter;stroke-width:0.8;"/>
   </g>
   <g id="patch_20">
    <path d="M 499.728125 515.689412 
L 499.728125 323.830588 
" style="fill:none;stroke:#000000;stroke-linecap:square;stroke-linejoin:miter;stroke-width:0.8;"/>
   </g>
   <g id="patch_21">
    <path d="M 296.819034 515.689412 
L 499.728125 515.689412 
" style="fill:none;stroke:#000000;stroke-linecap:square;stroke-linejoin:miter;stroke-width:0.8;"/>
   </g>
   <g id="patch_22">
    <path d="M 296.819034 323.830588 
L 499.728125 323.830588 
" style="fill:none;stroke:#000000;stroke-linecap:square;stroke-linejoin:miter;stroke-width:0.8;"/>
   </g>
   <g id="text_22">
    <!-- $p_{\mathit{Infect}} = 0.0000040$ -->
    <g transform="translate(342.53358 317.830588)scale(0.12 -0.12)">
     <use transform="translate(0 0.78125)" xlink:href="#DejaVuSans-Oblique-112"/>
     <use transform="translate(63.476562 -15.625)scale(0.7)" xlink:href="#DejaVuSans-Oblique-73"/>
     <use transform="translate(84.121094 -15.625)scale(0.7)" xlink:href="#DejaVuSans-Oblique-110"/>
     <use transform="translate(128.486328 -15.625)scale(0.7)" xlink:href="#DejaVuSans-Oblique-102"/>
     <use transform="translate(153.129883 -15.625)scale(0.7)" xlink:href="#DejaVuSans-Oblique-101"/>
     <use transform="translate(196.196289 -15.625)scale(0.7)" xlink:href="#DejaVuSans-Oblique-99"/>
     <use transform="translate(234.682617 -15.625)scale(0.7)" xlink:href="#DejaVuSans-Oblique-116"/>
     <use transform="translate(284.345703 0.78125)" xlink:href="#DejaVuSans-61"/>
     <use transform="translate(387.617188 0.78125)" xlink:href="#DejaVuSans-48"/>
     <use transform="translate(451.240234 0.78125)" xlink:href="#DejaVuSans-46"/>
     <use transform="translate(483.027344 0.78125)" xlink:href="#DejaVuSans-48"/>
     <use transform="translate(546.650391 0.78125)" xlink:href="#DejaVuSans-48"/>
     <use transform="translate(610.273438 0.78125)" xlink:href="#DejaVuSans-48"/>
     <use transform="translate(673.896484 0.78125)" xlink:href="#DejaVuSans-48"/>
     <use transform="translate(737.519531 0.78125)" xlink:href="#DejaVuSans-48"/>
     <use transform="translate(801.142578 0.78125)" xlink:href="#DejaVuSans-52"/>
     <use transform="translate(864.765625 0.78125)" xlink:href="#DejaVuSans-48"/>
    </g>
   </g>
  </g>
  <g id="axes_5">
   <g id="patch_23">
    <path d="M 53.328125 745.92 
L 256.237216 745.92 
L 256.237216 554.061176 
L 53.328125 554.061176 
z
" style="fill:#ffffff;"/>
   </g>
   <g id="matplotlib.axis_9">
    <g id="xtick_25">
     <g id="line2d_61">
      <g>
       <use style="stroke:#000000;stroke-width:0.8;" x="53.328125" xlink:href="#mf0edfa6632" y="745.92"/>
      </g>
     </g>
     <g id="text_23">
      <!-- 0 -->
      <g transform="translate(50.146875 760.518438)scale(0.1 -0.1)">
       <use xlink:href="#DejaVuSans-48"/>
      </g>
     </g>
    </g>
    <g id="xtick_26">
     <g id="line2d_62">
      <g>
       <use style="stroke:#000000;stroke-width:0.8;" x="93.909943" xlink:href="#mf0edfa6632" y="745.92"/>
      </g>
     </g>
     <g id="text_24">
      <!-- 1000 -->
      <g transform="translate(81.184943 760.518438)scale(0.1 -0.1)">
       <use xlink:href="#DejaVuSans-49"/>
       <use x="63.623047" xlink:href="#DejaVuSans-48"/>
       <use x="127.246094" xlink:href="#DejaVuSans-48"/>
       <use x="190.869141" xlink:href="#DejaVuSans-48"/>
      </g>
     </g>
    </g>
    <g id="xtick_27">
     <g id="line2d_63">
      <g>
       <use style="stroke:#000000;stroke-width:0.8;" x="134.491761" xlink:href="#mf0edfa6632" y="745.92"/>
      </g>
     </g>
     <g id="text_25">
      <!-- 2000 -->
      <g transform="translate(121.766761 760.518438)scale(0.1 -0.1)">
       <use xlink:href="#DejaVuSans-50"/>
       <use x="63.623047" xlink:href="#DejaVuSans-48"/>
       <use x="127.246094" xlink:href="#DejaVuSans-48"/>
       <use x="190.869141" xlink:href="#DejaVuSans-48"/>
      </g>
     </g>
    </g>
    <g id="xtick_28">
     <g id="line2d_64">
      <g>
       <use style="stroke:#000000;stroke-width:0.8;" x="175.07358" xlink:href="#mf0edfa6632" y="745.92"/>
      </g>
     </g>
     <g id="text_26">
      <!-- 3000 -->
      <g transform="translate(162.34858 760.518438)scale(0.1 -0.1)">
       <use xlink:href="#DejaVuSans-51"/>
       <use x="63.623047" xlink:href="#DejaVuSans-48"/>
       <use x="127.246094" xlink:href="#DejaVuSans-48"/>
       <use x="190.869141" xlink:href="#DejaVuSans-48"/>
      </g>
     </g>
    </g>
    <g id="xtick_29">
     <g id="line2d_65">
      <g>
       <use style="stroke:#000000;stroke-width:0.8;" x="215.655398" xlink:href="#mf0edfa6632" y="745.92"/>
      </g>
     </g>
     <g id="text_27">
      <!-- 4000 -->
      <g transform="translate(202.930398 760.518438)scale(0.1 -0.1)">
       <use xlink:href="#DejaVuSans-52"/>
       <use x="63.623047" xlink:href="#DejaVuSans-48"/>
       <use x="127.246094" xlink:href="#DejaVuSans-48"/>
       <use x="190.869141" xlink:href="#DejaVuSans-48"/>
      </g>
     </g>
    </g>
    <g id="xtick_30">
     <g id="line2d_66">
      <g>
       <use style="stroke:#000000;stroke-width:0.8;" x="256.237216" xlink:href="#mf0edfa6632" y="745.92"/>
      </g>
     </g>
     <g id="text_28">
      <!-- 5000 -->
      <g transform="translate(243.512216 760.518438)scale(0.1 -0.1)">
       <use xlink:href="#DejaVuSans-53"/>
       <use x="63.623047" xlink:href="#DejaVuSans-48"/>
       <use x="127.246094" xlink:href="#DejaVuSans-48"/>
       <use x="190.869141" xlink:href="#DejaVuSans-48"/>
      </g>
     </g>
    </g>
   </g>
   <g id="matplotlib.axis_10">
    <g id="ytick_25">
     <g id="line2d_67">
      <g>
       <use style="stroke:#000000;stroke-width:0.8;" x="53.328125" xlink:href="#m2549efb09e" y="745.92"/>
      </g>
     </g>
     <g id="text_29">
      <!-- 0 -->
      <g transform="translate(39.965625 749.719219)scale(0.1 -0.1)">
       <use xlink:href="#DejaVuSans-48"/>
      </g>
     </g>
    </g>
    <g id="ytick_26">
     <g id="line2d_68">
      <g>
       <use style="stroke:#000000;stroke-width:0.8;" x="53.328125" xlink:href="#m2549efb09e" y="707.548235"/>
      </g>
     </g>
     <g id="text_30">
      <!-- 200 -->
      <g transform="translate(27.240625 711.347454)scale(0.1 -0.1)">
       <use xlink:href="#DejaVuSans-50"/>
       <use x="63.623047" xlink:href="#DejaVuSans-48"/>
       <use x="127.246094" xlink:href="#DejaVuSans-48"/>
      </g>
     </g>
    </g>
    <g id="ytick_27">
     <g id="line2d_69">
      <g>
       <use style="stroke:#000000;stroke-width:0.8;" x="53.328125" xlink:href="#m2549efb09e" y="669.176471"/>
      </g>
     </g>
     <g id="text_31">
      <!-- 400 -->
      <g transform="translate(27.240625 672.975689)scale(0.1 -0.1)">
       <use xlink:href="#DejaVuSans-52"/>
       <use x="63.623047" xlink:href="#DejaVuSans-48"/>
       <use x="127.246094" xlink:href="#DejaVuSans-48"/>
      </g>
     </g>
    </g>
    <g id="ytick_28">
     <g id="line2d_70">
      <g>
       <use style="stroke:#000000;stroke-width:0.8;" x="53.328125" xlink:href="#m2549efb09e" y="630.804706"/>
      </g>
     </g>
     <g id="text_32">
      <!-- 600 -->
      <g transform="translate(27.240625 634.603925)scale(0.1 -0.1)">
       <use xlink:href="#DejaVuSans-54"/>
       <use x="63.623047" xlink:href="#DejaVuSans-48"/>
       <use x="127.246094" xlink:href="#DejaVuSans-48"/>
      </g>
     </g>
    </g>
    <g id="ytick_29">
     <g id="line2d_71">
      <g>
       <use style="stroke:#000000;stroke-width:0.8;" x="53.328125" xlink:href="#m2549efb09e" y="592.432941"/>
      </g>
     </g>
     <g id="text_33">
      <!-- 800 -->
      <g transform="translate(27.240625 596.23216)scale(0.1 -0.1)">
       <use xlink:href="#DejaVuSans-56"/>
       <use x="63.623047" xlink:href="#DejaVuSans-48"/>
       <use x="127.246094" xlink:href="#DejaVuSans-48"/>
      </g>
     </g>
    </g>
    <g id="ytick_30">
     <g id="line2d_72">
      <g>
       <use style="stroke:#000000;stroke-width:0.8;" x="53.328125" xlink:href="#m2549efb09e" y="554.061176"/>
      </g>
     </g>
     <g id="text_34">
      <!-- 1000 -->
      <g transform="translate(20.878125 557.860395)scale(0.1 -0.1)">
       <use xlink:href="#DejaVuSans-49"/>
       <use x="63.623047" xlink:href="#DejaVuSans-48"/>
       <use x="127.246094" xlink:href="#DejaVuSans-48"/>
       <use x="190.869141" xlink:href="#DejaVuSans-48"/>
      </g>
     </g>
    </g>
    <g id="text_35">
     <!-- population that is... -->
     <g transform="translate(14.798438 698.689807)rotate(-90)scale(0.1 -0.1)">
      <use xlink:href="#DejaVuSans-112"/>
      <use x="63.476562" xlink:href="#DejaVuSans-111"/>
      <use x="124.658203" xlink:href="#DejaVuSans-112"/>
      <use x="188.134766" xlink:href="#DejaVuSans-117"/>
      <use x="251.513672" xlink:href="#DejaVuSans-108"/>
      <use x="279.296875" xlink:href="#DejaVuSans-97"/>
      <use x="340.576172" xlink:href="#DejaVuSans-116"/>
      <use x="379.785156" xlink:href="#DejaVuSans-105"/>
      <use x="407.568359" xlink:href="#DejaVuSans-111"/>
      <use x="468.75" xlink:href="#DejaVuSans-110"/>
      <use x="532.128906" xlink:href="#DejaVuSans-32"/>
      <use x="563.916016" xlink:href="#DejaVuSans-116"/>
      <use x="603.125" xlink:href="#DejaVuSans-104"/>
      <use x="666.503906" xlink:href="#DejaVuSans-97"/>
      <use x="727.783203" xlink:href="#DejaVuSans-116"/>
      <use x="766.992188" xlink:href="#DejaVuSans-32"/>
      <use x="798.779297" xlink:href="#DejaVuSans-105"/>
      <use x="826.5625" xlink:href="#DejaVuSans-115"/>
      <use x="878.662109" xlink:href="#DejaVuSans-46"/>
      <use x="910.449219" xlink:href="#DejaVuSans-46"/>
      <use x="942.236328" xlink:href="#DejaVuSans-46"/>
     </g>
    </g>
   </g>
   <g id="line2d_73">
    <path clip-path="url(#p614474336f)" d="M 53.328125 555.979765 
L 56.371761 556.804913 
L 59.050161 557.757005 
L 61.48507 558.856818 
L 63.71707 560.107761 
L 65.786743 561.518701 
L 67.775252 563.144234 
L 69.682598 564.993645 
L 71.549361 567.120757 
L 73.375543 569.546735 
L 75.161143 572.289166 
L 76.987325 575.51355 
L 78.813507 579.201382 
L 80.68027 583.486061 
L 82.587616 588.43033 
L 84.576125 594.2113 
L 86.68638 601.040654 
L 88.999543 609.302618 
L 91.637361 619.583324 
L 95.046234 633.839486 
L 103.406089 669.181567 
L 106.206234 679.819554 
L 108.641143 688.2304 
L 110.913725 695.306715 
L 113.064561 701.302082 
L 115.174816 706.536773 
L 117.244489 711.080596 
L 119.27358 715.009525 
L 121.30267 718.464064 
L 123.331761 721.492007 
L 125.401434 724.189894 
L 127.511689 726.583367 
L 129.703107 728.736377 
L 131.975689 730.660545 
L 134.370016 732.397719 
L 136.92667 733.975334 
L 139.645652 735.391013 
L 142.608125 736.680444 
L 145.85467 737.847915 
L 149.466452 738.906483 
L 153.524634 739.860439 
L 158.191543 740.723106 
L 163.629507 741.494547 
L 170.082016 742.177063 
L 177.914307 742.773236 
L 187.694525 743.285294 
L 200.356052 743.714742 
L 217.522161 744.061481 
L 242.358234 744.324046 
L 256.196634 744.406791 
L 256.196634 744.406791 
" style="fill:none;stroke:#ff0000;stroke-linecap:square;stroke-width:1.5;"/>
   </g>
   <g id="line2d_74">
    <path clip-path="url(#p614474336f)" d="M 53.328125 744.001412 
L 56.696416 743.261241 
L 59.618307 742.398059 
L 62.256125 741.389413 
L 64.650452 740.237644 
L 66.882452 738.917251 
L 68.992707 737.408359 
L 71.021798 735.678956 
L 72.969725 733.724584 
L 74.87707 731.496957 
L 76.784416 728.926221 
L 78.732343 725.916989 
L 80.720852 722.421173 
L 82.790525 718.314646 
L 84.981943 713.45292 
L 87.37627 707.582594 
L 90.216998 700.00234 
L 95.573798 684.890817 
L 98.901507 675.902545 
L 101.255252 670.163187 
L 103.243761 665.877728 
L 105.029361 662.544691 
L 106.652634 659.973315 
L 108.154161 657.998006 
L 109.574525 656.488506 
L 110.913725 655.380522 
L 112.212343 654.589817 
L 113.47038 654.079295 
L 114.728416 653.807311 
L 115.986452 653.759419 
L 117.28507 653.928483 
L 118.664852 654.331483 
L 120.16638 655.006486 
L 121.830234 656.009451 
L 123.656416 657.37668 
L 125.76667 659.245908 
L 128.242161 661.75166 
L 131.285798 665.169242 
L 135.425143 670.181344 
L 150.724489 689.005713 
L 155.43198 694.287235 
L 159.855398 698.919156 
L 164.15707 703.10249 
L 168.37758 706.899371 
L 172.598089 710.399598 
L 176.85918 713.645389 
L 181.160852 716.644551 
L 185.58427 719.456506 
L 190.088852 722.057012 
L 194.755761 724.493524 
L 199.584998 726.76243 
L 204.617143 728.878904 
L 209.852198 730.838944 
L 215.371325 732.666621 
L 221.215107 734.364952 
L 227.424125 735.93485 
L 234.038961 737.376003 
L 241.181361 738.701557 
L 248.932489 739.910117 
L 256.196634 740.85947 
L 256.196634 740.85947 
" style="fill:none;stroke:#008000;stroke-linecap:square;stroke-width:1.5;"/>
   </g>
   <g id="patch_24">
    <path d="M 53.328125 745.92 
L 53.328125 554.061176 
" style="fill:none;stroke:#000000;stroke-linecap:square;stroke-linejoin:miter;stroke-width:0.8;"/>
   </g>
   <g id="patch_25">
    <path d="M 256.237216 745.92 
L 256.237216 554.061176 
" style="fill:none;stroke:#000000;stroke-linecap:square;stroke-linejoin:miter;stroke-width:0.8;"/>
   </g>
   <g id="patch_26">
    <path d="M 53.328125 745.92 
L 256.237216 745.92 
" style="fill:none;stroke:#000000;stroke-linecap:square;stroke-linejoin:miter;stroke-width:0.8;"/>
   </g>
   <g id="patch_27">
    <path d="M 53.328125 554.061176 
L 256.237216 554.061176 
" style="fill:none;stroke:#000000;stroke-linecap:square;stroke-linejoin:miter;stroke-width:0.8;"/>
   </g>
   <g id="text_36">
    <!-- $p_{\mathit{Infect}} = 0.0000050$ -->
    <g transform="translate(99.04267 548.061176)scale(0.12 -0.12)">
     <use transform="translate(0 0.78125)" xlink:href="#DejaVuSans-Oblique-112"/>
     <use transform="translate(63.476562 -15.625)scale(0.7)" xlink:href="#DejaVuSans-Oblique-73"/>
     <use transform="translate(84.121094 -15.625)scale(0.7)" xlink:href="#DejaVuSans-Oblique-110"/>
     <use transform="translate(128.486328 -15.625)scale(0.7)" xlink:href="#DejaVuSans-Oblique-102"/>
     <use transform="translate(153.129883 -15.625)scale(0.7)" xlink:href="#DejaVuSans-Oblique-101"/>
     <use transform="translate(196.196289 -15.625)scale(0.7)" xlink:href="#DejaVuSans-Oblique-99"/>
     <use transform="translate(234.682617 -15.625)scale(0.7)" xlink:href="#DejaVuSans-Oblique-116"/>
     <use transform="translate(284.345703 0.78125)" xlink:href="#DejaVuSans-61"/>
     <use transform="translate(387.617188 0.78125)" xlink:href="#DejaVuSans-48"/>
     <use transform="translate(451.240234 0.78125)" xlink:href="#DejaVuSans-46"/>
     <use transform="translate(483.027344 0.78125)" xlink:href="#DejaVuSans-48"/>
     <use transform="translate(546.650391 0.78125)" xlink:href="#DejaVuSans-48"/>
     <use transform="translate(610.273438 0.78125)" xlink:href="#DejaVuSans-48"/>
     <use transform="translate(673.896484 0.78125)" xlink:href="#DejaVuSans-48"/>
     <use transform="translate(737.519531 0.78125)" xlink:href="#DejaVuSans-48"/>
     <use transform="translate(801.142578 0.78125)" xlink:href="#DejaVuSans-53"/>
     <use transform="translate(864.765625 0.78125)" xlink:href="#DejaVuSans-48"/>
    </g>
   </g>
  </g>
  <g id="axes_6">
   <g id="patch_28">
    <path d="M 296.819034 745.92 
L 499.728125 745.92 
L 499.728125 554.061176 
L 296.819034 554.061176 
z
" style="fill:#ffffff;"/>
   </g>
   <g id="matplotlib.axis_11">
    <g id="xtick_31">
     <g id="line2d_75">
      <g>
       <use style="stroke:#000000;stroke-width:0.8;" x="296.819034" xlink:href="#mf0edfa6632" y="745.92"/>
      </g>
     </g>
     <g id="text_37">
      <!-- 0 -->
      <g transform="translate(293.637784 760.518438)scale(0.1 -0.1)">
       <use xlink:href="#DejaVuSans-48"/>
      </g>
     </g>
    </g>
    <g id="xtick_32">
     <g id="line2d_76">
      <g>
       <use style="stroke:#000000;stroke-width:0.8;" x="337.400852" xlink:href="#mf0edfa6632" y="745.92"/>
      </g>
     </g>
     <g id="text_38">
      <!-- 1000 -->
      <g transform="translate(324.675852 760.518438)scale(0.1 -0.1)">
       <use xlink:href="#DejaVuSans-49"/>
       <use x="63.623047" xlink:href="#DejaVuSans-48"/>
       <use x="127.246094" xlink:href="#DejaVuSans-48"/>
       <use x="190.869141" xlink:href="#DejaVuSans-48"/>
      </g>
     </g>
    </g>
    <g id="xtick_33">
     <g id="line2d_77">
      <g>
       <use style="stroke:#000000;stroke-width:0.8;" x="377.98267" xlink:href="#mf0edfa6632" y="745.92"/>
      </g>
     </g>
     <g id="text_39">
      <!-- 2000 -->
      <g transform="translate(365.25767 760.518438)scale(0.1 -0.1)">
       <use xlink:href="#DejaVuSans-50"/>
       <use x="63.623047" xlink:href="#DejaVuSans-48"/>
       <use x="127.246094" xlink:href="#DejaVuSans-48"/>
       <use x="190.869141" xlink:href="#DejaVuSans-48"/>
      </g>
     </g>
    </g>
    <g id="xtick_34">
     <g id="line2d_78">
      <g>
       <use style="stroke:#000000;stroke-width:0.8;" x="418.564489" xlink:href="#mf0edfa6632" y="745.92"/>
      </g>
     </g>
     <g id="text_40">
      <!-- 3000 -->
      <g transform="translate(405.839489 760.518438)scale(0.1 -0.1)">
       <use xlink:href="#DejaVuSans-51"/>
       <use x="63.623047" xlink:href="#DejaVuSans-48"/>
       <use x="127.246094" xlink:href="#DejaVuSans-48"/>
       <use x="190.869141" xlink:href="#DejaVuSans-48"/>
      </g>
     </g>
    </g>
    <g id="xtick_35">
     <g id="line2d_79">
      <g>
       <use style="stroke:#000000;stroke-width:0.8;" x="459.146307" xlink:href="#mf0edfa6632" y="745.92"/>
      </g>
     </g>
     <g id="text_41">
      <!-- 4000 -->
      <g transform="translate(446.421307 760.518438)scale(0.1 -0.1)">
       <use xlink:href="#DejaVuSans-52"/>
       <use x="63.623047" xlink:href="#DejaVuSans-48"/>
       <use x="127.246094" xlink:href="#DejaVuSans-48"/>
       <use x="190.869141" xlink:href="#DejaVuSans-48"/>
      </g>
     </g>
    </g>
    <g id="xtick_36">
     <g id="line2d_80">
      <g>
       <use style="stroke:#000000;stroke-width:0.8;" x="499.728125" xlink:href="#mf0edfa6632" y="745.92"/>
      </g>
     </g>
     <g id="text_42">
      <!-- 5000 -->
      <g transform="translate(487.003125 760.518438)scale(0.1 -0.1)">
       <use xlink:href="#DejaVuSans-53"/>
       <use x="63.623047" xlink:href="#DejaVuSans-48"/>
       <use x="127.246094" xlink:href="#DejaVuSans-48"/>
       <use x="190.869141" xlink:href="#DejaVuSans-48"/>
      </g>
     </g>
    </g>
   </g>
   <g id="matplotlib.axis_12">
    <g id="ytick_31">
     <g id="line2d_81">
      <g>
       <use style="stroke:#000000;stroke-width:0.8;" x="296.819034" xlink:href="#m2549efb09e" y="745.92"/>
      </g>
     </g>
    </g>
    <g id="ytick_32">
     <g id="line2d_82">
      <g>
       <use style="stroke:#000000;stroke-width:0.8;" x="296.819034" xlink:href="#m2549efb09e" y="707.548235"/>
      </g>
     </g>
    </g>
    <g id="ytick_33">
     <g id="line2d_83">
      <g>
       <use style="stroke:#000000;stroke-width:0.8;" x="296.819034" xlink:href="#m2549efb09e" y="669.176471"/>
      </g>
     </g>
    </g>
    <g id="ytick_34">
     <g id="line2d_84">
      <g>
       <use style="stroke:#000000;stroke-width:0.8;" x="296.819034" xlink:href="#m2549efb09e" y="630.804706"/>
      </g>
     </g>
    </g>
    <g id="ytick_35">
     <g id="line2d_85">
      <g>
       <use style="stroke:#000000;stroke-width:0.8;" x="296.819034" xlink:href="#m2549efb09e" y="592.432941"/>
      </g>
     </g>
    </g>
    <g id="ytick_36">
     <g id="line2d_86">
      <g>
       <use style="stroke:#000000;stroke-width:0.8;" x="296.819034" xlink:href="#m2549efb09e" y="554.061176"/>
      </g>
     </g>
    </g>
   </g>
   <g id="line2d_87">
    <path clip-path="url(#paad075bc01)" d="M 296.819034 555.979765 
L 298.645216 556.776945 
L 300.268489 557.720433 
L 301.770016 558.848689 
L 303.19038 560.201537 
L 304.52958 561.791585 
L 305.828198 563.687587 
L 307.086234 565.921553 
L 308.34427 568.61584 
L 309.602307 571.844351 
L 310.900925 575.81803 
L 312.199543 580.522881 
L 313.538743 586.214828 
L 314.959107 593.242896 
L 316.501216 602.048726 
L 318.205652 613.129589 
L 320.275325 628.148245 
L 328.026452 686.073834 
L 329.77147 696.575003 
L 331.394743 705.0205 
L 332.89627 711.708782 
L 334.357216 717.245631 
L 335.77758 721.798754 
L 337.197943 725.630534 
L 338.618307 728.838363 
L 340.03867 731.514608 
L 341.499616 733.800891 
L 343.001143 735.740966 
L 344.543252 737.378134 
L 346.166525 738.785259 
L 347.911543 740.007691 
L 349.818889 741.072458 
L 351.929143 741.995245 
L 354.32347 742.797618 
L 357.123616 743.495481 
L 360.451325 744.089177 
L 364.59067 744.591718 
L 369.906889 745.001734 
L 377.171034 745.325435 
L 388.00638 745.567292 
L 406.592852 745.732114 
L 447.336998 745.825748 
L 499.687543 745.849492 
L 499.687543 745.849492 
" style="fill:none;stroke:#ff0000;stroke-linecap:square;stroke-width:1.5;"/>
   </g>
   <g id="line2d_88">
    <path clip-path="url(#paad075bc01)" d="M 296.819034 744.001412 
L 298.766961 743.250702 
L 300.471398 742.362219 
L 302.013507 741.314019 
L 303.474452 740.04905 
L 304.854234 738.553266 
L 306.193434 736.761462 
L 307.492052 734.64228 
L 308.79067 732.082126 
L 310.089289 729.013623 
L 311.387907 725.370711 
L 312.727107 720.950434 
L 314.14747 715.475149 
L 315.68958 708.593042 
L 317.394016 699.91119 
L 319.50427 687.903554 
L 325.51038 652.905965 
L 327.09307 645.401419 
L 328.472852 639.900851 
L 329.690307 635.91918 
L 330.786016 633.043107 
L 331.800561 630.962609 
L 332.733943 629.519802 
L 333.626743 628.536116 
L 334.43838 627.954349 
L 335.209434 627.656139 
L 335.980489 627.585672 
L 336.792125 627.735703 
L 337.684925 628.139721 
L 338.658889 628.833026 
L 339.79518 629.929285 
L 341.13438 631.552554 
L 342.71707 633.837533 
L 344.70558 637.122209 
L 347.38398 642.012529 
L 352.213216 651.3906 
L 358.259907 662.989535 
L 362.35867 670.36815 
L 366.13278 676.713618 
L 369.785143 682.422837 
L 373.356343 687.597007 
L 376.927543 692.381092 
L 380.498743 696.794356 
L 384.069943 700.858876 
L 387.722307 704.679114 
L 391.415252 708.220629 
L 395.189361 711.531931 
L 399.044634 714.618839 
L 403.021652 717.516593 
L 407.120416 720.225281 
L 411.340925 722.746805 
L 415.723761 725.10535 
L 420.268925 727.299283 
L 425.05758 729.362075 
L 430.089725 731.284791 
L 435.405943 733.074701 
L 441.046816 734.735672 
L 447.052925 736.269187 
L 453.505434 737.683534 
L 460.444925 738.974428 
L 467.993143 740.150126 
L 476.312416 741.216911 
L 485.524489 742.169762 
L 495.872852 743.012007 
L 499.687543 743.272292 
L 499.687543 743.272292 
" style="fill:none;stroke:#008000;stroke-linecap:square;stroke-width:1.5;"/>
   </g>
   <g id="patch_29">
    <path d="M 296.819034 745.92 
L 296.819034 554.061176 
" style="fill:none;stroke:#000000;stroke-linecap:square;stroke-linejoin:miter;stroke-width:0.8;"/>
   </g>
   <g id="patch_30">
    <path d="M 499.728125 745.92 
L 499.728125 554.061176 
" style="fill:none;stroke:#000000;stroke-linecap:square;stroke-linejoin:miter;stroke-width:0.8;"/>
   </g>
   <g id="patch_31">
    <path d="M 296.819034 745.92 
L 499.728125 745.92 
" style="fill:none;stroke:#000000;stroke-linecap:square;stroke-linejoin:miter;stroke-width:0.8;"/>
   </g>
   <g id="patch_32">
    <path d="M 296.819034 554.061176 
L 499.728125 554.061176 
" style="fill:none;stroke:#000000;stroke-linecap:square;stroke-linejoin:miter;stroke-width:0.8;"/>
   </g>
   <g id="text_43">
    <!-- $p_{\mathit{Infect}} = 0.0000080$ -->
    <g transform="translate(342.53358 548.061176)scale(0.12 -0.12)">
     <use transform="translate(0 0.78125)" xlink:href="#DejaVuSans-Oblique-112"/>
     <use transform="translate(63.476562 -15.625)scale(0.7)" xlink:href="#DejaVuSans-Oblique-73"/>
     <use transform="translate(84.121094 -15.625)scale(0.7)" xlink:href="#DejaVuSans-Oblique-110"/>
     <use transform="translate(128.486328 -15.625)scale(0.7)" xlink:href="#DejaVuSans-Oblique-102"/>
     <use transform="translate(153.129883 -15.625)scale(0.7)" xlink:href="#DejaVuSans-Oblique-101"/>
     <use transform="translate(196.196289 -15.625)scale(0.7)" xlink:href="#DejaVuSans-Oblique-99"/>
     <use transform="translate(234.682617 -15.625)scale(0.7)" xlink:href="#DejaVuSans-Oblique-116"/>
     <use transform="translate(284.345703 0.78125)" xlink:href="#DejaVuSans-61"/>
     <use transform="translate(387.617188 0.78125)" xlink:href="#DejaVuSans-48"/>
     <use transform="translate(451.240234 0.78125)" xlink:href="#DejaVuSans-46"/>
     <use transform="translate(483.027344 0.78125)" xlink:href="#DejaVuSans-48"/>
     <use transform="translate(546.650391 0.78125)" xlink:href="#DejaVuSans-48"/>
     <use transform="translate(610.273438 0.78125)" xlink:href="#DejaVuSans-48"/>
     <use transform="translate(673.896484 0.78125)" xlink:href="#DejaVuSans-48"/>
     <use transform="translate(737.519531 0.78125)" xlink:href="#DejaVuSans-48"/>
     <use transform="translate(801.142578 0.78125)" xlink:href="#DejaVuSans-56"/>
     <use transform="translate(864.765625 0.78125)" xlink:href="#DejaVuSans-48"/>
    </g>
   </g>
  </g>
  <g id="text_44">
   <!-- Progress of epidemic for different $p_{\mathit{Infect}})$ ($p_{remove} = 0.001$) -->
   <defs>
    <path d="M 19.671875 64.796875 
L 19.671875 37.40625 
L 32.078125 37.40625 
Q 38.96875 37.40625 42.71875 40.96875 
Q 46.484375 44.53125 46.484375 51.125 
Q 46.484375 57.671875 42.71875 61.234375 
Q 38.96875 64.796875 32.078125 64.796875 
z
M 9.8125 72.90625 
L 32.078125 72.90625 
Q 44.34375 72.90625 50.609375 67.359375 
Q 56.890625 61.8125 56.890625 51.125 
Q 56.890625 40.328125 50.609375 34.8125 
Q 44.34375 29.296875 32.078125 29.296875 
L 19.671875 29.296875 
L 19.671875 0 
L 9.8125 0 
z
" id="DejaVuSans-80"/>
    <path d="M 41.109375 46.296875 
Q 39.59375 47.171875 37.8125 47.578125 
Q 36.03125 48 33.890625 48 
Q 26.265625 48 22.1875 43.046875 
Q 18.109375 38.09375 18.109375 28.8125 
L 18.109375 0 
L 9.078125 0 
L 9.078125 54.6875 
L 18.109375 54.6875 
L 18.109375 46.1875 
Q 20.953125 51.171875 25.484375 53.578125 
Q 30.03125 56 36.53125 56 
Q 37.453125 56 38.578125 55.875 
Q 39.703125 55.765625 41.0625 55.515625 
z
" id="DejaVuSans-114"/>
    <path d="M 45.40625 27.984375 
Q 45.40625 37.75 41.375 43.109375 
Q 37.359375 48.484375 30.078125 48.484375 
Q 22.859375 48.484375 18.828125 43.109375 
Q 14.796875 37.75 14.796875 27.984375 
Q 14.796875 18.265625 18.828125 12.890625 
Q 22.859375 7.515625 30.078125 7.515625 
Q 37.359375 7.515625 41.375 12.890625 
Q 45.40625 18.265625 45.40625 27.984375 
z
M 54.390625 6.78125 
Q 54.390625 -7.171875 48.1875 -13.984375 
Q 42 -20.796875 29.203125 -20.796875 
Q 24.46875 -20.796875 20.265625 -20.09375 
Q 16.0625 -19.390625 12.109375 -17.921875 
L 12.109375 -9.1875 
Q 16.0625 -11.328125 19.921875 -12.34375 
Q 23.78125 -13.375 27.78125 -13.375 
Q 36.625 -13.375 41.015625 -8.765625 
Q 45.40625 -4.15625 45.40625 5.171875 
L 45.40625 9.625 
Q 42.625 4.78125 38.28125 2.390625 
Q 33.9375 0 27.875 0 
Q 17.828125 0 11.671875 7.65625 
Q 5.515625 15.328125 5.515625 27.984375 
Q 5.515625 40.671875 11.671875 48.328125 
Q 17.828125 56 27.875 56 
Q 33.9375 56 38.28125 53.609375 
Q 42.625 51.21875 45.40625 46.390625 
L 45.40625 54.6875 
L 54.390625 54.6875 
z
" id="DejaVuSans-103"/>
    <path d="M 52 44.1875 
Q 55.375 50.25 60.0625 53.125 
Q 64.75 56 71.09375 56 
Q 79.640625 56 84.28125 50.015625 
Q 88.921875 44.046875 88.921875 33.015625 
L 88.921875 0 
L 79.890625 0 
L 79.890625 32.71875 
Q 79.890625 40.578125 77.09375 44.375 
Q 74.3125 48.1875 68.609375 48.1875 
Q 61.625 48.1875 57.5625 43.546875 
Q 53.515625 38.921875 53.515625 30.90625 
L 53.515625 0 
L 44.484375 0 
L 44.484375 32.71875 
Q 44.484375 40.625 41.703125 44.40625 
Q 38.921875 48.1875 33.109375 48.1875 
Q 26.21875 48.1875 22.15625 43.53125 
Q 18.109375 38.875 18.109375 30.90625 
L 18.109375 0 
L 9.078125 0 
L 9.078125 54.6875 
L 18.109375 54.6875 
L 18.109375 46.1875 
Q 21.1875 51.21875 25.484375 53.609375 
Q 29.78125 56 35.6875 56 
Q 41.65625 56 45.828125 52.96875 
Q 50 49.953125 52 44.1875 
z
" id="DejaVuSans-109"/>
    <path d="M 8.015625 75.875 
L 15.828125 75.875 
Q 23.140625 64.359375 26.78125 53.3125 
Q 30.421875 42.28125 30.421875 31.390625 
Q 30.421875 20.453125 26.78125 9.375 
Q 23.140625 -1.703125 15.828125 -13.1875 
L 8.015625 -13.1875 
Q 14.5 -2 17.703125 9.0625 
Q 20.90625 20.125 20.90625 31.390625 
Q 20.90625 42.671875 17.703125 53.65625 
Q 14.5 64.65625 8.015625 75.875 
z
" id="DejaVuSans-41"/>
    <path d="M 31 75.875 
Q 24.46875 64.65625 21.28125 53.65625 
Q 18.109375 42.671875 18.109375 31.390625 
Q 18.109375 20.125 21.3125 9.0625 
Q 24.515625 -2 31 -13.1875 
L 23.1875 -13.1875 
Q 15.875 -1.703125 12.234375 9.375 
Q 8.59375 20.453125 8.59375 31.390625 
Q 8.59375 42.28125 12.203125 53.3125 
Q 15.828125 64.359375 23.1875 75.875 
z
" id="DejaVuSans-40"/>
    <path d="M 44.578125 46.390625 
Q 43.21875 47.125 41.453125 47.515625 
Q 39.703125 47.90625 37.703125 47.90625 
Q 30.515625 47.90625 25.140625 42.453125 
Q 19.78125 37.015625 18.015625 27.875 
L 12.5 0 
L 3.515625 0 
L 14.203125 54.6875 
L 23.1875 54.6875 
L 21.484375 46.1875 
Q 25.046875 50.921875 30 53.453125 
Q 34.96875 56 40.578125 56 
Q 42.046875 56 43.453125 55.828125 
Q 44.875 55.671875 46.296875 55.28125 
z
" id="DejaVuSans-Oblique-114"/>
    <path d="M 89.796875 33.015625 
L 83.40625 0 
L 74.421875 0 
L 80.71875 32.71875 
Q 81.109375 34.8125 81.296875 36.328125 
Q 81.5 37.84375 81.5 38.921875 
Q 81.5 43.3125 79.046875 45.75 
Q 76.609375 48.1875 72.21875 48.1875 
Q 65.671875 48.1875 60.546875 43.28125 
Q 55.421875 38.375 53.90625 30.515625 
L 47.90625 0 
L 38.921875 0 
L 45.3125 32.71875 
Q 45.703125 34.515625 45.890625 36.046875 
Q 46.09375 37.59375 46.09375 38.8125 
Q 46.09375 43.265625 43.65625 45.71875 
Q 41.21875 48.1875 36.921875 48.1875 
Q 30.28125 48.1875 25.140625 43.28125 
Q 20.015625 38.375 18.5 30.515625 
L 12.5 0 
L 3.515625 0 
L 14.203125 54.6875 
L 23.1875 54.6875 
L 21.484375 46.1875 
Q 25.140625 50.984375 30.046875 53.484375 
Q 34.96875 56 40.578125 56 
Q 46.53125 56 50.359375 52.875 
Q 54.203125 49.75 54.984375 44.1875 
Q 59.078125 49.953125 64.46875 52.96875 
Q 69.875 56 75.875 56 
Q 82.90625 56 86.734375 51.953125 
Q 90.578125 47.90625 90.578125 40.484375 
Q 90.578125 38.875 90.375 36.9375 
Q 90.1875 35.015625 89.796875 33.015625 
z
" id="DejaVuSans-Oblique-109"/>
    <path d="M 25.390625 -1.421875 
Q 15.765625 -1.421875 10.171875 4.515625 
Q 4.59375 10.453125 4.59375 20.703125 
Q 4.59375 26.65625 6.515625 32.828125 
Q 8.453125 39.015625 11.53125 43.21875 
Q 16.359375 49.75 22.3125 52.875 
Q 28.265625 56 35.796875 56 
Q 45.125 56 50.859375 50.1875 
Q 56.59375 44.390625 56.59375 35.015625 
Q 56.59375 28.515625 54.6875 22.0625 
Q 52.78125 15.625 49.703125 11.375 
Q 44.921875 4.828125 38.96875 1.703125 
Q 33.015625 -1.421875 25.390625 -1.421875 
z
M 13.921875 21 
Q 13.921875 13.578125 17.015625 9.890625 
Q 20.125 6.203125 26.421875 6.203125 
Q 35.453125 6.203125 41.375 14.078125 
Q 47.3125 21.96875 47.3125 34.078125 
Q 47.3125 41.15625 44.140625 44.765625 
Q 40.96875 48.390625 34.8125 48.390625 
Q 29.734375 48.390625 25.78125 46.015625 
Q 21.828125 43.65625 18.703125 38.8125 
Q 16.40625 35.203125 15.15625 30.5625 
Q 13.921875 25.921875 13.921875 21 
z
" id="DejaVuSans-Oblique-111"/>
    <path d="M 7.171875 54.6875 
L 16.703125 54.6875 
L 24.703125 8.203125 
L 50.875 54.6875 
L 60.40625 54.6875 
L 29.296875 0 
L 17.1875 0 
z
" id="DejaVuSans-Oblique-118"/>
   </defs>
   <g transform="translate(97.188125 16.32)scale(0.12 -0.12)">
    <use transform="translate(0 0.015625)" xlink:href="#DejaVuSans-80"/>
    <use transform="translate(60.302734 0.015625)" xlink:href="#DejaVuSans-114"/>
    <use transform="translate(101.416016 0.015625)" xlink:href="#DejaVuSans-111"/>
    <use transform="translate(162.597656 0.015625)" xlink:href="#DejaVuSans-103"/>
    <use transform="translate(226.074219 0.015625)" xlink:href="#DejaVuSans-114"/>
    <use transform="translate(267.1875 0.015625)" xlink:href="#DejaVuSans-101"/>
    <use transform="translate(328.710938 0.015625)" xlink:href="#DejaVuSans-115"/>
    <use transform="translate(380.810547 0.015625)" xlink:href="#DejaVuSans-115"/>
    <use transform="translate(432.910156 0.015625)" xlink:href="#DejaVuSans-32"/>
    <use transform="translate(464.697266 0.015625)" xlink:href="#DejaVuSans-111"/>
    <use transform="translate(525.878906 0.015625)" xlink:href="#DejaVuSans-102"/>
    <use transform="translate(561.083984 0.015625)" xlink:href="#DejaVuSans-32"/>
    <use transform="translate(592.871094 0.015625)" xlink:href="#DejaVuSans-101"/>
    <use transform="translate(654.394531 0.015625)" xlink:href="#DejaVuSans-112"/>
    <use transform="translate(717.871094 0.015625)" xlink:href="#DejaVuSans-105"/>
    <use transform="translate(745.654297 0.015625)" xlink:href="#DejaVuSans-100"/>
    <use transform="translate(809.130859 0.015625)" xlink:href="#DejaVuSans-101"/>
    <use transform="translate(870.654297 0.015625)" xlink:href="#DejaVuSans-109"/>
    <use transform="translate(968.066406 0.015625)" xlink:href="#DejaVuSans-105"/>
    <use transform="translate(995.849609 0.015625)" xlink:href="#DejaVuSans-99"/>
    <use transform="translate(1050.830078 0.015625)" xlink:href="#DejaVuSans-32"/>
    <use transform="translate(1082.617188 0.015625)" xlink:href="#DejaVuSans-102"/>
    <use transform="translate(1117.822266 0.015625)" xlink:href="#DejaVuSans-111"/>
    <use transform="translate(1179.003906 0.015625)" xlink:href="#DejaVuSans-114"/>
    <use transform="translate(1220.117188 0.015625)" xlink:href="#DejaVuSans-32"/>
    <use transform="translate(1251.904297 0.015625)" xlink:href="#DejaVuSans-100"/>
    <use transform="translate(1315.380859 0.015625)" xlink:href="#DejaVuSans-105"/>
    <use transform="translate(1343.164062 0.015625)" xlink:href="#DejaVuSans-102"/>
    <use transform="translate(1378.369141 0.015625)" xlink:href="#DejaVuSans-102"/>
    <use transform="translate(1413.574219 0.015625)" xlink:href="#DejaVuSans-101"/>
    <use transform="translate(1475.097656 0.015625)" xlink:href="#DejaVuSans-114"/>
    <use transform="translate(1516.210938 0.015625)" xlink:href="#DejaVuSans-101"/>
    <use transform="translate(1577.734375 0.015625)" xlink:href="#DejaVuSans-110"/>
    <use transform="translate(1641.113281 0.015625)" xlink:href="#DejaVuSans-116"/>
    <use transform="translate(1680.322266 0.015625)" xlink:href="#DejaVuSans-32"/>
    <use transform="translate(1712.109375 0.015625)" xlink:href="#DejaVuSans-Oblique-112"/>
    <use transform="translate(1775.585938 -16.390625)scale(0.7)" xlink:href="#DejaVuSans-Oblique-73"/>
    <use transform="translate(1796.230469 -16.390625)scale(0.7)" xlink:href="#DejaVuSans-Oblique-110"/>
    <use transform="translate(1840.595703 -16.390625)scale(0.7)" xlink:href="#DejaVuSans-Oblique-102"/>
    <use transform="translate(1865.239258 -16.390625)scale(0.7)" xlink:href="#DejaVuSans-Oblique-101"/>
    <use transform="translate(1908.305664 -16.390625)scale(0.7)" xlink:href="#DejaVuSans-Oblique-99"/>
    <use transform="translate(1946.791992 -16.390625)scale(0.7)" xlink:href="#DejaVuSans-Oblique-116"/>
    <use transform="translate(1976.972656 0.015625)" xlink:href="#DejaVuSans-41"/>
    <use transform="translate(2015.986328 0.015625)" xlink:href="#DejaVuSans-32"/>
    <use transform="translate(2047.773438 0.015625)" xlink:href="#DejaVuSans-40"/>
    <use transform="translate(2086.787109 0.015625)" xlink:href="#DejaVuSans-Oblique-112"/>
    <use transform="translate(2150.263672 -16.390625)scale(0.7)" xlink:href="#DejaVuSans-Oblique-114"/>
    <use transform="translate(2179.042969 -16.390625)scale(0.7)" xlink:href="#DejaVuSans-Oblique-101"/>
    <use transform="translate(2222.109375 -16.390625)scale(0.7)" xlink:href="#DejaVuSans-Oblique-109"/>
    <use transform="translate(2290.297852 -16.390625)scale(0.7)" xlink:href="#DejaVuSans-Oblique-111"/>
    <use transform="translate(2333.125 -16.390625)scale(0.7)" xlink:href="#DejaVuSans-Oblique-118"/>
    <use transform="translate(2374.550781 -16.390625)scale(0.7)" xlink:href="#DejaVuSans-Oblique-101"/>
    <use transform="translate(2439.833984 0.015625)" xlink:href="#DejaVuSans-61"/>
    <use transform="translate(2543.105469 0.015625)" xlink:href="#DejaVuSans-48"/>
    <use transform="translate(2606.728516 0.015625)" xlink:href="#DejaVuSans-46"/>
    <use transform="translate(2638.515625 0.015625)" xlink:href="#DejaVuSans-48"/>
    <use transform="translate(2702.138672 0.015625)" xlink:href="#DejaVuSans-48"/>
    <use transform="translate(2765.761719 0.015625)" xlink:href="#DejaVuSans-49"/>
    <use transform="translate(2829.384766 0.015625)" xlink:href="#DejaVuSans-41"/>
   </g>
  </g>
 </g>
 <defs>
  <clipPath id="pc4edb0d055">
   <rect height="191.858824" width="202.909091" x="53.328125" y="93.6"/>
  </clipPath>
  <clipPath id="p3f555799a1">
   <rect height="191.858824" width="202.909091" x="296.819034" y="93.6"/>
  </clipPath>
  <clipPath id="p5a1a645a20">
   <rect height="191.858824" width="202.909091" x="53.328125" y="323.830588"/>
  </clipPath>
  <clipPath id="p7d001195f1">
   <rect height="191.858824" width="202.909091" x="296.819034" y="323.830588"/>
  </clipPath>
  <clipPath id="p614474336f">
   <rect height="191.858824" width="202.909091" x="53.328125" y="554.061176"/>
  </clipPath>
  <clipPath id="paad075bc01">
   <rect height="191.858824" width="202.909091" x="296.819034" y="554.061176"/>
  </clipPath>
 </defs>
</svg>
