<?xml version="1.0" encoding="utf-8" standalone="no"?>
<!DOCTYPE svg PUBLIC "-//W3C//DTD SVG 1.1//EN"
  "http://www.w3.org/Graphics/SVG/1.1/DTD/svg11.dtd">
<!-- Created with matplotlib (https://matplotlib.org/) -->
<svg height="386.03625pt" version="1.1" viewBox="0 0 408.053125 386.03625" width="408.053125pt" xmlns="http://www.w3.org/2000/svg" xmlns:xlink="http://www.w3.org/1999/xlink">
 <defs>
  <style type="text/css">
*{stroke-linecap:butt;stroke-linejoin:round;}
  </style>
 </defs>
 <g id="figure_1">
  <g id="patch_1">
   <path d="M 0 386.03625 
L 408.053125 386.03625 
L 408.053125 0 
L 0 0 
z
" style="fill:none;"/>
  </g>
  <g id="axes_1">
   <g id="patch_2">
    <path d="M 53.328125 348.48 
L 388.128125 348.48 
L 388.128125 22.32 
L 53.328125 22.32 
z
" style="fill:#ffffff;"/>
   </g>
   <g id="matplotlib.axis_1">
    <g id="xtick_1">
     <g id="line2d_1">
      <defs>
       <path d="M 0 0 
L 0 3.5 
" id="mba15302e84" style="stroke:#000000;stroke-width:0.8;"/>
      </defs>
      <g>
       <use style="stroke:#000000;stroke-width:0.8;" x="53.328125" xlink:href="#mba15302e84" y="348.48"/>
      </g>
     </g>
     <g id="text_1">
      <!-- 0 -->
      <defs>
       <path d="M 31.78125 66.40625 
Q 24.171875 66.40625 20.328125 58.90625 
Q 16.5 51.421875 16.5 36.375 
Q 16.5 21.390625 20.328125 13.890625 
Q 24.171875 6.390625 31.78125 6.390625 
Q 39.453125 6.390625 43.28125 13.890625 
Q 47.125 21.390625 47.125 36.375 
Q 47.125 51.421875 43.28125 58.90625 
Q 39.453125 66.40625 31.78125 66.40625 
z
M 31.78125 74.21875 
Q 44.046875 74.21875 50.515625 64.515625 
Q 56.984375 54.828125 56.984375 36.375 
Q 56.984375 17.96875 50.515625 8.265625 
Q 44.046875 -1.421875 31.78125 -1.421875 
Q 19.53125 -1.421875 13.0625 8.265625 
Q 6.59375 17.96875 6.59375 36.375 
Q 6.59375 54.828125 13.0625 64.515625 
Q 19.53125 74.21875 31.78125 74.21875 
z
" id="DejaVuSans-48"/>
      </defs>
      <g transform="translate(50.146875 363.078438)scale(0.1 -0.1)">
       <use xlink:href="#DejaVuSans-48"/>
      </g>
     </g>
    </g>
    <g id="xtick_2">
     <g id="line2d_2">
      <g>
       <use style="stroke:#000000;stroke-width:0.8;" x="120.288125" xlink:href="#mba15302e84" y="348.48"/>
      </g>
     </g>
     <g id="text_2">
      <!-- 1000 -->
      <defs>
       <path d="M 12.40625 8.296875 
L 28.515625 8.296875 
L 28.515625 63.921875 
L 10.984375 60.40625 
L 10.984375 69.390625 
L 28.421875 72.90625 
L 38.28125 72.90625 
L 38.28125 8.296875 
L 54.390625 8.296875 
L 54.390625 0 
L 12.40625 0 
z
" id="DejaVuSans-49"/>
      </defs>
      <g transform="translate(107.563125 363.078438)scale(0.1 -0.1)">
       <use xlink:href="#DejaVuSans-49"/>
       <use x="63.623047" xlink:href="#DejaVuSans-48"/>
       <use x="127.246094" xlink:href="#DejaVuSans-48"/>
       <use x="190.869141" xlink:href="#DejaVuSans-48"/>
      </g>
     </g>
    </g>
    <g id="xtick_3">
     <g id="line2d_3">
      <g>
       <use style="stroke:#000000;stroke-width:0.8;" x="187.248125" xlink:href="#mba15302e84" y="348.48"/>
      </g>
     </g>
     <g id="text_3">
      <!-- 2000 -->
      <defs>
       <path d="M 19.1875 8.296875 
L 53.609375 8.296875 
L 53.609375 0 
L 7.328125 0 
L 7.328125 8.296875 
Q 12.9375 14.109375 22.625 23.890625 
Q 32.328125 33.6875 34.8125 36.53125 
Q 39.546875 41.84375 41.421875 45.53125 
Q 43.3125 49.21875 43.3125 52.78125 
Q 43.3125 58.59375 39.234375 62.25 
Q 35.15625 65.921875 28.609375 65.921875 
Q 23.96875 65.921875 18.8125 64.3125 
Q 13.671875 62.703125 7.8125 59.421875 
L 7.8125 69.390625 
Q 13.765625 71.78125 18.9375 73 
Q 24.125 74.21875 28.421875 74.21875 
Q 39.75 74.21875 46.484375 68.546875 
Q 53.21875 62.890625 53.21875 53.421875 
Q 53.21875 48.921875 51.53125 44.890625 
Q 49.859375 40.875 45.40625 35.40625 
Q 44.1875 33.984375 37.640625 27.21875 
Q 31.109375 20.453125 19.1875 8.296875 
z
" id="DejaVuSans-50"/>
      </defs>
      <g transform="translate(174.523125 363.078438)scale(0.1 -0.1)">
       <use xlink:href="#DejaVuSans-50"/>
       <use x="63.623047" xlink:href="#DejaVuSans-48"/>
       <use x="127.246094" xlink:href="#DejaVuSans-48"/>
       <use x="190.869141" xlink:href="#DejaVuSans-48"/>
      </g>
     </g>
    </g>
    <g id="xtick_4">
     <g id="line2d_4">
      <g>
       <use style="stroke:#000000;stroke-width:0.8;" x="254.208125" xlink:href="#mba15302e84" y="348.48"/>
      </g>
     </g>
     <g id="text_4">
      <!-- 3000 -->
      <defs>
       <path d="M 40.578125 39.3125 
Q 47.65625 37.796875 51.625 33 
Q 55.609375 28.21875 55.609375 21.1875 
Q 55.609375 10.40625 48.1875 4.484375 
Q 40.765625 -1.421875 27.09375 -1.421875 
Q 22.515625 -1.421875 17.65625 -0.515625 
Q 12.796875 0.390625 7.625 2.203125 
L 7.625 11.71875 
Q 11.71875 9.328125 16.59375 8.109375 
Q 21.484375 6.890625 26.8125 6.890625 
Q 36.078125 6.890625 40.9375 10.546875 
Q 45.796875 14.203125 45.796875 21.1875 
Q 45.796875 27.640625 41.28125 31.265625 
Q 36.765625 34.90625 28.71875 34.90625 
L 20.21875 34.90625 
L 20.21875 43.015625 
L 29.109375 43.015625 
Q 36.375 43.015625 40.234375 45.921875 
Q 44.09375 48.828125 44.09375 54.296875 
Q 44.09375 59.90625 40.109375 62.90625 
Q 36.140625 65.921875 28.71875 65.921875 
Q 24.65625 65.921875 20.015625 65.03125 
Q 15.375 64.15625 9.8125 62.3125 
L 9.8125 71.09375 
Q 15.4375 72.65625 20.34375 73.4375 
Q 25.25 74.21875 29.59375 74.21875 
Q 40.828125 74.21875 47.359375 69.109375 
Q 53.90625 64.015625 53.90625 55.328125 
Q 53.90625 49.265625 50.4375 45.09375 
Q 46.96875 40.921875 40.578125 39.3125 
z
" id="DejaVuSans-51"/>
      </defs>
      <g transform="translate(241.483125 363.078438)scale(0.1 -0.1)">
       <use xlink:href="#DejaVuSans-51"/>
       <use x="63.623047" xlink:href="#DejaVuSans-48"/>
       <use x="127.246094" xlink:href="#DejaVuSans-48"/>
       <use x="190.869141" xlink:href="#DejaVuSans-48"/>
      </g>
     </g>
    </g>
    <g id="xtick_5">
     <g id="line2d_5">
      <g>
       <use style="stroke:#000000;stroke-width:0.8;" x="321.168125" xlink:href="#mba15302e84" y="348.48"/>
      </g>
     </g>
     <g id="text_5">
      <!-- 4000 -->
      <defs>
       <path d="M 37.796875 64.3125 
L 12.890625 25.390625 
L 37.796875 25.390625 
z
M 35.203125 72.90625 
L 47.609375 72.90625 
L 47.609375 25.390625 
L 58.015625 25.390625 
L 58.015625 17.1875 
L 47.609375 17.1875 
L 47.609375 0 
L 37.796875 0 
L 37.796875 17.1875 
L 4.890625 17.1875 
L 4.890625 26.703125 
z
" id="DejaVuSans-52"/>
      </defs>
      <g transform="translate(308.443125 363.078438)scale(0.1 -0.1)">
       <use xlink:href="#DejaVuSans-52"/>
       <use x="63.623047" xlink:href="#DejaVuSans-48"/>
       <use x="127.246094" xlink:href="#DejaVuSans-48"/>
       <use x="190.869141" xlink:href="#DejaVuSans-48"/>
      </g>
     </g>
    </g>
    <g id="xtick_6">
     <g id="line2d_6">
      <g>
       <use style="stroke:#000000;stroke-width:0.8;" x="388.128125" xlink:href="#mba15302e84" y="348.48"/>
      </g>
     </g>
     <g id="text_6">
      <!-- 5000 -->
      <defs>
       <path d="M 10.796875 72.90625 
L 49.515625 72.90625 
L 49.515625 64.59375 
L 19.828125 64.59375 
L 19.828125 46.734375 
Q 21.96875 47.46875 24.109375 47.828125 
Q 26.265625 48.1875 28.421875 48.1875 
Q 40.625 48.1875 47.75 41.5 
Q 54.890625 34.8125 54.890625 23.390625 
Q 54.890625 11.625 47.5625 5.09375 
Q 40.234375 -1.421875 26.90625 -1.421875 
Q 22.3125 -1.421875 17.546875 -0.640625 
Q 12.796875 0.140625 7.71875 1.703125 
L 7.71875 11.625 
Q 12.109375 9.234375 16.796875 8.0625 
Q 21.484375 6.890625 26.703125 6.890625 
Q 35.15625 6.890625 40.078125 11.328125 
Q 45.015625 15.765625 45.015625 23.390625 
Q 45.015625 31 40.078125 35.4375 
Q 35.15625 39.890625 26.703125 39.890625 
Q 22.75 39.890625 18.8125 39.015625 
Q 14.890625 38.140625 10.796875 36.28125 
z
" id="DejaVuSans-53"/>
      </defs>
      <g transform="translate(375.403125 363.078438)scale(0.1 -0.1)">
       <use xlink:href="#DejaVuSans-53"/>
       <use x="63.623047" xlink:href="#DejaVuSans-48"/>
       <use x="127.246094" xlink:href="#DejaVuSans-48"/>
       <use x="190.869141" xlink:href="#DejaVuSans-48"/>
      </g>
     </g>
    </g>
    <g id="text_7">
     <!-- $t$ -->
     <defs>
      <path d="M 42.28125 54.6875 
L 40.921875 47.703125 
L 23 47.703125 
L 17.1875 18.015625 
Q 16.890625 16.359375 16.75 15.234375 
Q 16.609375 14.109375 16.609375 13.484375 
Q 16.609375 10.359375 18.484375 8.9375 
Q 20.359375 7.515625 24.515625 7.515625 
L 33.59375 7.515625 
L 32.078125 0 
L 23.484375 0 
Q 15.484375 0 11.546875 3.125 
Q 7.625 6.25 7.625 12.59375 
Q 7.625 13.71875 7.765625 15.0625 
Q 7.90625 16.40625 8.203125 18.015625 
L 14.015625 47.703125 
L 6.390625 47.703125 
L 7.8125 54.6875 
L 15.28125 54.6875 
L 18.3125 70.21875 
L 27.296875 70.21875 
L 24.3125 54.6875 
z
" id="DejaVuSans-Oblique-116"/>
     </defs>
     <g transform="translate(218.728125 376.756562)scale(0.1 -0.1)">
      <use transform="translate(0 0.78125)" xlink:href="#DejaVuSans-Oblique-116"/>
     </g>
    </g>
   </g>
   <g id="matplotlib.axis_2">
    <g id="ytick_1">
     <g id="line2d_7">
      <defs>
       <path d="M 0 0 
L -3.5 0 
" id="m2e33195543" style="stroke:#000000;stroke-width:0.8;"/>
      </defs>
      <g>
       <use style="stroke:#000000;stroke-width:0.8;" x="53.328125" xlink:href="#m2e33195543" y="348.48"/>
      </g>
     </g>
     <g id="text_8">
      <!-- 0 -->
      <g transform="translate(39.965625 352.279219)scale(0.1 -0.1)">
       <use xlink:href="#DejaVuSans-48"/>
      </g>
     </g>
    </g>
    <g id="ytick_2">
     <g id="line2d_8">
      <g>
       <use style="stroke:#000000;stroke-width:0.8;" x="53.328125" xlink:href="#m2e33195543" y="307.71"/>
      </g>
     </g>
     <g id="text_9">
      <!-- 250 -->
      <g transform="translate(27.240625 311.509219)scale(0.1 -0.1)">
       <use xlink:href="#DejaVuSans-50"/>
       <use x="63.623047" xlink:href="#DejaVuSans-53"/>
       <use x="127.246094" xlink:href="#DejaVuSans-48"/>
      </g>
     </g>
    </g>
    <g id="ytick_3">
     <g id="line2d_9">
      <g>
       <use style="stroke:#000000;stroke-width:0.8;" x="53.328125" xlink:href="#m2e33195543" y="266.94"/>
      </g>
     </g>
     <g id="text_10">
      <!-- 500 -->
      <g transform="translate(27.240625 270.739219)scale(0.1 -0.1)">
       <use xlink:href="#DejaVuSans-53"/>
       <use x="63.623047" xlink:href="#DejaVuSans-48"/>
       <use x="127.246094" xlink:href="#DejaVuSans-48"/>
      </g>
     </g>
    </g>
    <g id="ytick_4">
     <g id="line2d_10">
      <g>
       <use style="stroke:#000000;stroke-width:0.8;" x="53.328125" xlink:href="#m2e33195543" y="226.17"/>
      </g>
     </g>
     <g id="text_11">
      <!-- 750 -->
      <defs>
       <path d="M 8.203125 72.90625 
L 55.078125 72.90625 
L 55.078125 68.703125 
L 28.609375 0 
L 18.3125 0 
L 43.21875 64.59375 
L 8.203125 64.59375 
z
" id="DejaVuSans-55"/>
      </defs>
      <g transform="translate(27.240625 229.969219)scale(0.1 -0.1)">
       <use xlink:href="#DejaVuSans-55"/>
       <use x="63.623047" xlink:href="#DejaVuSans-53"/>
       <use x="127.246094" xlink:href="#DejaVuSans-48"/>
      </g>
     </g>
    </g>
    <g id="ytick_5">
     <g id="line2d_11">
      <g>
       <use style="stroke:#000000;stroke-width:0.8;" x="53.328125" xlink:href="#m2e33195543" y="185.4"/>
      </g>
     </g>
     <g id="text_12">
      <!-- 1000 -->
      <g transform="translate(20.878125 189.199219)scale(0.1 -0.1)">
       <use xlink:href="#DejaVuSans-49"/>
       <use x="63.623047" xlink:href="#DejaVuSans-48"/>
       <use x="127.246094" xlink:href="#DejaVuSans-48"/>
       <use x="190.869141" xlink:href="#DejaVuSans-48"/>
      </g>
     </g>
    </g>
    <g id="ytick_6">
     <g id="line2d_12">
      <g>
       <use style="stroke:#000000;stroke-width:0.8;" x="53.328125" xlink:href="#m2e33195543" y="144.63"/>
      </g>
     </g>
     <g id="text_13">
      <!-- 1250 -->
      <g transform="translate(20.878125 148.429219)scale(0.1 -0.1)">
       <use xlink:href="#DejaVuSans-49"/>
       <use x="63.623047" xlink:href="#DejaVuSans-50"/>
       <use x="127.246094" xlink:href="#DejaVuSans-53"/>
       <use x="190.869141" xlink:href="#DejaVuSans-48"/>
      </g>
     </g>
    </g>
    <g id="ytick_7">
     <g id="line2d_13">
      <g>
       <use style="stroke:#000000;stroke-width:0.8;" x="53.328125" xlink:href="#m2e33195543" y="103.86"/>
      </g>
     </g>
     <g id="text_14">
      <!-- 1500 -->
      <g transform="translate(20.878125 107.659219)scale(0.1 -0.1)">
       <use xlink:href="#DejaVuSans-49"/>
       <use x="63.623047" xlink:href="#DejaVuSans-53"/>
       <use x="127.246094" xlink:href="#DejaVuSans-48"/>
       <use x="190.869141" xlink:href="#DejaVuSans-48"/>
      </g>
     </g>
    </g>
    <g id="ytick_8">
     <g id="line2d_14">
      <g>
       <use style="stroke:#000000;stroke-width:0.8;" x="53.328125" xlink:href="#m2e33195543" y="63.09"/>
      </g>
     </g>
     <g id="text_15">
      <!-- 1750 -->
      <g transform="translate(20.878125 66.889219)scale(0.1 -0.1)">
       <use xlink:href="#DejaVuSans-49"/>
       <use x="63.623047" xlink:href="#DejaVuSans-55"/>
       <use x="127.246094" xlink:href="#DejaVuSans-53"/>
       <use x="190.869141" xlink:href="#DejaVuSans-48"/>
      </g>
     </g>
    </g>
    <g id="ytick_9">
     <g id="line2d_15">
      <g>
       <use style="stroke:#000000;stroke-width:0.8;" x="53.328125" xlink:href="#m2e33195543" y="22.32"/>
      </g>
     </g>
     <g id="text_16">
      <!-- 2000 -->
      <g transform="translate(20.878125 26.119219)scale(0.1 -0.1)">
       <use xlink:href="#DejaVuSans-50"/>
       <use x="63.623047" xlink:href="#DejaVuSans-48"/>
       <use x="127.246094" xlink:href="#DejaVuSans-48"/>
       <use x="190.869141" xlink:href="#DejaVuSans-48"/>
      </g>
     </g>
    </g>
    <g id="text_17">
     <!-- population that is... -->
     <defs>
      <path d="M 18.109375 8.203125 
L 18.109375 -20.796875 
L 9.078125 -20.796875 
L 9.078125 54.6875 
L 18.109375 54.6875 
L 18.109375 46.390625 
Q 20.953125 51.265625 25.265625 53.625 
Q 29.59375 56 35.59375 56 
Q 45.5625 56 51.78125 48.09375 
Q 58.015625 40.1875 58.015625 27.296875 
Q 58.015625 14.40625 51.78125 6.484375 
Q 45.5625 -1.421875 35.59375 -1.421875 
Q 29.59375 -1.421875 25.265625 0.953125 
Q 20.953125 3.328125 18.109375 8.203125 
z
M 48.6875 27.296875 
Q 48.6875 37.203125 44.609375 42.84375 
Q 40.53125 48.484375 33.40625 48.484375 
Q 26.265625 48.484375 22.1875 42.84375 
Q 18.109375 37.203125 18.109375 27.296875 
Q 18.109375 17.390625 22.1875 11.75 
Q 26.265625 6.109375 33.40625 6.109375 
Q 40.53125 6.109375 44.609375 11.75 
Q 48.6875 17.390625 48.6875 27.296875 
z
" id="DejaVuSans-112"/>
      <path d="M 30.609375 48.390625 
Q 23.390625 48.390625 19.1875 42.75 
Q 14.984375 37.109375 14.984375 27.296875 
Q 14.984375 17.484375 19.15625 11.84375 
Q 23.34375 6.203125 30.609375 6.203125 
Q 37.796875 6.203125 41.984375 11.859375 
Q 46.1875 17.53125 46.1875 27.296875 
Q 46.1875 37.015625 41.984375 42.703125 
Q 37.796875 48.390625 30.609375 48.390625 
z
M 30.609375 56 
Q 42.328125 56 49.015625 48.375 
Q 55.71875 40.765625 55.71875 27.296875 
Q 55.71875 13.875 49.015625 6.21875 
Q 42.328125 -1.421875 30.609375 -1.421875 
Q 18.84375 -1.421875 12.171875 6.21875 
Q 5.515625 13.875 5.515625 27.296875 
Q 5.515625 40.765625 12.171875 48.375 
Q 18.84375 56 30.609375 56 
z
" id="DejaVuSans-111"/>
      <path d="M 8.5 21.578125 
L 8.5 54.6875 
L 17.484375 54.6875 
L 17.484375 21.921875 
Q 17.484375 14.15625 20.5 10.265625 
Q 23.53125 6.390625 29.59375 6.390625 
Q 36.859375 6.390625 41.078125 11.03125 
Q 45.3125 15.671875 45.3125 23.6875 
L 45.3125 54.6875 
L 54.296875 54.6875 
L 54.296875 0 
L 45.3125 0 
L 45.3125 8.40625 
Q 42.046875 3.421875 37.71875 1 
Q 33.40625 -1.421875 27.6875 -1.421875 
Q 18.265625 -1.421875 13.375 4.4375 
Q 8.5 10.296875 8.5 21.578125 
z
M 31.109375 56 
z
" id="DejaVuSans-117"/>
      <path d="M 9.421875 75.984375 
L 18.40625 75.984375 
L 18.40625 0 
L 9.421875 0 
z
" id="DejaVuSans-108"/>
      <path d="M 34.28125 27.484375 
Q 23.390625 27.484375 19.1875 25 
Q 14.984375 22.515625 14.984375 16.5 
Q 14.984375 11.71875 18.140625 8.90625 
Q 21.296875 6.109375 26.703125 6.109375 
Q 34.1875 6.109375 38.703125 11.40625 
Q 43.21875 16.703125 43.21875 25.484375 
L 43.21875 27.484375 
z
M 52.203125 31.203125 
L 52.203125 0 
L 43.21875 0 
L 43.21875 8.296875 
Q 40.140625 3.328125 35.546875 0.953125 
Q 30.953125 -1.421875 24.3125 -1.421875 
Q 15.921875 -1.421875 10.953125 3.296875 
Q 6 8.015625 6 15.921875 
Q 6 25.140625 12.171875 29.828125 
Q 18.359375 34.515625 30.609375 34.515625 
L 43.21875 34.515625 
L 43.21875 35.40625 
Q 43.21875 41.609375 39.140625 45 
Q 35.0625 48.390625 27.6875 48.390625 
Q 23 48.390625 18.546875 47.265625 
Q 14.109375 46.140625 10.015625 43.890625 
L 10.015625 52.203125 
Q 14.9375 54.109375 19.578125 55.046875 
Q 24.21875 56 28.609375 56 
Q 40.484375 56 46.34375 49.84375 
Q 52.203125 43.703125 52.203125 31.203125 
z
" id="DejaVuSans-97"/>
      <path d="M 18.3125 70.21875 
L 18.3125 54.6875 
L 36.8125 54.6875 
L 36.8125 47.703125 
L 18.3125 47.703125 
L 18.3125 18.015625 
Q 18.3125 11.328125 20.140625 9.421875 
Q 21.96875 7.515625 27.59375 7.515625 
L 36.8125 7.515625 
L 36.8125 0 
L 27.59375 0 
Q 17.1875 0 13.234375 3.875 
Q 9.28125 7.765625 9.28125 18.015625 
L 9.28125 47.703125 
L 2.6875 47.703125 
L 2.6875 54.6875 
L 9.28125 54.6875 
L 9.28125 70.21875 
z
" id="DejaVuSans-116"/>
      <path d="M 9.421875 54.6875 
L 18.40625 54.6875 
L 18.40625 0 
L 9.421875 0 
z
M 9.421875 75.984375 
L 18.40625 75.984375 
L 18.40625 64.59375 
L 9.421875 64.59375 
z
" id="DejaVuSans-105"/>
      <path d="M 54.890625 33.015625 
L 54.890625 0 
L 45.90625 0 
L 45.90625 32.71875 
Q 45.90625 40.484375 42.875 44.328125 
Q 39.84375 48.1875 33.796875 48.1875 
Q 26.515625 48.1875 22.3125 43.546875 
Q 18.109375 38.921875 18.109375 30.90625 
L 18.109375 0 
L 9.078125 0 
L 9.078125 54.6875 
L 18.109375 54.6875 
L 18.109375 46.1875 
Q 21.34375 51.125 25.703125 53.5625 
Q 30.078125 56 35.796875 56 
Q 45.21875 56 50.046875 50.171875 
Q 54.890625 44.34375 54.890625 33.015625 
z
" id="DejaVuSans-110"/>
      <path id="DejaVuSans-32"/>
      <path d="M 54.890625 33.015625 
L 54.890625 0 
L 45.90625 0 
L 45.90625 32.71875 
Q 45.90625 40.484375 42.875 44.328125 
Q 39.84375 48.1875 33.796875 48.1875 
Q 26.515625 48.1875 22.3125 43.546875 
Q 18.109375 38.921875 18.109375 30.90625 
L 18.109375 0 
L 9.078125 0 
L 9.078125 75.984375 
L 18.109375 75.984375 
L 18.109375 46.1875 
Q 21.34375 51.125 25.703125 53.5625 
Q 30.078125 56 35.796875 56 
Q 45.21875 56 50.046875 50.171875 
Q 54.890625 44.34375 54.890625 33.015625 
z
" id="DejaVuSans-104"/>
      <path d="M 44.28125 53.078125 
L 44.28125 44.578125 
Q 40.484375 46.53125 36.375 47.5 
Q 32.28125 48.484375 27.875 48.484375 
Q 21.1875 48.484375 17.84375 46.4375 
Q 14.5 44.390625 14.5 40.28125 
Q 14.5 37.15625 16.890625 35.375 
Q 19.28125 33.59375 26.515625 31.984375 
L 29.59375 31.296875 
Q 39.15625 29.25 43.1875 25.515625 
Q 47.21875 21.78125 47.21875 15.09375 
Q 47.21875 7.46875 41.1875 3.015625 
Q 35.15625 -1.421875 24.609375 -1.421875 
Q 20.21875 -1.421875 15.453125 -0.5625 
Q 10.6875 0.296875 5.421875 2 
L 5.421875 11.28125 
Q 10.40625 8.6875 15.234375 7.390625 
Q 20.0625 6.109375 24.8125 6.109375 
Q 31.15625 6.109375 34.5625 8.28125 
Q 37.984375 10.453125 37.984375 14.40625 
Q 37.984375 18.0625 35.515625 20.015625 
Q 33.0625 21.96875 24.703125 23.78125 
L 21.578125 24.515625 
Q 13.234375 26.265625 9.515625 29.90625 
Q 5.8125 33.546875 5.8125 39.890625 
Q 5.8125 47.609375 11.28125 51.796875 
Q 16.75 56 26.8125 56 
Q 31.78125 56 36.171875 55.265625 
Q 40.578125 54.546875 44.28125 53.078125 
z
" id="DejaVuSans-115"/>
      <path d="M 10.6875 12.40625 
L 21 12.40625 
L 21 0 
L 10.6875 0 
z
" id="DejaVuSans-46"/>
     </defs>
     <g transform="translate(14.798438 234.099219)rotate(-90)scale(0.1 -0.1)">
      <use xlink:href="#DejaVuSans-112"/>
      <use x="63.476562" xlink:href="#DejaVuSans-111"/>
      <use x="124.658203" xlink:href="#DejaVuSans-112"/>
      <use x="188.134766" xlink:href="#DejaVuSans-117"/>
      <use x="251.513672" xlink:href="#DejaVuSans-108"/>
      <use x="279.296875" xlink:href="#DejaVuSans-97"/>
      <use x="340.576172" xlink:href="#DejaVuSans-116"/>
      <use x="379.785156" xlink:href="#DejaVuSans-105"/>
      <use x="407.568359" xlink:href="#DejaVuSans-111"/>
      <use x="468.75" xlink:href="#DejaVuSans-110"/>
      <use x="532.128906" xlink:href="#DejaVuSans-32"/>
      <use x="563.916016" xlink:href="#DejaVuSans-116"/>
      <use x="603.125" xlink:href="#DejaVuSans-104"/>
      <use x="666.503906" xlink:href="#DejaVuSans-97"/>
      <use x="727.783203" xlink:href="#DejaVuSans-116"/>
      <use x="766.992188" xlink:href="#DejaVuSans-32"/>
      <use x="798.779297" xlink:href="#DejaVuSans-105"/>
      <use x="826.5625" xlink:href="#DejaVuSans-115"/>
      <use x="878.662109" xlink:href="#DejaVuSans-46"/>
      <use x="910.449219" xlink:href="#DejaVuSans-46"/>
      <use x="942.236328" xlink:href="#DejaVuSans-46"/>
     </g>
    </g>
   </g>
   <g id="line2d_16">
    <path clip-path="url(#p0f4e20c5ae)" d="M 53.328125 25.5816 
L 55.203005 26.601522 
L 56.943965 27.799049 
L 58.551005 29.170358 
L 60.091085 30.776922 
L 61.564205 32.635694 
L 63.037325 34.869482 
L 64.443485 37.414002 
L 65.849645 40.428978 
L 67.255805 43.988383 
L 68.661965 48.17248 
L 70.068125 53.066102 
L 71.474285 58.755857 
L 72.947405 65.662207 
L 74.487485 74.010302 
L 76.094525 84.033386 
L 77.768525 95.94937 
L 79.576445 110.493003 
L 81.585245 128.533153 
L 84.062765 152.961676 
L 92.901485 242.315594 
L 94.977245 259.871644 
L 96.852125 273.869623 
L 98.593085 285.246609 
L 100.267085 294.759114 
L 101.874125 302.6602 
L 103.481165 309.461877 
L 105.021245 315.056158 
L 106.561325 319.851801 
L 108.101405 323.94934 
L 109.641485 327.442365 
L 111.248525 330.534427 
L 112.855565 333.14607 
L 114.529565 335.435756 
L 116.203565 337.356856 
L 117.944525 339.029224 
L 119.819405 340.523656 
L 121.828205 341.837068 
L 123.970925 342.974154 
L 126.381485 343.99607 
L 129.059885 344.884257 
L 132.140045 345.663647 
L 135.755885 346.338545 
L 140.041325 346.905011 
L 145.398125 347.37959 
L 152.361965 347.761624 
L 162.071165 348.05565 
L 177.003245 348.264078 
L 204.590765 348.393475 
L 278.648525 348.453967 
L 388.061165 348.46386 
L 388.061165 348.46386 
" style="fill:none;stroke:#ff0000;stroke-linecap:square;stroke-width:1.5;"/>
   </g>
   <g id="line2d_17">
    <path clip-path="url(#p0f4e20c5ae)" d="M 53.328125 345.2184 
L 55.336925 344.227221 
L 57.144845 343.085268 
L 58.818845 341.763157 
L 60.425885 340.199688 
L 61.965965 338.374182 
L 63.439085 336.270404 
L 64.845245 333.878223 
L 66.251405 331.049648 
L 67.657565 327.7186 
L 69.063725 323.814544 
L 70.469885 319.264563 
L 71.943005 313.72658 
L 73.416125 307.323938 
L 74.956205 299.637652 
L 76.563245 290.487813 
L 78.304205 279.26965 
L 80.246045 265.250508 
L 82.589645 246.583402 
L 86.875085 210.13329 
L 89.754365 186.708475 
L 91.763165 172.110752 
L 93.437165 161.455493 
L 94.977245 153.024448 
L 96.383405 146.527397 
L 97.655645 141.637132 
L 98.860925 137.846174 
L 99.999245 134.983722 
L 101.070605 132.889792 
L 102.075005 131.420342 
L 103.012445 130.44925 
L 103.882925 129.868285 
L 104.686445 129.585946 
L 105.489965 129.529208 
L 106.360445 129.70233 
L 107.297885 130.137985 
L 108.302285 130.86367 
L 109.440605 131.974056 
L 110.712845 133.53098 
L 112.185965 135.687705 
L 113.926925 138.638077 
L 116.069645 142.732939 
L 118.748045 148.364677 
L 122.430845 156.672117 
L 139.639565 196.168562 
L 144.393725 206.1837 
L 148.947005 215.259129 
L 153.366365 223.575947 
L 157.718765 231.29952 
L 162.071165 238.57312 
L 166.423565 245.414583 
L 170.775965 251.843919 
L 175.128365 257.882074 
L 179.547725 263.634567 
L 183.967085 269.027251 
L 188.453405 274.155297 
L 193.006685 279.024738 
L 197.626925 283.642247 
L 202.314125 288.014994 
L 207.135245 292.20673 
L 212.023325 296.161301 
L 217.045325 299.935929 
L 222.134285 303.483936 
L 227.357165 306.85645 
L 232.780925 310.091896 
L 238.338605 313.14692 
L 244.097165 316.056485 
L 250.056605 318.815792 
L 256.216925 321.421746 
L 262.645085 323.897431 
L 269.341085 326.235872 
L 276.304925 328.432313 
L 283.670525 330.520025 
L 291.370925 332.47064 
L 299.540045 334.308995 
L 308.177885 336.023793 
L 317.418365 337.629219 
L 327.328445 339.121809 
L 337.975085 340.497402 
L 349.492205 341.758759 
L 362.080685 342.910647 
L 375.941405 343.951993 
L 388.061165 344.70167 
L 388.061165 344.70167 
" style="fill:none;stroke:#008000;stroke-linecap:square;stroke-width:1.5;"/>
   </g>
   <g id="line2d_18">
    <defs>
     <path d="M -3 3 
L 3 -3 
M -3 -3 
L 3 3 
" id="m2de188c981" style="stroke:#ff0000;"/>
    </defs>
    <g clip-path="url(#p0f4e20c5ae)">
     <use style="fill:#ff0000;stroke:#ff0000;" x="53.328125" xlink:href="#m2de188c981" y="24.7662"/>
     <use style="fill:#ff0000;stroke:#ff0000;" x="56.676125" xlink:href="#m2de188c981" y="26.72316"/>
     <use style="fill:#ff0000;stroke:#ff0000;" x="60.024125" xlink:href="#m2de188c981" y="28.8432"/>
     <use style="fill:#ff0000;stroke:#ff0000;" x="63.372125" xlink:href="#m2de188c981" y="34.06176"/>
     <use style="fill:#ff0000;stroke:#ff0000;" x="66.720125" xlink:href="#m2de188c981" y="39.93264"/>
     <use style="fill:#ff0000;stroke:#ff0000;" x="70.068125" xlink:href="#m2de188c981" y="48.57588"/>
     <use style="fill:#ff0000;stroke:#ff0000;" x="73.416125" xlink:href="#m2de188c981" y="59.17608"/>
     <use style="fill:#ff0000;stroke:#ff0000;" x="76.764125" xlink:href="#m2de188c981" y="76.1364"/>
     <use style="fill:#ff0000;stroke:#ff0000;" x="80.112125" xlink:href="#m2de188c981" y="97.3368"/>
     <use style="fill:#ff0000;stroke:#ff0000;" x="83.460125" xlink:href="#m2de188c981" y="122.6142"/>
     <use style="fill:#ff0000;stroke:#ff0000;" x="86.808125" xlink:href="#m2de188c981" y="153.5994"/>
     <use style="fill:#ff0000;stroke:#ff0000;" x="90.156125" xlink:href="#m2de188c981" y="189.31392"/>
     <use style="fill:#ff0000;stroke:#ff0000;" x="93.504125" xlink:href="#m2de188c981" y="220.13604"/>
     <use style="fill:#ff0000;stroke:#ff0000;" x="96.852125" xlink:href="#m2de188c981" y="249.49044"/>
     <use style="fill:#ff0000;stroke:#ff0000;" x="100.200125" xlink:href="#m2de188c981" y="275.74632"/>
     <use style="fill:#ff0000;stroke:#ff0000;" x="103.548125" xlink:href="#m2de188c981" y="296.13132"/>
     <use style="fill:#ff0000;stroke:#ff0000;" x="106.896125" xlink:href="#m2de188c981" y="310.64544"/>
     <use style="fill:#ff0000;stroke:#ff0000;" x="110.244125" xlink:href="#m2de188c981" y="318.96252"/>
     <use style="fill:#ff0000;stroke:#ff0000;" x="113.592125" xlink:href="#m2de188c981" y="328.74732"/>
     <use style="fill:#ff0000;stroke:#ff0000;" x="116.940125" xlink:href="#m2de188c981" y="333.8028"/>
     <use style="fill:#ff0000;stroke:#ff0000;" x="120.288125" xlink:href="#m2de188c981" y="339.02136"/>
     <use style="fill:#ff0000;stroke:#ff0000;" x="123.636125" xlink:href="#m2de188c981" y="341.1414"/>
     <use style="fill:#ff0000;stroke:#ff0000;" x="126.984125" xlink:href="#m2de188c981" y="342.44604"/>
     <use style="fill:#ff0000;stroke:#ff0000;" x="130.332125" xlink:href="#m2de188c981" y="343.75068"/>
     <use style="fill:#ff0000;stroke:#ff0000;" x="133.680125" xlink:href="#m2de188c981" y="344.72916"/>
     <use style="fill:#ff0000;stroke:#ff0000;" x="137.028125" xlink:href="#m2de188c981" y="345.38148"/>
     <use style="fill:#ff0000;stroke:#ff0000;" x="140.376125" xlink:href="#m2de188c981" y="346.0338"/>
     <use style="fill:#ff0000;stroke:#ff0000;" x="143.724125" xlink:href="#m2de188c981" y="346.19688"/>
     <use style="fill:#ff0000;stroke:#ff0000;" x="147.072125" xlink:href="#m2de188c981" y="346.52304"/>
     <use style="fill:#ff0000;stroke:#ff0000;" x="150.420125" xlink:href="#m2de188c981" y="347.01228"/>
     <use style="fill:#ff0000;stroke:#ff0000;" x="153.768125" xlink:href="#m2de188c981" y="347.33844"/>
     <use style="fill:#ff0000;stroke:#ff0000;" x="157.116125" xlink:href="#m2de188c981" y="347.50152"/>
     <use style="fill:#ff0000;stroke:#ff0000;" x="160.464125" xlink:href="#m2de188c981" y="347.50152"/>
     <use style="fill:#ff0000;stroke:#ff0000;" x="163.812125" xlink:href="#m2de188c981" y="347.50152"/>
     <use style="fill:#ff0000;stroke:#ff0000;" x="167.160125" xlink:href="#m2de188c981" y="347.50152"/>
     <use style="fill:#ff0000;stroke:#ff0000;" x="170.508125" xlink:href="#m2de188c981" y="347.50152"/>
     <use style="fill:#ff0000;stroke:#ff0000;" x="173.856125" xlink:href="#m2de188c981" y="347.50152"/>
     <use style="fill:#ff0000;stroke:#ff0000;" x="177.204125" xlink:href="#m2de188c981" y="347.6646"/>
     <use style="fill:#ff0000;stroke:#ff0000;" x="180.552125" xlink:href="#m2de188c981" y="347.6646"/>
     <use style="fill:#ff0000;stroke:#ff0000;" x="183.900125" xlink:href="#m2de188c981" y="347.6646"/>
     <use style="fill:#ff0000;stroke:#ff0000;" x="187.248125" xlink:href="#m2de188c981" y="347.6646"/>
     <use style="fill:#ff0000;stroke:#ff0000;" x="190.596125" xlink:href="#m2de188c981" y="347.6646"/>
     <use style="fill:#ff0000;stroke:#ff0000;" x="193.944125" xlink:href="#m2de188c981" y="347.6646"/>
     <use style="fill:#ff0000;stroke:#ff0000;" x="197.292125" xlink:href="#m2de188c981" y="347.6646"/>
     <use style="fill:#ff0000;stroke:#ff0000;" x="200.640125" xlink:href="#m2de188c981" y="347.6646"/>
     <use style="fill:#ff0000;stroke:#ff0000;" x="203.988125" xlink:href="#m2de188c981" y="347.82768"/>
     <use style="fill:#ff0000;stroke:#ff0000;" x="207.336125" xlink:href="#m2de188c981" y="347.82768"/>
     <use style="fill:#ff0000;stroke:#ff0000;" x="210.684125" xlink:href="#m2de188c981" y="347.99076"/>
     <use style="fill:#ff0000;stroke:#ff0000;" x="214.032125" xlink:href="#m2de188c981" y="347.99076"/>
     <use style="fill:#ff0000;stroke:#ff0000;" x="217.380125" xlink:href="#m2de188c981" y="347.99076"/>
     <use style="fill:#ff0000;stroke:#ff0000;" x="220.728125" xlink:href="#m2de188c981" y="347.99076"/>
     <use style="fill:#ff0000;stroke:#ff0000;" x="224.076125" xlink:href="#m2de188c981" y="347.99076"/>
     <use style="fill:#ff0000;stroke:#ff0000;" x="227.424125" xlink:href="#m2de188c981" y="347.99076"/>
     <use style="fill:#ff0000;stroke:#ff0000;" x="230.772125" xlink:href="#m2de188c981" y="347.99076"/>
     <use style="fill:#ff0000;stroke:#ff0000;" x="234.120125" xlink:href="#m2de188c981" y="347.99076"/>
     <use style="fill:#ff0000;stroke:#ff0000;" x="237.468125" xlink:href="#m2de188c981" y="347.99076"/>
     <use style="fill:#ff0000;stroke:#ff0000;" x="240.816125" xlink:href="#m2de188c981" y="347.99076"/>
     <use style="fill:#ff0000;stroke:#ff0000;" x="244.164125" xlink:href="#m2de188c981" y="347.99076"/>
     <use style="fill:#ff0000;stroke:#ff0000;" x="247.512125" xlink:href="#m2de188c981" y="347.99076"/>
     <use style="fill:#ff0000;stroke:#ff0000;" x="250.860125" xlink:href="#m2de188c981" y="347.99076"/>
     <use style="fill:#ff0000;stroke:#ff0000;" x="254.208125" xlink:href="#m2de188c981" y="347.99076"/>
     <use style="fill:#ff0000;stroke:#ff0000;" x="257.556125" xlink:href="#m2de188c981" y="347.99076"/>
     <use style="fill:#ff0000;stroke:#ff0000;" x="260.904125" xlink:href="#m2de188c981" y="347.99076"/>
     <use style="fill:#ff0000;stroke:#ff0000;" x="264.252125" xlink:href="#m2de188c981" y="347.99076"/>
     <use style="fill:#ff0000;stroke:#ff0000;" x="267.600125" xlink:href="#m2de188c981" y="347.99076"/>
     <use style="fill:#ff0000;stroke:#ff0000;" x="270.948125" xlink:href="#m2de188c981" y="347.99076"/>
     <use style="fill:#ff0000;stroke:#ff0000;" x="274.296125" xlink:href="#m2de188c981" y="347.99076"/>
     <use style="fill:#ff0000;stroke:#ff0000;" x="277.644125" xlink:href="#m2de188c981" y="347.99076"/>
     <use style="fill:#ff0000;stroke:#ff0000;" x="280.992125" xlink:href="#m2de188c981" y="347.99076"/>
     <use style="fill:#ff0000;stroke:#ff0000;" x="284.340125" xlink:href="#m2de188c981" y="347.99076"/>
     <use style="fill:#ff0000;stroke:#ff0000;" x="287.688125" xlink:href="#m2de188c981" y="347.99076"/>
     <use style="fill:#ff0000;stroke:#ff0000;" x="291.036125" xlink:href="#m2de188c981" y="347.99076"/>
     <use style="fill:#ff0000;stroke:#ff0000;" x="294.384125" xlink:href="#m2de188c981" y="347.99076"/>
     <use style="fill:#ff0000;stroke:#ff0000;" x="297.732125" xlink:href="#m2de188c981" y="347.99076"/>
     <use style="fill:#ff0000;stroke:#ff0000;" x="301.080125" xlink:href="#m2de188c981" y="347.99076"/>
     <use style="fill:#ff0000;stroke:#ff0000;" x="304.428125" xlink:href="#m2de188c981" y="347.99076"/>
     <use style="fill:#ff0000;stroke:#ff0000;" x="307.776125" xlink:href="#m2de188c981" y="347.99076"/>
     <use style="fill:#ff0000;stroke:#ff0000;" x="311.124125" xlink:href="#m2de188c981" y="347.99076"/>
     <use style="fill:#ff0000;stroke:#ff0000;" x="314.472125" xlink:href="#m2de188c981" y="347.99076"/>
     <use style="fill:#ff0000;stroke:#ff0000;" x="317.820125" xlink:href="#m2de188c981" y="347.99076"/>
     <use style="fill:#ff0000;stroke:#ff0000;" x="321.168125" xlink:href="#m2de188c981" y="347.99076"/>
     <use style="fill:#ff0000;stroke:#ff0000;" x="324.516125" xlink:href="#m2de188c981" y="348.15384"/>
     <use style="fill:#ff0000;stroke:#ff0000;" x="327.864125" xlink:href="#m2de188c981" y="348.15384"/>
     <use style="fill:#ff0000;stroke:#ff0000;" x="331.212125" xlink:href="#m2de188c981" y="348.15384"/>
     <use style="fill:#ff0000;stroke:#ff0000;" x="334.560125" xlink:href="#m2de188c981" y="348.15384"/>
     <use style="fill:#ff0000;stroke:#ff0000;" x="337.908125" xlink:href="#m2de188c981" y="348.15384"/>
     <use style="fill:#ff0000;stroke:#ff0000;" x="341.256125" xlink:href="#m2de188c981" y="348.15384"/>
     <use style="fill:#ff0000;stroke:#ff0000;" x="344.604125" xlink:href="#m2de188c981" y="348.15384"/>
     <use style="fill:#ff0000;stroke:#ff0000;" x="347.952125" xlink:href="#m2de188c981" y="348.15384"/>
     <use style="fill:#ff0000;stroke:#ff0000;" x="351.300125" xlink:href="#m2de188c981" y="348.15384"/>
     <use style="fill:#ff0000;stroke:#ff0000;" x="354.648125" xlink:href="#m2de188c981" y="348.15384"/>
     <use style="fill:#ff0000;stroke:#ff0000;" x="357.996125" xlink:href="#m2de188c981" y="348.15384"/>
     <use style="fill:#ff0000;stroke:#ff0000;" x="361.344125" xlink:href="#m2de188c981" y="348.15384"/>
     <use style="fill:#ff0000;stroke:#ff0000;" x="364.692125" xlink:href="#m2de188c981" y="348.15384"/>
     <use style="fill:#ff0000;stroke:#ff0000;" x="368.040125" xlink:href="#m2de188c981" y="348.15384"/>
     <use style="fill:#ff0000;stroke:#ff0000;" x="371.388125" xlink:href="#m2de188c981" y="348.15384"/>
     <use style="fill:#ff0000;stroke:#ff0000;" x="374.736125" xlink:href="#m2de188c981" y="348.15384"/>
     <use style="fill:#ff0000;stroke:#ff0000;" x="378.084125" xlink:href="#m2de188c981" y="348.15384"/>
     <use style="fill:#ff0000;stroke:#ff0000;" x="381.432125" xlink:href="#m2de188c981" y="348.15384"/>
     <use style="fill:#ff0000;stroke:#ff0000;" x="384.780125" xlink:href="#m2de188c981" y="348.15384"/>
     <use style="fill:#ff0000;stroke:#ff0000;" x="388.128125" xlink:href="#m2de188c981" y="348.15384"/>
    </g>
   </g>
   <g id="line2d_19">
    <defs>
     <path d="M -3 3 
L 3 -3 
M -3 -3 
L 3 3 
" id="m2e8edefffe" style="stroke:#008000;"/>
    </defs>
    <g clip-path="url(#p0f4e20c5ae)">
     <use style="fill:#008000;stroke:#008000;" x="53.328125" xlink:href="#m2e8edefffe" y="346.0338"/>
     <use style="fill:#008000;stroke:#008000;" x="56.676125" xlink:href="#m2e8edefffe" y="344.07684"/>
     <use style="fill:#008000;stroke:#008000;" x="60.024125" xlink:href="#m2e8edefffe" y="342.28296"/>
     <use style="fill:#008000;stroke:#008000;" x="63.372125" xlink:href="#m2e8edefffe" y="337.39056"/>
     <use style="fill:#008000;stroke:#008000;" x="66.720125" xlink:href="#m2e8edefffe" y="332.00892"/>
     <use style="fill:#008000;stroke:#008000;" x="70.068125" xlink:href="#m2e8edefffe" y="324.67032"/>
     <use style="fill:#008000;stroke:#008000;" x="73.416125" xlink:href="#m2e8edefffe" y="315.37476"/>
     <use style="fill:#008000;stroke:#008000;" x="76.764125" xlink:href="#m2e8edefffe" y="301.1868"/>
     <use style="fill:#008000;stroke:#008000;" x="80.112125" xlink:href="#m2e8edefffe" y="282.92184"/>
     <use style="fill:#008000;stroke:#008000;" x="83.460125" xlink:href="#m2e8edefffe" y="262.53684"/>
     <use style="fill:#008000;stroke:#008000;" x="86.808125" xlink:href="#m2e8edefffe" y="235.1394"/>
     <use style="fill:#008000;stroke:#008000;" x="90.156125" xlink:href="#m2e8edefffe" y="206.92656"/>
     <use style="fill:#008000;stroke:#008000;" x="93.504125" xlink:href="#m2e8edefffe" y="183.93228"/>
     <use style="fill:#008000;stroke:#008000;" x="96.852125" xlink:href="#m2e8edefffe" y="164.85192"/>
     <use style="fill:#008000;stroke:#008000;" x="100.200125" xlink:href="#m2e8edefffe" y="147.8916"/>
     <use style="fill:#008000;stroke:#008000;" x="103.548125" xlink:href="#m2e8edefffe" y="137.2914"/>
     <use style="fill:#008000;stroke:#008000;" x="106.896125" xlink:href="#m2e8edefffe" y="134.35596"/>
     <use style="fill:#008000;stroke:#008000;" x="110.244125" xlink:href="#m2e8edefffe" y="134.68212"/>
     <use style="fill:#008000;stroke:#008000;" x="113.592125" xlink:href="#m2e8edefffe" y="135.33444"/>
     <use style="fill:#008000;stroke:#008000;" x="116.940125" xlink:href="#m2e8edefffe" y="138.59604"/>
     <use style="fill:#008000;stroke:#008000;" x="120.288125" xlink:href="#m2e8edefffe" y="143.16228"/>
     <use style="fill:#008000;stroke:#008000;" x="123.636125" xlink:href="#m2e8edefffe" y="152.29476"/>
     <use style="fill:#008000;stroke:#008000;" x="126.984125" xlink:href="#m2e8edefffe" y="159.3072"/>
     <use style="fill:#008000;stroke:#008000;" x="130.332125" xlink:href="#m2e8edefffe" y="167.29812"/>
     <use style="fill:#008000;stroke:#008000;" x="133.680125" xlink:href="#m2e8edefffe" y="176.75676"/>
     <use style="fill:#008000;stroke:#008000;" x="137.028125" xlink:href="#m2e8edefffe" y="184.5846"/>
     <use style="fill:#008000;stroke:#008000;" x="140.376125" xlink:href="#m2e8edefffe" y="190.2924"/>
     <use style="fill:#008000;stroke:#008000;" x="143.724125" xlink:href="#m2e8edefffe" y="198.4464"/>
     <use style="fill:#008000;stroke:#008000;" x="147.072125" xlink:href="#m2e8edefffe" y="206.92656"/>
     <use style="fill:#008000;stroke:#008000;" x="150.420125" xlink:href="#m2e8edefffe" y="214.59132"/>
     <use style="fill:#008000;stroke:#008000;" x="153.768125" xlink:href="#m2e8edefffe" y="219.80988"/>
     <use style="fill:#008000;stroke:#008000;" x="157.116125" xlink:href="#m2e8edefffe" y="225.68076"/>
     <use style="fill:#008000;stroke:#008000;" x="160.464125" xlink:href="#m2e8edefffe" y="231.55164"/>
     <use style="fill:#008000;stroke:#008000;" x="163.812125" xlink:href="#m2e8edefffe" y="238.56408"/>
     <use style="fill:#008000;stroke:#008000;" x="167.160125" xlink:href="#m2e8edefffe" y="244.27188"/>
     <use style="fill:#008000;stroke:#008000;" x="170.508125" xlink:href="#m2e8edefffe" y="250.46892"/>
     <use style="fill:#008000;stroke:#008000;" x="173.856125" xlink:href="#m2e8edefffe" y="254.38284"/>
     <use style="fill:#008000;stroke:#008000;" x="177.204125" xlink:href="#m2e8edefffe" y="259.43832"/>
     <use style="fill:#008000;stroke:#008000;" x="180.552125" xlink:href="#m2e8edefffe" y="262.863"/>
     <use style="fill:#008000;stroke:#008000;" x="183.900125" xlink:href="#m2e8edefffe" y="267.42924"/>
     <use style="fill:#008000;stroke:#008000;" x="187.248125" xlink:href="#m2e8edefffe" y="271.99548"/>
     <use style="fill:#008000;stroke:#008000;" x="190.596125" xlink:href="#m2e8edefffe" y="275.74632"/>
     <use style="fill:#008000;stroke:#008000;" x="193.944125" xlink:href="#m2e8edefffe" y="278.68176"/>
     <use style="fill:#008000;stroke:#008000;" x="197.292125" xlink:href="#m2e8edefffe" y="281.78028"/>
     <use style="fill:#008000;stroke:#008000;" x="200.640125" xlink:href="#m2e8edefffe" y="286.18344"/>
     <use style="fill:#008000;stroke:#008000;" x="203.988125" xlink:href="#m2e8edefffe" y="288.62964"/>
     <use style="fill:#008000;stroke:#008000;" x="207.336125" xlink:href="#m2e8edefffe" y="292.2174"/>
     <use style="fill:#008000;stroke:#008000;" x="210.684125" xlink:href="#m2e8edefffe" y="294.50052"/>
     <use style="fill:#008000;stroke:#008000;" x="214.032125" xlink:href="#m2e8edefffe" y="296.45748"/>
     <use style="fill:#008000;stroke:#008000;" x="217.380125" xlink:href="#m2e8edefffe" y="299.06676"/>
     <use style="fill:#008000;stroke:#008000;" x="220.728125" xlink:href="#m2e8edefffe" y="302.16528"/>
     <use style="fill:#008000;stroke:#008000;" x="224.076125" xlink:href="#m2e8edefffe" y="304.28532"/>
     <use style="fill:#008000;stroke:#008000;" x="227.424125" xlink:href="#m2e8edefffe" y="306.73152"/>
     <use style="fill:#008000;stroke:#008000;" x="230.772125" xlink:href="#m2e8edefffe" y="308.68848"/>
     <use style="fill:#008000;stroke:#008000;" x="234.120125" xlink:href="#m2e8edefffe" y="310.64544"/>
     <use style="fill:#008000;stroke:#008000;" x="237.468125" xlink:href="#m2e8edefffe" y="311.95008"/>
     <use style="fill:#008000;stroke:#008000;" x="240.816125" xlink:href="#m2e8edefffe" y="314.07012"/>
     <use style="fill:#008000;stroke:#008000;" x="244.164125" xlink:href="#m2e8edefffe" y="315.21168"/>
     <use style="fill:#008000;stroke:#008000;" x="247.512125" xlink:href="#m2e8edefffe" y="316.35324"/>
     <use style="fill:#008000;stroke:#008000;" x="250.860125" xlink:href="#m2e8edefffe" y="317.65788"/>
     <use style="fill:#008000;stroke:#008000;" x="254.208125" xlink:href="#m2e8edefffe" y="318.96252"/>
     <use style="fill:#008000;stroke:#008000;" x="257.556125" xlink:href="#m2e8edefffe" y="319.77792"/>
     <use style="fill:#008000;stroke:#008000;" x="260.904125" xlink:href="#m2e8edefffe" y="320.7564"/>
     <use style="fill:#008000;stroke:#008000;" x="264.252125" xlink:href="#m2e8edefffe" y="322.3872"/>
     <use style="fill:#008000;stroke:#008000;" x="267.600125" xlink:href="#m2e8edefffe" y="323.2026"/>
     <use style="fill:#008000;stroke:#008000;" x="270.948125" xlink:href="#m2e8edefffe" y="323.85492"/>
     <use style="fill:#008000;stroke:#008000;" x="274.296125" xlink:href="#m2e8edefffe" y="325.48572"/>
     <use style="fill:#008000;stroke:#008000;" x="277.644125" xlink:href="#m2e8edefffe" y="326.30112"/>
     <use style="fill:#008000;stroke:#008000;" x="280.992125" xlink:href="#m2e8edefffe" y="327.11652"/>
     <use style="fill:#008000;stroke:#008000;" x="284.340125" xlink:href="#m2e8edefffe" y="327.2796"/>
     <use style="fill:#008000;stroke:#008000;" x="287.688125" xlink:href="#m2e8edefffe" y="327.60576"/>
     <use style="fill:#008000;stroke:#008000;" x="291.036125" xlink:href="#m2e8edefffe" y="328.095"/>
     <use style="fill:#008000;stroke:#008000;" x="294.384125" xlink:href="#m2e8edefffe" y="328.74732"/>
     <use style="fill:#008000;stroke:#008000;" x="297.732125" xlink:href="#m2e8edefffe" y="329.23656"/>
     <use style="fill:#008000;stroke:#008000;" x="301.080125" xlink:href="#m2e8edefffe" y="330.5412"/>
     <use style="fill:#008000;stroke:#008000;" x="304.428125" xlink:href="#m2e8edefffe" y="331.03044"/>
     <use style="fill:#008000;stroke:#008000;" x="307.776125" xlink:href="#m2e8edefffe" y="331.68276"/>
     <use style="fill:#008000;stroke:#008000;" x="311.124125" xlink:href="#m2e8edefffe" y="332.172"/>
     <use style="fill:#008000;stroke:#008000;" x="314.472125" xlink:href="#m2e8edefffe" y="332.66124"/>
     <use style="fill:#008000;stroke:#008000;" x="317.820125" xlink:href="#m2e8edefffe" y="333.15048"/>
     <use style="fill:#008000;stroke:#008000;" x="321.168125" xlink:href="#m2e8edefffe" y="334.12896"/>
     <use style="fill:#008000;stroke:#008000;" x="324.516125" xlink:href="#m2e8edefffe" y="334.45512"/>
     <use style="fill:#008000;stroke:#008000;" x="327.864125" xlink:href="#m2e8edefffe" y="335.59668"/>
     <use style="fill:#008000;stroke:#008000;" x="331.212125" xlink:href="#m2e8edefffe" y="335.92284"/>
     <use style="fill:#008000;stroke:#008000;" x="334.560125" xlink:href="#m2e8edefffe" y="336.90132"/>
     <use style="fill:#008000;stroke:#008000;" x="337.908125" xlink:href="#m2e8edefffe" y="337.39056"/>
     <use style="fill:#008000;stroke:#008000;" x="341.256125" xlink:href="#m2e8edefffe" y="337.39056"/>
     <use style="fill:#008000;stroke:#008000;" x="344.604125" xlink:href="#m2e8edefffe" y="337.8798"/>
     <use style="fill:#008000;stroke:#008000;" x="347.952125" xlink:href="#m2e8edefffe" y="338.36904"/>
     <use style="fill:#008000;stroke:#008000;" x="351.300125" xlink:href="#m2e8edefffe" y="339.18444"/>
     <use style="fill:#008000;stroke:#008000;" x="354.648125" xlink:href="#m2e8edefffe" y="339.34752"/>
     <use style="fill:#008000;stroke:#008000;" x="357.996125" xlink:href="#m2e8edefffe" y="339.34752"/>
     <use style="fill:#008000;stroke:#008000;" x="361.344125" xlink:href="#m2e8edefffe" y="339.67368"/>
     <use style="fill:#008000;stroke:#008000;" x="364.692125" xlink:href="#m2e8edefffe" y="340.326"/>
     <use style="fill:#008000;stroke:#008000;" x="368.040125" xlink:href="#m2e8edefffe" y="340.65216"/>
     <use style="fill:#008000;stroke:#008000;" x="371.388125" xlink:href="#m2e8edefffe" y="341.1414"/>
     <use style="fill:#008000;stroke:#008000;" x="374.736125" xlink:href="#m2e8edefffe" y="341.30448"/>
     <use style="fill:#008000;stroke:#008000;" x="378.084125" xlink:href="#m2e8edefffe" y="341.63064"/>
     <use style="fill:#008000;stroke:#008000;" x="381.432125" xlink:href="#m2e8edefffe" y="341.9568"/>
     <use style="fill:#008000;stroke:#008000;" x="384.780125" xlink:href="#m2e8edefffe" y="342.11988"/>
     <use style="fill:#008000;stroke:#008000;" x="388.128125" xlink:href="#m2e8edefffe" y="342.11988"/>
    </g>
   </g>
   <g id="patch_3">
    <path d="M 53.328125 348.48 
L 53.328125 22.32 
" style="fill:none;stroke:#000000;stroke-linecap:square;stroke-linejoin:miter;stroke-width:0.8;"/>
   </g>
   <g id="patch_4">
    <path d="M 388.128125 348.48 
L 388.128125 22.32 
" style="fill:none;stroke:#000000;stroke-linecap:square;stroke-linejoin:miter;stroke-width:0.8;"/>
   </g>
   <g id="patch_5">
    <path d="M 53.328125 348.48 
L 388.128125 348.48 
" style="fill:none;stroke:#000000;stroke-linecap:square;stroke-linejoin:miter;stroke-width:0.8;"/>
   </g>
   <g id="patch_6">
    <path d="M 53.328125 22.32 
L 388.128125 22.32 
" style="fill:none;stroke:#000000;stroke-linecap:square;stroke-linejoin:miter;stroke-width:0.8;"/>
   </g>
   <g id="text_18">
    <!-- Equations vs network ($p_{\mathit{Infect}} = 0.0000050$, $p_{remove} = 0.001$) -->
    <defs>
     <path d="M 9.8125 72.90625 
L 55.90625 72.90625 
L 55.90625 64.59375 
L 19.671875 64.59375 
L 19.671875 43.015625 
L 54.390625 43.015625 
L 54.390625 34.71875 
L 19.671875 34.71875 
L 19.671875 8.296875 
L 56.78125 8.296875 
L 56.78125 0 
L 9.8125 0 
z
" id="DejaVuSans-69"/>
     <path d="M 14.796875 27.296875 
Q 14.796875 17.390625 18.875 11.75 
Q 22.953125 6.109375 30.078125 6.109375 
Q 37.203125 6.109375 41.296875 11.75 
Q 45.40625 17.390625 45.40625 27.296875 
Q 45.40625 37.203125 41.296875 42.84375 
Q 37.203125 48.484375 30.078125 48.484375 
Q 22.953125 48.484375 18.875 42.84375 
Q 14.796875 37.203125 14.796875 27.296875 
z
M 45.40625 8.203125 
Q 42.578125 3.328125 38.25 0.953125 
Q 33.9375 -1.421875 27.875 -1.421875 
Q 17.96875 -1.421875 11.734375 6.484375 
Q 5.515625 14.40625 5.515625 27.296875 
Q 5.515625 40.1875 11.734375 48.09375 
Q 17.96875 56 27.875 56 
Q 33.9375 56 38.25 53.625 
Q 42.578125 51.265625 45.40625 46.390625 
L 45.40625 54.6875 
L 54.390625 54.6875 
L 54.390625 -20.796875 
L 45.40625 -20.796875 
z
" id="DejaVuSans-113"/>
     <path d="M 2.984375 54.6875 
L 12.5 54.6875 
L 29.59375 8.796875 
L 46.6875 54.6875 
L 56.203125 54.6875 
L 35.6875 0 
L 23.484375 0 
z
" id="DejaVuSans-118"/>
     <path d="M 56.203125 29.59375 
L 56.203125 25.203125 
L 14.890625 25.203125 
Q 15.484375 15.921875 20.484375 11.0625 
Q 25.484375 6.203125 34.421875 6.203125 
Q 39.59375 6.203125 44.453125 7.46875 
Q 49.3125 8.734375 54.109375 11.28125 
L 54.109375 2.78125 
Q 49.265625 0.734375 44.1875 -0.34375 
Q 39.109375 -1.421875 33.890625 -1.421875 
Q 20.796875 -1.421875 13.15625 6.1875 
Q 5.515625 13.8125 5.515625 26.8125 
Q 5.515625 40.234375 12.765625 48.109375 
Q 20.015625 56 32.328125 56 
Q 43.359375 56 49.78125 48.890625 
Q 56.203125 41.796875 56.203125 29.59375 
z
M 47.21875 32.234375 
Q 47.125 39.59375 43.09375 43.984375 
Q 39.0625 48.390625 32.421875 48.390625 
Q 24.90625 48.390625 20.390625 44.140625 
Q 15.875 39.890625 15.1875 32.171875 
z
" id="DejaVuSans-101"/>
     <path d="M 4.203125 54.6875 
L 13.1875 54.6875 
L 24.421875 12.015625 
L 35.59375 54.6875 
L 46.1875 54.6875 
L 57.421875 12.015625 
L 68.609375 54.6875 
L 77.59375 54.6875 
L 63.28125 0 
L 52.6875 0 
L 40.921875 44.828125 
L 29.109375 0 
L 18.5 0 
z
" id="DejaVuSans-119"/>
     <path d="M 41.109375 46.296875 
Q 39.59375 47.171875 37.8125 47.578125 
Q 36.03125 48 33.890625 48 
Q 26.265625 48 22.1875 43.046875 
Q 18.109375 38.09375 18.109375 28.8125 
L 18.109375 0 
L 9.078125 0 
L 9.078125 54.6875 
L 18.109375 54.6875 
L 18.109375 46.1875 
Q 20.953125 51.171875 25.484375 53.578125 
Q 30.03125 56 36.53125 56 
Q 37.453125 56 38.578125 55.875 
Q 39.703125 55.765625 41.0625 55.515625 
z
" id="DejaVuSans-114"/>
     <path d="M 9.078125 75.984375 
L 18.109375 75.984375 
L 18.109375 31.109375 
L 44.921875 54.6875 
L 56.390625 54.6875 
L 27.390625 29.109375 
L 57.625 0 
L 45.90625 0 
L 18.109375 26.703125 
L 18.109375 0 
L 9.078125 0 
z
" id="DejaVuSans-107"/>
     <path d="M 31 75.875 
Q 24.46875 64.65625 21.28125 53.65625 
Q 18.109375 42.671875 18.109375 31.390625 
Q 18.109375 20.125 21.3125 9.0625 
Q 24.515625 -2 31 -13.1875 
L 23.1875 -13.1875 
Q 15.875 -1.703125 12.234375 9.375 
Q 8.59375 20.453125 8.59375 31.390625 
Q 8.59375 42.28125 12.203125 53.3125 
Q 15.828125 64.359375 23.1875 75.875 
z
" id="DejaVuSans-40"/>
     <path d="M 49.609375 33.6875 
Q 49.609375 40.875 46.484375 44.671875 
Q 43.359375 48.484375 37.5 48.484375 
Q 33.5 48.484375 29.859375 46.4375 
Q 26.21875 44.390625 23.390625 40.484375 
Q 20.609375 36.625 18.9375 31.15625 
Q 17.28125 25.6875 17.28125 20.3125 
Q 17.28125 13.484375 20.40625 9.796875 
Q 23.53125 6.109375 29.296875 6.109375 
Q 33.546875 6.109375 37.1875 8.109375 
Q 40.828125 10.109375 43.40625 13.921875 
Q 46.1875 17.921875 47.890625 23.34375 
Q 49.609375 28.765625 49.609375 33.6875 
z
M 21.78125 46.390625 
Q 25.390625 51.125 30.296875 53.5625 
Q 35.203125 56 41.21875 56 
Q 49.609375 56 54.25 50.5 
Q 58.890625 45.015625 58.890625 35.109375 
Q 58.890625 27 56 19.65625 
Q 53.125 12.3125 47.703125 6.5 
Q 44.09375 2.640625 39.546875 0.609375 
Q 35.015625 -1.421875 29.984375 -1.421875 
Q 24.171875 -1.421875 20.21875 1 
Q 16.265625 3.421875 14.3125 8.203125 
L 8.6875 -20.796875 
L -0.296875 -20.796875 
L 14.40625 54.6875 
L 23.390625 54.6875 
z
" id="DejaVuSans-Oblique-112"/>
     <path d="M 16.890625 72.90625 
L 26.8125 72.90625 
L 12.59375 0 
L 2.6875 0 
z
" id="DejaVuSans-Oblique-73"/>
     <path d="M 55.71875 33.015625 
L 49.3125 0 
L 40.28125 0 
L 46.6875 32.671875 
Q 47.125 34.96875 47.359375 36.71875 
Q 47.609375 38.484375 47.609375 39.5 
Q 47.609375 43.609375 45.015625 45.890625 
Q 42.4375 48.1875 37.796875 48.1875 
Q 30.5625 48.1875 25.34375 43.375 
Q 20.125 38.578125 18.5 30.328125 
L 12.5 0 
L 3.515625 0 
L 14.109375 54.6875 
L 23.09375 54.6875 
L 21.296875 46.09375 
Q 25.046875 50.828125 30.3125 53.40625 
Q 35.59375 56 41.40625 56 
Q 48.640625 56 52.609375 52.09375 
Q 56.59375 48.1875 56.59375 41.109375 
Q 56.59375 39.359375 56.375 37.359375 
Q 56.15625 35.359375 55.71875 33.015625 
z
" id="DejaVuSans-Oblique-110"/>
     <path d="M 47.796875 75.984375 
L 46.390625 68.5 
L 37.796875 68.5 
Q 32.90625 68.5 30.6875 66.578125 
Q 28.46875 64.65625 27.390625 59.515625 
L 26.421875 54.6875 
L 41.21875 54.6875 
L 39.890625 47.703125 
L 25.09375 47.703125 
L 15.828125 0 
L 6.78125 0 
L 16.109375 47.703125 
L 7.515625 47.703125 
L 8.796875 54.6875 
L 17.390625 54.6875 
L 18.109375 58.5 
Q 19.96875 68.171875 24.625 72.078125 
Q 29.296875 75.984375 39.3125 75.984375 
z
" id="DejaVuSans-Oblique-102"/>
     <path d="M 48.09375 32.234375 
Q 48.25 33.015625 48.3125 33.84375 
Q 48.390625 34.671875 48.390625 35.5 
Q 48.390625 41.453125 44.890625 44.921875 
Q 41.40625 48.390625 35.40625 48.390625 
Q 28.71875 48.390625 23.578125 44.15625 
Q 18.453125 39.9375 15.828125 32.171875 
z
M 55.90625 25.203125 
L 14.109375 25.203125 
Q 13.8125 23.34375 13.71875 22.265625 
Q 13.625 21.1875 13.625 20.40625 
Q 13.625 13.625 17.796875 9.90625 
Q 21.96875 6.203125 29.59375 6.203125 
Q 35.453125 6.203125 40.671875 7.515625 
Q 45.90625 8.84375 50.390625 11.375 
L 48.6875 2.484375 
Q 43.84375 0.53125 38.6875 -0.4375 
Q 33.546875 -1.421875 28.21875 -1.421875 
Q 16.84375 -1.421875 10.71875 4.015625 
Q 4.59375 9.46875 4.59375 19.484375 
Q 4.59375 28.03125 7.640625 35.375 
Q 10.6875 42.71875 16.609375 48.484375 
Q 20.40625 52.09375 25.65625 54.046875 
Q 30.90625 56 36.8125 56 
Q 46.09375 56 51.578125 50.4375 
Q 57.078125 44.875 57.078125 35.5 
Q 57.078125 33.25 56.78125 30.6875 
Q 56.5 28.125 55.90625 25.203125 
z
" id="DejaVuSans-Oblique-101"/>
     <path d="M 53.609375 52.59375 
L 51.8125 43.703125 
Q 48.578125 46.046875 44.9375 47.21875 
Q 41.3125 48.390625 37.40625 48.390625 
Q 33.109375 48.390625 29.21875 46.875 
Q 25.34375 45.359375 22.703125 42.578125 
Q 18.5 38.328125 16.203125 32.609375 
Q 13.921875 26.90625 13.921875 20.796875 
Q 13.921875 13.421875 17.609375 9.8125 
Q 21.296875 6.203125 28.8125 6.203125 
Q 32.515625 6.203125 36.6875 7.328125 
Q 40.875 8.453125 45.40625 10.6875 
L 43.703125 1.8125 
Q 39.796875 0.203125 35.671875 -0.609375 
Q 31.546875 -1.421875 27.203125 -1.421875 
Q 16.3125 -1.421875 10.453125 4.015625 
Q 4.59375 9.46875 4.59375 19.578125 
Q 4.59375 28.078125 7.640625 35.234375 
Q 10.6875 42.390625 16.703125 48.09375 
Q 20.796875 52 26.3125 54 
Q 31.84375 56 38.375 56 
Q 42.1875 56 45.9375 55.140625 
Q 49.703125 54.296875 53.609375 52.59375 
z
" id="DejaVuSans-Oblique-99"/>
     <path d="M 10.59375 45.40625 
L 73.1875 45.40625 
L 73.1875 37.203125 
L 10.59375 37.203125 
z
M 10.59375 25.484375 
L 73.1875 25.484375 
L 73.1875 17.1875 
L 10.59375 17.1875 
z
" id="DejaVuSans-61"/>
     <path d="M 11.71875 12.40625 
L 22.015625 12.40625 
L 22.015625 4 
L 14.015625 -11.625 
L 7.71875 -11.625 
L 11.71875 4 
z
" id="DejaVuSans-44"/>
     <path d="M 44.578125 46.390625 
Q 43.21875 47.125 41.453125 47.515625 
Q 39.703125 47.90625 37.703125 47.90625 
Q 30.515625 47.90625 25.140625 42.453125 
Q 19.78125 37.015625 18.015625 27.875 
L 12.5 0 
L 3.515625 0 
L 14.203125 54.6875 
L 23.1875 54.6875 
L 21.484375 46.1875 
Q 25.046875 50.921875 30 53.453125 
Q 34.96875 56 40.578125 56 
Q 42.046875 56 43.453125 55.828125 
Q 44.875 55.671875 46.296875 55.28125 
z
" id="DejaVuSans-Oblique-114"/>
     <path d="M 89.796875 33.015625 
L 83.40625 0 
L 74.421875 0 
L 80.71875 32.71875 
Q 81.109375 34.8125 81.296875 36.328125 
Q 81.5 37.84375 81.5 38.921875 
Q 81.5 43.3125 79.046875 45.75 
Q 76.609375 48.1875 72.21875 48.1875 
Q 65.671875 48.1875 60.546875 43.28125 
Q 55.421875 38.375 53.90625 30.515625 
L 47.90625 0 
L 38.921875 0 
L 45.3125 32.71875 
Q 45.703125 34.515625 45.890625 36.046875 
Q 46.09375 37.59375 46.09375 38.8125 
Q 46.09375 43.265625 43.65625 45.71875 
Q 41.21875 48.1875 36.921875 48.1875 
Q 30.28125 48.1875 25.140625 43.28125 
Q 20.015625 38.375 18.5 30.515625 
L 12.5 0 
L 3.515625 0 
L 14.203125 54.6875 
L 23.1875 54.6875 
L 21.484375 46.1875 
Q 25.140625 50.984375 30.046875 53.484375 
Q 34.96875 56 40.578125 56 
Q 46.53125 56 50.359375 52.875 
Q 54.203125 49.75 54.984375 44.1875 
Q 59.078125 49.953125 64.46875 52.96875 
Q 69.875 56 75.875 56 
Q 82.90625 56 86.734375 51.953125 
Q 90.578125 47.90625 90.578125 40.484375 
Q 90.578125 38.875 90.375 36.9375 
Q 90.1875 35.015625 89.796875 33.015625 
z
" id="DejaVuSans-Oblique-109"/>
     <path d="M 25.390625 -1.421875 
Q 15.765625 -1.421875 10.171875 4.515625 
Q 4.59375 10.453125 4.59375 20.703125 
Q 4.59375 26.65625 6.515625 32.828125 
Q 8.453125 39.015625 11.53125 43.21875 
Q 16.359375 49.75 22.3125 52.875 
Q 28.265625 56 35.796875 56 
Q 45.125 56 50.859375 50.1875 
Q 56.59375 44.390625 56.59375 35.015625 
Q 56.59375 28.515625 54.6875 22.0625 
Q 52.78125 15.625 49.703125 11.375 
Q 44.921875 4.828125 38.96875 1.703125 
Q 33.015625 -1.421875 25.390625 -1.421875 
z
M 13.921875 21 
Q 13.921875 13.578125 17.015625 9.890625 
Q 20.125 6.203125 26.421875 6.203125 
Q 35.453125 6.203125 41.375 14.078125 
Q 47.3125 21.96875 47.3125 34.078125 
Q 47.3125 41.15625 44.140625 44.765625 
Q 40.96875 48.390625 34.8125 48.390625 
Q 29.734375 48.390625 25.78125 46.015625 
Q 21.828125 43.65625 18.703125 38.8125 
Q 16.40625 35.203125 15.15625 30.5625 
Q 13.921875 25.921875 13.921875 21 
z
" id="DejaVuSans-Oblique-111"/>
     <path d="M 7.171875 54.6875 
L 16.703125 54.6875 
L 24.703125 8.203125 
L 50.875 54.6875 
L 60.40625 54.6875 
L 29.296875 0 
L 17.1875 0 
z
" id="DejaVuSans-Oblique-118"/>
     <path d="M 8.015625 75.875 
L 15.828125 75.875 
Q 23.140625 64.359375 26.78125 53.3125 
Q 30.421875 42.28125 30.421875 31.390625 
Q 30.421875 20.453125 26.78125 9.375 
Q 23.140625 -1.703125 15.828125 -13.1875 
L 8.015625 -13.1875 
Q 14.5 -2 17.703125 9.0625 
Q 20.90625 20.125 20.90625 31.390625 
Q 20.90625 42.671875 17.703125 53.65625 
Q 14.5 64.65625 8.015625 75.875 
z
" id="DejaVuSans-41"/>
    </defs>
    <g transform="translate(45.468125 16.32)scale(0.12 -0.12)">
     <use transform="translate(0 0.015625)" xlink:href="#DejaVuSans-69"/>
     <use transform="translate(63.183594 0.015625)" xlink:href="#DejaVuSans-113"/>
     <use transform="translate(126.660156 0.015625)" xlink:href="#DejaVuSans-117"/>
     <use transform="translate(190.039062 0.015625)" xlink:href="#DejaVuSans-97"/>
     <use transform="translate(251.318359 0.015625)" xlink:href="#DejaVuSans-116"/>
     <use transform="translate(290.527344 0.015625)" xlink:href="#DejaVuSans-105"/>
     <use transform="translate(318.310547 0.015625)" xlink:href="#DejaVuSans-111"/>
     <use transform="translate(379.492188 0.015625)" xlink:href="#DejaVuSans-110"/>
     <use transform="translate(442.871094 0.015625)" xlink:href="#DejaVuSans-115"/>
     <use transform="translate(494.970703 0.015625)" xlink:href="#DejaVuSans-32"/>
     <use transform="translate(526.757812 0.015625)" xlink:href="#DejaVuSans-118"/>
     <use transform="translate(585.9375 0.015625)" xlink:href="#DejaVuSans-115"/>
     <use transform="translate(638.037109 0.015625)" xlink:href="#DejaVuSans-32"/>
     <use transform="translate(669.824219 0.015625)" xlink:href="#DejaVuSans-110"/>
     <use transform="translate(733.203125 0.015625)" xlink:href="#DejaVuSans-101"/>
     <use transform="translate(794.726562 0.015625)" xlink:href="#DejaVuSans-116"/>
     <use transform="translate(833.935547 0.015625)" xlink:href="#DejaVuSans-119"/>
     <use transform="translate(915.722656 0.015625)" xlink:href="#DejaVuSans-111"/>
     <use transform="translate(976.904297 0.015625)" xlink:href="#DejaVuSans-114"/>
     <use transform="translate(1018.017578 0.015625)" xlink:href="#DejaVuSans-107"/>
     <use transform="translate(1075.927734 0.015625)" xlink:href="#DejaVuSans-32"/>
     <use transform="translate(1107.714844 0.015625)" xlink:href="#DejaVuSans-40"/>
     <use transform="translate(1146.728516 0.015625)" xlink:href="#DejaVuSans-Oblique-112"/>
     <use transform="translate(1210.205078 -16.390625)scale(0.7)" xlink:href="#DejaVuSans-Oblique-73"/>
     <use transform="translate(1230.849609 -16.390625)scale(0.7)" xlink:href="#DejaVuSans-Oblique-110"/>
     <use transform="translate(1275.214844 -16.390625)scale(0.7)" xlink:href="#DejaVuSans-Oblique-102"/>
     <use transform="translate(1299.858398 -16.390625)scale(0.7)" xlink:href="#DejaVuSans-Oblique-101"/>
     <use transform="translate(1342.924805 -16.390625)scale(0.7)" xlink:href="#DejaVuSans-Oblique-99"/>
     <use transform="translate(1381.411133 -16.390625)scale(0.7)" xlink:href="#DejaVuSans-Oblique-116"/>
     <use transform="translate(1431.074219 0.015625)" xlink:href="#DejaVuSans-61"/>
     <use transform="translate(1534.345703 0.015625)" xlink:href="#DejaVuSans-48"/>
     <use transform="translate(1597.96875 0.015625)" xlink:href="#DejaVuSans-46"/>
     <use transform="translate(1629.755859 0.015625)" xlink:href="#DejaVuSans-48"/>
     <use transform="translate(1693.378906 0.015625)" xlink:href="#DejaVuSans-48"/>
     <use transform="translate(1757.001953 0.015625)" xlink:href="#DejaVuSans-48"/>
     <use transform="translate(1820.625 0.015625)" xlink:href="#DejaVuSans-48"/>
     <use transform="translate(1884.248047 0.015625)" xlink:href="#DejaVuSans-48"/>
     <use transform="translate(1947.871094 0.015625)" xlink:href="#DejaVuSans-53"/>
     <use transform="translate(2011.494141 0.015625)" xlink:href="#DejaVuSans-48"/>
     <use transform="translate(2075.117188 0.015625)" xlink:href="#DejaVuSans-44"/>
     <use transform="translate(2106.904297 0.015625)" xlink:href="#DejaVuSans-32"/>
     <use transform="translate(2138.691406 0.015625)" xlink:href="#DejaVuSans-Oblique-112"/>
     <use transform="translate(2202.167969 -16.390625)scale(0.7)" xlink:href="#DejaVuSans-Oblique-114"/>
     <use transform="translate(2230.947266 -16.390625)scale(0.7)" xlink:href="#DejaVuSans-Oblique-101"/>
     <use transform="translate(2274.013672 -16.390625)scale(0.7)" xlink:href="#DejaVuSans-Oblique-109"/>
     <use transform="translate(2342.202148 -16.390625)scale(0.7)" xlink:href="#DejaVuSans-Oblique-111"/>
     <use transform="translate(2385.029297 -16.390625)scale(0.7)" xlink:href="#DejaVuSans-Oblique-118"/>
     <use transform="translate(2426.455078 -16.390625)scale(0.7)" xlink:href="#DejaVuSans-Oblique-101"/>
     <use transform="translate(2491.738281 0.015625)" xlink:href="#DejaVuSans-61"/>
     <use transform="translate(2595.009766 0.015625)" xlink:href="#DejaVuSans-48"/>
     <use transform="translate(2658.632812 0.015625)" xlink:href="#DejaVuSans-46"/>
     <use transform="translate(2690.419922 0.015625)" xlink:href="#DejaVuSans-48"/>
     <use transform="translate(2754.042969 0.015625)" xlink:href="#DejaVuSans-48"/>
     <use transform="translate(2817.666016 0.015625)" xlink:href="#DejaVuSans-49"/>
     <use transform="translate(2881.289062 0.015625)" xlink:href="#DejaVuSans-41"/>
    </g>
   </g>
   <g id="legend_1">
    <g id="patch_7">
     <path d="M 234.495313 216.25625 
L 381.128125 216.25625 
Q 383.128125 216.25625 383.128125 214.25625 
L 383.128125 156.54375 
Q 383.128125 154.54375 381.128125 154.54375 
L 234.495313 154.54375 
Q 232.495313 154.54375 232.495313 156.54375 
L 232.495313 214.25625 
Q 232.495313 216.25625 234.495313 216.25625 
z
" style="fill:#ffffff;opacity:0.8;stroke:#cccccc;stroke-linejoin:miter;"/>
    </g>
    <g id="line2d_20">
     <path d="M 236.495313 162.642187 
L 256.495313 162.642187 
" style="fill:none;stroke:#ff0000;stroke-linecap:square;stroke-width:1.5;"/>
    </g>
    <g id="line2d_21"/>
    <g id="text_19">
     <!-- suceptible (theory) -->
     <defs>
      <path d="M 48.78125 52.59375 
L 48.78125 44.1875 
Q 44.96875 46.296875 41.140625 47.34375 
Q 37.3125 48.390625 33.40625 48.390625 
Q 24.65625 48.390625 19.8125 42.84375 
Q 14.984375 37.3125 14.984375 27.296875 
Q 14.984375 17.28125 19.8125 11.734375 
Q 24.65625 6.203125 33.40625 6.203125 
Q 37.3125 6.203125 41.140625 7.25 
Q 44.96875 8.296875 48.78125 10.40625 
L 48.78125 2.09375 
Q 45.015625 0.34375 40.984375 -0.53125 
Q 36.96875 -1.421875 32.421875 -1.421875 
Q 20.0625 -1.421875 12.78125 6.34375 
Q 5.515625 14.109375 5.515625 27.296875 
Q 5.515625 40.671875 12.859375 48.328125 
Q 20.21875 56 33.015625 56 
Q 37.15625 56 41.109375 55.140625 
Q 45.0625 54.296875 48.78125 52.59375 
z
" id="DejaVuSans-99"/>
      <path d="M 48.6875 27.296875 
Q 48.6875 37.203125 44.609375 42.84375 
Q 40.53125 48.484375 33.40625 48.484375 
Q 26.265625 48.484375 22.1875 42.84375 
Q 18.109375 37.203125 18.109375 27.296875 
Q 18.109375 17.390625 22.1875 11.75 
Q 26.265625 6.109375 33.40625 6.109375 
Q 40.53125 6.109375 44.609375 11.75 
Q 48.6875 17.390625 48.6875 27.296875 
z
M 18.109375 46.390625 
Q 20.953125 51.265625 25.265625 53.625 
Q 29.59375 56 35.59375 56 
Q 45.5625 56 51.78125 48.09375 
Q 58.015625 40.1875 58.015625 27.296875 
Q 58.015625 14.40625 51.78125 6.484375 
Q 45.5625 -1.421875 35.59375 -1.421875 
Q 29.59375 -1.421875 25.265625 0.953125 
Q 20.953125 3.328125 18.109375 8.203125 
L 18.109375 0 
L 9.078125 0 
L 9.078125 75.984375 
L 18.109375 75.984375 
z
" id="DejaVuSans-98"/>
      <path d="M 32.171875 -5.078125 
Q 28.375 -14.84375 24.75 -17.8125 
Q 21.140625 -20.796875 15.09375 -20.796875 
L 7.90625 -20.796875 
L 7.90625 -13.28125 
L 13.1875 -13.28125 
Q 16.890625 -13.28125 18.9375 -11.515625 
Q 21 -9.765625 23.484375 -3.21875 
L 25.09375 0.875 
L 2.984375 54.6875 
L 12.5 54.6875 
L 29.59375 11.921875 
L 46.6875 54.6875 
L 56.203125 54.6875 
z
" id="DejaVuSans-121"/>
     </defs>
     <g transform="translate(264.495313 166.142187)scale(0.1 -0.1)">
      <use xlink:href="#DejaVuSans-115"/>
      <use x="52.099609" xlink:href="#DejaVuSans-117"/>
      <use x="115.478516" xlink:href="#DejaVuSans-99"/>
      <use x="170.458984" xlink:href="#DejaVuSans-101"/>
      <use x="231.982422" xlink:href="#DejaVuSans-112"/>
      <use x="295.458984" xlink:href="#DejaVuSans-116"/>
      <use x="334.667969" xlink:href="#DejaVuSans-105"/>
      <use x="362.451172" xlink:href="#DejaVuSans-98"/>
      <use x="425.927734" xlink:href="#DejaVuSans-108"/>
      <use x="453.710938" xlink:href="#DejaVuSans-101"/>
      <use x="515.234375" xlink:href="#DejaVuSans-32"/>
      <use x="547.021484" xlink:href="#DejaVuSans-40"/>
      <use x="586.035156" xlink:href="#DejaVuSans-116"/>
      <use x="625.244141" xlink:href="#DejaVuSans-104"/>
      <use x="688.623047" xlink:href="#DejaVuSans-101"/>
      <use x="750.146484" xlink:href="#DejaVuSans-111"/>
      <use x="811.328125" xlink:href="#DejaVuSans-114"/>
      <use x="852.441406" xlink:href="#DejaVuSans-121"/>
      <use x="911.621094" xlink:href="#DejaVuSans-41"/>
     </g>
    </g>
    <g id="line2d_22">
     <path d="M 236.495313 177.320312 
L 256.495313 177.320312 
" style="fill:none;stroke:#008000;stroke-linecap:square;stroke-width:1.5;"/>
    </g>
    <g id="line2d_23"/>
    <g id="text_20">
     <!-- infected (theory) -->
     <defs>
      <path d="M 37.109375 75.984375 
L 37.109375 68.5 
L 28.515625 68.5 
Q 23.6875 68.5 21.796875 66.546875 
Q 19.921875 64.59375 19.921875 59.515625 
L 19.921875 54.6875 
L 34.71875 54.6875 
L 34.71875 47.703125 
L 19.921875 47.703125 
L 19.921875 0 
L 10.890625 0 
L 10.890625 47.703125 
L 2.296875 47.703125 
L 2.296875 54.6875 
L 10.890625 54.6875 
L 10.890625 58.5 
Q 10.890625 67.625 15.140625 71.796875 
Q 19.390625 75.984375 28.609375 75.984375 
z
" id="DejaVuSans-102"/>
      <path d="M 45.40625 46.390625 
L 45.40625 75.984375 
L 54.390625 75.984375 
L 54.390625 0 
L 45.40625 0 
L 45.40625 8.203125 
Q 42.578125 3.328125 38.25 0.953125 
Q 33.9375 -1.421875 27.875 -1.421875 
Q 17.96875 -1.421875 11.734375 6.484375 
Q 5.515625 14.40625 5.515625 27.296875 
Q 5.515625 40.1875 11.734375 48.09375 
Q 17.96875 56 27.875 56 
Q 33.9375 56 38.25 53.625 
Q 42.578125 51.265625 45.40625 46.390625 
z
M 14.796875 27.296875 
Q 14.796875 17.390625 18.875 11.75 
Q 22.953125 6.109375 30.078125 6.109375 
Q 37.203125 6.109375 41.296875 11.75 
Q 45.40625 17.390625 45.40625 27.296875 
Q 45.40625 37.203125 41.296875 42.84375 
Q 37.203125 48.484375 30.078125 48.484375 
Q 22.953125 48.484375 18.875 42.84375 
Q 14.796875 37.203125 14.796875 27.296875 
z
" id="DejaVuSans-100"/>
     </defs>
     <g transform="translate(264.495313 180.820312)scale(0.1 -0.1)">
      <use xlink:href="#DejaVuSans-105"/>
      <use x="27.783203" xlink:href="#DejaVuSans-110"/>
      <use x="91.162109" xlink:href="#DejaVuSans-102"/>
      <use x="126.367188" xlink:href="#DejaVuSans-101"/>
      <use x="187.890625" xlink:href="#DejaVuSans-99"/>
      <use x="242.871094" xlink:href="#DejaVuSans-116"/>
      <use x="282.080078" xlink:href="#DejaVuSans-101"/>
      <use x="343.603516" xlink:href="#DejaVuSans-100"/>
      <use x="407.080078" xlink:href="#DejaVuSans-32"/>
      <use x="438.867188" xlink:href="#DejaVuSans-40"/>
      <use x="477.880859" xlink:href="#DejaVuSans-116"/>
      <use x="517.089844" xlink:href="#DejaVuSans-104"/>
      <use x="580.46875" xlink:href="#DejaVuSans-101"/>
      <use x="641.992188" xlink:href="#DejaVuSans-111"/>
      <use x="703.173828" xlink:href="#DejaVuSans-114"/>
      <use x="744.287109" xlink:href="#DejaVuSans-121"/>
      <use x="803.466797" xlink:href="#DejaVuSans-41"/>
     </g>
    </g>
    <g id="line2d_24"/>
    <g id="line2d_25">
     <g>
      <use style="fill:#ff0000;stroke:#ff0000;" x="246.495313" xlink:href="#m2de188c981" y="191.998437"/>
     </g>
    </g>
    <g id="text_21">
     <!-- suceptible (simulation) -->
     <defs>
      <path d="M 52 44.1875 
Q 55.375 50.25 60.0625 53.125 
Q 64.75 56 71.09375 56 
Q 79.640625 56 84.28125 50.015625 
Q 88.921875 44.046875 88.921875 33.015625 
L 88.921875 0 
L 79.890625 0 
L 79.890625 32.71875 
Q 79.890625 40.578125 77.09375 44.375 
Q 74.3125 48.1875 68.609375 48.1875 
Q 61.625 48.1875 57.5625 43.546875 
Q 53.515625 38.921875 53.515625 30.90625 
L 53.515625 0 
L 44.484375 0 
L 44.484375 32.71875 
Q 44.484375 40.625 41.703125 44.40625 
Q 38.921875 48.1875 33.109375 48.1875 
Q 26.21875 48.1875 22.15625 43.53125 
Q 18.109375 38.875 18.109375 30.90625 
L 18.109375 0 
L 9.078125 0 
L 9.078125 54.6875 
L 18.109375 54.6875 
L 18.109375 46.1875 
Q 21.1875 51.21875 25.484375 53.609375 
Q 29.78125 56 35.6875 56 
Q 41.65625 56 45.828125 52.96875 
Q 50 49.953125 52 44.1875 
z
" id="DejaVuSans-109"/>
     </defs>
     <g transform="translate(264.495313 195.498437)scale(0.1 -0.1)">
      <use xlink:href="#DejaVuSans-115"/>
      <use x="52.099609" xlink:href="#DejaVuSans-117"/>
      <use x="115.478516" xlink:href="#DejaVuSans-99"/>
      <use x="170.458984" xlink:href="#DejaVuSans-101"/>
      <use x="231.982422" xlink:href="#DejaVuSans-112"/>
      <use x="295.458984" xlink:href="#DejaVuSans-116"/>
      <use x="334.667969" xlink:href="#DejaVuSans-105"/>
      <use x="362.451172" xlink:href="#DejaVuSans-98"/>
      <use x="425.927734" xlink:href="#DejaVuSans-108"/>
      <use x="453.710938" xlink:href="#DejaVuSans-101"/>
      <use x="515.234375" xlink:href="#DejaVuSans-32"/>
      <use x="547.021484" xlink:href="#DejaVuSans-40"/>
      <use x="586.035156" xlink:href="#DejaVuSans-115"/>
      <use x="638.134766" xlink:href="#DejaVuSans-105"/>
      <use x="665.917969" xlink:href="#DejaVuSans-109"/>
      <use x="763.330078" xlink:href="#DejaVuSans-117"/>
      <use x="826.708984" xlink:href="#DejaVuSans-108"/>
      <use x="854.492188" xlink:href="#DejaVuSans-97"/>
      <use x="915.771484" xlink:href="#DejaVuSans-116"/>
      <use x="954.980469" xlink:href="#DejaVuSans-105"/>
      <use x="982.763672" xlink:href="#DejaVuSans-111"/>
      <use x="1043.945312" xlink:href="#DejaVuSans-110"/>
      <use x="1107.324219" xlink:href="#DejaVuSans-41"/>
     </g>
    </g>
    <g id="line2d_26"/>
    <g id="line2d_27">
     <g>
      <use style="fill:#008000;stroke:#008000;" x="246.495313" xlink:href="#m2e8edefffe" y="206.676562"/>
     </g>
    </g>
    <g id="text_22">
     <!-- infected (simulation) -->
     <g transform="translate(264.495313 210.176562)scale(0.1 -0.1)">
      <use xlink:href="#DejaVuSans-105"/>
      <use x="27.783203" xlink:href="#DejaVuSans-110"/>
      <use x="91.162109" xlink:href="#DejaVuSans-102"/>
      <use x="126.367188" xlink:href="#DejaVuSans-101"/>
      <use x="187.890625" xlink:href="#DejaVuSans-99"/>
      <use x="242.871094" xlink:href="#DejaVuSans-116"/>
      <use x="282.080078" xlink:href="#DejaVuSans-101"/>
      <use x="343.603516" xlink:href="#DejaVuSans-100"/>
      <use x="407.080078" xlink:href="#DejaVuSans-32"/>
      <use x="438.867188" xlink:href="#DejaVuSans-40"/>
      <use x="477.880859" xlink:href="#DejaVuSans-115"/>
      <use x="529.980469" xlink:href="#DejaVuSans-105"/>
      <use x="557.763672" xlink:href="#DejaVuSans-109"/>
      <use x="655.175781" xlink:href="#DejaVuSans-117"/>
      <use x="718.554688" xlink:href="#DejaVuSans-108"/>
      <use x="746.337891" xlink:href="#DejaVuSans-97"/>
      <use x="807.617188" xlink:href="#DejaVuSans-116"/>
      <use x="846.826172" xlink:href="#DejaVuSans-105"/>
      <use x="874.609375" xlink:href="#DejaVuSans-111"/>
      <use x="935.791016" xlink:href="#DejaVuSans-110"/>
      <use x="999.169922" xlink:href="#DejaVuSans-41"/>
     </g>
    </g>
   </g>
  </g>
 </g>
 <defs>
  <clipPath id="p0f4e20c5ae">
   <rect height="326.16" width="334.8" x="53.328125" y="22.32"/>
  </clipPath>
 </defs>
</svg>
