<?xml version="1.0" encoding="utf-8" standalone="no"?>
<!DOCTYPE svg PUBLIC "-//W3C//DTD SVG 1.1//EN"
  "http://www.w3.org/Graphics/SVG/1.1/DTD/svg11.dtd">
<!-- Created with matplotlib (https://matplotlib.org/) -->
<svg height="413.965156pt" version="1.1" viewBox="0 0 743.986406 413.965156" width="743.986406pt" xmlns="http://www.w3.org/2000/svg" xmlns:xlink="http://www.w3.org/1999/xlink">
 <defs>
  <style type="text/css">
*{stroke-linecap:butt;stroke-linejoin:round;}
  </style>
 </defs>
 <g id="figure_1">
  <g id="patch_1">
   <path d="M 0 413.965156 
L 743.986406 413.965156 
L 743.986406 0 
L 0 0 
z
" style="fill:#ffffff;"/>
  </g>
  <g id="axes_1">
   <g id="patch_2">
    <path d="M 56.064531 376.56 
L 360.428168 376.56 
L 360.428168 50.4 
L 56.064531 50.4 
z
" style="fill:#eaeaf2;"/>
   </g>
   <g id="matplotlib.axis_1">
    <g id="xtick_1">
     <g id="line2d_1">
      <path clip-path="url(#pcaea54f9af)" d="M 56.064531 376.56 
L 56.064531 50.4 
" style="fill:none;stroke:#ffffff;stroke-linecap:round;"/>
     </g>
     <g id="line2d_2"/>
     <g id="text_1">
      <!-- 0 -->
      <defs>
       <path d="M 4.15625 35.296875 
Q 4.15625 48 6.765625 55.734375 
Q 9.375 63.484375 14.515625 67.671875 
Q 19.671875 71.875 27.484375 71.875 
Q 33.25 71.875 37.59375 69.546875 
Q 41.9375 67.234375 44.765625 62.859375 
Q 47.609375 58.5 49.21875 52.21875 
Q 50.828125 45.953125 50.828125 35.296875 
Q 50.828125 22.703125 48.234375 14.96875 
Q 45.65625 7.234375 40.5 3 
Q 35.359375 -1.21875 27.484375 -1.21875 
Q 17.140625 -1.21875 11.234375 6.203125 
Q 4.15625 15.140625 4.15625 35.296875 
z
M 13.1875 35.296875 
Q 13.1875 17.671875 17.3125 11.828125 
Q 21.4375 6 27.484375 6 
Q 33.546875 6 37.671875 11.859375 
Q 41.796875 17.71875 41.796875 35.296875 
Q 41.796875 52.984375 37.671875 58.78125 
Q 33.546875 64.59375 27.390625 64.59375 
Q 21.34375 64.59375 17.71875 59.46875 
Q 13.1875 52.9375 13.1875 35.296875 
z
" id="ArialMT-48"/>
      </defs>
      <g style="fill:#262626;" transform="translate(53.284063 390.717812)scale(0.1 -0.1)">
       <use xlink:href="#ArialMT-48"/>
      </g>
     </g>
    </g>
    <g id="xtick_2">
     <g id="line2d_3">
      <path clip-path="url(#pcaea54f9af)" d="M 116.937259 376.56 
L 116.937259 50.4 
" style="fill:none;stroke:#ffffff;stroke-linecap:round;"/>
     </g>
     <g id="line2d_4"/>
     <g id="text_2">
      <!-- 1000 -->
      <defs>
       <path d="M 37.25 0 
L 28.46875 0 
L 28.46875 56 
Q 25.296875 52.984375 20.140625 49.953125 
Q 14.984375 46.921875 10.890625 45.40625 
L 10.890625 53.90625 
Q 18.265625 57.375 23.78125 62.296875 
Q 29.296875 67.234375 31.59375 71.875 
L 37.25 71.875 
z
" id="ArialMT-49"/>
      </defs>
      <g style="fill:#262626;" transform="translate(105.815384 390.717812)scale(0.1 -0.1)">
       <use xlink:href="#ArialMT-49"/>
       <use x="55.615234" xlink:href="#ArialMT-48"/>
       <use x="111.230469" xlink:href="#ArialMT-48"/>
       <use x="166.845703" xlink:href="#ArialMT-48"/>
      </g>
     </g>
    </g>
    <g id="xtick_3">
     <g id="line2d_5">
      <path clip-path="url(#pcaea54f9af)" d="M 177.809986 376.56 
L 177.809986 50.4 
" style="fill:none;stroke:#ffffff;stroke-linecap:round;"/>
     </g>
     <g id="line2d_6"/>
     <g id="text_3">
      <!-- 2000 -->
      <defs>
       <path d="M 50.34375 8.453125 
L 50.34375 0 
L 3.03125 0 
Q 2.9375 3.171875 4.046875 6.109375 
Q 5.859375 10.9375 9.828125 15.625 
Q 13.8125 20.3125 21.34375 26.46875 
Q 33.015625 36.03125 37.109375 41.625 
Q 41.21875 47.21875 41.21875 52.203125 
Q 41.21875 57.421875 37.46875 61 
Q 33.734375 64.59375 27.734375 64.59375 
Q 21.390625 64.59375 17.578125 60.78125 
Q 13.765625 56.984375 13.71875 50.25 
L 4.6875 51.171875 
Q 5.609375 61.28125 11.65625 66.578125 
Q 17.71875 71.875 27.9375 71.875 
Q 38.234375 71.875 44.234375 66.15625 
Q 50.25 60.453125 50.25 52 
Q 50.25 47.703125 48.484375 43.546875 
Q 46.734375 39.40625 42.65625 34.8125 
Q 38.578125 30.21875 29.109375 22.21875 
Q 21.1875 15.578125 18.9375 13.203125 
Q 16.703125 10.84375 15.234375 8.453125 
z
" id="ArialMT-50"/>
      </defs>
      <g style="fill:#262626;" transform="translate(166.688111 390.717812)scale(0.1 -0.1)">
       <use xlink:href="#ArialMT-50"/>
       <use x="55.615234" xlink:href="#ArialMT-48"/>
       <use x="111.230469" xlink:href="#ArialMT-48"/>
       <use x="166.845703" xlink:href="#ArialMT-48"/>
      </g>
     </g>
    </g>
    <g id="xtick_4">
     <g id="line2d_7">
      <path clip-path="url(#pcaea54f9af)" d="M 238.682713 376.56 
L 238.682713 50.4 
" style="fill:none;stroke:#ffffff;stroke-linecap:round;"/>
     </g>
     <g id="line2d_8"/>
     <g id="text_4">
      <!-- 3000 -->
      <defs>
       <path d="M 4.203125 18.890625 
L 12.984375 20.0625 
Q 14.5 12.59375 18.140625 9.296875 
Q 21.78125 6 27 6 
Q 33.203125 6 37.46875 10.296875 
Q 41.75 14.59375 41.75 20.953125 
Q 41.75 27 37.796875 30.921875 
Q 33.84375 34.859375 27.734375 34.859375 
Q 25.25 34.859375 21.53125 33.890625 
L 22.515625 41.609375 
Q 23.390625 41.5 23.921875 41.5 
Q 29.546875 41.5 34.03125 44.421875 
Q 38.53125 47.359375 38.53125 53.46875 
Q 38.53125 58.296875 35.25 61.46875 
Q 31.984375 64.65625 26.8125 64.65625 
Q 21.6875 64.65625 18.265625 61.421875 
Q 14.84375 58.203125 13.875 51.765625 
L 5.078125 53.328125 
Q 6.6875 62.15625 12.390625 67.015625 
Q 18.109375 71.875 26.609375 71.875 
Q 32.46875 71.875 37.390625 69.359375 
Q 42.328125 66.84375 44.9375 62.5 
Q 47.5625 58.15625 47.5625 53.265625 
Q 47.5625 48.640625 45.0625 44.828125 
Q 42.578125 41.015625 37.703125 38.765625 
Q 44.046875 37.3125 47.5625 32.6875 
Q 51.078125 28.078125 51.078125 21.140625 
Q 51.078125 11.765625 44.234375 5.25 
Q 37.40625 -1.265625 26.953125 -1.265625 
Q 17.53125 -1.265625 11.296875 4.34375 
Q 5.078125 9.96875 4.203125 18.890625 
z
" id="ArialMT-51"/>
      </defs>
      <g style="fill:#262626;" transform="translate(227.560838 390.717812)scale(0.1 -0.1)">
       <use xlink:href="#ArialMT-51"/>
       <use x="55.615234" xlink:href="#ArialMT-48"/>
       <use x="111.230469" xlink:href="#ArialMT-48"/>
       <use x="166.845703" xlink:href="#ArialMT-48"/>
      </g>
     </g>
    </g>
    <g id="xtick_5">
     <g id="line2d_9">
      <path clip-path="url(#pcaea54f9af)" d="M 299.55544 376.56 
L 299.55544 50.4 
" style="fill:none;stroke:#ffffff;stroke-linecap:round;"/>
     </g>
     <g id="line2d_10"/>
     <g id="text_5">
      <!-- 4000 -->
      <defs>
       <path d="M 32.328125 0 
L 32.328125 17.140625 
L 1.265625 17.140625 
L 1.265625 25.203125 
L 33.9375 71.578125 
L 41.109375 71.578125 
L 41.109375 25.203125 
L 50.78125 25.203125 
L 50.78125 17.140625 
L 41.109375 17.140625 
L 41.109375 0 
z
M 32.328125 25.203125 
L 32.328125 57.46875 
L 9.90625 25.203125 
z
" id="ArialMT-52"/>
      </defs>
      <g style="fill:#262626;" transform="translate(288.433565 390.717812)scale(0.1 -0.1)">
       <use xlink:href="#ArialMT-52"/>
       <use x="55.615234" xlink:href="#ArialMT-48"/>
       <use x="111.230469" xlink:href="#ArialMT-48"/>
       <use x="166.845703" xlink:href="#ArialMT-48"/>
      </g>
     </g>
    </g>
    <g id="xtick_6">
     <g id="line2d_11">
      <path clip-path="url(#pcaea54f9af)" d="M 360.428168 376.56 
L 360.428168 50.4 
" style="fill:none;stroke:#ffffff;stroke-linecap:round;"/>
     </g>
     <g id="line2d_12"/>
     <g id="text_6">
      <!-- 5000 -->
      <defs>
       <path d="M 4.15625 18.75 
L 13.375 19.53125 
Q 14.40625 12.796875 18.140625 9.390625 
Q 21.875 6 27.15625 6 
Q 33.5 6 37.890625 10.78125 
Q 42.28125 15.578125 42.28125 23.484375 
Q 42.28125 31 38.0625 35.34375 
Q 33.84375 39.703125 27 39.703125 
Q 22.75 39.703125 19.328125 37.765625 
Q 15.921875 35.84375 13.96875 32.765625 
L 5.71875 33.84375 
L 12.640625 70.609375 
L 48.25 70.609375 
L 48.25 62.203125 
L 19.671875 62.203125 
L 15.828125 42.96875 
Q 22.265625 47.46875 29.34375 47.46875 
Q 38.71875 47.46875 45.15625 40.96875 
Q 51.609375 34.46875 51.609375 24.265625 
Q 51.609375 14.546875 45.953125 7.46875 
Q 39.0625 -1.21875 27.15625 -1.21875 
Q 17.390625 -1.21875 11.203125 4.25 
Q 5.03125 9.71875 4.15625 18.75 
z
" id="ArialMT-53"/>
      </defs>
      <g style="fill:#262626;" transform="translate(349.306293 390.717812)scale(0.1 -0.1)">
       <use xlink:href="#ArialMT-53"/>
       <use x="55.615234" xlink:href="#ArialMT-48"/>
       <use x="111.230469" xlink:href="#ArialMT-48"/>
       <use x="166.845703" xlink:href="#ArialMT-48"/>
      </g>
     </g>
    </g>
    <g id="text_7">
     <!-- $t$ -->
     <defs>
      <path d="M 42.28125 54.6875 
L 40.921875 47.703125 
L 23 47.703125 
L 17.1875 18.015625 
Q 16.890625 16.359375 16.75 15.234375 
Q 16.609375 14.109375 16.609375 13.484375 
Q 16.609375 10.359375 18.484375 8.9375 
Q 20.359375 7.515625 24.515625 7.515625 
L 33.59375 7.515625 
L 32.078125 0 
L 23.484375 0 
Q 15.484375 0 11.546875 3.125 
Q 7.625 6.25 7.625 12.59375 
Q 7.625 13.71875 7.765625 15.0625 
Q 7.90625 16.40625 8.203125 18.015625 
L 14.015625 47.703125 
L 6.390625 47.703125 
L 7.8125 54.6875 
L 15.28125 54.6875 
L 18.3125 70.21875 
L 27.296875 70.21875 
L 24.3125 54.6875 
z
" id="DejaVuSans-Oblique-116"/>
     </defs>
     <g style="fill:#262626;" transform="translate(206.046349 404.578906)scale(0.11 -0.11)">
      <use transform="translate(0 0.78125)" xlink:href="#DejaVuSans-Oblique-116"/>
     </g>
    </g>
   </g>
   <g id="matplotlib.axis_2">
    <g id="ytick_1">
     <g id="line2d_13">
      <path clip-path="url(#pcaea54f9af)" d="M 56.064531 376.56 
L 360.428168 376.56 
" style="fill:none;stroke:#ffffff;stroke-linecap:round;"/>
     </g>
     <g id="line2d_14"/>
     <g id="text_8">
      <!-- 0 -->
      <g style="fill:#262626;" transform="translate(43.503594 380.138906)scale(0.1 -0.1)">
       <use xlink:href="#ArialMT-48"/>
      </g>
     </g>
    </g>
    <g id="ytick_2">
     <g id="line2d_15">
      <path clip-path="url(#pcaea54f9af)" d="M 56.064531 311.328 
L 360.428168 311.328 
" style="fill:none;stroke:#ffffff;stroke-linecap:round;"/>
     </g>
     <g id="line2d_16"/>
     <g id="text_9">
      <!-- 2000 -->
      <g style="fill:#262626;" transform="translate(26.820781 314.906906)scale(0.1 -0.1)">
       <use xlink:href="#ArialMT-50"/>
       <use x="55.615234" xlink:href="#ArialMT-48"/>
       <use x="111.230469" xlink:href="#ArialMT-48"/>
       <use x="166.845703" xlink:href="#ArialMT-48"/>
      </g>
     </g>
    </g>
    <g id="ytick_3">
     <g id="line2d_17">
      <path clip-path="url(#pcaea54f9af)" d="M 56.064531 246.096 
L 360.428168 246.096 
" style="fill:none;stroke:#ffffff;stroke-linecap:round;"/>
     </g>
     <g id="line2d_18"/>
     <g id="text_10">
      <!-- 4000 -->
      <g style="fill:#262626;" transform="translate(26.820781 249.674906)scale(0.1 -0.1)">
       <use xlink:href="#ArialMT-52"/>
       <use x="55.615234" xlink:href="#ArialMT-48"/>
       <use x="111.230469" xlink:href="#ArialMT-48"/>
       <use x="166.845703" xlink:href="#ArialMT-48"/>
      </g>
     </g>
    </g>
    <g id="ytick_4">
     <g id="line2d_19">
      <path clip-path="url(#pcaea54f9af)" d="M 56.064531 180.864 
L 360.428168 180.864 
" style="fill:none;stroke:#ffffff;stroke-linecap:round;"/>
     </g>
     <g id="line2d_20"/>
     <g id="text_11">
      <!-- 6000 -->
      <defs>
       <path d="M 49.75 54.046875 
L 41.015625 53.375 
Q 39.84375 58.546875 37.703125 60.890625 
Q 34.125 64.65625 28.90625 64.65625 
Q 24.703125 64.65625 21.53125 62.3125 
Q 17.390625 59.28125 14.984375 53.46875 
Q 12.59375 47.65625 12.5 36.921875 
Q 15.671875 41.75 20.265625 44.09375 
Q 24.859375 46.4375 29.890625 46.4375 
Q 38.671875 46.4375 44.84375 39.96875 
Q 51.03125 33.5 51.03125 23.25 
Q 51.03125 16.5 48.125 10.71875 
Q 45.21875 4.9375 40.140625 1.859375 
Q 35.0625 -1.21875 28.609375 -1.21875 
Q 17.625 -1.21875 10.6875 6.859375 
Q 3.765625 14.9375 3.765625 33.5 
Q 3.765625 54.25 11.421875 63.671875 
Q 18.109375 71.875 29.4375 71.875 
Q 37.890625 71.875 43.28125 67.140625 
Q 48.6875 62.40625 49.75 54.046875 
z
M 13.875 23.1875 
Q 13.875 18.65625 15.796875 14.5 
Q 17.71875 10.359375 21.1875 8.171875 
Q 24.65625 6 28.46875 6 
Q 34.03125 6 38.03125 10.484375 
Q 42.046875 14.984375 42.046875 22.703125 
Q 42.046875 30.125 38.078125 34.390625 
Q 34.125 38.671875 28.125 38.671875 
Q 22.171875 38.671875 18.015625 34.390625 
Q 13.875 30.125 13.875 23.1875 
z
" id="ArialMT-54"/>
      </defs>
      <g style="fill:#262626;" transform="translate(26.820781 184.442906)scale(0.1 -0.1)">
       <use xlink:href="#ArialMT-54"/>
       <use x="55.615234" xlink:href="#ArialMT-48"/>
       <use x="111.230469" xlink:href="#ArialMT-48"/>
       <use x="166.845703" xlink:href="#ArialMT-48"/>
      </g>
     </g>
    </g>
    <g id="ytick_5">
     <g id="line2d_21">
      <path clip-path="url(#pcaea54f9af)" d="M 56.064531 115.632 
L 360.428168 115.632 
" style="fill:none;stroke:#ffffff;stroke-linecap:round;"/>
     </g>
     <g id="line2d_22"/>
     <g id="text_12">
      <!-- 8000 -->
      <defs>
       <path d="M 17.671875 38.8125 
Q 12.203125 40.828125 9.5625 44.53125 
Q 6.9375 48.25 6.9375 53.421875 
Q 6.9375 61.234375 12.546875 66.546875 
Q 18.171875 71.875 27.484375 71.875 
Q 36.859375 71.875 42.578125 66.421875 
Q 48.296875 60.984375 48.296875 53.171875 
Q 48.296875 48.1875 45.671875 44.5 
Q 43.0625 40.828125 37.75 38.8125 
Q 44.34375 36.671875 47.78125 31.875 
Q 51.21875 27.09375 51.21875 20.453125 
Q 51.21875 11.28125 44.71875 5.03125 
Q 38.234375 -1.21875 27.640625 -1.21875 
Q 17.046875 -1.21875 10.546875 5.046875 
Q 4.046875 11.328125 4.046875 20.703125 
Q 4.046875 27.6875 7.59375 32.390625 
Q 11.140625 37.109375 17.671875 38.8125 
z
M 15.921875 53.71875 
Q 15.921875 48.640625 19.1875 45.40625 
Q 22.46875 42.1875 27.6875 42.1875 
Q 32.765625 42.1875 36.015625 45.375 
Q 39.265625 48.578125 39.265625 53.21875 
Q 39.265625 58.0625 35.90625 61.359375 
Q 32.5625 64.65625 27.59375 64.65625 
Q 22.5625 64.65625 19.234375 61.421875 
Q 15.921875 58.203125 15.921875 53.71875 
z
M 13.09375 20.65625 
Q 13.09375 16.890625 14.875 13.375 
Q 16.65625 9.859375 20.171875 7.921875 
Q 23.6875 6 27.734375 6 
Q 34.03125 6 38.125 10.046875 
Q 42.234375 14.109375 42.234375 20.359375 
Q 42.234375 26.703125 38.015625 30.859375 
Q 33.796875 35.015625 27.4375 35.015625 
Q 21.234375 35.015625 17.15625 30.90625 
Q 13.09375 26.8125 13.09375 20.65625 
z
" id="ArialMT-56"/>
      </defs>
      <g style="fill:#262626;" transform="translate(26.820781 119.210906)scale(0.1 -0.1)">
       <use xlink:href="#ArialMT-56"/>
       <use x="55.615234" xlink:href="#ArialMT-48"/>
       <use x="111.230469" xlink:href="#ArialMT-48"/>
       <use x="166.845703" xlink:href="#ArialMT-48"/>
      </g>
     </g>
    </g>
    <g id="ytick_6">
     <g id="line2d_23">
      <path clip-path="url(#pcaea54f9af)" d="M 56.064531 50.4 
L 360.428168 50.4 
" style="fill:none;stroke:#ffffff;stroke-linecap:round;"/>
     </g>
     <g id="line2d_24"/>
     <g id="text_13">
      <!-- 10000 -->
      <g style="fill:#262626;" transform="translate(21.259844 53.978906)scale(0.1 -0.1)">
       <use xlink:href="#ArialMT-49"/>
       <use x="55.615234" xlink:href="#ArialMT-48"/>
       <use x="111.230469" xlink:href="#ArialMT-48"/>
       <use x="166.845703" xlink:href="#ArialMT-48"/>
       <use x="222.460938" xlink:href="#ArialMT-48"/>
      </g>
     </g>
    </g>
    <g id="text_14">
     <!-- population that is... -->
     <defs>
      <path d="M 6.59375 -19.875 
L 6.59375 51.859375 
L 14.59375 51.859375 
L 14.59375 45.125 
Q 17.4375 49.078125 21 51.046875 
Q 24.5625 53.03125 29.640625 53.03125 
Q 36.28125 53.03125 41.359375 49.609375 
Q 46.4375 46.1875 49.015625 39.953125 
Q 51.609375 33.734375 51.609375 26.3125 
Q 51.609375 18.359375 48.75 11.984375 
Q 45.90625 5.609375 40.453125 2.21875 
Q 35.015625 -1.171875 29 -1.171875 
Q 24.609375 -1.171875 21.109375 0.6875 
Q 17.625 2.546875 15.375 5.375 
L 15.375 -19.875 
z
M 14.546875 25.640625 
Q 14.546875 15.625 18.59375 10.84375 
Q 22.65625 6.0625 28.421875 6.0625 
Q 34.28125 6.0625 38.453125 11.015625 
Q 42.625 15.96875 42.625 26.375 
Q 42.625 36.28125 38.546875 41.203125 
Q 34.46875 46.140625 28.8125 46.140625 
Q 23.1875 46.140625 18.859375 40.890625 
Q 14.546875 35.640625 14.546875 25.640625 
z
" id="ArialMT-112"/>
      <path d="M 3.328125 25.921875 
Q 3.328125 40.328125 11.328125 47.265625 
Q 18.015625 53.03125 27.640625 53.03125 
Q 38.328125 53.03125 45.109375 46.015625 
Q 51.90625 39.015625 51.90625 26.65625 
Q 51.90625 16.65625 48.90625 10.90625 
Q 45.90625 5.171875 40.15625 2 
Q 34.421875 -1.171875 27.640625 -1.171875 
Q 16.75 -1.171875 10.03125 5.8125 
Q 3.328125 12.796875 3.328125 25.921875 
z
M 12.359375 25.921875 
Q 12.359375 15.96875 16.703125 11.015625 
Q 21.046875 6.0625 27.640625 6.0625 
Q 34.1875 6.0625 38.53125 11.03125 
Q 42.875 16.015625 42.875 26.21875 
Q 42.875 35.84375 38.5 40.796875 
Q 34.125 45.75 27.640625 45.75 
Q 21.046875 45.75 16.703125 40.8125 
Q 12.359375 35.890625 12.359375 25.921875 
z
" id="ArialMT-111"/>
      <path d="M 40.578125 0 
L 40.578125 7.625 
Q 34.515625 -1.171875 24.125 -1.171875 
Q 19.53125 -1.171875 15.546875 0.578125 
Q 11.578125 2.34375 9.640625 5 
Q 7.71875 7.671875 6.9375 11.53125 
Q 6.390625 14.109375 6.390625 19.734375 
L 6.390625 51.859375 
L 15.1875 51.859375 
L 15.1875 23.09375 
Q 15.1875 16.21875 15.71875 13.8125 
Q 16.546875 10.359375 19.234375 8.375 
Q 21.921875 6.390625 25.875 6.390625 
Q 29.828125 6.390625 33.296875 8.421875 
Q 36.765625 10.453125 38.203125 13.9375 
Q 39.65625 17.4375 39.65625 24.078125 
L 39.65625 51.859375 
L 48.4375 51.859375 
L 48.4375 0 
z
" id="ArialMT-117"/>
      <path d="M 6.390625 0 
L 6.390625 71.578125 
L 15.1875 71.578125 
L 15.1875 0 
z
" id="ArialMT-108"/>
      <path d="M 40.4375 6.390625 
Q 35.546875 2.25 31.03125 0.53125 
Q 26.515625 -1.171875 21.34375 -1.171875 
Q 12.796875 -1.171875 8.203125 3 
Q 3.609375 7.171875 3.609375 13.671875 
Q 3.609375 17.484375 5.34375 20.625 
Q 7.078125 23.78125 9.890625 25.6875 
Q 12.703125 27.59375 16.21875 28.5625 
Q 18.796875 29.25 24.03125 29.890625 
Q 34.671875 31.15625 39.703125 32.90625 
Q 39.75 34.71875 39.75 35.203125 
Q 39.75 40.578125 37.25 42.78125 
Q 33.890625 45.75 27.25 45.75 
Q 21.046875 45.75 18.09375 43.578125 
Q 15.140625 41.40625 13.71875 35.890625 
L 5.125 37.0625 
Q 6.296875 42.578125 8.984375 45.96875 
Q 11.671875 49.359375 16.75 51.1875 
Q 21.828125 53.03125 28.515625 53.03125 
Q 35.15625 53.03125 39.296875 51.46875 
Q 43.453125 49.90625 45.40625 47.53125 
Q 47.359375 45.171875 48.140625 41.546875 
Q 48.578125 39.3125 48.578125 33.453125 
L 48.578125 21.734375 
Q 48.578125 9.46875 49.140625 6.21875 
Q 49.703125 2.984375 51.375 0 
L 42.1875 0 
Q 40.828125 2.734375 40.4375 6.390625 
z
M 39.703125 26.03125 
Q 34.90625 24.078125 25.34375 22.703125 
Q 19.921875 21.921875 17.671875 20.9375 
Q 15.4375 19.96875 14.203125 18.09375 
Q 12.984375 16.21875 12.984375 13.921875 
Q 12.984375 10.40625 15.640625 8.0625 
Q 18.3125 5.71875 23.4375 5.71875 
Q 28.515625 5.71875 32.46875 7.9375 
Q 36.421875 10.15625 38.28125 14.015625 
Q 39.703125 17 39.703125 22.796875 
z
" id="ArialMT-97"/>
      <path d="M 25.78125 7.859375 
L 27.046875 0.09375 
Q 23.34375 -0.6875 20.40625 -0.6875 
Q 15.625 -0.6875 12.984375 0.828125 
Q 10.359375 2.34375 9.28125 4.8125 
Q 8.203125 7.28125 8.203125 15.1875 
L 8.203125 45.015625 
L 1.765625 45.015625 
L 1.765625 51.859375 
L 8.203125 51.859375 
L 8.203125 64.703125 
L 16.9375 69.96875 
L 16.9375 51.859375 
L 25.78125 51.859375 
L 25.78125 45.015625 
L 16.9375 45.015625 
L 16.9375 14.703125 
Q 16.9375 10.9375 17.40625 9.859375 
Q 17.875 8.796875 18.921875 8.15625 
Q 19.96875 7.515625 21.921875 7.515625 
Q 23.390625 7.515625 25.78125 7.859375 
z
" id="ArialMT-116"/>
      <path d="M 6.640625 61.46875 
L 6.640625 71.578125 
L 15.4375 71.578125 
L 15.4375 61.46875 
z
M 6.640625 0 
L 6.640625 51.859375 
L 15.4375 51.859375 
L 15.4375 0 
z
" id="ArialMT-105"/>
      <path d="M 6.59375 0 
L 6.59375 51.859375 
L 14.5 51.859375 
L 14.5 44.484375 
Q 20.21875 53.03125 31 53.03125 
Q 35.6875 53.03125 39.625 51.34375 
Q 43.5625 49.65625 45.515625 46.921875 
Q 47.46875 44.1875 48.25 40.4375 
Q 48.734375 37.984375 48.734375 31.890625 
L 48.734375 0 
L 39.9375 0 
L 39.9375 31.546875 
Q 39.9375 36.921875 38.90625 39.578125 
Q 37.890625 42.234375 35.28125 43.8125 
Q 32.671875 45.40625 29.15625 45.40625 
Q 23.53125 45.40625 19.453125 41.84375 
Q 15.375 38.28125 15.375 28.328125 
L 15.375 0 
z
" id="ArialMT-110"/>
      <path id="ArialMT-32"/>
      <path d="M 6.59375 0 
L 6.59375 71.578125 
L 15.375 71.578125 
L 15.375 45.90625 
Q 21.53125 53.03125 30.90625 53.03125 
Q 36.671875 53.03125 40.921875 50.75 
Q 45.171875 48.484375 47 44.484375 
Q 48.828125 40.484375 48.828125 32.859375 
L 48.828125 0 
L 40.046875 0 
L 40.046875 32.859375 
Q 40.046875 39.453125 37.1875 42.453125 
Q 34.328125 45.453125 29.109375 45.453125 
Q 25.203125 45.453125 21.75 43.421875 
Q 18.3125 41.40625 16.84375 37.9375 
Q 15.375 34.46875 15.375 28.375 
L 15.375 0 
z
" id="ArialMT-104"/>
      <path d="M 3.078125 15.484375 
L 11.765625 16.84375 
Q 12.5 11.625 15.84375 8.84375 
Q 19.1875 6.0625 25.203125 6.0625 
Q 31.25 6.0625 34.171875 8.515625 
Q 37.109375 10.984375 37.109375 14.3125 
Q 37.109375 17.28125 34.515625 19 
Q 32.71875 20.171875 25.53125 21.96875 
Q 15.875 24.421875 12.140625 26.203125 
Q 8.40625 27.984375 6.46875 31.125 
Q 4.546875 34.28125 4.546875 38.09375 
Q 4.546875 41.546875 6.125 44.5 
Q 7.71875 47.46875 10.453125 49.421875 
Q 12.5 50.921875 16.03125 51.96875 
Q 19.578125 53.03125 23.640625 53.03125 
Q 29.734375 53.03125 34.34375 51.265625 
Q 38.96875 49.515625 41.15625 46.5 
Q 43.359375 43.5 44.1875 38.484375 
L 35.59375 37.3125 
Q 35.015625 41.3125 32.203125 43.546875 
Q 29.390625 45.796875 24.265625 45.796875 
Q 18.21875 45.796875 15.625 43.796875 
Q 13.03125 41.796875 13.03125 39.109375 
Q 13.03125 37.40625 14.109375 36.03125 
Q 15.1875 34.625 17.484375 33.6875 
Q 18.796875 33.203125 25.25 31.453125 
Q 34.578125 28.953125 38.25 27.359375 
Q 41.9375 25.78125 44.03125 22.75 
Q 46.140625 19.734375 46.140625 15.234375 
Q 46.140625 10.84375 43.578125 6.953125 
Q 41.015625 3.078125 36.171875 0.953125 
Q 31.34375 -1.171875 25.25 -1.171875 
Q 15.140625 -1.171875 9.84375 3.03125 
Q 4.546875 7.234375 3.078125 15.484375 
z
" id="ArialMT-115"/>
      <path d="M 9.078125 0 
L 9.078125 10.015625 
L 19.09375 10.015625 
L 19.09375 0 
z
" id="ArialMT-46"/>
     </defs>
     <g style="fill:#262626;" transform="translate(15.073594 259.646484)rotate(-90)scale(0.11 -0.11)">
      <use xlink:href="#ArialMT-112"/>
      <use x="55.615234" xlink:href="#ArialMT-111"/>
      <use x="111.230469" xlink:href="#ArialMT-112"/>
      <use x="166.845703" xlink:href="#ArialMT-117"/>
      <use x="222.460938" xlink:href="#ArialMT-108"/>
      <use x="244.677734" xlink:href="#ArialMT-97"/>
      <use x="300.292969" xlink:href="#ArialMT-116"/>
      <use x="328.076172" xlink:href="#ArialMT-105"/>
      <use x="350.292969" xlink:href="#ArialMT-111"/>
      <use x="405.908203" xlink:href="#ArialMT-110"/>
      <use x="461.523438" xlink:href="#ArialMT-32"/>
      <use x="489.306641" xlink:href="#ArialMT-116"/>
      <use x="517.089844" xlink:href="#ArialMT-104"/>
      <use x="572.705078" xlink:href="#ArialMT-97"/>
      <use x="628.320312" xlink:href="#ArialMT-116"/>
      <use x="656.103516" xlink:href="#ArialMT-32"/>
      <use x="683.886719" xlink:href="#ArialMT-105"/>
      <use x="706.103516" xlink:href="#ArialMT-115"/>
      <use x="756.103516" xlink:href="#ArialMT-46"/>
      <use x="783.886719" xlink:href="#ArialMT-46"/>
      <use x="811.669922" xlink:href="#ArialMT-46"/>
     </g>
    </g>
   </g>
   <g id="line2d_25">
    <defs>
     <path d="M 0 1.75 
C 0.464105 1.75 0.909265 1.565609 1.237437 1.237437 
C 1.565609 0.909265 1.75 0.464105 1.75 0 
C 1.75 -0.464105 1.565609 -0.909265 1.237437 -1.237437 
C 0.909265 -1.565609 0.464105 -1.75 0 -1.75 
C -0.464105 -1.75 -0.909265 -1.565609 -1.237437 -1.237437 
C -1.565609 -0.909265 -1.75 -0.464105 -1.75 0 
C -1.75 0.464105 -1.565609 0.909265 -1.237437 1.237437 
C -0.909265 1.565609 -0.464105 1.75 0 1.75 
z
" id="mc93765c97f"/>
    </defs>
    <g clip-path="url(#pcaea54f9af)">
     <use style="fill:#ff0000;" x="56.064531" xlink:href="#mc93765c97f" y="50.660928"/>
     <use style="fill:#ff0000;" x="62.151804" xlink:href="#mc93765c97f" y="50.693544"/>
     <use style="fill:#ff0000;" x="68.239077" xlink:href="#mc93765c97f" y="50.693544"/>
     <use style="fill:#ff0000;" x="74.326349" xlink:href="#mc93765c97f" y="50.824008"/>
     <use style="fill:#ff0000;" x="80.413622" xlink:href="#mc93765c97f" y="50.88924"/>
     <use style="fill:#ff0000;" x="86.500895" xlink:href="#mc93765c97f" y="51.117552"/>
     <use style="fill:#ff0000;" x="92.588168" xlink:href="#mc93765c97f" y="51.182784"/>
     <use style="fill:#ff0000;" x="98.67544" xlink:href="#mc93765c97f" y="51.280632"/>
     <use style="fill:#ff0000;" x="104.762713" xlink:href="#mc93765c97f" y="51.476328"/>
     <use style="fill:#ff0000;" x="110.849986" xlink:href="#mc93765c97f" y="51.835104"/>
     <use style="fill:#ff0000;" x="116.937259" xlink:href="#mc93765c97f" y="51.998184"/>
     <use style="fill:#ff0000;" x="123.024531" xlink:href="#mc93765c97f" y="52.389576"/>
     <use style="fill:#ff0000;" x="129.111804" xlink:href="#mc93765c97f" y="52.976664"/>
     <use style="fill:#ff0000;" x="135.199077" xlink:href="#mc93765c97f" y="53.596368"/>
     <use style="fill:#ff0000;" x="141.286349" xlink:href="#mc93765c97f" y="54.509616"/>
     <use style="fill:#ff0000;" x="147.373622" xlink:href="#mc93765c97f" y="55.259784"/>
     <use style="fill:#ff0000;" x="153.460895" xlink:href="#mc93765c97f" y="56.140416"/>
     <use style="fill:#ff0000;" x="159.548168" xlink:href="#mc93765c97f" y="57.445056"/>
     <use style="fill:#ff0000;" x="165.63544" xlink:href="#mc93765c97f" y="59.402016"/>
     <use style="fill:#ff0000;" x="171.722713" xlink:href="#mc93765c97f" y="61.48944"/>
     <use style="fill:#ff0000;" x="177.809986" xlink:href="#mc93765c97f" y="63.739944"/>
     <use style="fill:#ff0000;" x="183.897259" xlink:href="#mc93765c97f" y="67.03416"/>
     <use style="fill:#ff0000;" x="189.984531" xlink:href="#mc93765c97f" y="70.393608"/>
     <use style="fill:#ff0000;" x="196.071804" xlink:href="#mc93765c97f" y="73.753056"/>
     <use style="fill:#ff0000;" x="202.159077" xlink:href="#mc93765c97f" y="77.63436"/>
     <use style="fill:#ff0000;" x="208.246349" xlink:href="#mc93765c97f" y="82.950768"/>
     <use style="fill:#ff0000;" x="214.333622" xlink:href="#mc93765c97f" y="89.04996"/>
     <use style="fill:#ff0000;" x="220.420895" xlink:href="#mc93765c97f" y="96.258096"/>
     <use style="fill:#ff0000;" x="226.508168" xlink:href="#mc93765c97f" y="103.596696"/>
     <use style="fill:#ff0000;" x="232.59544" xlink:href="#mc93765c97f" y="112.794408"/>
     <use style="fill:#ff0000;" x="238.682713" xlink:href="#mc93765c97f" y="120.915792"/>
     <use style="fill:#ff0000;" x="244.769986" xlink:href="#mc93765c97f" y="131.059368"/>
     <use style="fill:#ff0000;" x="250.857259" xlink:href="#mc93765c97f" y="142.898976"/>
     <use style="fill:#ff0000;" x="256.944531" xlink:href="#mc93765c97f" y="155.782296"/>
     <use style="fill:#ff0000;" x="263.031804" xlink:href="#mc93765c97f" y="169.513632"/>
     <use style="fill:#ff0000;" x="269.119077" xlink:href="#mc93765c97f" y="183.212352"/>
     <use style="fill:#ff0000;" x="275.206349" xlink:href="#mc93765c97f" y="197.922168"/>
     <use style="fill:#ff0000;" x="281.293622" xlink:href="#mc93765c97f" y="212.534136"/>
     <use style="fill:#ff0000;" x="287.380895" xlink:href="#mc93765c97f" y="227.570112"/>
     <use style="fill:#ff0000;" x="293.468168" xlink:href="#mc93765c97f" y="242.214696"/>
     <use style="fill:#ff0000;" x="299.55544" xlink:href="#mc93765c97f" y="256.663584"/>
     <use style="fill:#ff0000;" x="305.642713" xlink:href="#mc93765c97f" y="270.199224"/>
     <use style="fill:#ff0000;" x="311.729986" xlink:href="#mc93765c97f" y="284.25672"/>
     <use style="fill:#ff0000;" x="317.817259" xlink:href="#mc93765c97f" y="295.770168"/>
     <use style="fill:#ff0000;" x="323.904531" xlink:href="#mc93765c97f" y="305.489736"/>
     <use style="fill:#ff0000;" x="329.991804" xlink:href="#mc93765c97f" y="315.144072"/>
     <use style="fill:#ff0000;" x="336.079077" xlink:href="#mc93765c97f" y="324.113472"/>
     <use style="fill:#ff0000;" x="342.166349" xlink:href="#mc93765c97f" y="331.419456"/>
     <use style="fill:#ff0000;" x="348.253622" xlink:href="#mc93765c97f" y="338.529744"/>
     <use style="fill:#ff0000;" x="354.340895" xlink:href="#mc93765c97f" y="344.857248"/>
     <use style="fill:#ff0000;" x="360.428168" xlink:href="#mc93765c97f" y="350.532432"/>
    </g>
   </g>
   <g id="line2d_26">
    <defs>
     <path d="M 0 1.75 
C 0.464105 1.75 0.909265 1.565609 1.237437 1.237437 
C 1.565609 0.909265 1.75 0.464105 1.75 0 
C 1.75 -0.464105 1.565609 -0.909265 1.237437 -1.237437 
C 0.909265 -1.565609 0.464105 -1.75 0 -1.75 
C -0.464105 -1.75 -0.909265 -1.565609 -1.237437 -1.237437 
C -1.565609 -0.909265 -1.75 -0.464105 -1.75 0 
C -1.75 0.464105 -1.565609 0.909265 -1.237437 1.237437 
C -0.909265 1.565609 -0.464105 1.75 0 1.75 
z
" id="me5365c4a8f"/>
    </defs>
    <g clip-path="url(#pcaea54f9af)">
     <use style="fill:#0000ff;" x="56.064531" xlink:href="#me5365c4a8f" y="376.299072"/>
     <use style="fill:#0000ff;" x="62.151804" xlink:href="#me5365c4a8f" y="376.266456"/>
     <use style="fill:#0000ff;" x="68.239077" xlink:href="#me5365c4a8f" y="376.299072"/>
     <use style="fill:#0000ff;" x="74.326349" xlink:href="#me5365c4a8f" y="376.201224"/>
     <use style="fill:#0000ff;" x="80.413622" xlink:href="#me5365c4a8f" y="376.201224"/>
     <use style="fill:#0000ff;" x="86.500895" xlink:href="#me5365c4a8f" y="376.038144"/>
     <use style="fill:#0000ff;" x="92.588168" xlink:href="#me5365c4a8f" y="376.07076"/>
     <use style="fill:#0000ff;" x="98.67544" xlink:href="#me5365c4a8f" y="376.103376"/>
     <use style="fill:#0000ff;" x="104.762713" xlink:href="#me5365c4a8f" y="376.038144"/>
     <use style="fill:#0000ff;" x="110.849986" xlink:href="#me5365c4a8f" y="375.777216"/>
     <use style="fill:#0000ff;" x="116.937259" xlink:href="#me5365c4a8f" y="375.7446"/>
     <use style="fill:#0000ff;" x="123.024531" xlink:href="#me5365c4a8f" y="375.451056"/>
     <use style="fill:#0000ff;" x="129.111804" xlink:href="#me5365c4a8f" y="375.027048"/>
     <use style="fill:#0000ff;" x="135.199077" xlink:href="#me5365c4a8f" y="374.733504"/>
     <use style="fill:#0000ff;" x="141.286349" xlink:href="#me5365c4a8f" y="374.146416"/>
     <use style="fill:#0000ff;" x="147.373622" xlink:href="#me5365c4a8f" y="373.820256"/>
     <use style="fill:#0000ff;" x="153.460895" xlink:href="#me5365c4a8f" y="373.689792"/>
     <use style="fill:#0000ff;" x="159.548168" xlink:href="#me5365c4a8f" y="372.97224"/>
     <use style="fill:#0000ff;" x="165.63544" xlink:href="#me5365c4a8f" y="371.732832"/>
     <use style="fill:#0000ff;" x="171.722713" xlink:href="#me5365c4a8f" y="370.819584"/>
     <use style="fill:#0000ff;" x="177.809986" xlink:href="#me5365c4a8f" y="369.645408"/>
     <use style="fill:#0000ff;" x="183.897259" xlink:href="#me5365c4a8f" y="367.655832"/>
     <use style="fill:#0000ff;" x="189.984531" xlink:href="#me5365c4a8f" y="365.764104"/>
     <use style="fill:#0000ff;" x="196.071804" xlink:href="#me5365c4a8f" y="364.948704"/>
     <use style="fill:#0000ff;" x="202.159077" xlink:href="#me5365c4a8f" y="363.937608"/>
     <use style="fill:#0000ff;" x="208.246349" xlink:href="#me5365c4a8f" y="361.491408"/>
     <use style="fill:#0000ff;" x="214.333622" xlink:href="#me5365c4a8f" y="358.653816"/>
     <use style="fill:#0000ff;" x="220.420895" xlink:href="#me5365c4a8f" y="355.457448"/>
     <use style="fill:#0000ff;" x="226.508168" xlink:href="#me5365c4a8f" y="352.130616"/>
     <use style="fill:#0000ff;" x="232.59544" xlink:href="#me5365c4a8f" y="347.596992"/>
     <use style="fill:#0000ff;" x="238.682713" xlink:href="#me5365c4a8f" y="345.183408"/>
     <use style="fill:#0000ff;" x="244.769986" xlink:href="#me5365c4a8f" y="342.280584"/>
     <use style="fill:#0000ff;" x="250.857259" xlink:href="#me5365c4a8f" y="338.301432"/>
     <use style="fill:#0000ff;" x="256.944531" xlink:href="#me5365c4a8f" y="332.919792"/>
     <use style="fill:#0000ff;" x="263.031804" xlink:href="#me5365c4a8f" y="327.47292"/>
     <use style="fill:#0000ff;" x="269.119077" xlink:href="#me5365c4a8f" y="323.591616"/>
     <use style="fill:#0000ff;" x="275.206349" xlink:href="#me5365c4a8f" y="319.31892"/>
     <use style="fill:#0000ff;" x="281.293622" xlink:href="#me5365c4a8f" y="316.905336"/>
     <use style="fill:#0000ff;" x="287.380895" xlink:href="#me5365c4a8f" y="313.44804"/>
     <use style="fill:#0000ff;" x="293.468168" xlink:href="#me5365c4a8f" y="311.915088"/>
     <use style="fill:#0000ff;" x="299.55544" xlink:href="#me5365c4a8f" y="310.67568"/>
     <use style="fill:#0000ff;" x="305.642713" xlink:href="#me5365c4a8f" y="310.577832"/>
     <use style="fill:#0000ff;" x="311.729986" xlink:href="#me5365c4a8f" y="309.110112"/>
     <use style="fill:#0000ff;" x="317.817259" xlink:href="#me5365c4a8f" y="309.925512"/>
     <use style="fill:#0000ff;" x="323.904531" xlink:href="#me5365c4a8f" y="313.545888"/>
     <use style="fill:#0000ff;" x="329.991804" xlink:href="#me5365c4a8f" y="315.633312"/>
     <use style="fill:#0000ff;" x="336.079077" xlink:href="#me5365c4a8f" y="318.373056"/>
     <use style="fill:#0000ff;" x="342.166349" xlink:href="#me5365c4a8f" y="322.515288"/>
     <use style="fill:#0000ff;" x="348.253622" xlink:href="#me5365c4a8f" y="325.483344"/>
     <use style="fill:#0000ff;" x="354.340895" xlink:href="#me5365c4a8f" y="328.908024"/>
     <use style="fill:#0000ff;" x="360.428168" xlink:href="#me5365c4a8f" y="332.234856"/>
    </g>
   </g>
   <g id="line2d_27">
    <defs>
     <path d="M 0 1.75 
C 0.464105 1.75 0.909265 1.565609 1.237437 1.237437 
C 1.565609 0.909265 1.75 0.464105 1.75 0 
C 1.75 -0.464105 1.565609 -0.909265 1.237437 -1.237437 
C 0.909265 -1.565609 0.464105 -1.75 0 -1.75 
C -0.464105 -1.75 -0.909265 -1.565609 -1.237437 -1.237437 
C -1.565609 -0.909265 -1.75 -0.464105 -1.75 0 
C -1.75 0.464105 -1.565609 0.909265 -1.237437 1.237437 
C -0.909265 1.565609 -0.464105 1.75 0 1.75 
z
" id="m41a3be5ee9"/>
    </defs>
    <g clip-path="url(#pcaea54f9af)">
     <use style="fill:#008000;" x="56.064531" xlink:href="#m41a3be5ee9" y="376.56"/>
     <use style="fill:#008000;" x="62.151804" xlink:href="#m41a3be5ee9" y="376.56"/>
     <use style="fill:#008000;" x="68.239077" xlink:href="#m41a3be5ee9" y="376.527384"/>
     <use style="fill:#008000;" x="74.326349" xlink:href="#m41a3be5ee9" y="376.527384"/>
     <use style="fill:#008000;" x="80.413622" xlink:href="#m41a3be5ee9" y="376.494768"/>
     <use style="fill:#008000;" x="86.500895" xlink:href="#m41a3be5ee9" y="376.429536"/>
     <use style="fill:#008000;" x="92.588168" xlink:href="#m41a3be5ee9" y="376.331688"/>
     <use style="fill:#008000;" x="98.67544" xlink:href="#m41a3be5ee9" y="376.23384"/>
     <use style="fill:#008000;" x="104.762713" xlink:href="#m41a3be5ee9" y="376.103376"/>
     <use style="fill:#008000;" x="110.849986" xlink:href="#m41a3be5ee9" y="376.135992"/>
     <use style="fill:#008000;" x="116.937259" xlink:href="#m41a3be5ee9" y="376.103376"/>
     <use style="fill:#008000;" x="123.024531" xlink:href="#m41a3be5ee9" y="376.005528"/>
     <use style="fill:#008000;" x="129.111804" xlink:href="#m41a3be5ee9" y="376.038144"/>
     <use style="fill:#008000;" x="135.199077" xlink:href="#m41a3be5ee9" y="375.842448"/>
     <use style="fill:#008000;" x="141.286349" xlink:href="#m41a3be5ee9" y="375.679368"/>
     <use style="fill:#008000;" x="147.373622" xlink:href="#m41a3be5ee9" y="375.614136"/>
     <use style="fill:#008000;" x="153.460895" xlink:href="#m41a3be5ee9" y="375.059664"/>
     <use style="fill:#008000;" x="159.548168" xlink:href="#m41a3be5ee9" y="374.635656"/>
     <use style="fill:#008000;" x="165.63544" xlink:href="#m41a3be5ee9" y="374.407344"/>
     <use style="fill:#008000;" x="171.722713" xlink:href="#m41a3be5ee9" y="373.494096"/>
     <use style="fill:#008000;" x="177.809986" xlink:href="#m41a3be5ee9" y="373.004856"/>
     <use style="fill:#008000;" x="183.897259" xlink:href="#m41a3be5ee9" y="372.515616"/>
     <use style="fill:#008000;" x="189.984531" xlink:href="#m41a3be5ee9" y="371.895912"/>
     <use style="fill:#008000;" x="196.071804" xlink:href="#m41a3be5ee9" y="370.656504"/>
     <use style="fill:#008000;" x="202.159077" xlink:href="#m41a3be5ee9" y="369.54756"/>
     <use style="fill:#008000;" x="208.246349" xlink:href="#m41a3be5ee9" y="368.308152"/>
     <use style="fill:#008000;" x="214.333622" xlink:href="#m41a3be5ee9" y="367.068744"/>
     <use style="fill:#008000;" x="220.420895" xlink:href="#m41a3be5ee9" y="365.046552"/>
     <use style="fill:#008000;" x="226.508168" xlink:href="#m41a3be5ee9" y="363.448368"/>
     <use style="fill:#008000;" x="232.59544" xlink:href="#m41a3be5ee9" y="361.491408"/>
     <use style="fill:#008000;" x="238.682713" xlink:href="#m41a3be5ee9" y="359.730144"/>
     <use style="fill:#008000;" x="244.769986" xlink:href="#m41a3be5ee9" y="356.142384"/>
     <use style="fill:#008000;" x="250.857259" xlink:href="#m41a3be5ee9" y="352.9134"/>
     <use style="fill:#008000;" x="256.944531" xlink:href="#m41a3be5ee9" y="350.63028"/>
     <use style="fill:#008000;" x="263.031804" xlink:href="#m41a3be5ee9" y="348.249312"/>
     <use style="fill:#008000;" x="269.119077" xlink:href="#m41a3be5ee9" y="344.172312"/>
     <use style="fill:#008000;" x="275.206349" xlink:href="#m41a3be5ee9" y="340.780248"/>
     <use style="fill:#008000;" x="281.293622" xlink:href="#m41a3be5ee9" y="337.062024"/>
     <use style="fill:#008000;" x="287.380895" xlink:href="#m41a3be5ee9" y="333.637344"/>
     <use style="fill:#008000;" x="293.468168" xlink:href="#m41a3be5ee9" y="330.375744"/>
     <use style="fill:#008000;" x="299.55544" xlink:href="#m41a3be5ee9" y="327.277224"/>
     <use style="fill:#008000;" x="305.642713" xlink:href="#m41a3be5ee9" y="324.733176"/>
     <use style="fill:#008000;" x="311.729986" xlink:href="#m41a3be5ee9" y="323.102376"/>
     <use style="fill:#008000;" x="317.817259" xlink:href="#m41a3be5ee9" y="321.569424"/>
     <use style="fill:#008000;" x="323.904531" xlink:href="#m41a3be5ee9" y="319.15584"/>
     <use style="fill:#008000;" x="329.991804" xlink:href="#m41a3be5ee9" y="320.101704"/>
     <use style="fill:#008000;" x="336.079077" xlink:href="#m41a3be5ee9" y="320.199552"/>
     <use style="fill:#008000;" x="342.166349" xlink:href="#m41a3be5ee9" y="319.938624"/>
     <use style="fill:#008000;" x="348.253622" xlink:href="#m41a3be5ee9" y="321.43896"/>
     <use style="fill:#008000;" x="354.340895" xlink:href="#m41a3be5ee9" y="322.286976"/>
     <use style="fill:#008000;" x="360.428168" xlink:href="#m41a3be5ee9" y="323.656848"/>
    </g>
   </g>
   <g id="patch_3">
    <path d="M 56.064531 376.56 
L 56.064531 50.4 
" style="fill:none;"/>
   </g>
   <g id="patch_4">
    <path d="M 360.428168 376.56 
L 360.428168 50.4 
" style="fill:none;"/>
   </g>
   <g id="patch_5">
    <path d="M 56.064531 376.56 
L 360.428168 376.56 
" style="fill:none;"/>
   </g>
   <g id="patch_6">
    <path d="M 56.064531 50.4 
L 360.428168 50.4 
" style="fill:none;"/>
   </g>
   <g id="text_15">
    <!-- No detection ($p_{detect} = 0.0$) -->
    <defs>
     <path d="M 7.625 0 
L 7.625 71.578125 
L 17.328125 71.578125 
L 54.9375 15.375 
L 54.9375 71.578125 
L 64.015625 71.578125 
L 64.015625 0 
L 54.296875 0 
L 16.703125 56.25 
L 16.703125 0 
z
" id="ArialMT-78"/>
     <path d="M 40.234375 0 
L 40.234375 6.546875 
Q 35.296875 -1.171875 25.734375 -1.171875 
Q 19.53125 -1.171875 14.328125 2.25 
Q 9.125 5.671875 6.265625 11.796875 
Q 3.421875 17.921875 3.421875 25.875 
Q 3.421875 33.640625 6 39.96875 
Q 8.59375 46.296875 13.765625 49.65625 
Q 18.953125 53.03125 25.34375 53.03125 
Q 30.03125 53.03125 33.6875 51.046875 
Q 37.359375 49.078125 39.65625 45.90625 
L 39.65625 71.578125 
L 48.390625 71.578125 
L 48.390625 0 
z
M 12.453125 25.875 
Q 12.453125 15.921875 16.640625 10.984375 
Q 20.84375 6.0625 26.5625 6.0625 
Q 32.328125 6.0625 36.34375 10.765625 
Q 40.375 15.484375 40.375 25.140625 
Q 40.375 35.796875 36.265625 40.765625 
Q 32.171875 45.75 26.171875 45.75 
Q 20.3125 45.75 16.375 40.96875 
Q 12.453125 36.1875 12.453125 25.875 
z
" id="ArialMT-100"/>
     <path d="M 42.09375 16.703125 
L 51.171875 15.578125 
Q 49.03125 7.625 43.21875 3.21875 
Q 37.40625 -1.171875 28.375 -1.171875 
Q 17 -1.171875 10.328125 5.828125 
Q 3.65625 12.84375 3.65625 25.484375 
Q 3.65625 38.578125 10.390625 45.796875 
Q 17.140625 53.03125 27.875 53.03125 
Q 38.28125 53.03125 44.875 45.953125 
Q 51.46875 38.875 51.46875 26.03125 
Q 51.46875 25.25 51.421875 23.6875 
L 12.75 23.6875 
Q 13.234375 15.140625 17.578125 10.59375 
Q 21.921875 6.0625 28.421875 6.0625 
Q 33.25 6.0625 36.671875 8.59375 
Q 40.09375 11.140625 42.09375 16.703125 
z
M 13.234375 30.90625 
L 42.1875 30.90625 
Q 41.609375 37.453125 38.875 40.71875 
Q 34.671875 45.796875 27.984375 45.796875 
Q 21.921875 45.796875 17.796875 41.75 
Q 13.671875 37.703125 13.234375 30.90625 
z
" id="ArialMT-101"/>
     <path d="M 40.4375 19 
L 49.078125 17.875 
Q 47.65625 8.9375 41.8125 3.875 
Q 35.984375 -1.171875 27.484375 -1.171875 
Q 16.84375 -1.171875 10.375 5.78125 
Q 3.90625 12.75 3.90625 25.734375 
Q 3.90625 34.125 6.6875 40.421875 
Q 9.46875 46.734375 15.15625 49.875 
Q 20.84375 53.03125 27.546875 53.03125 
Q 35.984375 53.03125 41.359375 48.75 
Q 46.734375 44.484375 48.25 36.625 
L 39.703125 35.296875 
Q 38.484375 40.53125 35.375 43.15625 
Q 32.28125 45.796875 27.875 45.796875 
Q 21.234375 45.796875 17.078125 41.03125 
Q 12.9375 36.28125 12.9375 25.984375 
Q 12.9375 15.53125 16.9375 10.796875 
Q 20.953125 6.0625 27.390625 6.0625 
Q 32.5625 6.0625 36.03125 9.234375 
Q 39.5 12.40625 40.4375 19 
z
" id="ArialMT-99"/>
     <path d="M 23.390625 -21.046875 
Q 16.109375 -11.859375 11.078125 0.4375 
Q 6.0625 12.75 6.0625 25.921875 
Q 6.0625 37.546875 9.8125 48.1875 
Q 14.203125 60.546875 23.390625 72.796875 
L 29.6875 72.796875 
Q 23.78125 62.640625 21.875 58.296875 
Q 18.890625 51.5625 17.1875 44.234375 
Q 15.09375 35.109375 15.09375 25.875 
Q 15.09375 2.390625 29.6875 -21.046875 
z
" id="ArialMT-40"/>
     <path d="M 49.609375 33.6875 
Q 49.609375 40.875 46.484375 44.671875 
Q 43.359375 48.484375 37.5 48.484375 
Q 33.5 48.484375 29.859375 46.4375 
Q 26.21875 44.390625 23.390625 40.484375 
Q 20.609375 36.625 18.9375 31.15625 
Q 17.28125 25.6875 17.28125 20.3125 
Q 17.28125 13.484375 20.40625 9.796875 
Q 23.53125 6.109375 29.296875 6.109375 
Q 33.546875 6.109375 37.1875 8.109375 
Q 40.828125 10.109375 43.40625 13.921875 
Q 46.1875 17.921875 47.890625 23.34375 
Q 49.609375 28.765625 49.609375 33.6875 
z
M 21.78125 46.390625 
Q 25.390625 51.125 30.296875 53.5625 
Q 35.203125 56 41.21875 56 
Q 49.609375 56 54.25 50.5 
Q 58.890625 45.015625 58.890625 35.109375 
Q 58.890625 27 56 19.65625 
Q 53.125 12.3125 47.703125 6.5 
Q 44.09375 2.640625 39.546875 0.609375 
Q 35.015625 -1.421875 29.984375 -1.421875 
Q 24.171875 -1.421875 20.21875 1 
Q 16.265625 3.421875 14.3125 8.203125 
L 8.6875 -20.796875 
L -0.296875 -20.796875 
L 14.40625 54.6875 
L 23.390625 54.6875 
z
" id="DejaVuSans-Oblique-112"/>
     <path d="M 41.796875 8.203125 
Q 38.1875 3.46875 33.25 1.015625 
Q 28.328125 -1.421875 22.3125 -1.421875 
Q 14.109375 -1.421875 9.34375 4.171875 
Q 4.59375 9.765625 4.59375 19.484375 
Q 4.59375 27.59375 7.46875 34.9375 
Q 10.359375 42.28125 15.828125 48.09375 
Q 19.4375 51.953125 23.96875 53.96875 
Q 28.515625 56 33.5 56 
Q 38.765625 56 42.796875 53.453125 
Q 46.828125 50.921875 49.03125 46.1875 
L 54.890625 75.984375 
L 63.921875 75.984375 
L 49.125 0 
L 40.09375 0 
z
M 13.921875 21.09375 
Q 13.921875 14.015625 17.109375 10.0625 
Q 20.3125 6.109375 25.984375 6.109375 
Q 30.171875 6.109375 33.765625 8.125 
Q 37.359375 10.15625 40.09375 14.109375 
Q 42.96875 18.21875 44.625 23.578125 
Q 46.296875 28.953125 46.296875 34.1875 
Q 46.296875 40.96875 43.09375 44.765625 
Q 39.890625 48.578125 34.28125 48.578125 
Q 30.03125 48.578125 26.359375 46.578125 
Q 22.703125 44.578125 20.125 40.828125 
Q 17.28125 36.765625 15.59375 31.390625 
Q 13.921875 26.03125 13.921875 21.09375 
z
" id="DejaVuSans-Oblique-100"/>
     <path d="M 48.09375 32.234375 
Q 48.25 33.015625 48.3125 33.84375 
Q 48.390625 34.671875 48.390625 35.5 
Q 48.390625 41.453125 44.890625 44.921875 
Q 41.40625 48.390625 35.40625 48.390625 
Q 28.71875 48.390625 23.578125 44.15625 
Q 18.453125 39.9375 15.828125 32.171875 
z
M 55.90625 25.203125 
L 14.109375 25.203125 
Q 13.8125 23.34375 13.71875 22.265625 
Q 13.625 21.1875 13.625 20.40625 
Q 13.625 13.625 17.796875 9.90625 
Q 21.96875 6.203125 29.59375 6.203125 
Q 35.453125 6.203125 40.671875 7.515625 
Q 45.90625 8.84375 50.390625 11.375 
L 48.6875 2.484375 
Q 43.84375 0.53125 38.6875 -0.4375 
Q 33.546875 -1.421875 28.21875 -1.421875 
Q 16.84375 -1.421875 10.71875 4.015625 
Q 4.59375 9.46875 4.59375 19.484375 
Q 4.59375 28.03125 7.640625 35.375 
Q 10.6875 42.71875 16.609375 48.484375 
Q 20.40625 52.09375 25.65625 54.046875 
Q 30.90625 56 36.8125 56 
Q 46.09375 56 51.578125 50.4375 
Q 57.078125 44.875 57.078125 35.5 
Q 57.078125 33.25 56.78125 30.6875 
Q 56.5 28.125 55.90625 25.203125 
z
" id="DejaVuSans-Oblique-101"/>
     <path d="M 53.609375 52.59375 
L 51.8125 43.703125 
Q 48.578125 46.046875 44.9375 47.21875 
Q 41.3125 48.390625 37.40625 48.390625 
Q 33.109375 48.390625 29.21875 46.875 
Q 25.34375 45.359375 22.703125 42.578125 
Q 18.5 38.328125 16.203125 32.609375 
Q 13.921875 26.90625 13.921875 20.796875 
Q 13.921875 13.421875 17.609375 9.8125 
Q 21.296875 6.203125 28.8125 6.203125 
Q 32.515625 6.203125 36.6875 7.328125 
Q 40.875 8.453125 45.40625 10.6875 
L 43.703125 1.8125 
Q 39.796875 0.203125 35.671875 -0.609375 
Q 31.546875 -1.421875 27.203125 -1.421875 
Q 16.3125 -1.421875 10.453125 4.015625 
Q 4.59375 9.46875 4.59375 19.578125 
Q 4.59375 28.078125 7.640625 35.234375 
Q 10.6875 42.390625 16.703125 48.09375 
Q 20.796875 52 26.3125 54 
Q 31.84375 56 38.375 56 
Q 42.1875 56 45.9375 55.140625 
Q 49.703125 54.296875 53.609375 52.59375 
z
" id="DejaVuSans-Oblique-99"/>
     <path d="M 10.59375 45.40625 
L 73.1875 45.40625 
L 73.1875 37.203125 
L 10.59375 37.203125 
z
M 10.59375 25.484375 
L 73.1875 25.484375 
L 73.1875 17.1875 
L 10.59375 17.1875 
z
" id="DejaVuSans-61"/>
     <path d="M 31.78125 66.40625 
Q 24.171875 66.40625 20.328125 58.90625 
Q 16.5 51.421875 16.5 36.375 
Q 16.5 21.390625 20.328125 13.890625 
Q 24.171875 6.390625 31.78125 6.390625 
Q 39.453125 6.390625 43.28125 13.890625 
Q 47.125 21.390625 47.125 36.375 
Q 47.125 51.421875 43.28125 58.90625 
Q 39.453125 66.40625 31.78125 66.40625 
z
M 31.78125 74.21875 
Q 44.046875 74.21875 50.515625 64.515625 
Q 56.984375 54.828125 56.984375 36.375 
Q 56.984375 17.96875 50.515625 8.265625 
Q 44.046875 -1.421875 31.78125 -1.421875 
Q 19.53125 -1.421875 13.0625 8.265625 
Q 6.59375 17.96875 6.59375 36.375 
Q 6.59375 54.828125 13.0625 64.515625 
Q 19.53125 74.21875 31.78125 74.21875 
z
" id="DejaVuSans-48"/>
     <path d="M 10.6875 12.40625 
L 21 12.40625 
L 21 0 
L 10.6875 0 
z
" id="DejaVuSans-46"/>
     <path d="M 12.359375 -21.046875 
L 6.0625 -21.046875 
Q 20.65625 2.390625 20.65625 25.875 
Q 20.65625 35.0625 18.5625 44.09375 
Q 16.890625 51.421875 13.921875 58.15625 
Q 12.015625 62.546875 6.0625 72.796875 
L 12.359375 72.796875 
Q 21.53125 60.546875 25.921875 48.1875 
Q 29.6875 37.546875 29.6875 25.921875 
Q 29.6875 12.75 24.625 0.4375 
Q 19.578125 -11.859375 12.359375 -21.046875 
z
" id="ArialMT-41"/>
    </defs>
    <g style="fill:#262626;" transform="translate(134.566349 44.4)scale(0.12 -0.12)">
     <use transform="translate(0 0.78125)" xlink:href="#ArialMT-78"/>
     <use transform="translate(72.216797 0.78125)" xlink:href="#ArialMT-111"/>
     <use transform="translate(127.832031 0.78125)" xlink:href="#ArialMT-32"/>
     <use transform="translate(155.615234 0.78125)" xlink:href="#ArialMT-100"/>
     <use transform="translate(211.230469 0.78125)" xlink:href="#ArialMT-101"/>
     <use transform="translate(266.845703 0.78125)" xlink:href="#ArialMT-116"/>
     <use transform="translate(294.628906 0.78125)" xlink:href="#ArialMT-101"/>
     <use transform="translate(350.244141 0.78125)" xlink:href="#ArialMT-99"/>
     <use transform="translate(400.244141 0.78125)" xlink:href="#ArialMT-116"/>
     <use transform="translate(428.027344 0.78125)" xlink:href="#ArialMT-105"/>
     <use transform="translate(450.244141 0.78125)" xlink:href="#ArialMT-111"/>
     <use transform="translate(505.859375 0.78125)" xlink:href="#ArialMT-110"/>
     <use transform="translate(561.474609 0.78125)" xlink:href="#ArialMT-32"/>
     <use transform="translate(589.257812 0.78125)" xlink:href="#ArialMT-40"/>
     <use transform="translate(622.558594 0.78125)" xlink:href="#DejaVuSans-Oblique-112"/>
     <use transform="translate(686.035156 -15.625)scale(0.7)" xlink:href="#DejaVuSans-Oblique-100"/>
     <use transform="translate(730.46875 -15.625)scale(0.7)" xlink:href="#DejaVuSans-Oblique-101"/>
     <use transform="translate(773.535156 -15.625)scale(0.7)" xlink:href="#DejaVuSans-Oblique-116"/>
     <use transform="translate(800.981445 -15.625)scale(0.7)" xlink:href="#DejaVuSans-Oblique-101"/>
     <use transform="translate(844.047852 -15.625)scale(0.7)" xlink:href="#DejaVuSans-Oblique-99"/>
     <use transform="translate(882.53418 -15.625)scale(0.7)" xlink:href="#DejaVuSans-Oblique-116"/>
     <use transform="translate(932.197266 0.78125)" xlink:href="#DejaVuSans-61"/>
     <use transform="translate(1035.46875 0.78125)" xlink:href="#DejaVuSans-48"/>
     <use transform="translate(1099.091797 0.78125)" xlink:href="#DejaVuSans-46"/>
     <use transform="translate(1130.878906 0.78125)" xlink:href="#DejaVuSans-48"/>
     <use transform="translate(1194.501953 0.78125)" xlink:href="#ArialMT-41"/>
    </g>
   </g>
   <g id="legend_1">
    <g id="line2d_28"/>
    <g id="line2d_29">
     <g>
      <use style="fill:#ff0000;" x="75.064531" xlink:href="#mc93765c97f" y="198.419844"/>
     </g>
    </g>
    <g id="text_16">
     <!-- suceptible -->
     <defs>
      <path d="M 14.703125 0 
L 6.546875 0 
L 6.546875 71.578125 
L 15.328125 71.578125 
L 15.328125 46.046875 
Q 20.90625 53.03125 29.546875 53.03125 
Q 34.328125 53.03125 38.59375 51.09375 
Q 42.875 49.171875 45.625 45.671875 
Q 48.390625 42.1875 49.953125 37.25 
Q 51.515625 32.328125 51.515625 26.703125 
Q 51.515625 13.375 44.921875 6.09375 
Q 38.328125 -1.171875 29.109375 -1.171875 
Q 19.921875 -1.171875 14.703125 6.5 
z
M 14.59375 26.3125 
Q 14.59375 17 17.140625 12.84375 
Q 21.296875 6.0625 28.375 6.0625 
Q 34.125 6.0625 38.328125 11.0625 
Q 42.53125 16.0625 42.53125 25.984375 
Q 42.53125 36.140625 38.5 40.96875 
Q 34.46875 45.796875 28.765625 45.796875 
Q 23 45.796875 18.796875 40.796875 
Q 14.59375 35.796875 14.59375 26.3125 
z
" id="ArialMT-98"/>
     </defs>
     <g style="fill:#262626;" transform="translate(93.064531 201.919844)scale(0.1 -0.1)">
      <use xlink:href="#ArialMT-115"/>
      <use x="50" xlink:href="#ArialMT-117"/>
      <use x="105.615234" xlink:href="#ArialMT-99"/>
      <use x="155.615234" xlink:href="#ArialMT-101"/>
      <use x="211.230469" xlink:href="#ArialMT-112"/>
      <use x="266.845703" xlink:href="#ArialMT-116"/>
      <use x="294.628906" xlink:href="#ArialMT-105"/>
      <use x="316.845703" xlink:href="#ArialMT-98"/>
      <use x="372.460938" xlink:href="#ArialMT-108"/>
      <use x="394.677734" xlink:href="#ArialMT-101"/>
     </g>
    </g>
    <g id="line2d_30"/>
    <g id="line2d_31">
     <g>
      <use style="fill:#0000ff;" x="75.064531" xlink:href="#me5365c4a8f" y="212.565156"/>
     </g>
    </g>
    <g id="text_17">
     <!-- exposed -->
     <defs>
      <path d="M 0.734375 0 
L 19.671875 26.953125 
L 2.15625 51.859375 
L 13.140625 51.859375 
L 21.09375 39.703125 
Q 23.34375 36.234375 24.703125 33.890625 
Q 26.859375 37.109375 28.65625 39.59375 
L 37.40625 51.859375 
L 47.90625 51.859375 
L 29.984375 27.4375 
L 49.265625 0 
L 38.484375 0 
L 27.828125 16.109375 
L 25 20.453125 
L 11.375 0 
z
" id="ArialMT-120"/>
     </defs>
     <g style="fill:#262626;" transform="translate(93.064531 216.065156)scale(0.1 -0.1)">
      <use xlink:href="#ArialMT-101"/>
      <use x="55.615234" xlink:href="#ArialMT-120"/>
      <use x="105.615234" xlink:href="#ArialMT-112"/>
      <use x="161.230469" xlink:href="#ArialMT-111"/>
      <use x="216.845703" xlink:href="#ArialMT-115"/>
      <use x="266.845703" xlink:href="#ArialMT-101"/>
      <use x="322.460938" xlink:href="#ArialMT-100"/>
     </g>
    </g>
    <g id="line2d_32"/>
    <g id="line2d_33">
     <g>
      <use style="fill:#008000;" x="75.064531" xlink:href="#m41a3be5ee9" y="226.710469"/>
     </g>
    </g>
    <g id="text_18">
     <!-- infected -->
     <defs>
      <path d="M 8.6875 0 
L 8.6875 45.015625 
L 0.921875 45.015625 
L 0.921875 51.859375 
L 8.6875 51.859375 
L 8.6875 57.375 
Q 8.6875 62.59375 9.625 65.140625 
Q 10.890625 68.5625 14.078125 70.671875 
Q 17.28125 72.796875 23.046875 72.796875 
Q 26.765625 72.796875 31.25 71.921875 
L 29.9375 64.265625 
Q 27.203125 64.75 24.75 64.75 
Q 20.75 64.75 19.09375 63.03125 
Q 17.4375 61.328125 17.4375 56.640625 
L 17.4375 51.859375 
L 27.546875 51.859375 
L 27.546875 45.015625 
L 17.4375 45.015625 
L 17.4375 0 
z
" id="ArialMT-102"/>
     </defs>
     <g style="fill:#262626;" transform="translate(93.064531 230.210469)scale(0.1 -0.1)">
      <use xlink:href="#ArialMT-105"/>
      <use x="22.216797" xlink:href="#ArialMT-110"/>
      <use x="77.832031" xlink:href="#ArialMT-102"/>
      <use x="105.615234" xlink:href="#ArialMT-101"/>
      <use x="161.230469" xlink:href="#ArialMT-99"/>
      <use x="211.230469" xlink:href="#ArialMT-116"/>
      <use x="239.013672" xlink:href="#ArialMT-101"/>
      <use x="294.628906" xlink:href="#ArialMT-100"/>
     </g>
    </g>
   </g>
  </g>
  <g id="axes_2">
   <g id="patch_7">
    <path d="M 421.300895 376.56 
L 725.664531 376.56 
L 725.664531 50.4 
L 421.300895 50.4 
z
" style="fill:#eaeaf2;"/>
   </g>
   <g id="matplotlib.axis_3">
    <g id="xtick_7">
     <g id="line2d_34">
      <path clip-path="url(#p6083d74647)" d="M 421.300895 376.56 
L 421.300895 50.4 
" style="fill:none;stroke:#ffffff;stroke-linecap:round;"/>
     </g>
     <g id="line2d_35"/>
     <g id="text_19">
      <!-- 0 -->
      <g style="fill:#262626;" transform="translate(418.520426 390.717812)scale(0.1 -0.1)">
       <use xlink:href="#ArialMT-48"/>
      </g>
     </g>
    </g>
    <g id="xtick_8">
     <g id="line2d_36">
      <path clip-path="url(#p6083d74647)" d="M 482.173622 376.56 
L 482.173622 50.4 
" style="fill:none;stroke:#ffffff;stroke-linecap:round;"/>
     </g>
     <g id="line2d_37"/>
     <g id="text_20">
      <!-- 1000 -->
      <g style="fill:#262626;" transform="translate(471.051747 390.717812)scale(0.1 -0.1)">
       <use xlink:href="#ArialMT-49"/>
       <use x="55.615234" xlink:href="#ArialMT-48"/>
       <use x="111.230469" xlink:href="#ArialMT-48"/>
       <use x="166.845703" xlink:href="#ArialMT-48"/>
      </g>
     </g>
    </g>
    <g id="xtick_9">
     <g id="line2d_38">
      <path clip-path="url(#p6083d74647)" d="M 543.046349 376.56 
L 543.046349 50.4 
" style="fill:none;stroke:#ffffff;stroke-linecap:round;"/>
     </g>
     <g id="line2d_39"/>
     <g id="text_21">
      <!-- 2000 -->
      <g style="fill:#262626;" transform="translate(531.924474 390.717812)scale(0.1 -0.1)">
       <use xlink:href="#ArialMT-50"/>
       <use x="55.615234" xlink:href="#ArialMT-48"/>
       <use x="111.230469" xlink:href="#ArialMT-48"/>
       <use x="166.845703" xlink:href="#ArialMT-48"/>
      </g>
     </g>
    </g>
    <g id="xtick_10">
     <g id="line2d_40">
      <path clip-path="url(#p6083d74647)" d="M 603.919077 376.56 
L 603.919077 50.4 
" style="fill:none;stroke:#ffffff;stroke-linecap:round;"/>
     </g>
     <g id="line2d_41"/>
     <g id="text_22">
      <!-- 3000 -->
      <g style="fill:#262626;" transform="translate(592.797202 390.717812)scale(0.1 -0.1)">
       <use xlink:href="#ArialMT-51"/>
       <use x="55.615234" xlink:href="#ArialMT-48"/>
       <use x="111.230469" xlink:href="#ArialMT-48"/>
       <use x="166.845703" xlink:href="#ArialMT-48"/>
      </g>
     </g>
    </g>
    <g id="xtick_11">
     <g id="line2d_42">
      <path clip-path="url(#p6083d74647)" d="M 664.791804 376.56 
L 664.791804 50.4 
" style="fill:none;stroke:#ffffff;stroke-linecap:round;"/>
     </g>
     <g id="line2d_43"/>
     <g id="text_23">
      <!-- 4000 -->
      <g style="fill:#262626;" transform="translate(653.669929 390.717812)scale(0.1 -0.1)">
       <use xlink:href="#ArialMT-52"/>
       <use x="55.615234" xlink:href="#ArialMT-48"/>
       <use x="111.230469" xlink:href="#ArialMT-48"/>
       <use x="166.845703" xlink:href="#ArialMT-48"/>
      </g>
     </g>
    </g>
    <g id="xtick_12">
     <g id="line2d_44">
      <path clip-path="url(#p6083d74647)" d="M 725.664531 376.56 
L 725.664531 50.4 
" style="fill:none;stroke:#ffffff;stroke-linecap:round;"/>
     </g>
     <g id="line2d_45"/>
     <g id="text_24">
      <!-- 5000 -->
      <g style="fill:#262626;" transform="translate(714.542656 390.717812)scale(0.1 -0.1)">
       <use xlink:href="#ArialMT-53"/>
       <use x="55.615234" xlink:href="#ArialMT-48"/>
       <use x="111.230469" xlink:href="#ArialMT-48"/>
       <use x="166.845703" xlink:href="#ArialMT-48"/>
      </g>
     </g>
    </g>
    <g id="text_25">
     <!-- $t$ -->
     <g style="fill:#262626;" transform="translate(571.282713 404.578906)scale(0.11 -0.11)">
      <use transform="translate(0 0.78125)" xlink:href="#DejaVuSans-Oblique-116"/>
     </g>
    </g>
   </g>
   <g id="matplotlib.axis_4">
    <g id="ytick_7">
     <g id="line2d_46">
      <path clip-path="url(#p6083d74647)" d="M 421.300895 376.56 
L 725.664531 376.56 
" style="fill:none;stroke:#ffffff;stroke-linecap:round;"/>
     </g>
     <g id="line2d_47"/>
    </g>
    <g id="ytick_8">
     <g id="line2d_48">
      <path clip-path="url(#p6083d74647)" d="M 421.300895 311.328 
L 725.664531 311.328 
" style="fill:none;stroke:#ffffff;stroke-linecap:round;"/>
     </g>
     <g id="line2d_49"/>
    </g>
    <g id="ytick_9">
     <g id="line2d_50">
      <path clip-path="url(#p6083d74647)" d="M 421.300895 246.096 
L 725.664531 246.096 
" style="fill:none;stroke:#ffffff;stroke-linecap:round;"/>
     </g>
     <g id="line2d_51"/>
    </g>
    <g id="ytick_10">
     <g id="line2d_52">
      <path clip-path="url(#p6083d74647)" d="M 421.300895 180.864 
L 725.664531 180.864 
" style="fill:none;stroke:#ffffff;stroke-linecap:round;"/>
     </g>
     <g id="line2d_53"/>
    </g>
    <g id="ytick_11">
     <g id="line2d_54">
      <path clip-path="url(#p6083d74647)" d="M 421.300895 115.632 
L 725.664531 115.632 
" style="fill:none;stroke:#ffffff;stroke-linecap:round;"/>
     </g>
     <g id="line2d_55"/>
    </g>
    <g id="ytick_12">
     <g id="line2d_56">
      <path clip-path="url(#p6083d74647)" d="M 421.300895 50.4 
L 725.664531 50.4 
" style="fill:none;stroke:#ffffff;stroke-linecap:round;"/>
     </g>
     <g id="line2d_57"/>
    </g>
   </g>
   <g id="line2d_58">
    <g clip-path="url(#p6083d74647)">
     <use style="fill:#ff0000;" x="421.300895" xlink:href="#mc93765c97f" y="50.791392"/>
     <use style="fill:#ff0000;" x="427.388168" xlink:href="#mc93765c97f" y="50.954472"/>
     <use style="fill:#ff0000;" x="433.47544" xlink:href="#mc93765c97f" y="51.248016"/>
     <use style="fill:#ff0000;" x="439.562713" xlink:href="#mc93765c97f" y="51.54156"/>
     <use style="fill:#ff0000;" x="445.649986" xlink:href="#mc93765c97f" y="51.606792"/>
     <use style="fill:#ff0000;" x="451.737259" xlink:href="#mc93765c97f" y="51.70464"/>
     <use style="fill:#ff0000;" x="457.824531" xlink:href="#mc93765c97f" y="51.86772"/>
     <use style="fill:#ff0000;" x="463.911804" xlink:href="#mc93765c97f" y="51.900336"/>
     <use style="fill:#ff0000;" x="469.999077" xlink:href="#mc93765c97f" y="52.063416"/>
     <use style="fill:#ff0000;" x="476.086349" xlink:href="#mc93765c97f" y="52.259112"/>
     <use style="fill:#ff0000;" x="482.173622" xlink:href="#mc93765c97f" y="52.454808"/>
     <use style="fill:#ff0000;" x="488.260895" xlink:href="#mc93765c97f" y="52.585272"/>
     <use style="fill:#ff0000;" x="494.348168" xlink:href="#mc93765c97f" y="52.8462"/>
     <use style="fill:#ff0000;" x="500.43544" xlink:href="#mc93765c97f" y="53.074512"/>
     <use style="fill:#ff0000;" x="506.522713" xlink:href="#mc93765c97f" y="53.270208"/>
     <use style="fill:#ff0000;" x="512.609986" xlink:href="#mc93765c97f" y="53.465904"/>
     <use style="fill:#ff0000;" x="518.697259" xlink:href="#mc93765c97f" y="53.628984"/>
     <use style="fill:#ff0000;" x="524.784531" xlink:href="#mc93765c97f" y="54.085608"/>
     <use style="fill:#ff0000;" x="530.871804" xlink:href="#mc93765c97f" y="54.574848"/>
     <use style="fill:#ff0000;" x="536.959077" xlink:href="#mc93765c97f" y="55.12932"/>
     <use style="fill:#ff0000;" x="543.046349" xlink:href="#mc93765c97f" y="55.520712"/>
     <use style="fill:#ff0000;" x="549.133622" xlink:href="#mc93765c97f" y="55.846872"/>
     <use style="fill:#ff0000;" x="555.220895" xlink:href="#mc93765c97f" y="56.43396"/>
     <use style="fill:#ff0000;" x="561.308168" xlink:href="#mc93765c97f" y="57.021048"/>
     <use style="fill:#ff0000;" x="567.39544" xlink:href="#mc93765c97f" y="57.379824"/>
     <use style="fill:#ff0000;" x="573.482713" xlink:href="#mc93765c97f" y="58.22784"/>
     <use style="fill:#ff0000;" x="579.569986" xlink:href="#mc93765c97f" y="59.075856"/>
     <use style="fill:#ff0000;" x="585.657259" xlink:href="#mc93765c97f" y="59.793408"/>
     <use style="fill:#ff0000;" x="591.744531" xlink:href="#mc93765c97f" y="60.413112"/>
     <use style="fill:#ff0000;" x="597.831804" xlink:href="#mc93765c97f" y="61.456824"/>
     <use style="fill:#ff0000;" x="603.919077" xlink:href="#mc93765c97f" y="62.533152"/>
     <use style="fill:#ff0000;" x="610.006349" xlink:href="#mc93765c97f" y="63.674712"/>
     <use style="fill:#ff0000;" x="616.093622" xlink:href="#mc93765c97f" y="65.175048"/>
     <use style="fill:#ff0000;" x="622.180895" xlink:href="#mc93765c97f" y="66.708"/>
     <use style="fill:#ff0000;" x="628.268168" xlink:href="#mc93765c97f" y="68.436648"/>
     <use style="fill:#ff0000;" x="634.35544" xlink:href="#mc93765c97f" y="70.13268"/>
     <use style="fill:#ff0000;" x="640.442713" xlink:href="#mc93765c97f" y="71.959176"/>
     <use style="fill:#ff0000;" x="646.529986" xlink:href="#mc93765c97f" y="74.0466"/>
     <use style="fill:#ff0000;" x="652.617259" xlink:href="#mc93765c97f" y="76.101408"/>
     <use style="fill:#ff0000;" x="658.704531" xlink:href="#mc93765c97f" y="78.547608"/>
     <use style="fill:#ff0000;" x="664.791804" xlink:href="#mc93765c97f" y="80.89596"/>
     <use style="fill:#ff0000;" x="670.879077" xlink:href="#mc93765c97f" y="82.559376"/>
     <use style="fill:#ff0000;" x="676.966349" xlink:href="#mc93765c97f" y="85.201272"/>
     <use style="fill:#ff0000;" x="683.053622" xlink:href="#mc93765c97f" y="88.104096"/>
     <use style="fill:#ff0000;" x="689.140895" xlink:href="#mc93765c97f" y="90.289368"/>
     <use style="fill:#ff0000;" x="695.228168" xlink:href="#mc93765c97f" y="93.192192"/>
     <use style="fill:#ff0000;" x="701.31544" xlink:href="#mc93765c97f" y="95.834088"/>
     <use style="fill:#ff0000;" x="707.402713" xlink:href="#mc93765c97f" y="98.802144"/>
     <use style="fill:#ff0000;" x="713.489986" xlink:href="#mc93765c97f" y="101.672352"/>
     <use style="fill:#ff0000;" x="719.577259" xlink:href="#mc93765c97f" y="104.901336"/>
     <use style="fill:#ff0000;" x="725.664531" xlink:href="#mc93765c97f" y="107.673696"/>
    </g>
   </g>
   <g id="line2d_59">
    <g clip-path="url(#p6083d74647)">
     <use style="fill:#0000ff;" x="421.300895" xlink:href="#me5365c4a8f" y="376.168608"/>
     <use style="fill:#0000ff;" x="427.388168" xlink:href="#me5365c4a8f" y="376.135992"/>
     <use style="fill:#0000ff;" x="433.47544" xlink:href="#me5365c4a8f" y="375.972912"/>
     <use style="fill:#0000ff;" x="439.562713" xlink:href="#me5365c4a8f" y="375.940296"/>
     <use style="fill:#0000ff;" x="445.649986" xlink:href="#me5365c4a8f" y="376.038144"/>
     <use style="fill:#0000ff;" x="451.737259" xlink:href="#me5365c4a8f" y="376.005528"/>
     <use style="fill:#0000ff;" x="457.824531" xlink:href="#me5365c4a8f" y="375.940296"/>
     <use style="fill:#0000ff;" x="463.911804" xlink:href="#me5365c4a8f" y="376.005528"/>
     <use style="fill:#0000ff;" x="469.999077" xlink:href="#me5365c4a8f" y="375.972912"/>
     <use style="fill:#0000ff;" x="476.086349" xlink:href="#me5365c4a8f" y="376.038144"/>
     <use style="fill:#0000ff;" x="482.173622" xlink:href="#me5365c4a8f" y="376.07076"/>
     <use style="fill:#0000ff;" x="488.260895" xlink:href="#me5365c4a8f" y="376.038144"/>
     <use style="fill:#0000ff;" x="494.348168" xlink:href="#me5365c4a8f" y="375.875064"/>
     <use style="fill:#0000ff;" x="500.43544" xlink:href="#me5365c4a8f" y="375.809832"/>
     <use style="fill:#0000ff;" x="506.522713" xlink:href="#me5365c4a8f" y="375.7446"/>
     <use style="fill:#0000ff;" x="512.609986" xlink:href="#me5365c4a8f" y="375.58152"/>
     <use style="fill:#0000ff;" x="518.697259" xlink:href="#me5365c4a8f" y="375.614136"/>
     <use style="fill:#0000ff;" x="524.784531" xlink:href="#me5365c4a8f" y="375.320592"/>
     <use style="fill:#0000ff;" x="530.871804" xlink:href="#me5365c4a8f" y="374.994432"/>
     <use style="fill:#0000ff;" x="536.959077" xlink:href="#me5365c4a8f" y="374.831352"/>
     <use style="fill:#0000ff;" x="543.046349" xlink:href="#me5365c4a8f" y="374.76612"/>
     <use style="fill:#0000ff;" x="549.133622" xlink:href="#me5365c4a8f" y="374.798736"/>
     <use style="fill:#0000ff;" x="555.220895" xlink:href="#me5365c4a8f" y="374.570424"/>
     <use style="fill:#0000ff;" x="561.308168" xlink:href="#me5365c4a8f" y="374.374728"/>
     <use style="fill:#0000ff;" x="567.39544" xlink:href="#me5365c4a8f" y="374.700888"/>
     <use style="fill:#0000ff;" x="573.482713" xlink:href="#me5365c4a8f" y="374.342112"/>
     <use style="fill:#0000ff;" x="579.569986" xlink:href="#me5365c4a8f" y="374.081184"/>
     <use style="fill:#0000ff;" x="585.657259" xlink:href="#me5365c4a8f" y="373.983336"/>
     <use style="fill:#0000ff;" x="591.744531" xlink:href="#me5365c4a8f" y="373.95072"/>
     <use style="fill:#0000ff;" x="597.831804" xlink:href="#me5365c4a8f" y="373.526712"/>
     <use style="fill:#0000ff;" x="603.919077" xlink:href="#me5365c4a8f" y="372.97224"/>
     <use style="fill:#0000ff;" x="610.006349" xlink:href="#me5365c4a8f" y="372.711312"/>
     <use style="fill:#0000ff;" x="616.093622" xlink:href="#me5365c4a8f" y="371.99376"/>
     <use style="fill:#0000ff;" x="622.180895" xlink:href="#me5365c4a8f" y="371.406672"/>
     <use style="fill:#0000ff;" x="628.268168" xlink:href="#me5365c4a8f" y="370.428192"/>
     <use style="fill:#0000ff;" x="634.35544" xlink:href="#me5365c4a8f" y="370.069416"/>
     <use style="fill:#0000ff;" x="640.442713" xlink:href="#me5365c4a8f" y="369.54756"/>
     <use style="fill:#0000ff;" x="646.529986" xlink:href="#me5365c4a8f" y="369.2214"/>
     <use style="fill:#0000ff;" x="652.617259" xlink:href="#me5365c4a8f" y="369.025704"/>
     <use style="fill:#0000ff;" x="658.704531" xlink:href="#me5365c4a8f" y="367.818912"/>
     <use style="fill:#0000ff;" x="664.791804" xlink:href="#me5365c4a8f" y="367.199208"/>
     <use style="fill:#0000ff;" x="670.879077" xlink:href="#me5365c4a8f" y="367.394904"/>
     <use style="fill:#0000ff;" x="676.966349" xlink:href="#me5365c4a8f" y="366.644736"/>
     <use style="fill:#0000ff;" x="683.053622" xlink:href="#me5365c4a8f" y="365.829336"/>
     <use style="fill:#0000ff;" x="689.140895" xlink:href="#me5365c4a8f" y="365.894568"/>
     <use style="fill:#0000ff;" x="695.228168" xlink:href="#me5365c4a8f" y="365.046552"/>
     <use style="fill:#0000ff;" x="701.31544" xlink:href="#me5365c4a8f" y="364.49208"/>
     <use style="fill:#0000ff;" x="707.402713" xlink:href="#me5365c4a8f" y="364.068072"/>
     <use style="fill:#0000ff;" x="713.489986" xlink:href="#me5365c4a8f" y="363.872376"/>
     <use style="fill:#0000ff;" x="719.577259" xlink:href="#me5365c4a8f" y="363.383136"/>
     <use style="fill:#0000ff;" x="725.664531" xlink:href="#me5365c4a8f" y="363.18744"/>
    </g>
   </g>
   <g id="line2d_60">
    <g clip-path="url(#p6083d74647)">
     <use style="fill:#008000;" x="421.300895" xlink:href="#m41a3be5ee9" y="376.56"/>
     <use style="fill:#008000;" x="427.388168" xlink:href="#m41a3be5ee9" y="376.462152"/>
     <use style="fill:#008000;" x="433.47544" xlink:href="#m41a3be5ee9" y="376.39692"/>
     <use style="fill:#008000;" x="439.562713" xlink:href="#m41a3be5ee9" y="376.168608"/>
     <use style="fill:#008000;" x="445.649986" xlink:href="#m41a3be5ee9" y="376.07076"/>
     <use style="fill:#008000;" x="451.737259" xlink:href="#m41a3be5ee9" y="376.168608"/>
     <use style="fill:#008000;" x="457.824531" xlink:href="#m41a3be5ee9" y="376.168608"/>
     <use style="fill:#008000;" x="463.911804" xlink:href="#m41a3be5ee9" y="376.103376"/>
     <use style="fill:#008000;" x="469.999077" xlink:href="#m41a3be5ee9" y="376.135992"/>
     <use style="fill:#008000;" x="476.086349" xlink:href="#m41a3be5ee9" y="376.005528"/>
     <use style="fill:#008000;" x="482.173622" xlink:href="#m41a3be5ee9" y="375.940296"/>
     <use style="fill:#008000;" x="488.260895" xlink:href="#m41a3be5ee9" y="376.038144"/>
     <use style="fill:#008000;" x="494.348168" xlink:href="#m41a3be5ee9" y="376.038144"/>
     <use style="fill:#008000;" x="500.43544" xlink:href="#m41a3be5ee9" y="376.038144"/>
     <use style="fill:#008000;" x="506.522713" xlink:href="#m41a3be5ee9" y="375.940296"/>
     <use style="fill:#008000;" x="512.609986" xlink:href="#m41a3be5ee9" y="376.038144"/>
     <use style="fill:#008000;" x="518.697259" xlink:href="#m41a3be5ee9" y="375.875064"/>
     <use style="fill:#008000;" x="524.784531" xlink:href="#m41a3be5ee9" y="375.90768"/>
     <use style="fill:#008000;" x="530.871804" xlink:href="#m41a3be5ee9" y="375.940296"/>
     <use style="fill:#008000;" x="536.959077" xlink:href="#m41a3be5ee9" y="375.58152"/>
     <use style="fill:#008000;" x="543.046349" xlink:href="#m41a3be5ee9" y="375.483672"/>
     <use style="fill:#008000;" x="549.133622" xlink:href="#m41a3be5ee9" y="375.287976"/>
     <use style="fill:#008000;" x="555.220895" xlink:href="#m41a3be5ee9" y="375.157512"/>
     <use style="fill:#008000;" x="561.308168" xlink:href="#m41a3be5ee9" y="374.994432"/>
     <use style="fill:#008000;" x="567.39544" xlink:href="#m41a3be5ee9" y="374.570424"/>
     <use style="fill:#008000;" x="573.482713" xlink:href="#m41a3be5ee9" y="374.374728"/>
     <use style="fill:#008000;" x="579.569986" xlink:href="#m41a3be5ee9" y="374.407344"/>
     <use style="fill:#008000;" x="585.657259" xlink:href="#m41a3be5ee9" y="374.407344"/>
     <use style="fill:#008000;" x="591.744531" xlink:href="#m41a3be5ee9" y="374.179032"/>
     <use style="fill:#008000;" x="597.831804" xlink:href="#m41a3be5ee9" y="374.015952"/>
     <use style="fill:#008000;" x="603.919077" xlink:href="#m41a3be5ee9" y="373.95072"/>
     <use style="fill:#008000;" x="610.006349" xlink:href="#m41a3be5ee9" y="373.526712"/>
     <use style="fill:#008000;" x="616.093622" xlink:href="#m41a3be5ee9" y="373.363632"/>
     <use style="fill:#008000;" x="622.180895" xlink:href="#m41a3be5ee9" y="372.907008"/>
     <use style="fill:#008000;" x="628.268168" xlink:href="#m41a3be5ee9" y="372.939624"/>
     <use style="fill:#008000;" x="634.35544" xlink:href="#m41a3be5ee9" y="372.124224"/>
     <use style="fill:#008000;" x="640.442713" xlink:href="#m41a3be5ee9" y="371.928528"/>
     <use style="fill:#008000;" x="646.529986" xlink:href="#m41a3be5ee9" y="371.047896"/>
     <use style="fill:#008000;" x="652.617259" xlink:href="#m41a3be5ee9" y="370.265112"/>
     <use style="fill:#008000;" x="658.704531" xlink:href="#m41a3be5ee9" y="370.428192"/>
     <use style="fill:#008000;" x="664.791804" xlink:href="#m41a3be5ee9" y="370.330344"/>
     <use style="fill:#008000;" x="670.879077" xlink:href="#m41a3be5ee9" y="369.678024"/>
     <use style="fill:#008000;" x="676.966349" xlink:href="#m41a3be5ee9" y="369.319248"/>
     <use style="fill:#008000;" x="683.053622" xlink:href="#m41a3be5ee9" y="368.699544"/>
     <use style="fill:#008000;" x="689.140895" xlink:href="#m41a3be5ee9" y="368.24292"/>
     <use style="fill:#008000;" x="695.228168" xlink:href="#m41a3be5ee9" y="367.884144"/>
     <use style="fill:#008000;" x="701.31544" xlink:href="#m41a3be5ee9" y="367.231824"/>
     <use style="fill:#008000;" x="707.402713" xlink:href="#m41a3be5ee9" y="366.351192"/>
     <use style="fill:#008000;" x="713.489986" xlink:href="#m41a3be5ee9" y="365.568408"/>
     <use style="fill:#008000;" x="719.577259" xlink:href="#m41a3be5ee9" y="365.340096"/>
     <use style="fill:#008000;" x="725.664531" xlink:href="#m41a3be5ee9" y="365.274864"/>
    </g>
   </g>
   <g id="patch_8">
    <path d="M 421.300895 376.56 
L 421.300895 50.4 
" style="fill:none;"/>
   </g>
   <g id="patch_9">
    <path d="M 725.664531 376.56 
L 725.664531 50.4 
" style="fill:none;"/>
   </g>
   <g id="patch_10">
    <path d="M 421.300895 376.56 
L 725.664531 376.56 
" style="fill:none;"/>
   </g>
   <g id="patch_11">
    <path d="M 421.300895 50.4 
L 725.664531 50.4 
" style="fill:none;"/>
   </g>
   <g id="text_26">
    <!-- Perfect detection ($p_{detect} = 1.0$) -->
    <defs>
     <path d="M 7.71875 0 
L 7.71875 71.578125 
L 34.71875 71.578125 
Q 41.84375 71.578125 45.609375 70.90625 
Q 50.875 70.015625 54.4375 67.546875 
Q 58.015625 65.09375 60.1875 60.640625 
Q 62.359375 56.203125 62.359375 50.875 
Q 62.359375 41.75 56.546875 35.421875 
Q 50.734375 29.109375 35.546875 29.109375 
L 17.1875 29.109375 
L 17.1875 0 
z
M 17.1875 37.546875 
L 35.6875 37.546875 
Q 44.875 37.546875 48.734375 40.96875 
Q 52.59375 44.390625 52.59375 50.59375 
Q 52.59375 55.078125 50.3125 58.265625 
Q 48.046875 61.46875 44.34375 62.5 
Q 41.9375 63.140625 35.5 63.140625 
L 17.1875 63.140625 
z
" id="ArialMT-80"/>
     <path d="M 6.5 0 
L 6.5 51.859375 
L 14.40625 51.859375 
L 14.40625 44 
Q 17.4375 49.515625 20 51.265625 
Q 22.5625 53.03125 25.640625 53.03125 
Q 30.078125 53.03125 34.671875 50.203125 
L 31.640625 42.046875 
Q 28.421875 43.953125 25.203125 43.953125 
Q 22.3125 43.953125 20.015625 42.21875 
Q 17.71875 40.484375 16.75 37.40625 
Q 15.28125 32.71875 15.28125 27.15625 
L 15.28125 0 
z
" id="ArialMT-114"/>
     <path d="M 12.40625 8.296875 
L 28.515625 8.296875 
L 28.515625 63.921875 
L 10.984375 60.40625 
L 10.984375 69.390625 
L 28.421875 72.90625 
L 38.28125 72.90625 
L 38.28125 8.296875 
L 54.390625 8.296875 
L 54.390625 0 
L 12.40625 0 
z
" id="DejaVuSans-49"/>
    </defs>
    <g style="fill:#262626;" transform="translate(488.462713 44.4)scale(0.12 -0.12)">
     <use transform="translate(0 0.78125)" xlink:href="#ArialMT-80"/>
     <use transform="translate(66.699219 0.78125)" xlink:href="#ArialMT-101"/>
     <use transform="translate(122.314453 0.78125)" xlink:href="#ArialMT-114"/>
     <use transform="translate(155.615234 0.78125)" xlink:href="#ArialMT-102"/>
     <use transform="translate(183.398438 0.78125)" xlink:href="#ArialMT-101"/>
     <use transform="translate(239.013672 0.78125)" xlink:href="#ArialMT-99"/>
     <use transform="translate(289.013672 0.78125)" xlink:href="#ArialMT-116"/>
     <use transform="translate(316.796875 0.78125)" xlink:href="#ArialMT-32"/>
     <use transform="translate(344.580078 0.78125)" xlink:href="#ArialMT-100"/>
     <use transform="translate(400.195312 0.78125)" xlink:href="#ArialMT-101"/>
     <use transform="translate(455.810547 0.78125)" xlink:href="#ArialMT-116"/>
     <use transform="translate(483.59375 0.78125)" xlink:href="#ArialMT-101"/>
     <use transform="translate(539.208984 0.78125)" xlink:href="#ArialMT-99"/>
     <use transform="translate(589.208984 0.78125)" xlink:href="#ArialMT-116"/>
     <use transform="translate(616.992188 0.78125)" xlink:href="#ArialMT-105"/>
     <use transform="translate(639.208984 0.78125)" xlink:href="#ArialMT-111"/>
     <use transform="translate(694.824219 0.78125)" xlink:href="#ArialMT-110"/>
     <use transform="translate(750.439453 0.78125)" xlink:href="#ArialMT-32"/>
     <use transform="translate(778.222656 0.78125)" xlink:href="#ArialMT-40"/>
     <use transform="translate(811.523438 0.78125)" xlink:href="#DejaVuSans-Oblique-112"/>
     <use transform="translate(875 -15.625)scale(0.7)" xlink:href="#DejaVuSans-Oblique-100"/>
     <use transform="translate(919.433594 -15.625)scale(0.7)" xlink:href="#DejaVuSans-Oblique-101"/>
     <use transform="translate(962.5 -15.625)scale(0.7)" xlink:href="#DejaVuSans-Oblique-116"/>
     <use transform="translate(989.946289 -15.625)scale(0.7)" xlink:href="#DejaVuSans-Oblique-101"/>
     <use transform="translate(1033.012695 -15.625)scale(0.7)" xlink:href="#DejaVuSans-Oblique-99"/>
     <use transform="translate(1071.499023 -15.625)scale(0.7)" xlink:href="#DejaVuSans-Oblique-116"/>
     <use transform="translate(1121.162109 0.78125)" xlink:href="#DejaVuSans-61"/>
     <use transform="translate(1224.433594 0.78125)" xlink:href="#DejaVuSans-49"/>
     <use transform="translate(1288.056641 0.78125)" xlink:href="#DejaVuSans-46"/>
     <use transform="translate(1319.84375 0.78125)" xlink:href="#DejaVuSans-48"/>
     <use transform="translate(1383.466797 0.78125)" xlink:href="#ArialMT-41"/>
    </g>
   </g>
   <g id="legend_2">
    <g id="line2d_61"/>
    <g id="line2d_62">
     <g>
      <use style="fill:#ff0000;" x="440.300895" xlink:href="#mc93765c97f" y="198.419844"/>
     </g>
    </g>
    <g id="text_27">
     <!-- suceptible -->
     <g style="fill:#262626;" transform="translate(458.300895 201.919844)scale(0.1 -0.1)">
      <use xlink:href="#ArialMT-115"/>
      <use x="50" xlink:href="#ArialMT-117"/>
      <use x="105.615234" xlink:href="#ArialMT-99"/>
      <use x="155.615234" xlink:href="#ArialMT-101"/>
      <use x="211.230469" xlink:href="#ArialMT-112"/>
      <use x="266.845703" xlink:href="#ArialMT-116"/>
      <use x="294.628906" xlink:href="#ArialMT-105"/>
      <use x="316.845703" xlink:href="#ArialMT-98"/>
      <use x="372.460938" xlink:href="#ArialMT-108"/>
      <use x="394.677734" xlink:href="#ArialMT-101"/>
     </g>
    </g>
    <g id="line2d_63"/>
    <g id="line2d_64">
     <g>
      <use style="fill:#0000ff;" x="440.300895" xlink:href="#me5365c4a8f" y="212.565156"/>
     </g>
    </g>
    <g id="text_28">
     <!-- exposed -->
     <g style="fill:#262626;" transform="translate(458.300895 216.065156)scale(0.1 -0.1)">
      <use xlink:href="#ArialMT-101"/>
      <use x="55.615234" xlink:href="#ArialMT-120"/>
      <use x="105.615234" xlink:href="#ArialMT-112"/>
      <use x="161.230469" xlink:href="#ArialMT-111"/>
      <use x="216.845703" xlink:href="#ArialMT-115"/>
      <use x="266.845703" xlink:href="#ArialMT-101"/>
      <use x="322.460938" xlink:href="#ArialMT-100"/>
     </g>
    </g>
    <g id="line2d_65"/>
    <g id="line2d_66">
     <g>
      <use style="fill:#008000;" x="440.300895" xlink:href="#m41a3be5ee9" y="226.710469"/>
     </g>
    </g>
    <g id="text_29">
     <!-- infected -->
     <g style="fill:#262626;" transform="translate(458.300895 230.210469)scale(0.1 -0.1)">
      <use xlink:href="#ArialMT-105"/>
      <use x="22.216797" xlink:href="#ArialMT-110"/>
      <use x="77.832031" xlink:href="#ArialMT-102"/>
      <use x="105.615234" xlink:href="#ArialMT-101"/>
      <use x="161.230469" xlink:href="#ArialMT-99"/>
      <use x="211.230469" xlink:href="#ArialMT-116"/>
      <use x="239.013672" xlink:href="#ArialMT-101"/>
      <use x="294.628906" xlink:href="#ArialMT-100"/>
     </g>
    </g>
   </g>
  </g>
  <g id="text_30">
   <!-- SEIR on ER for different detection of exposed individuals ($N = 10000, \langle k \rangle = 40, p_{rewire} = 0.5$) -->
   <defs>
    <path d="M 4.5 23 
L 13.421875 23.78125 
Q 14.0625 18.40625 16.375 14.96875 
Q 18.703125 11.53125 23.578125 9.40625 
Q 28.46875 7.28125 34.578125 7.28125 
Q 39.984375 7.28125 44.140625 8.890625 
Q 48.296875 10.5 50.3125 13.296875 
Q 52.34375 16.109375 52.34375 19.4375 
Q 52.34375 22.796875 50.390625 25.3125 
Q 48.4375 27.828125 43.953125 29.546875 
Q 41.0625 30.671875 31.203125 33.03125 
Q 21.34375 35.40625 17.390625 37.5 
Q 12.25 40.1875 9.734375 44.15625 
Q 7.234375 48.140625 7.234375 53.078125 
Q 7.234375 58.5 10.296875 63.203125 
Q 13.375 67.921875 19.28125 70.359375 
Q 25.203125 72.796875 32.421875 72.796875 
Q 40.375 72.796875 46.453125 70.234375 
Q 52.546875 67.671875 55.8125 62.6875 
Q 59.078125 57.71875 59.328125 51.421875 
L 50.25 50.734375 
Q 49.515625 57.515625 45.28125 60.984375 
Q 41.0625 64.453125 32.8125 64.453125 
Q 24.21875 64.453125 20.28125 61.296875 
Q 16.359375 58.15625 16.359375 53.71875 
Q 16.359375 49.859375 19.140625 47.359375 
Q 21.875 44.875 33.421875 42.265625 
Q 44.96875 39.65625 49.265625 37.703125 
Q 55.515625 34.8125 58.484375 30.390625 
Q 61.46875 25.984375 61.46875 20.21875 
Q 61.46875 14.5 58.203125 9.4375 
Q 54.9375 4.390625 48.796875 1.578125 
Q 42.671875 -1.21875 35.015625 -1.21875 
Q 25.296875 -1.21875 18.71875 1.609375 
Q 12.15625 4.4375 8.421875 10.125 
Q 4.6875 15.828125 4.5 23 
z
" id="ArialMT-83"/>
    <path d="M 7.90625 0 
L 7.90625 71.578125 
L 59.671875 71.578125 
L 59.671875 63.140625 
L 17.390625 63.140625 
L 17.390625 41.21875 
L 56.984375 41.21875 
L 56.984375 32.8125 
L 17.390625 32.8125 
L 17.390625 8.453125 
L 61.328125 8.453125 
L 61.328125 0 
z
" id="ArialMT-69"/>
    <path d="M 9.328125 0 
L 9.328125 71.578125 
L 18.796875 71.578125 
L 18.796875 0 
z
" id="ArialMT-73"/>
    <path d="M 7.859375 0 
L 7.859375 71.578125 
L 39.59375 71.578125 
Q 49.171875 71.578125 54.140625 69.640625 
Q 59.125 67.71875 62.109375 62.828125 
Q 65.09375 57.953125 65.09375 52.046875 
Q 65.09375 44.4375 60.15625 39.203125 
Q 55.21875 33.984375 44.921875 32.5625 
Q 48.6875 30.765625 50.640625 29 
Q 54.78125 25.203125 58.5 19.484375 
L 70.953125 0 
L 59.03125 0 
L 49.5625 14.890625 
Q 45.40625 21.34375 42.71875 24.75 
Q 40.046875 28.171875 37.921875 29.53125 
Q 35.796875 30.90625 33.59375 31.453125 
Q 31.984375 31.78125 28.328125 31.78125 
L 17.328125 31.78125 
L 17.328125 0 
z
M 17.328125 39.984375 
L 37.703125 39.984375 
Q 44.1875 39.984375 47.84375 41.328125 
Q 51.515625 42.671875 53.421875 45.625 
Q 55.328125 48.578125 55.328125 52.046875 
Q 55.328125 57.125 51.640625 60.390625 
Q 47.953125 63.671875 39.984375 63.671875 
L 17.328125 63.671875 
z
" id="ArialMT-82"/>
    <path d="M 21 0 
L 1.265625 51.859375 
L 10.546875 51.859375 
L 21.6875 20.796875 
Q 23.484375 15.765625 25 10.359375 
Q 26.171875 14.453125 28.265625 20.21875 
L 39.796875 51.859375 
L 48.828125 51.859375 
L 29.203125 0 
z
" id="ArialMT-118"/>
    <path d="M 16.890625 72.90625 
L 30.171875 72.90625 
L 50.296875 10.40625 
L 62.5 72.90625 
L 72.125 72.90625 
L 57.90625 0 
L 44.578125 0 
L 24.515625 62.890625 
L 12.3125 0 
L 2.6875 0 
z
" id="DejaVuSans-Oblique-78"/>
    <path d="M 11.71875 12.40625 
L 22.015625 12.40625 
L 22.015625 4 
L 14.015625 -11.625 
L 7.71875 -11.625 
L 11.71875 4 
z
" id="DejaVuSans-44"/>
    <path d="M 8.9375 31.34375 
L 22.703125 75.875 
L 31 75.875 
L 17.234375 31.34375 
L 31 -13.1875 
L 22.703125 -13.1875 
z
" id="DejaVuSans-10216"/>
    <path d="M 18.3125 75.984375 
L 27.296875 75.984375 
L 18.703125 31.6875 
L 49.515625 54.6875 
L 61.1875 54.6875 
L 26.8125 28.515625 
L 51.90625 0 
L 41.015625 0 
L 17.671875 26.703125 
L 12.5 0 
L 3.515625 0 
z
" id="DejaVuSans-Oblique-107"/>
    <path d="M 30.078125 31.34375 
L 16.3125 -13.1875 
L 8.015625 -13.1875 
L 21.78125 31.34375 
L 8.015625 75.875 
L 16.3125 75.875 
z
" id="DejaVuSans-10217"/>
    <path d="M 37.796875 64.3125 
L 12.890625 25.390625 
L 37.796875 25.390625 
z
M 35.203125 72.90625 
L 47.609375 72.90625 
L 47.609375 25.390625 
L 58.015625 25.390625 
L 58.015625 17.1875 
L 47.609375 17.1875 
L 47.609375 0 
L 37.796875 0 
L 37.796875 17.1875 
L 4.890625 17.1875 
L 4.890625 26.703125 
z
" id="DejaVuSans-52"/>
    <path d="M 44.578125 46.390625 
Q 43.21875 47.125 41.453125 47.515625 
Q 39.703125 47.90625 37.703125 47.90625 
Q 30.515625 47.90625 25.140625 42.453125 
Q 19.78125 37.015625 18.015625 27.875 
L 12.5 0 
L 3.515625 0 
L 14.203125 54.6875 
L 23.1875 54.6875 
L 21.484375 46.1875 
Q 25.046875 50.921875 30 53.453125 
Q 34.96875 56 40.578125 56 
Q 42.046875 56 43.453125 55.828125 
Q 44.875 55.671875 46.296875 55.28125 
z
" id="DejaVuSans-Oblique-114"/>
    <path d="M 8.5 54.6875 
L 17.390625 54.6875 
L 19.671875 10.6875 
L 40.09375 54.6875 
L 50.484375 54.6875 
L 53.515625 10.6875 
L 72.90625 54.6875 
L 81.890625 54.6875 
L 56.890625 0 
L 46.390625 0 
L 43.703125 45.3125 
L 22.796875 0 
L 12.203125 0 
z
" id="DejaVuSans-Oblique-119"/>
    <path d="M 18.3125 75.984375 
L 27.296875 75.984375 
L 25.09375 64.59375 
L 16.109375 64.59375 
z
M 14.203125 54.6875 
L 23.1875 54.6875 
L 12.5 0 
L 3.515625 0 
z
" id="DejaVuSans-Oblique-105"/>
    <path d="M 10.796875 72.90625 
L 49.515625 72.90625 
L 49.515625 64.59375 
L 19.828125 64.59375 
L 19.828125 46.734375 
Q 21.96875 47.46875 24.109375 47.828125 
Q 26.265625 48.1875 28.421875 48.1875 
Q 40.625 48.1875 47.75 41.5 
Q 54.890625 34.8125 54.890625 23.390625 
Q 54.890625 11.625 47.5625 5.09375 
Q 40.234375 -1.421875 26.90625 -1.421875 
Q 22.3125 -1.421875 17.546875 -0.640625 
Q 12.796875 0.140625 7.71875 1.703125 
L 7.71875 11.625 
Q 12.109375 9.234375 16.796875 8.0625 
Q 21.484375 6.890625 26.703125 6.890625 
Q 35.15625 6.890625 40.078125 11.328125 
Q 45.015625 15.765625 45.015625 23.390625 
Q 45.015625 31 40.078125 35.4375 
Q 35.15625 39.890625 26.703125 39.890625 
Q 22.75 39.890625 18.8125 39.015625 
Q 14.890625 38.140625 10.796875 36.28125 
z
" id="DejaVuSans-53"/>
   </defs>
   <g style="fill:#262626;" transform="translate(128.904531 16.32)scale(0.12 -0.12)">
    <use transform="translate(0 0.015625)" xlink:href="#ArialMT-83"/>
    <use transform="translate(66.699219 0.015625)" xlink:href="#ArialMT-69"/>
    <use transform="translate(133.398438 0.015625)" xlink:href="#ArialMT-73"/>
    <use transform="translate(161.181641 0.015625)" xlink:href="#ArialMT-82"/>
    <use transform="translate(233.398438 0.015625)" xlink:href="#ArialMT-32"/>
    <use transform="translate(261.181641 0.015625)" xlink:href="#ArialMT-111"/>
    <use transform="translate(316.796875 0.015625)" xlink:href="#ArialMT-110"/>
    <use transform="translate(372.412109 0.015625)" xlink:href="#ArialMT-32"/>
    <use transform="translate(400.195312 0.015625)" xlink:href="#ArialMT-69"/>
    <use transform="translate(466.894531 0.015625)" xlink:href="#ArialMT-82"/>
    <use transform="translate(539.111328 0.015625)" xlink:href="#ArialMT-32"/>
    <use transform="translate(566.894531 0.015625)" xlink:href="#ArialMT-102"/>
    <use transform="translate(594.677734 0.015625)" xlink:href="#ArialMT-111"/>
    <use transform="translate(650.292969 0.015625)" xlink:href="#ArialMT-114"/>
    <use transform="translate(683.59375 0.015625)" xlink:href="#ArialMT-32"/>
    <use transform="translate(711.376953 0.015625)" xlink:href="#ArialMT-100"/>
    <use transform="translate(766.992188 0.015625)" xlink:href="#ArialMT-105"/>
    <use transform="translate(789.208984 0.015625)" xlink:href="#ArialMT-102"/>
    <use transform="translate(816.992188 0.015625)" xlink:href="#ArialMT-102"/>
    <use transform="translate(844.775391 0.015625)" xlink:href="#ArialMT-101"/>
    <use transform="translate(900.390625 0.015625)" xlink:href="#ArialMT-114"/>
    <use transform="translate(933.691406 0.015625)" xlink:href="#ArialMT-101"/>
    <use transform="translate(989.306641 0.015625)" xlink:href="#ArialMT-110"/>
    <use transform="translate(1044.921875 0.015625)" xlink:href="#ArialMT-116"/>
    <use transform="translate(1072.705078 0.015625)" xlink:href="#ArialMT-32"/>
    <use transform="translate(1100.488281 0.015625)" xlink:href="#ArialMT-100"/>
    <use transform="translate(1156.103516 0.015625)" xlink:href="#ArialMT-101"/>
    <use transform="translate(1211.71875 0.015625)" xlink:href="#ArialMT-116"/>
    <use transform="translate(1239.501953 0.015625)" xlink:href="#ArialMT-101"/>
    <use transform="translate(1295.117188 0.015625)" xlink:href="#ArialMT-99"/>
    <use transform="translate(1345.117188 0.015625)" xlink:href="#ArialMT-116"/>
    <use transform="translate(1372.900391 0.015625)" xlink:href="#ArialMT-105"/>
    <use transform="translate(1395.117188 0.015625)" xlink:href="#ArialMT-111"/>
    <use transform="translate(1450.732422 0.015625)" xlink:href="#ArialMT-110"/>
    <use transform="translate(1506.347656 0.015625)" xlink:href="#ArialMT-32"/>
    <use transform="translate(1534.130859 0.015625)" xlink:href="#ArialMT-111"/>
    <use transform="translate(1589.746094 0.015625)" xlink:href="#ArialMT-102"/>
    <use transform="translate(1617.529297 0.015625)" xlink:href="#ArialMT-32"/>
    <use transform="translate(1645.3125 0.015625)" xlink:href="#ArialMT-101"/>
    <use transform="translate(1700.927734 0.015625)" xlink:href="#ArialMT-120"/>
    <use transform="translate(1750.927734 0.015625)" xlink:href="#ArialMT-112"/>
    <use transform="translate(1806.542969 0.015625)" xlink:href="#ArialMT-111"/>
    <use transform="translate(1862.158203 0.015625)" xlink:href="#ArialMT-115"/>
    <use transform="translate(1912.158203 0.015625)" xlink:href="#ArialMT-101"/>
    <use transform="translate(1967.773438 0.015625)" xlink:href="#ArialMT-100"/>
    <use transform="translate(2023.388672 0.015625)" xlink:href="#ArialMT-32"/>
    <use transform="translate(2051.171875 0.015625)" xlink:href="#ArialMT-105"/>
    <use transform="translate(2073.388672 0.015625)" xlink:href="#ArialMT-110"/>
    <use transform="translate(2129.003906 0.015625)" xlink:href="#ArialMT-100"/>
    <use transform="translate(2184.619141 0.015625)" xlink:href="#ArialMT-105"/>
    <use transform="translate(2206.835938 0.015625)" xlink:href="#ArialMT-118"/>
    <use transform="translate(2256.835938 0.015625)" xlink:href="#ArialMT-105"/>
    <use transform="translate(2279.052734 0.015625)" xlink:href="#ArialMT-100"/>
    <use transform="translate(2334.667969 0.015625)" xlink:href="#ArialMT-117"/>
    <use transform="translate(2390.283203 0.015625)" xlink:href="#ArialMT-97"/>
    <use transform="translate(2445.898438 0.015625)" xlink:href="#ArialMT-108"/>
    <use transform="translate(2468.115234 0.015625)" xlink:href="#ArialMT-115"/>
    <use transform="translate(2518.115234 0.015625)" xlink:href="#ArialMT-32"/>
    <use transform="translate(2545.898438 0.015625)" xlink:href="#ArialMT-40"/>
    <use transform="translate(2579.199219 0.015625)" xlink:href="#DejaVuSans-Oblique-78"/>
    <use transform="translate(2673.486328 0.015625)" xlink:href="#DejaVuSans-61"/>
    <use transform="translate(2776.757812 0.015625)" xlink:href="#DejaVuSans-49"/>
    <use transform="translate(2840.380859 0.015625)" xlink:href="#DejaVuSans-48"/>
    <use transform="translate(2904.003906 0.015625)" xlink:href="#DejaVuSans-48"/>
    <use transform="translate(2967.626953 0.015625)" xlink:href="#DejaVuSans-48"/>
    <use transform="translate(3031.25 0.015625)" xlink:href="#DejaVuSans-48"/>
    <use transform="translate(3094.873047 0.015625)" xlink:href="#DejaVuSans-44"/>
    <use transform="translate(3146.142578 0.015625)" xlink:href="#DejaVuSans-10216"/>
    <use transform="translate(3185.15625 0.015625)" xlink:href="#DejaVuSans-Oblique-107"/>
    <use transform="translate(3243.066406 0.015625)" xlink:href="#DejaVuSans-10217"/>
    <use transform="translate(3301.5625 0.015625)" xlink:href="#DejaVuSans-61"/>
    <use transform="translate(3404.833984 0.015625)" xlink:href="#DejaVuSans-52"/>
    <use transform="translate(3468.457031 0.015625)" xlink:href="#DejaVuSans-48"/>
    <use transform="translate(3532.080078 0.015625)" xlink:href="#DejaVuSans-44"/>
    <use transform="translate(3583.349609 0.015625)" xlink:href="#DejaVuSans-Oblique-112"/>
    <use transform="translate(3646.826172 -16.390625)scale(0.7)" xlink:href="#DejaVuSans-Oblique-114"/>
    <use transform="translate(3675.605469 -16.390625)scale(0.7)" xlink:href="#DejaVuSans-Oblique-101"/>
    <use transform="translate(3718.671875 -16.390625)scale(0.7)" xlink:href="#DejaVuSans-Oblique-119"/>
    <use transform="translate(3775.922852 -16.390625)scale(0.7)" xlink:href="#DejaVuSans-Oblique-105"/>
    <use transform="translate(3795.371094 -16.390625)scale(0.7)" xlink:href="#DejaVuSans-Oblique-114"/>
    <use transform="translate(3824.150391 -16.390625)scale(0.7)" xlink:href="#DejaVuSans-Oblique-101"/>
    <use transform="translate(3889.433594 0.015625)" xlink:href="#DejaVuSans-61"/>
    <use transform="translate(3992.705078 0.015625)" xlink:href="#DejaVuSans-48"/>
    <use transform="translate(4056.328125 0.015625)" xlink:href="#DejaVuSans-46"/>
    <use transform="translate(4088.115234 0.015625)" xlink:href="#DejaVuSans-53"/>
    <use transform="translate(4151.738281 0.015625)" xlink:href="#ArialMT-41"/>
   </g>
  </g>
 </g>
 <defs>
  <clipPath id="pcaea54f9af">
   <rect height="326.16" width="304.363636" x="56.064531" y="50.4"/>
  </clipPath>
  <clipPath id="p6083d74647">
   <rect height="326.16" width="304.363636" x="421.300895" y="50.4"/>
  </clipPath>
 </defs>
</svg>
