<?xml version="1.0" encoding="utf-8" standalone="no"?>
<!DOCTYPE svg PUBLIC "-//W3C//DTD SVG 1.1//EN"
  "http://www.w3.org/Graphics/SVG/1.1/DTD/svg11.dtd">
<!-- Created with matplotlib (https://matplotlib.org/) -->
<svg height="494.125156pt" version="1.1" viewBox="0 0 506.358464 494.125156" width="506.358464pt" xmlns="http://www.w3.org/2000/svg" xmlns:xlink="http://www.w3.org/1999/xlink">
 <defs>
  <style type="text/css">
*{stroke-linecap:butt;stroke-linejoin:round;}
  </style>
 </defs>
 <g id="figure_1">
  <g id="patch_1">
   <path d="M 0 494.125156 
L 506.358464 494.125156 
L 506.358464 0 
L 0 0 
z
" style="fill:#ffffff;"/>
  </g>
  <g id="axes_1">
   <g id="patch_2">
    <path d="M 50.503594 456.72 
L 496.903594 456.72 
L 496.903594 21.84 
L 50.503594 21.84 
z
" style="fill:#eaeaf2;"/>
   </g>
   <g id="matplotlib.axis_1">
    <g id="xtick_1">
     <g id="line2d_1">
      <path clip-path="url(#p011a7fbd72)" d="M 70.794503 456.72 
L 70.794503 21.84 
" style="fill:none;stroke:#ffffff;stroke-linecap:round;"/>
     </g>
     <g id="line2d_2"/>
     <g id="text_1">
      <!-- 1.00 -->
      <defs>
       <path d="M 37.25 0 
L 28.46875 0 
L 28.46875 56 
Q 25.296875 52.984375 20.140625 49.953125 
Q 14.984375 46.921875 10.890625 45.40625 
L 10.890625 53.90625 
Q 18.265625 57.375 23.78125 62.296875 
Q 29.296875 67.234375 31.59375 71.875 
L 37.25 71.875 
z
" id="ArialMT-49"/>
       <path d="M 9.078125 0 
L 9.078125 10.015625 
L 19.09375 10.015625 
L 19.09375 0 
z
" id="ArialMT-46"/>
       <path d="M 4.15625 35.296875 
Q 4.15625 48 6.765625 55.734375 
Q 9.375 63.484375 14.515625 67.671875 
Q 19.671875 71.875 27.484375 71.875 
Q 33.25 71.875 37.59375 69.546875 
Q 41.9375 67.234375 44.765625 62.859375 
Q 47.609375 58.5 49.21875 52.21875 
Q 50.828125 45.953125 50.828125 35.296875 
Q 50.828125 22.703125 48.234375 14.96875 
Q 45.65625 7.234375 40.5 3 
Q 35.359375 -1.21875 27.484375 -1.21875 
Q 17.140625 -1.21875 11.234375 6.203125 
Q 4.15625 15.140625 4.15625 35.296875 
z
M 13.1875 35.296875 
Q 13.1875 17.671875 17.3125 11.828125 
Q 21.4375 6 27.484375 6 
Q 33.546875 6 37.671875 11.859375 
Q 41.796875 17.71875 41.796875 35.296875 
Q 41.796875 52.984375 37.671875 58.78125 
Q 33.546875 64.59375 27.390625 64.59375 
Q 21.34375 64.59375 17.71875 59.46875 
Q 13.1875 52.9375 13.1875 35.296875 
z
" id="ArialMT-48"/>
      </defs>
      <g style="fill:#262626;" transform="translate(61.064034 470.877812)scale(0.1 -0.1)">
       <use xlink:href="#ArialMT-49"/>
       <use x="55.615234" xlink:href="#ArialMT-46"/>
       <use x="83.398438" xlink:href="#ArialMT-48"/>
       <use x="139.013672" xlink:href="#ArialMT-48"/>
      </g>
     </g>
    </g>
    <g id="xtick_2">
     <g id="line2d_3">
      <path clip-path="url(#p011a7fbd72)" d="M 123.123689 456.72 
L 123.123689 21.84 
" style="fill:none;stroke:#ffffff;stroke-linecap:round;"/>
     </g>
     <g id="line2d_4"/>
     <g id="text_2">
      <!-- 1.25 -->
      <defs>
       <path d="M 50.34375 8.453125 
L 50.34375 0 
L 3.03125 0 
Q 2.9375 3.171875 4.046875 6.109375 
Q 5.859375 10.9375 9.828125 15.625 
Q 13.8125 20.3125 21.34375 26.46875 
Q 33.015625 36.03125 37.109375 41.625 
Q 41.21875 47.21875 41.21875 52.203125 
Q 41.21875 57.421875 37.46875 61 
Q 33.734375 64.59375 27.734375 64.59375 
Q 21.390625 64.59375 17.578125 60.78125 
Q 13.765625 56.984375 13.71875 50.25 
L 4.6875 51.171875 
Q 5.609375 61.28125 11.65625 66.578125 
Q 17.71875 71.875 27.9375 71.875 
Q 38.234375 71.875 44.234375 66.15625 
Q 50.25 60.453125 50.25 52 
Q 50.25 47.703125 48.484375 43.546875 
Q 46.734375 39.40625 42.65625 34.8125 
Q 38.578125 30.21875 29.109375 22.21875 
Q 21.1875 15.578125 18.9375 13.203125 
Q 16.703125 10.84375 15.234375 8.453125 
z
" id="ArialMT-50"/>
       <path d="M 4.15625 18.75 
L 13.375 19.53125 
Q 14.40625 12.796875 18.140625 9.390625 
Q 21.875 6 27.15625 6 
Q 33.5 6 37.890625 10.78125 
Q 42.28125 15.578125 42.28125 23.484375 
Q 42.28125 31 38.0625 35.34375 
Q 33.84375 39.703125 27 39.703125 
Q 22.75 39.703125 19.328125 37.765625 
Q 15.921875 35.84375 13.96875 32.765625 
L 5.71875 33.84375 
L 12.640625 70.609375 
L 48.25 70.609375 
L 48.25 62.203125 
L 19.671875 62.203125 
L 15.828125 42.96875 
Q 22.265625 47.46875 29.34375 47.46875 
Q 38.71875 47.46875 45.15625 40.96875 
Q 51.609375 34.46875 51.609375 24.265625 
Q 51.609375 14.546875 45.953125 7.46875 
Q 39.0625 -1.21875 27.15625 -1.21875 
Q 17.390625 -1.21875 11.203125 4.25 
Q 5.03125 9.71875 4.15625 18.75 
z
" id="ArialMT-53"/>
      </defs>
      <g style="fill:#262626;" transform="translate(113.393221 470.877812)scale(0.1 -0.1)">
       <use xlink:href="#ArialMT-49"/>
       <use x="55.615234" xlink:href="#ArialMT-46"/>
       <use x="83.398438" xlink:href="#ArialMT-50"/>
       <use x="139.013672" xlink:href="#ArialMT-53"/>
      </g>
     </g>
    </g>
    <g id="xtick_3">
     <g id="line2d_5">
      <path clip-path="url(#p011a7fbd72)" d="M 175.452876 456.72 
L 175.452876 21.84 
" style="fill:none;stroke:#ffffff;stroke-linecap:round;"/>
     </g>
     <g id="line2d_6"/>
     <g id="text_3">
      <!-- 1.50 -->
      <g style="fill:#262626;" transform="translate(165.722407 470.877812)scale(0.1 -0.1)">
       <use xlink:href="#ArialMT-49"/>
       <use x="55.615234" xlink:href="#ArialMT-46"/>
       <use x="83.398438" xlink:href="#ArialMT-53"/>
       <use x="139.013672" xlink:href="#ArialMT-48"/>
      </g>
     </g>
    </g>
    <g id="xtick_4">
     <g id="line2d_7">
      <path clip-path="url(#p011a7fbd72)" d="M 227.782063 456.72 
L 227.782063 21.84 
" style="fill:none;stroke:#ffffff;stroke-linecap:round;"/>
     </g>
     <g id="line2d_8"/>
     <g id="text_4">
      <!-- 1.75 -->
      <defs>
       <path d="M 4.734375 62.203125 
L 4.734375 70.65625 
L 51.078125 70.65625 
L 51.078125 63.8125 
Q 44.234375 56.546875 37.515625 44.484375 
Q 30.8125 32.421875 27.15625 19.671875 
Q 24.515625 10.6875 23.78125 0 
L 14.75 0 
Q 14.890625 8.453125 18.0625 20.40625 
Q 21.234375 32.375 27.171875 43.484375 
Q 33.109375 54.59375 39.796875 62.203125 
z
" id="ArialMT-55"/>
      </defs>
      <g style="fill:#262626;" transform="translate(218.051594 470.877812)scale(0.1 -0.1)">
       <use xlink:href="#ArialMT-49"/>
       <use x="55.615234" xlink:href="#ArialMT-46"/>
       <use x="83.398438" xlink:href="#ArialMT-55"/>
       <use x="139.013672" xlink:href="#ArialMT-53"/>
      </g>
     </g>
    </g>
    <g id="xtick_5">
     <g id="line2d_9">
      <path clip-path="url(#p011a7fbd72)" d="M 280.111249 456.72 
L 280.111249 21.84 
" style="fill:none;stroke:#ffffff;stroke-linecap:round;"/>
     </g>
     <g id="line2d_10"/>
     <g id="text_5">
      <!-- 2.00 -->
      <g style="fill:#262626;" transform="translate(270.380781 470.877812)scale(0.1 -0.1)">
       <use xlink:href="#ArialMT-50"/>
       <use x="55.615234" xlink:href="#ArialMT-46"/>
       <use x="83.398438" xlink:href="#ArialMT-48"/>
       <use x="139.013672" xlink:href="#ArialMT-48"/>
      </g>
     </g>
    </g>
    <g id="xtick_6">
     <g id="line2d_11">
      <path clip-path="url(#p011a7fbd72)" d="M 332.440436 456.72 
L 332.440436 21.84 
" style="fill:none;stroke:#ffffff;stroke-linecap:round;"/>
     </g>
     <g id="line2d_12"/>
     <g id="text_6">
      <!-- 2.25 -->
      <g style="fill:#262626;" transform="translate(322.709967 470.877812)scale(0.1 -0.1)">
       <use xlink:href="#ArialMT-50"/>
       <use x="55.615234" xlink:href="#ArialMT-46"/>
       <use x="83.398438" xlink:href="#ArialMT-50"/>
       <use x="139.013672" xlink:href="#ArialMT-53"/>
      </g>
     </g>
    </g>
    <g id="xtick_7">
     <g id="line2d_13">
      <path clip-path="url(#p011a7fbd72)" d="M 384.769622 456.72 
L 384.769622 21.84 
" style="fill:none;stroke:#ffffff;stroke-linecap:round;"/>
     </g>
     <g id="line2d_14"/>
     <g id="text_7">
      <!-- 2.50 -->
      <g style="fill:#262626;" transform="translate(375.039154 470.877812)scale(0.1 -0.1)">
       <use xlink:href="#ArialMT-50"/>
       <use x="55.615234" xlink:href="#ArialMT-46"/>
       <use x="83.398438" xlink:href="#ArialMT-53"/>
       <use x="139.013672" xlink:href="#ArialMT-48"/>
      </g>
     </g>
    </g>
    <g id="xtick_8">
     <g id="line2d_15">
      <path clip-path="url(#p011a7fbd72)" d="M 437.098809 456.72 
L 437.098809 21.84 
" style="fill:none;stroke:#ffffff;stroke-linecap:round;"/>
     </g>
     <g id="line2d_16"/>
     <g id="text_8">
      <!-- 2.75 -->
      <g style="fill:#262626;" transform="translate(427.36834 470.877812)scale(0.1 -0.1)">
       <use xlink:href="#ArialMT-50"/>
       <use x="55.615234" xlink:href="#ArialMT-46"/>
       <use x="83.398438" xlink:href="#ArialMT-55"/>
       <use x="139.013672" xlink:href="#ArialMT-53"/>
      </g>
     </g>
    </g>
    <g id="xtick_9">
     <g id="line2d_17">
      <path clip-path="url(#p011a7fbd72)" d="M 489.427996 456.72 
L 489.427996 21.84 
" style="fill:none;stroke:#ffffff;stroke-linecap:round;"/>
     </g>
     <g id="line2d_18"/>
     <g id="text_9">
      <!-- 3.00 -->
      <defs>
       <path d="M 4.203125 18.890625 
L 12.984375 20.0625 
Q 14.5 12.59375 18.140625 9.296875 
Q 21.78125 6 27 6 
Q 33.203125 6 37.46875 10.296875 
Q 41.75 14.59375 41.75 20.953125 
Q 41.75 27 37.796875 30.921875 
Q 33.84375 34.859375 27.734375 34.859375 
Q 25.25 34.859375 21.53125 33.890625 
L 22.515625 41.609375 
Q 23.390625 41.5 23.921875 41.5 
Q 29.546875 41.5 34.03125 44.421875 
Q 38.53125 47.359375 38.53125 53.46875 
Q 38.53125 58.296875 35.25 61.46875 
Q 31.984375 64.65625 26.8125 64.65625 
Q 21.6875 64.65625 18.265625 61.421875 
Q 14.84375 58.203125 13.875 51.765625 
L 5.078125 53.328125 
Q 6.6875 62.15625 12.390625 67.015625 
Q 18.109375 71.875 26.609375 71.875 
Q 32.46875 71.875 37.390625 69.359375 
Q 42.328125 66.84375 44.9375 62.5 
Q 47.5625 58.15625 47.5625 53.265625 
Q 47.5625 48.640625 45.0625 44.828125 
Q 42.578125 41.015625 37.703125 38.765625 
Q 44.046875 37.3125 47.5625 32.6875 
Q 51.078125 28.078125 51.078125 21.140625 
Q 51.078125 11.765625 44.234375 5.25 
Q 37.40625 -1.265625 26.953125 -1.265625 
Q 17.53125 -1.265625 11.296875 4.34375 
Q 5.078125 9.96875 4.203125 18.890625 
z
" id="ArialMT-51"/>
      </defs>
      <g style="fill:#262626;" transform="translate(479.697527 470.877812)scale(0.1 -0.1)">
       <use xlink:href="#ArialMT-51"/>
       <use x="55.615234" xlink:href="#ArialMT-46"/>
       <use x="83.398438" xlink:href="#ArialMT-48"/>
       <use x="139.013672" xlink:href="#ArialMT-48"/>
      </g>
     </g>
    </g>
    <g id="text_10">
     <!-- $p_{\mathit{infectA}}$ -->
     <defs>
      <path d="M 49.609375 33.6875 
Q 49.609375 40.875 46.484375 44.671875 
Q 43.359375 48.484375 37.5 48.484375 
Q 33.5 48.484375 29.859375 46.4375 
Q 26.21875 44.390625 23.390625 40.484375 
Q 20.609375 36.625 18.9375 31.15625 
Q 17.28125 25.6875 17.28125 20.3125 
Q 17.28125 13.484375 20.40625 9.796875 
Q 23.53125 6.109375 29.296875 6.109375 
Q 33.546875 6.109375 37.1875 8.109375 
Q 40.828125 10.109375 43.40625 13.921875 
Q 46.1875 17.921875 47.890625 23.34375 
Q 49.609375 28.765625 49.609375 33.6875 
z
M 21.78125 46.390625 
Q 25.390625 51.125 30.296875 53.5625 
Q 35.203125 56 41.21875 56 
Q 49.609375 56 54.25 50.5 
Q 58.890625 45.015625 58.890625 35.109375 
Q 58.890625 27 56 19.65625 
Q 53.125 12.3125 47.703125 6.5 
Q 44.09375 2.640625 39.546875 0.609375 
Q 35.015625 -1.421875 29.984375 -1.421875 
Q 24.171875 -1.421875 20.21875 1 
Q 16.265625 3.421875 14.3125 8.203125 
L 8.6875 -20.796875 
L -0.296875 -20.796875 
L 14.40625 54.6875 
L 23.390625 54.6875 
z
" id="DejaVuSans-Oblique-112"/>
      <path d="M 18.3125 75.984375 
L 27.296875 75.984375 
L 25.09375 64.59375 
L 16.109375 64.59375 
z
M 14.203125 54.6875 
L 23.1875 54.6875 
L 12.5 0 
L 3.515625 0 
z
" id="DejaVuSans-Oblique-105"/>
      <path d="M 55.71875 33.015625 
L 49.3125 0 
L 40.28125 0 
L 46.6875 32.671875 
Q 47.125 34.96875 47.359375 36.71875 
Q 47.609375 38.484375 47.609375 39.5 
Q 47.609375 43.609375 45.015625 45.890625 
Q 42.4375 48.1875 37.796875 48.1875 
Q 30.5625 48.1875 25.34375 43.375 
Q 20.125 38.578125 18.5 30.328125 
L 12.5 0 
L 3.515625 0 
L 14.109375 54.6875 
L 23.09375 54.6875 
L 21.296875 46.09375 
Q 25.046875 50.828125 30.3125 53.40625 
Q 35.59375 56 41.40625 56 
Q 48.640625 56 52.609375 52.09375 
Q 56.59375 48.1875 56.59375 41.109375 
Q 56.59375 39.359375 56.375 37.359375 
Q 56.15625 35.359375 55.71875 33.015625 
z
" id="DejaVuSans-Oblique-110"/>
      <path d="M 47.796875 75.984375 
L 46.390625 68.5 
L 37.796875 68.5 
Q 32.90625 68.5 30.6875 66.578125 
Q 28.46875 64.65625 27.390625 59.515625 
L 26.421875 54.6875 
L 41.21875 54.6875 
L 39.890625 47.703125 
L 25.09375 47.703125 
L 15.828125 0 
L 6.78125 0 
L 16.109375 47.703125 
L 7.515625 47.703125 
L 8.796875 54.6875 
L 17.390625 54.6875 
L 18.109375 58.5 
Q 19.96875 68.171875 24.625 72.078125 
Q 29.296875 75.984375 39.3125 75.984375 
z
" id="DejaVuSans-Oblique-102"/>
      <path d="M 48.09375 32.234375 
Q 48.25 33.015625 48.3125 33.84375 
Q 48.390625 34.671875 48.390625 35.5 
Q 48.390625 41.453125 44.890625 44.921875 
Q 41.40625 48.390625 35.40625 48.390625 
Q 28.71875 48.390625 23.578125 44.15625 
Q 18.453125 39.9375 15.828125 32.171875 
z
M 55.90625 25.203125 
L 14.109375 25.203125 
Q 13.8125 23.34375 13.71875 22.265625 
Q 13.625 21.1875 13.625 20.40625 
Q 13.625 13.625 17.796875 9.90625 
Q 21.96875 6.203125 29.59375 6.203125 
Q 35.453125 6.203125 40.671875 7.515625 
Q 45.90625 8.84375 50.390625 11.375 
L 48.6875 2.484375 
Q 43.84375 0.53125 38.6875 -0.4375 
Q 33.546875 -1.421875 28.21875 -1.421875 
Q 16.84375 -1.421875 10.71875 4.015625 
Q 4.59375 9.46875 4.59375 19.484375 
Q 4.59375 28.03125 7.640625 35.375 
Q 10.6875 42.71875 16.609375 48.484375 
Q 20.40625 52.09375 25.65625 54.046875 
Q 30.90625 56 36.8125 56 
Q 46.09375 56 51.578125 50.4375 
Q 57.078125 44.875 57.078125 35.5 
Q 57.078125 33.25 56.78125 30.6875 
Q 56.5 28.125 55.90625 25.203125 
z
" id="DejaVuSans-Oblique-101"/>
      <path d="M 53.609375 52.59375 
L 51.8125 43.703125 
Q 48.578125 46.046875 44.9375 47.21875 
Q 41.3125 48.390625 37.40625 48.390625 
Q 33.109375 48.390625 29.21875 46.875 
Q 25.34375 45.359375 22.703125 42.578125 
Q 18.5 38.328125 16.203125 32.609375 
Q 13.921875 26.90625 13.921875 20.796875 
Q 13.921875 13.421875 17.609375 9.8125 
Q 21.296875 6.203125 28.8125 6.203125 
Q 32.515625 6.203125 36.6875 7.328125 
Q 40.875 8.453125 45.40625 10.6875 
L 43.703125 1.8125 
Q 39.796875 0.203125 35.671875 -0.609375 
Q 31.546875 -1.421875 27.203125 -1.421875 
Q 16.3125 -1.421875 10.453125 4.015625 
Q 4.59375 9.46875 4.59375 19.578125 
Q 4.59375 28.078125 7.640625 35.234375 
Q 10.6875 42.390625 16.703125 48.09375 
Q 20.796875 52 26.3125 54 
Q 31.84375 56 38.375 56 
Q 42.1875 56 45.9375 55.140625 
Q 49.703125 54.296875 53.609375 52.59375 
z
" id="DejaVuSans-Oblique-99"/>
      <path d="M 42.28125 54.6875 
L 40.921875 47.703125 
L 23 47.703125 
L 17.1875 18.015625 
Q 16.890625 16.359375 16.75 15.234375 
Q 16.609375 14.109375 16.609375 13.484375 
Q 16.609375 10.359375 18.484375 8.9375 
Q 20.359375 7.515625 24.515625 7.515625 
L 33.59375 7.515625 
L 32.078125 0 
L 23.484375 0 
Q 15.484375 0 11.546875 3.125 
Q 7.625 6.25 7.625 12.59375 
Q 7.625 13.71875 7.765625 15.0625 
Q 7.90625 16.40625 8.203125 18.015625 
L 14.015625 47.703125 
L 6.390625 47.703125 
L 7.8125 54.6875 
L 15.28125 54.6875 
L 18.3125 70.21875 
L 27.296875 70.21875 
L 24.3125 54.6875 
z
" id="DejaVuSans-Oblique-116"/>
      <path d="M 36.8125 72.90625 
L 48 72.90625 
L 61.53125 0 
L 51.21875 0 
L 48.1875 18.703125 
L 15.375 18.703125 
L 5.078125 0 
L -5.328125 0 
z
M 40.375 63.1875 
L 19.921875 26.90625 
L 46.6875 26.90625 
z
" id="DejaVuSans-Oblique-65"/>
     </defs>
     <g style="fill:#262626;" transform="translate(256.543594 484.615156)scale(0.11 -0.11)">
      <use xlink:href="#DejaVuSans-Oblique-112"/>
      <use transform="translate(63.476562 -16.40625)scale(0.7)" xlink:href="#DejaVuSans-Oblique-105"/>
      <use transform="translate(82.924805 -16.40625)scale(0.7)" xlink:href="#DejaVuSans-Oblique-110"/>
      <use transform="translate(127.290039 -16.40625)scale(0.7)" xlink:href="#DejaVuSans-Oblique-102"/>
      <use transform="translate(151.933594 -16.40625)scale(0.7)" xlink:href="#DejaVuSans-Oblique-101"/>
      <use transform="translate(195 -16.40625)scale(0.7)" xlink:href="#DejaVuSans-Oblique-99"/>
      <use transform="translate(233.486328 -16.40625)scale(0.7)" xlink:href="#DejaVuSans-Oblique-116"/>
      <use transform="translate(260.932617 -16.40625)scale(0.7)" xlink:href="#DejaVuSans-Oblique-65"/>
     </g>
    </g>
    <g id="text_11">
     <!-- 1e−5 -->
     <defs>
      <path d="M 42.09375 16.703125 
L 51.171875 15.578125 
Q 49.03125 7.625 43.21875 3.21875 
Q 37.40625 -1.171875 28.375 -1.171875 
Q 17 -1.171875 10.328125 5.828125 
Q 3.65625 12.84375 3.65625 25.484375 
Q 3.65625 38.578125 10.390625 45.796875 
Q 17.140625 53.03125 27.875 53.03125 
Q 38.28125 53.03125 44.875 45.953125 
Q 51.46875 38.875 51.46875 26.03125 
Q 51.46875 25.25 51.421875 23.6875 
L 12.75 23.6875 
Q 13.234375 15.140625 17.578125 10.59375 
Q 21.921875 6.0625 28.421875 6.0625 
Q 33.25 6.0625 36.671875 8.59375 
Q 40.09375 11.140625 42.09375 16.703125 
z
M 13.234375 30.90625 
L 42.1875 30.90625 
Q 41.609375 37.453125 38.875 40.71875 
Q 34.671875 45.796875 27.984375 45.796875 
Q 21.921875 45.796875 17.796875 41.75 
Q 13.671875 37.703125 13.234375 30.90625 
z
" id="ArialMT-101"/>
      <path d="M 52.828125 31.203125 
L 5.5625 31.203125 
L 5.5625 39.40625 
L 52.828125 39.40625 
z
" id="ArialMT-8722"/>
     </defs>
     <g style="fill:#262626;" transform="translate(474.380156 483.023125)scale(0.1 -0.1)">
      <use xlink:href="#ArialMT-49"/>
      <use x="55.615234" xlink:href="#ArialMT-101"/>
      <use x="111.230469" xlink:href="#ArialMT-8722"/>
      <use x="169.628906" xlink:href="#ArialMT-53"/>
     </g>
    </g>
   </g>
   <g id="matplotlib.axis_2">
    <g id="ytick_1">
     <g id="line2d_19">
      <path clip-path="url(#p011a7fbd72)" d="M 50.503594 437.290464 
L 496.903594 437.290464 
" style="fill:none;stroke:#ffffff;stroke-linecap:round;"/>
     </g>
     <g id="line2d_20"/>
     <g id="text_12">
      <!-- 0 -->
      <g style="fill:#262626;" transform="translate(37.942656 440.869371)scale(0.1 -0.1)">
       <use xlink:href="#ArialMT-48"/>
      </g>
     </g>
    </g>
    <g id="ytick_2">
     <g id="line2d_21">
      <path clip-path="url(#p011a7fbd72)" d="M 50.503594 340.794137 
L 496.903594 340.794137 
" style="fill:none;stroke:#ffffff;stroke-linecap:round;"/>
     </g>
     <g id="line2d_22"/>
     <g id="text_13">
      <!-- 2000 -->
      <g style="fill:#262626;" transform="translate(21.259844 344.373043)scale(0.1 -0.1)">
       <use xlink:href="#ArialMT-50"/>
       <use x="55.615234" xlink:href="#ArialMT-48"/>
       <use x="111.230469" xlink:href="#ArialMT-48"/>
       <use x="166.845703" xlink:href="#ArialMT-48"/>
      </g>
     </g>
    </g>
    <g id="ytick_3">
     <g id="line2d_23">
      <path clip-path="url(#p011a7fbd72)" d="M 50.503594 244.297809 
L 496.903594 244.297809 
" style="fill:none;stroke:#ffffff;stroke-linecap:round;"/>
     </g>
     <g id="line2d_24"/>
     <g id="text_14">
      <!-- 4000 -->
      <defs>
       <path d="M 32.328125 0 
L 32.328125 17.140625 
L 1.265625 17.140625 
L 1.265625 25.203125 
L 33.9375 71.578125 
L 41.109375 71.578125 
L 41.109375 25.203125 
L 50.78125 25.203125 
L 50.78125 17.140625 
L 41.109375 17.140625 
L 41.109375 0 
z
M 32.328125 25.203125 
L 32.328125 57.46875 
L 9.90625 25.203125 
z
" id="ArialMT-52"/>
      </defs>
      <g style="fill:#262626;" transform="translate(21.259844 247.876715)scale(0.1 -0.1)">
       <use xlink:href="#ArialMT-52"/>
       <use x="55.615234" xlink:href="#ArialMT-48"/>
       <use x="111.230469" xlink:href="#ArialMT-48"/>
       <use x="166.845703" xlink:href="#ArialMT-48"/>
      </g>
     </g>
    </g>
    <g id="ytick_4">
     <g id="line2d_25">
      <path clip-path="url(#p011a7fbd72)" d="M 50.503594 147.801481 
L 496.903594 147.801481 
" style="fill:none;stroke:#ffffff;stroke-linecap:round;"/>
     </g>
     <g id="line2d_26"/>
     <g id="text_15">
      <!-- 6000 -->
      <defs>
       <path d="M 49.75 54.046875 
L 41.015625 53.375 
Q 39.84375 58.546875 37.703125 60.890625 
Q 34.125 64.65625 28.90625 64.65625 
Q 24.703125 64.65625 21.53125 62.3125 
Q 17.390625 59.28125 14.984375 53.46875 
Q 12.59375 47.65625 12.5 36.921875 
Q 15.671875 41.75 20.265625 44.09375 
Q 24.859375 46.4375 29.890625 46.4375 
Q 38.671875 46.4375 44.84375 39.96875 
Q 51.03125 33.5 51.03125 23.25 
Q 51.03125 16.5 48.125 10.71875 
Q 45.21875 4.9375 40.140625 1.859375 
Q 35.0625 -1.21875 28.609375 -1.21875 
Q 17.625 -1.21875 10.6875 6.859375 
Q 3.765625 14.9375 3.765625 33.5 
Q 3.765625 54.25 11.421875 63.671875 
Q 18.109375 71.875 29.4375 71.875 
Q 37.890625 71.875 43.28125 67.140625 
Q 48.6875 62.40625 49.75 54.046875 
z
M 13.875 23.1875 
Q 13.875 18.65625 15.796875 14.5 
Q 17.71875 10.359375 21.1875 8.171875 
Q 24.65625 6 28.46875 6 
Q 34.03125 6 38.03125 10.484375 
Q 42.046875 14.984375 42.046875 22.703125 
Q 42.046875 30.125 38.078125 34.390625 
Q 34.125 38.671875 28.125 38.671875 
Q 22.171875 38.671875 18.015625 34.390625 
Q 13.875 30.125 13.875 23.1875 
z
" id="ArialMT-54"/>
      </defs>
      <g style="fill:#262626;" transform="translate(21.259844 151.380388)scale(0.1 -0.1)">
       <use xlink:href="#ArialMT-54"/>
       <use x="55.615234" xlink:href="#ArialMT-48"/>
       <use x="111.230469" xlink:href="#ArialMT-48"/>
       <use x="166.845703" xlink:href="#ArialMT-48"/>
      </g>
     </g>
    </g>
    <g id="ytick_5">
     <g id="line2d_27">
      <path clip-path="url(#p011a7fbd72)" d="M 50.503594 51.305154 
L 496.903594 51.305154 
" style="fill:none;stroke:#ffffff;stroke-linecap:round;"/>
     </g>
     <g id="line2d_28"/>
     <g id="text_16">
      <!-- 8000 -->
      <defs>
       <path d="M 17.671875 38.8125 
Q 12.203125 40.828125 9.5625 44.53125 
Q 6.9375 48.25 6.9375 53.421875 
Q 6.9375 61.234375 12.546875 66.546875 
Q 18.171875 71.875 27.484375 71.875 
Q 36.859375 71.875 42.578125 66.421875 
Q 48.296875 60.984375 48.296875 53.171875 
Q 48.296875 48.1875 45.671875 44.5 
Q 43.0625 40.828125 37.75 38.8125 
Q 44.34375 36.671875 47.78125 31.875 
Q 51.21875 27.09375 51.21875 20.453125 
Q 51.21875 11.28125 44.71875 5.03125 
Q 38.234375 -1.21875 27.640625 -1.21875 
Q 17.046875 -1.21875 10.546875 5.046875 
Q 4.046875 11.328125 4.046875 20.703125 
Q 4.046875 27.6875 7.59375 32.390625 
Q 11.140625 37.109375 17.671875 38.8125 
z
M 15.921875 53.71875 
Q 15.921875 48.640625 19.1875 45.40625 
Q 22.46875 42.1875 27.6875 42.1875 
Q 32.765625 42.1875 36.015625 45.375 
Q 39.265625 48.578125 39.265625 53.21875 
Q 39.265625 58.0625 35.90625 61.359375 
Q 32.5625 64.65625 27.59375 64.65625 
Q 22.5625 64.65625 19.234375 61.421875 
Q 15.921875 58.203125 15.921875 53.71875 
z
M 13.09375 20.65625 
Q 13.09375 16.890625 14.875 13.375 
Q 16.65625 9.859375 20.171875 7.921875 
Q 23.6875 6 27.734375 6 
Q 34.03125 6 38.125 10.046875 
Q 42.234375 14.109375 42.234375 20.359375 
Q 42.234375 26.703125 38.015625 30.859375 
Q 33.796875 35.015625 27.4375 35.015625 
Q 21.234375 35.015625 17.15625 30.90625 
Q 13.09375 26.8125 13.09375 20.65625 
z
" id="ArialMT-56"/>
      </defs>
      <g style="fill:#262626;" transform="translate(21.259844 54.88406)scale(0.1 -0.1)">
       <use xlink:href="#ArialMT-56"/>
       <use x="55.615234" xlink:href="#ArialMT-48"/>
       <use x="111.230469" xlink:href="#ArialMT-48"/>
       <use x="166.845703" xlink:href="#ArialMT-48"/>
      </g>
     </g>
    </g>
    <g id="text_17">
     <!-- population that is... -->
     <defs>
      <path d="M 6.59375 -19.875 
L 6.59375 51.859375 
L 14.59375 51.859375 
L 14.59375 45.125 
Q 17.4375 49.078125 21 51.046875 
Q 24.5625 53.03125 29.640625 53.03125 
Q 36.28125 53.03125 41.359375 49.609375 
Q 46.4375 46.1875 49.015625 39.953125 
Q 51.609375 33.734375 51.609375 26.3125 
Q 51.609375 18.359375 48.75 11.984375 
Q 45.90625 5.609375 40.453125 2.21875 
Q 35.015625 -1.171875 29 -1.171875 
Q 24.609375 -1.171875 21.109375 0.6875 
Q 17.625 2.546875 15.375 5.375 
L 15.375 -19.875 
z
M 14.546875 25.640625 
Q 14.546875 15.625 18.59375 10.84375 
Q 22.65625 6.0625 28.421875 6.0625 
Q 34.28125 6.0625 38.453125 11.015625 
Q 42.625 15.96875 42.625 26.375 
Q 42.625 36.28125 38.546875 41.203125 
Q 34.46875 46.140625 28.8125 46.140625 
Q 23.1875 46.140625 18.859375 40.890625 
Q 14.546875 35.640625 14.546875 25.640625 
z
" id="ArialMT-112"/>
      <path d="M 3.328125 25.921875 
Q 3.328125 40.328125 11.328125 47.265625 
Q 18.015625 53.03125 27.640625 53.03125 
Q 38.328125 53.03125 45.109375 46.015625 
Q 51.90625 39.015625 51.90625 26.65625 
Q 51.90625 16.65625 48.90625 10.90625 
Q 45.90625 5.171875 40.15625 2 
Q 34.421875 -1.171875 27.640625 -1.171875 
Q 16.75 -1.171875 10.03125 5.8125 
Q 3.328125 12.796875 3.328125 25.921875 
z
M 12.359375 25.921875 
Q 12.359375 15.96875 16.703125 11.015625 
Q 21.046875 6.0625 27.640625 6.0625 
Q 34.1875 6.0625 38.53125 11.03125 
Q 42.875 16.015625 42.875 26.21875 
Q 42.875 35.84375 38.5 40.796875 
Q 34.125 45.75 27.640625 45.75 
Q 21.046875 45.75 16.703125 40.8125 
Q 12.359375 35.890625 12.359375 25.921875 
z
" id="ArialMT-111"/>
      <path d="M 40.578125 0 
L 40.578125 7.625 
Q 34.515625 -1.171875 24.125 -1.171875 
Q 19.53125 -1.171875 15.546875 0.578125 
Q 11.578125 2.34375 9.640625 5 
Q 7.71875 7.671875 6.9375 11.53125 
Q 6.390625 14.109375 6.390625 19.734375 
L 6.390625 51.859375 
L 15.1875 51.859375 
L 15.1875 23.09375 
Q 15.1875 16.21875 15.71875 13.8125 
Q 16.546875 10.359375 19.234375 8.375 
Q 21.921875 6.390625 25.875 6.390625 
Q 29.828125 6.390625 33.296875 8.421875 
Q 36.765625 10.453125 38.203125 13.9375 
Q 39.65625 17.4375 39.65625 24.078125 
L 39.65625 51.859375 
L 48.4375 51.859375 
L 48.4375 0 
z
" id="ArialMT-117"/>
      <path d="M 6.390625 0 
L 6.390625 71.578125 
L 15.1875 71.578125 
L 15.1875 0 
z
" id="ArialMT-108"/>
      <path d="M 40.4375 6.390625 
Q 35.546875 2.25 31.03125 0.53125 
Q 26.515625 -1.171875 21.34375 -1.171875 
Q 12.796875 -1.171875 8.203125 3 
Q 3.609375 7.171875 3.609375 13.671875 
Q 3.609375 17.484375 5.34375 20.625 
Q 7.078125 23.78125 9.890625 25.6875 
Q 12.703125 27.59375 16.21875 28.5625 
Q 18.796875 29.25 24.03125 29.890625 
Q 34.671875 31.15625 39.703125 32.90625 
Q 39.75 34.71875 39.75 35.203125 
Q 39.75 40.578125 37.25 42.78125 
Q 33.890625 45.75 27.25 45.75 
Q 21.046875 45.75 18.09375 43.578125 
Q 15.140625 41.40625 13.71875 35.890625 
L 5.125 37.0625 
Q 6.296875 42.578125 8.984375 45.96875 
Q 11.671875 49.359375 16.75 51.1875 
Q 21.828125 53.03125 28.515625 53.03125 
Q 35.15625 53.03125 39.296875 51.46875 
Q 43.453125 49.90625 45.40625 47.53125 
Q 47.359375 45.171875 48.140625 41.546875 
Q 48.578125 39.3125 48.578125 33.453125 
L 48.578125 21.734375 
Q 48.578125 9.46875 49.140625 6.21875 
Q 49.703125 2.984375 51.375 0 
L 42.1875 0 
Q 40.828125 2.734375 40.4375 6.390625 
z
M 39.703125 26.03125 
Q 34.90625 24.078125 25.34375 22.703125 
Q 19.921875 21.921875 17.671875 20.9375 
Q 15.4375 19.96875 14.203125 18.09375 
Q 12.984375 16.21875 12.984375 13.921875 
Q 12.984375 10.40625 15.640625 8.0625 
Q 18.3125 5.71875 23.4375 5.71875 
Q 28.515625 5.71875 32.46875 7.9375 
Q 36.421875 10.15625 38.28125 14.015625 
Q 39.703125 17 39.703125 22.796875 
z
" id="ArialMT-97"/>
      <path d="M 25.78125 7.859375 
L 27.046875 0.09375 
Q 23.34375 -0.6875 20.40625 -0.6875 
Q 15.625 -0.6875 12.984375 0.828125 
Q 10.359375 2.34375 9.28125 4.8125 
Q 8.203125 7.28125 8.203125 15.1875 
L 8.203125 45.015625 
L 1.765625 45.015625 
L 1.765625 51.859375 
L 8.203125 51.859375 
L 8.203125 64.703125 
L 16.9375 69.96875 
L 16.9375 51.859375 
L 25.78125 51.859375 
L 25.78125 45.015625 
L 16.9375 45.015625 
L 16.9375 14.703125 
Q 16.9375 10.9375 17.40625 9.859375 
Q 17.875 8.796875 18.921875 8.15625 
Q 19.96875 7.515625 21.921875 7.515625 
Q 23.390625 7.515625 25.78125 7.859375 
z
" id="ArialMT-116"/>
      <path d="M 6.640625 61.46875 
L 6.640625 71.578125 
L 15.4375 71.578125 
L 15.4375 61.46875 
z
M 6.640625 0 
L 6.640625 51.859375 
L 15.4375 51.859375 
L 15.4375 0 
z
" id="ArialMT-105"/>
      <path d="M 6.59375 0 
L 6.59375 51.859375 
L 14.5 51.859375 
L 14.5 44.484375 
Q 20.21875 53.03125 31 53.03125 
Q 35.6875 53.03125 39.625 51.34375 
Q 43.5625 49.65625 45.515625 46.921875 
Q 47.46875 44.1875 48.25 40.4375 
Q 48.734375 37.984375 48.734375 31.890625 
L 48.734375 0 
L 39.9375 0 
L 39.9375 31.546875 
Q 39.9375 36.921875 38.90625 39.578125 
Q 37.890625 42.234375 35.28125 43.8125 
Q 32.671875 45.40625 29.15625 45.40625 
Q 23.53125 45.40625 19.453125 41.84375 
Q 15.375 38.28125 15.375 28.328125 
L 15.375 0 
z
" id="ArialMT-110"/>
      <path id="ArialMT-32"/>
      <path d="M 6.59375 0 
L 6.59375 71.578125 
L 15.375 71.578125 
L 15.375 45.90625 
Q 21.53125 53.03125 30.90625 53.03125 
Q 36.671875 53.03125 40.921875 50.75 
Q 45.171875 48.484375 47 44.484375 
Q 48.828125 40.484375 48.828125 32.859375 
L 48.828125 0 
L 40.046875 0 
L 40.046875 32.859375 
Q 40.046875 39.453125 37.1875 42.453125 
Q 34.328125 45.453125 29.109375 45.453125 
Q 25.203125 45.453125 21.75 43.421875 
Q 18.3125 41.40625 16.84375 37.9375 
Q 15.375 34.46875 15.375 28.375 
L 15.375 0 
z
" id="ArialMT-104"/>
      <path d="M 3.078125 15.484375 
L 11.765625 16.84375 
Q 12.5 11.625 15.84375 8.84375 
Q 19.1875 6.0625 25.203125 6.0625 
Q 31.25 6.0625 34.171875 8.515625 
Q 37.109375 10.984375 37.109375 14.3125 
Q 37.109375 17.28125 34.515625 19 
Q 32.71875 20.171875 25.53125 21.96875 
Q 15.875 24.421875 12.140625 26.203125 
Q 8.40625 27.984375 6.46875 31.125 
Q 4.546875 34.28125 4.546875 38.09375 
Q 4.546875 41.546875 6.125 44.5 
Q 7.71875 47.46875 10.453125 49.421875 
Q 12.5 50.921875 16.03125 51.96875 
Q 19.578125 53.03125 23.640625 53.03125 
Q 29.734375 53.03125 34.34375 51.265625 
Q 38.96875 49.515625 41.15625 46.5 
Q 43.359375 43.5 44.1875 38.484375 
L 35.59375 37.3125 
Q 35.015625 41.3125 32.203125 43.546875 
Q 29.390625 45.796875 24.265625 45.796875 
Q 18.21875 45.796875 15.625 43.796875 
Q 13.03125 41.796875 13.03125 39.109375 
Q 13.03125 37.40625 14.109375 36.03125 
Q 15.1875 34.625 17.484375 33.6875 
Q 18.796875 33.203125 25.25 31.453125 
Q 34.578125 28.953125 38.25 27.359375 
Q 41.9375 25.78125 44.03125 22.75 
Q 46.140625 19.734375 46.140625 15.234375 
Q 46.140625 10.84375 43.578125 6.953125 
Q 41.015625 3.078125 36.171875 0.953125 
Q 31.34375 -1.171875 25.25 -1.171875 
Q 15.140625 -1.171875 9.84375 3.03125 
Q 4.546875 7.234375 3.078125 15.484375 
z
" id="ArialMT-115"/>
     </defs>
     <g style="fill:#262626;" transform="translate(15.073594 285.446484)rotate(-90)scale(0.11 -0.11)">
      <use xlink:href="#ArialMT-112"/>
      <use x="55.615234" xlink:href="#ArialMT-111"/>
      <use x="111.230469" xlink:href="#ArialMT-112"/>
      <use x="166.845703" xlink:href="#ArialMT-117"/>
      <use x="222.460938" xlink:href="#ArialMT-108"/>
      <use x="244.677734" xlink:href="#ArialMT-97"/>
      <use x="300.292969" xlink:href="#ArialMT-116"/>
      <use x="328.076172" xlink:href="#ArialMT-105"/>
      <use x="350.292969" xlink:href="#ArialMT-111"/>
      <use x="405.908203" xlink:href="#ArialMT-110"/>
      <use x="461.523438" xlink:href="#ArialMT-32"/>
      <use x="489.306641" xlink:href="#ArialMT-116"/>
      <use x="517.089844" xlink:href="#ArialMT-104"/>
      <use x="572.705078" xlink:href="#ArialMT-97"/>
      <use x="628.320312" xlink:href="#ArialMT-116"/>
      <use x="656.103516" xlink:href="#ArialMT-32"/>
      <use x="683.886719" xlink:href="#ArialMT-105"/>
      <use x="706.103516" xlink:href="#ArialMT-115"/>
      <use x="756.103516" xlink:href="#ArialMT-46"/>
      <use x="783.886719" xlink:href="#ArialMT-46"/>
      <use x="811.669922" xlink:href="#ArialMT-46"/>
     </g>
    </g>
   </g>
   <g id="line2d_29">
    <defs>
     <path d="M -0.49999 0.49999 
L 0.50001 0.49999 
L 0.50001 -0.50001 
L -0.49999 -0.50001 
z
" id="m5f747ab3fd"/>
    </defs>
    <g clip-path="url(#p011a7fbd72)">
     <use style="fill:#ff0000;" x="476.612685" xlink:href="#m5f747ab3fd" y="54.344788"/>
     <use style="fill:#ff0000;" x="476.612685" xlink:href="#m5f747ab3fd" y="46.190848"/>
     <use style="fill:#ff0000;" x="476.612685" xlink:href="#m5f747ab3fd" y="53.958803"/>
     <use style="fill:#ff0000;" x="476.612685" xlink:href="#m5f747ab3fd" y="45.708367"/>
     <use style="fill:#ff0000;" x="476.612685" xlink:href="#m5f747ab3fd" y="56.033474"/>
     <use style="fill:#ff0000;" x="476.612685" xlink:href="#m5f747ab3fd" y="50.34019"/>
     <use style="fill:#ff0000;" x="476.612685" xlink:href="#m5f747ab3fd" y="47.059315"/>
     <use style="fill:#ff0000;" x="476.612685" xlink:href="#m5f747ab3fd" y="48.313768"/>
     <use style="fill:#ff0000;" x="476.612685" xlink:href="#m5f747ab3fd" y="46.480337"/>
     <use style="fill:#ff0000;" x="476.612685" xlink:href="#m5f747ab3fd" y="44.019681"/>
     <use style="fill:#ff0000;" x="476.612685" xlink:href="#m5f747ab3fd" y="55.502744"/>
     <use style="fill:#ff0000;" x="476.612685" xlink:href="#m5f747ab3fd" y="54.055299"/>
     <use style="fill:#ff0000;" x="476.612685" xlink:href="#m5f747ab3fd" y="51.256905"/>
     <use style="fill:#ff0000;" x="476.612685" xlink:href="#m5f747ab3fd" y="49.085738"/>
     <use style="fill:#ff0000;" x="476.612685" xlink:href="#m5f747ab3fd" y="49.278731"/>
     <use style="fill:#ff0000;" x="476.612685" xlink:href="#m5f747ab3fd" y="52.173621"/>
     <use style="fill:#ff0000;" x="476.612685" xlink:href="#m5f747ab3fd" y="56.612452"/>
     <use style="fill:#ff0000;" x="476.612685" xlink:href="#m5f747ab3fd" y="53.042088"/>
     <use style="fill:#ff0000;" x="476.612685" xlink:href="#m5f747ab3fd" y="55.59924"/>
     <use style="fill:#ff0000;" x="476.612685" xlink:href="#m5f747ab3fd" y="45.901359"/>
     <use style="fill:#ff0000;" x="476.612685" xlink:href="#m5f747ab3fd" y="51.353402"/>
     <use style="fill:#ff0000;" x="476.612685" xlink:href="#m5f747ab3fd" y="50.484935"/>
     <use style="fill:#ff0000;" x="476.612685" xlink:href="#m5f747ab3fd" y="53.186832"/>
     <use style="fill:#ff0000;" x="476.612685" xlink:href="#m5f747ab3fd" y="55.06851"/>
     <use style="fill:#ff0000;" x="476.612685" xlink:href="#m5f747ab3fd" y="51.980628"/>
     <use style="fill:#ff0000;" x="476.612685" xlink:href="#m5f747ab3fd" y="51.739387"/>
     <use style="fill:#ff0000;" x="476.612685" xlink:href="#m5f747ab3fd" y="50.243694"/>
     <use style="fill:#ff0000;" x="476.612685" xlink:href="#m5f747ab3fd" y="46.769826"/>
     <use style="fill:#ff0000;" x="476.612685" xlink:href="#m5f747ab3fd" y="53.186832"/>
     <use style="fill:#ff0000;" x="476.612685" xlink:href="#m5f747ab3fd" y="55.020262"/>
     <use style="fill:#ff0000;" x="476.612685" xlink:href="#m5f747ab3fd" y="53.910555"/>
     <use style="fill:#ff0000;" x="476.612685" xlink:href="#m5f747ab3fd" y="53.669314"/>
     <use style="fill:#ff0000;" x="476.612685" xlink:href="#m5f747ab3fd" y="50.967417"/>
     <use style="fill:#ff0000;" x="476.612685" xlink:href="#m5f747ab3fd" y="54.441284"/>
     <use style="fill:#ff0000;" x="476.612685" xlink:href="#m5f747ab3fd" y="52.559606"/>
     <use style="fill:#ff0000;" x="476.612685" xlink:href="#m5f747ab3fd" y="50.050701"/>
     <use style="fill:#ff0000;" x="476.612685" xlink:href="#m5f747ab3fd" y="49.809461"/>
     <use style="fill:#ff0000;" x="476.612685" xlink:href="#m5f747ab3fd" y="53.814058"/>
     <use style="fill:#ff0000;" x="476.612685" xlink:href="#m5f747ab3fd" y="50.050701"/>
     <use style="fill:#ff0000;" x="476.612685" xlink:href="#m5f747ab3fd" y="50.243694"/>
     <use style="fill:#ff0000;" x="476.612685" xlink:href="#m5f747ab3fd" y="52.077124"/>
     <use style="fill:#ff0000;" x="476.612685" xlink:href="#m5f747ab3fd" y="52.221869"/>
     <use style="fill:#ff0000;" x="476.612685" xlink:href="#m5f747ab3fd" y="50.34019"/>
     <use style="fill:#ff0000;" x="476.612685" xlink:href="#m5f747ab3fd" y="49.616468"/>
     <use style="fill:#ff0000;" x="476.612685" xlink:href="#m5f747ab3fd" y="54.537781"/>
     <use style="fill:#ff0000;" x="476.612685" xlink:href="#m5f747ab3fd" y="49.857709"/>
     <use style="fill:#ff0000;" x="476.612685" xlink:href="#m5f747ab3fd" y="48.458512"/>
     <use style="fill:#ff0000;" x="476.612685" xlink:href="#m5f747ab3fd" y="51.594643"/>
     <use style="fill:#ff0000;" x="476.612685" xlink:href="#m5f747ab3fd" y="51.691139"/>
     <use style="fill:#ff0000;" x="476.612685" xlink:href="#m5f747ab3fd" y="56.033474"/>
     <use style="fill:#ff0000;" x="476.612685" xlink:href="#m5f747ab3fd" y="52.511358"/>
     <use style="fill:#ff0000;" x="476.612685" xlink:href="#m5f747ab3fd" y="59.603838"/>
     <use style="fill:#ff0000;" x="476.612685" xlink:href="#m5f747ab3fd" y="52.46311"/>
     <use style="fill:#ff0000;" x="476.612685" xlink:href="#m5f747ab3fd" y="53.428073"/>
     <use style="fill:#ff0000;" x="476.612685" xlink:href="#m5f747ab3fd" y="55.695737"/>
     <use style="fill:#ff0000;" x="476.612685" xlink:href="#m5f747ab3fd" y="49.133986"/>
     <use style="fill:#ff0000;" x="476.612685" xlink:href="#m5f747ab3fd" y="51.015665"/>
     <use style="fill:#ff0000;" x="476.612685" xlink:href="#m5f747ab3fd" y="46.528585"/>
     <use style="fill:#ff0000;" x="476.612685" xlink:href="#m5f747ab3fd" y="51.594643"/>
     <use style="fill:#ff0000;" x="476.612685" xlink:href="#m5f747ab3fd" y="54.682525"/>
     <use style="fill:#ff0000;" x="476.612685" xlink:href="#m5f747ab3fd" y="51.305154"/>
     <use style="fill:#ff0000;" x="476.612685" xlink:href="#m5f747ab3fd" y="44.164425"/>
     <use style="fill:#ff0000;" x="476.612685" xlink:href="#m5f747ab3fd" y="50.195446"/>
     <use style="fill:#ff0000;" x="476.612685" xlink:href="#m5f747ab3fd" y="48.313768"/>
     <use style="fill:#ff0000;" x="476.612685" xlink:href="#m5f747ab3fd" y="52.270117"/>
     <use style="fill:#ff0000;" x="476.612685" xlink:href="#m5f747ab3fd" y="51.93238"/>
     <use style="fill:#ff0000;" x="476.612685" xlink:href="#m5f747ab3fd" y="58.880115"/>
     <use style="fill:#ff0000;" x="476.612685" xlink:href="#m5f747ab3fd" y="51.642891"/>
     <use style="fill:#ff0000;" x="476.612685" xlink:href="#m5f747ab3fd" y="55.309751"/>
     <use style="fill:#ff0000;" x="476.612685" xlink:href="#m5f747ab3fd" y="53.042088"/>
     <use style="fill:#ff0000;" x="476.612685" xlink:href="#m5f747ab3fd" y="52.559606"/>
     <use style="fill:#ff0000;" x="476.612685" xlink:href="#m5f747ab3fd" y="52.125372"/>
     <use style="fill:#ff0000;" x="476.612685" xlink:href="#m5f747ab3fd" y="53.669314"/>
     <use style="fill:#ff0000;" x="476.612685" xlink:href="#m5f747ab3fd" y="53.524569"/>
     <use style="fill:#ff0000;" x="476.612685" xlink:href="#m5f747ab3fd" y="49.133986"/>
     <use style="fill:#ff0000;" x="476.612685" xlink:href="#m5f747ab3fd" y="55.165007"/>
     <use style="fill:#ff0000;" x="476.612685" xlink:href="#m5f747ab3fd" y="47.011067"/>
     <use style="fill:#ff0000;" x="476.612685" xlink:href="#m5f747ab3fd" y="58.252889"/>
     <use style="fill:#ff0000;" x="476.612685" xlink:href="#m5f747ab3fd" y="50.050701"/>
     <use style="fill:#ff0000;" x="476.612685" xlink:href="#m5f747ab3fd" y="49.712964"/>
     <use style="fill:#ff0000;" x="476.612685" xlink:href="#m5f747ab3fd" y="48.796249"/>
     <use style="fill:#ff0000;" x="476.612685" xlink:href="#m5f747ab3fd" y="53.23508"/>
     <use style="fill:#ff0000;" x="476.612685" xlink:href="#m5f747ab3fd" y="55.165007"/>
     <use style="fill:#ff0000;" x="476.612685" xlink:href="#m5f747ab3fd" y="49.471723"/>
     <use style="fill:#ff0000;" x="476.612685" xlink:href="#m5f747ab3fd" y="58.590626"/>
     <use style="fill:#ff0000;" x="476.612685" xlink:href="#m5f747ab3fd" y="58.397634"/>
     <use style="fill:#ff0000;" x="476.612685" xlink:href="#m5f747ab3fd" y="55.502744"/>
     <use style="fill:#ff0000;" x="476.612685" xlink:href="#m5f747ab3fd" y="45.081141"/>
     <use style="fill:#ff0000;" x="476.612685" xlink:href="#m5f747ab3fd" y="46.287345"/>
     <use style="fill:#ff0000;" x="476.612685" xlink:href="#m5f747ab3fd" y="52.849095"/>
     <use style="fill:#ff0000;" x="476.612685" xlink:href="#m5f747ab3fd" y="55.840481"/>
     <use style="fill:#ff0000;" x="476.612685" xlink:href="#m5f747ab3fd" y="52.221869"/>
     <use style="fill:#ff0000;" x="476.612685" xlink:href="#m5f747ab3fd" y="44.502163"/>
     <use style="fill:#ff0000;" x="476.612685" xlink:href="#m5f747ab3fd" y="60.954786"/>
     <use style="fill:#ff0000;" x="476.612685" xlink:href="#m5f747ab3fd" y="52.46311"/>
     <use style="fill:#ff0000;" x="476.612685" xlink:href="#m5f747ab3fd" y="49.182234"/>
     <use style="fill:#ff0000;" x="476.612685" xlink:href="#m5f747ab3fd" y="41.607273"/>
     <use style="fill:#ff0000;" x="476.612685" xlink:href="#m5f747ab3fd" y="48.892745"/>
     <use style="fill:#ff0000;" x="476.612685" xlink:href="#m5f747ab3fd" y="55.116759"/>
     <use style="fill:#ff0000;" x="476.612685" xlink:href="#m5f747ab3fd" y="48.892745"/>
     <use style="fill:#ff0000;" x="151.958139" xlink:href="#m5f747ab3fd" y="96.07945"/>
     <use style="fill:#ff0000;" x="151.958139" xlink:href="#m5f747ab3fd" y="102.013974"/>
     <use style="fill:#ff0000;" x="151.958139" xlink:href="#m5f747ab3fd" y="102.158718"/>
     <use style="fill:#ff0000;" x="151.958139" xlink:href="#m5f747ab3fd" y="89.421203"/>
     <use style="fill:#ff0000;" x="151.958139" xlink:href="#m5f747ab3fd" y="103.509667"/>
     <use style="fill:#ff0000;" x="151.958139" xlink:href="#m5f747ab3fd" y="95.403975"/>
     <use style="fill:#ff0000;" x="151.958139" xlink:href="#m5f747ab3fd" y="103.606163"/>
     <use style="fill:#ff0000;" x="151.958139" xlink:href="#m5f747ab3fd" y="91.881859"/>
     <use style="fill:#ff0000;" x="151.958139" xlink:href="#m5f747ab3fd" y="101.049011"/>
     <use style="fill:#ff0000;" x="151.958139" xlink:href="#m5f747ab3fd" y="98.057624"/>
     <use style="fill:#ff0000;" x="151.958139" xlink:href="#m5f747ab3fd" y="131.397106"/>
     <use style="fill:#ff0000;" x="151.958139" xlink:href="#m5f747ab3fd" y="98.44361"/>
     <use style="fill:#ff0000;" x="151.958139" xlink:href="#m5f747ab3fd" y="101.483244"/>
     <use style="fill:#ff0000;" x="151.958139" xlink:href="#m5f747ab3fd" y="97.237406"/>
     <use style="fill:#ff0000;" x="151.958139" xlink:href="#m5f747ab3fd" y="103.17193"/>
     <use style="fill:#ff0000;" x="151.958139" xlink:href="#m5f747ab3fd" y="93.908282"/>
     <use style="fill:#ff0000;" x="151.958139" xlink:href="#m5f747ab3fd" y="97.189157"/>
     <use style="fill:#ff0000;" x="151.958139" xlink:href="#m5f747ab3fd" y="108.67222"/>
     <use style="fill:#ff0000;" x="151.958139" xlink:href="#m5f747ab3fd" y="99.505069"/>
     <use style="fill:#ff0000;" x="151.958139" xlink:href="#m5f747ab3fd" y="109.299447"/>
     <use style="fill:#ff0000;" x="151.958139" xlink:href="#m5f747ab3fd" y="102.351711"/>
     <use style="fill:#ff0000;" x="151.958139" xlink:href="#m5f747ab3fd" y="101.434996"/>
     <use style="fill:#ff0000;" x="151.958139" xlink:href="#m5f747ab3fd" y="106.694046"/>
     <use style="fill:#ff0000;" x="151.958139" xlink:href="#m5f747ab3fd" y="103.895652"/>
     <use style="fill:#ff0000;" x="151.958139" xlink:href="#m5f747ab3fd" y="98.250617"/>
     <use style="fill:#ff0000;" x="151.958139" xlink:href="#m5f747ab3fd" y="102.062222"/>
     <use style="fill:#ff0000;" x="151.958139" xlink:href="#m5f747ab3fd" y="86.188576"/>
     <use style="fill:#ff0000;" x="151.958139" xlink:href="#m5f747ab3fd" y="99.891055"/>
     <use style="fill:#ff0000;" x="151.958139" xlink:href="#m5f747ab3fd" y="96.272442"/>
     <use style="fill:#ff0000;" x="151.958139" xlink:href="#m5f747ab3fd" y="107.176527"/>
     <use style="fill:#ff0000;" x="151.958139" xlink:href="#m5f747ab3fd" y="103.606163"/>
     <use style="fill:#ff0000;" x="151.958139" xlink:href="#m5f747ab3fd" y="92.798575"/>
     <use style="fill:#ff0000;" x="151.958139" xlink:href="#m5f747ab3fd" y="98.057624"/>
     <use style="fill:#ff0000;" x="151.958139" xlink:href="#m5f747ab3fd" y="100.470033"/>
     <use style="fill:#ff0000;" x="151.958139" xlink:href="#m5f747ab3fd" y="103.268426"/>
     <use style="fill:#ff0000;" x="151.958139" xlink:href="#m5f747ab3fd" y="94.101275"/>
     <use style="fill:#ff0000;" x="151.958139" xlink:href="#m5f747ab3fd" y="97.140909"/>
     <use style="fill:#ff0000;" x="151.958139" xlink:href="#m5f747ab3fd" y="113.1593"/>
     <use style="fill:#ff0000;" x="151.958139" xlink:href="#m5f747ab3fd" y="106.452805"/>
     <use style="fill:#ff0000;" x="151.958139" xlink:href="#m5f747ab3fd" y="92.605582"/>
     <use style="fill:#ff0000;" x="151.958139" xlink:href="#m5f747ab3fd" y="106.30806"/>
     <use style="fill:#ff0000;" x="151.958139" xlink:href="#m5f747ab3fd" y="107.610761"/>
     <use style="fill:#ff0000;" x="151.958139" xlink:href="#m5f747ab3fd" y="91.158137"/>
     <use style="fill:#ff0000;" x="151.958139" xlink:href="#m5f747ab3fd" y="105.101856"/>
     <use style="fill:#ff0000;" x="151.958139" xlink:href="#m5f747ab3fd" y="107.852002"/>
     <use style="fill:#ff0000;" x="151.958139" xlink:href="#m5f747ab3fd" y="105.150105"/>
     <use style="fill:#ff0000;" x="151.958139" xlink:href="#m5f747ab3fd" y="96.899668"/>
     <use style="fill:#ff0000;" x="151.958139" xlink:href="#m5f747ab3fd" y="101.724485"/>
     <use style="fill:#ff0000;" x="151.958139" xlink:href="#m5f747ab3fd" y="101.483244"/>
     <use style="fill:#ff0000;" x="151.958139" xlink:href="#m5f747ab3fd" y="103.847404"/>
     <use style="fill:#ff0000;" x="151.958139" xlink:href="#m5f747ab3fd" y="102.448207"/>
     <use style="fill:#ff0000;" x="151.958139" xlink:href="#m5f747ab3fd" y="95.886457"/>
     <use style="fill:#ff0000;" x="151.958139" xlink:href="#m5f747ab3fd" y="106.356309"/>
     <use style="fill:#ff0000;" x="151.958139" xlink:href="#m5f747ab3fd" y="94.439012"/>
     <use style="fill:#ff0000;" x="151.958139" xlink:href="#m5f747ab3fd" y="111.374118"/>
     <use style="fill:#ff0000;" x="151.958139" xlink:href="#m5f747ab3fd" y="97.623391"/>
     <use style="fill:#ff0000;" x="151.958139" xlink:href="#m5f747ab3fd" y="95.066238"/>
     <use style="fill:#ff0000;" x="151.958139" xlink:href="#m5f747ab3fd" y="105.53609"/>
     <use style="fill:#ff0000;" x="151.958139" xlink:href="#m5f747ab3fd" y="100.421784"/>
     <use style="fill:#ff0000;" x="151.958139" xlink:href="#m5f747ab3fd" y="97.816384"/>
     <use style="fill:#ff0000;" x="151.958139" xlink:href="#m5f747ab3fd" y="103.509667"/>
     <use style="fill:#ff0000;" x="151.958139" xlink:href="#m5f747ab3fd" y="106.259812"/>
     <use style="fill:#ff0000;" x="151.958139" xlink:href="#m5f747ab3fd" y="99.312077"/>
     <use style="fill:#ff0000;" x="151.958139" xlink:href="#m5f747ab3fd" y="97.430398"/>
     <use style="fill:#ff0000;" x="151.958139" xlink:href="#m5f747ab3fd" y="91.206385"/>
     <use style="fill:#ff0000;" x="151.958139" xlink:href="#m5f747ab3fd" y="102.351711"/>
     <use style="fill:#ff0000;" x="151.958139" xlink:href="#m5f747ab3fd" y="92.364341"/>
     <use style="fill:#ff0000;" x="151.958139" xlink:href="#m5f747ab3fd" y="111.325869"/>
     <use style="fill:#ff0000;" x="151.958139" xlink:href="#m5f747ab3fd" y="99.842806"/>
     <use style="fill:#ff0000;" x="151.958139" xlink:href="#m5f747ab3fd" y="99.553318"/>
     <use style="fill:#ff0000;" x="151.958139" xlink:href="#m5f747ab3fd" y="103.123682"/>
     <use style="fill:#ff0000;" x="151.958139" xlink:href="#m5f747ab3fd" y="94.48726"/>
     <use style="fill:#ff0000;" x="151.958139" xlink:href="#m5f747ab3fd" y="101.676237"/>
     <use style="fill:#ff0000;" x="151.958139" xlink:href="#m5f747ab3fd" y="94.101275"/>
     <use style="fill:#ff0000;" x="151.958139" xlink:href="#m5f747ab3fd" y="97.575143"/>
     <use style="fill:#ff0000;" x="151.958139" xlink:href="#m5f747ab3fd" y="106.790542"/>
     <use style="fill:#ff0000;" x="151.958139" xlink:href="#m5f747ab3fd" y="96.803172"/>
     <use style="fill:#ff0000;" x="151.958139" xlink:href="#m5f747ab3fd" y="95.307479"/>
     <use style="fill:#ff0000;" x="151.958139" xlink:href="#m5f747ab3fd" y="95.789961"/>
     <use style="fill:#ff0000;" x="151.958139" xlink:href="#m5f747ab3fd" y="105.00536"/>
     <use style="fill:#ff0000;" x="151.958139" xlink:href="#m5f747ab3fd" y="96.85142"/>
     <use style="fill:#ff0000;" x="151.958139" xlink:href="#m5f747ab3fd" y="103.9439"/>
     <use style="fill:#ff0000;" x="151.958139" xlink:href="#m5f747ab3fd" y="100.663025"/>
     <use style="fill:#ff0000;" x="151.958139" xlink:href="#m5f747ab3fd" y="126.041559"/>
     <use style="fill:#ff0000;" x="151.958139" xlink:href="#m5f747ab3fd" y="101.965726"/>
     <use style="fill:#ff0000;" x="151.958139" xlink:href="#m5f747ab3fd" y="105.680834"/>
     <use style="fill:#ff0000;" x="151.958139" xlink:href="#m5f747ab3fd" y="96.803172"/>
     <use style="fill:#ff0000;" x="151.958139" xlink:href="#m5f747ab3fd" y="105.198353"/>
     <use style="fill:#ff0000;" x="151.958139" xlink:href="#m5f747ab3fd" y="100.711273"/>
     <use style="fill:#ff0000;" x="151.958139" xlink:href="#m5f747ab3fd" y="106.211564"/>
     <use style="fill:#ff0000;" x="151.958139" xlink:href="#m5f747ab3fd" y="101.627989"/>
     <use style="fill:#ff0000;" x="151.958139" xlink:href="#m5f747ab3fd" y="102.689448"/>
     <use style="fill:#ff0000;" x="151.958139" xlink:href="#m5f747ab3fd" y="103.992149"/>
     <use style="fill:#ff0000;" x="151.958139" xlink:href="#m5f747ab3fd" y="95.693464"/>
     <use style="fill:#ff0000;" x="151.958139" xlink:href="#m5f747ab3fd" y="99.553318"/>
     <use style="fill:#ff0000;" x="151.958139" xlink:href="#m5f747ab3fd" y="103.461419"/>
     <use style="fill:#ff0000;" x="151.958139" xlink:href="#m5f747ab3fd" y="97.864632"/>
     <use style="fill:#ff0000;" x="151.958139" xlink:href="#m5f747ab3fd" y="105.873827"/>
     <use style="fill:#ff0000;" x="151.958139" xlink:href="#m5f747ab3fd" y="94.824997"/>
     <use style="fill:#ff0000;" x="151.958139" xlink:href="#m5f747ab3fd" y="99.698062"/>
     <use style="fill:#ff0000;" x="395.449048" xlink:href="#m5f747ab3fd" y="54.972014"/>
     <use style="fill:#ff0000;" x="395.449048" xlink:href="#m5f747ab3fd" y="57.915152"/>
     <use style="fill:#ff0000;" x="395.449048" xlink:href="#m5f747ab3fd" y="67.661281"/>
     <use style="fill:#ff0000;" x="395.449048" xlink:href="#m5f747ab3fd" y="61.437268"/>
     <use style="fill:#ff0000;" x="395.449048" xlink:href="#m5f747ab3fd" y="58.831867"/>
     <use style="fill:#ff0000;" x="395.449048" xlink:href="#m5f747ab3fd" y="57.625663"/>
     <use style="fill:#ff0000;" x="395.449048" xlink:href="#m5f747ab3fd" y="61.196027"/>
     <use style="fill:#ff0000;" x="395.449048" xlink:href="#m5f747ab3fd" y="68.240259"/>
     <use style="fill:#ff0000;" x="395.449048" xlink:href="#m5f747ab3fd" y="59.314349"/>
     <use style="fill:#ff0000;" x="395.449048" xlink:href="#m5f747ab3fd" y="63.270698"/>
     <use style="fill:#ff0000;" x="395.449048" xlink:href="#m5f747ab3fd" y="57.722159"/>
     <use style="fill:#ff0000;" x="395.449048" xlink:href="#m5f747ab3fd" y="58.011648"/>
     <use style="fill:#ff0000;" x="395.449048" xlink:href="#m5f747ab3fd" y="66.599822"/>
     <use style="fill:#ff0000;" x="395.449048" xlink:href="#m5f747ab3fd" y="62.69172"/>
     <use style="fill:#ff0000;" x="395.449048" xlink:href="#m5f747ab3fd" y="65.297121"/>
     <use style="fill:#ff0000;" x="395.449048" xlink:href="#m5f747ab3fd" y="56.467707"/>
     <use style="fill:#ff0000;" x="395.449048" xlink:href="#m5f747ab3fd" y="69.398215"/>
     <use style="fill:#ff0000;" x="395.449048" xlink:href="#m5f747ab3fd" y="54.923766"/>
     <use style="fill:#ff0000;" x="395.449048" xlink:href="#m5f747ab3fd" y="58.783619"/>
     <use style="fill:#ff0000;" x="395.449048" xlink:href="#m5f747ab3fd" y="65.345369"/>
     <use style="fill:#ff0000;" x="395.449048" xlink:href="#m5f747ab3fd" y="59.941575"/>
     <use style="fill:#ff0000;" x="395.449048" xlink:href="#m5f747ab3fd" y="61.582013"/>
     <use style="fill:#ff0000;" x="395.449048" xlink:href="#m5f747ab3fd" y="66.599822"/>
     <use style="fill:#ff0000;" x="395.449048" xlink:href="#m5f747ab3fd" y="65.827851"/>
     <use style="fill:#ff0000;" x="395.449048" xlink:href="#m5f747ab3fd" y="54.923766"/>
     <use style="fill:#ff0000;" x="395.449048" xlink:href="#m5f747ab3fd" y="59.121356"/>
     <use style="fill:#ff0000;" x="395.449048" xlink:href="#m5f747ab3fd" y="61.775005"/>
     <use style="fill:#ff0000;" x="395.449048" xlink:href="#m5f747ab3fd" y="63.656684"/>
     <use style="fill:#ff0000;" x="395.449048" xlink:href="#m5f747ab3fd" y="59.79683"/>
     <use style="fill:#ff0000;" x="395.449048" xlink:href="#m5f747ab3fd" y="64.766391"/>
     <use style="fill:#ff0000;" x="395.449048" xlink:href="#m5f747ab3fd" y="70.218434"/>
     <use style="fill:#ff0000;" x="395.449048" xlink:href="#m5f747ab3fd" y="61.485516"/>
     <use style="fill:#ff0000;" x="395.449048" xlink:href="#m5f747ab3fd" y="56.564204"/>
     <use style="fill:#ff0000;" x="395.449048" xlink:href="#m5f747ab3fd" y="63.511939"/>
     <use style="fill:#ff0000;" x="395.449048" xlink:href="#m5f747ab3fd" y="70.411427"/>
     <use style="fill:#ff0000;" x="395.449048" xlink:href="#m5f747ab3fd" y="57.529167"/>
     <use style="fill:#ff0000;" x="395.449048" xlink:href="#m5f747ab3fd" y="63.174202"/>
     <use style="fill:#ff0000;" x="395.449048" xlink:href="#m5f747ab3fd" y="58.687123"/>
     <use style="fill:#ff0000;" x="395.449048" xlink:href="#m5f747ab3fd" y="58.542378"/>
     <use style="fill:#ff0000;" x="395.449048" xlink:href="#m5f747ab3fd" y="54.730773"/>
     <use style="fill:#ff0000;" x="395.449048" xlink:href="#m5f747ab3fd" y="60.182816"/>
     <use style="fill:#ff0000;" x="395.449048" xlink:href="#m5f747ab3fd" y="59.55559"/>
     <use style="fill:#ff0000;" x="395.449048" xlink:href="#m5f747ab3fd" y="65.297121"/>
     <use style="fill:#ff0000;" x="395.449048" xlink:href="#m5f747ab3fd" y="58.638875"/>
     <use style="fill:#ff0000;" x="395.449048" xlink:href="#m5f747ab3fd" y="58.445882"/>
     <use style="fill:#ff0000;" x="395.449048" xlink:href="#m5f747ab3fd" y="58.783619"/>
     <use style="fill:#ff0000;" x="395.449048" xlink:href="#m5f747ab3fd" y="62.209239"/>
     <use style="fill:#ff0000;" x="395.449048" xlink:href="#m5f747ab3fd" y="58.831867"/>
     <use style="fill:#ff0000;" x="395.449048" xlink:href="#m5f747ab3fd" y="58.445882"/>
     <use style="fill:#ff0000;" x="395.449048" xlink:href="#m5f747ab3fd" y="66.503325"/>
     <use style="fill:#ff0000;" x="395.449048" xlink:href="#m5f747ab3fd" y="61.244275"/>
     <use style="fill:#ff0000;" x="395.449048" xlink:href="#m5f747ab3fd" y="52.125372"/>
     <use style="fill:#ff0000;" x="395.449048" xlink:href="#m5f747ab3fd" y="71.569382"/>
     <use style="fill:#ff0000;" x="395.449048" xlink:href="#m5f747ab3fd" y="60.279312"/>
     <use style="fill:#ff0000;" x="395.449048" xlink:href="#m5f747ab3fd" y="66.841062"/>
     <use style="fill:#ff0000;" x="395.449048" xlink:href="#m5f747ab3fd" y="62.884713"/>
     <use style="fill:#ff0000;" x="395.449048" xlink:href="#m5f747ab3fd" y="59.410845"/>
     <use style="fill:#ff0000;" x="395.449048" xlink:href="#m5f747ab3fd" y="60.472305"/>
     <use style="fill:#ff0000;" x="395.449048" xlink:href="#m5f747ab3fd" y="65.876099"/>
     <use style="fill:#ff0000;" x="395.449048" xlink:href="#m5f747ab3fd" y="75.091498"/>
     <use style="fill:#ff0000;" x="395.449048" xlink:href="#m5f747ab3fd" y="54.923766"/>
     <use style="fill:#ff0000;" x="395.449048" xlink:href="#m5f747ab3fd" y="62.836465"/>
     <use style="fill:#ff0000;" x="395.449048" xlink:href="#m5f747ab3fd" y="62.402231"/>
     <use style="fill:#ff0000;" x="395.449048" xlink:href="#m5f747ab3fd" y="58.108145"/>
     <use style="fill:#ff0000;" x="395.449048" xlink:href="#m5f747ab3fd" y="60.617049"/>
     <use style="fill:#ff0000;" x="395.449048" xlink:href="#m5f747ab3fd" y="58.349386"/>
     <use style="fill:#ff0000;" x="395.449048" xlink:href="#m5f747ab3fd" y="58.735371"/>
     <use style="fill:#ff0000;" x="395.449048" xlink:href="#m5f747ab3fd" y="58.445882"/>
     <use style="fill:#ff0000;" x="395.449048" xlink:href="#m5f747ab3fd" y="57.577415"/>
     <use style="fill:#ff0000;" x="395.449048" xlink:href="#m5f747ab3fd" y="54.779021"/>
     <use style="fill:#ff0000;" x="395.449048" xlink:href="#m5f747ab3fd" y="60.375808"/>
     <use style="fill:#ff0000;" x="395.449048" xlink:href="#m5f747ab3fd" y="69.156974"/>
     <use style="fill:#ff0000;" x="395.449048" xlink:href="#m5f747ab3fd" y="65.634858"/>
     <use style="fill:#ff0000;" x="395.449048" xlink:href="#m5f747ab3fd" y="67.034055"/>
     <use style="fill:#ff0000;" x="395.449048" xlink:href="#m5f747ab3fd" y="72.051864"/>
     <use style="fill:#ff0000;" x="395.449048" xlink:href="#m5f747ab3fd" y="60.617049"/>
     <use style="fill:#ff0000;" x="395.449048" xlink:href="#m5f747ab3fd" y="68.4815"/>
     <use style="fill:#ff0000;" x="395.449048" xlink:href="#m5f747ab3fd" y="63.415443"/>
     <use style="fill:#ff0000;" x="395.449048" xlink:href="#m5f747ab3fd" y="60.424057"/>
     <use style="fill:#ff0000;" x="395.449048" xlink:href="#m5f747ab3fd" y="63.270698"/>
     <use style="fill:#ff0000;" x="395.449048" xlink:href="#m5f747ab3fd" y="63.704932"/>
     <use style="fill:#ff0000;" x="395.449048" xlink:href="#m5f747ab3fd" y="60.279312"/>
     <use style="fill:#ff0000;" x="395.449048" xlink:href="#m5f747ab3fd" y="57.770408"/>
     <use style="fill:#ff0000;" x="395.449048" xlink:href="#m5f747ab3fd" y="57.722159"/>
     <use style="fill:#ff0000;" x="395.449048" xlink:href="#m5f747ab3fd" y="60.906538"/>
     <use style="fill:#ff0000;" x="395.449048" xlink:href="#m5f747ab3fd" y="59.79683"/>
     <use style="fill:#ff0000;" x="395.449048" xlink:href="#m5f747ab3fd" y="59.941575"/>
     <use style="fill:#ff0000;" x="395.449048" xlink:href="#m5f747ab3fd" y="65.152377"/>
     <use style="fill:#ff0000;" x="395.449048" xlink:href="#m5f747ab3fd" y="60.520553"/>
     <use style="fill:#ff0000;" x="395.449048" xlink:href="#m5f747ab3fd" y="55.116759"/>
     <use style="fill:#ff0000;" x="395.449048" xlink:href="#m5f747ab3fd" y="61.630261"/>
     <use style="fill:#ff0000;" x="395.449048" xlink:href="#m5f747ab3fd" y="62.353983"/>
     <use style="fill:#ff0000;" x="395.449048" xlink:href="#m5f747ab3fd" y="55.357999"/>
     <use style="fill:#ff0000;" x="395.449048" xlink:href="#m5f747ab3fd" y="55.454496"/>
     <use style="fill:#ff0000;" x="395.449048" xlink:href="#m5f747ab3fd" y="58.590626"/>
     <use style="fill:#ff0000;" x="395.449048" xlink:href="#m5f747ab3fd" y="60.665297"/>
     <use style="fill:#ff0000;" x="395.449048" xlink:href="#m5f747ab3fd" y="62.595224"/>
     <use style="fill:#ff0000;" x="395.449048" xlink:href="#m5f747ab3fd" y="59.410845"/>
     <use style="fill:#ff0000;" x="395.449048" xlink:href="#m5f747ab3fd" y="57.673911"/>
     <use style="fill:#ff0000;" x="395.449048" xlink:href="#m5f747ab3fd" y="66.841062"/>
     <use style="fill:#ff0000;" x="233.121776" xlink:href="#m5f747ab3fd" y="91.35113"/>
     <use style="fill:#ff0000;" x="233.121776" xlink:href="#m5f747ab3fd" y="83.969161"/>
     <use style="fill:#ff0000;" x="233.121776" xlink:href="#m5f747ab3fd" y="78.854855"/>
     <use style="fill:#ff0000;" x="233.121776" xlink:href="#m5f747ab3fd" y="88.842225"/>
     <use style="fill:#ff0000;" x="233.121776" xlink:href="#m5f747ab3fd" y="92.65383"/>
     <use style="fill:#ff0000;" x="233.121776" xlink:href="#m5f747ab3fd" y="92.026604"/>
     <use style="fill:#ff0000;" x="233.121776" xlink:href="#m5f747ab3fd" y="91.254633"/>
     <use style="fill:#ff0000;" x="233.121776" xlink:href="#m5f747ab3fd" y="87.39478"/>
     <use style="fill:#ff0000;" x="233.121776" xlink:href="#m5f747ab3fd" y="88.070255"/>
     <use style="fill:#ff0000;" x="233.121776" xlink:href="#m5f747ab3fd" y="88.697481"/>
     <use style="fill:#ff0000;" x="233.121776" xlink:href="#m5f747ab3fd" y="89.517699"/>
     <use style="fill:#ff0000;" x="233.121776" xlink:href="#m5f747ab3fd" y="82.859453"/>
     <use style="fill:#ff0000;" x="233.121776" xlink:href="#m5f747ab3fd" y="83.824416"/>
     <use style="fill:#ff0000;" x="233.121776" xlink:href="#m5f747ab3fd" y="84.306898"/>
     <use style="fill:#ff0000;" x="233.121776" xlink:href="#m5f747ab3fd" y="90.386166"/>
     <use style="fill:#ff0000;" x="233.121776" xlink:href="#m5f747ab3fd" y="85.56135"/>
     <use style="fill:#ff0000;" x="233.121776" xlink:href="#m5f747ab3fd" y="88.600984"/>
     <use style="fill:#ff0000;" x="233.121776" xlink:href="#m5f747ab3fd" y="82.183979"/>
     <use style="fill:#ff0000;" x="233.121776" xlink:href="#m5f747ab3fd" y="84.065657"/>
     <use style="fill:#ff0000;" x="233.121776" xlink:href="#m5f747ab3fd" y="88.697481"/>
     <use style="fill:#ff0000;" x="233.121776" xlink:href="#m5f747ab3fd" y="84.982372"/>
     <use style="fill:#ff0000;" x="233.121776" xlink:href="#m5f747ab3fd" y="80.254052"/>
     <use style="fill:#ff0000;" x="233.121776" xlink:href="#m5f747ab3fd" y="83.390183"/>
     <use style="fill:#ff0000;" x="233.121776" xlink:href="#m5f747ab3fd" y="94.294268"/>
     <use style="fill:#ff0000;" x="233.121776" xlink:href="#m5f747ab3fd" y="86.140328"/>
     <use style="fill:#ff0000;" x="233.121776" xlink:href="#m5f747ab3fd" y="87.105291"/>
     <use style="fill:#ff0000;" x="233.121776" xlink:href="#m5f747ab3fd" y="77.262666"/>
     <use style="fill:#ff0000;" x="233.121776" xlink:href="#m5f747ab3fd" y="90.579159"/>
     <use style="fill:#ff0000;" x="233.121776" xlink:href="#m5f747ab3fd" y="83.824416"/>
     <use style="fill:#ff0000;" x="233.121776" xlink:href="#m5f747ab3fd" y="88.890473"/>
     <use style="fill:#ff0000;" x="233.121776" xlink:href="#m5f747ab3fd" y="82.425219"/>
     <use style="fill:#ff0000;" x="233.121776" xlink:href="#m5f747ab3fd" y="95.838209"/>
     <use style="fill:#ff0000;" x="233.121776" xlink:href="#m5f747ab3fd" y="436.904479"/>
     <use style="fill:#ff0000;" x="233.121776" xlink:href="#m5f747ab3fd" y="90.627407"/>
     <use style="fill:#ff0000;" x="233.121776" xlink:href="#m5f747ab3fd" y="76.924929"/>
     <use style="fill:#ff0000;" x="233.121776" xlink:href="#m5f747ab3fd" y="84.934124"/>
     <use style="fill:#ff0000;" x="233.121776" xlink:href="#m5f747ab3fd" y="79.916315"/>
     <use style="fill:#ff0000;" x="233.121776" xlink:href="#m5f747ab3fd" y="97.816384"/>
     <use style="fill:#ff0000;" x="233.121776" xlink:href="#m5f747ab3fd" y="85.320109"/>
     <use style="fill:#ff0000;" x="233.121776" xlink:href="#m5f747ab3fd" y="84.403394"/>
     <use style="fill:#ff0000;" x="233.121776" xlink:href="#m5f747ab3fd" y="92.509086"/>
     <use style="fill:#ff0000;" x="233.121776" xlink:href="#m5f747ab3fd" y="81.990986"/>
     <use style="fill:#ff0000;" x="233.121776" xlink:href="#m5f747ab3fd" y="90.337918"/>
     <use style="fill:#ff0000;" x="233.121776" xlink:href="#m5f747ab3fd" y="86.140328"/>
     <use style="fill:#ff0000;" x="233.121776" xlink:href="#m5f747ab3fd" y="99.263829"/>
     <use style="fill:#ff0000;" x="233.121776" xlink:href="#m5f747ab3fd" y="89.276459"/>
     <use style="fill:#ff0000;" x="233.121776" xlink:href="#m5f747ab3fd" y="78.854855"/>
     <use style="fill:#ff0000;" x="233.121776" xlink:href="#m5f747ab3fd" y="85.513102"/>
     <use style="fill:#ff0000;" x="233.121776" xlink:href="#m5f747ab3fd" y="91.544122"/>
     <use style="fill:#ff0000;" x="233.121776" xlink:href="#m5f747ab3fd" y="90.772152"/>
     <use style="fill:#ff0000;" x="233.121776" xlink:href="#m5f747ab3fd" y="89.083466"/>
     <use style="fill:#ff0000;" x="233.121776" xlink:href="#m5f747ab3fd" y="88.697481"/>
     <use style="fill:#ff0000;" x="233.121776" xlink:href="#m5f747ab3fd" y="84.644635"/>
     <use style="fill:#ff0000;" x="233.121776" xlink:href="#m5f747ab3fd" y="85.947335"/>
     <use style="fill:#ff0000;" x="233.121776" xlink:href="#m5f747ab3fd" y="89.565948"/>
     <use style="fill:#ff0000;" x="233.121776" xlink:href="#m5f747ab3fd" y="84.837628"/>
     <use style="fill:#ff0000;" x="233.121776" xlink:href="#m5f747ab3fd" y="94.197771"/>
     <use style="fill:#ff0000;" x="233.121776" xlink:href="#m5f747ab3fd" y="83.148942"/>
     <use style="fill:#ff0000;" x="233.121776" xlink:href="#m5f747ab3fd" y="86.429817"/>
     <use style="fill:#ff0000;" x="233.121776" xlink:href="#m5f747ab3fd" y="82.183979"/>
     <use style="fill:#ff0000;" x="233.121776" xlink:href="#m5f747ab3fd" y="87.491277"/>
     <use style="fill:#ff0000;" x="233.121776" xlink:href="#m5f747ab3fd" y="91.930108"/>
     <use style="fill:#ff0000;" x="233.121776" xlink:href="#m5f747ab3fd" y="79.675074"/>
     <use style="fill:#ff0000;" x="233.121776" xlink:href="#m5f747ab3fd" y="81.460256"/>
     <use style="fill:#ff0000;" x="233.121776" xlink:href="#m5f747ab3fd" y="86.478065"/>
     <use style="fill:#ff0000;" x="233.121776" xlink:href="#m5f747ab3fd" y="96.561931"/>
     <use style="fill:#ff0000;" x="233.121776" xlink:href="#m5f747ab3fd" y="84.741131"/>
     <use style="fill:#ff0000;" x="233.121776" xlink:href="#m5f747ab3fd" y="87.008795"/>
     <use style="fill:#ff0000;" x="233.121776" xlink:href="#m5f747ab3fd" y="82.280475"/>
     <use style="fill:#ff0000;" x="233.121776" xlink:href="#m5f747ab3fd" y="83.245438"/>
     <use style="fill:#ff0000;" x="233.121776" xlink:href="#m5f747ab3fd" y="99.312077"/>
     <use style="fill:#ff0000;" x="233.121776" xlink:href="#m5f747ab3fd" y="92.074852"/>
     <use style="fill:#ff0000;" x="233.121776" xlink:href="#m5f747ab3fd" y="81.074271"/>
     <use style="fill:#ff0000;" x="233.121776" xlink:href="#m5f747ab3fd" y="91.688867"/>
     <use style="fill:#ff0000;" x="233.121776" xlink:href="#m5f747ab3fd" y="89.469451"/>
     <use style="fill:#ff0000;" x="233.121776" xlink:href="#m5f747ab3fd" y="80.495293"/>
     <use style="fill:#ff0000;" x="233.121776" xlink:href="#m5f747ab3fd" y="77.986388"/>
     <use style="fill:#ff0000;" x="233.121776" xlink:href="#m5f747ab3fd" y="83.872664"/>
     <use style="fill:#ff0000;" x="233.121776" xlink:href="#m5f747ab3fd" y="81.074271"/>
     <use style="fill:#ff0000;" x="233.121776" xlink:href="#m5f747ab3fd" y="88.166751"/>
     <use style="fill:#ff0000;" x="233.121776" xlink:href="#m5f747ab3fd" y="82.232227"/>
     <use style="fill:#ff0000;" x="233.121776" xlink:href="#m5f747ab3fd" y="90.579159"/>
     <use style="fill:#ff0000;" x="233.121776" xlink:href="#m5f747ab3fd" y="81.170767"/>
     <use style="fill:#ff0000;" x="233.121776" xlink:href="#m5f747ab3fd" y="79.626826"/>
     <use style="fill:#ff0000;" x="233.121776" xlink:href="#m5f747ab3fd" y="98.298865"/>
     <use style="fill:#ff0000;" x="233.121776" xlink:href="#m5f747ab3fd" y="87.443028"/>
     <use style="fill:#ff0000;" x="233.121776" xlink:href="#m5f747ab3fd" y="92.219597"/>
     <use style="fill:#ff0000;" x="233.121776" xlink:href="#m5f747ab3fd" y="88.842225"/>
     <use style="fill:#ff0000;" x="233.121776" xlink:href="#m5f747ab3fd" y="83.679672"/>
     <use style="fill:#ff0000;" x="233.121776" xlink:href="#m5f747ab3fd" y="85.657846"/>
     <use style="fill:#ff0000;" x="233.121776" xlink:href="#m5f747ab3fd" y="78.9996"/>
     <use style="fill:#ff0000;" x="233.121776" xlink:href="#m5f747ab3fd" y="83.969161"/>
     <use style="fill:#ff0000;" x="233.121776" xlink:href="#m5f747ab3fd" y="80.109307"/>
     <use style="fill:#ff0000;" x="233.121776" xlink:href="#m5f747ab3fd" y="87.877262"/>
     <use style="fill:#ff0000;" x="233.121776" xlink:href="#m5f747ab3fd" y="97.140909"/>
     <use style="fill:#ff0000;" x="233.121776" xlink:href="#m5f747ab3fd" y="87.636021"/>
     <use style="fill:#ff0000;" x="233.121776" xlink:href="#m5f747ab3fd" y="84.451642"/>
     <use style="fill:#ff0000;" x="233.121776" xlink:href="#m5f747ab3fd" y="81.36376"/>
     <use style="fill:#ff0000;" x="233.121776" xlink:href="#m5f747ab3fd" y="80.398796"/>
     <use style="fill:#ff0000;" x="233.121776" xlink:href="#m5f747ab3fd" y="87.491277"/>
     <use style="fill:#ff0000;" x="314.285412" xlink:href="#m5f747ab3fd" y="75.911717"/>
     <use style="fill:#ff0000;" x="314.285412" xlink:href="#m5f747ab3fd" y="73.499309"/>
     <use style="fill:#ff0000;" x="314.285412" xlink:href="#m5f747ab3fd" y="72.727338"/>
     <use style="fill:#ff0000;" x="314.285412" xlink:href="#m5f747ab3fd" y="74.174783"/>
     <use style="fill:#ff0000;" x="314.285412" xlink:href="#m5f747ab3fd" y="70.604419"/>
     <use style="fill:#ff0000;" x="314.285412" xlink:href="#m5f747ab3fd" y="69.880697"/>
     <use style="fill:#ff0000;" x="314.285412" xlink:href="#m5f747ab3fd" y="70.073689"/>
     <use style="fill:#ff0000;" x="314.285412" xlink:href="#m5f747ab3fd" y="71.665879"/>
     <use style="fill:#ff0000;" x="314.285412" xlink:href="#m5f747ab3fd" y="78.372374"/>
     <use style="fill:#ff0000;" x="314.285412" xlink:href="#m5f747ab3fd" y="77.40741"/>
     <use style="fill:#ff0000;" x="314.285412" xlink:href="#m5f747ab3fd" y="82.039234"/>
     <use style="fill:#ff0000;" x="314.285412" xlink:href="#m5f747ab3fd" y="76.780184"/>
     <use style="fill:#ff0000;" x="314.285412" xlink:href="#m5f747ab3fd" y="70.170186"/>
     <use style="fill:#ff0000;" x="314.285412" xlink:href="#m5f747ab3fd" y="73.161572"/>
     <use style="fill:#ff0000;" x="314.285412" xlink:href="#m5f747ab3fd" y="77.503907"/>
     <use style="fill:#ff0000;" x="314.285412" xlink:href="#m5f747ab3fd" y="75.815221"/>
     <use style="fill:#ff0000;" x="314.285412" xlink:href="#m5f747ab3fd" y="67.1788"/>
     <use style="fill:#ff0000;" x="314.285412" xlink:href="#m5f747ab3fd" y="67.709529"/>
     <use style="fill:#ff0000;" x="314.285412" xlink:href="#m5f747ab3fd" y="74.946754"/>
     <use style="fill:#ff0000;" x="314.285412" xlink:href="#m5f747ab3fd" y="81.170767"/>
     <use style="fill:#ff0000;" x="314.285412" xlink:href="#m5f747ab3fd" y="64.621647"/>
     <use style="fill:#ff0000;" x="314.285412" xlink:href="#m5f747ab3fd" y="67.130551"/>
     <use style="fill:#ff0000;" x="314.285412" xlink:href="#m5f747ab3fd" y="67.130551"/>
     <use style="fill:#ff0000;" x="314.285412" xlink:href="#m5f747ab3fd" y="72.486098"/>
     <use style="fill:#ff0000;" x="314.285412" xlink:href="#m5f747ab3fd" y="76.731936"/>
     <use style="fill:#ff0000;" x="314.285412" xlink:href="#m5f747ab3fd" y="65.152377"/>
     <use style="fill:#ff0000;" x="314.285412" xlink:href="#m5f747ab3fd" y="80.447045"/>
     <use style="fill:#ff0000;" x="314.285412" xlink:href="#m5f747ab3fd" y="78.131133"/>
     <use style="fill:#ff0000;" x="314.285412" xlink:href="#m5f747ab3fd" y="66.551573"/>
     <use style="fill:#ff0000;" x="314.285412" xlink:href="#m5f747ab3fd" y="76.828432"/>
     <use style="fill:#ff0000;" x="314.285412" xlink:href="#m5f747ab3fd" y="77.503907"/>
     <use style="fill:#ff0000;" x="314.285412" xlink:href="#m5f747ab3fd" y="77.359162"/>
     <use style="fill:#ff0000;" x="314.285412" xlink:href="#m5f747ab3fd" y="69.494711"/>
     <use style="fill:#ff0000;" x="314.285412" xlink:href="#m5f747ab3fd" y="69.928945"/>
     <use style="fill:#ff0000;" x="314.285412" xlink:href="#m5f747ab3fd" y="82.039234"/>
     <use style="fill:#ff0000;" x="314.285412" xlink:href="#m5f747ab3fd" y="62.69172"/>
     <use style="fill:#ff0000;" x="314.285412" xlink:href="#m5f747ab3fd" y="63.946173"/>
     <use style="fill:#ff0000;" x="314.285412" xlink:href="#m5f747ab3fd" y="86.236824"/>
     <use style="fill:#ff0000;" x="314.285412" xlink:href="#m5f747ab3fd" y="79.819818"/>
     <use style="fill:#ff0000;" x="314.285412" xlink:href="#m5f747ab3fd" y="75.718725"/>
     <use style="fill:#ff0000;" x="314.285412" xlink:href="#m5f747ab3fd" y="68.722741"/>
     <use style="fill:#ff0000;" x="314.285412" xlink:href="#m5f747ab3fd" y="68.722741"/>
     <use style="fill:#ff0000;" x="314.285412" xlink:href="#m5f747ab3fd" y="72.872083"/>
     <use style="fill:#ff0000;" x="314.285412" xlink:href="#m5f747ab3fd" y="67.854274"/>
     <use style="fill:#ff0000;" x="314.285412" xlink:href="#m5f747ab3fd" y="78.565366"/>
     <use style="fill:#ff0000;" x="314.285412" xlink:href="#m5f747ab3fd" y="72.244857"/>
     <use style="fill:#ff0000;" x="314.285412" xlink:href="#m5f747ab3fd" y="73.113324"/>
     <use style="fill:#ff0000;" x="314.285412" xlink:href="#m5f747ab3fd" y="83.776168"/>
     <use style="fill:#ff0000;" x="314.285412" xlink:href="#m5f747ab3fd" y="82.569964"/>
     <use style="fill:#ff0000;" x="314.285412" xlink:href="#m5f747ab3fd" y="74.657265"/>
     <use style="fill:#ff0000;" x="314.285412" xlink:href="#m5f747ab3fd" y="68.336755"/>
     <use style="fill:#ff0000;" x="314.285412" xlink:href="#m5f747ab3fd" y="63.994421"/>
     <use style="fill:#ff0000;" x="314.285412" xlink:href="#m5f747ab3fd" y="76.973177"/>
     <use style="fill:#ff0000;" x="314.285412" xlink:href="#m5f747ab3fd" y="69.060478"/>
     <use style="fill:#ff0000;" x="314.285412" xlink:href="#m5f747ab3fd" y="74.705513"/>
     <use style="fill:#ff0000;" x="314.285412" xlink:href="#m5f747ab3fd" y="68.867485"/>
     <use style="fill:#ff0000;" x="314.285412" xlink:href="#m5f747ab3fd" y="65.538362"/>
     <use style="fill:#ff0000;" x="314.285412" xlink:href="#m5f747ab3fd" y="76.87668"/>
     <use style="fill:#ff0000;" x="314.285412" xlink:href="#m5f747ab3fd" y="73.499309"/>
     <use style="fill:#ff0000;" x="314.285412" xlink:href="#m5f747ab3fd" y="73.161572"/>
     <use style="fill:#ff0000;" x="314.285412" xlink:href="#m5f747ab3fd" y="74.174783"/>
     <use style="fill:#ff0000;" x="314.285412" xlink:href="#m5f747ab3fd" y="80.977774"/>
     <use style="fill:#ff0000;" x="314.285412" xlink:href="#m5f747ab3fd" y="71.858871"/>
     <use style="fill:#ff0000;" x="314.285412" xlink:href="#m5f747ab3fd" y="69.832449"/>
     <use style="fill:#ff0000;" x="314.285412" xlink:href="#m5f747ab3fd" y="72.196609"/>
     <use style="fill:#ff0000;" x="314.285412" xlink:href="#m5f747ab3fd" y="76.490695"/>
     <use style="fill:#ff0000;" x="314.285412" xlink:href="#m5f747ab3fd" y="77.793396"/>
     <use style="fill:#ff0000;" x="314.285412" xlink:href="#m5f747ab3fd" y="76.056462"/>
     <use style="fill:#ff0000;" x="314.285412" xlink:href="#m5f747ab3fd" y="80.688285"/>
     <use style="fill:#ff0000;" x="314.285412" xlink:href="#m5f747ab3fd" y="436.277253"/>
     <use style="fill:#ff0000;" x="314.285412" xlink:href="#m5f747ab3fd" y="68.963982"/>
     <use style="fill:#ff0000;" x="314.285412" xlink:href="#m5f747ab3fd" y="71.279893"/>
     <use style="fill:#ff0000;" x="314.285412" xlink:href="#m5f747ab3fd" y="76.828432"/>
     <use style="fill:#ff0000;" x="314.285412" xlink:href="#m5f747ab3fd" y="77.359162"/>
     <use style="fill:#ff0000;" x="314.285412" xlink:href="#m5f747ab3fd" y="70.507923"/>
     <use style="fill:#ff0000;" x="314.285412" xlink:href="#m5f747ab3fd" y="74.51252"/>
     <use style="fill:#ff0000;" x="314.285412" xlink:href="#m5f747ab3fd" y="82.13573"/>
     <use style="fill:#ff0000;" x="314.285412" xlink:href="#m5f747ab3fd" y="68.915733"/>
     <use style="fill:#ff0000;" x="314.285412" xlink:href="#m5f747ab3fd" y="76.442447"/>
     <use style="fill:#ff0000;" x="314.285412" xlink:href="#m5f747ab3fd" y="68.674493"/>
     <use style="fill:#ff0000;" x="314.285412" xlink:href="#m5f747ab3fd" y="79.240841"/>
     <use style="fill:#ff0000;" x="314.285412" xlink:href="#m5f747ab3fd" y="74.609017"/>
     <use style="fill:#ff0000;" x="314.285412" xlink:href="#m5f747ab3fd" y="71.37639"/>
     <use style="fill:#ff0000;" x="314.285412" xlink:href="#m5f747ab3fd" y="78.517118"/>
     <use style="fill:#ff0000;" x="314.285412" xlink:href="#m5f747ab3fd" y="68.722741"/>
     <use style="fill:#ff0000;" x="314.285412" xlink:href="#m5f747ab3fd" y="77.359162"/>
     <use style="fill:#ff0000;" x="314.285412" xlink:href="#m5f747ab3fd" y="69.349967"/>
     <use style="fill:#ff0000;" x="314.285412" xlink:href="#m5f747ab3fd" y="75.670476"/>
     <use style="fill:#ff0000;" x="314.285412" xlink:href="#m5f747ab3fd" y="70.121938"/>
     <use style="fill:#ff0000;" x="314.285412" xlink:href="#m5f747ab3fd" y="69.928945"/>
     <use style="fill:#ff0000;" x="314.285412" xlink:href="#m5f747ab3fd" y="71.183397"/>
     <use style="fill:#ff0000;" x="314.285412" xlink:href="#m5f747ab3fd" y="68.4815"/>
     <use style="fill:#ff0000;" x="314.285412" xlink:href="#m5f747ab3fd" y="64.476902"/>
     <use style="fill:#ff0000;" x="314.285412" xlink:href="#m5f747ab3fd" y="76.10471"/>
     <use style="fill:#ff0000;" x="314.285412" xlink:href="#m5f747ab3fd" y="74.030039"/>
     <use style="fill:#ff0000;" x="314.285412" xlink:href="#m5f747ab3fd" y="77.552155"/>
     <use style="fill:#ff0000;" x="314.285412" xlink:href="#m5f747ab3fd" y="67.902522"/>
     <use style="fill:#ff0000;" x="314.285412" xlink:href="#m5f747ab3fd" y="73.644054"/>
     <use style="fill:#ff0000;" x="314.285412" xlink:href="#m5f747ab3fd" y="77.841644"/>
     <use style="fill:#ff0000;" x="314.285412" xlink:href="#m5f747ab3fd" y="62.739968"/>
     <use style="fill:#ff0000;" x="70.794503" xlink:href="#m5f747ab3fd" y="117.308642"/>
     <use style="fill:#ff0000;" x="70.794503" xlink:href="#m5f747ab3fd" y="108.575724"/>
     <use style="fill:#ff0000;" x="70.794503" xlink:href="#m5f747ab3fd" y="118.65959"/>
     <use style="fill:#ff0000;" x="70.794503" xlink:href="#m5f747ab3fd" y="135.546448"/>
     <use style="fill:#ff0000;" x="70.794503" xlink:href="#m5f747ab3fd" y="125.51083"/>
     <use style="fill:#ff0000;" x="70.794503" xlink:href="#m5f747ab3fd" y="131.54185"/>
     <use style="fill:#ff0000;" x="70.794503" xlink:href="#m5f747ab3fd" y="113.738278"/>
     <use style="fill:#ff0000;" x="70.794503" xlink:href="#m5f747ab3fd" y="112.242585"/>
     <use style="fill:#ff0000;" x="70.794503" xlink:href="#m5f747ab3fd" y="119.528057"/>
     <use style="fill:#ff0000;" x="70.794503" xlink:href="#m5f747ab3fd" y="129.322435"/>
     <use style="fill:#ff0000;" x="70.794503" xlink:href="#m5f747ab3fd" y="120.348276"/>
     <use style="fill:#ff0000;" x="70.794503" xlink:href="#m5f747ab3fd" y="120.010539"/>
     <use style="fill:#ff0000;" x="70.794503" xlink:href="#m5f747ab3fd" y="114.317256"/>
     <use style="fill:#ff0000;" x="70.794503" xlink:href="#m5f747ab3fd" y="112.580322"/>
     <use style="fill:#ff0000;" x="70.794503" xlink:href="#m5f747ab3fd" y="115.089226"/>
     <use style="fill:#ff0000;" x="70.794503" xlink:href="#m5f747ab3fd" y="116.536671"/>
     <use style="fill:#ff0000;" x="70.794503" xlink:href="#m5f747ab3fd" y="120.396524"/>
     <use style="fill:#ff0000;" x="70.794503" xlink:href="#m5f747ab3fd" y="125.896815"/>
     <use style="fill:#ff0000;" x="70.794503" xlink:href="#m5f747ab3fd" y="113.255796"/>
     <use style="fill:#ff0000;" x="70.794503" xlink:href="#m5f747ab3fd" y="117.019153"/>
     <use style="fill:#ff0000;" x="70.794503" xlink:href="#m5f747ab3fd" y="122.953677"/>
     <use style="fill:#ff0000;" x="70.794503" xlink:href="#m5f747ab3fd" y="125.221341"/>
     <use style="fill:#ff0000;" x="70.794503" xlink:href="#m5f747ab3fd" y="118.514846"/>
     <use style="fill:#ff0000;" x="70.794503" xlink:href="#m5f747ab3fd" y="109.058206"/>
     <use style="fill:#ff0000;" x="70.794503" xlink:href="#m5f747ab3fd" y="127.006523"/>
     <use style="fill:#ff0000;" x="70.794503" xlink:href="#m5f747ab3fd" y="119.817546"/>
     <use style="fill:#ff0000;" x="70.794503" xlink:href="#m5f747ab3fd" y="117.549883"/>
     <use style="fill:#ff0000;" x="70.794503" xlink:href="#m5f747ab3fd" y="125.028348"/>
     <use style="fill:#ff0000;" x="70.794503" xlink:href="#m5f747ab3fd" y="107.996746"/>
     <use style="fill:#ff0000;" x="70.794503" xlink:href="#m5f747ab3fd" y="121.699225"/>
     <use style="fill:#ff0000;" x="70.794503" xlink:href="#m5f747ab3fd" y="119.914043"/>
     <use style="fill:#ff0000;" x="70.794503" xlink:href="#m5f747ab3fd" y="131.445354"/>
     <use style="fill:#ff0000;" x="70.794503" xlink:href="#m5f747ab3fd" y="115.137474"/>
     <use style="fill:#ff0000;" x="70.794503" xlink:href="#m5f747ab3fd" y="123.870392"/>
     <use style="fill:#ff0000;" x="70.794503" xlink:href="#m5f747ab3fd" y="119.045576"/>
     <use style="fill:#ff0000;" x="70.794503" xlink:href="#m5f747ab3fd" y="127.151267"/>
     <use style="fill:#ff0000;" x="70.794503" xlink:href="#m5f747ab3fd" y="111.084629"/>
     <use style="fill:#ff0000;" x="70.794503" xlink:href="#m5f747ab3fd" y="109.588936"/>
     <use style="fill:#ff0000;" x="70.794503" xlink:href="#m5f747ab3fd" y="123.773896"/>
     <use style="fill:#ff0000;" x="70.794503" xlink:href="#m5f747ab3fd" y="125.945063"/>
     <use style="fill:#ff0000;" x="70.794503" xlink:href="#m5f747ab3fd" y="436.952727"/>
     <use style="fill:#ff0000;" x="70.794503" xlink:href="#m5f747ab3fd" y="112.676818"/>
     <use style="fill:#ff0000;" x="70.794503" xlink:href="#m5f747ab3fd" y="436.807983"/>
     <use style="fill:#ff0000;" x="70.794503" xlink:href="#m5f747ab3fd" y="113.786526"/>
     <use style="fill:#ff0000;" x="70.794503" xlink:href="#m5f747ab3fd" y="113.834774"/>
     <use style="fill:#ff0000;" x="70.794503" xlink:href="#m5f747ab3fd" y="123.966888"/>
     <use style="fill:#ff0000;" x="70.794503" xlink:href="#m5f747ab3fd" y="128.502216"/>
     <use style="fill:#ff0000;" x="70.794503" xlink:href="#m5f747ab3fd" y="117.212145"/>
     <use style="fill:#ff0000;" x="70.794503" xlink:href="#m5f747ab3fd" y="114.654993"/>
     <use style="fill:#ff0000;" x="70.794503" xlink:href="#m5f747ab3fd" y="111.422366"/>
     <use style="fill:#ff0000;" x="70.794503" xlink:href="#m5f747ab3fd" y="112.049592"/>
     <use style="fill:#ff0000;" x="70.794503" xlink:href="#m5f747ab3fd" y="115.571708"/>
     <use style="fill:#ff0000;" x="70.794503" xlink:href="#m5f747ab3fd" y="117.35689"/>
     <use style="fill:#ff0000;" x="70.794503" xlink:href="#m5f747ab3fd" y="121.02375"/>
     <use style="fill:#ff0000;" x="70.794503" xlink:href="#m5f747ab3fd" y="131.927835"/>
     <use style="fill:#ff0000;" x="70.794503" xlink:href="#m5f747ab3fd" y="139.309805"/>
     <use style="fill:#ff0000;" x="70.794503" xlink:href="#m5f747ab3fd" y="124.835355"/>
     <use style="fill:#ff0000;" x="70.794503" xlink:href="#m5f747ab3fd" y="119.865794"/>
     <use style="fill:#ff0000;" x="70.794503" xlink:href="#m5f747ab3fd" y="116.247182"/>
     <use style="fill:#ff0000;" x="70.794503" xlink:href="#m5f747ab3fd" y="127.440756"/>
     <use style="fill:#ff0000;" x="70.794503" xlink:href="#m5f747ab3fd" y="129.853164"/>
     <use style="fill:#ff0000;" x="70.794503" xlink:href="#m5f747ab3fd" y="127.006523"/>
     <use style="fill:#ff0000;" x="70.794503" xlink:href="#m5f747ab3fd" y="112.966307"/>
     <use style="fill:#ff0000;" x="70.794503" xlink:href="#m5f747ab3fd" y="122.08521"/>
     <use style="fill:#ff0000;" x="70.794503" xlink:href="#m5f747ab3fd" y="122.808932"/>
     <use style="fill:#ff0000;" x="70.794503" xlink:href="#m5f747ab3fd" y="110.119665"/>
     <use style="fill:#ff0000;" x="70.794503" xlink:href="#m5f747ab3fd" y="120.203532"/>
     <use style="fill:#ff0000;" x="70.794503" xlink:href="#m5f747ab3fd" y="119.142072"/>
     <use style="fill:#ff0000;" x="70.794503" xlink:href="#m5f747ab3fd" y="127.971486"/>
     <use style="fill:#ff0000;" x="70.794503" xlink:href="#m5f747ab3fd" y="116.440175"/>
     <use style="fill:#ff0000;" x="70.794503" xlink:href="#m5f747ab3fd" y="137.138637"/>
     <use style="fill:#ff0000;" x="70.794503" xlink:href="#m5f747ab3fd" y="125.269589"/>
     <use style="fill:#ff0000;" x="70.794503" xlink:href="#m5f747ab3fd" y="102.737696"/>
     <use style="fill:#ff0000;" x="70.794503" xlink:href="#m5f747ab3fd" y="133.327032"/>
     <use style="fill:#ff0000;" x="70.794503" xlink:href="#m5f747ab3fd" y="123.339662"/>
     <use style="fill:#ff0000;" x="70.794503" xlink:href="#m5f747ab3fd" y="127.87499"/>
     <use style="fill:#ff0000;" x="70.794503" xlink:href="#m5f747ab3fd" y="114.847985"/>
     <use style="fill:#ff0000;" x="70.794503" xlink:href="#m5f747ab3fd" y="120.686013"/>
     <use style="fill:#ff0000;" x="70.794503" xlink:href="#m5f747ab3fd" y="130.528639"/>
     <use style="fill:#ff0000;" x="70.794503" xlink:href="#m5f747ab3fd" y="131.01112"/>
     <use style="fill:#ff0000;" x="70.794503" xlink:href="#m5f747ab3fd" y="127.489004"/>
     <use style="fill:#ff0000;" x="70.794503" xlink:href="#m5f747ab3fd" y="111.615358"/>
     <use style="fill:#ff0000;" x="70.794503" xlink:href="#m5f747ab3fd" y="126.379297"/>
     <use style="fill:#ff0000;" x="70.794503" xlink:href="#m5f747ab3fd" y="154.121991"/>
     <use style="fill:#ff0000;" x="70.794503" xlink:href="#m5f747ab3fd" y="115.619956"/>
     <use style="fill:#ff0000;" x="70.794503" xlink:href="#m5f747ab3fd" y="124.44937"/>
     <use style="fill:#ff0000;" x="70.794503" xlink:href="#m5f747ab3fd" y="114.558496"/>
     <use style="fill:#ff0000;" x="70.794503" xlink:href="#m5f747ab3fd" y="125.076596"/>
     <use style="fill:#ff0000;" x="70.794503" xlink:href="#m5f747ab3fd" y="126.089808"/>
     <use style="fill:#ff0000;" x="70.794503" xlink:href="#m5f747ab3fd" y="126.138056"/>
     <use style="fill:#ff0000;" x="70.794503" xlink:href="#m5f747ab3fd" y="116.198934"/>
     <use style="fill:#ff0000;" x="70.794503" xlink:href="#m5f747ab3fd" y="106.887038"/>
     <use style="fill:#ff0000;" x="70.794503" xlink:href="#m5f747ab3fd" y="121.02375"/>
     <use style="fill:#ff0000;" x="70.794503" xlink:href="#m5f747ab3fd" y="109.685432"/>
     <use style="fill:#ff0000;" x="70.794503" xlink:href="#m5f747ab3fd" y="139.358053"/>
     <use style="fill:#ff0000;" x="70.794503" xlink:href="#m5f747ab3fd" y="122.953677"/>
     <use style="fill:#ff0000;" x="70.794503" xlink:href="#m5f747ab3fd" y="146.305788"/>
     <use style="fill:#ff0000;" x="70.794503" xlink:href="#m5f747ab3fd" y="117.501634"/>
     <use style="fill:#ff0000;" x="70.794503" xlink:href="#m5f747ab3fd" y="114.413752"/>
     <use style="fill:#ff0000;" x="70.794503" xlink:href="#m5f747ab3fd" y="120.975502"/>
    </g>
   </g>
   <g id="patch_3">
    <path d="M 50.503594 456.72 
L 50.503594 21.84 
" style="fill:none;"/>
   </g>
   <g id="patch_4">
    <path d="M 496.903594 456.72 
L 496.903594 21.84 
" style="fill:none;"/>
   </g>
   <g id="patch_5">
    <path d="M 50.503594 456.72 
L 496.903594 456.72 
" style="fill:none;"/>
   </g>
   <g id="patch_6">
    <path d="M 50.503594 21.84 
L 496.903594 21.84 
" style="fill:none;"/>
   </g>
   <g id="text_18">
    <!-- Epidemic size vs $p_{\mathit{infectA}}$ -->
    <defs>
     <path d="M 7.90625 0 
L 7.90625 71.578125 
L 59.671875 71.578125 
L 59.671875 63.140625 
L 17.390625 63.140625 
L 17.390625 41.21875 
L 56.984375 41.21875 
L 56.984375 32.8125 
L 17.390625 32.8125 
L 17.390625 8.453125 
L 61.328125 8.453125 
L 61.328125 0 
z
" id="ArialMT-69"/>
     <path d="M 40.234375 0 
L 40.234375 6.546875 
Q 35.296875 -1.171875 25.734375 -1.171875 
Q 19.53125 -1.171875 14.328125 2.25 
Q 9.125 5.671875 6.265625 11.796875 
Q 3.421875 17.921875 3.421875 25.875 
Q 3.421875 33.640625 6 39.96875 
Q 8.59375 46.296875 13.765625 49.65625 
Q 18.953125 53.03125 25.34375 53.03125 
Q 30.03125 53.03125 33.6875 51.046875 
Q 37.359375 49.078125 39.65625 45.90625 
L 39.65625 71.578125 
L 48.390625 71.578125 
L 48.390625 0 
z
M 12.453125 25.875 
Q 12.453125 15.921875 16.640625 10.984375 
Q 20.84375 6.0625 26.5625 6.0625 
Q 32.328125 6.0625 36.34375 10.765625 
Q 40.375 15.484375 40.375 25.140625 
Q 40.375 35.796875 36.265625 40.765625 
Q 32.171875 45.75 26.171875 45.75 
Q 20.3125 45.75 16.375 40.96875 
Q 12.453125 36.1875 12.453125 25.875 
z
" id="ArialMT-100"/>
     <path d="M 6.59375 0 
L 6.59375 51.859375 
L 14.453125 51.859375 
L 14.453125 44.578125 
Q 16.890625 48.390625 20.9375 50.703125 
Q 25 53.03125 30.171875 53.03125 
Q 35.9375 53.03125 39.625 50.640625 
Q 43.3125 48.25 44.828125 43.953125 
Q 50.984375 53.03125 60.84375 53.03125 
Q 68.5625 53.03125 72.703125 48.75 
Q 76.859375 44.484375 76.859375 35.59375 
L 76.859375 0 
L 68.109375 0 
L 68.109375 32.671875 
Q 68.109375 37.9375 67.25 40.25 
Q 66.40625 42.578125 64.15625 43.984375 
Q 61.921875 45.40625 58.890625 45.40625 
Q 53.421875 45.40625 49.796875 41.765625 
Q 46.1875 38.140625 46.1875 30.125 
L 46.1875 0 
L 37.40625 0 
L 37.40625 33.6875 
Q 37.40625 39.546875 35.25 42.46875 
Q 33.109375 45.40625 28.21875 45.40625 
Q 24.515625 45.40625 21.359375 43.453125 
Q 18.21875 41.5 16.796875 37.734375 
Q 15.375 33.984375 15.375 26.90625 
L 15.375 0 
z
" id="ArialMT-109"/>
     <path d="M 40.4375 19 
L 49.078125 17.875 
Q 47.65625 8.9375 41.8125 3.875 
Q 35.984375 -1.171875 27.484375 -1.171875 
Q 16.84375 -1.171875 10.375 5.78125 
Q 3.90625 12.75 3.90625 25.734375 
Q 3.90625 34.125 6.6875 40.421875 
Q 9.46875 46.734375 15.15625 49.875 
Q 20.84375 53.03125 27.546875 53.03125 
Q 35.984375 53.03125 41.359375 48.75 
Q 46.734375 44.484375 48.25 36.625 
L 39.703125 35.296875 
Q 38.484375 40.53125 35.375 43.15625 
Q 32.28125 45.796875 27.875 45.796875 
Q 21.234375 45.796875 17.078125 41.03125 
Q 12.9375 36.28125 12.9375 25.984375 
Q 12.9375 15.53125 16.9375 10.796875 
Q 20.953125 6.0625 27.390625 6.0625 
Q 32.5625 6.0625 36.03125 9.234375 
Q 39.5 12.40625 40.4375 19 
z
" id="ArialMT-99"/>
     <path d="M 1.953125 0 
L 1.953125 7.125 
L 34.96875 45.015625 
Q 29.34375 44.734375 25.046875 44.734375 
L 3.90625 44.734375 
L 3.90625 51.859375 
L 46.296875 51.859375 
L 46.296875 46.046875 
L 18.21875 13.140625 
L 12.796875 7.125 
Q 18.703125 7.5625 23.875 7.5625 
L 47.859375 7.5625 
L 47.859375 0 
z
" id="ArialMT-122"/>
     <path d="M 21 0 
L 1.265625 51.859375 
L 10.546875 51.859375 
L 21.6875 20.796875 
Q 23.484375 15.765625 25 10.359375 
Q 26.171875 14.453125 28.265625 20.21875 
L 39.796875 51.859375 
L 48.828125 51.859375 
L 29.203125 0 
z
" id="ArialMT-118"/>
    </defs>
    <g style="fill:#262626;" transform="translate(208.603594 15.84)scale(0.12 -0.12)">
     <use transform="translate(0 0.421875)" xlink:href="#ArialMT-69"/>
     <use transform="translate(66.699219 0.421875)" xlink:href="#ArialMT-112"/>
     <use transform="translate(122.314453 0.421875)" xlink:href="#ArialMT-105"/>
     <use transform="translate(144.53125 0.421875)" xlink:href="#ArialMT-100"/>
     <use transform="translate(200.146484 0.421875)" xlink:href="#ArialMT-101"/>
     <use transform="translate(255.761719 0.421875)" xlink:href="#ArialMT-109"/>
     <use transform="translate(339.0625 0.421875)" xlink:href="#ArialMT-105"/>
     <use transform="translate(361.279297 0.421875)" xlink:href="#ArialMT-99"/>
     <use transform="translate(411.279297 0.421875)" xlink:href="#ArialMT-32"/>
     <use transform="translate(439.0625 0.421875)" xlink:href="#ArialMT-115"/>
     <use transform="translate(489.0625 0.421875)" xlink:href="#ArialMT-105"/>
     <use transform="translate(511.279297 0.421875)" xlink:href="#ArialMT-122"/>
     <use transform="translate(561.279297 0.421875)" xlink:href="#ArialMT-101"/>
     <use transform="translate(616.894531 0.421875)" xlink:href="#ArialMT-32"/>
     <use transform="translate(644.677734 0.421875)" xlink:href="#ArialMT-118"/>
     <use transform="translate(694.677734 0.421875)" xlink:href="#ArialMT-115"/>
     <use transform="translate(744.677734 0.421875)" xlink:href="#ArialMT-32"/>
     <use transform="translate(772.460938 0.421875)" xlink:href="#DejaVuSans-Oblique-112"/>
     <use transform="translate(835.9375 -15.984375)scale(0.7)" xlink:href="#DejaVuSans-Oblique-105"/>
     <use transform="translate(855.385742 -15.984375)scale(0.7)" xlink:href="#DejaVuSans-Oblique-110"/>
     <use transform="translate(899.750977 -15.984375)scale(0.7)" xlink:href="#DejaVuSans-Oblique-102"/>
     <use transform="translate(924.394531 -15.984375)scale(0.7)" xlink:href="#DejaVuSans-Oblique-101"/>
     <use transform="translate(967.460938 -15.984375)scale(0.7)" xlink:href="#DejaVuSans-Oblique-99"/>
     <use transform="translate(1005.947266 -15.984375)scale(0.7)" xlink:href="#DejaVuSans-Oblique-116"/>
     <use transform="translate(1033.393555 -15.984375)scale(0.7)" xlink:href="#DejaVuSans-Oblique-65"/>
    </g>
   </g>
  </g>
 </g>
 <defs>
  <clipPath id="p011a7fbd72">
   <rect height="434.88" width="446.4" x="50.503594" y="21.84"/>
  </clipPath>
 </defs>
</svg>
