<?xml version="1.0" encoding="utf-8" standalone="no"?>
<!DOCTYPE svg PUBLIC "-//W3C//DTD SVG 1.1//EN"
  "http://www.w3.org/Graphics/SVG/1.1/DTD/svg11.dtd">
<!-- Created with matplotlib (https://matplotlib.org/) -->
<svg height="494.245156pt" version="1.1" viewBox="0 0 510.225966 494.245156" width="510.225966pt" xmlns="http://www.w3.org/2000/svg" xmlns:xlink="http://www.w3.org/1999/xlink">
 <defs>
  <style type="text/css">
*{stroke-linecap:butt;stroke-linejoin:round;}
  </style>
 </defs>
 <g id="figure_1">
  <g id="patch_1">
   <path d="M 0 494.245156 
L 510.225966 494.245156 
L 510.225966 0 
L 0 0 
z
" style="fill:#ffffff;"/>
  </g>
  <g id="axes_1">
   <g id="patch_2">
    <path d="M 56.064531 456.84 
L 502.464531 456.84 
L 502.464531 21.96 
L 56.064531 21.96 
z
" style="fill:#eaeaf2;"/>
   </g>
   <g id="matplotlib.axis_1">
    <g id="xtick_1">
     <g id="line2d_1">
      <path clip-path="url(#p1bca5a1e1f)" d="M 108.393718 456.84 
L 108.393718 21.96 
" style="fill:none;stroke:#ffffff;stroke-linecap:round;"/>
     </g>
     <g id="line2d_2"/>
     <g id="text_1">
      <!-- 0.000025 -->
      <defs>
       <path d="M 4.15625 35.296875 
Q 4.15625 48 6.765625 55.734375 
Q 9.375 63.484375 14.515625 67.671875 
Q 19.671875 71.875 27.484375 71.875 
Q 33.25 71.875 37.59375 69.546875 
Q 41.9375 67.234375 44.765625 62.859375 
Q 47.609375 58.5 49.21875 52.21875 
Q 50.828125 45.953125 50.828125 35.296875 
Q 50.828125 22.703125 48.234375 14.96875 
Q 45.65625 7.234375 40.5 3 
Q 35.359375 -1.21875 27.484375 -1.21875 
Q 17.140625 -1.21875 11.234375 6.203125 
Q 4.15625 15.140625 4.15625 35.296875 
z
M 13.1875 35.296875 
Q 13.1875 17.671875 17.3125 11.828125 
Q 21.4375 6 27.484375 6 
Q 33.546875 6 37.671875 11.859375 
Q 41.796875 17.71875 41.796875 35.296875 
Q 41.796875 52.984375 37.671875 58.78125 
Q 33.546875 64.59375 27.390625 64.59375 
Q 21.34375 64.59375 17.71875 59.46875 
Q 13.1875 52.9375 13.1875 35.296875 
z
" id="ArialMT-48"/>
       <path d="M 9.078125 0 
L 9.078125 10.015625 
L 19.09375 10.015625 
L 19.09375 0 
z
" id="ArialMT-46"/>
       <path d="M 50.34375 8.453125 
L 50.34375 0 
L 3.03125 0 
Q 2.9375 3.171875 4.046875 6.109375 
Q 5.859375 10.9375 9.828125 15.625 
Q 13.8125 20.3125 21.34375 26.46875 
Q 33.015625 36.03125 37.109375 41.625 
Q 41.21875 47.21875 41.21875 52.203125 
Q 41.21875 57.421875 37.46875 61 
Q 33.734375 64.59375 27.734375 64.59375 
Q 21.390625 64.59375 17.578125 60.78125 
Q 13.765625 56.984375 13.71875 50.25 
L 4.6875 51.171875 
Q 5.609375 61.28125 11.65625 66.578125 
Q 17.71875 71.875 27.9375 71.875 
Q 38.234375 71.875 44.234375 66.15625 
Q 50.25 60.453125 50.25 52 
Q 50.25 47.703125 48.484375 43.546875 
Q 46.734375 39.40625 42.65625 34.8125 
Q 38.578125 30.21875 29.109375 22.21875 
Q 21.1875 15.578125 18.9375 13.203125 
Q 16.703125 10.84375 15.234375 8.453125 
z
" id="ArialMT-50"/>
       <path d="M 4.15625 18.75 
L 13.375 19.53125 
Q 14.40625 12.796875 18.140625 9.390625 
Q 21.875 6 27.15625 6 
Q 33.5 6 37.890625 10.78125 
Q 42.28125 15.578125 42.28125 23.484375 
Q 42.28125 31 38.0625 35.34375 
Q 33.84375 39.703125 27 39.703125 
Q 22.75 39.703125 19.328125 37.765625 
Q 15.921875 35.84375 13.96875 32.765625 
L 5.71875 33.84375 
L 12.640625 70.609375 
L 48.25 70.609375 
L 48.25 62.203125 
L 19.671875 62.203125 
L 15.828125 42.96875 
Q 22.265625 47.46875 29.34375 47.46875 
Q 38.71875 47.46875 45.15625 40.96875 
Q 51.609375 34.46875 51.609375 24.265625 
Q 51.609375 14.546875 45.953125 7.46875 
Q 39.0625 -1.21875 27.15625 -1.21875 
Q 17.390625 -1.21875 11.203125 4.25 
Q 5.03125 9.71875 4.15625 18.75 
z
" id="ArialMT-53"/>
      </defs>
      <g style="fill:#262626;" transform="translate(87.541374 470.997812)scale(0.1 -0.1)">
       <use xlink:href="#ArialMT-48"/>
       <use x="55.615234" xlink:href="#ArialMT-46"/>
       <use x="83.398438" xlink:href="#ArialMT-48"/>
       <use x="139.013672" xlink:href="#ArialMT-48"/>
       <use x="194.628906" xlink:href="#ArialMT-48"/>
       <use x="250.244141" xlink:href="#ArialMT-48"/>
       <use x="305.859375" xlink:href="#ArialMT-50"/>
       <use x="361.474609" xlink:href="#ArialMT-53"/>
      </g>
     </g>
    </g>
    <g id="xtick_2">
     <g id="line2d_3">
      <path clip-path="url(#p1bca5a1e1f)" d="M 161.790847 456.84 
L 161.790847 21.96 
" style="fill:none;stroke:#ffffff;stroke-linecap:round;"/>
     </g>
     <g id="line2d_4"/>
     <g id="text_2">
      <!-- 0.000050 -->
      <g style="fill:#262626;" transform="translate(140.938503 470.997812)scale(0.1 -0.1)">
       <use xlink:href="#ArialMT-48"/>
       <use x="55.615234" xlink:href="#ArialMT-46"/>
       <use x="83.398438" xlink:href="#ArialMT-48"/>
       <use x="139.013672" xlink:href="#ArialMT-48"/>
       <use x="194.628906" xlink:href="#ArialMT-48"/>
       <use x="250.244141" xlink:href="#ArialMT-48"/>
       <use x="305.859375" xlink:href="#ArialMT-53"/>
       <use x="361.474609" xlink:href="#ArialMT-48"/>
      </g>
     </g>
    </g>
    <g id="xtick_3">
     <g id="line2d_5">
      <path clip-path="url(#p1bca5a1e1f)" d="M 215.187976 456.84 
L 215.187976 21.96 
" style="fill:none;stroke:#ffffff;stroke-linecap:round;"/>
     </g>
     <g id="line2d_6"/>
     <g id="text_3">
      <!-- 0.000075 -->
      <defs>
       <path d="M 4.734375 62.203125 
L 4.734375 70.65625 
L 51.078125 70.65625 
L 51.078125 63.8125 
Q 44.234375 56.546875 37.515625 44.484375 
Q 30.8125 32.421875 27.15625 19.671875 
Q 24.515625 10.6875 23.78125 0 
L 14.75 0 
Q 14.890625 8.453125 18.0625 20.40625 
Q 21.234375 32.375 27.171875 43.484375 
Q 33.109375 54.59375 39.796875 62.203125 
z
" id="ArialMT-55"/>
      </defs>
      <g style="fill:#262626;" transform="translate(194.335632 470.997812)scale(0.1 -0.1)">
       <use xlink:href="#ArialMT-48"/>
       <use x="55.615234" xlink:href="#ArialMT-46"/>
       <use x="83.398438" xlink:href="#ArialMT-48"/>
       <use x="139.013672" xlink:href="#ArialMT-48"/>
       <use x="194.628906" xlink:href="#ArialMT-48"/>
       <use x="250.244141" xlink:href="#ArialMT-48"/>
       <use x="305.859375" xlink:href="#ArialMT-55"/>
       <use x="361.474609" xlink:href="#ArialMT-53"/>
      </g>
     </g>
    </g>
    <g id="xtick_4">
     <g id="line2d_7">
      <path clip-path="url(#p1bca5a1e1f)" d="M 268.585105 456.84 
L 268.585105 21.96 
" style="fill:none;stroke:#ffffff;stroke-linecap:round;"/>
     </g>
     <g id="line2d_8"/>
     <g id="text_4">
      <!-- 0.000100 -->
      <defs>
       <path d="M 37.25 0 
L 28.46875 0 
L 28.46875 56 
Q 25.296875 52.984375 20.140625 49.953125 
Q 14.984375 46.921875 10.890625 45.40625 
L 10.890625 53.90625 
Q 18.265625 57.375 23.78125 62.296875 
Q 29.296875 67.234375 31.59375 71.875 
L 37.25 71.875 
z
" id="ArialMT-49"/>
      </defs>
      <g style="fill:#262626;" transform="translate(247.732762 470.997812)scale(0.1 -0.1)">
       <use xlink:href="#ArialMT-48"/>
       <use x="55.615234" xlink:href="#ArialMT-46"/>
       <use x="83.398438" xlink:href="#ArialMT-48"/>
       <use x="139.013672" xlink:href="#ArialMT-48"/>
       <use x="194.628906" xlink:href="#ArialMT-48"/>
       <use x="250.244141" xlink:href="#ArialMT-49"/>
       <use x="305.859375" xlink:href="#ArialMT-48"/>
       <use x="361.474609" xlink:href="#ArialMT-48"/>
      </g>
     </g>
    </g>
    <g id="xtick_5">
     <g id="line2d_9">
      <path clip-path="url(#p1bca5a1e1f)" d="M 321.982235 456.84 
L 321.982235 21.96 
" style="fill:none;stroke:#ffffff;stroke-linecap:round;"/>
     </g>
     <g id="line2d_10"/>
     <g id="text_5">
      <!-- 0.000125 -->
      <g style="fill:#262626;" transform="translate(301.129891 470.997812)scale(0.1 -0.1)">
       <use xlink:href="#ArialMT-48"/>
       <use x="55.615234" xlink:href="#ArialMT-46"/>
       <use x="83.398438" xlink:href="#ArialMT-48"/>
       <use x="139.013672" xlink:href="#ArialMT-48"/>
       <use x="194.628906" xlink:href="#ArialMT-48"/>
       <use x="250.244141" xlink:href="#ArialMT-49"/>
       <use x="305.859375" xlink:href="#ArialMT-50"/>
       <use x="361.474609" xlink:href="#ArialMT-53"/>
      </g>
     </g>
    </g>
    <g id="xtick_6">
     <g id="line2d_11">
      <path clip-path="url(#p1bca5a1e1f)" d="M 375.379364 456.84 
L 375.379364 21.96 
" style="fill:none;stroke:#ffffff;stroke-linecap:round;"/>
     </g>
     <g id="line2d_12"/>
     <g id="text_6">
      <!-- 0.000150 -->
      <g style="fill:#262626;" transform="translate(354.52702 470.997812)scale(0.1 -0.1)">
       <use xlink:href="#ArialMT-48"/>
       <use x="55.615234" xlink:href="#ArialMT-46"/>
       <use x="83.398438" xlink:href="#ArialMT-48"/>
       <use x="139.013672" xlink:href="#ArialMT-48"/>
       <use x="194.628906" xlink:href="#ArialMT-48"/>
       <use x="250.244141" xlink:href="#ArialMT-49"/>
       <use x="305.859375" xlink:href="#ArialMT-53"/>
       <use x="361.474609" xlink:href="#ArialMT-48"/>
      </g>
     </g>
    </g>
    <g id="xtick_7">
     <g id="line2d_13">
      <path clip-path="url(#p1bca5a1e1f)" d="M 428.776493 456.84 
L 428.776493 21.96 
" style="fill:none;stroke:#ffffff;stroke-linecap:round;"/>
     </g>
     <g id="line2d_14"/>
     <g id="text_7">
      <!-- 0.000175 -->
      <g style="fill:#262626;" transform="translate(407.924149 470.997812)scale(0.1 -0.1)">
       <use xlink:href="#ArialMT-48"/>
       <use x="55.615234" xlink:href="#ArialMT-46"/>
       <use x="83.398438" xlink:href="#ArialMT-48"/>
       <use x="139.013672" xlink:href="#ArialMT-48"/>
       <use x="194.628906" xlink:href="#ArialMT-48"/>
       <use x="250.244141" xlink:href="#ArialMT-49"/>
       <use x="305.859375" xlink:href="#ArialMT-55"/>
       <use x="361.474609" xlink:href="#ArialMT-53"/>
      </g>
     </g>
    </g>
    <g id="xtick_8">
     <g id="line2d_15">
      <path clip-path="url(#p1bca5a1e1f)" d="M 482.173622 456.84 
L 482.173622 21.96 
" style="fill:none;stroke:#ffffff;stroke-linecap:round;"/>
     </g>
     <g id="line2d_16"/>
     <g id="text_8">
      <!-- 0.000200 -->
      <g style="fill:#262626;" transform="translate(461.321278 470.997812)scale(0.1 -0.1)">
       <use xlink:href="#ArialMT-48"/>
       <use x="55.615234" xlink:href="#ArialMT-46"/>
       <use x="83.398438" xlink:href="#ArialMT-48"/>
       <use x="139.013672" xlink:href="#ArialMT-48"/>
       <use x="194.628906" xlink:href="#ArialMT-48"/>
       <use x="250.244141" xlink:href="#ArialMT-50"/>
       <use x="305.859375" xlink:href="#ArialMT-48"/>
       <use x="361.474609" xlink:href="#ArialMT-48"/>
      </g>
     </g>
    </g>
    <g id="text_9">
     <!-- $p_{\mathit{infect}}$ -->
     <defs>
      <path d="M 49.609375 33.6875 
Q 49.609375 40.875 46.484375 44.671875 
Q 43.359375 48.484375 37.5 48.484375 
Q 33.5 48.484375 29.859375 46.4375 
Q 26.21875 44.390625 23.390625 40.484375 
Q 20.609375 36.625 18.9375 31.15625 
Q 17.28125 25.6875 17.28125 20.3125 
Q 17.28125 13.484375 20.40625 9.796875 
Q 23.53125 6.109375 29.296875 6.109375 
Q 33.546875 6.109375 37.1875 8.109375 
Q 40.828125 10.109375 43.40625 13.921875 
Q 46.1875 17.921875 47.890625 23.34375 
Q 49.609375 28.765625 49.609375 33.6875 
z
M 21.78125 46.390625 
Q 25.390625 51.125 30.296875 53.5625 
Q 35.203125 56 41.21875 56 
Q 49.609375 56 54.25 50.5 
Q 58.890625 45.015625 58.890625 35.109375 
Q 58.890625 27 56 19.65625 
Q 53.125 12.3125 47.703125 6.5 
Q 44.09375 2.640625 39.546875 0.609375 
Q 35.015625 -1.421875 29.984375 -1.421875 
Q 24.171875 -1.421875 20.21875 1 
Q 16.265625 3.421875 14.3125 8.203125 
L 8.6875 -20.796875 
L -0.296875 -20.796875 
L 14.40625 54.6875 
L 23.390625 54.6875 
z
" id="DejaVuSans-Oblique-112"/>
      <path d="M 18.3125 75.984375 
L 27.296875 75.984375 
L 25.09375 64.59375 
L 16.109375 64.59375 
z
M 14.203125 54.6875 
L 23.1875 54.6875 
L 12.5 0 
L 3.515625 0 
z
" id="DejaVuSans-Oblique-105"/>
      <path d="M 55.71875 33.015625 
L 49.3125 0 
L 40.28125 0 
L 46.6875 32.671875 
Q 47.125 34.96875 47.359375 36.71875 
Q 47.609375 38.484375 47.609375 39.5 
Q 47.609375 43.609375 45.015625 45.890625 
Q 42.4375 48.1875 37.796875 48.1875 
Q 30.5625 48.1875 25.34375 43.375 
Q 20.125 38.578125 18.5 30.328125 
L 12.5 0 
L 3.515625 0 
L 14.109375 54.6875 
L 23.09375 54.6875 
L 21.296875 46.09375 
Q 25.046875 50.828125 30.3125 53.40625 
Q 35.59375 56 41.40625 56 
Q 48.640625 56 52.609375 52.09375 
Q 56.59375 48.1875 56.59375 41.109375 
Q 56.59375 39.359375 56.375 37.359375 
Q 56.15625 35.359375 55.71875 33.015625 
z
" id="DejaVuSans-Oblique-110"/>
      <path d="M 47.796875 75.984375 
L 46.390625 68.5 
L 37.796875 68.5 
Q 32.90625 68.5 30.6875 66.578125 
Q 28.46875 64.65625 27.390625 59.515625 
L 26.421875 54.6875 
L 41.21875 54.6875 
L 39.890625 47.703125 
L 25.09375 47.703125 
L 15.828125 0 
L 6.78125 0 
L 16.109375 47.703125 
L 7.515625 47.703125 
L 8.796875 54.6875 
L 17.390625 54.6875 
L 18.109375 58.5 
Q 19.96875 68.171875 24.625 72.078125 
Q 29.296875 75.984375 39.3125 75.984375 
z
" id="DejaVuSans-Oblique-102"/>
      <path d="M 48.09375 32.234375 
Q 48.25 33.015625 48.3125 33.84375 
Q 48.390625 34.671875 48.390625 35.5 
Q 48.390625 41.453125 44.890625 44.921875 
Q 41.40625 48.390625 35.40625 48.390625 
Q 28.71875 48.390625 23.578125 44.15625 
Q 18.453125 39.9375 15.828125 32.171875 
z
M 55.90625 25.203125 
L 14.109375 25.203125 
Q 13.8125 23.34375 13.71875 22.265625 
Q 13.625 21.1875 13.625 20.40625 
Q 13.625 13.625 17.796875 9.90625 
Q 21.96875 6.203125 29.59375 6.203125 
Q 35.453125 6.203125 40.671875 7.515625 
Q 45.90625 8.84375 50.390625 11.375 
L 48.6875 2.484375 
Q 43.84375 0.53125 38.6875 -0.4375 
Q 33.546875 -1.421875 28.21875 -1.421875 
Q 16.84375 -1.421875 10.71875 4.015625 
Q 4.59375 9.46875 4.59375 19.484375 
Q 4.59375 28.03125 7.640625 35.375 
Q 10.6875 42.71875 16.609375 48.484375 
Q 20.40625 52.09375 25.65625 54.046875 
Q 30.90625 56 36.8125 56 
Q 46.09375 56 51.578125 50.4375 
Q 57.078125 44.875 57.078125 35.5 
Q 57.078125 33.25 56.78125 30.6875 
Q 56.5 28.125 55.90625 25.203125 
z
" id="DejaVuSans-Oblique-101"/>
      <path d="M 53.609375 52.59375 
L 51.8125 43.703125 
Q 48.578125 46.046875 44.9375 47.21875 
Q 41.3125 48.390625 37.40625 48.390625 
Q 33.109375 48.390625 29.21875 46.875 
Q 25.34375 45.359375 22.703125 42.578125 
Q 18.5 38.328125 16.203125 32.609375 
Q 13.921875 26.90625 13.921875 20.796875 
Q 13.921875 13.421875 17.609375 9.8125 
Q 21.296875 6.203125 28.8125 6.203125 
Q 32.515625 6.203125 36.6875 7.328125 
Q 40.875 8.453125 45.40625 10.6875 
L 43.703125 1.8125 
Q 39.796875 0.203125 35.671875 -0.609375 
Q 31.546875 -1.421875 27.203125 -1.421875 
Q 16.3125 -1.421875 10.453125 4.015625 
Q 4.59375 9.46875 4.59375 19.578125 
Q 4.59375 28.078125 7.640625 35.234375 
Q 10.6875 42.390625 16.703125 48.09375 
Q 20.796875 52 26.3125 54 
Q 31.84375 56 38.375 56 
Q 42.1875 56 45.9375 55.140625 
Q 49.703125 54.296875 53.609375 52.59375 
z
" id="DejaVuSans-Oblique-99"/>
      <path d="M 42.28125 54.6875 
L 40.921875 47.703125 
L 23 47.703125 
L 17.1875 18.015625 
Q 16.890625 16.359375 16.75 15.234375 
Q 16.609375 14.109375 16.609375 13.484375 
Q 16.609375 10.359375 18.484375 8.9375 
Q 20.359375 7.515625 24.515625 7.515625 
L 33.59375 7.515625 
L 32.078125 0 
L 23.484375 0 
Q 15.484375 0 11.546875 3.125 
Q 7.625 6.25 7.625 12.59375 
Q 7.625 13.71875 7.765625 15.0625 
Q 7.90625 16.40625 8.203125 18.015625 
L 14.015625 47.703125 
L 6.390625 47.703125 
L 7.8125 54.6875 
L 15.28125 54.6875 
L 18.3125 70.21875 
L 27.296875 70.21875 
L 24.3125 54.6875 
z
" id="DejaVuSans-Oblique-116"/>
     </defs>
     <g style="fill:#262626;" transform="translate(264.744531 484.735156)scale(0.11 -0.11)">
      <use xlink:href="#DejaVuSans-Oblique-112"/>
      <use transform="translate(63.476562 -16.40625)scale(0.7)" xlink:href="#DejaVuSans-Oblique-105"/>
      <use transform="translate(82.924805 -16.40625)scale(0.7)" xlink:href="#DejaVuSans-Oblique-110"/>
      <use transform="translate(127.290039 -16.40625)scale(0.7)" xlink:href="#DejaVuSans-Oblique-102"/>
      <use transform="translate(151.933594 -16.40625)scale(0.7)" xlink:href="#DejaVuSans-Oblique-101"/>
      <use transform="translate(195 -16.40625)scale(0.7)" xlink:href="#DejaVuSans-Oblique-99"/>
      <use transform="translate(233.486328 -16.40625)scale(0.7)" xlink:href="#DejaVuSans-Oblique-116"/>
     </g>
    </g>
   </g>
   <g id="matplotlib.axis_2">
    <g id="ytick_1">
     <g id="line2d_17">
      <path clip-path="url(#p1bca5a1e1f)" d="M 56.064531 433.132713 
L 502.464531 433.132713 
" style="fill:none;stroke:#ffffff;stroke-linecap:round;"/>
     </g>
     <g id="line2d_18"/>
     <g id="text_10">
      <!-- 0 -->
      <g style="fill:#262626;" transform="translate(43.503594 436.711619)scale(0.1 -0.1)">
       <use xlink:href="#ArialMT-48"/>
      </g>
     </g>
    </g>
    <g id="ytick_2">
     <g id="line2d_19">
      <path clip-path="url(#p1bca5a1e1f)" d="M 56.064531 358.20406 
L 502.464531 358.20406 
" style="fill:none;stroke:#ffffff;stroke-linecap:round;"/>
     </g>
     <g id="line2d_20"/>
     <g id="text_11">
      <!-- 2000 -->
      <g style="fill:#262626;" transform="translate(26.820781 361.782966)scale(0.1 -0.1)">
       <use xlink:href="#ArialMT-50"/>
       <use x="55.615234" xlink:href="#ArialMT-48"/>
       <use x="111.230469" xlink:href="#ArialMT-48"/>
       <use x="166.845703" xlink:href="#ArialMT-48"/>
      </g>
     </g>
    </g>
    <g id="ytick_3">
     <g id="line2d_21">
      <path clip-path="url(#p1bca5a1e1f)" d="M 56.064531 283.275407 
L 502.464531 283.275407 
" style="fill:none;stroke:#ffffff;stroke-linecap:round;"/>
     </g>
     <g id="line2d_22"/>
     <g id="text_12">
      <!-- 4000 -->
      <defs>
       <path d="M 32.328125 0 
L 32.328125 17.140625 
L 1.265625 17.140625 
L 1.265625 25.203125 
L 33.9375 71.578125 
L 41.109375 71.578125 
L 41.109375 25.203125 
L 50.78125 25.203125 
L 50.78125 17.140625 
L 41.109375 17.140625 
L 41.109375 0 
z
M 32.328125 25.203125 
L 32.328125 57.46875 
L 9.90625 25.203125 
z
" id="ArialMT-52"/>
      </defs>
      <g style="fill:#262626;" transform="translate(26.820781 286.854314)scale(0.1 -0.1)">
       <use xlink:href="#ArialMT-52"/>
       <use x="55.615234" xlink:href="#ArialMT-48"/>
       <use x="111.230469" xlink:href="#ArialMT-48"/>
       <use x="166.845703" xlink:href="#ArialMT-48"/>
      </g>
     </g>
    </g>
    <g id="ytick_4">
     <g id="line2d_23">
      <path clip-path="url(#p1bca5a1e1f)" d="M 56.064531 208.346755 
L 502.464531 208.346755 
" style="fill:none;stroke:#ffffff;stroke-linecap:round;"/>
     </g>
     <g id="line2d_24"/>
     <g id="text_13">
      <!-- 6000 -->
      <defs>
       <path d="M 49.75 54.046875 
L 41.015625 53.375 
Q 39.84375 58.546875 37.703125 60.890625 
Q 34.125 64.65625 28.90625 64.65625 
Q 24.703125 64.65625 21.53125 62.3125 
Q 17.390625 59.28125 14.984375 53.46875 
Q 12.59375 47.65625 12.5 36.921875 
Q 15.671875 41.75 20.265625 44.09375 
Q 24.859375 46.4375 29.890625 46.4375 
Q 38.671875 46.4375 44.84375 39.96875 
Q 51.03125 33.5 51.03125 23.25 
Q 51.03125 16.5 48.125 10.71875 
Q 45.21875 4.9375 40.140625 1.859375 
Q 35.0625 -1.21875 28.609375 -1.21875 
Q 17.625 -1.21875 10.6875 6.859375 
Q 3.765625 14.9375 3.765625 33.5 
Q 3.765625 54.25 11.421875 63.671875 
Q 18.109375 71.875 29.4375 71.875 
Q 37.890625 71.875 43.28125 67.140625 
Q 48.6875 62.40625 49.75 54.046875 
z
M 13.875 23.1875 
Q 13.875 18.65625 15.796875 14.5 
Q 17.71875 10.359375 21.1875 8.171875 
Q 24.65625 6 28.46875 6 
Q 34.03125 6 38.03125 10.484375 
Q 42.046875 14.984375 42.046875 22.703125 
Q 42.046875 30.125 38.078125 34.390625 
Q 34.125 38.671875 28.125 38.671875 
Q 22.171875 38.671875 18.015625 34.390625 
Q 13.875 30.125 13.875 23.1875 
z
" id="ArialMT-54"/>
      </defs>
      <g style="fill:#262626;" transform="translate(26.820781 211.925661)scale(0.1 -0.1)">
       <use xlink:href="#ArialMT-54"/>
       <use x="55.615234" xlink:href="#ArialMT-48"/>
       <use x="111.230469" xlink:href="#ArialMT-48"/>
       <use x="166.845703" xlink:href="#ArialMT-48"/>
      </g>
     </g>
    </g>
    <g id="ytick_5">
     <g id="line2d_25">
      <path clip-path="url(#p1bca5a1e1f)" d="M 56.064531 133.418102 
L 502.464531 133.418102 
" style="fill:none;stroke:#ffffff;stroke-linecap:round;"/>
     </g>
     <g id="line2d_26"/>
     <g id="text_14">
      <!-- 8000 -->
      <defs>
       <path d="M 17.671875 38.8125 
Q 12.203125 40.828125 9.5625 44.53125 
Q 6.9375 48.25 6.9375 53.421875 
Q 6.9375 61.234375 12.546875 66.546875 
Q 18.171875 71.875 27.484375 71.875 
Q 36.859375 71.875 42.578125 66.421875 
Q 48.296875 60.984375 48.296875 53.171875 
Q 48.296875 48.1875 45.671875 44.5 
Q 43.0625 40.828125 37.75 38.8125 
Q 44.34375 36.671875 47.78125 31.875 
Q 51.21875 27.09375 51.21875 20.453125 
Q 51.21875 11.28125 44.71875 5.03125 
Q 38.234375 -1.21875 27.640625 -1.21875 
Q 17.046875 -1.21875 10.546875 5.046875 
Q 4.046875 11.328125 4.046875 20.703125 
Q 4.046875 27.6875 7.59375 32.390625 
Q 11.140625 37.109375 17.671875 38.8125 
z
M 15.921875 53.71875 
Q 15.921875 48.640625 19.1875 45.40625 
Q 22.46875 42.1875 27.6875 42.1875 
Q 32.765625 42.1875 36.015625 45.375 
Q 39.265625 48.578125 39.265625 53.21875 
Q 39.265625 58.0625 35.90625 61.359375 
Q 32.5625 64.65625 27.59375 64.65625 
Q 22.5625 64.65625 19.234375 61.421875 
Q 15.921875 58.203125 15.921875 53.71875 
z
M 13.09375 20.65625 
Q 13.09375 16.890625 14.875 13.375 
Q 16.65625 9.859375 20.171875 7.921875 
Q 23.6875 6 27.734375 6 
Q 34.03125 6 38.125 10.046875 
Q 42.234375 14.109375 42.234375 20.359375 
Q 42.234375 26.703125 38.015625 30.859375 
Q 33.796875 35.015625 27.4375 35.015625 
Q 21.234375 35.015625 17.15625 30.90625 
Q 13.09375 26.8125 13.09375 20.65625 
z
" id="ArialMT-56"/>
      </defs>
      <g style="fill:#262626;" transform="translate(26.820781 136.997008)scale(0.1 -0.1)">
       <use xlink:href="#ArialMT-56"/>
       <use x="55.615234" xlink:href="#ArialMT-48"/>
       <use x="111.230469" xlink:href="#ArialMT-48"/>
       <use x="166.845703" xlink:href="#ArialMT-48"/>
      </g>
     </g>
    </g>
    <g id="ytick_6">
     <g id="line2d_27">
      <path clip-path="url(#p1bca5a1e1f)" d="M 56.064531 58.489449 
L 502.464531 58.489449 
" style="fill:none;stroke:#ffffff;stroke-linecap:round;"/>
     </g>
     <g id="line2d_28"/>
     <g id="text_15">
      <!-- 10000 -->
      <g style="fill:#262626;" transform="translate(21.259844 62.068355)scale(0.1 -0.1)">
       <use xlink:href="#ArialMT-49"/>
       <use x="55.615234" xlink:href="#ArialMT-48"/>
       <use x="111.230469" xlink:href="#ArialMT-48"/>
       <use x="166.845703" xlink:href="#ArialMT-48"/>
       <use x="222.460938" xlink:href="#ArialMT-48"/>
      </g>
     </g>
    </g>
    <g id="text_16">
     <!-- population that is... -->
     <defs>
      <path d="M 6.59375 -19.875 
L 6.59375 51.859375 
L 14.59375 51.859375 
L 14.59375 45.125 
Q 17.4375 49.078125 21 51.046875 
Q 24.5625 53.03125 29.640625 53.03125 
Q 36.28125 53.03125 41.359375 49.609375 
Q 46.4375 46.1875 49.015625 39.953125 
Q 51.609375 33.734375 51.609375 26.3125 
Q 51.609375 18.359375 48.75 11.984375 
Q 45.90625 5.609375 40.453125 2.21875 
Q 35.015625 -1.171875 29 -1.171875 
Q 24.609375 -1.171875 21.109375 0.6875 
Q 17.625 2.546875 15.375 5.375 
L 15.375 -19.875 
z
M 14.546875 25.640625 
Q 14.546875 15.625 18.59375 10.84375 
Q 22.65625 6.0625 28.421875 6.0625 
Q 34.28125 6.0625 38.453125 11.015625 
Q 42.625 15.96875 42.625 26.375 
Q 42.625 36.28125 38.546875 41.203125 
Q 34.46875 46.140625 28.8125 46.140625 
Q 23.1875 46.140625 18.859375 40.890625 
Q 14.546875 35.640625 14.546875 25.640625 
z
" id="ArialMT-112"/>
      <path d="M 3.328125 25.921875 
Q 3.328125 40.328125 11.328125 47.265625 
Q 18.015625 53.03125 27.640625 53.03125 
Q 38.328125 53.03125 45.109375 46.015625 
Q 51.90625 39.015625 51.90625 26.65625 
Q 51.90625 16.65625 48.90625 10.90625 
Q 45.90625 5.171875 40.15625 2 
Q 34.421875 -1.171875 27.640625 -1.171875 
Q 16.75 -1.171875 10.03125 5.8125 
Q 3.328125 12.796875 3.328125 25.921875 
z
M 12.359375 25.921875 
Q 12.359375 15.96875 16.703125 11.015625 
Q 21.046875 6.0625 27.640625 6.0625 
Q 34.1875 6.0625 38.53125 11.03125 
Q 42.875 16.015625 42.875 26.21875 
Q 42.875 35.84375 38.5 40.796875 
Q 34.125 45.75 27.640625 45.75 
Q 21.046875 45.75 16.703125 40.8125 
Q 12.359375 35.890625 12.359375 25.921875 
z
" id="ArialMT-111"/>
      <path d="M 40.578125 0 
L 40.578125 7.625 
Q 34.515625 -1.171875 24.125 -1.171875 
Q 19.53125 -1.171875 15.546875 0.578125 
Q 11.578125 2.34375 9.640625 5 
Q 7.71875 7.671875 6.9375 11.53125 
Q 6.390625 14.109375 6.390625 19.734375 
L 6.390625 51.859375 
L 15.1875 51.859375 
L 15.1875 23.09375 
Q 15.1875 16.21875 15.71875 13.8125 
Q 16.546875 10.359375 19.234375 8.375 
Q 21.921875 6.390625 25.875 6.390625 
Q 29.828125 6.390625 33.296875 8.421875 
Q 36.765625 10.453125 38.203125 13.9375 
Q 39.65625 17.4375 39.65625 24.078125 
L 39.65625 51.859375 
L 48.4375 51.859375 
L 48.4375 0 
z
" id="ArialMT-117"/>
      <path d="M 6.390625 0 
L 6.390625 71.578125 
L 15.1875 71.578125 
L 15.1875 0 
z
" id="ArialMT-108"/>
      <path d="M 40.4375 6.390625 
Q 35.546875 2.25 31.03125 0.53125 
Q 26.515625 -1.171875 21.34375 -1.171875 
Q 12.796875 -1.171875 8.203125 3 
Q 3.609375 7.171875 3.609375 13.671875 
Q 3.609375 17.484375 5.34375 20.625 
Q 7.078125 23.78125 9.890625 25.6875 
Q 12.703125 27.59375 16.21875 28.5625 
Q 18.796875 29.25 24.03125 29.890625 
Q 34.671875 31.15625 39.703125 32.90625 
Q 39.75 34.71875 39.75 35.203125 
Q 39.75 40.578125 37.25 42.78125 
Q 33.890625 45.75 27.25 45.75 
Q 21.046875 45.75 18.09375 43.578125 
Q 15.140625 41.40625 13.71875 35.890625 
L 5.125 37.0625 
Q 6.296875 42.578125 8.984375 45.96875 
Q 11.671875 49.359375 16.75 51.1875 
Q 21.828125 53.03125 28.515625 53.03125 
Q 35.15625 53.03125 39.296875 51.46875 
Q 43.453125 49.90625 45.40625 47.53125 
Q 47.359375 45.171875 48.140625 41.546875 
Q 48.578125 39.3125 48.578125 33.453125 
L 48.578125 21.734375 
Q 48.578125 9.46875 49.140625 6.21875 
Q 49.703125 2.984375 51.375 0 
L 42.1875 0 
Q 40.828125 2.734375 40.4375 6.390625 
z
M 39.703125 26.03125 
Q 34.90625 24.078125 25.34375 22.703125 
Q 19.921875 21.921875 17.671875 20.9375 
Q 15.4375 19.96875 14.203125 18.09375 
Q 12.984375 16.21875 12.984375 13.921875 
Q 12.984375 10.40625 15.640625 8.0625 
Q 18.3125 5.71875 23.4375 5.71875 
Q 28.515625 5.71875 32.46875 7.9375 
Q 36.421875 10.15625 38.28125 14.015625 
Q 39.703125 17 39.703125 22.796875 
z
" id="ArialMT-97"/>
      <path d="M 25.78125 7.859375 
L 27.046875 0.09375 
Q 23.34375 -0.6875 20.40625 -0.6875 
Q 15.625 -0.6875 12.984375 0.828125 
Q 10.359375 2.34375 9.28125 4.8125 
Q 8.203125 7.28125 8.203125 15.1875 
L 8.203125 45.015625 
L 1.765625 45.015625 
L 1.765625 51.859375 
L 8.203125 51.859375 
L 8.203125 64.703125 
L 16.9375 69.96875 
L 16.9375 51.859375 
L 25.78125 51.859375 
L 25.78125 45.015625 
L 16.9375 45.015625 
L 16.9375 14.703125 
Q 16.9375 10.9375 17.40625 9.859375 
Q 17.875 8.796875 18.921875 8.15625 
Q 19.96875 7.515625 21.921875 7.515625 
Q 23.390625 7.515625 25.78125 7.859375 
z
" id="ArialMT-116"/>
      <path d="M 6.640625 61.46875 
L 6.640625 71.578125 
L 15.4375 71.578125 
L 15.4375 61.46875 
z
M 6.640625 0 
L 6.640625 51.859375 
L 15.4375 51.859375 
L 15.4375 0 
z
" id="ArialMT-105"/>
      <path d="M 6.59375 0 
L 6.59375 51.859375 
L 14.5 51.859375 
L 14.5 44.484375 
Q 20.21875 53.03125 31 53.03125 
Q 35.6875 53.03125 39.625 51.34375 
Q 43.5625 49.65625 45.515625 46.921875 
Q 47.46875 44.1875 48.25 40.4375 
Q 48.734375 37.984375 48.734375 31.890625 
L 48.734375 0 
L 39.9375 0 
L 39.9375 31.546875 
Q 39.9375 36.921875 38.90625 39.578125 
Q 37.890625 42.234375 35.28125 43.8125 
Q 32.671875 45.40625 29.15625 45.40625 
Q 23.53125 45.40625 19.453125 41.84375 
Q 15.375 38.28125 15.375 28.328125 
L 15.375 0 
z
" id="ArialMT-110"/>
      <path id="ArialMT-32"/>
      <path d="M 6.59375 0 
L 6.59375 71.578125 
L 15.375 71.578125 
L 15.375 45.90625 
Q 21.53125 53.03125 30.90625 53.03125 
Q 36.671875 53.03125 40.921875 50.75 
Q 45.171875 48.484375 47 44.484375 
Q 48.828125 40.484375 48.828125 32.859375 
L 48.828125 0 
L 40.046875 0 
L 40.046875 32.859375 
Q 40.046875 39.453125 37.1875 42.453125 
Q 34.328125 45.453125 29.109375 45.453125 
Q 25.203125 45.453125 21.75 43.421875 
Q 18.3125 41.40625 16.84375 37.9375 
Q 15.375 34.46875 15.375 28.375 
L 15.375 0 
z
" id="ArialMT-104"/>
      <path d="M 3.078125 15.484375 
L 11.765625 16.84375 
Q 12.5 11.625 15.84375 8.84375 
Q 19.1875 6.0625 25.203125 6.0625 
Q 31.25 6.0625 34.171875 8.515625 
Q 37.109375 10.984375 37.109375 14.3125 
Q 37.109375 17.28125 34.515625 19 
Q 32.71875 20.171875 25.53125 21.96875 
Q 15.875 24.421875 12.140625 26.203125 
Q 8.40625 27.984375 6.46875 31.125 
Q 4.546875 34.28125 4.546875 38.09375 
Q 4.546875 41.546875 6.125 44.5 
Q 7.71875 47.46875 10.453125 49.421875 
Q 12.5 50.921875 16.03125 51.96875 
Q 19.578125 53.03125 23.640625 53.03125 
Q 29.734375 53.03125 34.34375 51.265625 
Q 38.96875 49.515625 41.15625 46.5 
Q 43.359375 43.5 44.1875 38.484375 
L 35.59375 37.3125 
Q 35.015625 41.3125 32.203125 43.546875 
Q 29.390625 45.796875 24.265625 45.796875 
Q 18.21875 45.796875 15.625 43.796875 
Q 13.03125 41.796875 13.03125 39.109375 
Q 13.03125 37.40625 14.109375 36.03125 
Q 15.1875 34.625 17.484375 33.6875 
Q 18.796875 33.203125 25.25 31.453125 
Q 34.578125 28.953125 38.25 27.359375 
Q 41.9375 25.78125 44.03125 22.75 
Q 46.140625 19.734375 46.140625 15.234375 
Q 46.140625 10.84375 43.578125 6.953125 
Q 41.015625 3.078125 36.171875 0.953125 
Q 31.34375 -1.171875 25.25 -1.171875 
Q 15.140625 -1.171875 9.84375 3.03125 
Q 4.546875 7.234375 3.078125 15.484375 
z
" id="ArialMT-115"/>
     </defs>
     <g style="fill:#262626;" transform="translate(15.073594 285.566484)rotate(-90)scale(0.11 -0.11)">
      <use xlink:href="#ArialMT-112"/>
      <use x="55.615234" xlink:href="#ArialMT-111"/>
      <use x="111.230469" xlink:href="#ArialMT-112"/>
      <use x="166.845703" xlink:href="#ArialMT-117"/>
      <use x="222.460938" xlink:href="#ArialMT-108"/>
      <use x="244.677734" xlink:href="#ArialMT-97"/>
      <use x="300.292969" xlink:href="#ArialMT-116"/>
      <use x="328.076172" xlink:href="#ArialMT-105"/>
      <use x="350.292969" xlink:href="#ArialMT-111"/>
      <use x="405.908203" xlink:href="#ArialMT-110"/>
      <use x="461.523438" xlink:href="#ArialMT-32"/>
      <use x="489.306641" xlink:href="#ArialMT-116"/>
      <use x="517.089844" xlink:href="#ArialMT-104"/>
      <use x="572.705078" xlink:href="#ArialMT-97"/>
      <use x="628.320312" xlink:href="#ArialMT-116"/>
      <use x="656.103516" xlink:href="#ArialMT-32"/>
      <use x="683.886719" xlink:href="#ArialMT-105"/>
      <use x="706.103516" xlink:href="#ArialMT-115"/>
      <use x="756.103516" xlink:href="#ArialMT-46"/>
      <use x="783.886719" xlink:href="#ArialMT-46"/>
      <use x="811.669922" xlink:href="#ArialMT-46"/>
     </g>
    </g>
   </g>
   <g id="LineCollection_1">
    <path clip-path="url(#p1bca5a1e1f)" d="M 76.35544 432.838908 
L 76.35544 432.512388 
" style="fill:none;stroke:#bfbfbf;stroke-width:1.75;"/>
    <path clip-path="url(#p1bca5a1e1f)" d="M 84.637444 432.764421 
L 84.637444 432.38232 
" style="fill:none;stroke:#bfbfbf;stroke-width:1.75;"/>
    <path clip-path="url(#p1bca5a1e1f)" d="M 92.919448 432.768417 
L 92.919448 432.373078 
" style="fill:none;stroke:#bfbfbf;stroke-width:1.75;"/>
    <path clip-path="url(#p1bca5a1e1f)" d="M 101.201451 432.773546 
L 101.201451 432.227833 
" style="fill:none;stroke:#bfbfbf;stroke-width:1.75;"/>
    <path clip-path="url(#p1bca5a1e1f)" d="M 109.483455 432.770042 
L 109.483455 431.966839 
" style="fill:none;stroke:#bfbfbf;stroke-width:1.75;"/>
    <path clip-path="url(#p1bca5a1e1f)" d="M 117.765459 432.7442 
L 117.765459 431.600804 
" style="fill:none;stroke:#bfbfbf;stroke-width:1.75;"/>
    <path clip-path="url(#p1bca5a1e1f)" d="M 126.047463 432.821114 
L 126.047463 431.359047 
" style="fill:none;stroke:#bfbfbf;stroke-width:1.75;"/>
    <path clip-path="url(#p1bca5a1e1f)" d="M 134.329466 432.841221 
L 134.329466 430.468269 
" style="fill:none;stroke:#bfbfbf;stroke-width:1.75;"/>
    <path clip-path="url(#p1bca5a1e1f)" d="M 142.61147 432.957857 
L 142.61147 429.851859 
" style="fill:none;stroke:#bfbfbf;stroke-width:1.75;"/>
    <path clip-path="url(#p1bca5a1e1f)" d="M 150.893474 433.11876 
L 150.893474 426.300434 
" style="fill:none;stroke:#bfbfbf;stroke-width:1.75;"/>
    <path clip-path="url(#p1bca5a1e1f)" d="M 159.175477 435.751641 
L 159.175477 418.977769 
" style="fill:none;stroke:#bfbfbf;stroke-width:1.75;"/>
    <path clip-path="url(#p1bca5a1e1f)" d="M 167.457481 437.072727 
L 167.457481 403.655515 
" style="fill:none;stroke:#bfbfbf;stroke-width:1.75;"/>
    <path clip-path="url(#p1bca5a1e1f)" d="M 175.739485 429.877217 
L 175.739485 374.006358 
" style="fill:none;stroke:#bfbfbf;stroke-width:1.75;"/>
    <path clip-path="url(#p1bca5a1e1f)" d="M 184.021489 404.834095 
L 184.021489 314.201773 
" style="fill:none;stroke:#bfbfbf;stroke-width:1.75;"/>
    <path clip-path="url(#p1bca5a1e1f)" d="M 192.303492 377.398209 
L 192.303492 270.340798 
" style="fill:none;stroke:#bfbfbf;stroke-width:1.75;"/>
    <path clip-path="url(#p1bca5a1e1f)" d="M 200.585496 331.316667 
L 200.585496 235.153973 
" style="fill:none;stroke:#bfbfbf;stroke-width:1.75;"/>
    <path clip-path="url(#p1bca5a1e1f)" d="M 208.8675 310.010257 
L 208.8675 205.215179 
" style="fill:none;stroke:#bfbfbf;stroke-width:1.75;"/>
    <path clip-path="url(#p1bca5a1e1f)" d="M 217.149503 244.902852 
L 217.149503 200.263545 
" style="fill:none;stroke:#bfbfbf;stroke-width:1.75;"/>
    <path clip-path="url(#p1bca5a1e1f)" d="M 225.431507 253.145008 
L 225.431507 175.022325 
" style="fill:none;stroke:#bfbfbf;stroke-width:1.75;"/>
    <path clip-path="url(#p1bca5a1e1f)" d="M 233.713511 217.86716 
L 233.713511 167.769172 
" style="fill:none;stroke:#bfbfbf;stroke-width:1.75;"/>
    <path clip-path="url(#p1bca5a1e1f)" d="M 241.995515 206.473778 
L 241.995515 154.493044 
" style="fill:none;stroke:#bfbfbf;stroke-width:1.75;"/>
    <path clip-path="url(#p1bca5a1e1f)" d="M 250.277518 209.396773 
L 250.277518 133.688327 
" style="fill:none;stroke:#bfbfbf;stroke-width:1.75;"/>
    <path clip-path="url(#p1bca5a1e1f)" d="M 258.559522 199.662773 
L 258.559522 121.152781 
" style="fill:none;stroke:#bfbfbf;stroke-width:1.75;"/>
    <path clip-path="url(#p1bca5a1e1f)" d="M 266.841526 149.625128 
L 266.841526 142.291944 
" style="fill:none;stroke:#bfbfbf;stroke-width:1.75;"/>
    <path clip-path="url(#p1bca5a1e1f)" d="M 275.123529 170.634245 
L 275.123529 111.196681 
" style="fill:none;stroke:#bfbfbf;stroke-width:1.75;"/>
    <path clip-path="url(#p1bca5a1e1f)" d="M 283.405533 134.110813 
L 283.405533 127.815316 
" style="fill:none;stroke:#bfbfbf;stroke-width:1.75;"/>
    <path clip-path="url(#p1bca5a1e1f)" d="M 291.687537 158.941815 
L 291.687537 97.020743 
" style="fill:none;stroke:#bfbfbf;stroke-width:1.75;"/>
    <path clip-path="url(#p1bca5a1e1f)" d="M 299.969541 153.556677 
L 299.969541 90.494473 
" style="fill:none;stroke:#bfbfbf;stroke-width:1.75;"/>
    <path clip-path="url(#p1bca5a1e1f)" d="M 308.251544 116.849937 
L 308.251544 110.770108 
" style="fill:none;stroke:#bfbfbf;stroke-width:1.75;"/>
    <path clip-path="url(#p1bca5a1e1f)" d="M 316.533548 110.942471 
L 316.533548 106.160589 
" style="fill:none;stroke:#bfbfbf;stroke-width:1.75;"/>
    <path clip-path="url(#p1bca5a1e1f)" d="M 324.815552 107.332577 
L 324.815552 102.903272 
" style="fill:none;stroke:#bfbfbf;stroke-width:1.75;"/>
    <path clip-path="url(#p1bca5a1e1f)" d="M 333.097555 155.167275 
L 333.097555 61.973249 
" style="fill:none;stroke:#bfbfbf;stroke-width:1.75;"/>
    <path clip-path="url(#p1bca5a1e1f)" d="M 341.379559 99.295046 
L 341.379559 95.188552 
" style="fill:none;stroke:#bfbfbf;stroke-width:1.75;"/>
    <path clip-path="url(#p1bca5a1e1f)" d="M 349.661563 131.757724 
L 349.661563 63.947211 
" style="fill:none;stroke:#bfbfbf;stroke-width:1.75;"/>
    <path clip-path="url(#p1bca5a1e1f)" d="M 357.943567 93.512317 
L 357.943567 90.117865 
" style="fill:none;stroke:#bfbfbf;stroke-width:1.75;"/>
    <path clip-path="url(#p1bca5a1e1f)" d="M 366.22557 90.771519 
L 366.22557 87.726051 
" style="fill:none;stroke:#bfbfbf;stroke-width:1.75;"/>
    <path clip-path="url(#p1bca5a1e1f)" d="M 374.507574 88.247881 
L 374.507574 85.289412 
" style="fill:none;stroke:#bfbfbf;stroke-width:1.75;"/>
    <path clip-path="url(#p1bca5a1e1f)" d="M 382.789578 86.35935 
L 382.789578 83.249434 
" style="fill:none;stroke:#bfbfbf;stroke-width:1.75;"/>
    <path clip-path="url(#p1bca5a1e1f)" d="M 391.071581 84.231972 
L 391.071581 81.36663 
" style="fill:none;stroke:#bfbfbf;stroke-width:1.75;"/>
    <path clip-path="url(#p1bca5a1e1f)" d="M 399.353585 81.942812 
L 399.353585 79.422322 
" style="fill:none;stroke:#bfbfbf;stroke-width:1.75;"/>
    <path clip-path="url(#p1bca5a1e1f)" d="M 407.635589 80.848565 
L 407.635589 78.596896 
" style="fill:none;stroke:#bfbfbf;stroke-width:1.75;"/>
    <path clip-path="url(#p1bca5a1e1f)" d="M 415.917592 78.994257 
L 415.917592 76.657566 
" style="fill:none;stroke:#bfbfbf;stroke-width:1.75;"/>
    <path clip-path="url(#p1bca5a1e1f)" d="M 424.199596 77.77256 
L 424.199596 75.285234 
" style="fill:none;stroke:#bfbfbf;stroke-width:1.75;"/>
    <path clip-path="url(#p1bca5a1e1f)" d="M 432.4816 76.270397 
L 432.4816 73.937111 
" style="fill:none;stroke:#bfbfbf;stroke-width:1.75;"/>
    <path clip-path="url(#p1bca5a1e1f)" d="M 440.763604 113.558899 
L 440.763604 41.727273 
" style="fill:none;stroke:#bfbfbf;stroke-width:1.75;"/>
    <path clip-path="url(#p1bca5a1e1f)" d="M 449.045607 73.581651 
L 449.045607 71.756243 
" style="fill:none;stroke:#bfbfbf;stroke-width:1.75;"/>
    <path clip-path="url(#p1bca5a1e1f)" d="M 457.327611 72.688505 
L 457.327611 70.934273 
" style="fill:none;stroke:#bfbfbf;stroke-width:1.75;"/>
    <path clip-path="url(#p1bca5a1e1f)" d="M 465.609615 71.729838 
L 465.609615 69.944045 
" style="fill:none;stroke:#bfbfbf;stroke-width:1.75;"/>
    <path clip-path="url(#p1bca5a1e1f)" d="M 473.891618 71.041804 
L 473.891618 69.52838 
" style="fill:none;stroke:#bfbfbf;stroke-width:1.75;"/>
    <path clip-path="url(#p1bca5a1e1f)" d="M 482.173622 70.111196 
L 482.173622 68.464388 
" style="fill:none;stroke:#bfbfbf;stroke-width:1.75;"/>
   </g>
   <g id="line2d_29">
    <defs>
     <path d="M 2 0 
L -2 -0 
" id="m66b0b74a0d"/>
    </defs>
    <g clip-path="url(#p1bca5a1e1f)">
     <use style="fill:#bfbfbf;" x="76.35544" xlink:href="#m66b0b74a0d" y="432.838908"/>
     <use style="fill:#bfbfbf;" x="84.637444" xlink:href="#m66b0b74a0d" y="432.764421"/>
     <use style="fill:#bfbfbf;" x="92.919448" xlink:href="#m66b0b74a0d" y="432.768417"/>
     <use style="fill:#bfbfbf;" x="101.201451" xlink:href="#m66b0b74a0d" y="432.773546"/>
     <use style="fill:#bfbfbf;" x="109.483455" xlink:href="#m66b0b74a0d" y="432.770042"/>
     <use style="fill:#bfbfbf;" x="117.765459" xlink:href="#m66b0b74a0d" y="432.7442"/>
     <use style="fill:#bfbfbf;" x="126.047463" xlink:href="#m66b0b74a0d" y="432.821114"/>
     <use style="fill:#bfbfbf;" x="134.329466" xlink:href="#m66b0b74a0d" y="432.841221"/>
     <use style="fill:#bfbfbf;" x="142.61147" xlink:href="#m66b0b74a0d" y="432.957857"/>
     <use style="fill:#bfbfbf;" x="150.893474" xlink:href="#m66b0b74a0d" y="433.11876"/>
     <use style="fill:#bfbfbf;" x="159.175477" xlink:href="#m66b0b74a0d" y="435.751641"/>
     <use style="fill:#bfbfbf;" x="167.457481" xlink:href="#m66b0b74a0d" y="437.072727"/>
     <use style="fill:#bfbfbf;" x="175.739485" xlink:href="#m66b0b74a0d" y="429.877217"/>
     <use style="fill:#bfbfbf;" x="184.021489" xlink:href="#m66b0b74a0d" y="404.834095"/>
     <use style="fill:#bfbfbf;" x="192.303492" xlink:href="#m66b0b74a0d" y="377.398209"/>
     <use style="fill:#bfbfbf;" x="200.585496" xlink:href="#m66b0b74a0d" y="331.316667"/>
     <use style="fill:#bfbfbf;" x="208.8675" xlink:href="#m66b0b74a0d" y="310.010257"/>
     <use style="fill:#bfbfbf;" x="217.149503" xlink:href="#m66b0b74a0d" y="244.902852"/>
     <use style="fill:#bfbfbf;" x="225.431507" xlink:href="#m66b0b74a0d" y="253.145008"/>
     <use style="fill:#bfbfbf;" x="233.713511" xlink:href="#m66b0b74a0d" y="217.86716"/>
     <use style="fill:#bfbfbf;" x="241.995515" xlink:href="#m66b0b74a0d" y="206.473778"/>
     <use style="fill:#bfbfbf;" x="250.277518" xlink:href="#m66b0b74a0d" y="209.396773"/>
     <use style="fill:#bfbfbf;" x="258.559522" xlink:href="#m66b0b74a0d" y="199.662773"/>
     <use style="fill:#bfbfbf;" x="266.841526" xlink:href="#m66b0b74a0d" y="149.625128"/>
     <use style="fill:#bfbfbf;" x="275.123529" xlink:href="#m66b0b74a0d" y="170.634245"/>
     <use style="fill:#bfbfbf;" x="283.405533" xlink:href="#m66b0b74a0d" y="134.110813"/>
     <use style="fill:#bfbfbf;" x="291.687537" xlink:href="#m66b0b74a0d" y="158.941815"/>
     <use style="fill:#bfbfbf;" x="299.969541" xlink:href="#m66b0b74a0d" y="153.556677"/>
     <use style="fill:#bfbfbf;" x="308.251544" xlink:href="#m66b0b74a0d" y="116.849937"/>
     <use style="fill:#bfbfbf;" x="316.533548" xlink:href="#m66b0b74a0d" y="110.942471"/>
     <use style="fill:#bfbfbf;" x="324.815552" xlink:href="#m66b0b74a0d" y="107.332577"/>
     <use style="fill:#bfbfbf;" x="333.097555" xlink:href="#m66b0b74a0d" y="155.167275"/>
     <use style="fill:#bfbfbf;" x="341.379559" xlink:href="#m66b0b74a0d" y="99.295046"/>
     <use style="fill:#bfbfbf;" x="349.661563" xlink:href="#m66b0b74a0d" y="131.757724"/>
     <use style="fill:#bfbfbf;" x="357.943567" xlink:href="#m66b0b74a0d" y="93.512317"/>
     <use style="fill:#bfbfbf;" x="366.22557" xlink:href="#m66b0b74a0d" y="90.771519"/>
     <use style="fill:#bfbfbf;" x="374.507574" xlink:href="#m66b0b74a0d" y="88.247881"/>
     <use style="fill:#bfbfbf;" x="382.789578" xlink:href="#m66b0b74a0d" y="86.35935"/>
     <use style="fill:#bfbfbf;" x="391.071581" xlink:href="#m66b0b74a0d" y="84.231972"/>
     <use style="fill:#bfbfbf;" x="399.353585" xlink:href="#m66b0b74a0d" y="81.942812"/>
     <use style="fill:#bfbfbf;" x="407.635589" xlink:href="#m66b0b74a0d" y="80.848565"/>
     <use style="fill:#bfbfbf;" x="415.917592" xlink:href="#m66b0b74a0d" y="78.994257"/>
     <use style="fill:#bfbfbf;" x="424.199596" xlink:href="#m66b0b74a0d" y="77.77256"/>
     <use style="fill:#bfbfbf;" x="432.4816" xlink:href="#m66b0b74a0d" y="76.270397"/>
     <use style="fill:#bfbfbf;" x="440.763604" xlink:href="#m66b0b74a0d" y="113.558899"/>
     <use style="fill:#bfbfbf;" x="449.045607" xlink:href="#m66b0b74a0d" y="73.581651"/>
     <use style="fill:#bfbfbf;" x="457.327611" xlink:href="#m66b0b74a0d" y="72.688505"/>
     <use style="fill:#bfbfbf;" x="465.609615" xlink:href="#m66b0b74a0d" y="71.729838"/>
     <use style="fill:#bfbfbf;" x="473.891618" xlink:href="#m66b0b74a0d" y="71.041804"/>
     <use style="fill:#bfbfbf;" x="482.173622" xlink:href="#m66b0b74a0d" y="70.111196"/>
    </g>
   </g>
   <g id="line2d_30">
    <g clip-path="url(#p1bca5a1e1f)">
     <use style="fill:#bfbfbf;" x="76.35544" xlink:href="#m66b0b74a0d" y="432.512388"/>
     <use style="fill:#bfbfbf;" x="84.637444" xlink:href="#m66b0b74a0d" y="432.38232"/>
     <use style="fill:#bfbfbf;" x="92.919448" xlink:href="#m66b0b74a0d" y="432.373078"/>
     <use style="fill:#bfbfbf;" x="101.201451" xlink:href="#m66b0b74a0d" y="432.227833"/>
     <use style="fill:#bfbfbf;" x="109.483455" xlink:href="#m66b0b74a0d" y="431.966839"/>
     <use style="fill:#bfbfbf;" x="117.765459" xlink:href="#m66b0b74a0d" y="431.600804"/>
     <use style="fill:#bfbfbf;" x="126.047463" xlink:href="#m66b0b74a0d" y="431.359047"/>
     <use style="fill:#bfbfbf;" x="134.329466" xlink:href="#m66b0b74a0d" y="430.468269"/>
     <use style="fill:#bfbfbf;" x="142.61147" xlink:href="#m66b0b74a0d" y="429.851859"/>
     <use style="fill:#bfbfbf;" x="150.893474" xlink:href="#m66b0b74a0d" y="426.300434"/>
     <use style="fill:#bfbfbf;" x="159.175477" xlink:href="#m66b0b74a0d" y="418.977769"/>
     <use style="fill:#bfbfbf;" x="167.457481" xlink:href="#m66b0b74a0d" y="403.655515"/>
     <use style="fill:#bfbfbf;" x="175.739485" xlink:href="#m66b0b74a0d" y="374.006358"/>
     <use style="fill:#bfbfbf;" x="184.021489" xlink:href="#m66b0b74a0d" y="314.201773"/>
     <use style="fill:#bfbfbf;" x="192.303492" xlink:href="#m66b0b74a0d" y="270.340798"/>
     <use style="fill:#bfbfbf;" x="200.585496" xlink:href="#m66b0b74a0d" y="235.153973"/>
     <use style="fill:#bfbfbf;" x="208.8675" xlink:href="#m66b0b74a0d" y="205.215179"/>
     <use style="fill:#bfbfbf;" x="217.149503" xlink:href="#m66b0b74a0d" y="200.263545"/>
     <use style="fill:#bfbfbf;" x="225.431507" xlink:href="#m66b0b74a0d" y="175.022325"/>
     <use style="fill:#bfbfbf;" x="233.713511" xlink:href="#m66b0b74a0d" y="167.769172"/>
     <use style="fill:#bfbfbf;" x="241.995515" xlink:href="#m66b0b74a0d" y="154.493044"/>
     <use style="fill:#bfbfbf;" x="250.277518" xlink:href="#m66b0b74a0d" y="133.688327"/>
     <use style="fill:#bfbfbf;" x="258.559522" xlink:href="#m66b0b74a0d" y="121.152781"/>
     <use style="fill:#bfbfbf;" x="266.841526" xlink:href="#m66b0b74a0d" y="142.291944"/>
     <use style="fill:#bfbfbf;" x="275.123529" xlink:href="#m66b0b74a0d" y="111.196681"/>
     <use style="fill:#bfbfbf;" x="283.405533" xlink:href="#m66b0b74a0d" y="127.815316"/>
     <use style="fill:#bfbfbf;" x="291.687537" xlink:href="#m66b0b74a0d" y="97.020743"/>
     <use style="fill:#bfbfbf;" x="299.969541" xlink:href="#m66b0b74a0d" y="90.494473"/>
     <use style="fill:#bfbfbf;" x="308.251544" xlink:href="#m66b0b74a0d" y="110.770108"/>
     <use style="fill:#bfbfbf;" x="316.533548" xlink:href="#m66b0b74a0d" y="106.160589"/>
     <use style="fill:#bfbfbf;" x="324.815552" xlink:href="#m66b0b74a0d" y="102.903272"/>
     <use style="fill:#bfbfbf;" x="333.097555" xlink:href="#m66b0b74a0d" y="61.973249"/>
     <use style="fill:#bfbfbf;" x="341.379559" xlink:href="#m66b0b74a0d" y="95.188552"/>
     <use style="fill:#bfbfbf;" x="349.661563" xlink:href="#m66b0b74a0d" y="63.947211"/>
     <use style="fill:#bfbfbf;" x="357.943567" xlink:href="#m66b0b74a0d" y="90.117865"/>
     <use style="fill:#bfbfbf;" x="366.22557" xlink:href="#m66b0b74a0d" y="87.726051"/>
     <use style="fill:#bfbfbf;" x="374.507574" xlink:href="#m66b0b74a0d" y="85.289412"/>
     <use style="fill:#bfbfbf;" x="382.789578" xlink:href="#m66b0b74a0d" y="83.249434"/>
     <use style="fill:#bfbfbf;" x="391.071581" xlink:href="#m66b0b74a0d" y="81.36663"/>
     <use style="fill:#bfbfbf;" x="399.353585" xlink:href="#m66b0b74a0d" y="79.422322"/>
     <use style="fill:#bfbfbf;" x="407.635589" xlink:href="#m66b0b74a0d" y="78.596896"/>
     <use style="fill:#bfbfbf;" x="415.917592" xlink:href="#m66b0b74a0d" y="76.657566"/>
     <use style="fill:#bfbfbf;" x="424.199596" xlink:href="#m66b0b74a0d" y="75.285234"/>
     <use style="fill:#bfbfbf;" x="432.4816" xlink:href="#m66b0b74a0d" y="73.937111"/>
     <use style="fill:#bfbfbf;" x="440.763604" xlink:href="#m66b0b74a0d" y="41.727273"/>
     <use style="fill:#bfbfbf;" x="449.045607" xlink:href="#m66b0b74a0d" y="71.756243"/>
     <use style="fill:#bfbfbf;" x="457.327611" xlink:href="#m66b0b74a0d" y="70.934273"/>
     <use style="fill:#bfbfbf;" x="465.609615" xlink:href="#m66b0b74a0d" y="69.944045"/>
     <use style="fill:#bfbfbf;" x="473.891618" xlink:href="#m66b0b74a0d" y="69.52838"/>
     <use style="fill:#bfbfbf;" x="482.173622" xlink:href="#m66b0b74a0d" y="68.464388"/>
    </g>
   </g>
   <g id="line2d_31">
    <path clip-path="url(#p1bca5a1e1f)" d="M 76.35544 432.675648 
L 84.637444 432.57337 
L 92.919448 432.570748 
L 101.201451 432.50069 
L 109.483455 432.36844 
L 117.765459 432.172502 
L 126.047463 432.090081 
L 134.329466 431.654745 
L 142.61147 431.404858 
L 150.893474 429.709597 
L 159.175477 427.364705 
L 167.457481 420.364121 
L 175.739485 401.941788 
L 184.021489 359.517934 
L 192.303492 323.869503 
L 200.585496 283.23532 
L 208.8675 257.612718 
L 217.149503 222.583199 
L 225.431507 214.083667 
L 233.713511 192.818166 
L 241.995515 180.483411 
L 250.277518 171.54255 
L 258.559522 160.407777 
L 266.841526 145.958536 
L 275.123529 140.915463 
L 283.405533 130.963065 
L 291.687537 127.981279 
L 299.969541 122.025575 
L 308.251544 113.810023 
L 316.533548 108.55153 
L 324.815552 105.117924 
L 333.097555 108.570262 
L 341.379559 97.241799 
L 349.661563 97.852468 
L 357.943567 91.815091 
L 366.22557 89.248785 
L 374.507574 86.768647 
L 382.789578 84.804392 
L 391.071581 82.799301 
L 399.353585 80.682567 
L 407.635589 79.722731 
L 415.917592 77.825912 
L 424.199596 76.528897 
L 432.4816 75.103754 
L 440.763604 77.643086 
L 449.045607 72.668947 
L 457.327611 71.811389 
L 465.609615 70.836942 
L 473.891618 70.285092 
L 482.173622 69.287792 
" style="fill:none;stroke:#ff0000;stroke-linecap:round;stroke-width:1.75;"/>
   </g>
   <g id="patch_3">
    <path d="M 56.064531 456.84 
L 56.064531 21.96 
" style="fill:none;"/>
   </g>
   <g id="patch_4">
    <path d="M 502.464531 456.84 
L 502.464531 21.96 
" style="fill:none;"/>
   </g>
   <g id="patch_5">
    <path d="M 56.064531 456.84 
L 502.464531 456.84 
" style="fill:none;"/>
   </g>
   <g id="patch_6">
    <path d="M 56.064531 21.96 
L 502.464531 21.96 
" style="fill:none;"/>
   </g>
   <g id="text_17">
    <!-- Epidemic size vs $p_{\mathit{infect}}$, mean of 100 repetitions -->
    <defs>
     <path d="M 7.90625 0 
L 7.90625 71.578125 
L 59.671875 71.578125 
L 59.671875 63.140625 
L 17.390625 63.140625 
L 17.390625 41.21875 
L 56.984375 41.21875 
L 56.984375 32.8125 
L 17.390625 32.8125 
L 17.390625 8.453125 
L 61.328125 8.453125 
L 61.328125 0 
z
" id="ArialMT-69"/>
     <path d="M 40.234375 0 
L 40.234375 6.546875 
Q 35.296875 -1.171875 25.734375 -1.171875 
Q 19.53125 -1.171875 14.328125 2.25 
Q 9.125 5.671875 6.265625 11.796875 
Q 3.421875 17.921875 3.421875 25.875 
Q 3.421875 33.640625 6 39.96875 
Q 8.59375 46.296875 13.765625 49.65625 
Q 18.953125 53.03125 25.34375 53.03125 
Q 30.03125 53.03125 33.6875 51.046875 
Q 37.359375 49.078125 39.65625 45.90625 
L 39.65625 71.578125 
L 48.390625 71.578125 
L 48.390625 0 
z
M 12.453125 25.875 
Q 12.453125 15.921875 16.640625 10.984375 
Q 20.84375 6.0625 26.5625 6.0625 
Q 32.328125 6.0625 36.34375 10.765625 
Q 40.375 15.484375 40.375 25.140625 
Q 40.375 35.796875 36.265625 40.765625 
Q 32.171875 45.75 26.171875 45.75 
Q 20.3125 45.75 16.375 40.96875 
Q 12.453125 36.1875 12.453125 25.875 
z
" id="ArialMT-100"/>
     <path d="M 42.09375 16.703125 
L 51.171875 15.578125 
Q 49.03125 7.625 43.21875 3.21875 
Q 37.40625 -1.171875 28.375 -1.171875 
Q 17 -1.171875 10.328125 5.828125 
Q 3.65625 12.84375 3.65625 25.484375 
Q 3.65625 38.578125 10.390625 45.796875 
Q 17.140625 53.03125 27.875 53.03125 
Q 38.28125 53.03125 44.875 45.953125 
Q 51.46875 38.875 51.46875 26.03125 
Q 51.46875 25.25 51.421875 23.6875 
L 12.75 23.6875 
Q 13.234375 15.140625 17.578125 10.59375 
Q 21.921875 6.0625 28.421875 6.0625 
Q 33.25 6.0625 36.671875 8.59375 
Q 40.09375 11.140625 42.09375 16.703125 
z
M 13.234375 30.90625 
L 42.1875 30.90625 
Q 41.609375 37.453125 38.875 40.71875 
Q 34.671875 45.796875 27.984375 45.796875 
Q 21.921875 45.796875 17.796875 41.75 
Q 13.671875 37.703125 13.234375 30.90625 
z
" id="ArialMT-101"/>
     <path d="M 6.59375 0 
L 6.59375 51.859375 
L 14.453125 51.859375 
L 14.453125 44.578125 
Q 16.890625 48.390625 20.9375 50.703125 
Q 25 53.03125 30.171875 53.03125 
Q 35.9375 53.03125 39.625 50.640625 
Q 43.3125 48.25 44.828125 43.953125 
Q 50.984375 53.03125 60.84375 53.03125 
Q 68.5625 53.03125 72.703125 48.75 
Q 76.859375 44.484375 76.859375 35.59375 
L 76.859375 0 
L 68.109375 0 
L 68.109375 32.671875 
Q 68.109375 37.9375 67.25 40.25 
Q 66.40625 42.578125 64.15625 43.984375 
Q 61.921875 45.40625 58.890625 45.40625 
Q 53.421875 45.40625 49.796875 41.765625 
Q 46.1875 38.140625 46.1875 30.125 
L 46.1875 0 
L 37.40625 0 
L 37.40625 33.6875 
Q 37.40625 39.546875 35.25 42.46875 
Q 33.109375 45.40625 28.21875 45.40625 
Q 24.515625 45.40625 21.359375 43.453125 
Q 18.21875 41.5 16.796875 37.734375 
Q 15.375 33.984375 15.375 26.90625 
L 15.375 0 
z
" id="ArialMT-109"/>
     <path d="M 40.4375 19 
L 49.078125 17.875 
Q 47.65625 8.9375 41.8125 3.875 
Q 35.984375 -1.171875 27.484375 -1.171875 
Q 16.84375 -1.171875 10.375 5.78125 
Q 3.90625 12.75 3.90625 25.734375 
Q 3.90625 34.125 6.6875 40.421875 
Q 9.46875 46.734375 15.15625 49.875 
Q 20.84375 53.03125 27.546875 53.03125 
Q 35.984375 53.03125 41.359375 48.75 
Q 46.734375 44.484375 48.25 36.625 
L 39.703125 35.296875 
Q 38.484375 40.53125 35.375 43.15625 
Q 32.28125 45.796875 27.875 45.796875 
Q 21.234375 45.796875 17.078125 41.03125 
Q 12.9375 36.28125 12.9375 25.984375 
Q 12.9375 15.53125 16.9375 10.796875 
Q 20.953125 6.0625 27.390625 6.0625 
Q 32.5625 6.0625 36.03125 9.234375 
Q 39.5 12.40625 40.4375 19 
z
" id="ArialMT-99"/>
     <path d="M 1.953125 0 
L 1.953125 7.125 
L 34.96875 45.015625 
Q 29.34375 44.734375 25.046875 44.734375 
L 3.90625 44.734375 
L 3.90625 51.859375 
L 46.296875 51.859375 
L 46.296875 46.046875 
L 18.21875 13.140625 
L 12.796875 7.125 
Q 18.703125 7.5625 23.875 7.5625 
L 47.859375 7.5625 
L 47.859375 0 
z
" id="ArialMT-122"/>
     <path d="M 21 0 
L 1.265625 51.859375 
L 10.546875 51.859375 
L 21.6875 20.796875 
Q 23.484375 15.765625 25 10.359375 
Q 26.171875 14.453125 28.265625 20.21875 
L 39.796875 51.859375 
L 48.828125 51.859375 
L 29.203125 0 
z
" id="ArialMT-118"/>
     <path d="M 8.890625 0 
L 8.890625 10.015625 
L 18.890625 10.015625 
L 18.890625 0 
Q 18.890625 -5.515625 16.9375 -8.90625 
Q 14.984375 -12.3125 10.75 -14.15625 
L 8.296875 -10.40625 
Q 11.078125 -9.1875 12.390625 -6.8125 
Q 13.71875 -4.4375 13.875 0 
z
" id="ArialMT-44"/>
     <path d="M 8.6875 0 
L 8.6875 45.015625 
L 0.921875 45.015625 
L 0.921875 51.859375 
L 8.6875 51.859375 
L 8.6875 57.375 
Q 8.6875 62.59375 9.625 65.140625 
Q 10.890625 68.5625 14.078125 70.671875 
Q 17.28125 72.796875 23.046875 72.796875 
Q 26.765625 72.796875 31.25 71.921875 
L 29.9375 64.265625 
Q 27.203125 64.75 24.75 64.75 
Q 20.75 64.75 19.09375 63.03125 
Q 17.4375 61.328125 17.4375 56.640625 
L 17.4375 51.859375 
L 27.546875 51.859375 
L 27.546875 45.015625 
L 17.4375 45.015625 
L 17.4375 0 
z
" id="ArialMT-102"/>
     <path d="M 6.5 0 
L 6.5 51.859375 
L 14.40625 51.859375 
L 14.40625 44 
Q 17.4375 49.515625 20 51.265625 
Q 22.5625 53.03125 25.640625 53.03125 
Q 30.078125 53.03125 34.671875 50.203125 
L 31.640625 42.046875 
Q 28.421875 43.953125 25.203125 43.953125 
Q 22.3125 43.953125 20.015625 42.21875 
Q 17.71875 40.484375 16.75 37.40625 
Q 15.28125 32.71875 15.28125 27.15625 
L 15.28125 0 
z
" id="ArialMT-114"/>
    </defs>
    <g style="fill:#262626;" transform="translate(151.044531 15.96)scale(0.12 -0.12)">
     <use transform="translate(0 0.203125)" xlink:href="#ArialMT-69"/>
     <use transform="translate(66.699219 0.203125)" xlink:href="#ArialMT-112"/>
     <use transform="translate(122.314453 0.203125)" xlink:href="#ArialMT-105"/>
     <use transform="translate(144.53125 0.203125)" xlink:href="#ArialMT-100"/>
     <use transform="translate(200.146484 0.203125)" xlink:href="#ArialMT-101"/>
     <use transform="translate(255.761719 0.203125)" xlink:href="#ArialMT-109"/>
     <use transform="translate(339.0625 0.203125)" xlink:href="#ArialMT-105"/>
     <use transform="translate(361.279297 0.203125)" xlink:href="#ArialMT-99"/>
     <use transform="translate(411.279297 0.203125)" xlink:href="#ArialMT-32"/>
     <use transform="translate(439.0625 0.203125)" xlink:href="#ArialMT-115"/>
     <use transform="translate(489.0625 0.203125)" xlink:href="#ArialMT-105"/>
     <use transform="translate(511.279297 0.203125)" xlink:href="#ArialMT-122"/>
     <use transform="translate(561.279297 0.203125)" xlink:href="#ArialMT-101"/>
     <use transform="translate(616.894531 0.203125)" xlink:href="#ArialMT-32"/>
     <use transform="translate(644.677734 0.203125)" xlink:href="#ArialMT-118"/>
     <use transform="translate(694.677734 0.203125)" xlink:href="#ArialMT-115"/>
     <use transform="translate(744.677734 0.203125)" xlink:href="#ArialMT-32"/>
     <use transform="translate(772.460938 0.203125)" xlink:href="#DejaVuSans-Oblique-112"/>
     <use transform="translate(835.9375 -16.203125)scale(0.7)" xlink:href="#DejaVuSans-Oblique-105"/>
     <use transform="translate(855.385742 -16.203125)scale(0.7)" xlink:href="#DejaVuSans-Oblique-110"/>
     <use transform="translate(899.750977 -16.203125)scale(0.7)" xlink:href="#DejaVuSans-Oblique-102"/>
     <use transform="translate(924.394531 -16.203125)scale(0.7)" xlink:href="#DejaVuSans-Oblique-101"/>
     <use transform="translate(967.460938 -16.203125)scale(0.7)" xlink:href="#DejaVuSans-Oblique-99"/>
     <use transform="translate(1005.947266 -16.203125)scale(0.7)" xlink:href="#DejaVuSans-Oblique-116"/>
     <use transform="translate(1036.12793 0.203125)" xlink:href="#ArialMT-44"/>
     <use transform="translate(1063.911133 0.203125)" xlink:href="#ArialMT-32"/>
     <use transform="translate(1091.694336 0.203125)" xlink:href="#ArialMT-109"/>
     <use transform="translate(1174.995117 0.203125)" xlink:href="#ArialMT-101"/>
     <use transform="translate(1230.610352 0.203125)" xlink:href="#ArialMT-97"/>
     <use transform="translate(1286.225586 0.203125)" xlink:href="#ArialMT-110"/>
     <use transform="translate(1341.84082 0.203125)" xlink:href="#ArialMT-32"/>
     <use transform="translate(1369.624023 0.203125)" xlink:href="#ArialMT-111"/>
     <use transform="translate(1425.239258 0.203125)" xlink:href="#ArialMT-102"/>
     <use transform="translate(1453.022461 0.203125)" xlink:href="#ArialMT-32"/>
     <use transform="translate(1480.805664 0.203125)" xlink:href="#ArialMT-49"/>
     <use transform="translate(1536.420898 0.203125)" xlink:href="#ArialMT-48"/>
     <use transform="translate(1592.036133 0.203125)" xlink:href="#ArialMT-48"/>
     <use transform="translate(1647.651367 0.203125)" xlink:href="#ArialMT-32"/>
     <use transform="translate(1675.43457 0.203125)" xlink:href="#ArialMT-114"/>
     <use transform="translate(1708.735352 0.203125)" xlink:href="#ArialMT-101"/>
     <use transform="translate(1764.350586 0.203125)" xlink:href="#ArialMT-112"/>
     <use transform="translate(1819.96582 0.203125)" xlink:href="#ArialMT-101"/>
     <use transform="translate(1875.581055 0.203125)" xlink:href="#ArialMT-116"/>
     <use transform="translate(1903.364258 0.203125)" xlink:href="#ArialMT-105"/>
     <use transform="translate(1925.581055 0.203125)" xlink:href="#ArialMT-116"/>
     <use transform="translate(1953.364258 0.203125)" xlink:href="#ArialMT-105"/>
     <use transform="translate(1975.581055 0.203125)" xlink:href="#ArialMT-111"/>
     <use transform="translate(2031.196289 0.203125)" xlink:href="#ArialMT-110"/>
     <use transform="translate(2086.811523 0.203125)" xlink:href="#ArialMT-115"/>
    </g>
   </g>
  </g>
 </g>
 <defs>
  <clipPath id="p1bca5a1e1f">
   <rect height="434.88" width="446.4" x="56.064531" y="21.96"/>
  </clipPath>
 </defs>
</svg>
