<?xml version="1.0" encoding="utf-8" standalone="no"?>
<!DOCTYPE svg PUBLIC "-//W3C//DTD SVG 1.1//EN"
  "http://www.w3.org/Graphics/SVG/1.1/DTD/svg11.dtd">
<!-- Created with matplotlib (https://matplotlib.org/) -->
<svg height="753.12pt" version="1.1" viewBox="0 0 460.8 753.12" width="460.8pt" xmlns="http://www.w3.org/2000/svg" xmlns:xlink="http://www.w3.org/1999/xlink">
 <defs>
  <style type="text/css">
*{stroke-linecap:butt;stroke-linejoin:round;}
  </style>
 </defs>
 <g id="figure_1">
  <g id="patch_1">
   <path d="M 0 753.12 
L 460.8 753.12 
L 460.8 0 
L 0 0 
z
" style="fill:#ffffff;"/>
  </g>
  <g id="axes_1">
   <g id="PathCollection_1">
    <defs>
     <path d="M 0 8.660254 
C 2.296726 8.660254 4.499694 7.747755 6.123724 6.123724 
C 7.747755 4.499694 8.660254 2.296726 8.660254 0 
C 8.660254 -2.296726 7.747755 -4.499694 6.123724 -6.123724 
C 4.499694 -7.747755 2.296726 -8.660254 0 -8.660254 
C -2.296726 -8.660254 -4.499694 -7.747755 -6.123724 -6.123724 
C -7.747755 -4.499694 -8.660254 -2.296726 -8.660254 0 
C -8.660254 2.296726 -7.747755 4.499694 -6.123724 6.123724 
C -4.499694 7.747755 -2.296726 8.660254 0 8.660254 
z
" id="m59ff82566d" style="stroke:#ff0000;stroke-width:0.3;"/>
    </defs>
    <g clip-path="url(#p078e015a88)">
     <use style="fill:#ff0000;stroke:#ff0000;stroke-width:0.3;" x="108.654545" xlink:href="#m59ff82566d" y="141.564706"/>
    </g>
   </g>
   <g id="text_1">
    <!-- $t = 0, R_0 = 0$ -->
    <defs>
     <path d="M 42.28125 54.6875 
L 40.921875 47.703125 
L 23 47.703125 
L 17.1875 18.015625 
Q 16.890625 16.359375 16.75 15.234375 
Q 16.609375 14.109375 16.609375 13.484375 
Q 16.609375 10.359375 18.484375 8.9375 
Q 20.359375 7.515625 24.515625 7.515625 
L 33.59375 7.515625 
L 32.078125 0 
L 23.484375 0 
Q 15.484375 0 11.546875 3.125 
Q 7.625 6.25 7.625 12.59375 
Q 7.625 13.71875 7.765625 15.0625 
Q 7.90625 16.40625 8.203125 18.015625 
L 14.015625 47.703125 
L 6.390625 47.703125 
L 7.8125 54.6875 
L 15.28125 54.6875 
L 18.3125 70.21875 
L 27.296875 70.21875 
L 24.3125 54.6875 
z
" id="DejaVuSans-Oblique-116"/>
     <path d="M 10.59375 45.40625 
L 73.1875 45.40625 
L 73.1875 37.203125 
L 10.59375 37.203125 
z
M 10.59375 25.484375 
L 73.1875 25.484375 
L 73.1875 17.1875 
L 10.59375 17.1875 
z
" id="DejaVuSans-61"/>
     <path d="M 31.78125 66.40625 
Q 24.171875 66.40625 20.328125 58.90625 
Q 16.5 51.421875 16.5 36.375 
Q 16.5 21.390625 20.328125 13.890625 
Q 24.171875 6.390625 31.78125 6.390625 
Q 39.453125 6.390625 43.28125 13.890625 
Q 47.125 21.390625 47.125 36.375 
Q 47.125 51.421875 43.28125 58.90625 
Q 39.453125 66.40625 31.78125 66.40625 
z
M 31.78125 74.21875 
Q 44.046875 74.21875 50.515625 64.515625 
Q 56.984375 54.828125 56.984375 36.375 
Q 56.984375 17.96875 50.515625 8.265625 
Q 44.046875 -1.421875 31.78125 -1.421875 
Q 19.53125 -1.421875 13.0625 8.265625 
Q 6.59375 17.96875 6.59375 36.375 
Q 6.59375 54.828125 13.0625 64.515625 
Q 19.53125 74.21875 31.78125 74.21875 
z
" id="DejaVuSans-48"/>
     <path d="M 11.71875 12.40625 
L 22.015625 12.40625 
L 22.015625 4 
L 14.015625 -11.625 
L 7.71875 -11.625 
L 11.71875 4 
z
" id="DejaVuSans-44"/>
     <path d="M 25.203125 64.796875 
L 20.21875 38.921875 
L 32.90625 38.921875 
Q 40.375 38.921875 44.984375 43.046875 
Q 49.609375 47.171875 49.609375 53.8125 
Q 49.609375 59.125 46.5 61.953125 
Q 43.40625 64.796875 37.59375 64.796875 
z
M 43.3125 35.015625 
Q 46.4375 34.28125 48.515625 31.390625 
Q 50.59375 28.515625 53.328125 19.921875 
L 59.515625 0 
L 49.125 0 
L 43.40625 18.703125 
Q 41.21875 25.921875 38.328125 28.359375 
Q 35.453125 30.8125 29.5 30.8125 
L 18.609375 30.8125 
L 12.59375 0 
L 2.6875 0 
L 16.890625 72.90625 
L 39.109375 72.90625 
Q 49.21875 72.90625 54.609375 68.328125 
Q 60.015625 63.765625 60.015625 55.171875 
Q 60.015625 47.5625 55.421875 41.984375 
Q 50.828125 36.421875 43.3125 35.015625 
z
" id="DejaVuSans-Oblique-82"/>
    </defs>
    <g style="fill:#262626;" transform="translate(73.854545 87.6)scale(0.12 -0.12)">
     <use transform="translate(0 0.78125)" xlink:href="#DejaVuSans-Oblique-116"/>
     <use transform="translate(58.691406 0.78125)" xlink:href="#DejaVuSans-61"/>
     <use transform="translate(161.962891 0.78125)" xlink:href="#DejaVuSans-48"/>
     <use transform="translate(225.585938 0.78125)" xlink:href="#DejaVuSans-44"/>
     <use transform="translate(276.855469 0.78125)" xlink:href="#DejaVuSans-Oblique-82"/>
     <use transform="translate(346.337891 -15.625)scale(0.7)" xlink:href="#DejaVuSans-48"/>
     <use transform="translate(413.09082 0.78125)" xlink:href="#DejaVuSans-61"/>
     <use transform="translate(516.362305 0.78125)" xlink:href="#DejaVuSans-48"/>
    </g>
   </g>
  </g>
  <g id="axes_2">
   <g id="LineCollection_1">
    <path clip-path="url(#pdfb2279be0)" d="M 352.145455 125.576471 
L 385.963636 189.529412 
" style="fill:none;stroke:#000000;"/>
    <path clip-path="url(#pdfb2279be0)" d="M 352.145455 125.576471 
L 318.327273 189.529412 
" style="fill:none;stroke:#000000;"/>
   </g>
   <g id="PathCollection_2">
    <g clip-path="url(#pdfb2279be0)">
     <use style="fill:#ff0000;stroke:#ff0000;stroke-width:0.3;" x="352.145455" xlink:href="#m59ff82566d" y="125.576471"/>
     <use style="fill:#ff0000;stroke:#ff0000;stroke-width:0.3;" x="385.963636" xlink:href="#m59ff82566d" y="189.529412"/>
     <use style="fill:#ff0000;stroke:#ff0000;stroke-width:0.3;" x="318.327273" xlink:href="#m59ff82566d" y="189.529412"/>
    </g>
   </g>
   <g id="text_2">
    <!-- $t = 1, R_1 = 2.0$ -->
    <defs>
     <path d="M 12.40625 8.296875 
L 28.515625 8.296875 
L 28.515625 63.921875 
L 10.984375 60.40625 
L 10.984375 69.390625 
L 28.421875 72.90625 
L 38.28125 72.90625 
L 38.28125 8.296875 
L 54.390625 8.296875 
L 54.390625 0 
L 12.40625 0 
z
" id="DejaVuSans-49"/>
     <path d="M 19.1875 8.296875 
L 53.609375 8.296875 
L 53.609375 0 
L 7.328125 0 
L 7.328125 8.296875 
Q 12.9375 14.109375 22.625 23.890625 
Q 32.328125 33.6875 34.8125 36.53125 
Q 39.546875 41.84375 41.421875 45.53125 
Q 43.3125 49.21875 43.3125 52.78125 
Q 43.3125 58.59375 39.234375 62.25 
Q 35.15625 65.921875 28.609375 65.921875 
Q 23.96875 65.921875 18.8125 64.3125 
Q 13.671875 62.703125 7.8125 59.421875 
L 7.8125 69.390625 
Q 13.765625 71.78125 18.9375 73 
Q 24.125 74.21875 28.421875 74.21875 
Q 39.75 74.21875 46.484375 68.546875 
Q 53.21875 62.890625 53.21875 53.421875 
Q 53.21875 48.921875 51.53125 44.890625 
Q 49.859375 40.875 45.40625 35.40625 
Q 44.1875 33.984375 37.640625 27.21875 
Q 31.109375 20.453125 19.1875 8.296875 
z
" id="DejaVuSans-50"/>
     <path d="M 10.6875 12.40625 
L 21 12.40625 
L 21 0 
L 10.6875 0 
z
" id="DejaVuSans-46"/>
    </defs>
    <g style="fill:#262626;" transform="translate(311.585455 87.6)scale(0.12 -0.12)">
     <use transform="translate(0 0.78125)" xlink:href="#DejaVuSans-Oblique-116"/>
     <use transform="translate(58.691406 0.78125)" xlink:href="#DejaVuSans-61"/>
     <use transform="translate(161.962891 0.78125)" xlink:href="#DejaVuSans-49"/>
     <use transform="translate(225.585938 0.78125)" xlink:href="#DejaVuSans-44"/>
     <use transform="translate(276.855469 0.78125)" xlink:href="#DejaVuSans-Oblique-82"/>
     <use transform="translate(346.337891 -15.625)scale(0.7)" xlink:href="#DejaVuSans-49"/>
     <use transform="translate(413.09082 0.78125)" xlink:href="#DejaVuSans-61"/>
     <use transform="translate(516.362305 0.78125)" xlink:href="#DejaVuSans-50"/>
     <use transform="translate(579.985352 0.78125)" xlink:href="#DejaVuSans-46"/>
     <use transform="translate(611.772461 0.78125)" xlink:href="#DejaVuSans-48"/>
    </g>
   </g>
  </g>
  <g id="axes_3">
   <g id="LineCollection_2">
    <path clip-path="url(#pc229540192)" d="M 108.654545 347.812941 
L 88.363636 395.777647 
" style="fill:none;stroke:#000000;"/>
    <path clip-path="url(#pc229540192)" d="M 108.654545 347.812941 
L 47.781818 395.777647 
" style="fill:none;stroke:#000000;"/>
    <path clip-path="url(#pc229540192)" d="M 108.654545 347.812941 
L 128.945455 395.777647 
" style="fill:none;stroke:#000000;"/>
    <path clip-path="url(#pc229540192)" d="M 108.654545 347.812941 
L 169.527273 395.777647 
" style="fill:none;stroke:#000000;"/>
    <path clip-path="url(#pc229540192)" d="M 47.781818 395.777647 
L 108.654545 443.742353 
" style="fill:none;stroke:#000000;"/>
   </g>
   <g id="PathCollection_3">
    <g clip-path="url(#pc229540192)">
     <use style="fill:#ff0000;stroke:#ff0000;stroke-width:0.3;" x="108.654545" xlink:href="#m59ff82566d" y="347.812941"/>
     <use style="fill:#ff0000;stroke:#ff0000;stroke-width:0.3;" x="88.363636" xlink:href="#m59ff82566d" y="395.777647"/>
     <use style="fill:#ff0000;stroke:#ff0000;stroke-width:0.3;" x="47.781818" xlink:href="#m59ff82566d" y="395.777647"/>
     <use style="fill:#ff0000;stroke:#ff0000;stroke-width:0.3;" x="128.945455" xlink:href="#m59ff82566d" y="395.777647"/>
     <use style="fill:#ff0000;stroke:#ff0000;stroke-width:0.3;" x="169.527273" xlink:href="#m59ff82566d" y="395.777647"/>
     <use style="fill:#ff0000;stroke:#ff0000;stroke-width:0.3;" x="108.654545" xlink:href="#m59ff82566d" y="443.742353"/>
    </g>
   </g>
   <g id="text_3">
    <!-- $t = 2, R_2 = 2.5$ -->
    <defs>
     <path d="M 10.796875 72.90625 
L 49.515625 72.90625 
L 49.515625 64.59375 
L 19.828125 64.59375 
L 19.828125 46.734375 
Q 21.96875 47.46875 24.109375 47.828125 
Q 26.265625 48.1875 28.421875 48.1875 
Q 40.625 48.1875 47.75 41.5 
Q 54.890625 34.8125 54.890625 23.390625 
Q 54.890625 11.625 47.5625 5.09375 
Q 40.234375 -1.421875 26.90625 -1.421875 
Q 22.3125 -1.421875 17.546875 -0.640625 
Q 12.796875 0.140625 7.71875 1.703125 
L 7.71875 11.625 
Q 12.109375 9.234375 16.796875 8.0625 
Q 21.484375 6.890625 26.703125 6.890625 
Q 35.15625 6.890625 40.078125 11.328125 
Q 45.015625 15.765625 45.015625 23.390625 
Q 45.015625 31 40.078125 35.4375 
Q 35.15625 39.890625 26.703125 39.890625 
Q 22.75 39.890625 18.8125 39.015625 
Q 14.890625 38.140625 10.796875 36.28125 
z
" id="DejaVuSans-53"/>
    </defs>
    <g style="fill:#262626;" transform="translate(68.094545 317.830588)scale(0.12 -0.12)">
     <use transform="translate(0 0.78125)" xlink:href="#DejaVuSans-Oblique-116"/>
     <use transform="translate(58.691406 0.78125)" xlink:href="#DejaVuSans-61"/>
     <use transform="translate(161.962891 0.78125)" xlink:href="#DejaVuSans-50"/>
     <use transform="translate(225.585938 0.78125)" xlink:href="#DejaVuSans-44"/>
     <use transform="translate(276.855469 0.78125)" xlink:href="#DejaVuSans-Oblique-82"/>
     <use transform="translate(346.337891 -15.625)scale(0.7)" xlink:href="#DejaVuSans-50"/>
     <use transform="translate(413.09082 0.78125)" xlink:href="#DejaVuSans-61"/>
     <use transform="translate(516.362305 0.78125)" xlink:href="#DejaVuSans-50"/>
     <use transform="translate(579.985352 0.78125)" xlink:href="#DejaVuSans-46"/>
     <use transform="translate(611.772461 0.78125)" xlink:href="#DejaVuSans-53"/>
    </g>
   </g>
  </g>
  <g id="axes_4">
   <g id="LineCollection_3">
    <path clip-path="url(#p19161aeb37)" d="M 352.145455 343.016471 
L 331.854545 381.388235 
" style="fill:none;stroke:#000000;"/>
    <path clip-path="url(#p19161aeb37)" d="M 352.145455 343.016471 
L 291.272727 381.388235 
" style="fill:none;stroke:#000000;"/>
    <path clip-path="url(#p19161aeb37)" d="M 352.145455 343.016471 
L 372.436364 381.388235 
" style="fill:none;stroke:#000000;"/>
    <path clip-path="url(#p19161aeb37)" d="M 352.145455 343.016471 
L 413.018182 381.388235 
" style="fill:none;stroke:#000000;"/>
    <path clip-path="url(#p19161aeb37)" d="M 331.854545 381.388235 
L 352.145455 419.76 
" style="fill:none;stroke:#000000;"/>
    <path clip-path="url(#p19161aeb37)" d="M 291.272727 381.388235 
L 301.418182 419.76 
" style="fill:none;stroke:#000000;"/>
    <path clip-path="url(#p19161aeb37)" d="M 413.018182 381.388235 
L 402.872727 419.76 
" style="fill:none;stroke:#000000;"/>
    <path clip-path="url(#p19161aeb37)" d="M 301.418182 419.76 
L 352.145455 458.131765 
" style="fill:none;stroke:#000000;"/>
   </g>
   <g id="PathCollection_4">
    <g clip-path="url(#p19161aeb37)">
     <use style="fill:#ff0000;stroke:#ff0000;stroke-width:0.3;" x="352.145455" xlink:href="#m59ff82566d" y="343.016471"/>
     <use style="fill:#ff0000;stroke:#ff0000;stroke-width:0.3;" x="331.854545" xlink:href="#m59ff82566d" y="381.388235"/>
     <use style="fill:#ff0000;stroke:#ff0000;stroke-width:0.3;" x="291.272727" xlink:href="#m59ff82566d" y="381.388235"/>
     <use style="fill:#ff0000;stroke:#ff0000;stroke-width:0.3;" x="372.436364" xlink:href="#m59ff82566d" y="381.388235"/>
     <use style="fill:#ff0000;stroke:#ff0000;stroke-width:0.3;" x="413.018182" xlink:href="#m59ff82566d" y="381.388235"/>
     <use style="fill:#ff0000;stroke:#ff0000;stroke-width:0.3;" x="301.418182" xlink:href="#m59ff82566d" y="419.76"/>
     <use style="fill:#ff0000;stroke:#ff0000;stroke-width:0.3;" x="352.145455" xlink:href="#m59ff82566d" y="458.131765"/>
     <use style="fill:#ff0000;stroke:#ff0000;stroke-width:0.3;" x="352.145455" xlink:href="#m59ff82566d" y="419.76"/>
     <use style="fill:#ff0000;stroke:#ff0000;stroke-width:0.3;" x="402.872727" xlink:href="#m59ff82566d" y="419.76"/>
    </g>
   </g>
   <g id="text_4">
    <!-- $t = 3, R_3 = 1.6$ -->
    <defs>
     <path d="M 40.578125 39.3125 
Q 47.65625 37.796875 51.625 33 
Q 55.609375 28.21875 55.609375 21.1875 
Q 55.609375 10.40625 48.1875 4.484375 
Q 40.765625 -1.421875 27.09375 -1.421875 
Q 22.515625 -1.421875 17.65625 -0.515625 
Q 12.796875 0.390625 7.625 2.203125 
L 7.625 11.71875 
Q 11.71875 9.328125 16.59375 8.109375 
Q 21.484375 6.890625 26.8125 6.890625 
Q 36.078125 6.890625 40.9375 10.546875 
Q 45.796875 14.203125 45.796875 21.1875 
Q 45.796875 27.640625 41.28125 31.265625 
Q 36.765625 34.90625 28.71875 34.90625 
L 20.21875 34.90625 
L 20.21875 43.015625 
L 29.109375 43.015625 
Q 36.375 43.015625 40.234375 45.921875 
Q 44.09375 48.828125 44.09375 54.296875 
Q 44.09375 59.90625 40.109375 62.90625 
Q 36.140625 65.921875 28.71875 65.921875 
Q 24.65625 65.921875 20.015625 65.03125 
Q 15.375 64.15625 9.8125 62.3125 
L 9.8125 71.09375 
Q 15.4375 72.65625 20.34375 73.4375 
Q 25.25 74.21875 29.59375 74.21875 
Q 40.828125 74.21875 47.359375 69.109375 
Q 53.90625 64.015625 53.90625 55.328125 
Q 53.90625 49.265625 50.4375 45.09375 
Q 46.96875 40.921875 40.578125 39.3125 
z
" id="DejaVuSans-51"/>
     <path d="M 33.015625 40.375 
Q 26.375 40.375 22.484375 35.828125 
Q 18.609375 31.296875 18.609375 23.390625 
Q 18.609375 15.53125 22.484375 10.953125 
Q 26.375 6.390625 33.015625 6.390625 
Q 39.65625 6.390625 43.53125 10.953125 
Q 47.40625 15.53125 47.40625 23.390625 
Q 47.40625 31.296875 43.53125 35.828125 
Q 39.65625 40.375 33.015625 40.375 
z
M 52.59375 71.296875 
L 52.59375 62.3125 
Q 48.875 64.0625 45.09375 64.984375 
Q 41.3125 65.921875 37.59375 65.921875 
Q 27.828125 65.921875 22.671875 59.328125 
Q 17.53125 52.734375 16.796875 39.40625 
Q 19.671875 43.65625 24.015625 45.921875 
Q 28.375 48.1875 33.59375 48.1875 
Q 44.578125 48.1875 50.953125 41.515625 
Q 57.328125 34.859375 57.328125 23.390625 
Q 57.328125 12.15625 50.6875 5.359375 
Q 44.046875 -1.421875 33.015625 -1.421875 
Q 20.359375 -1.421875 13.671875 8.265625 
Q 6.984375 17.96875 6.984375 36.375 
Q 6.984375 53.65625 15.1875 63.9375 
Q 23.390625 74.21875 37.203125 74.21875 
Q 40.921875 74.21875 44.703125 73.484375 
Q 48.484375 72.75 52.59375 71.296875 
z
" id="DejaVuSans-54"/>
    </defs>
    <g style="fill:#262626;" transform="translate(311.585455 317.830588)scale(0.12 -0.12)">
     <use transform="translate(0 0.78125)" xlink:href="#DejaVuSans-Oblique-116"/>
     <use transform="translate(58.691406 0.78125)" xlink:href="#DejaVuSans-61"/>
     <use transform="translate(161.962891 0.78125)" xlink:href="#DejaVuSans-51"/>
     <use transform="translate(225.585938 0.78125)" xlink:href="#DejaVuSans-44"/>
     <use transform="translate(276.855469 0.78125)" xlink:href="#DejaVuSans-Oblique-82"/>
     <use transform="translate(346.337891 -15.625)scale(0.7)" xlink:href="#DejaVuSans-51"/>
     <use transform="translate(413.09082 0.78125)" xlink:href="#DejaVuSans-61"/>
     <use transform="translate(516.362305 0.78125)" xlink:href="#DejaVuSans-49"/>
     <use transform="translate(579.985352 0.78125)" xlink:href="#DejaVuSans-46"/>
     <use transform="translate(611.772461 0.78125)" xlink:href="#DejaVuSans-54"/>
    </g>
   </g>
  </g>
  <g id="axes_5">
   <g id="LineCollection_4">
    <path clip-path="url(#p090112b12c)" d="M 108.654545 570.049412 
L 88.363636 602.025882 
" style="fill:none;stroke:#000000;"/>
    <path clip-path="url(#p090112b12c)" d="M 108.654545 570.049412 
L 47.781818 602.025882 
" style="fill:none;stroke:#000000;"/>
    <path clip-path="url(#p090112b12c)" d="M 108.654545 570.049412 
L 128.945455 602.025882 
" style="fill:none;stroke:#000000;"/>
    <path clip-path="url(#p090112b12c)" d="M 108.654545 570.049412 
L 169.527273 602.025882 
" style="fill:none;stroke:#000000;"/>
    <path clip-path="url(#p090112b12c)" d="M 88.363636 602.025882 
L 74.836364 634.002353 
" style="fill:none;stroke:#000000;"/>
    <path clip-path="url(#p090112b12c)" d="M 47.781818 602.025882 
L 41.018182 634.002353 
" style="fill:none;stroke:#000000;"/>
    <path clip-path="url(#p090112b12c)" d="M 128.945455 602.025882 
L 108.654545 634.002353 
" style="fill:none;stroke:#000000;"/>
    <path clip-path="url(#p090112b12c)" d="M 128.945455 602.025882 
L 142.472727 634.002353 
" style="fill:none;stroke:#000000;"/>
    <path clip-path="url(#p090112b12c)" d="M 169.527273 602.025882 
L 176.290909 634.002353 
" style="fill:none;stroke:#000000;"/>
    <path clip-path="url(#p090112b12c)" d="M 41.018182 634.002353 
L 88.363636 665.978824 
" style="fill:none;stroke:#000000;"/>
    <path clip-path="url(#p090112b12c)" d="M 41.018182 634.002353 
L 47.781818 665.978824 
" style="fill:none;stroke:#000000;"/>
    <path clip-path="url(#p090112b12c)" d="M 88.363636 665.978824 
L 108.654545 697.955294 
" style="fill:none;stroke:#000000;"/>
    <path clip-path="url(#p090112b12c)" d="M 74.836364 634.002353 
L 169.527273 665.978824 
" style="fill:none;stroke:#000000;"/>
    <path clip-path="url(#p090112b12c)" d="M 74.836364 634.002353 
L 128.945455 665.978824 
" style="fill:none;stroke:#000000;"/>
   </g>
   <g id="PathCollection_5">
    <g clip-path="url(#p090112b12c)">
     <use style="fill:#ff0000;stroke:#ff0000;stroke-width:0.3;" x="108.654545" xlink:href="#m59ff82566d" y="570.049412"/>
     <use style="fill:#ff0000;stroke:#ff0000;stroke-width:0.3;" x="88.363636" xlink:href="#m59ff82566d" y="602.025882"/>
     <use style="fill:#ff0000;stroke:#ff0000;stroke-width:0.3;" x="47.781818" xlink:href="#m59ff82566d" y="602.025882"/>
     <use style="fill:#ff0000;stroke:#ff0000;stroke-width:0.3;" x="128.945455" xlink:href="#m59ff82566d" y="602.025882"/>
     <use style="fill:#ff0000;stroke:#ff0000;stroke-width:0.3;" x="169.527273" xlink:href="#m59ff82566d" y="602.025882"/>
     <use style="fill:#ff0000;stroke:#ff0000;stroke-width:0.3;" x="41.018182" xlink:href="#m59ff82566d" y="634.002353"/>
     <use style="fill:#ff0000;stroke:#ff0000;stroke-width:0.3;" x="88.363636" xlink:href="#m59ff82566d" y="665.978824"/>
     <use style="fill:#ff0000;stroke:#ff0000;stroke-width:0.3;" x="74.836364" xlink:href="#m59ff82566d" y="634.002353"/>
     <use style="fill:#ff0000;stroke:#ff0000;stroke-width:0.3;" x="176.290909" xlink:href="#m59ff82566d" y="634.002353"/>
     <use style="fill:#ff0000;stroke:#ff0000;stroke-width:0.3;" x="47.781818" xlink:href="#m59ff82566d" y="665.978824"/>
     <use style="fill:#ff0000;stroke:#ff0000;stroke-width:0.3;" x="108.654545" xlink:href="#m59ff82566d" y="697.955294"/>
     <use style="fill:#ff0000;stroke:#ff0000;stroke-width:0.3;" x="108.654545" xlink:href="#m59ff82566d" y="634.002353"/>
     <use style="fill:#ff0000;stroke:#ff0000;stroke-width:0.3;" x="142.472727" xlink:href="#m59ff82566d" y="634.002353"/>
     <use style="fill:#ff0000;stroke:#ff0000;stroke-width:0.3;" x="169.527273" xlink:href="#m59ff82566d" y="665.978824"/>
     <use style="fill:#ff0000;stroke:#ff0000;stroke-width:0.3;" x="128.945455" xlink:href="#m59ff82566d" y="665.978824"/>
    </g>
   </g>
   <g id="text_5">
    <!-- $t = 4, R_4 = 1.75$ -->
    <defs>
     <path d="M 37.796875 64.3125 
L 12.890625 25.390625 
L 37.796875 25.390625 
z
M 35.203125 72.90625 
L 47.609375 72.90625 
L 47.609375 25.390625 
L 58.015625 25.390625 
L 58.015625 17.1875 
L 47.609375 17.1875 
L 47.609375 0 
L 37.796875 0 
L 37.796875 17.1875 
L 4.890625 17.1875 
L 4.890625 26.703125 
z
" id="DejaVuSans-52"/>
     <path d="M 8.203125 72.90625 
L 55.078125 72.90625 
L 55.078125 68.703125 
L 28.609375 0 
L 18.3125 0 
L 43.21875 64.59375 
L 8.203125 64.59375 
z
" id="DejaVuSans-55"/>
    </defs>
    <g style="fill:#262626;" transform="translate(64.734545 548.061176)scale(0.12 -0.12)">
     <use transform="translate(0 0.09375)" xlink:href="#DejaVuSans-Oblique-116"/>
     <use transform="translate(58.691406 0.09375)" xlink:href="#DejaVuSans-61"/>
     <use transform="translate(161.962891 0.09375)" xlink:href="#DejaVuSans-52"/>
     <use transform="translate(225.585938 0.09375)" xlink:href="#DejaVuSans-44"/>
     <use transform="translate(276.855469 0.09375)" xlink:href="#DejaVuSans-Oblique-82"/>
     <use transform="translate(346.337891 -16.3125)scale(0.7)" xlink:href="#DejaVuSans-52"/>
     <use transform="translate(413.09082 0.09375)" xlink:href="#DejaVuSans-61"/>
     <use transform="translate(516.362305 0.09375)" xlink:href="#DejaVuSans-49"/>
     <use transform="translate(579.985352 0.09375)" xlink:href="#DejaVuSans-46"/>
     <use transform="translate(604.022461 0.09375)" xlink:href="#DejaVuSans-55"/>
     <use transform="translate(667.645508 0.09375)" xlink:href="#DejaVuSans-53"/>
    </g>
   </g>
  </g>
  <g id="axes_6">
   <g id="LineCollection_5">
    <path clip-path="url(#pdfbdeeec17)" d="M 352.145455 570.049412 
L 331.854545 602.025882 
" style="fill:none;stroke:#000000;"/>
    <path clip-path="url(#pdfbdeeec17)" d="M 352.145455 570.049412 
L 291.272727 602.025882 
" style="fill:none;stroke:#000000;"/>
    <path clip-path="url(#pdfbdeeec17)" d="M 352.145455 570.049412 
L 372.436364 602.025882 
" style="fill:none;stroke:#000000;"/>
    <path clip-path="url(#pdfbdeeec17)" d="M 352.145455 570.049412 
L 413.018182 602.025882 
" style="fill:none;stroke:#000000;"/>
    <path clip-path="url(#pdfbdeeec17)" d="M 331.854545 602.025882 
L 318.327273 634.002353 
" style="fill:none;stroke:#000000;"/>
    <path clip-path="url(#pdfbdeeec17)" d="M 291.272727 602.025882 
L 284.509091 634.002353 
" style="fill:none;stroke:#000000;"/>
    <path clip-path="url(#pdfbdeeec17)" d="M 372.436364 602.025882 
L 352.145455 634.002353 
" style="fill:none;stroke:#000000;"/>
    <path clip-path="url(#pdfbdeeec17)" d="M 372.436364 602.025882 
L 385.963636 634.002353 
" style="fill:none;stroke:#000000;"/>
    <path clip-path="url(#pdfbdeeec17)" d="M 413.018182 602.025882 
L 419.781818 634.002353 
" style="fill:none;stroke:#000000;"/>
    <path clip-path="url(#pdfbdeeec17)" d="M 284.509091 634.002353 
L 331.854545 665.978824 
" style="fill:none;stroke:#000000;"/>
    <path clip-path="url(#pdfbdeeec17)" d="M 284.509091 634.002353 
L 291.272727 665.978824 
" style="fill:none;stroke:#000000;"/>
    <path clip-path="url(#pdfbdeeec17)" d="M 331.854545 665.978824 
L 318.327273 697.955294 
" style="fill:none;stroke:#000000;"/>
    <path clip-path="url(#pdfbdeeec17)" d="M 318.327273 634.002353 
L 413.018182 665.978824 
" style="fill:none;stroke:#000000;"/>
    <path clip-path="url(#pdfbdeeec17)" d="M 318.327273 634.002353 
L 372.436364 665.978824 
" style="fill:none;stroke:#000000;"/>
    <path clip-path="url(#pdfbdeeec17)" d="M 413.018182 665.978824 
L 385.963636 697.955294 
" style="fill:none;stroke:#000000;"/>
   </g>
   <g id="PathCollection_6">
    <g clip-path="url(#pdfbdeeec17)">
     <use style="fill:#ff0000;stroke:#ff0000;stroke-width:0.3;" x="352.145455" xlink:href="#m59ff82566d" y="570.049412"/>
     <use style="fill:#ff0000;stroke:#ff0000;stroke-width:0.3;" x="331.854545" xlink:href="#m59ff82566d" y="602.025882"/>
     <use style="fill:#ff0000;stroke:#ff0000;stroke-width:0.3;" x="291.272727" xlink:href="#m59ff82566d" y="602.025882"/>
     <use style="fill:#ff0000;stroke:#ff0000;stroke-width:0.3;" x="372.436364" xlink:href="#m59ff82566d" y="602.025882"/>
     <use style="fill:#ff0000;stroke:#ff0000;stroke-width:0.3;" x="413.018182" xlink:href="#m59ff82566d" y="602.025882"/>
     <use style="fill:#ff0000;stroke:#ff0000;stroke-width:0.3;" x="284.509091" xlink:href="#m59ff82566d" y="634.002353"/>
     <use style="fill:#ff0000;stroke:#ff0000;stroke-width:0.3;" x="331.854545" xlink:href="#m59ff82566d" y="665.978824"/>
     <use style="fill:#ff0000;stroke:#ff0000;stroke-width:0.3;" x="318.327273" xlink:href="#m59ff82566d" y="634.002353"/>
     <use style="fill:#ff0000;stroke:#ff0000;stroke-width:0.3;" x="419.781818" xlink:href="#m59ff82566d" y="634.002353"/>
     <use style="fill:#ff0000;stroke:#ff0000;stroke-width:0.3;" x="291.272727" xlink:href="#m59ff82566d" y="665.978824"/>
     <use style="fill:#ff0000;stroke:#ff0000;stroke-width:0.3;" x="318.327273" xlink:href="#m59ff82566d" y="697.955294"/>
     <use style="fill:#ff0000;stroke:#ff0000;stroke-width:0.3;" x="352.145455" xlink:href="#m59ff82566d" y="634.002353"/>
     <use style="fill:#ff0000;stroke:#ff0000;stroke-width:0.3;" x="385.963636" xlink:href="#m59ff82566d" y="634.002353"/>
     <use style="fill:#ff0000;stroke:#ff0000;stroke-width:0.3;" x="413.018182" xlink:href="#m59ff82566d" y="665.978824"/>
     <use style="fill:#ff0000;stroke:#ff0000;stroke-width:0.3;" x="372.436364" xlink:href="#m59ff82566d" y="665.978824"/>
     <use style="fill:#ff0000;stroke:#ff0000;stroke-width:0.3;" x="385.963636" xlink:href="#m59ff82566d" y="697.955294"/>
    </g>
   </g>
   <g id="text_6">
    <!-- $t = 4, R_4 = 1.6666666666666667$ -->
    <g style="fill:#262626;" transform="translate(254.345455 548.061176)scale(0.12 -0.12)">
     <use transform="translate(0 0.78125)" xlink:href="#DejaVuSans-Oblique-116"/>
     <use transform="translate(58.691406 0.78125)" xlink:href="#DejaVuSans-61"/>
     <use transform="translate(161.962891 0.78125)" xlink:href="#DejaVuSans-52"/>
     <use transform="translate(225.585938 0.78125)" xlink:href="#DejaVuSans-44"/>
     <use transform="translate(276.855469 0.78125)" xlink:href="#DejaVuSans-Oblique-82"/>
     <use transform="translate(346.337891 -15.625)scale(0.7)" xlink:href="#DejaVuSans-52"/>
     <use transform="translate(413.09082 0.78125)" xlink:href="#DejaVuSans-61"/>
     <use transform="translate(516.362305 0.78125)" xlink:href="#DejaVuSans-49"/>
     <use transform="translate(579.985352 0.78125)" xlink:href="#DejaVuSans-46"/>
     <use transform="translate(611.772461 0.78125)" xlink:href="#DejaVuSans-54"/>
     <use transform="translate(675.395508 0.78125)" xlink:href="#DejaVuSans-54"/>
     <use transform="translate(739.018555 0.78125)" xlink:href="#DejaVuSans-54"/>
     <use transform="translate(802.641602 0.78125)" xlink:href="#DejaVuSans-54"/>
     <use transform="translate(866.264648 0.78125)" xlink:href="#DejaVuSans-54"/>
     <use transform="translate(929.887695 0.78125)" xlink:href="#DejaVuSans-54"/>
     <use transform="translate(993.510742 0.78125)" xlink:href="#DejaVuSans-54"/>
     <use transform="translate(1057.133789 0.78125)" xlink:href="#DejaVuSans-54"/>
     <use transform="translate(1120.756836 0.78125)" xlink:href="#DejaVuSans-54"/>
     <use transform="translate(1184.379883 0.78125)" xlink:href="#DejaVuSans-54"/>
     <use transform="translate(1248.00293 0.78125)" xlink:href="#DejaVuSans-54"/>
     <use transform="translate(1311.625977 0.78125)" xlink:href="#DejaVuSans-54"/>
     <use transform="translate(1375.249023 0.78125)" xlink:href="#DejaVuSans-54"/>
     <use transform="translate(1438.87207 0.78125)" xlink:href="#DejaVuSans-54"/>
     <use transform="translate(1502.495117 0.78125)" xlink:href="#DejaVuSans-54"/>
     <use transform="translate(1566.118164 0.78125)" xlink:href="#DejaVuSans-55"/>
    </g>
   </g>
  </g>
  <g id="text_7">
   <!-- Progress of an epidemic ($p_{\mathit{infect}} = 0.19)$ -->
   <defs>
    <path d="M 7.71875 0 
L 7.71875 71.578125 
L 34.71875 71.578125 
Q 41.84375 71.578125 45.609375 70.90625 
Q 50.875 70.015625 54.4375 67.546875 
Q 58.015625 65.09375 60.1875 60.640625 
Q 62.359375 56.203125 62.359375 50.875 
Q 62.359375 41.75 56.546875 35.421875 
Q 50.734375 29.109375 35.546875 29.109375 
L 17.1875 29.109375 
L 17.1875 0 
z
M 17.1875 37.546875 
L 35.6875 37.546875 
Q 44.875 37.546875 48.734375 40.96875 
Q 52.59375 44.390625 52.59375 50.59375 
Q 52.59375 55.078125 50.3125 58.265625 
Q 48.046875 61.46875 44.34375 62.5 
Q 41.9375 63.140625 35.5 63.140625 
L 17.1875 63.140625 
z
" id="ArialMT-80"/>
    <path d="M 6.5 0 
L 6.5 51.859375 
L 14.40625 51.859375 
L 14.40625 44 
Q 17.4375 49.515625 20 51.265625 
Q 22.5625 53.03125 25.640625 53.03125 
Q 30.078125 53.03125 34.671875 50.203125 
L 31.640625 42.046875 
Q 28.421875 43.953125 25.203125 43.953125 
Q 22.3125 43.953125 20.015625 42.21875 
Q 17.71875 40.484375 16.75 37.40625 
Q 15.28125 32.71875 15.28125 27.15625 
L 15.28125 0 
z
" id="ArialMT-114"/>
    <path d="M 3.328125 25.921875 
Q 3.328125 40.328125 11.328125 47.265625 
Q 18.015625 53.03125 27.640625 53.03125 
Q 38.328125 53.03125 45.109375 46.015625 
Q 51.90625 39.015625 51.90625 26.65625 
Q 51.90625 16.65625 48.90625 10.90625 
Q 45.90625 5.171875 40.15625 2 
Q 34.421875 -1.171875 27.640625 -1.171875 
Q 16.75 -1.171875 10.03125 5.8125 
Q 3.328125 12.796875 3.328125 25.921875 
z
M 12.359375 25.921875 
Q 12.359375 15.96875 16.703125 11.015625 
Q 21.046875 6.0625 27.640625 6.0625 
Q 34.1875 6.0625 38.53125 11.03125 
Q 42.875 16.015625 42.875 26.21875 
Q 42.875 35.84375 38.5 40.796875 
Q 34.125 45.75 27.640625 45.75 
Q 21.046875 45.75 16.703125 40.8125 
Q 12.359375 35.890625 12.359375 25.921875 
z
" id="ArialMT-111"/>
    <path d="M 4.984375 -4.296875 
L 13.53125 -5.5625 
Q 14.0625 -9.515625 16.5 -11.328125 
Q 19.78125 -13.765625 25.4375 -13.765625 
Q 31.546875 -13.765625 34.859375 -11.328125 
Q 38.1875 -8.890625 39.359375 -4.5 
Q 40.046875 -1.8125 39.984375 6.78125 
Q 34.234375 0 25.640625 0 
Q 14.9375 0 9.078125 7.71875 
Q 3.21875 15.4375 3.21875 26.21875 
Q 3.21875 33.640625 5.90625 39.90625 
Q 8.59375 46.1875 13.6875 49.609375 
Q 18.796875 53.03125 25.6875 53.03125 
Q 34.859375 53.03125 40.828125 45.609375 
L 40.828125 51.859375 
L 48.921875 51.859375 
L 48.921875 7.03125 
Q 48.921875 -5.078125 46.453125 -10.125 
Q 44 -15.1875 38.640625 -18.109375 
Q 33.296875 -21.046875 25.484375 -21.046875 
Q 16.21875 -21.046875 10.5 -16.875 
Q 4.78125 -12.703125 4.984375 -4.296875 
z
M 12.25 26.859375 
Q 12.25 16.65625 16.296875 11.96875 
Q 20.359375 7.28125 26.46875 7.28125 
Q 32.515625 7.28125 36.609375 11.9375 
Q 40.71875 16.609375 40.71875 26.5625 
Q 40.71875 36.078125 36.5 40.90625 
Q 32.28125 45.75 26.3125 45.75 
Q 20.453125 45.75 16.34375 40.984375 
Q 12.25 36.234375 12.25 26.859375 
z
" id="ArialMT-103"/>
    <path d="M 42.09375 16.703125 
L 51.171875 15.578125 
Q 49.03125 7.625 43.21875 3.21875 
Q 37.40625 -1.171875 28.375 -1.171875 
Q 17 -1.171875 10.328125 5.828125 
Q 3.65625 12.84375 3.65625 25.484375 
Q 3.65625 38.578125 10.390625 45.796875 
Q 17.140625 53.03125 27.875 53.03125 
Q 38.28125 53.03125 44.875 45.953125 
Q 51.46875 38.875 51.46875 26.03125 
Q 51.46875 25.25 51.421875 23.6875 
L 12.75 23.6875 
Q 13.234375 15.140625 17.578125 10.59375 
Q 21.921875 6.0625 28.421875 6.0625 
Q 33.25 6.0625 36.671875 8.59375 
Q 40.09375 11.140625 42.09375 16.703125 
z
M 13.234375 30.90625 
L 42.1875 30.90625 
Q 41.609375 37.453125 38.875 40.71875 
Q 34.671875 45.796875 27.984375 45.796875 
Q 21.921875 45.796875 17.796875 41.75 
Q 13.671875 37.703125 13.234375 30.90625 
z
" id="ArialMT-101"/>
    <path d="M 3.078125 15.484375 
L 11.765625 16.84375 
Q 12.5 11.625 15.84375 8.84375 
Q 19.1875 6.0625 25.203125 6.0625 
Q 31.25 6.0625 34.171875 8.515625 
Q 37.109375 10.984375 37.109375 14.3125 
Q 37.109375 17.28125 34.515625 19 
Q 32.71875 20.171875 25.53125 21.96875 
Q 15.875 24.421875 12.140625 26.203125 
Q 8.40625 27.984375 6.46875 31.125 
Q 4.546875 34.28125 4.546875 38.09375 
Q 4.546875 41.546875 6.125 44.5 
Q 7.71875 47.46875 10.453125 49.421875 
Q 12.5 50.921875 16.03125 51.96875 
Q 19.578125 53.03125 23.640625 53.03125 
Q 29.734375 53.03125 34.34375 51.265625 
Q 38.96875 49.515625 41.15625 46.5 
Q 43.359375 43.5 44.1875 38.484375 
L 35.59375 37.3125 
Q 35.015625 41.3125 32.203125 43.546875 
Q 29.390625 45.796875 24.265625 45.796875 
Q 18.21875 45.796875 15.625 43.796875 
Q 13.03125 41.796875 13.03125 39.109375 
Q 13.03125 37.40625 14.109375 36.03125 
Q 15.1875 34.625 17.484375 33.6875 
Q 18.796875 33.203125 25.25 31.453125 
Q 34.578125 28.953125 38.25 27.359375 
Q 41.9375 25.78125 44.03125 22.75 
Q 46.140625 19.734375 46.140625 15.234375 
Q 46.140625 10.84375 43.578125 6.953125 
Q 41.015625 3.078125 36.171875 0.953125 
Q 31.34375 -1.171875 25.25 -1.171875 
Q 15.140625 -1.171875 9.84375 3.03125 
Q 4.546875 7.234375 3.078125 15.484375 
z
" id="ArialMT-115"/>
    <path id="ArialMT-32"/>
    <path d="M 8.6875 0 
L 8.6875 45.015625 
L 0.921875 45.015625 
L 0.921875 51.859375 
L 8.6875 51.859375 
L 8.6875 57.375 
Q 8.6875 62.59375 9.625 65.140625 
Q 10.890625 68.5625 14.078125 70.671875 
Q 17.28125 72.796875 23.046875 72.796875 
Q 26.765625 72.796875 31.25 71.921875 
L 29.9375 64.265625 
Q 27.203125 64.75 24.75 64.75 
Q 20.75 64.75 19.09375 63.03125 
Q 17.4375 61.328125 17.4375 56.640625 
L 17.4375 51.859375 
L 27.546875 51.859375 
L 27.546875 45.015625 
L 17.4375 45.015625 
L 17.4375 0 
z
" id="ArialMT-102"/>
    <path d="M 40.4375 6.390625 
Q 35.546875 2.25 31.03125 0.53125 
Q 26.515625 -1.171875 21.34375 -1.171875 
Q 12.796875 -1.171875 8.203125 3 
Q 3.609375 7.171875 3.609375 13.671875 
Q 3.609375 17.484375 5.34375 20.625 
Q 7.078125 23.78125 9.890625 25.6875 
Q 12.703125 27.59375 16.21875 28.5625 
Q 18.796875 29.25 24.03125 29.890625 
Q 34.671875 31.15625 39.703125 32.90625 
Q 39.75 34.71875 39.75 35.203125 
Q 39.75 40.578125 37.25 42.78125 
Q 33.890625 45.75 27.25 45.75 
Q 21.046875 45.75 18.09375 43.578125 
Q 15.140625 41.40625 13.71875 35.890625 
L 5.125 37.0625 
Q 6.296875 42.578125 8.984375 45.96875 
Q 11.671875 49.359375 16.75 51.1875 
Q 21.828125 53.03125 28.515625 53.03125 
Q 35.15625 53.03125 39.296875 51.46875 
Q 43.453125 49.90625 45.40625 47.53125 
Q 47.359375 45.171875 48.140625 41.546875 
Q 48.578125 39.3125 48.578125 33.453125 
L 48.578125 21.734375 
Q 48.578125 9.46875 49.140625 6.21875 
Q 49.703125 2.984375 51.375 0 
L 42.1875 0 
Q 40.828125 2.734375 40.4375 6.390625 
z
M 39.703125 26.03125 
Q 34.90625 24.078125 25.34375 22.703125 
Q 19.921875 21.921875 17.671875 20.9375 
Q 15.4375 19.96875 14.203125 18.09375 
Q 12.984375 16.21875 12.984375 13.921875 
Q 12.984375 10.40625 15.640625 8.0625 
Q 18.3125 5.71875 23.4375 5.71875 
Q 28.515625 5.71875 32.46875 7.9375 
Q 36.421875 10.15625 38.28125 14.015625 
Q 39.703125 17 39.703125 22.796875 
z
" id="ArialMT-97"/>
    <path d="M 6.59375 0 
L 6.59375 51.859375 
L 14.5 51.859375 
L 14.5 44.484375 
Q 20.21875 53.03125 31 53.03125 
Q 35.6875 53.03125 39.625 51.34375 
Q 43.5625 49.65625 45.515625 46.921875 
Q 47.46875 44.1875 48.25 40.4375 
Q 48.734375 37.984375 48.734375 31.890625 
L 48.734375 0 
L 39.9375 0 
L 39.9375 31.546875 
Q 39.9375 36.921875 38.90625 39.578125 
Q 37.890625 42.234375 35.28125 43.8125 
Q 32.671875 45.40625 29.15625 45.40625 
Q 23.53125 45.40625 19.453125 41.84375 
Q 15.375 38.28125 15.375 28.328125 
L 15.375 0 
z
" id="ArialMT-110"/>
    <path d="M 6.59375 -19.875 
L 6.59375 51.859375 
L 14.59375 51.859375 
L 14.59375 45.125 
Q 17.4375 49.078125 21 51.046875 
Q 24.5625 53.03125 29.640625 53.03125 
Q 36.28125 53.03125 41.359375 49.609375 
Q 46.4375 46.1875 49.015625 39.953125 
Q 51.609375 33.734375 51.609375 26.3125 
Q 51.609375 18.359375 48.75 11.984375 
Q 45.90625 5.609375 40.453125 2.21875 
Q 35.015625 -1.171875 29 -1.171875 
Q 24.609375 -1.171875 21.109375 0.6875 
Q 17.625 2.546875 15.375 5.375 
L 15.375 -19.875 
z
M 14.546875 25.640625 
Q 14.546875 15.625 18.59375 10.84375 
Q 22.65625 6.0625 28.421875 6.0625 
Q 34.28125 6.0625 38.453125 11.015625 
Q 42.625 15.96875 42.625 26.375 
Q 42.625 36.28125 38.546875 41.203125 
Q 34.46875 46.140625 28.8125 46.140625 
Q 23.1875 46.140625 18.859375 40.890625 
Q 14.546875 35.640625 14.546875 25.640625 
z
" id="ArialMT-112"/>
    <path d="M 6.640625 61.46875 
L 6.640625 71.578125 
L 15.4375 71.578125 
L 15.4375 61.46875 
z
M 6.640625 0 
L 6.640625 51.859375 
L 15.4375 51.859375 
L 15.4375 0 
z
" id="ArialMT-105"/>
    <path d="M 40.234375 0 
L 40.234375 6.546875 
Q 35.296875 -1.171875 25.734375 -1.171875 
Q 19.53125 -1.171875 14.328125 2.25 
Q 9.125 5.671875 6.265625 11.796875 
Q 3.421875 17.921875 3.421875 25.875 
Q 3.421875 33.640625 6 39.96875 
Q 8.59375 46.296875 13.765625 49.65625 
Q 18.953125 53.03125 25.34375 53.03125 
Q 30.03125 53.03125 33.6875 51.046875 
Q 37.359375 49.078125 39.65625 45.90625 
L 39.65625 71.578125 
L 48.390625 71.578125 
L 48.390625 0 
z
M 12.453125 25.875 
Q 12.453125 15.921875 16.640625 10.984375 
Q 20.84375 6.0625 26.5625 6.0625 
Q 32.328125 6.0625 36.34375 10.765625 
Q 40.375 15.484375 40.375 25.140625 
Q 40.375 35.796875 36.265625 40.765625 
Q 32.171875 45.75 26.171875 45.75 
Q 20.3125 45.75 16.375 40.96875 
Q 12.453125 36.1875 12.453125 25.875 
z
" id="ArialMT-100"/>
    <path d="M 6.59375 0 
L 6.59375 51.859375 
L 14.453125 51.859375 
L 14.453125 44.578125 
Q 16.890625 48.390625 20.9375 50.703125 
Q 25 53.03125 30.171875 53.03125 
Q 35.9375 53.03125 39.625 50.640625 
Q 43.3125 48.25 44.828125 43.953125 
Q 50.984375 53.03125 60.84375 53.03125 
Q 68.5625 53.03125 72.703125 48.75 
Q 76.859375 44.484375 76.859375 35.59375 
L 76.859375 0 
L 68.109375 0 
L 68.109375 32.671875 
Q 68.109375 37.9375 67.25 40.25 
Q 66.40625 42.578125 64.15625 43.984375 
Q 61.921875 45.40625 58.890625 45.40625 
Q 53.421875 45.40625 49.796875 41.765625 
Q 46.1875 38.140625 46.1875 30.125 
L 46.1875 0 
L 37.40625 0 
L 37.40625 33.6875 
Q 37.40625 39.546875 35.25 42.46875 
Q 33.109375 45.40625 28.21875 45.40625 
Q 24.515625 45.40625 21.359375 43.453125 
Q 18.21875 41.5 16.796875 37.734375 
Q 15.375 33.984375 15.375 26.90625 
L 15.375 0 
z
" id="ArialMT-109"/>
    <path d="M 40.4375 19 
L 49.078125 17.875 
Q 47.65625 8.9375 41.8125 3.875 
Q 35.984375 -1.171875 27.484375 -1.171875 
Q 16.84375 -1.171875 10.375 5.78125 
Q 3.90625 12.75 3.90625 25.734375 
Q 3.90625 34.125 6.6875 40.421875 
Q 9.46875 46.734375 15.15625 49.875 
Q 20.84375 53.03125 27.546875 53.03125 
Q 35.984375 53.03125 41.359375 48.75 
Q 46.734375 44.484375 48.25 36.625 
L 39.703125 35.296875 
Q 38.484375 40.53125 35.375 43.15625 
Q 32.28125 45.796875 27.875 45.796875 
Q 21.234375 45.796875 17.078125 41.03125 
Q 12.9375 36.28125 12.9375 25.984375 
Q 12.9375 15.53125 16.9375 10.796875 
Q 20.953125 6.0625 27.390625 6.0625 
Q 32.5625 6.0625 36.03125 9.234375 
Q 39.5 12.40625 40.4375 19 
z
" id="ArialMT-99"/>
    <path d="M 23.390625 -21.046875 
Q 16.109375 -11.859375 11.078125 0.4375 
Q 6.0625 12.75 6.0625 25.921875 
Q 6.0625 37.546875 9.8125 48.1875 
Q 14.203125 60.546875 23.390625 72.796875 
L 29.6875 72.796875 
Q 23.78125 62.640625 21.875 58.296875 
Q 18.890625 51.5625 17.1875 44.234375 
Q 15.09375 35.109375 15.09375 25.875 
Q 15.09375 2.390625 29.6875 -21.046875 
z
" id="ArialMT-40"/>
    <path d="M 49.609375 33.6875 
Q 49.609375 40.875 46.484375 44.671875 
Q 43.359375 48.484375 37.5 48.484375 
Q 33.5 48.484375 29.859375 46.4375 
Q 26.21875 44.390625 23.390625 40.484375 
Q 20.609375 36.625 18.9375 31.15625 
Q 17.28125 25.6875 17.28125 20.3125 
Q 17.28125 13.484375 20.40625 9.796875 
Q 23.53125 6.109375 29.296875 6.109375 
Q 33.546875 6.109375 37.1875 8.109375 
Q 40.828125 10.109375 43.40625 13.921875 
Q 46.1875 17.921875 47.890625 23.34375 
Q 49.609375 28.765625 49.609375 33.6875 
z
M 21.78125 46.390625 
Q 25.390625 51.125 30.296875 53.5625 
Q 35.203125 56 41.21875 56 
Q 49.609375 56 54.25 50.5 
Q 58.890625 45.015625 58.890625 35.109375 
Q 58.890625 27 56 19.65625 
Q 53.125 12.3125 47.703125 6.5 
Q 44.09375 2.640625 39.546875 0.609375 
Q 35.015625 -1.421875 29.984375 -1.421875 
Q 24.171875 -1.421875 20.21875 1 
Q 16.265625 3.421875 14.3125 8.203125 
L 8.6875 -20.796875 
L -0.296875 -20.796875 
L 14.40625 54.6875 
L 23.390625 54.6875 
z
" id="DejaVuSans-Oblique-112"/>
    <path d="M 18.3125 75.984375 
L 27.296875 75.984375 
L 25.09375 64.59375 
L 16.109375 64.59375 
z
M 14.203125 54.6875 
L 23.1875 54.6875 
L 12.5 0 
L 3.515625 0 
z
" id="DejaVuSans-Oblique-105"/>
    <path d="M 55.71875 33.015625 
L 49.3125 0 
L 40.28125 0 
L 46.6875 32.671875 
Q 47.125 34.96875 47.359375 36.71875 
Q 47.609375 38.484375 47.609375 39.5 
Q 47.609375 43.609375 45.015625 45.890625 
Q 42.4375 48.1875 37.796875 48.1875 
Q 30.5625 48.1875 25.34375 43.375 
Q 20.125 38.578125 18.5 30.328125 
L 12.5 0 
L 3.515625 0 
L 14.109375 54.6875 
L 23.09375 54.6875 
L 21.296875 46.09375 
Q 25.046875 50.828125 30.3125 53.40625 
Q 35.59375 56 41.40625 56 
Q 48.640625 56 52.609375 52.09375 
Q 56.59375 48.1875 56.59375 41.109375 
Q 56.59375 39.359375 56.375 37.359375 
Q 56.15625 35.359375 55.71875 33.015625 
z
" id="DejaVuSans-Oblique-110"/>
    <path d="M 47.796875 75.984375 
L 46.390625 68.5 
L 37.796875 68.5 
Q 32.90625 68.5 30.6875 66.578125 
Q 28.46875 64.65625 27.390625 59.515625 
L 26.421875 54.6875 
L 41.21875 54.6875 
L 39.890625 47.703125 
L 25.09375 47.703125 
L 15.828125 0 
L 6.78125 0 
L 16.109375 47.703125 
L 7.515625 47.703125 
L 8.796875 54.6875 
L 17.390625 54.6875 
L 18.109375 58.5 
Q 19.96875 68.171875 24.625 72.078125 
Q 29.296875 75.984375 39.3125 75.984375 
z
" id="DejaVuSans-Oblique-102"/>
    <path d="M 48.09375 32.234375 
Q 48.25 33.015625 48.3125 33.84375 
Q 48.390625 34.671875 48.390625 35.5 
Q 48.390625 41.453125 44.890625 44.921875 
Q 41.40625 48.390625 35.40625 48.390625 
Q 28.71875 48.390625 23.578125 44.15625 
Q 18.453125 39.9375 15.828125 32.171875 
z
M 55.90625 25.203125 
L 14.109375 25.203125 
Q 13.8125 23.34375 13.71875 22.265625 
Q 13.625 21.1875 13.625 20.40625 
Q 13.625 13.625 17.796875 9.90625 
Q 21.96875 6.203125 29.59375 6.203125 
Q 35.453125 6.203125 40.671875 7.515625 
Q 45.90625 8.84375 50.390625 11.375 
L 48.6875 2.484375 
Q 43.84375 0.53125 38.6875 -0.4375 
Q 33.546875 -1.421875 28.21875 -1.421875 
Q 16.84375 -1.421875 10.71875 4.015625 
Q 4.59375 9.46875 4.59375 19.484375 
Q 4.59375 28.03125 7.640625 35.375 
Q 10.6875 42.71875 16.609375 48.484375 
Q 20.40625 52.09375 25.65625 54.046875 
Q 30.90625 56 36.8125 56 
Q 46.09375 56 51.578125 50.4375 
Q 57.078125 44.875 57.078125 35.5 
Q 57.078125 33.25 56.78125 30.6875 
Q 56.5 28.125 55.90625 25.203125 
z
" id="DejaVuSans-Oblique-101"/>
    <path d="M 53.609375 52.59375 
L 51.8125 43.703125 
Q 48.578125 46.046875 44.9375 47.21875 
Q 41.3125 48.390625 37.40625 48.390625 
Q 33.109375 48.390625 29.21875 46.875 
Q 25.34375 45.359375 22.703125 42.578125 
Q 18.5 38.328125 16.203125 32.609375 
Q 13.921875 26.90625 13.921875 20.796875 
Q 13.921875 13.421875 17.609375 9.8125 
Q 21.296875 6.203125 28.8125 6.203125 
Q 32.515625 6.203125 36.6875 7.328125 
Q 40.875 8.453125 45.40625 10.6875 
L 43.703125 1.8125 
Q 39.796875 0.203125 35.671875 -0.609375 
Q 31.546875 -1.421875 27.203125 -1.421875 
Q 16.3125 -1.421875 10.453125 4.015625 
Q 4.59375 9.46875 4.59375 19.578125 
Q 4.59375 28.078125 7.640625 35.234375 
Q 10.6875 42.390625 16.703125 48.09375 
Q 20.796875 52 26.3125 54 
Q 31.84375 56 38.375 56 
Q 42.1875 56 45.9375 55.140625 
Q 49.703125 54.296875 53.609375 52.59375 
z
" id="DejaVuSans-Oblique-99"/>
    <path d="M 10.984375 1.515625 
L 10.984375 10.5 
Q 14.703125 8.734375 18.5 7.8125 
Q 22.3125 6.890625 25.984375 6.890625 
Q 35.75 6.890625 40.890625 13.453125 
Q 46.046875 20.015625 46.78125 33.40625 
Q 43.953125 29.203125 39.59375 26.953125 
Q 35.25 24.703125 29.984375 24.703125 
Q 19.046875 24.703125 12.671875 31.3125 
Q 6.296875 37.9375 6.296875 49.421875 
Q 6.296875 60.640625 12.9375 67.421875 
Q 19.578125 74.21875 30.609375 74.21875 
Q 43.265625 74.21875 49.921875 64.515625 
Q 56.59375 54.828125 56.59375 36.375 
Q 56.59375 19.140625 48.40625 8.859375 
Q 40.234375 -1.421875 26.421875 -1.421875 
Q 22.703125 -1.421875 18.890625 -0.6875 
Q 15.09375 0.046875 10.984375 1.515625 
z
M 30.609375 32.421875 
Q 37.25 32.421875 41.125 36.953125 
Q 45.015625 41.5 45.015625 49.421875 
Q 45.015625 57.28125 41.125 61.84375 
Q 37.25 66.40625 30.609375 66.40625 
Q 23.96875 66.40625 20.09375 61.84375 
Q 16.21875 57.28125 16.21875 49.421875 
Q 16.21875 41.5 20.09375 36.953125 
Q 23.96875 32.421875 30.609375 32.421875 
z
" id="DejaVuSans-57"/>
    <path d="M 8.015625 75.875 
L 15.828125 75.875 
Q 23.140625 64.359375 26.78125 53.3125 
Q 30.421875 42.28125 30.421875 31.390625 
Q 30.421875 20.453125 26.78125 9.375 
Q 23.140625 -1.703125 15.828125 -13.1875 
L 8.015625 -13.1875 
Q 14.5 -2 17.703125 9.0625 
Q 20.90625 20.125 20.90625 31.390625 
Q 20.90625 42.671875 17.703125 53.65625 
Q 14.5 64.65625 8.015625 75.875 
z
" id="DejaVuSans-41"/>
   </defs>
   <g style="fill:#262626;" transform="translate(115.92 16.32)scale(0.12 -0.12)">
    <use transform="translate(0 0.125)" xlink:href="#ArialMT-80"/>
    <use transform="translate(66.699219 0.125)" xlink:href="#ArialMT-114"/>
    <use transform="translate(100 0.125)" xlink:href="#ArialMT-111"/>
    <use transform="translate(155.615234 0.125)" xlink:href="#ArialMT-103"/>
    <use transform="translate(211.230469 0.125)" xlink:href="#ArialMT-114"/>
    <use transform="translate(244.53125 0.125)" xlink:href="#ArialMT-101"/>
    <use transform="translate(300.146484 0.125)" xlink:href="#ArialMT-115"/>
    <use transform="translate(350.146484 0.125)" xlink:href="#ArialMT-115"/>
    <use transform="translate(400.146484 0.125)" xlink:href="#ArialMT-32"/>
    <use transform="translate(427.929688 0.125)" xlink:href="#ArialMT-111"/>
    <use transform="translate(483.544922 0.125)" xlink:href="#ArialMT-102"/>
    <use transform="translate(511.328125 0.125)" xlink:href="#ArialMT-32"/>
    <use transform="translate(539.111328 0.125)" xlink:href="#ArialMT-97"/>
    <use transform="translate(594.726562 0.125)" xlink:href="#ArialMT-110"/>
    <use transform="translate(650.341797 0.125)" xlink:href="#ArialMT-32"/>
    <use transform="translate(678.125 0.125)" xlink:href="#ArialMT-101"/>
    <use transform="translate(733.740234 0.125)" xlink:href="#ArialMT-112"/>
    <use transform="translate(789.355469 0.125)" xlink:href="#ArialMT-105"/>
    <use transform="translate(811.572266 0.125)" xlink:href="#ArialMT-100"/>
    <use transform="translate(867.1875 0.125)" xlink:href="#ArialMT-101"/>
    <use transform="translate(922.802734 0.125)" xlink:href="#ArialMT-109"/>
    <use transform="translate(1006.103516 0.125)" xlink:href="#ArialMT-105"/>
    <use transform="translate(1028.320312 0.125)" xlink:href="#ArialMT-99"/>
    <use transform="translate(1078.320312 0.125)" xlink:href="#ArialMT-32"/>
    <use transform="translate(1106.103516 0.125)" xlink:href="#ArialMT-40"/>
    <use transform="translate(1139.404297 0.125)" xlink:href="#DejaVuSans-Oblique-112"/>
    <use transform="translate(1202.880859 -16.28125)scale(0.7)" xlink:href="#DejaVuSans-Oblique-105"/>
    <use transform="translate(1222.329102 -16.28125)scale(0.7)" xlink:href="#DejaVuSans-Oblique-110"/>
    <use transform="translate(1266.694336 -16.28125)scale(0.7)" xlink:href="#DejaVuSans-Oblique-102"/>
    <use transform="translate(1291.337891 -16.28125)scale(0.7)" xlink:href="#DejaVuSans-Oblique-101"/>
    <use transform="translate(1334.404297 -16.28125)scale(0.7)" xlink:href="#DejaVuSans-Oblique-99"/>
    <use transform="translate(1372.890625 -16.28125)scale(0.7)" xlink:href="#DejaVuSans-Oblique-116"/>
    <use transform="translate(1422.553711 0.125)" xlink:href="#DejaVuSans-61"/>
    <use transform="translate(1525.825195 0.125)" xlink:href="#DejaVuSans-48"/>
    <use transform="translate(1589.448242 0.125)" xlink:href="#DejaVuSans-46"/>
    <use transform="translate(1621.235352 0.125)" xlink:href="#DejaVuSans-49"/>
    <use transform="translate(1684.858398 0.125)" xlink:href="#DejaVuSans-57"/>
    <use transform="translate(1748.481445 0.125)" xlink:href="#DejaVuSans-41"/>
   </g>
  </g>
 </g>
 <defs>
  <clipPath id="p078e015a88">
   <rect height="191.858824" width="202.909091" x="7.2" y="93.6"/>
  </clipPath>
  <clipPath id="pdfb2279be0">
   <rect height="191.858824" width="202.909091" x="250.690909" y="93.6"/>
  </clipPath>
  <clipPath id="pc229540192">
   <rect height="191.858824" width="202.909091" x="7.2" y="323.830588"/>
  </clipPath>
  <clipPath id="p19161aeb37">
   <rect height="191.858824" width="202.909091" x="250.690909" y="323.830588"/>
  </clipPath>
  <clipPath id="p090112b12c">
   <rect height="191.858824" width="202.909091" x="7.2" y="554.061176"/>
  </clipPath>
  <clipPath id="pdfbdeeec17">
   <rect height="191.858824" width="202.909091" x="250.690909" y="554.061176"/>
  </clipPath>
 </defs>
</svg>
