<?xml version="1.0" encoding="utf-8" standalone="no"?>
<!DOCTYPE svg PUBLIC "-//W3C//DTD SVG 1.1//EN"
  "http://www.w3.org/Graphics/SVG/1.1/DTD/svg11.dtd">
<!-- Created with matplotlib (https://matplotlib.org/) -->
<svg height="753.12pt" version="1.1" viewBox="0 0 460.8 753.12" width="460.8pt" xmlns="http://www.w3.org/2000/svg" xmlns:xlink="http://www.w3.org/1999/xlink">
 <defs>
  <style type="text/css">
*{stroke-linecap:butt;stroke-linejoin:round;}
  </style>
 </defs>
 <g id="figure_1">
  <g id="patch_1">
   <path d="M 0 753.12 
L 460.8 753.12 
L 460.8 0 
L 0 0 
z
" style="fill:#ffffff;"/>
  </g>
  <g id="axes_1">
   <g id="LineCollection_1">
    <path clip-path="url(#pa15a661b9e)" d="M 200.88595 189.529412 
L 162.866804 118.976207 
" style="fill:none;stroke:#000000;"/>
    <path clip-path="url(#pa15a661b9e)" d="M 200.88595 189.529412 
L 80.15347 106.589149 
" style="fill:none;stroke:#000000;"/>
    <path clip-path="url(#pa15a661b9e)" d="M 200.88595 189.529412 
L 54.442303 260.082627 
" style="fill:none;stroke:#000000;"/>
    <path clip-path="url(#pa15a661b9e)" d="M 196.371826 162.580485 
L 162.866804 118.976207 
" style="fill:none;stroke:#000000;"/>
    <path clip-path="url(#pa15a661b9e)" d="M 196.371826 162.580485 
L 20.937265 216.478336 
" style="fill:none;stroke:#000000;"/>
    <path clip-path="url(#pa15a661b9e)" d="M 196.371826 162.580485 
L 80.153462 272.469674 
" style="fill:none;stroke:#000000;"/>
    <path clip-path="url(#pa15a661b9e)" d="M 183.27132 138.269509 
L 20.93727 162.580483 
" style="fill:none;stroke:#000000;"/>
    <path clip-path="url(#pa15a661b9e)" d="M 183.27132 138.269509 
L 108.654547 276.737968 
" style="fill:none;stroke:#000000;"/>
    <path clip-path="url(#pa15a661b9e)" d="M 162.866804 118.976207 
L 20.93727 162.580483 
" style="fill:none;stroke:#000000;"/>
    <path clip-path="url(#pa15a661b9e)" d="M 162.866804 118.976207 
L 16.42314 189.529419 
" style="fill:none;stroke:#000000;"/>
    <path clip-path="url(#pa15a661b9e)" d="M 162.866804 118.976207 
L 54.442303 260.082627 
" style="fill:none;stroke:#000000;"/>
    <path clip-path="url(#pa15a661b9e)" d="M 162.866804 118.976207 
L 108.654547 276.737968 
" style="fill:none;stroke:#000000;"/>
    <path clip-path="url(#pa15a661b9e)" d="M 162.866804 118.976207 
L 137.155629 272.469674 
" style="fill:none;stroke:#000000;"/>
    <path clip-path="url(#pa15a661b9e)" d="M 162.866804 118.976207 
L 183.271315 240.789319 
" style="fill:none;stroke:#000000;"/>
    <path clip-path="url(#pa15a661b9e)" d="M 108.654541 102.320856 
L 80.153462 272.469674 
" style="fill:none;stroke:#000000;"/>
    <path clip-path="url(#pa15a661b9e)" d="M 80.15347 106.589149 
L 20.93727 162.580483 
" style="fill:none;stroke:#000000;"/>
    <path clip-path="url(#pa15a661b9e)" d="M 80.15347 106.589149 
L 16.42314 189.529419 
" style="fill:none;stroke:#000000;"/>
    <path clip-path="url(#pa15a661b9e)" d="M 80.15347 106.589149 
L 54.442303 260.082627 
" style="fill:none;stroke:#000000;"/>
    <path clip-path="url(#pa15a661b9e)" d="M 80.15347 106.589149 
L 108.654547 276.737968 
" style="fill:none;stroke:#000000;"/>
    <path clip-path="url(#pa15a661b9e)" d="M 80.15347 106.589149 
L 137.155629 272.469674 
" style="fill:none;stroke:#000000;"/>
    <path clip-path="url(#pa15a661b9e)" d="M 80.15347 106.589149 
L 196.371826 216.478333 
" style="fill:none;stroke:#000000;"/>
    <path clip-path="url(#pa15a661b9e)" d="M 54.442287 118.976207 
L 20.937265 216.478336 
" style="fill:none;stroke:#000000;"/>
    <path clip-path="url(#pa15a661b9e)" d="M 54.442287 118.976207 
L 137.155629 272.469674 
" style="fill:none;stroke:#000000;"/>
    <path clip-path="url(#pa15a661b9e)" d="M 34.037771 138.269509 
L 137.155629 272.469674 
" style="fill:none;stroke:#000000;"/>
    <path clip-path="url(#pa15a661b9e)" d="M 34.037771 138.269509 
L 162.866788 260.082627 
" style="fill:none;stroke:#000000;"/>
    <path clip-path="url(#pa15a661b9e)" d="M 34.037771 138.269509 
L 183.271315 240.789319 
" style="fill:none;stroke:#000000;"/>
    <path clip-path="url(#pa15a661b9e)" d="M 20.93727 162.580483 
L 16.42314 189.529419 
" style="fill:none;stroke:#000000;"/>
    <path clip-path="url(#pa15a661b9e)" d="M 20.93727 162.580483 
L 20.937265 216.478336 
" style="fill:none;stroke:#000000;"/>
    <path clip-path="url(#pa15a661b9e)" d="M 20.93727 162.580483 
L 54.442303 260.082627 
" style="fill:none;stroke:#000000;"/>
    <path clip-path="url(#pa15a661b9e)" d="M 20.93727 162.580483 
L 108.654547 276.737968 
" style="fill:none;stroke:#000000;"/>
    <path clip-path="url(#pa15a661b9e)" d="M 16.42314 189.529419 
L 80.153462 272.469674 
" style="fill:none;stroke:#000000;"/>
    <path clip-path="url(#pa15a661b9e)" d="M 16.42314 189.529419 
L 137.155629 272.469674 
" style="fill:none;stroke:#000000;"/>
    <path clip-path="url(#pa15a661b9e)" d="M 16.42314 189.529419 
L 183.271315 240.789319 
" style="fill:none;stroke:#000000;"/>
    <path clip-path="url(#pa15a661b9e)" d="M 20.937265 216.478336 
L 54.442303 260.082627 
" style="fill:none;stroke:#000000;"/>
    <path clip-path="url(#pa15a661b9e)" d="M 20.937265 216.478336 
L 137.155629 272.469674 
" style="fill:none;stroke:#000000;"/>
    <path clip-path="url(#pa15a661b9e)" d="M 20.937265 216.478336 
L 196.371826 216.478333 
" style="fill:none;stroke:#000000;"/>
    <path clip-path="url(#pa15a661b9e)" d="M 34.037776 240.789319 
L 54.442303 260.082627 
" style="fill:none;stroke:#000000;"/>
    <path clip-path="url(#pa15a661b9e)" d="M 80.153462 272.469674 
L 137.155629 272.469674 
" style="fill:none;stroke:#000000;"/>
    <path clip-path="url(#pa15a661b9e)" d="M 108.654547 276.737968 
L 196.371826 216.478333 
" style="fill:none;stroke:#000000;"/>
    <path clip-path="url(#pa15a661b9e)" d="M 183.271315 240.789319 
L 196.371826 216.478333 
" style="fill:none;stroke:#000000;"/>
   </g>
   <g id="PathCollection_1">
    <defs>
     <path d="M 0 8.660254 
C 2.296726 8.660254 4.499694 7.747755 6.123724 6.123724 
C 7.747755 4.499694 8.660254 2.296726 8.660254 0 
C 8.660254 -2.296726 7.747755 -4.499694 6.123724 -6.123724 
C 4.499694 -7.747755 2.296726 -8.660254 0 -8.660254 
C -2.296726 -8.660254 -4.499694 -7.747755 -6.123724 -6.123724 
C -7.747755 -4.499694 -8.660254 -2.296726 -8.660254 0 
C -8.660254 2.296726 -7.747755 4.499694 -6.123724 6.123724 
C -4.499694 7.747755 -2.296726 8.660254 0 8.660254 
z
" id="C0_0_f7c8944a2c"/>
    </defs>
    <g clip-path="url(#pa15a661b9e)">
     <use style="fill:#ff0000;stroke:#ff0000;" x="200.88595" xlink:href="#C0_0_f7c8944a2c" y="189.529412"/>
    </g>
    <g clip-path="url(#pa15a661b9e)">
     <use style="fill:#0000ff;stroke:#0000ff;" x="196.371826" xlink:href="#C0_0_f7c8944a2c" y="162.580485"/>
    </g>
    <g clip-path="url(#pa15a661b9e)">
     <use style="fill:#0000ff;stroke:#0000ff;" x="183.27132" xlink:href="#C0_0_f7c8944a2c" y="138.269509"/>
    </g>
    <g clip-path="url(#pa15a661b9e)">
     <use style="fill:#0000ff;stroke:#0000ff;" x="162.866804" xlink:href="#C0_0_f7c8944a2c" y="118.976207"/>
    </g>
    <g clip-path="url(#pa15a661b9e)">
     <use style="fill:#0000ff;stroke:#0000ff;" x="137.155615" xlink:href="#C0_0_f7c8944a2c" y="106.589144"/>
    </g>
    <g clip-path="url(#pa15a661b9e)">
     <use style="fill:#0000ff;stroke:#0000ff;" x="108.654541" xlink:href="#C0_0_f7c8944a2c" y="102.320856"/>
    </g>
    <g clip-path="url(#pa15a661b9e)">
     <use style="fill:#0000ff;stroke:#0000ff;" x="80.15347" xlink:href="#C0_0_f7c8944a2c" y="106.589149"/>
    </g>
    <g clip-path="url(#pa15a661b9e)">
     <use style="fill:#0000ff;stroke:#0000ff;" x="54.442287" xlink:href="#C0_0_f7c8944a2c" y="118.976207"/>
    </g>
    <g clip-path="url(#pa15a661b9e)">
     <use style="fill:#0000ff;stroke:#0000ff;" x="34.037771" xlink:href="#C0_0_f7c8944a2c" y="138.269509"/>
    </g>
    <g clip-path="url(#pa15a661b9e)">
     <use style="fill:#0000ff;stroke:#0000ff;" x="20.93727" xlink:href="#C0_0_f7c8944a2c" y="162.580483"/>
    </g>
    <g clip-path="url(#pa15a661b9e)">
     <use style="fill:#0000ff;stroke:#0000ff;" x="16.42314" xlink:href="#C0_0_f7c8944a2c" y="189.529419"/>
    </g>
    <g clip-path="url(#pa15a661b9e)">
     <use style="fill:#0000ff;stroke:#0000ff;" x="20.937265" xlink:href="#C0_0_f7c8944a2c" y="216.478336"/>
    </g>
    <g clip-path="url(#pa15a661b9e)">
     <use style="fill:#0000ff;stroke:#0000ff;" x="34.037776" xlink:href="#C0_0_f7c8944a2c" y="240.789319"/>
    </g>
    <g clip-path="url(#pa15a661b9e)">
     <use style="fill:#0000ff;stroke:#0000ff;" x="54.442303" xlink:href="#C0_0_f7c8944a2c" y="260.082627"/>
    </g>
    <g clip-path="url(#pa15a661b9e)">
     <use style="fill:#0000ff;stroke:#0000ff;" x="80.153462" xlink:href="#C0_0_f7c8944a2c" y="272.469674"/>
    </g>
    <g clip-path="url(#pa15a661b9e)">
     <use style="fill:#0000ff;stroke:#0000ff;" x="108.654547" xlink:href="#C0_0_f7c8944a2c" y="276.737968"/>
    </g>
    <g clip-path="url(#pa15a661b9e)">
     <use style="fill:#0000ff;stroke:#0000ff;" x="137.155629" xlink:href="#C0_0_f7c8944a2c" y="272.469674"/>
    </g>
    <g clip-path="url(#pa15a661b9e)">
     <use style="fill:#0000ff;stroke:#0000ff;" x="162.866788" xlink:href="#C0_0_f7c8944a2c" y="260.082627"/>
    </g>
    <g clip-path="url(#pa15a661b9e)">
     <use style="fill:#0000ff;stroke:#0000ff;" x="183.271315" xlink:href="#C0_0_f7c8944a2c" y="240.789319"/>
    </g>
    <g clip-path="url(#pa15a661b9e)">
     <use style="fill:#0000ff;stroke:#0000ff;" x="196.371826" xlink:href="#C0_0_f7c8944a2c" y="216.478333"/>
    </g>
   </g>
   <g id="text_1">
    <!-- $t = 0, [I] = 1$ -->
    <defs>
     <path d="M 42.28125 54.6875 
L 40.921875 47.703125 
L 23 47.703125 
L 17.1875 18.015625 
Q 16.890625 16.359375 16.75 15.234375 
Q 16.609375 14.109375 16.609375 13.484375 
Q 16.609375 10.359375 18.484375 8.9375 
Q 20.359375 7.515625 24.515625 7.515625 
L 33.59375 7.515625 
L 32.078125 0 
L 23.484375 0 
Q 15.484375 0 11.546875 3.125 
Q 7.625 6.25 7.625 12.59375 
Q 7.625 13.71875 7.765625 15.0625 
Q 7.90625 16.40625 8.203125 18.015625 
L 14.015625 47.703125 
L 6.390625 47.703125 
L 7.8125 54.6875 
L 15.28125 54.6875 
L 18.3125 70.21875 
L 27.296875 70.21875 
L 24.3125 54.6875 
z
" id="DejaVuSans-Oblique-116"/>
     <path d="M 10.59375 45.40625 
L 73.1875 45.40625 
L 73.1875 37.203125 
L 10.59375 37.203125 
z
M 10.59375 25.484375 
L 73.1875 25.484375 
L 73.1875 17.1875 
L 10.59375 17.1875 
z
" id="DejaVuSans-61"/>
     <path d="M 31.78125 66.40625 
Q 24.171875 66.40625 20.328125 58.90625 
Q 16.5 51.421875 16.5 36.375 
Q 16.5 21.390625 20.328125 13.890625 
Q 24.171875 6.390625 31.78125 6.390625 
Q 39.453125 6.390625 43.28125 13.890625 
Q 47.125 21.390625 47.125 36.375 
Q 47.125 51.421875 43.28125 58.90625 
Q 39.453125 66.40625 31.78125 66.40625 
z
M 31.78125 74.21875 
Q 44.046875 74.21875 50.515625 64.515625 
Q 56.984375 54.828125 56.984375 36.375 
Q 56.984375 17.96875 50.515625 8.265625 
Q 44.046875 -1.421875 31.78125 -1.421875 
Q 19.53125 -1.421875 13.0625 8.265625 
Q 6.59375 17.96875 6.59375 36.375 
Q 6.59375 54.828125 13.0625 64.515625 
Q 19.53125 74.21875 31.78125 74.21875 
z
" id="DejaVuSans-48"/>
     <path d="M 11.71875 12.40625 
L 22.015625 12.40625 
L 22.015625 4 
L 14.015625 -11.625 
L 7.71875 -11.625 
L 11.71875 4 
z
" id="DejaVuSans-44"/>
     <path d="M 8.59375 75.984375 
L 29.296875 75.984375 
L 29.296875 69 
L 17.578125 69 
L 17.578125 -6.203125 
L 29.296875 -6.203125 
L 29.296875 -13.1875 
L 8.59375 -13.1875 
z
" id="DejaVuSans-91"/>
     <path d="M 16.890625 72.90625 
L 26.8125 72.90625 
L 12.59375 0 
L 2.6875 0 
z
" id="DejaVuSans-Oblique-73"/>
     <path d="M 30.421875 75.984375 
L 30.421875 -13.1875 
L 9.71875 -13.1875 
L 9.71875 -6.203125 
L 21.390625 -6.203125 
L 21.390625 69 
L 9.71875 69 
L 9.71875 75.984375 
z
" id="DejaVuSans-93"/>
     <path d="M 12.40625 8.296875 
L 28.515625 8.296875 
L 28.515625 63.921875 
L 10.984375 60.40625 
L 10.984375 69.390625 
L 28.421875 72.90625 
L 38.28125 72.90625 
L 38.28125 8.296875 
L 54.390625 8.296875 
L 54.390625 0 
L 12.40625 0 
z
" id="DejaVuSans-49"/>
    </defs>
    <g transform="translate(74.394545 87.6)scale(0.12 -0.12)">
     <use transform="translate(0 0.015625)" xlink:href="#DejaVuSans-Oblique-116"/>
     <use transform="translate(58.691406 0.015625)" xlink:href="#DejaVuSans-61"/>
     <use transform="translate(161.962891 0.015625)" xlink:href="#DejaVuSans-48"/>
     <use transform="translate(225.585938 0.015625)" xlink:href="#DejaVuSans-44"/>
     <use transform="translate(276.855469 0.015625)" xlink:href="#DejaVuSans-91"/>
     <use transform="translate(315.869141 0.015625)" xlink:href="#DejaVuSans-Oblique-73"/>
     <use transform="translate(345.361328 0.015625)" xlink:href="#DejaVuSans-93"/>
     <use transform="translate(403.857422 0.015625)" xlink:href="#DejaVuSans-61"/>
     <use transform="translate(507.128906 0.015625)" xlink:href="#DejaVuSans-49"/>
    </g>
   </g>
  </g>
  <g id="axes_2">
   <g id="LineCollection_2">
    <path clip-path="url(#pc868cd1792)" d="M 444.37686 189.529412 
L 406.357713 118.976207 
" style="fill:none;stroke:#ff0000;"/>
    <path clip-path="url(#pc868cd1792)" d="M 444.37686 189.529412 
L 323.644379 106.589149 
" style="fill:none;stroke:#000000;"/>
    <path clip-path="url(#pc868cd1792)" d="M 444.37686 189.529412 
L 297.933212 260.082627 
" style="fill:none;stroke:#000000;"/>
    <path clip-path="url(#pc868cd1792)" d="M 439.862735 162.580485 
L 406.357713 118.976207 
" style="fill:none;stroke:#000000;"/>
    <path clip-path="url(#pc868cd1792)" d="M 439.862735 162.580485 
L 264.428174 216.478336 
" style="fill:none;stroke:#000000;"/>
    <path clip-path="url(#pc868cd1792)" d="M 439.862735 162.580485 
L 323.644371 272.469674 
" style="fill:none;stroke:#000000;"/>
    <path clip-path="url(#pc868cd1792)" d="M 426.762229 138.269509 
L 264.428179 162.580483 
" style="fill:none;stroke:#000000;"/>
    <path clip-path="url(#pc868cd1792)" d="M 426.762229 138.269509 
L 352.145456 276.737968 
" style="fill:none;stroke:#000000;"/>
    <path clip-path="url(#pc868cd1792)" d="M 406.357713 118.976207 
L 264.428179 162.580483 
" style="fill:none;stroke:#000000;"/>
    <path clip-path="url(#pc868cd1792)" d="M 406.357713 118.976207 
L 259.91405 189.529419 
" style="fill:none;stroke:#000000;"/>
    <path clip-path="url(#pc868cd1792)" d="M 406.357713 118.976207 
L 297.933212 260.082627 
" style="fill:none;stroke:#000000;"/>
    <path clip-path="url(#pc868cd1792)" d="M 406.357713 118.976207 
L 352.145456 276.737968 
" style="fill:none;stroke:#000000;"/>
    <path clip-path="url(#pc868cd1792)" d="M 406.357713 118.976207 
L 380.646538 272.469674 
" style="fill:none;stroke:#000000;"/>
    <path clip-path="url(#pc868cd1792)" d="M 406.357713 118.976207 
L 426.762224 240.789319 
" style="fill:none;stroke:#000000;"/>
    <path clip-path="url(#pc868cd1792)" d="M 352.145451 102.320856 
L 323.644371 272.469674 
" style="fill:none;stroke:#000000;"/>
    <path clip-path="url(#pc868cd1792)" d="M 323.644379 106.589149 
L 264.428179 162.580483 
" style="fill:none;stroke:#000000;"/>
    <path clip-path="url(#pc868cd1792)" d="M 323.644379 106.589149 
L 259.91405 189.529419 
" style="fill:none;stroke:#000000;"/>
    <path clip-path="url(#pc868cd1792)" d="M 323.644379 106.589149 
L 297.933212 260.082627 
" style="fill:none;stroke:#000000;"/>
    <path clip-path="url(#pc868cd1792)" d="M 323.644379 106.589149 
L 352.145456 276.737968 
" style="fill:none;stroke:#000000;"/>
    <path clip-path="url(#pc868cd1792)" d="M 323.644379 106.589149 
L 380.646538 272.469674 
" style="fill:none;stroke:#000000;"/>
    <path clip-path="url(#pc868cd1792)" d="M 323.644379 106.589149 
L 439.862735 216.478333 
" style="fill:none;stroke:#000000;"/>
    <path clip-path="url(#pc868cd1792)" d="M 297.933196 118.976207 
L 264.428174 216.478336 
" style="fill:none;stroke:#000000;"/>
    <path clip-path="url(#pc868cd1792)" d="M 297.933196 118.976207 
L 380.646538 272.469674 
" style="fill:none;stroke:#000000;"/>
    <path clip-path="url(#pc868cd1792)" d="M 277.52868 138.269509 
L 380.646538 272.469674 
" style="fill:none;stroke:#000000;"/>
    <path clip-path="url(#pc868cd1792)" d="M 277.52868 138.269509 
L 406.357697 260.082627 
" style="fill:none;stroke:#000000;"/>
    <path clip-path="url(#pc868cd1792)" d="M 277.52868 138.269509 
L 426.762224 240.789319 
" style="fill:none;stroke:#000000;"/>
    <path clip-path="url(#pc868cd1792)" d="M 264.428179 162.580483 
L 259.91405 189.529419 
" style="fill:none;stroke:#000000;"/>
    <path clip-path="url(#pc868cd1792)" d="M 264.428179 162.580483 
L 264.428174 216.478336 
" style="fill:none;stroke:#000000;"/>
    <path clip-path="url(#pc868cd1792)" d="M 264.428179 162.580483 
L 297.933212 260.082627 
" style="fill:none;stroke:#000000;"/>
    <path clip-path="url(#pc868cd1792)" d="M 264.428179 162.580483 
L 352.145456 276.737968 
" style="fill:none;stroke:#000000;"/>
    <path clip-path="url(#pc868cd1792)" d="M 259.91405 189.529419 
L 323.644371 272.469674 
" style="fill:none;stroke:#000000;"/>
    <path clip-path="url(#pc868cd1792)" d="M 259.91405 189.529419 
L 380.646538 272.469674 
" style="fill:none;stroke:#000000;"/>
    <path clip-path="url(#pc868cd1792)" d="M 259.91405 189.529419 
L 426.762224 240.789319 
" style="fill:none;stroke:#000000;"/>
    <path clip-path="url(#pc868cd1792)" d="M 264.428174 216.478336 
L 297.933212 260.082627 
" style="fill:none;stroke:#000000;"/>
    <path clip-path="url(#pc868cd1792)" d="M 264.428174 216.478336 
L 380.646538 272.469674 
" style="fill:none;stroke:#000000;"/>
    <path clip-path="url(#pc868cd1792)" d="M 264.428174 216.478336 
L 439.862735 216.478333 
" style="fill:none;stroke:#000000;"/>
    <path clip-path="url(#pc868cd1792)" d="M 277.528685 240.789319 
L 297.933212 260.082627 
" style="fill:none;stroke:#000000;"/>
    <path clip-path="url(#pc868cd1792)" d="M 323.644371 272.469674 
L 380.646538 272.469674 
" style="fill:none;stroke:#000000;"/>
    <path clip-path="url(#pc868cd1792)" d="M 352.145456 276.737968 
L 439.862735 216.478333 
" style="fill:none;stroke:#000000;"/>
    <path clip-path="url(#pc868cd1792)" d="M 426.762224 240.789319 
L 439.862735 216.478333 
" style="fill:none;stroke:#000000;"/>
   </g>
   <g id="PathCollection_2">
    <defs>
     <path d="M 0 8.660254 
C 2.296726 8.660254 4.499694 7.747755 6.123724 6.123724 
C 7.747755 4.499694 8.660254 2.296726 8.660254 0 
C 8.660254 -2.296726 7.747755 -4.499694 6.123724 -6.123724 
C 4.499694 -7.747755 2.296726 -8.660254 0 -8.660254 
C -2.296726 -8.660254 -4.499694 -7.747755 -6.123724 -6.123724 
C -7.747755 -4.499694 -8.660254 -2.296726 -8.660254 0 
C -8.660254 2.296726 -7.747755 4.499694 -6.123724 6.123724 
C -4.499694 7.747755 -2.296726 8.660254 0 8.660254 
z
" id="C1_0_352fb1ddf7"/>
    </defs>
    <g clip-path="url(#pc868cd1792)">
     <use style="fill:#ff0000;stroke:#ff0000;" x="444.37686" xlink:href="#C1_0_352fb1ddf7" y="189.529412"/>
    </g>
    <g clip-path="url(#pc868cd1792)">
     <use style="fill:#0000ff;stroke:#0000ff;" x="439.862735" xlink:href="#C1_0_352fb1ddf7" y="162.580485"/>
    </g>
    <g clip-path="url(#pc868cd1792)">
     <use style="fill:#0000ff;stroke:#0000ff;" x="426.762229" xlink:href="#C1_0_352fb1ddf7" y="138.269509"/>
    </g>
    <g clip-path="url(#pc868cd1792)">
     <use style="fill:#ff0000;stroke:#ff0000;" x="406.357713" xlink:href="#C1_0_352fb1ddf7" y="118.976207"/>
    </g>
    <g clip-path="url(#pc868cd1792)">
     <use style="fill:#0000ff;stroke:#0000ff;" x="380.646524" xlink:href="#C1_0_352fb1ddf7" y="106.589144"/>
    </g>
    <g clip-path="url(#pc868cd1792)">
     <use style="fill:#0000ff;stroke:#0000ff;" x="352.145451" xlink:href="#C1_0_352fb1ddf7" y="102.320856"/>
    </g>
    <g clip-path="url(#pc868cd1792)">
     <use style="fill:#0000ff;stroke:#0000ff;" x="323.644379" xlink:href="#C1_0_352fb1ddf7" y="106.589149"/>
    </g>
    <g clip-path="url(#pc868cd1792)">
     <use style="fill:#0000ff;stroke:#0000ff;" x="297.933196" xlink:href="#C1_0_352fb1ddf7" y="118.976207"/>
    </g>
    <g clip-path="url(#pc868cd1792)">
     <use style="fill:#0000ff;stroke:#0000ff;" x="277.52868" xlink:href="#C1_0_352fb1ddf7" y="138.269509"/>
    </g>
    <g clip-path="url(#pc868cd1792)">
     <use style="fill:#0000ff;stroke:#0000ff;" x="264.428179" xlink:href="#C1_0_352fb1ddf7" y="162.580483"/>
    </g>
    <g clip-path="url(#pc868cd1792)">
     <use style="fill:#0000ff;stroke:#0000ff;" x="259.91405" xlink:href="#C1_0_352fb1ddf7" y="189.529419"/>
    </g>
    <g clip-path="url(#pc868cd1792)">
     <use style="fill:#0000ff;stroke:#0000ff;" x="264.428174" xlink:href="#C1_0_352fb1ddf7" y="216.478336"/>
    </g>
    <g clip-path="url(#pc868cd1792)">
     <use style="fill:#0000ff;stroke:#0000ff;" x="277.528685" xlink:href="#C1_0_352fb1ddf7" y="240.789319"/>
    </g>
    <g clip-path="url(#pc868cd1792)">
     <use style="fill:#0000ff;stroke:#0000ff;" x="297.933212" xlink:href="#C1_0_352fb1ddf7" y="260.082627"/>
    </g>
    <g clip-path="url(#pc868cd1792)">
     <use style="fill:#0000ff;stroke:#0000ff;" x="323.644371" xlink:href="#C1_0_352fb1ddf7" y="272.469674"/>
    </g>
    <g clip-path="url(#pc868cd1792)">
     <use style="fill:#0000ff;stroke:#0000ff;" x="352.145456" xlink:href="#C1_0_352fb1ddf7" y="276.737968"/>
    </g>
    <g clip-path="url(#pc868cd1792)">
     <use style="fill:#0000ff;stroke:#0000ff;" x="380.646538" xlink:href="#C1_0_352fb1ddf7" y="272.469674"/>
    </g>
    <g clip-path="url(#pc868cd1792)">
     <use style="fill:#0000ff;stroke:#0000ff;" x="406.357697" xlink:href="#C1_0_352fb1ddf7" y="260.082627"/>
    </g>
    <g clip-path="url(#pc868cd1792)">
     <use style="fill:#0000ff;stroke:#0000ff;" x="426.762224" xlink:href="#C1_0_352fb1ddf7" y="240.789319"/>
    </g>
    <g clip-path="url(#pc868cd1792)">
     <use style="fill:#0000ff;stroke:#0000ff;" x="439.862735" xlink:href="#C1_0_352fb1ddf7" y="216.478333"/>
    </g>
   </g>
   <g id="text_2">
    <!-- $t = 1, [I] = 2$ -->
    <defs>
     <path d="M 19.1875 8.296875 
L 53.609375 8.296875 
L 53.609375 0 
L 7.328125 0 
L 7.328125 8.296875 
Q 12.9375 14.109375 22.625 23.890625 
Q 32.328125 33.6875 34.8125 36.53125 
Q 39.546875 41.84375 41.421875 45.53125 
Q 43.3125 49.21875 43.3125 52.78125 
Q 43.3125 58.59375 39.234375 62.25 
Q 35.15625 65.921875 28.609375 65.921875 
Q 23.96875 65.921875 18.8125 64.3125 
Q 13.671875 62.703125 7.8125 59.421875 
L 7.8125 69.390625 
Q 13.765625 71.78125 18.9375 73 
Q 24.125 74.21875 28.421875 74.21875 
Q 39.75 74.21875 46.484375 68.546875 
Q 53.21875 62.890625 53.21875 53.421875 
Q 53.21875 48.921875 51.53125 44.890625 
Q 49.859375 40.875 45.40625 35.40625 
Q 44.1875 33.984375 37.640625 27.21875 
Q 31.109375 20.453125 19.1875 8.296875 
z
" id="DejaVuSans-50"/>
    </defs>
    <g transform="translate(317.885455 87.6)scale(0.12 -0.12)">
     <use transform="translate(0 0.015625)" xlink:href="#DejaVuSans-Oblique-116"/>
     <use transform="translate(58.691406 0.015625)" xlink:href="#DejaVuSans-61"/>
     <use transform="translate(161.962891 0.015625)" xlink:href="#DejaVuSans-49"/>
     <use transform="translate(225.585938 0.015625)" xlink:href="#DejaVuSans-44"/>
     <use transform="translate(276.855469 0.015625)" xlink:href="#DejaVuSans-91"/>
     <use transform="translate(315.869141 0.015625)" xlink:href="#DejaVuSans-Oblique-73"/>
     <use transform="translate(345.361328 0.015625)" xlink:href="#DejaVuSans-93"/>
     <use transform="translate(403.857422 0.015625)" xlink:href="#DejaVuSans-61"/>
     <use transform="translate(507.128906 0.015625)" xlink:href="#DejaVuSans-50"/>
    </g>
   </g>
  </g>
  <g id="axes_3">
   <g id="LineCollection_3">
    <path clip-path="url(#p242557b947)" d="M 200.88595 419.76 
L 162.866804 349.206795 
" style="fill:none;stroke:#ff0000;"/>
    <path clip-path="url(#p242557b947)" d="M 200.88595 419.76 
L 80.15347 336.819738 
" style="fill:none;stroke:#000000;"/>
    <path clip-path="url(#p242557b947)" d="M 200.88595 419.76 
L 54.442303 490.313215 
" style="fill:none;stroke:#ff0000;"/>
    <path clip-path="url(#p242557b947)" d="M 196.371826 392.811073 
L 162.866804 349.206795 
" style="fill:none;stroke:#000000;"/>
    <path clip-path="url(#p242557b947)" d="M 196.371826 392.811073 
L 20.937265 446.708924 
" style="fill:none;stroke:#000000;"/>
    <path clip-path="url(#p242557b947)" d="M 196.371826 392.811073 
L 80.153462 502.700262 
" style="fill:none;stroke:#000000;"/>
    <path clip-path="url(#p242557b947)" d="M 183.27132 368.500098 
L 20.93727 392.811071 
" style="fill:none;stroke:#000000;"/>
    <path clip-path="url(#p242557b947)" d="M 183.27132 368.500098 
L 108.654547 506.968556 
" style="fill:none;stroke:#000000;"/>
    <path clip-path="url(#p242557b947)" d="M 162.866804 349.206795 
L 20.93727 392.811071 
" style="fill:none;stroke:#000000;"/>
    <path clip-path="url(#p242557b947)" d="M 162.866804 349.206795 
L 16.42314 419.760008 
" style="fill:none;stroke:#ff0000;"/>
    <path clip-path="url(#p242557b947)" d="M 162.866804 349.206795 
L 54.442303 490.313215 
" style="fill:none;stroke:#000000;"/>
    <path clip-path="url(#p242557b947)" d="M 162.866804 349.206795 
L 108.654547 506.968556 
" style="fill:none;stroke:#000000;"/>
    <path clip-path="url(#p242557b947)" d="M 162.866804 349.206795 
L 137.155629 502.700262 
" style="fill:none;stroke:#000000;"/>
    <path clip-path="url(#p242557b947)" d="M 162.866804 349.206795 
L 183.271315 471.019908 
" style="fill:none;stroke:#000000;"/>
    <path clip-path="url(#p242557b947)" d="M 108.654541 332.551444 
L 80.153462 502.700262 
" style="fill:none;stroke:#000000;"/>
    <path clip-path="url(#p242557b947)" d="M 80.15347 336.819738 
L 20.93727 392.811071 
" style="fill:none;stroke:#000000;"/>
    <path clip-path="url(#p242557b947)" d="M 80.15347 336.819738 
L 16.42314 419.760008 
" style="fill:none;stroke:#000000;"/>
    <path clip-path="url(#p242557b947)" d="M 80.15347 336.819738 
L 54.442303 490.313215 
" style="fill:none;stroke:#000000;"/>
    <path clip-path="url(#p242557b947)" d="M 80.15347 336.819738 
L 108.654547 506.968556 
" style="fill:none;stroke:#000000;"/>
    <path clip-path="url(#p242557b947)" d="M 80.15347 336.819738 
L 137.155629 502.700262 
" style="fill:none;stroke:#000000;"/>
    <path clip-path="url(#p242557b947)" d="M 80.15347 336.819738 
L 196.371826 446.708921 
" style="fill:none;stroke:#000000;"/>
    <path clip-path="url(#p242557b947)" d="M 54.442287 349.206795 
L 20.937265 446.708924 
" style="fill:none;stroke:#000000;"/>
    <path clip-path="url(#p242557b947)" d="M 54.442287 349.206795 
L 137.155629 502.700262 
" style="fill:none;stroke:#000000;"/>
    <path clip-path="url(#p242557b947)" d="M 34.037771 368.500098 
L 137.155629 502.700262 
" style="fill:none;stroke:#000000;"/>
    <path clip-path="url(#p242557b947)" d="M 34.037771 368.500098 
L 162.866788 490.313215 
" style="fill:none;stroke:#000000;"/>
    <path clip-path="url(#p242557b947)" d="M 34.037771 368.500098 
L 183.271315 471.019908 
" style="fill:none;stroke:#000000;"/>
    <path clip-path="url(#p242557b947)" d="M 20.93727 392.811071 
L 16.42314 419.760008 
" style="fill:none;stroke:#000000;"/>
    <path clip-path="url(#p242557b947)" d="M 20.93727 392.811071 
L 20.937265 446.708924 
" style="fill:none;stroke:#000000;"/>
    <path clip-path="url(#p242557b947)" d="M 20.93727 392.811071 
L 54.442303 490.313215 
" style="fill:none;stroke:#000000;"/>
    <path clip-path="url(#p242557b947)" d="M 20.93727 392.811071 
L 108.654547 506.968556 
" style="fill:none;stroke:#000000;"/>
    <path clip-path="url(#p242557b947)" d="M 16.42314 419.760008 
L 80.153462 502.700262 
" style="fill:none;stroke:#000000;"/>
    <path clip-path="url(#p242557b947)" d="M 16.42314 419.760008 
L 137.155629 502.700262 
" style="fill:none;stroke:#000000;"/>
    <path clip-path="url(#p242557b947)" d="M 16.42314 419.760008 
L 183.271315 471.019908 
" style="fill:none;stroke:#000000;"/>
    <path clip-path="url(#p242557b947)" d="M 20.937265 446.708924 
L 54.442303 490.313215 
" style="fill:none;stroke:#000000;"/>
    <path clip-path="url(#p242557b947)" d="M 20.937265 446.708924 
L 137.155629 502.700262 
" style="fill:none;stroke:#000000;"/>
    <path clip-path="url(#p242557b947)" d="M 20.937265 446.708924 
L 196.371826 446.708921 
" style="fill:none;stroke:#000000;"/>
    <path clip-path="url(#p242557b947)" d="M 34.037776 471.019908 
L 54.442303 490.313215 
" style="fill:none;stroke:#000000;"/>
    <path clip-path="url(#p242557b947)" d="M 80.153462 502.700262 
L 137.155629 502.700262 
" style="fill:none;stroke:#000000;"/>
    <path clip-path="url(#p242557b947)" d="M 108.654547 506.968556 
L 196.371826 446.708921 
" style="fill:none;stroke:#000000;"/>
    <path clip-path="url(#p242557b947)" d="M 183.271315 471.019908 
L 196.371826 446.708921 
" style="fill:none;stroke:#000000;"/>
   </g>
   <g id="PathCollection_3">
    <defs>
     <path d="M 0 8.660254 
C 2.296726 8.660254 4.499694 7.747755 6.123724 6.123724 
C 7.747755 4.499694 8.660254 2.296726 8.660254 0 
C 8.660254 -2.296726 7.747755 -4.499694 6.123724 -6.123724 
C 4.499694 -7.747755 2.296726 -8.660254 0 -8.660254 
C -2.296726 -8.660254 -4.499694 -7.747755 -6.123724 -6.123724 
C -7.747755 -4.499694 -8.660254 -2.296726 -8.660254 0 
C -8.660254 2.296726 -7.747755 4.499694 -6.123724 6.123724 
C -4.499694 7.747755 -2.296726 8.660254 0 8.660254 
z
" id="C2_0_5964a54665"/>
    </defs>
    <g clip-path="url(#p242557b947)">
     <use style="fill:#ff0000;stroke:#ff0000;" x="200.88595" xlink:href="#C2_0_5964a54665" y="419.76"/>
    </g>
    <g clip-path="url(#p242557b947)">
     <use style="fill:#0000ff;stroke:#0000ff;" x="196.371826" xlink:href="#C2_0_5964a54665" y="392.811073"/>
    </g>
    <g clip-path="url(#p242557b947)">
     <use style="fill:#0000ff;stroke:#0000ff;" x="183.27132" xlink:href="#C2_0_5964a54665" y="368.500098"/>
    </g>
    <g clip-path="url(#p242557b947)">
     <use style="fill:#ff0000;stroke:#ff0000;" x="162.866804" xlink:href="#C2_0_5964a54665" y="349.206795"/>
    </g>
    <g clip-path="url(#p242557b947)">
     <use style="fill:#0000ff;stroke:#0000ff;" x="137.155615" xlink:href="#C2_0_5964a54665" y="336.819732"/>
    </g>
    <g clip-path="url(#p242557b947)">
     <use style="fill:#0000ff;stroke:#0000ff;" x="108.654541" xlink:href="#C2_0_5964a54665" y="332.551444"/>
    </g>
    <g clip-path="url(#p242557b947)">
     <use style="fill:#0000ff;stroke:#0000ff;" x="80.15347" xlink:href="#C2_0_5964a54665" y="336.819738"/>
    </g>
    <g clip-path="url(#p242557b947)">
     <use style="fill:#0000ff;stroke:#0000ff;" x="54.442287" xlink:href="#C2_0_5964a54665" y="349.206795"/>
    </g>
    <g clip-path="url(#p242557b947)">
     <use style="fill:#0000ff;stroke:#0000ff;" x="34.037771" xlink:href="#C2_0_5964a54665" y="368.500098"/>
    </g>
    <g clip-path="url(#p242557b947)">
     <use style="fill:#0000ff;stroke:#0000ff;" x="20.93727" xlink:href="#C2_0_5964a54665" y="392.811071"/>
    </g>
    <g clip-path="url(#p242557b947)">
     <use style="fill:#ff0000;stroke:#ff0000;" x="16.42314" xlink:href="#C2_0_5964a54665" y="419.760008"/>
    </g>
    <g clip-path="url(#p242557b947)">
     <use style="fill:#0000ff;stroke:#0000ff;" x="20.937265" xlink:href="#C2_0_5964a54665" y="446.708924"/>
    </g>
    <g clip-path="url(#p242557b947)">
     <use style="fill:#0000ff;stroke:#0000ff;" x="34.037776" xlink:href="#C2_0_5964a54665" y="471.019908"/>
    </g>
    <g clip-path="url(#p242557b947)">
     <use style="fill:#ff0000;stroke:#ff0000;" x="54.442303" xlink:href="#C2_0_5964a54665" y="490.313215"/>
    </g>
    <g clip-path="url(#p242557b947)">
     <use style="fill:#0000ff;stroke:#0000ff;" x="80.153462" xlink:href="#C2_0_5964a54665" y="502.700262"/>
    </g>
    <g clip-path="url(#p242557b947)">
     <use style="fill:#0000ff;stroke:#0000ff;" x="108.654547" xlink:href="#C2_0_5964a54665" y="506.968556"/>
    </g>
    <g clip-path="url(#p242557b947)">
     <use style="fill:#0000ff;stroke:#0000ff;" x="137.155629" xlink:href="#C2_0_5964a54665" y="502.700262"/>
    </g>
    <g clip-path="url(#p242557b947)">
     <use style="fill:#0000ff;stroke:#0000ff;" x="162.866788" xlink:href="#C2_0_5964a54665" y="490.313215"/>
    </g>
    <g clip-path="url(#p242557b947)">
     <use style="fill:#0000ff;stroke:#0000ff;" x="183.271315" xlink:href="#C2_0_5964a54665" y="471.019908"/>
    </g>
    <g clip-path="url(#p242557b947)">
     <use style="fill:#0000ff;stroke:#0000ff;" x="196.371826" xlink:href="#C2_0_5964a54665" y="446.708921"/>
    </g>
   </g>
   <g id="text_3">
    <!-- $t = 2, [I] = 4$ -->
    <defs>
     <path d="M 37.796875 64.3125 
L 12.890625 25.390625 
L 37.796875 25.390625 
z
M 35.203125 72.90625 
L 47.609375 72.90625 
L 47.609375 25.390625 
L 58.015625 25.390625 
L 58.015625 17.1875 
L 47.609375 17.1875 
L 47.609375 0 
L 37.796875 0 
L 37.796875 17.1875 
L 4.890625 17.1875 
L 4.890625 26.703125 
z
" id="DejaVuSans-52"/>
    </defs>
    <g transform="translate(74.394545 317.830588)scale(0.12 -0.12)">
     <use transform="translate(0 0.015625)" xlink:href="#DejaVuSans-Oblique-116"/>
     <use transform="translate(58.691406 0.015625)" xlink:href="#DejaVuSans-61"/>
     <use transform="translate(161.962891 0.015625)" xlink:href="#DejaVuSans-50"/>
     <use transform="translate(225.585938 0.015625)" xlink:href="#DejaVuSans-44"/>
     <use transform="translate(276.855469 0.015625)" xlink:href="#DejaVuSans-91"/>
     <use transform="translate(315.869141 0.015625)" xlink:href="#DejaVuSans-Oblique-73"/>
     <use transform="translate(345.361328 0.015625)" xlink:href="#DejaVuSans-93"/>
     <use transform="translate(403.857422 0.015625)" xlink:href="#DejaVuSans-61"/>
     <use transform="translate(507.128906 0.015625)" xlink:href="#DejaVuSans-52"/>
    </g>
   </g>
  </g>
  <g id="axes_4">
   <g id="LineCollection_4">
    <path clip-path="url(#p894736ed44)" d="M 444.37686 419.76 
L 406.357713 349.206795 
" style="fill:none;stroke:#ff0000;"/>
    <path clip-path="url(#p894736ed44)" d="M 444.37686 419.76 
L 323.644379 336.819738 
" style="fill:none;stroke:#000000;"/>
    <path clip-path="url(#p894736ed44)" d="M 444.37686 419.76 
L 297.933212 490.313215 
" style="fill:none;stroke:#ff0000;"/>
    <path clip-path="url(#p894736ed44)" d="M 439.862735 392.811073 
L 406.357713 349.206795 
" style="fill:none;stroke:#000000;"/>
    <path clip-path="url(#p894736ed44)" d="M 439.862735 392.811073 
L 264.428174 446.708924 
" style="fill:none;stroke:#000000;"/>
    <path clip-path="url(#p894736ed44)" d="M 439.862735 392.811073 
L 323.644371 502.700262 
" style="fill:none;stroke:#000000;"/>
    <path clip-path="url(#p894736ed44)" d="M 426.762229 368.500098 
L 264.428179 392.811071 
" style="fill:none;stroke:#000000;"/>
    <path clip-path="url(#p894736ed44)" d="M 426.762229 368.500098 
L 352.145456 506.968556 
" style="fill:none;stroke:#000000;"/>
    <path clip-path="url(#p894736ed44)" d="M 406.357713 349.206795 
L 264.428179 392.811071 
" style="fill:none;stroke:#000000;"/>
    <path clip-path="url(#p894736ed44)" d="M 406.357713 349.206795 
L 259.91405 419.760008 
" style="fill:none;stroke:#ff0000;"/>
    <path clip-path="url(#p894736ed44)" d="M 406.357713 349.206795 
L 297.933212 490.313215 
" style="fill:none;stroke:#000000;"/>
    <path clip-path="url(#p894736ed44)" d="M 406.357713 349.206795 
L 352.145456 506.968556 
" style="fill:none;stroke:#000000;"/>
    <path clip-path="url(#p894736ed44)" d="M 406.357713 349.206795 
L 380.646538 502.700262 
" style="fill:none;stroke:#000000;"/>
    <path clip-path="url(#p894736ed44)" d="M 406.357713 349.206795 
L 426.762224 471.019908 
" style="fill:none;stroke:#000000;"/>
    <path clip-path="url(#p894736ed44)" d="M 352.145451 332.551444 
L 323.644371 502.700262 
" style="fill:none;stroke:#000000;"/>
    <path clip-path="url(#p894736ed44)" d="M 323.644379 336.819738 
L 264.428179 392.811071 
" style="fill:none;stroke:#000000;"/>
    <path clip-path="url(#p894736ed44)" d="M 323.644379 336.819738 
L 259.91405 419.760008 
" style="fill:none;stroke:#ff0000;"/>
    <path clip-path="url(#p894736ed44)" d="M 323.644379 336.819738 
L 297.933212 490.313215 
" style="fill:none;stroke:#000000;"/>
    <path clip-path="url(#p894736ed44)" d="M 323.644379 336.819738 
L 352.145456 506.968556 
" style="fill:none;stroke:#000000;"/>
    <path clip-path="url(#p894736ed44)" d="M 323.644379 336.819738 
L 380.646538 502.700262 
" style="fill:none;stroke:#000000;"/>
    <path clip-path="url(#p894736ed44)" d="M 323.644379 336.819738 
L 439.862735 446.708921 
" style="fill:none;stroke:#000000;"/>
    <path clip-path="url(#p894736ed44)" d="M 297.933196 349.206795 
L 264.428174 446.708924 
" style="fill:none;stroke:#000000;"/>
    <path clip-path="url(#p894736ed44)" d="M 297.933196 349.206795 
L 380.646538 502.700262 
" style="fill:none;stroke:#000000;"/>
    <path clip-path="url(#p894736ed44)" d="M 277.52868 368.500098 
L 380.646538 502.700262 
" style="fill:none;stroke:#000000;"/>
    <path clip-path="url(#p894736ed44)" d="M 277.52868 368.500098 
L 406.357697 490.313215 
" style="fill:none;stroke:#000000;"/>
    <path clip-path="url(#p894736ed44)" d="M 277.52868 368.500098 
L 426.762224 471.019908 
" style="fill:none;stroke:#000000;"/>
    <path clip-path="url(#p894736ed44)" d="M 264.428179 392.811071 
L 259.91405 419.760008 
" style="fill:none;stroke:#000000;"/>
    <path clip-path="url(#p894736ed44)" d="M 264.428179 392.811071 
L 264.428174 446.708924 
" style="fill:none;stroke:#000000;"/>
    <path clip-path="url(#p894736ed44)" d="M 264.428179 392.811071 
L 297.933212 490.313215 
" style="fill:none;stroke:#ff0000;"/>
    <path clip-path="url(#p894736ed44)" d="M 264.428179 392.811071 
L 352.145456 506.968556 
" style="fill:none;stroke:#000000;"/>
    <path clip-path="url(#p894736ed44)" d="M 259.91405 419.760008 
L 323.644371 502.700262 
" style="fill:none;stroke:#ff0000;"/>
    <path clip-path="url(#p894736ed44)" d="M 259.91405 419.760008 
L 380.646538 502.700262 
" style="fill:none;stroke:#000000;"/>
    <path clip-path="url(#p894736ed44)" d="M 259.91405 419.760008 
L 426.762224 471.019908 
" style="fill:none;stroke:#000000;"/>
    <path clip-path="url(#p894736ed44)" d="M 264.428174 446.708924 
L 297.933212 490.313215 
" style="fill:none;stroke:#000000;"/>
    <path clip-path="url(#p894736ed44)" d="M 264.428174 446.708924 
L 380.646538 502.700262 
" style="fill:none;stroke:#000000;"/>
    <path clip-path="url(#p894736ed44)" d="M 264.428174 446.708924 
L 439.862735 446.708921 
" style="fill:none;stroke:#000000;"/>
    <path clip-path="url(#p894736ed44)" d="M 277.528685 471.019908 
L 297.933212 490.313215 
" style="fill:none;stroke:#ff0000;"/>
    <path clip-path="url(#p894736ed44)" d="M 323.644371 502.700262 
L 380.646538 502.700262 
" style="fill:none;stroke:#000000;"/>
    <path clip-path="url(#p894736ed44)" d="M 352.145456 506.968556 
L 439.862735 446.708921 
" style="fill:none;stroke:#000000;"/>
    <path clip-path="url(#p894736ed44)" d="M 426.762224 471.019908 
L 439.862735 446.708921 
" style="fill:none;stroke:#000000;"/>
   </g>
   <g id="PathCollection_4">
    <defs>
     <path d="M 0 8.660254 
C 2.296726 8.660254 4.499694 7.747755 6.123724 6.123724 
C 7.747755 4.499694 8.660254 2.296726 8.660254 0 
C 8.660254 -2.296726 7.747755 -4.499694 6.123724 -6.123724 
C 4.499694 -7.747755 2.296726 -8.660254 0 -8.660254 
C -2.296726 -8.660254 -4.499694 -7.747755 -6.123724 -6.123724 
C -7.747755 -4.499694 -8.660254 -2.296726 -8.660254 0 
C -8.660254 2.296726 -7.747755 4.499694 -6.123724 6.123724 
C -4.499694 7.747755 -2.296726 8.660254 0 8.660254 
z
" id="C3_0_152b2382d4"/>
    </defs>
    <g clip-path="url(#p894736ed44)">
     <use style="fill:#ff0000;stroke:#ff0000;" x="444.37686" xlink:href="#C3_0_152b2382d4" y="419.76"/>
    </g>
    <g clip-path="url(#p894736ed44)">
     <use style="fill:#0000ff;stroke:#0000ff;" x="439.862735" xlink:href="#C3_0_152b2382d4" y="392.811073"/>
    </g>
    <g clip-path="url(#p894736ed44)">
     <use style="fill:#0000ff;stroke:#0000ff;" x="426.762229" xlink:href="#C3_0_152b2382d4" y="368.500098"/>
    </g>
    <g clip-path="url(#p894736ed44)">
     <use style="fill:#ff0000;stroke:#ff0000;" x="406.357713" xlink:href="#C3_0_152b2382d4" y="349.206795"/>
    </g>
    <g clip-path="url(#p894736ed44)">
     <use style="fill:#0000ff;stroke:#0000ff;" x="380.646524" xlink:href="#C3_0_152b2382d4" y="336.819732"/>
    </g>
    <g clip-path="url(#p894736ed44)">
     <use style="fill:#0000ff;stroke:#0000ff;" x="352.145451" xlink:href="#C3_0_152b2382d4" y="332.551444"/>
    </g>
    <g clip-path="url(#p894736ed44)">
     <use style="fill:#ff0000;stroke:#ff0000;" x="323.644379" xlink:href="#C3_0_152b2382d4" y="336.819738"/>
    </g>
    <g clip-path="url(#p894736ed44)">
     <use style="fill:#0000ff;stroke:#0000ff;" x="297.933196" xlink:href="#C3_0_152b2382d4" y="349.206795"/>
    </g>
    <g clip-path="url(#p894736ed44)">
     <use style="fill:#0000ff;stroke:#0000ff;" x="277.52868" xlink:href="#C3_0_152b2382d4" y="368.500098"/>
    </g>
    <g clip-path="url(#p894736ed44)">
     <use style="fill:#ff0000;stroke:#ff0000;" x="264.428179" xlink:href="#C3_0_152b2382d4" y="392.811071"/>
    </g>
    <g clip-path="url(#p894736ed44)">
     <use style="fill:#ff0000;stroke:#ff0000;" x="259.91405" xlink:href="#C3_0_152b2382d4" y="419.760008"/>
    </g>
    <g clip-path="url(#p894736ed44)">
     <use style="fill:#0000ff;stroke:#0000ff;" x="264.428174" xlink:href="#C3_0_152b2382d4" y="446.708924"/>
    </g>
    <g clip-path="url(#p894736ed44)">
     <use style="fill:#ff0000;stroke:#ff0000;" x="277.528685" xlink:href="#C3_0_152b2382d4" y="471.019908"/>
    </g>
    <g clip-path="url(#p894736ed44)">
     <use style="fill:#ff0000;stroke:#ff0000;" x="297.933212" xlink:href="#C3_0_152b2382d4" y="490.313215"/>
    </g>
    <g clip-path="url(#p894736ed44)">
     <use style="fill:#ff0000;stroke:#ff0000;" x="323.644371" xlink:href="#C3_0_152b2382d4" y="502.700262"/>
    </g>
    <g clip-path="url(#p894736ed44)">
     <use style="fill:#0000ff;stroke:#0000ff;" x="352.145456" xlink:href="#C3_0_152b2382d4" y="506.968556"/>
    </g>
    <g clip-path="url(#p894736ed44)">
     <use style="fill:#0000ff;stroke:#0000ff;" x="380.646538" xlink:href="#C3_0_152b2382d4" y="502.700262"/>
    </g>
    <g clip-path="url(#p894736ed44)">
     <use style="fill:#0000ff;stroke:#0000ff;" x="406.357697" xlink:href="#C3_0_152b2382d4" y="490.313215"/>
    </g>
    <g clip-path="url(#p894736ed44)">
     <use style="fill:#0000ff;stroke:#0000ff;" x="426.762224" xlink:href="#C3_0_152b2382d4" y="471.019908"/>
    </g>
    <g clip-path="url(#p894736ed44)">
     <use style="fill:#0000ff;stroke:#0000ff;" x="439.862735" xlink:href="#C3_0_152b2382d4" y="446.708921"/>
    </g>
   </g>
   <g id="text_4">
    <!-- $t = 3, [I] = 8$ -->
    <defs>
     <path d="M 40.578125 39.3125 
Q 47.65625 37.796875 51.625 33 
Q 55.609375 28.21875 55.609375 21.1875 
Q 55.609375 10.40625 48.1875 4.484375 
Q 40.765625 -1.421875 27.09375 -1.421875 
Q 22.515625 -1.421875 17.65625 -0.515625 
Q 12.796875 0.390625 7.625 2.203125 
L 7.625 11.71875 
Q 11.71875 9.328125 16.59375 8.109375 
Q 21.484375 6.890625 26.8125 6.890625 
Q 36.078125 6.890625 40.9375 10.546875 
Q 45.796875 14.203125 45.796875 21.1875 
Q 45.796875 27.640625 41.28125 31.265625 
Q 36.765625 34.90625 28.71875 34.90625 
L 20.21875 34.90625 
L 20.21875 43.015625 
L 29.109375 43.015625 
Q 36.375 43.015625 40.234375 45.921875 
Q 44.09375 48.828125 44.09375 54.296875 
Q 44.09375 59.90625 40.109375 62.90625 
Q 36.140625 65.921875 28.71875 65.921875 
Q 24.65625 65.921875 20.015625 65.03125 
Q 15.375 64.15625 9.8125 62.3125 
L 9.8125 71.09375 
Q 15.4375 72.65625 20.34375 73.4375 
Q 25.25 74.21875 29.59375 74.21875 
Q 40.828125 74.21875 47.359375 69.109375 
Q 53.90625 64.015625 53.90625 55.328125 
Q 53.90625 49.265625 50.4375 45.09375 
Q 46.96875 40.921875 40.578125 39.3125 
z
" id="DejaVuSans-51"/>
     <path d="M 31.78125 34.625 
Q 24.75 34.625 20.71875 30.859375 
Q 16.703125 27.09375 16.703125 20.515625 
Q 16.703125 13.921875 20.71875 10.15625 
Q 24.75 6.390625 31.78125 6.390625 
Q 38.8125 6.390625 42.859375 10.171875 
Q 46.921875 13.96875 46.921875 20.515625 
Q 46.921875 27.09375 42.890625 30.859375 
Q 38.875 34.625 31.78125 34.625 
z
M 21.921875 38.8125 
Q 15.578125 40.375 12.03125 44.71875 
Q 8.5 49.078125 8.5 55.328125 
Q 8.5 64.0625 14.71875 69.140625 
Q 20.953125 74.21875 31.78125 74.21875 
Q 42.671875 74.21875 48.875 69.140625 
Q 55.078125 64.0625 55.078125 55.328125 
Q 55.078125 49.078125 51.53125 44.71875 
Q 48 40.375 41.703125 38.8125 
Q 48.828125 37.15625 52.796875 32.3125 
Q 56.78125 27.484375 56.78125 20.515625 
Q 56.78125 9.90625 50.3125 4.234375 
Q 43.84375 -1.421875 31.78125 -1.421875 
Q 19.734375 -1.421875 13.25 4.234375 
Q 6.78125 9.90625 6.78125 20.515625 
Q 6.78125 27.484375 10.78125 32.3125 
Q 14.796875 37.15625 21.921875 38.8125 
z
M 18.3125 54.390625 
Q 18.3125 48.734375 21.84375 45.5625 
Q 25.390625 42.390625 31.78125 42.390625 
Q 38.140625 42.390625 41.71875 45.5625 
Q 45.3125 48.734375 45.3125 54.390625 
Q 45.3125 60.0625 41.71875 63.234375 
Q 38.140625 66.40625 31.78125 66.40625 
Q 25.390625 66.40625 21.84375 63.234375 
Q 18.3125 60.0625 18.3125 54.390625 
z
" id="DejaVuSans-56"/>
    </defs>
    <g transform="translate(317.885455 317.830588)scale(0.12 -0.12)">
     <use transform="translate(0 0.015625)" xlink:href="#DejaVuSans-Oblique-116"/>
     <use transform="translate(58.691406 0.015625)" xlink:href="#DejaVuSans-61"/>
     <use transform="translate(161.962891 0.015625)" xlink:href="#DejaVuSans-51"/>
     <use transform="translate(225.585938 0.015625)" xlink:href="#DejaVuSans-44"/>
     <use transform="translate(276.855469 0.015625)" xlink:href="#DejaVuSans-91"/>
     <use transform="translate(315.869141 0.015625)" xlink:href="#DejaVuSans-Oblique-73"/>
     <use transform="translate(345.361328 0.015625)" xlink:href="#DejaVuSans-93"/>
     <use transform="translate(403.857422 0.015625)" xlink:href="#DejaVuSans-61"/>
     <use transform="translate(507.128906 0.015625)" xlink:href="#DejaVuSans-56"/>
    </g>
   </g>
  </g>
  <g id="axes_5">
   <g id="LineCollection_5">
    <path clip-path="url(#p6b03c2ce6f)" d="M 200.88595 649.990588 
L 162.866804 579.437384 
" style="fill:none;stroke:#ff0000;"/>
    <path clip-path="url(#p6b03c2ce6f)" d="M 200.88595 649.990588 
L 80.15347 567.050326 
" style="fill:none;stroke:#000000;"/>
    <path clip-path="url(#p6b03c2ce6f)" d="M 200.88595 649.990588 
L 54.442303 720.543803 
" style="fill:none;stroke:#ff0000;"/>
    <path clip-path="url(#p6b03c2ce6f)" d="M 196.371826 623.041662 
L 162.866804 579.437384 
" style="fill:none;stroke:#ff0000;"/>
    <path clip-path="url(#p6b03c2ce6f)" d="M 196.371826 623.041662 
L 20.937265 676.939512 
" style="fill:none;stroke:#000000;"/>
    <path clip-path="url(#p6b03c2ce6f)" d="M 196.371826 623.041662 
L 80.153462 732.930851 
" style="fill:none;stroke:#000000;"/>
    <path clip-path="url(#p6b03c2ce6f)" d="M 183.27132 598.730686 
L 20.93727 623.041659 
" style="fill:none;stroke:#ff0000;"/>
    <path clip-path="url(#p6b03c2ce6f)" d="M 183.27132 598.730686 
L 108.654547 737.199144 
" style="fill:none;stroke:#000000;"/>
    <path clip-path="url(#p6b03c2ce6f)" d="M 162.866804 579.437384 
L 20.93727 623.041659 
" style="fill:none;stroke:#000000;"/>
    <path clip-path="url(#p6b03c2ce6f)" d="M 162.866804 579.437384 
L 16.42314 649.990596 
" style="fill:none;stroke:#ff0000;"/>
    <path clip-path="url(#p6b03c2ce6f)" d="M 162.866804 579.437384 
L 54.442303 720.543803 
" style="fill:none;stroke:#000000;"/>
    <path clip-path="url(#p6b03c2ce6f)" d="M 162.866804 579.437384 
L 108.654547 737.199144 
" style="fill:none;stroke:#000000;"/>
    <path clip-path="url(#p6b03c2ce6f)" d="M 162.866804 579.437384 
L 137.155629 732.930851 
" style="fill:none;stroke:#000000;"/>
    <path clip-path="url(#p6b03c2ce6f)" d="M 162.866804 579.437384 
L 183.271315 701.250496 
" style="fill:none;stroke:#ff0000;"/>
    <path clip-path="url(#p6b03c2ce6f)" d="M 108.654541 562.782032 
L 80.153462 732.930851 
" style="fill:none;stroke:#ff0000;"/>
    <path clip-path="url(#p6b03c2ce6f)" d="M 80.15347 567.050326 
L 20.93727 623.041659 
" style="fill:none;stroke:#000000;"/>
    <path clip-path="url(#p6b03c2ce6f)" d="M 80.15347 567.050326 
L 16.42314 649.990596 
" style="fill:none;stroke:#ff0000;"/>
    <path clip-path="url(#p6b03c2ce6f)" d="M 80.15347 567.050326 
L 54.442303 720.543803 
" style="fill:none;stroke:#000000;"/>
    <path clip-path="url(#p6b03c2ce6f)" d="M 80.15347 567.050326 
L 108.654547 737.199144 
" style="fill:none;stroke:#000000;"/>
    <path clip-path="url(#p6b03c2ce6f)" d="M 80.15347 567.050326 
L 137.155629 732.930851 
" style="fill:none;stroke:#000000;"/>
    <path clip-path="url(#p6b03c2ce6f)" d="M 80.15347 567.050326 
L 196.371826 676.93951 
" style="fill:none;stroke:#ff0000;"/>
    <path clip-path="url(#p6b03c2ce6f)" d="M 54.442287 579.437384 
L 20.937265 676.939512 
" style="fill:none;stroke:#000000;"/>
    <path clip-path="url(#p6b03c2ce6f)" d="M 54.442287 579.437384 
L 137.155629 732.930851 
" style="fill:none;stroke:#000000;"/>
    <path clip-path="url(#p6b03c2ce6f)" d="M 34.037771 598.730686 
L 137.155629 732.930851 
" style="fill:none;stroke:#000000;"/>
    <path clip-path="url(#p6b03c2ce6f)" d="M 34.037771 598.730686 
L 162.866788 720.543803 
" style="fill:none;stroke:#000000;"/>
    <path clip-path="url(#p6b03c2ce6f)" d="M 34.037771 598.730686 
L 183.271315 701.250496 
" style="fill:none;stroke:#000000;"/>
    <path clip-path="url(#p6b03c2ce6f)" d="M 20.93727 623.041659 
L 16.42314 649.990596 
" style="fill:none;stroke:#000000;"/>
    <path clip-path="url(#p6b03c2ce6f)" d="M 20.93727 623.041659 
L 20.937265 676.939512 
" style="fill:none;stroke:#000000;"/>
    <path clip-path="url(#p6b03c2ce6f)" d="M 20.93727 623.041659 
L 54.442303 720.543803 
" style="fill:none;stroke:#ff0000;"/>
    <path clip-path="url(#p6b03c2ce6f)" d="M 20.93727 623.041659 
L 108.654547 737.199144 
" style="fill:none;stroke:#000000;"/>
    <path clip-path="url(#p6b03c2ce6f)" d="M 16.42314 649.990596 
L 80.153462 732.930851 
" style="fill:none;stroke:#ff0000;"/>
    <path clip-path="url(#p6b03c2ce6f)" d="M 16.42314 649.990596 
L 137.155629 732.930851 
" style="fill:none;stroke:#000000;"/>
    <path clip-path="url(#p6b03c2ce6f)" d="M 16.42314 649.990596 
L 183.271315 701.250496 
" style="fill:none;stroke:#000000;"/>
    <path clip-path="url(#p6b03c2ce6f)" d="M 20.937265 676.939512 
L 54.442303 720.543803 
" style="fill:none;stroke:#000000;"/>
    <path clip-path="url(#p6b03c2ce6f)" d="M 20.937265 676.939512 
L 137.155629 732.930851 
" style="fill:none;stroke:#000000;"/>
    <path clip-path="url(#p6b03c2ce6f)" d="M 20.937265 676.939512 
L 196.371826 676.93951 
" style="fill:none;stroke:#000000;"/>
    <path clip-path="url(#p6b03c2ce6f)" d="M 34.037776 701.250496 
L 54.442303 720.543803 
" style="fill:none;stroke:#ff0000;"/>
    <path clip-path="url(#p6b03c2ce6f)" d="M 80.153462 732.930851 
L 137.155629 732.930851 
" style="fill:none;stroke:#000000;"/>
    <path clip-path="url(#p6b03c2ce6f)" d="M 108.654547 737.199144 
L 196.371826 676.93951 
" style="fill:none;stroke:#000000;"/>
    <path clip-path="url(#p6b03c2ce6f)" d="M 183.271315 701.250496 
L 196.371826 676.93951 
" style="fill:none;stroke:#000000;"/>
   </g>
   <g id="PathCollection_5">
    <defs>
     <path d="M 0 8.660254 
C 2.296726 8.660254 4.499694 7.747755 6.123724 6.123724 
C 7.747755 4.499694 8.660254 2.296726 8.660254 0 
C 8.660254 -2.296726 7.747755 -4.499694 6.123724 -6.123724 
C 4.499694 -7.747755 2.296726 -8.660254 0 -8.660254 
C -2.296726 -8.660254 -4.499694 -7.747755 -6.123724 -6.123724 
C -7.747755 -4.499694 -8.660254 -2.296726 -8.660254 0 
C -8.660254 2.296726 -7.747755 4.499694 -6.123724 6.123724 
C -4.499694 7.747755 -2.296726 8.660254 0 8.660254 
z
" id="C4_0_aac8593b73"/>
    </defs>
    <g clip-path="url(#p6b03c2ce6f)">
     <use style="fill:#ff0000;stroke:#ff0000;" x="200.88595" xlink:href="#C4_0_aac8593b73" y="649.990588"/>
    </g>
    <g clip-path="url(#p6b03c2ce6f)">
     <use style="fill:#ff0000;stroke:#ff0000;" x="196.371826" xlink:href="#C4_0_aac8593b73" y="623.041662"/>
    </g>
    <g clip-path="url(#p6b03c2ce6f)">
     <use style="fill:#ff0000;stroke:#ff0000;" x="183.27132" xlink:href="#C4_0_aac8593b73" y="598.730686"/>
    </g>
    <g clip-path="url(#p6b03c2ce6f)">
     <use style="fill:#ff0000;stroke:#ff0000;" x="162.866804" xlink:href="#C4_0_aac8593b73" y="579.437384"/>
    </g>
    <g clip-path="url(#p6b03c2ce6f)">
     <use style="fill:#0000ff;stroke:#0000ff;" x="137.155615" xlink:href="#C4_0_aac8593b73" y="567.050321"/>
    </g>
    <g clip-path="url(#p6b03c2ce6f)">
     <use style="fill:#ff0000;stroke:#ff0000;" x="108.654541" xlink:href="#C4_0_aac8593b73" y="562.782032"/>
    </g>
    <g clip-path="url(#p6b03c2ce6f)">
     <use style="fill:#ff0000;stroke:#ff0000;" x="80.15347" xlink:href="#C4_0_aac8593b73" y="567.050326"/>
    </g>
    <g clip-path="url(#p6b03c2ce6f)">
     <use style="fill:#0000ff;stroke:#0000ff;" x="54.442287" xlink:href="#C4_0_aac8593b73" y="579.437384"/>
    </g>
    <g clip-path="url(#p6b03c2ce6f)">
     <use style="fill:#0000ff;stroke:#0000ff;" x="34.037771" xlink:href="#C4_0_aac8593b73" y="598.730686"/>
    </g>
    <g clip-path="url(#p6b03c2ce6f)">
     <use style="fill:#ff0000;stroke:#ff0000;" x="20.93727" xlink:href="#C4_0_aac8593b73" y="623.041659"/>
    </g>
    <g clip-path="url(#p6b03c2ce6f)">
     <use style="fill:#ff0000;stroke:#ff0000;" x="16.42314" xlink:href="#C4_0_aac8593b73" y="649.990596"/>
    </g>
    <g clip-path="url(#p6b03c2ce6f)">
     <use style="fill:#0000ff;stroke:#0000ff;" x="20.937265" xlink:href="#C4_0_aac8593b73" y="676.939512"/>
    </g>
    <g clip-path="url(#p6b03c2ce6f)">
     <use style="fill:#ff0000;stroke:#ff0000;" x="34.037776" xlink:href="#C4_0_aac8593b73" y="701.250496"/>
    </g>
    <g clip-path="url(#p6b03c2ce6f)">
     <use style="fill:#ff0000;stroke:#ff0000;" x="54.442303" xlink:href="#C4_0_aac8593b73" y="720.543803"/>
    </g>
    <g clip-path="url(#p6b03c2ce6f)">
     <use style="fill:#ff0000;stroke:#ff0000;" x="80.153462" xlink:href="#C4_0_aac8593b73" y="732.930851"/>
    </g>
    <g clip-path="url(#p6b03c2ce6f)">
     <use style="fill:#0000ff;stroke:#0000ff;" x="108.654547" xlink:href="#C4_0_aac8593b73" y="737.199144"/>
    </g>
    <g clip-path="url(#p6b03c2ce6f)">
     <use style="fill:#0000ff;stroke:#0000ff;" x="137.155629" xlink:href="#C4_0_aac8593b73" y="732.930851"/>
    </g>
    <g clip-path="url(#p6b03c2ce6f)">
     <use style="fill:#0000ff;stroke:#0000ff;" x="162.866788" xlink:href="#C4_0_aac8593b73" y="720.543803"/>
    </g>
    <g clip-path="url(#p6b03c2ce6f)">
     <use style="fill:#ff0000;stroke:#ff0000;" x="183.271315" xlink:href="#C4_0_aac8593b73" y="701.250496"/>
    </g>
    <g clip-path="url(#p6b03c2ce6f)">
     <use style="fill:#ff0000;stroke:#ff0000;" x="196.371826" xlink:href="#C4_0_aac8593b73" y="676.93951"/>
    </g>
   </g>
   <g id="text_5">
    <!-- $t = 4, [I] = 13$ -->
    <g transform="translate(70.554545 548.061176)scale(0.12 -0.12)">
     <use transform="translate(0 0.015625)" xlink:href="#DejaVuSans-Oblique-116"/>
     <use transform="translate(58.691406 0.015625)" xlink:href="#DejaVuSans-61"/>
     <use transform="translate(161.962891 0.015625)" xlink:href="#DejaVuSans-52"/>
     <use transform="translate(225.585938 0.015625)" xlink:href="#DejaVuSans-44"/>
     <use transform="translate(276.855469 0.015625)" xlink:href="#DejaVuSans-91"/>
     <use transform="translate(315.869141 0.015625)" xlink:href="#DejaVuSans-Oblique-73"/>
     <use transform="translate(345.361328 0.015625)" xlink:href="#DejaVuSans-93"/>
     <use transform="translate(403.857422 0.015625)" xlink:href="#DejaVuSans-61"/>
     <use transform="translate(507.128906 0.015625)" xlink:href="#DejaVuSans-49"/>
     <use transform="translate(570.751953 0.015625)" xlink:href="#DejaVuSans-51"/>
    </g>
   </g>
  </g>
  <g id="axes_6">
   <g id="LineCollection_6">
    <path clip-path="url(#pd47d67bdd0)" d="M 444.37686 649.990588 
L 406.357713 579.437384 
" style="fill:none;stroke:#ff0000;"/>
    <path clip-path="url(#pd47d67bdd0)" d="M 444.37686 649.990588 
L 323.644379 567.050326 
" style="fill:none;stroke:#000000;"/>
    <path clip-path="url(#pd47d67bdd0)" d="M 444.37686 649.990588 
L 297.933212 720.543803 
" style="fill:none;stroke:#ff0000;"/>
    <path clip-path="url(#pd47d67bdd0)" d="M 439.862735 623.041662 
L 406.357713 579.437384 
" style="fill:none;stroke:#ff0000;"/>
    <path clip-path="url(#pd47d67bdd0)" d="M 439.862735 623.041662 
L 264.428174 676.939512 
" style="fill:none;stroke:#000000;"/>
    <path clip-path="url(#pd47d67bdd0)" d="M 439.862735 623.041662 
L 323.644371 732.930851 
" style="fill:none;stroke:#000000;"/>
    <path clip-path="url(#pd47d67bdd0)" d="M 426.762229 598.730686 
L 264.428179 623.041659 
" style="fill:none;stroke:#ff0000;"/>
    <path clip-path="url(#pd47d67bdd0)" d="M 426.762229 598.730686 
L 352.145456 737.199144 
" style="fill:none;stroke:#000000;"/>
    <path clip-path="url(#pd47d67bdd0)" d="M 406.357713 579.437384 
L 264.428179 623.041659 
" style="fill:none;stroke:#000000;"/>
    <path clip-path="url(#pd47d67bdd0)" d="M 406.357713 579.437384 
L 259.91405 649.990596 
" style="fill:none;stroke:#ff0000;"/>
    <path clip-path="url(#pd47d67bdd0)" d="M 406.357713 579.437384 
L 297.933212 720.543803 
" style="fill:none;stroke:#000000;"/>
    <path clip-path="url(#pd47d67bdd0)" d="M 406.357713 579.437384 
L 352.145456 737.199144 
" style="fill:none;stroke:#000000;"/>
    <path clip-path="url(#pd47d67bdd0)" d="M 406.357713 579.437384 
L 380.646538 732.930851 
" style="fill:none;stroke:#000000;"/>
    <path clip-path="url(#pd47d67bdd0)" d="M 406.357713 579.437384 
L 426.762224 701.250496 
" style="fill:none;stroke:#ff0000;"/>
    <path clip-path="url(#pd47d67bdd0)" d="M 352.145451 562.782032 
L 323.644371 732.930851 
" style="fill:none;stroke:#ff0000;"/>
    <path clip-path="url(#pd47d67bdd0)" d="M 323.644379 567.050326 
L 264.428179 623.041659 
" style="fill:none;stroke:#000000;"/>
    <path clip-path="url(#pd47d67bdd0)" d="M 323.644379 567.050326 
L 259.91405 649.990596 
" style="fill:none;stroke:#ff0000;"/>
    <path clip-path="url(#pd47d67bdd0)" d="M 323.644379 567.050326 
L 297.933212 720.543803 
" style="fill:none;stroke:#000000;"/>
    <path clip-path="url(#pd47d67bdd0)" d="M 323.644379 567.050326 
L 352.145456 737.199144 
" style="fill:none;stroke:#000000;"/>
    <path clip-path="url(#pd47d67bdd0)" d="M 323.644379 567.050326 
L 380.646538 732.930851 
" style="fill:none;stroke:#000000;"/>
    <path clip-path="url(#pd47d67bdd0)" d="M 323.644379 567.050326 
L 439.862735 676.93951 
" style="fill:none;stroke:#ff0000;"/>
    <path clip-path="url(#pd47d67bdd0)" d="M 297.933196 579.437384 
L 264.428174 676.939512 
" style="fill:none;stroke:#000000;"/>
    <path clip-path="url(#pd47d67bdd0)" d="M 297.933196 579.437384 
L 380.646538 732.930851 
" style="fill:none;stroke:#000000;"/>
    <path clip-path="url(#pd47d67bdd0)" d="M 277.52868 598.730686 
L 380.646538 732.930851 
" style="fill:none;stroke:#000000;"/>
    <path clip-path="url(#pd47d67bdd0)" d="M 277.52868 598.730686 
L 406.357697 720.543803 
" style="fill:none;stroke:#000000;"/>
    <path clip-path="url(#pd47d67bdd0)" d="M 277.52868 598.730686 
L 426.762224 701.250496 
" style="fill:none;stroke:#000000;"/>
    <path clip-path="url(#pd47d67bdd0)" d="M 264.428179 623.041659 
L 259.91405 649.990596 
" style="fill:none;stroke:#000000;"/>
    <path clip-path="url(#pd47d67bdd0)" d="M 264.428179 623.041659 
L 264.428174 676.939512 
" style="fill:none;stroke:#ff0000;"/>
    <path clip-path="url(#pd47d67bdd0)" d="M 264.428179 623.041659 
L 297.933212 720.543803 
" style="fill:none;stroke:#ff0000;"/>
    <path clip-path="url(#pd47d67bdd0)" d="M 264.428179 623.041659 
L 352.145456 737.199144 
" style="fill:none;stroke:#000000;"/>
    <path clip-path="url(#pd47d67bdd0)" d="M 259.91405 649.990596 
L 323.644371 732.930851 
" style="fill:none;stroke:#ff0000;"/>
    <path clip-path="url(#pd47d67bdd0)" d="M 259.91405 649.990596 
L 380.646538 732.930851 
" style="fill:none;stroke:#000000;"/>
    <path clip-path="url(#pd47d67bdd0)" d="M 259.91405 649.990596 
L 426.762224 701.250496 
" style="fill:none;stroke:#000000;"/>
    <path clip-path="url(#pd47d67bdd0)" d="M 264.428174 676.939512 
L 297.933212 720.543803 
" style="fill:none;stroke:#000000;"/>
    <path clip-path="url(#pd47d67bdd0)" d="M 264.428174 676.939512 
L 380.646538 732.930851 
" style="fill:none;stroke:#000000;"/>
    <path clip-path="url(#pd47d67bdd0)" d="M 264.428174 676.939512 
L 439.862735 676.93951 
" style="fill:none;stroke:#000000;"/>
    <path clip-path="url(#pd47d67bdd0)" d="M 277.528685 701.250496 
L 297.933212 720.543803 
" style="fill:none;stroke:#ff0000;"/>
    <path clip-path="url(#pd47d67bdd0)" d="M 323.644371 732.930851 
L 380.646538 732.930851 
" style="fill:none;stroke:#000000;"/>
    <path clip-path="url(#pd47d67bdd0)" d="M 352.145456 737.199144 
L 439.862735 676.93951 
" style="fill:none;stroke:#000000;"/>
    <path clip-path="url(#pd47d67bdd0)" d="M 426.762224 701.250496 
L 439.862735 676.93951 
" style="fill:none;stroke:#000000;"/>
   </g>
   <g id="PathCollection_6">
    <defs>
     <path d="M 0 8.660254 
C 2.296726 8.660254 4.499694 7.747755 6.123724 6.123724 
C 7.747755 4.499694 8.660254 2.296726 8.660254 0 
C 8.660254 -2.296726 7.747755 -4.499694 6.123724 -6.123724 
C 4.499694 -7.747755 2.296726 -8.660254 0 -8.660254 
C -2.296726 -8.660254 -4.499694 -7.747755 -6.123724 -6.123724 
C -7.747755 -4.499694 -8.660254 -2.296726 -8.660254 0 
C -8.660254 2.296726 -7.747755 4.499694 -6.123724 6.123724 
C -4.499694 7.747755 -2.296726 8.660254 0 8.660254 
z
" id="C5_0_f5d8482724"/>
    </defs>
    <g clip-path="url(#pd47d67bdd0)">
     <use style="fill:#ff0000;stroke:#ff0000;" x="444.37686" xlink:href="#C5_0_f5d8482724" y="649.990588"/>
    </g>
    <g clip-path="url(#pd47d67bdd0)">
     <use style="fill:#ff0000;stroke:#ff0000;" x="439.862735" xlink:href="#C5_0_f5d8482724" y="623.041662"/>
    </g>
    <g clip-path="url(#pd47d67bdd0)">
     <use style="fill:#ff0000;stroke:#ff0000;" x="426.762229" xlink:href="#C5_0_f5d8482724" y="598.730686"/>
    </g>
    <g clip-path="url(#pd47d67bdd0)">
     <use style="fill:#ff0000;stroke:#ff0000;" x="406.357713" xlink:href="#C5_0_f5d8482724" y="579.437384"/>
    </g>
    <g clip-path="url(#pd47d67bdd0)">
     <use style="fill:#0000ff;stroke:#0000ff;" x="380.646524" xlink:href="#C5_0_f5d8482724" y="567.050321"/>
    </g>
    <g clip-path="url(#pd47d67bdd0)">
     <use style="fill:#ff0000;stroke:#ff0000;" x="352.145451" xlink:href="#C5_0_f5d8482724" y="562.782032"/>
    </g>
    <g clip-path="url(#pd47d67bdd0)">
     <use style="fill:#ff0000;stroke:#ff0000;" x="323.644379" xlink:href="#C5_0_f5d8482724" y="567.050326"/>
    </g>
    <g clip-path="url(#pd47d67bdd0)">
     <use style="fill:#0000ff;stroke:#0000ff;" x="297.933196" xlink:href="#C5_0_f5d8482724" y="579.437384"/>
    </g>
    <g clip-path="url(#pd47d67bdd0)">
     <use style="fill:#0000ff;stroke:#0000ff;" x="277.52868" xlink:href="#C5_0_f5d8482724" y="598.730686"/>
    </g>
    <g clip-path="url(#pd47d67bdd0)">
     <use style="fill:#ff0000;stroke:#ff0000;" x="264.428179" xlink:href="#C5_0_f5d8482724" y="623.041659"/>
    </g>
    <g clip-path="url(#pd47d67bdd0)">
     <use style="fill:#ff0000;stroke:#ff0000;" x="259.91405" xlink:href="#C5_0_f5d8482724" y="649.990596"/>
    </g>
    <g clip-path="url(#pd47d67bdd0)">
     <use style="fill:#ff0000;stroke:#ff0000;" x="264.428174" xlink:href="#C5_0_f5d8482724" y="676.939512"/>
    </g>
    <g clip-path="url(#pd47d67bdd0)">
     <use style="fill:#ff0000;stroke:#ff0000;" x="277.528685" xlink:href="#C5_0_f5d8482724" y="701.250496"/>
    </g>
    <g clip-path="url(#pd47d67bdd0)">
     <use style="fill:#ff0000;stroke:#ff0000;" x="297.933212" xlink:href="#C5_0_f5d8482724" y="720.543803"/>
    </g>
    <g clip-path="url(#pd47d67bdd0)">
     <use style="fill:#ff0000;stroke:#ff0000;" x="323.644371" xlink:href="#C5_0_f5d8482724" y="732.930851"/>
    </g>
    <g clip-path="url(#pd47d67bdd0)">
     <use style="fill:#0000ff;stroke:#0000ff;" x="352.145456" xlink:href="#C5_0_f5d8482724" y="737.199144"/>
    </g>
    <g clip-path="url(#pd47d67bdd0)">
     <use style="fill:#0000ff;stroke:#0000ff;" x="380.646538" xlink:href="#C5_0_f5d8482724" y="732.930851"/>
    </g>
    <g clip-path="url(#pd47d67bdd0)">
     <use style="fill:#0000ff;stroke:#0000ff;" x="406.357697" xlink:href="#C5_0_f5d8482724" y="720.543803"/>
    </g>
    <g clip-path="url(#pd47d67bdd0)">
     <use style="fill:#ff0000;stroke:#ff0000;" x="426.762224" xlink:href="#C5_0_f5d8482724" y="701.250496"/>
    </g>
    <g clip-path="url(#pd47d67bdd0)">
     <use style="fill:#ff0000;stroke:#ff0000;" x="439.862735" xlink:href="#C5_0_f5d8482724" y="676.93951"/>
    </g>
   </g>
   <g id="text_6">
    <!-- $t = 5, [I] = 14$ -->
    <defs>
     <path d="M 10.796875 72.90625 
L 49.515625 72.90625 
L 49.515625 64.59375 
L 19.828125 64.59375 
L 19.828125 46.734375 
Q 21.96875 47.46875 24.109375 47.828125 
Q 26.265625 48.1875 28.421875 48.1875 
Q 40.625 48.1875 47.75 41.5 
Q 54.890625 34.8125 54.890625 23.390625 
Q 54.890625 11.625 47.5625 5.09375 
Q 40.234375 -1.421875 26.90625 -1.421875 
Q 22.3125 -1.421875 17.546875 -0.640625 
Q 12.796875 0.140625 7.71875 1.703125 
L 7.71875 11.625 
Q 12.109375 9.234375 16.796875 8.0625 
Q 21.484375 6.890625 26.703125 6.890625 
Q 35.15625 6.890625 40.078125 11.328125 
Q 45.015625 15.765625 45.015625 23.390625 
Q 45.015625 31 40.078125 35.4375 
Q 35.15625 39.890625 26.703125 39.890625 
Q 22.75 39.890625 18.8125 39.015625 
Q 14.890625 38.140625 10.796875 36.28125 
z
" id="DejaVuSans-53"/>
    </defs>
    <g transform="translate(314.045455 548.061176)scale(0.12 -0.12)">
     <use transform="translate(0 0.015625)" xlink:href="#DejaVuSans-Oblique-116"/>
     <use transform="translate(58.691406 0.015625)" xlink:href="#DejaVuSans-61"/>
     <use transform="translate(161.962891 0.015625)" xlink:href="#DejaVuSans-53"/>
     <use transform="translate(225.585938 0.015625)" xlink:href="#DejaVuSans-44"/>
     <use transform="translate(276.855469 0.015625)" xlink:href="#DejaVuSans-91"/>
     <use transform="translate(315.869141 0.015625)" xlink:href="#DejaVuSans-Oblique-73"/>
     <use transform="translate(345.361328 0.015625)" xlink:href="#DejaVuSans-93"/>
     <use transform="translate(403.857422 0.015625)" xlink:href="#DejaVuSans-61"/>
     <use transform="translate(507.128906 0.015625)" xlink:href="#DejaVuSans-49"/>
     <use transform="translate(570.751953 0.015625)" xlink:href="#DejaVuSans-52"/>
    </g>
   </g>
  </g>
  <g id="text_7">
   <!-- Progress of an epidemic ($p_{\mathit{infect}} = 0.19)$ -->
   <defs>
    <path d="M 19.671875 64.796875 
L 19.671875 37.40625 
L 32.078125 37.40625 
Q 38.96875 37.40625 42.71875 40.96875 
Q 46.484375 44.53125 46.484375 51.125 
Q 46.484375 57.671875 42.71875 61.234375 
Q 38.96875 64.796875 32.078125 64.796875 
z
M 9.8125 72.90625 
L 32.078125 72.90625 
Q 44.34375 72.90625 50.609375 67.359375 
Q 56.890625 61.8125 56.890625 51.125 
Q 56.890625 40.328125 50.609375 34.8125 
Q 44.34375 29.296875 32.078125 29.296875 
L 19.671875 29.296875 
L 19.671875 0 
L 9.8125 0 
z
" id="DejaVuSans-80"/>
    <path d="M 41.109375 46.296875 
Q 39.59375 47.171875 37.8125 47.578125 
Q 36.03125 48 33.890625 48 
Q 26.265625 48 22.1875 43.046875 
Q 18.109375 38.09375 18.109375 28.8125 
L 18.109375 0 
L 9.078125 0 
L 9.078125 54.6875 
L 18.109375 54.6875 
L 18.109375 46.1875 
Q 20.953125 51.171875 25.484375 53.578125 
Q 30.03125 56 36.53125 56 
Q 37.453125 56 38.578125 55.875 
Q 39.703125 55.765625 41.0625 55.515625 
z
" id="DejaVuSans-114"/>
    <path d="M 30.609375 48.390625 
Q 23.390625 48.390625 19.1875 42.75 
Q 14.984375 37.109375 14.984375 27.296875 
Q 14.984375 17.484375 19.15625 11.84375 
Q 23.34375 6.203125 30.609375 6.203125 
Q 37.796875 6.203125 41.984375 11.859375 
Q 46.1875 17.53125 46.1875 27.296875 
Q 46.1875 37.015625 41.984375 42.703125 
Q 37.796875 48.390625 30.609375 48.390625 
z
M 30.609375 56 
Q 42.328125 56 49.015625 48.375 
Q 55.71875 40.765625 55.71875 27.296875 
Q 55.71875 13.875 49.015625 6.21875 
Q 42.328125 -1.421875 30.609375 -1.421875 
Q 18.84375 -1.421875 12.171875 6.21875 
Q 5.515625 13.875 5.515625 27.296875 
Q 5.515625 40.765625 12.171875 48.375 
Q 18.84375 56 30.609375 56 
z
" id="DejaVuSans-111"/>
    <path d="M 45.40625 27.984375 
Q 45.40625 37.75 41.375 43.109375 
Q 37.359375 48.484375 30.078125 48.484375 
Q 22.859375 48.484375 18.828125 43.109375 
Q 14.796875 37.75 14.796875 27.984375 
Q 14.796875 18.265625 18.828125 12.890625 
Q 22.859375 7.515625 30.078125 7.515625 
Q 37.359375 7.515625 41.375 12.890625 
Q 45.40625 18.265625 45.40625 27.984375 
z
M 54.390625 6.78125 
Q 54.390625 -7.171875 48.1875 -13.984375 
Q 42 -20.796875 29.203125 -20.796875 
Q 24.46875 -20.796875 20.265625 -20.09375 
Q 16.0625 -19.390625 12.109375 -17.921875 
L 12.109375 -9.1875 
Q 16.0625 -11.328125 19.921875 -12.34375 
Q 23.78125 -13.375 27.78125 -13.375 
Q 36.625 -13.375 41.015625 -8.765625 
Q 45.40625 -4.15625 45.40625 5.171875 
L 45.40625 9.625 
Q 42.625 4.78125 38.28125 2.390625 
Q 33.9375 0 27.875 0 
Q 17.828125 0 11.671875 7.65625 
Q 5.515625 15.328125 5.515625 27.984375 
Q 5.515625 40.671875 11.671875 48.328125 
Q 17.828125 56 27.875 56 
Q 33.9375 56 38.28125 53.609375 
Q 42.625 51.21875 45.40625 46.390625 
L 45.40625 54.6875 
L 54.390625 54.6875 
z
" id="DejaVuSans-103"/>
    <path d="M 56.203125 29.59375 
L 56.203125 25.203125 
L 14.890625 25.203125 
Q 15.484375 15.921875 20.484375 11.0625 
Q 25.484375 6.203125 34.421875 6.203125 
Q 39.59375 6.203125 44.453125 7.46875 
Q 49.3125 8.734375 54.109375 11.28125 
L 54.109375 2.78125 
Q 49.265625 0.734375 44.1875 -0.34375 
Q 39.109375 -1.421875 33.890625 -1.421875 
Q 20.796875 -1.421875 13.15625 6.1875 
Q 5.515625 13.8125 5.515625 26.8125 
Q 5.515625 40.234375 12.765625 48.109375 
Q 20.015625 56 32.328125 56 
Q 43.359375 56 49.78125 48.890625 
Q 56.203125 41.796875 56.203125 29.59375 
z
M 47.21875 32.234375 
Q 47.125 39.59375 43.09375 43.984375 
Q 39.0625 48.390625 32.421875 48.390625 
Q 24.90625 48.390625 20.390625 44.140625 
Q 15.875 39.890625 15.1875 32.171875 
z
" id="DejaVuSans-101"/>
    <path d="M 44.28125 53.078125 
L 44.28125 44.578125 
Q 40.484375 46.53125 36.375 47.5 
Q 32.28125 48.484375 27.875 48.484375 
Q 21.1875 48.484375 17.84375 46.4375 
Q 14.5 44.390625 14.5 40.28125 
Q 14.5 37.15625 16.890625 35.375 
Q 19.28125 33.59375 26.515625 31.984375 
L 29.59375 31.296875 
Q 39.15625 29.25 43.1875 25.515625 
Q 47.21875 21.78125 47.21875 15.09375 
Q 47.21875 7.46875 41.1875 3.015625 
Q 35.15625 -1.421875 24.609375 -1.421875 
Q 20.21875 -1.421875 15.453125 -0.5625 
Q 10.6875 0.296875 5.421875 2 
L 5.421875 11.28125 
Q 10.40625 8.6875 15.234375 7.390625 
Q 20.0625 6.109375 24.8125 6.109375 
Q 31.15625 6.109375 34.5625 8.28125 
Q 37.984375 10.453125 37.984375 14.40625 
Q 37.984375 18.0625 35.515625 20.015625 
Q 33.0625 21.96875 24.703125 23.78125 
L 21.578125 24.515625 
Q 13.234375 26.265625 9.515625 29.90625 
Q 5.8125 33.546875 5.8125 39.890625 
Q 5.8125 47.609375 11.28125 51.796875 
Q 16.75 56 26.8125 56 
Q 31.78125 56 36.171875 55.265625 
Q 40.578125 54.546875 44.28125 53.078125 
z
" id="DejaVuSans-115"/>
    <path id="DejaVuSans-32"/>
    <path d="M 37.109375 75.984375 
L 37.109375 68.5 
L 28.515625 68.5 
Q 23.6875 68.5 21.796875 66.546875 
Q 19.921875 64.59375 19.921875 59.515625 
L 19.921875 54.6875 
L 34.71875 54.6875 
L 34.71875 47.703125 
L 19.921875 47.703125 
L 19.921875 0 
L 10.890625 0 
L 10.890625 47.703125 
L 2.296875 47.703125 
L 2.296875 54.6875 
L 10.890625 54.6875 
L 10.890625 58.5 
Q 10.890625 67.625 15.140625 71.796875 
Q 19.390625 75.984375 28.609375 75.984375 
z
" id="DejaVuSans-102"/>
    <path d="M 34.28125 27.484375 
Q 23.390625 27.484375 19.1875 25 
Q 14.984375 22.515625 14.984375 16.5 
Q 14.984375 11.71875 18.140625 8.90625 
Q 21.296875 6.109375 26.703125 6.109375 
Q 34.1875 6.109375 38.703125 11.40625 
Q 43.21875 16.703125 43.21875 25.484375 
L 43.21875 27.484375 
z
M 52.203125 31.203125 
L 52.203125 0 
L 43.21875 0 
L 43.21875 8.296875 
Q 40.140625 3.328125 35.546875 0.953125 
Q 30.953125 -1.421875 24.3125 -1.421875 
Q 15.921875 -1.421875 10.953125 3.296875 
Q 6 8.015625 6 15.921875 
Q 6 25.140625 12.171875 29.828125 
Q 18.359375 34.515625 30.609375 34.515625 
L 43.21875 34.515625 
L 43.21875 35.40625 
Q 43.21875 41.609375 39.140625 45 
Q 35.0625 48.390625 27.6875 48.390625 
Q 23 48.390625 18.546875 47.265625 
Q 14.109375 46.140625 10.015625 43.890625 
L 10.015625 52.203125 
Q 14.9375 54.109375 19.578125 55.046875 
Q 24.21875 56 28.609375 56 
Q 40.484375 56 46.34375 49.84375 
Q 52.203125 43.703125 52.203125 31.203125 
z
" id="DejaVuSans-97"/>
    <path d="M 54.890625 33.015625 
L 54.890625 0 
L 45.90625 0 
L 45.90625 32.71875 
Q 45.90625 40.484375 42.875 44.328125 
Q 39.84375 48.1875 33.796875 48.1875 
Q 26.515625 48.1875 22.3125 43.546875 
Q 18.109375 38.921875 18.109375 30.90625 
L 18.109375 0 
L 9.078125 0 
L 9.078125 54.6875 
L 18.109375 54.6875 
L 18.109375 46.1875 
Q 21.34375 51.125 25.703125 53.5625 
Q 30.078125 56 35.796875 56 
Q 45.21875 56 50.046875 50.171875 
Q 54.890625 44.34375 54.890625 33.015625 
z
" id="DejaVuSans-110"/>
    <path d="M 18.109375 8.203125 
L 18.109375 -20.796875 
L 9.078125 -20.796875 
L 9.078125 54.6875 
L 18.109375 54.6875 
L 18.109375 46.390625 
Q 20.953125 51.265625 25.265625 53.625 
Q 29.59375 56 35.59375 56 
Q 45.5625 56 51.78125 48.09375 
Q 58.015625 40.1875 58.015625 27.296875 
Q 58.015625 14.40625 51.78125 6.484375 
Q 45.5625 -1.421875 35.59375 -1.421875 
Q 29.59375 -1.421875 25.265625 0.953125 
Q 20.953125 3.328125 18.109375 8.203125 
z
M 48.6875 27.296875 
Q 48.6875 37.203125 44.609375 42.84375 
Q 40.53125 48.484375 33.40625 48.484375 
Q 26.265625 48.484375 22.1875 42.84375 
Q 18.109375 37.203125 18.109375 27.296875 
Q 18.109375 17.390625 22.1875 11.75 
Q 26.265625 6.109375 33.40625 6.109375 
Q 40.53125 6.109375 44.609375 11.75 
Q 48.6875 17.390625 48.6875 27.296875 
z
" id="DejaVuSans-112"/>
    <path d="M 9.421875 54.6875 
L 18.40625 54.6875 
L 18.40625 0 
L 9.421875 0 
z
M 9.421875 75.984375 
L 18.40625 75.984375 
L 18.40625 64.59375 
L 9.421875 64.59375 
z
" id="DejaVuSans-105"/>
    <path d="M 45.40625 46.390625 
L 45.40625 75.984375 
L 54.390625 75.984375 
L 54.390625 0 
L 45.40625 0 
L 45.40625 8.203125 
Q 42.578125 3.328125 38.25 0.953125 
Q 33.9375 -1.421875 27.875 -1.421875 
Q 17.96875 -1.421875 11.734375 6.484375 
Q 5.515625 14.40625 5.515625 27.296875 
Q 5.515625 40.1875 11.734375 48.09375 
Q 17.96875 56 27.875 56 
Q 33.9375 56 38.25 53.625 
Q 42.578125 51.265625 45.40625 46.390625 
z
M 14.796875 27.296875 
Q 14.796875 17.390625 18.875 11.75 
Q 22.953125 6.109375 30.078125 6.109375 
Q 37.203125 6.109375 41.296875 11.75 
Q 45.40625 17.390625 45.40625 27.296875 
Q 45.40625 37.203125 41.296875 42.84375 
Q 37.203125 48.484375 30.078125 48.484375 
Q 22.953125 48.484375 18.875 42.84375 
Q 14.796875 37.203125 14.796875 27.296875 
z
" id="DejaVuSans-100"/>
    <path d="M 52 44.1875 
Q 55.375 50.25 60.0625 53.125 
Q 64.75 56 71.09375 56 
Q 79.640625 56 84.28125 50.015625 
Q 88.921875 44.046875 88.921875 33.015625 
L 88.921875 0 
L 79.890625 0 
L 79.890625 32.71875 
Q 79.890625 40.578125 77.09375 44.375 
Q 74.3125 48.1875 68.609375 48.1875 
Q 61.625 48.1875 57.5625 43.546875 
Q 53.515625 38.921875 53.515625 30.90625 
L 53.515625 0 
L 44.484375 0 
L 44.484375 32.71875 
Q 44.484375 40.625 41.703125 44.40625 
Q 38.921875 48.1875 33.109375 48.1875 
Q 26.21875 48.1875 22.15625 43.53125 
Q 18.109375 38.875 18.109375 30.90625 
L 18.109375 0 
L 9.078125 0 
L 9.078125 54.6875 
L 18.109375 54.6875 
L 18.109375 46.1875 
Q 21.1875 51.21875 25.484375 53.609375 
Q 29.78125 56 35.6875 56 
Q 41.65625 56 45.828125 52.96875 
Q 50 49.953125 52 44.1875 
z
" id="DejaVuSans-109"/>
    <path d="M 48.78125 52.59375 
L 48.78125 44.1875 
Q 44.96875 46.296875 41.140625 47.34375 
Q 37.3125 48.390625 33.40625 48.390625 
Q 24.65625 48.390625 19.8125 42.84375 
Q 14.984375 37.3125 14.984375 27.296875 
Q 14.984375 17.28125 19.8125 11.734375 
Q 24.65625 6.203125 33.40625 6.203125 
Q 37.3125 6.203125 41.140625 7.25 
Q 44.96875 8.296875 48.78125 10.40625 
L 48.78125 2.09375 
Q 45.015625 0.34375 40.984375 -0.53125 
Q 36.96875 -1.421875 32.421875 -1.421875 
Q 20.0625 -1.421875 12.78125 6.34375 
Q 5.515625 14.109375 5.515625 27.296875 
Q 5.515625 40.671875 12.859375 48.328125 
Q 20.21875 56 33.015625 56 
Q 37.15625 56 41.109375 55.140625 
Q 45.0625 54.296875 48.78125 52.59375 
z
" id="DejaVuSans-99"/>
    <path d="M 31 75.875 
Q 24.46875 64.65625 21.28125 53.65625 
Q 18.109375 42.671875 18.109375 31.390625 
Q 18.109375 20.125 21.3125 9.0625 
Q 24.515625 -2 31 -13.1875 
L 23.1875 -13.1875 
Q 15.875 -1.703125 12.234375 9.375 
Q 8.59375 20.453125 8.59375 31.390625 
Q 8.59375 42.28125 12.203125 53.3125 
Q 15.828125 64.359375 23.1875 75.875 
z
" id="DejaVuSans-40"/>
    <path d="M 49.609375 33.6875 
Q 49.609375 40.875 46.484375 44.671875 
Q 43.359375 48.484375 37.5 48.484375 
Q 33.5 48.484375 29.859375 46.4375 
Q 26.21875 44.390625 23.390625 40.484375 
Q 20.609375 36.625 18.9375 31.15625 
Q 17.28125 25.6875 17.28125 20.3125 
Q 17.28125 13.484375 20.40625 9.796875 
Q 23.53125 6.109375 29.296875 6.109375 
Q 33.546875 6.109375 37.1875 8.109375 
Q 40.828125 10.109375 43.40625 13.921875 
Q 46.1875 17.921875 47.890625 23.34375 
Q 49.609375 28.765625 49.609375 33.6875 
z
M 21.78125 46.390625 
Q 25.390625 51.125 30.296875 53.5625 
Q 35.203125 56 41.21875 56 
Q 49.609375 56 54.25 50.5 
Q 58.890625 45.015625 58.890625 35.109375 
Q 58.890625 27 56 19.65625 
Q 53.125 12.3125 47.703125 6.5 
Q 44.09375 2.640625 39.546875 0.609375 
Q 35.015625 -1.421875 29.984375 -1.421875 
Q 24.171875 -1.421875 20.21875 1 
Q 16.265625 3.421875 14.3125 8.203125 
L 8.6875 -20.796875 
L -0.296875 -20.796875 
L 14.40625 54.6875 
L 23.390625 54.6875 
z
" id="DejaVuSans-Oblique-112"/>
    <path d="M 18.3125 75.984375 
L 27.296875 75.984375 
L 25.09375 64.59375 
L 16.109375 64.59375 
z
M 14.203125 54.6875 
L 23.1875 54.6875 
L 12.5 0 
L 3.515625 0 
z
" id="DejaVuSans-Oblique-105"/>
    <path d="M 55.71875 33.015625 
L 49.3125 0 
L 40.28125 0 
L 46.6875 32.671875 
Q 47.125 34.96875 47.359375 36.71875 
Q 47.609375 38.484375 47.609375 39.5 
Q 47.609375 43.609375 45.015625 45.890625 
Q 42.4375 48.1875 37.796875 48.1875 
Q 30.5625 48.1875 25.34375 43.375 
Q 20.125 38.578125 18.5 30.328125 
L 12.5 0 
L 3.515625 0 
L 14.109375 54.6875 
L 23.09375 54.6875 
L 21.296875 46.09375 
Q 25.046875 50.828125 30.3125 53.40625 
Q 35.59375 56 41.40625 56 
Q 48.640625 56 52.609375 52.09375 
Q 56.59375 48.1875 56.59375 41.109375 
Q 56.59375 39.359375 56.375 37.359375 
Q 56.15625 35.359375 55.71875 33.015625 
z
" id="DejaVuSans-Oblique-110"/>
    <path d="M 47.796875 75.984375 
L 46.390625 68.5 
L 37.796875 68.5 
Q 32.90625 68.5 30.6875 66.578125 
Q 28.46875 64.65625 27.390625 59.515625 
L 26.421875 54.6875 
L 41.21875 54.6875 
L 39.890625 47.703125 
L 25.09375 47.703125 
L 15.828125 0 
L 6.78125 0 
L 16.109375 47.703125 
L 7.515625 47.703125 
L 8.796875 54.6875 
L 17.390625 54.6875 
L 18.109375 58.5 
Q 19.96875 68.171875 24.625 72.078125 
Q 29.296875 75.984375 39.3125 75.984375 
z
" id="DejaVuSans-Oblique-102"/>
    <path d="M 48.09375 32.234375 
Q 48.25 33.015625 48.3125 33.84375 
Q 48.390625 34.671875 48.390625 35.5 
Q 48.390625 41.453125 44.890625 44.921875 
Q 41.40625 48.390625 35.40625 48.390625 
Q 28.71875 48.390625 23.578125 44.15625 
Q 18.453125 39.9375 15.828125 32.171875 
z
M 55.90625 25.203125 
L 14.109375 25.203125 
Q 13.8125 23.34375 13.71875 22.265625 
Q 13.625 21.1875 13.625 20.40625 
Q 13.625 13.625 17.796875 9.90625 
Q 21.96875 6.203125 29.59375 6.203125 
Q 35.453125 6.203125 40.671875 7.515625 
Q 45.90625 8.84375 50.390625 11.375 
L 48.6875 2.484375 
Q 43.84375 0.53125 38.6875 -0.4375 
Q 33.546875 -1.421875 28.21875 -1.421875 
Q 16.84375 -1.421875 10.71875 4.015625 
Q 4.59375 9.46875 4.59375 19.484375 
Q 4.59375 28.03125 7.640625 35.375 
Q 10.6875 42.71875 16.609375 48.484375 
Q 20.40625 52.09375 25.65625 54.046875 
Q 30.90625 56 36.8125 56 
Q 46.09375 56 51.578125 50.4375 
Q 57.078125 44.875 57.078125 35.5 
Q 57.078125 33.25 56.78125 30.6875 
Q 56.5 28.125 55.90625 25.203125 
z
" id="DejaVuSans-Oblique-101"/>
    <path d="M 53.609375 52.59375 
L 51.8125 43.703125 
Q 48.578125 46.046875 44.9375 47.21875 
Q 41.3125 48.390625 37.40625 48.390625 
Q 33.109375 48.390625 29.21875 46.875 
Q 25.34375 45.359375 22.703125 42.578125 
Q 18.5 38.328125 16.203125 32.609375 
Q 13.921875 26.90625 13.921875 20.796875 
Q 13.921875 13.421875 17.609375 9.8125 
Q 21.296875 6.203125 28.8125 6.203125 
Q 32.515625 6.203125 36.6875 7.328125 
Q 40.875 8.453125 45.40625 10.6875 
L 43.703125 1.8125 
Q 39.796875 0.203125 35.671875 -0.609375 
Q 31.546875 -1.421875 27.203125 -1.421875 
Q 16.3125 -1.421875 10.453125 4.015625 
Q 4.59375 9.46875 4.59375 19.578125 
Q 4.59375 28.078125 7.640625 35.234375 
Q 10.6875 42.390625 16.703125 48.09375 
Q 20.796875 52 26.3125 54 
Q 31.84375 56 38.375 56 
Q 42.1875 56 45.9375 55.140625 
Q 49.703125 54.296875 53.609375 52.59375 
z
" id="DejaVuSans-Oblique-99"/>
    <path d="M 10.6875 12.40625 
L 21 12.40625 
L 21 0 
L 10.6875 0 
z
" id="DejaVuSans-46"/>
    <path d="M 10.984375 1.515625 
L 10.984375 10.5 
Q 14.703125 8.734375 18.5 7.8125 
Q 22.3125 6.890625 25.984375 6.890625 
Q 35.75 6.890625 40.890625 13.453125 
Q 46.046875 20.015625 46.78125 33.40625 
Q 43.953125 29.203125 39.59375 26.953125 
Q 35.25 24.703125 29.984375 24.703125 
Q 19.046875 24.703125 12.671875 31.3125 
Q 6.296875 37.9375 6.296875 49.421875 
Q 6.296875 60.640625 12.9375 67.421875 
Q 19.578125 74.21875 30.609375 74.21875 
Q 43.265625 74.21875 49.921875 64.515625 
Q 56.59375 54.828125 56.59375 36.375 
Q 56.59375 19.140625 48.40625 8.859375 
Q 40.234375 -1.421875 26.421875 -1.421875 
Q 22.703125 -1.421875 18.890625 -0.6875 
Q 15.09375 0.046875 10.984375 1.515625 
z
M 30.609375 32.421875 
Q 37.25 32.421875 41.125 36.953125 
Q 45.015625 41.5 45.015625 49.421875 
Q 45.015625 57.28125 41.125 61.84375 
Q 37.25 66.40625 30.609375 66.40625 
Q 23.96875 66.40625 20.09375 61.84375 
Q 16.21875 57.28125 16.21875 49.421875 
Q 16.21875 41.5 20.09375 36.953125 
Q 23.96875 32.421875 30.609375 32.421875 
z
" id="DejaVuSans-57"/>
    <path d="M 8.015625 75.875 
L 15.828125 75.875 
Q 23.140625 64.359375 26.78125 53.3125 
Q 30.421875 42.28125 30.421875 31.390625 
Q 30.421875 20.453125 26.78125 9.375 
Q 23.140625 -1.703125 15.828125 -13.1875 
L 8.015625 -13.1875 
Q 14.5 -2 17.703125 9.0625 
Q 20.90625 20.125 20.90625 31.390625 
Q 20.90625 42.671875 17.703125 53.65625 
Q 14.5 64.65625 8.015625 75.875 
z
" id="DejaVuSans-41"/>
   </defs>
   <g transform="translate(107.58 16.32)scale(0.12 -0.12)">
    <use transform="translate(0 0.015625)" xlink:href="#DejaVuSans-80"/>
    <use transform="translate(60.302734 0.015625)" xlink:href="#DejaVuSans-114"/>
    <use transform="translate(101.416016 0.015625)" xlink:href="#DejaVuSans-111"/>
    <use transform="translate(162.597656 0.015625)" xlink:href="#DejaVuSans-103"/>
    <use transform="translate(226.074219 0.015625)" xlink:href="#DejaVuSans-114"/>
    <use transform="translate(267.1875 0.015625)" xlink:href="#DejaVuSans-101"/>
    <use transform="translate(328.710938 0.015625)" xlink:href="#DejaVuSans-115"/>
    <use transform="translate(380.810547 0.015625)" xlink:href="#DejaVuSans-115"/>
    <use transform="translate(432.910156 0.015625)" xlink:href="#DejaVuSans-32"/>
    <use transform="translate(464.697266 0.015625)" xlink:href="#DejaVuSans-111"/>
    <use transform="translate(525.878906 0.015625)" xlink:href="#DejaVuSans-102"/>
    <use transform="translate(561.083984 0.015625)" xlink:href="#DejaVuSans-32"/>
    <use transform="translate(592.871094 0.015625)" xlink:href="#DejaVuSans-97"/>
    <use transform="translate(654.150391 0.015625)" xlink:href="#DejaVuSans-110"/>
    <use transform="translate(717.529297 0.015625)" xlink:href="#DejaVuSans-32"/>
    <use transform="translate(749.316406 0.015625)" xlink:href="#DejaVuSans-101"/>
    <use transform="translate(810.839844 0.015625)" xlink:href="#DejaVuSans-112"/>
    <use transform="translate(874.316406 0.015625)" xlink:href="#DejaVuSans-105"/>
    <use transform="translate(902.099609 0.015625)" xlink:href="#DejaVuSans-100"/>
    <use transform="translate(965.576172 0.015625)" xlink:href="#DejaVuSans-101"/>
    <use transform="translate(1027.099609 0.015625)" xlink:href="#DejaVuSans-109"/>
    <use transform="translate(1124.511719 0.015625)" xlink:href="#DejaVuSans-105"/>
    <use transform="translate(1152.294922 0.015625)" xlink:href="#DejaVuSans-99"/>
    <use transform="translate(1207.275391 0.015625)" xlink:href="#DejaVuSans-32"/>
    <use transform="translate(1239.0625 0.015625)" xlink:href="#DejaVuSans-40"/>
    <use transform="translate(1278.076172 0.015625)" xlink:href="#DejaVuSans-Oblique-112"/>
    <use transform="translate(1341.552734 -16.390625)scale(0.7)" xlink:href="#DejaVuSans-Oblique-105"/>
    <use transform="translate(1361.000977 -16.390625)scale(0.7)" xlink:href="#DejaVuSans-Oblique-110"/>
    <use transform="translate(1405.366211 -16.390625)scale(0.7)" xlink:href="#DejaVuSans-Oblique-102"/>
    <use transform="translate(1430.009766 -16.390625)scale(0.7)" xlink:href="#DejaVuSans-Oblique-101"/>
    <use transform="translate(1473.076172 -16.390625)scale(0.7)" xlink:href="#DejaVuSans-Oblique-99"/>
    <use transform="translate(1511.5625 -16.390625)scale(0.7)" xlink:href="#DejaVuSans-Oblique-116"/>
    <use transform="translate(1561.225586 0.015625)" xlink:href="#DejaVuSans-61"/>
    <use transform="translate(1664.49707 0.015625)" xlink:href="#DejaVuSans-48"/>
    <use transform="translate(1728.120117 0.015625)" xlink:href="#DejaVuSans-46"/>
    <use transform="translate(1759.907227 0.015625)" xlink:href="#DejaVuSans-49"/>
    <use transform="translate(1823.530273 0.015625)" xlink:href="#DejaVuSans-57"/>
    <use transform="translate(1887.15332 0.015625)" xlink:href="#DejaVuSans-41"/>
   </g>
  </g>
 </g>
 <defs>
  <clipPath id="pa15a661b9e">
   <rect height="191.858824" width="202.909091" x="7.2" y="93.6"/>
  </clipPath>
  <clipPath id="pc868cd1792">
   <rect height="191.858824" width="202.909091" x="250.690909" y="93.6"/>
  </clipPath>
  <clipPath id="p242557b947">
   <rect height="191.858824" width="202.909091" x="7.2" y="323.830588"/>
  </clipPath>
  <clipPath id="p894736ed44">
   <rect height="191.858824" width="202.909091" x="250.690909" y="323.830588"/>
  </clipPath>
  <clipPath id="p6b03c2ce6f">
   <rect height="191.858824" width="202.909091" x="7.2" y="554.061176"/>
  </clipPath>
  <clipPath id="pd47d67bdd0">
   <rect height="191.858824" width="202.909091" x="250.690909" y="554.061176"/>
  </clipPath>
 </defs>
</svg>
