<?xml version="1.0" encoding="utf-8" standalone="no"?>
<!DOCTYPE svg PUBLIC "-//W3C//DTD SVG 1.1//EN"
  "http://www.w3.org/Graphics/SVG/1.1/DTD/svg11.dtd">
<!-- Created with matplotlib (https://matplotlib.org/) -->
<svg height="385.765156pt" version="1.1" viewBox="0 0 403.625469 385.765156" width="403.625469pt" xmlns="http://www.w3.org/2000/svg" xmlns:xlink="http://www.w3.org/1999/xlink">
 <defs>
  <style type="text/css">
*{stroke-linecap:butt;stroke-linejoin:round;}
  </style>
 </defs>
 <g id="figure_1">
  <g id="patch_1">
   <path d="M 0 385.765156 
L 403.625469 385.765156 
L 403.625469 0 
L 0 0 
z
" style="fill:#ffffff;"/>
  </g>
  <g id="axes_1">
   <g id="patch_2">
    <path d="M 50.503594 348.36 
L 385.303594 348.36 
L 385.303594 22.2 
L 50.503594 22.2 
z
" style="fill:#eaeaf2;"/>
   </g>
   <g id="matplotlib.axis_1">
    <g id="xtick_1">
     <g id="line2d_1">
      <path clip-path="url(#p5fafaa2ed9)" d="M 50.503594 348.36 
L 50.503594 22.2 
" style="fill:none;stroke:#ffffff;stroke-linecap:round;"/>
     </g>
     <g id="line2d_2"/>
     <g id="text_1">
      <!-- 0 -->
      <defs>
       <path d="M 4.15625 35.296875 
Q 4.15625 48 6.765625 55.734375 
Q 9.375 63.484375 14.515625 67.671875 
Q 19.671875 71.875 27.484375 71.875 
Q 33.25 71.875 37.59375 69.546875 
Q 41.9375 67.234375 44.765625 62.859375 
Q 47.609375 58.5 49.21875 52.21875 
Q 50.828125 45.953125 50.828125 35.296875 
Q 50.828125 22.703125 48.234375 14.96875 
Q 45.65625 7.234375 40.5 3 
Q 35.359375 -1.21875 27.484375 -1.21875 
Q 17.140625 -1.21875 11.234375 6.203125 
Q 4.15625 15.140625 4.15625 35.296875 
z
M 13.1875 35.296875 
Q 13.1875 17.671875 17.3125 11.828125 
Q 21.4375 6 27.484375 6 
Q 33.546875 6 37.671875 11.859375 
Q 41.796875 17.71875 41.796875 35.296875 
Q 41.796875 52.984375 37.671875 58.78125 
Q 33.546875 64.59375 27.390625 64.59375 
Q 21.34375 64.59375 17.71875 59.46875 
Q 13.1875 52.9375 13.1875 35.296875 
z
" id="ArialMT-48"/>
      </defs>
      <g style="fill:#262626;" transform="translate(47.723125 362.517812)scale(0.1 -0.1)">
       <use xlink:href="#ArialMT-48"/>
      </g>
     </g>
    </g>
    <g id="xtick_2">
     <g id="line2d_3">
      <path clip-path="url(#p5fafaa2ed9)" d="M 117.463594 348.36 
L 117.463594 22.2 
" style="fill:none;stroke:#ffffff;stroke-linecap:round;"/>
     </g>
     <g id="line2d_4"/>
     <g id="text_2">
      <!-- 200 -->
      <defs>
       <path d="M 50.34375 8.453125 
L 50.34375 0 
L 3.03125 0 
Q 2.9375 3.171875 4.046875 6.109375 
Q 5.859375 10.9375 9.828125 15.625 
Q 13.8125 20.3125 21.34375 26.46875 
Q 33.015625 36.03125 37.109375 41.625 
Q 41.21875 47.21875 41.21875 52.203125 
Q 41.21875 57.421875 37.46875 61 
Q 33.734375 64.59375 27.734375 64.59375 
Q 21.390625 64.59375 17.578125 60.78125 
Q 13.765625 56.984375 13.71875 50.25 
L 4.6875 51.171875 
Q 5.609375 61.28125 11.65625 66.578125 
Q 17.71875 71.875 27.9375 71.875 
Q 38.234375 71.875 44.234375 66.15625 
Q 50.25 60.453125 50.25 52 
Q 50.25 47.703125 48.484375 43.546875 
Q 46.734375 39.40625 42.65625 34.8125 
Q 38.578125 30.21875 29.109375 22.21875 
Q 21.1875 15.578125 18.9375 13.203125 
Q 16.703125 10.84375 15.234375 8.453125 
z
" id="ArialMT-50"/>
      </defs>
      <g style="fill:#262626;" transform="translate(109.122188 362.517812)scale(0.1 -0.1)">
       <use xlink:href="#ArialMT-50"/>
       <use x="55.615234" xlink:href="#ArialMT-48"/>
       <use x="111.230469" xlink:href="#ArialMT-48"/>
      </g>
     </g>
    </g>
    <g id="xtick_3">
     <g id="line2d_5">
      <path clip-path="url(#p5fafaa2ed9)" d="M 184.423594 348.36 
L 184.423594 22.2 
" style="fill:none;stroke:#ffffff;stroke-linecap:round;"/>
     </g>
     <g id="line2d_6"/>
     <g id="text_3">
      <!-- 400 -->
      <defs>
       <path d="M 32.328125 0 
L 32.328125 17.140625 
L 1.265625 17.140625 
L 1.265625 25.203125 
L 33.9375 71.578125 
L 41.109375 71.578125 
L 41.109375 25.203125 
L 50.78125 25.203125 
L 50.78125 17.140625 
L 41.109375 17.140625 
L 41.109375 0 
z
M 32.328125 25.203125 
L 32.328125 57.46875 
L 9.90625 25.203125 
z
" id="ArialMT-52"/>
      </defs>
      <g style="fill:#262626;" transform="translate(176.082188 362.517812)scale(0.1 -0.1)">
       <use xlink:href="#ArialMT-52"/>
       <use x="55.615234" xlink:href="#ArialMT-48"/>
       <use x="111.230469" xlink:href="#ArialMT-48"/>
      </g>
     </g>
    </g>
    <g id="xtick_4">
     <g id="line2d_7">
      <path clip-path="url(#p5fafaa2ed9)" d="M 251.383594 348.36 
L 251.383594 22.2 
" style="fill:none;stroke:#ffffff;stroke-linecap:round;"/>
     </g>
     <g id="line2d_8"/>
     <g id="text_4">
      <!-- 600 -->
      <defs>
       <path d="M 49.75 54.046875 
L 41.015625 53.375 
Q 39.84375 58.546875 37.703125 60.890625 
Q 34.125 64.65625 28.90625 64.65625 
Q 24.703125 64.65625 21.53125 62.3125 
Q 17.390625 59.28125 14.984375 53.46875 
Q 12.59375 47.65625 12.5 36.921875 
Q 15.671875 41.75 20.265625 44.09375 
Q 24.859375 46.4375 29.890625 46.4375 
Q 38.671875 46.4375 44.84375 39.96875 
Q 51.03125 33.5 51.03125 23.25 
Q 51.03125 16.5 48.125 10.71875 
Q 45.21875 4.9375 40.140625 1.859375 
Q 35.0625 -1.21875 28.609375 -1.21875 
Q 17.625 -1.21875 10.6875 6.859375 
Q 3.765625 14.9375 3.765625 33.5 
Q 3.765625 54.25 11.421875 63.671875 
Q 18.109375 71.875 29.4375 71.875 
Q 37.890625 71.875 43.28125 67.140625 
Q 48.6875 62.40625 49.75 54.046875 
z
M 13.875 23.1875 
Q 13.875 18.65625 15.796875 14.5 
Q 17.71875 10.359375 21.1875 8.171875 
Q 24.65625 6 28.46875 6 
Q 34.03125 6 38.03125 10.484375 
Q 42.046875 14.984375 42.046875 22.703125 
Q 42.046875 30.125 38.078125 34.390625 
Q 34.125 38.671875 28.125 38.671875 
Q 22.171875 38.671875 18.015625 34.390625 
Q 13.875 30.125 13.875 23.1875 
z
" id="ArialMT-54"/>
      </defs>
      <g style="fill:#262626;" transform="translate(243.042188 362.517812)scale(0.1 -0.1)">
       <use xlink:href="#ArialMT-54"/>
       <use x="55.615234" xlink:href="#ArialMT-48"/>
       <use x="111.230469" xlink:href="#ArialMT-48"/>
      </g>
     </g>
    </g>
    <g id="xtick_5">
     <g id="line2d_9">
      <path clip-path="url(#p5fafaa2ed9)" d="M 318.343594 348.36 
L 318.343594 22.2 
" style="fill:none;stroke:#ffffff;stroke-linecap:round;"/>
     </g>
     <g id="line2d_10"/>
     <g id="text_5">
      <!-- 800 -->
      <defs>
       <path d="M 17.671875 38.8125 
Q 12.203125 40.828125 9.5625 44.53125 
Q 6.9375 48.25 6.9375 53.421875 
Q 6.9375 61.234375 12.546875 66.546875 
Q 18.171875 71.875 27.484375 71.875 
Q 36.859375 71.875 42.578125 66.421875 
Q 48.296875 60.984375 48.296875 53.171875 
Q 48.296875 48.1875 45.671875 44.5 
Q 43.0625 40.828125 37.75 38.8125 
Q 44.34375 36.671875 47.78125 31.875 
Q 51.21875 27.09375 51.21875 20.453125 
Q 51.21875 11.28125 44.71875 5.03125 
Q 38.234375 -1.21875 27.640625 -1.21875 
Q 17.046875 -1.21875 10.546875 5.046875 
Q 4.046875 11.328125 4.046875 20.703125 
Q 4.046875 27.6875 7.59375 32.390625 
Q 11.140625 37.109375 17.671875 38.8125 
z
M 15.921875 53.71875 
Q 15.921875 48.640625 19.1875 45.40625 
Q 22.46875 42.1875 27.6875 42.1875 
Q 32.765625 42.1875 36.015625 45.375 
Q 39.265625 48.578125 39.265625 53.21875 
Q 39.265625 58.0625 35.90625 61.359375 
Q 32.5625 64.65625 27.59375 64.65625 
Q 22.5625 64.65625 19.234375 61.421875 
Q 15.921875 58.203125 15.921875 53.71875 
z
M 13.09375 20.65625 
Q 13.09375 16.890625 14.875 13.375 
Q 16.65625 9.859375 20.171875 7.921875 
Q 23.6875 6 27.734375 6 
Q 34.03125 6 38.125 10.046875 
Q 42.234375 14.109375 42.234375 20.359375 
Q 42.234375 26.703125 38.015625 30.859375 
Q 33.796875 35.015625 27.4375 35.015625 
Q 21.234375 35.015625 17.15625 30.90625 
Q 13.09375 26.8125 13.09375 20.65625 
z
" id="ArialMT-56"/>
      </defs>
      <g style="fill:#262626;" transform="translate(310.002188 362.517812)scale(0.1 -0.1)">
       <use xlink:href="#ArialMT-56"/>
       <use x="55.615234" xlink:href="#ArialMT-48"/>
       <use x="111.230469" xlink:href="#ArialMT-48"/>
      </g>
     </g>
    </g>
    <g id="xtick_6">
     <g id="line2d_11">
      <path clip-path="url(#p5fafaa2ed9)" d="M 385.303594 348.36 
L 385.303594 22.2 
" style="fill:none;stroke:#ffffff;stroke-linecap:round;"/>
     </g>
     <g id="line2d_12"/>
     <g id="text_6">
      <!-- 1000 -->
      <defs>
       <path d="M 37.25 0 
L 28.46875 0 
L 28.46875 56 
Q 25.296875 52.984375 20.140625 49.953125 
Q 14.984375 46.921875 10.890625 45.40625 
L 10.890625 53.90625 
Q 18.265625 57.375 23.78125 62.296875 
Q 29.296875 67.234375 31.59375 71.875 
L 37.25 71.875 
z
" id="ArialMT-49"/>
      </defs>
      <g style="fill:#262626;" transform="translate(374.181719 362.517812)scale(0.1 -0.1)">
       <use xlink:href="#ArialMT-49"/>
       <use x="55.615234" xlink:href="#ArialMT-48"/>
       <use x="111.230469" xlink:href="#ArialMT-48"/>
       <use x="166.845703" xlink:href="#ArialMT-48"/>
      </g>
     </g>
    </g>
    <g id="text_7">
     <!-- $t$ -->
     <defs>
      <path d="M 42.28125 54.6875 
L 40.921875 47.703125 
L 23 47.703125 
L 17.1875 18.015625 
Q 16.890625 16.359375 16.75 15.234375 
Q 16.609375 14.109375 16.609375 13.484375 
Q 16.609375 10.359375 18.484375 8.9375 
Q 20.359375 7.515625 24.515625 7.515625 
L 33.59375 7.515625 
L 32.078125 0 
L 23.484375 0 
Q 15.484375 0 11.546875 3.125 
Q 7.625 6.25 7.625 12.59375 
Q 7.625 13.71875 7.765625 15.0625 
Q 7.90625 16.40625 8.203125 18.015625 
L 14.015625 47.703125 
L 6.390625 47.703125 
L 7.8125 54.6875 
L 15.28125 54.6875 
L 18.3125 70.21875 
L 27.296875 70.21875 
L 24.3125 54.6875 
z
" id="DejaVuSans-Oblique-116"/>
     </defs>
     <g style="fill:#262626;" transform="translate(215.703594 376.378906)scale(0.11 -0.11)">
      <use transform="translate(0 0.78125)" xlink:href="#DejaVuSans-Oblique-116"/>
     </g>
    </g>
   </g>
   <g id="matplotlib.axis_2">
    <g id="ytick_1">
     <g id="line2d_13">
      <path clip-path="url(#p5fafaa2ed9)" d="M 50.503594 348.36 
L 385.303594 348.36 
" style="fill:none;stroke:#ffffff;stroke-linecap:round;"/>
     </g>
     <g id="line2d_14"/>
     <g id="text_8">
      <!-- 0 -->
      <g style="fill:#262626;" transform="translate(37.942656 351.938906)scale(0.1 -0.1)">
       <use xlink:href="#ArialMT-48"/>
      </g>
     </g>
    </g>
    <g id="ytick_2">
     <g id="line2d_15">
      <path clip-path="url(#p5fafaa2ed9)" d="M 50.503594 307.48782 
L 385.303594 307.48782 
" style="fill:none;stroke:#ffffff;stroke-linecap:round;"/>
     </g>
     <g id="line2d_16"/>
     <g id="text_9">
      <!-- 500 -->
      <defs>
       <path d="M 4.15625 18.75 
L 13.375 19.53125 
Q 14.40625 12.796875 18.140625 9.390625 
Q 21.875 6 27.15625 6 
Q 33.5 6 37.890625 10.78125 
Q 42.28125 15.578125 42.28125 23.484375 
Q 42.28125 31 38.0625 35.34375 
Q 33.84375 39.703125 27 39.703125 
Q 22.75 39.703125 19.328125 37.765625 
Q 15.921875 35.84375 13.96875 32.765625 
L 5.71875 33.84375 
L 12.640625 70.609375 
L 48.25 70.609375 
L 48.25 62.203125 
L 19.671875 62.203125 
L 15.828125 42.96875 
Q 22.265625 47.46875 29.34375 47.46875 
Q 38.71875 47.46875 45.15625 40.96875 
Q 51.609375 34.46875 51.609375 24.265625 
Q 51.609375 14.546875 45.953125 7.46875 
Q 39.0625 -1.21875 27.15625 -1.21875 
Q 17.390625 -1.21875 11.203125 4.25 
Q 5.03125 9.71875 4.15625 18.75 
z
" id="ArialMT-53"/>
      </defs>
      <g style="fill:#262626;" transform="translate(26.820781 311.066726)scale(0.1 -0.1)">
       <use xlink:href="#ArialMT-53"/>
       <use x="55.615234" xlink:href="#ArialMT-48"/>
       <use x="111.230469" xlink:href="#ArialMT-48"/>
      </g>
     </g>
    </g>
    <g id="ytick_3">
     <g id="line2d_17">
      <path clip-path="url(#p5fafaa2ed9)" d="M 50.503594 266.615639 
L 385.303594 266.615639 
" style="fill:none;stroke:#ffffff;stroke-linecap:round;"/>
     </g>
     <g id="line2d_18"/>
     <g id="text_10">
      <!-- 1000 -->
      <g style="fill:#262626;" transform="translate(21.259844 270.194545)scale(0.1 -0.1)">
       <use xlink:href="#ArialMT-49"/>
       <use x="55.615234" xlink:href="#ArialMT-48"/>
       <use x="111.230469" xlink:href="#ArialMT-48"/>
       <use x="166.845703" xlink:href="#ArialMT-48"/>
      </g>
     </g>
    </g>
    <g id="ytick_4">
     <g id="line2d_19">
      <path clip-path="url(#p5fafaa2ed9)" d="M 50.503594 225.743459 
L 385.303594 225.743459 
" style="fill:none;stroke:#ffffff;stroke-linecap:round;"/>
     </g>
     <g id="line2d_20"/>
     <g id="text_11">
      <!-- 1500 -->
      <g style="fill:#262626;" transform="translate(21.259844 229.322365)scale(0.1 -0.1)">
       <use xlink:href="#ArialMT-49"/>
       <use x="55.615234" xlink:href="#ArialMT-53"/>
       <use x="111.230469" xlink:href="#ArialMT-48"/>
       <use x="166.845703" xlink:href="#ArialMT-48"/>
      </g>
     </g>
    </g>
    <g id="ytick_5">
     <g id="line2d_21">
      <path clip-path="url(#p5fafaa2ed9)" d="M 50.503594 184.871278 
L 385.303594 184.871278 
" style="fill:none;stroke:#ffffff;stroke-linecap:round;"/>
     </g>
     <g id="line2d_22"/>
     <g id="text_12">
      <!-- 2000 -->
      <g style="fill:#262626;" transform="translate(21.259844 188.450184)scale(0.1 -0.1)">
       <use xlink:href="#ArialMT-50"/>
       <use x="55.615234" xlink:href="#ArialMT-48"/>
       <use x="111.230469" xlink:href="#ArialMT-48"/>
       <use x="166.845703" xlink:href="#ArialMT-48"/>
      </g>
     </g>
    </g>
    <g id="ytick_6">
     <g id="line2d_23">
      <path clip-path="url(#p5fafaa2ed9)" d="M 50.503594 143.999098 
L 385.303594 143.999098 
" style="fill:none;stroke:#ffffff;stroke-linecap:round;"/>
     </g>
     <g id="line2d_24"/>
     <g id="text_13">
      <!-- 2500 -->
      <g style="fill:#262626;" transform="translate(21.259844 147.578004)scale(0.1 -0.1)">
       <use xlink:href="#ArialMT-50"/>
       <use x="55.615234" xlink:href="#ArialMT-53"/>
       <use x="111.230469" xlink:href="#ArialMT-48"/>
       <use x="166.845703" xlink:href="#ArialMT-48"/>
      </g>
     </g>
    </g>
    <g id="ytick_7">
     <g id="line2d_25">
      <path clip-path="url(#p5fafaa2ed9)" d="M 50.503594 103.126917 
L 385.303594 103.126917 
" style="fill:none;stroke:#ffffff;stroke-linecap:round;"/>
     </g>
     <g id="line2d_26"/>
     <g id="text_14">
      <!-- 3000 -->
      <defs>
       <path d="M 4.203125 18.890625 
L 12.984375 20.0625 
Q 14.5 12.59375 18.140625 9.296875 
Q 21.78125 6 27 6 
Q 33.203125 6 37.46875 10.296875 
Q 41.75 14.59375 41.75 20.953125 
Q 41.75 27 37.796875 30.921875 
Q 33.84375 34.859375 27.734375 34.859375 
Q 25.25 34.859375 21.53125 33.890625 
L 22.515625 41.609375 
Q 23.390625 41.5 23.921875 41.5 
Q 29.546875 41.5 34.03125 44.421875 
Q 38.53125 47.359375 38.53125 53.46875 
Q 38.53125 58.296875 35.25 61.46875 
Q 31.984375 64.65625 26.8125 64.65625 
Q 21.6875 64.65625 18.265625 61.421875 
Q 14.84375 58.203125 13.875 51.765625 
L 5.078125 53.328125 
Q 6.6875 62.15625 12.390625 67.015625 
Q 18.109375 71.875 26.609375 71.875 
Q 32.46875 71.875 37.390625 69.359375 
Q 42.328125 66.84375 44.9375 62.5 
Q 47.5625 58.15625 47.5625 53.265625 
Q 47.5625 48.640625 45.0625 44.828125 
Q 42.578125 41.015625 37.703125 38.765625 
Q 44.046875 37.3125 47.5625 32.6875 
Q 51.078125 28.078125 51.078125 21.140625 
Q 51.078125 11.765625 44.234375 5.25 
Q 37.40625 -1.265625 26.953125 -1.265625 
Q 17.53125 -1.265625 11.296875 4.34375 
Q 5.078125 9.96875 4.203125 18.890625 
z
" id="ArialMT-51"/>
      </defs>
      <g style="fill:#262626;" transform="translate(21.259844 106.705824)scale(0.1 -0.1)">
       <use xlink:href="#ArialMT-51"/>
       <use x="55.615234" xlink:href="#ArialMT-48"/>
       <use x="111.230469" xlink:href="#ArialMT-48"/>
       <use x="166.845703" xlink:href="#ArialMT-48"/>
      </g>
     </g>
    </g>
    <g id="ytick_8">
     <g id="line2d_27">
      <path clip-path="url(#p5fafaa2ed9)" d="M 50.503594 62.254737 
L 385.303594 62.254737 
" style="fill:none;stroke:#ffffff;stroke-linecap:round;"/>
     </g>
     <g id="line2d_28"/>
     <g id="text_15">
      <!-- 3500 -->
      <g style="fill:#262626;" transform="translate(21.259844 65.833643)scale(0.1 -0.1)">
       <use xlink:href="#ArialMT-51"/>
       <use x="55.615234" xlink:href="#ArialMT-53"/>
       <use x="111.230469" xlink:href="#ArialMT-48"/>
       <use x="166.845703" xlink:href="#ArialMT-48"/>
      </g>
     </g>
    </g>
    <g id="text_16">
     <!-- population that is... -->
     <defs>
      <path d="M 6.59375 -19.875 
L 6.59375 51.859375 
L 14.59375 51.859375 
L 14.59375 45.125 
Q 17.4375 49.078125 21 51.046875 
Q 24.5625 53.03125 29.640625 53.03125 
Q 36.28125 53.03125 41.359375 49.609375 
Q 46.4375 46.1875 49.015625 39.953125 
Q 51.609375 33.734375 51.609375 26.3125 
Q 51.609375 18.359375 48.75 11.984375 
Q 45.90625 5.609375 40.453125 2.21875 
Q 35.015625 -1.171875 29 -1.171875 
Q 24.609375 -1.171875 21.109375 0.6875 
Q 17.625 2.546875 15.375 5.375 
L 15.375 -19.875 
z
M 14.546875 25.640625 
Q 14.546875 15.625 18.59375 10.84375 
Q 22.65625 6.0625 28.421875 6.0625 
Q 34.28125 6.0625 38.453125 11.015625 
Q 42.625 15.96875 42.625 26.375 
Q 42.625 36.28125 38.546875 41.203125 
Q 34.46875 46.140625 28.8125 46.140625 
Q 23.1875 46.140625 18.859375 40.890625 
Q 14.546875 35.640625 14.546875 25.640625 
z
" id="ArialMT-112"/>
      <path d="M 3.328125 25.921875 
Q 3.328125 40.328125 11.328125 47.265625 
Q 18.015625 53.03125 27.640625 53.03125 
Q 38.328125 53.03125 45.109375 46.015625 
Q 51.90625 39.015625 51.90625 26.65625 
Q 51.90625 16.65625 48.90625 10.90625 
Q 45.90625 5.171875 40.15625 2 
Q 34.421875 -1.171875 27.640625 -1.171875 
Q 16.75 -1.171875 10.03125 5.8125 
Q 3.328125 12.796875 3.328125 25.921875 
z
M 12.359375 25.921875 
Q 12.359375 15.96875 16.703125 11.015625 
Q 21.046875 6.0625 27.640625 6.0625 
Q 34.1875 6.0625 38.53125 11.03125 
Q 42.875 16.015625 42.875 26.21875 
Q 42.875 35.84375 38.5 40.796875 
Q 34.125 45.75 27.640625 45.75 
Q 21.046875 45.75 16.703125 40.8125 
Q 12.359375 35.890625 12.359375 25.921875 
z
" id="ArialMT-111"/>
      <path d="M 40.578125 0 
L 40.578125 7.625 
Q 34.515625 -1.171875 24.125 -1.171875 
Q 19.53125 -1.171875 15.546875 0.578125 
Q 11.578125 2.34375 9.640625 5 
Q 7.71875 7.671875 6.9375 11.53125 
Q 6.390625 14.109375 6.390625 19.734375 
L 6.390625 51.859375 
L 15.1875 51.859375 
L 15.1875 23.09375 
Q 15.1875 16.21875 15.71875 13.8125 
Q 16.546875 10.359375 19.234375 8.375 
Q 21.921875 6.390625 25.875 6.390625 
Q 29.828125 6.390625 33.296875 8.421875 
Q 36.765625 10.453125 38.203125 13.9375 
Q 39.65625 17.4375 39.65625 24.078125 
L 39.65625 51.859375 
L 48.4375 51.859375 
L 48.4375 0 
z
" id="ArialMT-117"/>
      <path d="M 6.390625 0 
L 6.390625 71.578125 
L 15.1875 71.578125 
L 15.1875 0 
z
" id="ArialMT-108"/>
      <path d="M 40.4375 6.390625 
Q 35.546875 2.25 31.03125 0.53125 
Q 26.515625 -1.171875 21.34375 -1.171875 
Q 12.796875 -1.171875 8.203125 3 
Q 3.609375 7.171875 3.609375 13.671875 
Q 3.609375 17.484375 5.34375 20.625 
Q 7.078125 23.78125 9.890625 25.6875 
Q 12.703125 27.59375 16.21875 28.5625 
Q 18.796875 29.25 24.03125 29.890625 
Q 34.671875 31.15625 39.703125 32.90625 
Q 39.75 34.71875 39.75 35.203125 
Q 39.75 40.578125 37.25 42.78125 
Q 33.890625 45.75 27.25 45.75 
Q 21.046875 45.75 18.09375 43.578125 
Q 15.140625 41.40625 13.71875 35.890625 
L 5.125 37.0625 
Q 6.296875 42.578125 8.984375 45.96875 
Q 11.671875 49.359375 16.75 51.1875 
Q 21.828125 53.03125 28.515625 53.03125 
Q 35.15625 53.03125 39.296875 51.46875 
Q 43.453125 49.90625 45.40625 47.53125 
Q 47.359375 45.171875 48.140625 41.546875 
Q 48.578125 39.3125 48.578125 33.453125 
L 48.578125 21.734375 
Q 48.578125 9.46875 49.140625 6.21875 
Q 49.703125 2.984375 51.375 0 
L 42.1875 0 
Q 40.828125 2.734375 40.4375 6.390625 
z
M 39.703125 26.03125 
Q 34.90625 24.078125 25.34375 22.703125 
Q 19.921875 21.921875 17.671875 20.9375 
Q 15.4375 19.96875 14.203125 18.09375 
Q 12.984375 16.21875 12.984375 13.921875 
Q 12.984375 10.40625 15.640625 8.0625 
Q 18.3125 5.71875 23.4375 5.71875 
Q 28.515625 5.71875 32.46875 7.9375 
Q 36.421875 10.15625 38.28125 14.015625 
Q 39.703125 17 39.703125 22.796875 
z
" id="ArialMT-97"/>
      <path d="M 25.78125 7.859375 
L 27.046875 0.09375 
Q 23.34375 -0.6875 20.40625 -0.6875 
Q 15.625 -0.6875 12.984375 0.828125 
Q 10.359375 2.34375 9.28125 4.8125 
Q 8.203125 7.28125 8.203125 15.1875 
L 8.203125 45.015625 
L 1.765625 45.015625 
L 1.765625 51.859375 
L 8.203125 51.859375 
L 8.203125 64.703125 
L 16.9375 69.96875 
L 16.9375 51.859375 
L 25.78125 51.859375 
L 25.78125 45.015625 
L 16.9375 45.015625 
L 16.9375 14.703125 
Q 16.9375 10.9375 17.40625 9.859375 
Q 17.875 8.796875 18.921875 8.15625 
Q 19.96875 7.515625 21.921875 7.515625 
Q 23.390625 7.515625 25.78125 7.859375 
z
" id="ArialMT-116"/>
      <path d="M 6.640625 61.46875 
L 6.640625 71.578125 
L 15.4375 71.578125 
L 15.4375 61.46875 
z
M 6.640625 0 
L 6.640625 51.859375 
L 15.4375 51.859375 
L 15.4375 0 
z
" id="ArialMT-105"/>
      <path d="M 6.59375 0 
L 6.59375 51.859375 
L 14.5 51.859375 
L 14.5 44.484375 
Q 20.21875 53.03125 31 53.03125 
Q 35.6875 53.03125 39.625 51.34375 
Q 43.5625 49.65625 45.515625 46.921875 
Q 47.46875 44.1875 48.25 40.4375 
Q 48.734375 37.984375 48.734375 31.890625 
L 48.734375 0 
L 39.9375 0 
L 39.9375 31.546875 
Q 39.9375 36.921875 38.90625 39.578125 
Q 37.890625 42.234375 35.28125 43.8125 
Q 32.671875 45.40625 29.15625 45.40625 
Q 23.53125 45.40625 19.453125 41.84375 
Q 15.375 38.28125 15.375 28.328125 
L 15.375 0 
z
" id="ArialMT-110"/>
      <path id="ArialMT-32"/>
      <path d="M 6.59375 0 
L 6.59375 71.578125 
L 15.375 71.578125 
L 15.375 45.90625 
Q 21.53125 53.03125 30.90625 53.03125 
Q 36.671875 53.03125 40.921875 50.75 
Q 45.171875 48.484375 47 44.484375 
Q 48.828125 40.484375 48.828125 32.859375 
L 48.828125 0 
L 40.046875 0 
L 40.046875 32.859375 
Q 40.046875 39.453125 37.1875 42.453125 
Q 34.328125 45.453125 29.109375 45.453125 
Q 25.203125 45.453125 21.75 43.421875 
Q 18.3125 41.40625 16.84375 37.9375 
Q 15.375 34.46875 15.375 28.375 
L 15.375 0 
z
" id="ArialMT-104"/>
      <path d="M 3.078125 15.484375 
L 11.765625 16.84375 
Q 12.5 11.625 15.84375 8.84375 
Q 19.1875 6.0625 25.203125 6.0625 
Q 31.25 6.0625 34.171875 8.515625 
Q 37.109375 10.984375 37.109375 14.3125 
Q 37.109375 17.28125 34.515625 19 
Q 32.71875 20.171875 25.53125 21.96875 
Q 15.875 24.421875 12.140625 26.203125 
Q 8.40625 27.984375 6.46875 31.125 
Q 4.546875 34.28125 4.546875 38.09375 
Q 4.546875 41.546875 6.125 44.5 
Q 7.71875 47.46875 10.453125 49.421875 
Q 12.5 50.921875 16.03125 51.96875 
Q 19.578125 53.03125 23.640625 53.03125 
Q 29.734375 53.03125 34.34375 51.265625 
Q 38.96875 49.515625 41.15625 46.5 
Q 43.359375 43.5 44.1875 38.484375 
L 35.59375 37.3125 
Q 35.015625 41.3125 32.203125 43.546875 
Q 29.390625 45.796875 24.265625 45.796875 
Q 18.21875 45.796875 15.625 43.796875 
Q 13.03125 41.796875 13.03125 39.109375 
Q 13.03125 37.40625 14.109375 36.03125 
Q 15.1875 34.625 17.484375 33.6875 
Q 18.796875 33.203125 25.25 31.453125 
Q 34.578125 28.953125 38.25 27.359375 
Q 41.9375 25.78125 44.03125 22.75 
Q 46.140625 19.734375 46.140625 15.234375 
Q 46.140625 10.84375 43.578125 6.953125 
Q 41.015625 3.078125 36.171875 0.953125 
Q 31.34375 -1.171875 25.25 -1.171875 
Q 15.140625 -1.171875 9.84375 3.03125 
Q 4.546875 7.234375 3.078125 15.484375 
z
" id="ArialMT-115"/>
      <path d="M 9.078125 0 
L 9.078125 10.015625 
L 19.09375 10.015625 
L 19.09375 0 
z
" id="ArialMT-46"/>
     </defs>
     <g style="fill:#262626;" transform="translate(15.073594 231.446484)rotate(-90)scale(0.11 -0.11)">
      <use xlink:href="#ArialMT-112"/>
      <use x="55.615234" xlink:href="#ArialMT-111"/>
      <use x="111.230469" xlink:href="#ArialMT-112"/>
      <use x="166.845703" xlink:href="#ArialMT-117"/>
      <use x="222.460938" xlink:href="#ArialMT-108"/>
      <use x="244.677734" xlink:href="#ArialMT-97"/>
      <use x="300.292969" xlink:href="#ArialMT-116"/>
      <use x="328.076172" xlink:href="#ArialMT-105"/>
      <use x="350.292969" xlink:href="#ArialMT-111"/>
      <use x="405.908203" xlink:href="#ArialMT-110"/>
      <use x="461.523438" xlink:href="#ArialMT-32"/>
      <use x="489.306641" xlink:href="#ArialMT-116"/>
      <use x="517.089844" xlink:href="#ArialMT-104"/>
      <use x="572.705078" xlink:href="#ArialMT-97"/>
      <use x="628.320312" xlink:href="#ArialMT-116"/>
      <use x="656.103516" xlink:href="#ArialMT-32"/>
      <use x="683.886719" xlink:href="#ArialMT-105"/>
      <use x="706.103516" xlink:href="#ArialMT-115"/>
      <use x="756.103516" xlink:href="#ArialMT-46"/>
      <use x="783.886719" xlink:href="#ArialMT-46"/>
      <use x="811.669922" xlink:href="#ArialMT-46"/>
     </g>
    </g>
   </g>
   <g id="line2d_29">
    <defs>
     <path d="M 0 1.75 
C 0.464105 1.75 0.909265 1.565609 1.237437 1.237437 
C 1.565609 0.909265 1.75 0.464105 1.75 0 
C 1.75 -0.464105 1.565609 -0.909265 1.237437 -1.237437 
C 0.909265 -1.565609 0.464105 -1.75 0 -1.75 
C -0.464105 -1.75 -0.909265 -1.565609 -1.237437 -1.237437 
C -1.565609 -0.909265 -1.75 -0.464105 -1.75 0 
C -1.75 0.464105 -1.565609 0.909265 -1.237437 1.237437 
C -0.909265 1.565609 -0.464105 1.75 0 1.75 
z
" id="m9a6e735800"/>
    </defs>
    <g clip-path="url(#p5fafaa2ed9)">
     <use style="fill:#ff0000;" x="50.503594" xlink:href="#m9a6e735800" y="21.627789"/>
     <use style="fill:#ff0000;" x="57.199594" xlink:href="#m9a6e735800" y="22.036511"/>
     <use style="fill:#ff0000;" x="63.895594" xlink:href="#m9a6e735800" y="22.281744"/>
     <use style="fill:#ff0000;" x="70.591594" xlink:href="#m9a6e735800" y="22.935699"/>
     <use style="fill:#ff0000;" x="77.287594" xlink:href="#m9a6e735800" y="23.262677"/>
     <use style="fill:#ff0000;" x="83.983594" xlink:href="#m9a6e735800" y="23.753143"/>
     <use style="fill:#ff0000;" x="90.679594" xlink:href="#m9a6e735800" y="24.570586"/>
     <use style="fill:#ff0000;" x="97.375594" xlink:href="#m9a6e735800" y="25.796752"/>
     <use style="fill:#ff0000;" x="104.071594" xlink:href="#m9a6e735800" y="28.167338"/>
     <use style="fill:#ff0000;" x="110.767594" xlink:href="#m9a6e735800" y="32.009323"/>
     <use style="fill:#ff0000;" x="117.463594" xlink:href="#m9a6e735800" y="36.505263"/>
     <use style="fill:#ff0000;" x="124.159594" xlink:href="#m9a6e735800" y="41.491669"/>
     <use style="fill:#ff0000;" x="130.855594" xlink:href="#m9a6e735800" y="45.578887"/>
     <use style="fill:#ff0000;" x="137.551594" xlink:href="#m9a6e735800" y="49.502617"/>
     <use style="fill:#ff0000;" x="144.247594" xlink:href="#m9a6e735800" y="53.753323"/>
     <use style="fill:#ff0000;" x="150.943594" xlink:href="#m9a6e735800" y="57.922286"/>
     <use style="fill:#ff0000;" x="157.639594" xlink:href="#m9a6e735800" y="60.374617"/>
     <use style="fill:#ff0000;" x="164.335594" xlink:href="#m9a6e735800" y="63.07218"/>
     <use style="fill:#ff0000;" x="171.031594" xlink:href="#m9a6e735800" y="66.505444"/>
     <use style="fill:#ff0000;" x="177.727594" xlink:href="#m9a6e735800" y="69.203008"/>
     <use style="fill:#ff0000;" x="184.423594" xlink:href="#m9a6e735800" y="71.083128"/>
     <use style="fill:#ff0000;" x="191.119594" xlink:href="#m9a6e735800" y="73.290226"/>
     <use style="fill:#ff0000;" x="197.815594" xlink:href="#m9a6e735800" y="75.497323"/>
     <use style="fill:#ff0000;" x="204.511594" xlink:href="#m9a6e735800" y="76.805233"/>
     <use style="fill:#ff0000;" x="211.207594" xlink:href="#m9a6e735800" y="78.521865"/>
     <use style="fill:#ff0000;" x="217.903594" xlink:href="#m9a6e735800" y="80.647218"/>
     <use style="fill:#ff0000;" x="224.599594" xlink:href="#m9a6e735800" y="82.690827"/>
     <use style="fill:#ff0000;" x="231.295594" xlink:href="#m9a6e735800" y="84.81618"/>
     <use style="fill:#ff0000;" x="237.991594" xlink:href="#m9a6e735800" y="86.369323"/>
     <use style="fill:#ff0000;" x="244.687594" xlink:href="#m9a6e735800" y="87.922466"/>
     <use style="fill:#ff0000;" x="251.383594" xlink:href="#m9a6e735800" y="89.066887"/>
     <use style="fill:#ff0000;" x="258.079594" xlink:href="#m9a6e735800" y="90.211308"/>
     <use style="fill:#ff0000;" x="264.775594" xlink:href="#m9a6e735800" y="91.437474"/>
     <use style="fill:#ff0000;" x="271.471594" xlink:href="#m9a6e735800" y="92.745383"/>
     <use style="fill:#ff0000;" x="278.167594" xlink:href="#m9a6e735800" y="93.644571"/>
     <use style="fill:#ff0000;" x="284.863594" xlink:href="#m9a6e735800" y="94.543759"/>
     <use style="fill:#ff0000;" x="291.559594" xlink:href="#m9a6e735800" y="95.524692"/>
     <use style="fill:#ff0000;" x="298.255594" xlink:href="#m9a6e735800" y="96.342135"/>
     <use style="fill:#ff0000;" x="304.951594" xlink:href="#m9a6e735800" y="96.669113"/>
     <use style="fill:#ff0000;" x="311.647594" xlink:href="#m9a6e735800" y="96.750857"/>
     <use style="fill:#ff0000;" x="318.343594" xlink:href="#m9a6e735800" y="97.323068"/>
     <use style="fill:#ff0000;" x="325.039594" xlink:href="#m9a6e735800" y="97.895278"/>
     <use style="fill:#ff0000;" x="331.735594" xlink:href="#m9a6e735800" y="98.385744"/>
     <use style="fill:#ff0000;" x="338.431594" xlink:href="#m9a6e735800" y="98.794466"/>
     <use style="fill:#ff0000;" x="345.127594" xlink:href="#m9a6e735800" y="98.876211"/>
     <use style="fill:#ff0000;" x="351.823594" xlink:href="#m9a6e735800" y="98.957955"/>
     <use style="fill:#ff0000;" x="358.519594" xlink:href="#m9a6e735800" y="99.121444"/>
     <use style="fill:#ff0000;" x="365.215594" xlink:href="#m9a6e735800" y="99.203188"/>
     <use style="fill:#ff0000;" x="371.911594" xlink:href="#m9a6e735800" y="99.284932"/>
     <use style="fill:#ff0000;" x="378.607594" xlink:href="#m9a6e735800" y="99.284932"/>
     <use style="fill:#ff0000;" x="385.303594" xlink:href="#m9a6e735800" y="99.284932"/>
     <use style="fill:#ff0000;" x="391.999594" xlink:href="#m9a6e735800" y="99.284932"/>
     <use style="fill:#ff0000;" x="398.695594" xlink:href="#m9a6e735800" y="99.284932"/>
     <use style="fill:#ff0000;" x="405.391594" xlink:href="#m9a6e735800" y="99.448421"/>
     <use style="fill:#ff0000;" x="412.087594" xlink:href="#m9a6e735800" y="99.448421"/>
     <use style="fill:#ff0000;" x="418.783594" xlink:href="#m9a6e735800" y="99.448421"/>
     <use style="fill:#ff0000;" x="425.479594" xlink:href="#m9a6e735800" y="99.448421"/>
     <use style="fill:#ff0000;" x="432.175594" xlink:href="#m9a6e735800" y="99.448421"/>
     <use style="fill:#ff0000;" x="438.871594" xlink:href="#m9a6e735800" y="99.448421"/>
     <use style="fill:#ff0000;" x="445.567594" xlink:href="#m9a6e735800" y="99.530165"/>
     <use style="fill:#ff0000;" x="452.263594" xlink:href="#m9a6e735800" y="99.530165"/>
     <use style="fill:#ff0000;" x="458.959594" xlink:href="#m9a6e735800" y="99.530165"/>
     <use style="fill:#ff0000;" x="465.655594" xlink:href="#m9a6e735800" y="99.530165"/>
     <use style="fill:#ff0000;" x="472.351594" xlink:href="#m9a6e735800" y="99.530165"/>
     <use style="fill:#ff0000;" x="479.047594" xlink:href="#m9a6e735800" y="99.530165"/>
     <use style="fill:#ff0000;" x="485.743594" xlink:href="#m9a6e735800" y="99.530165"/>
     <use style="fill:#ff0000;" x="492.439594" xlink:href="#m9a6e735800" y="99.530165"/>
     <use style="fill:#ff0000;" x="499.135594" xlink:href="#m9a6e735800" y="99.530165"/>
     <use style="fill:#ff0000;" x="505.831594" xlink:href="#m9a6e735800" y="99.530165"/>
     <use style="fill:#ff0000;" x="512.527594" xlink:href="#m9a6e735800" y="99.530165"/>
     <use style="fill:#ff0000;" x="519.223594" xlink:href="#m9a6e735800" y="99.530165"/>
     <use style="fill:#ff0000;" x="525.919594" xlink:href="#m9a6e735800" y="99.530165"/>
     <use style="fill:#ff0000;" x="532.615594" xlink:href="#m9a6e735800" y="99.530165"/>
     <use style="fill:#ff0000;" x="539.311594" xlink:href="#m9a6e735800" y="99.530165"/>
     <use style="fill:#ff0000;" x="546.007594" xlink:href="#m9a6e735800" y="99.530165"/>
     <use style="fill:#ff0000;" x="552.703594" xlink:href="#m9a6e735800" y="99.530165"/>
     <use style="fill:#ff0000;" x="559.399594" xlink:href="#m9a6e735800" y="99.530165"/>
     <use style="fill:#ff0000;" x="566.095594" xlink:href="#m9a6e735800" y="99.530165"/>
     <use style="fill:#ff0000;" x="572.791594" xlink:href="#m9a6e735800" y="99.530165"/>
     <use style="fill:#ff0000;" x="579.487594" xlink:href="#m9a6e735800" y="99.530165"/>
     <use style="fill:#ff0000;" x="586.183594" xlink:href="#m9a6e735800" y="99.530165"/>
     <use style="fill:#ff0000;" x="592.879594" xlink:href="#m9a6e735800" y="99.530165"/>
     <use style="fill:#ff0000;" x="599.575594" xlink:href="#m9a6e735800" y="99.530165"/>
     <use style="fill:#ff0000;" x="606.271594" xlink:href="#m9a6e735800" y="99.530165"/>
     <use style="fill:#ff0000;" x="612.967594" xlink:href="#m9a6e735800" y="99.530165"/>
     <use style="fill:#ff0000;" x="619.663594" xlink:href="#m9a6e735800" y="99.530165"/>
     <use style="fill:#ff0000;" x="626.359594" xlink:href="#m9a6e735800" y="99.530165"/>
     <use style="fill:#ff0000;" x="633.055594" xlink:href="#m9a6e735800" y="99.530165"/>
     <use style="fill:#ff0000;" x="639.751594" xlink:href="#m9a6e735800" y="99.530165"/>
     <use style="fill:#ff0000;" x="646.447594" xlink:href="#m9a6e735800" y="99.530165"/>
     <use style="fill:#ff0000;" x="653.143594" xlink:href="#m9a6e735800" y="99.530165"/>
     <use style="fill:#ff0000;" x="659.839594" xlink:href="#m9a6e735800" y="99.530165"/>
     <use style="fill:#ff0000;" x="666.535594" xlink:href="#m9a6e735800" y="99.530165"/>
     <use style="fill:#ff0000;" x="673.231594" xlink:href="#m9a6e735800" y="99.530165"/>
     <use style="fill:#ff0000;" x="679.927594" xlink:href="#m9a6e735800" y="99.530165"/>
     <use style="fill:#ff0000;" x="686.623594" xlink:href="#m9a6e735800" y="99.530165"/>
     <use style="fill:#ff0000;" x="693.319594" xlink:href="#m9a6e735800" y="99.530165"/>
     <use style="fill:#ff0000;" x="700.015594" xlink:href="#m9a6e735800" y="99.530165"/>
     <use style="fill:#ff0000;" x="706.711594" xlink:href="#m9a6e735800" y="99.530165"/>
     <use style="fill:#ff0000;" x="713.407594" xlink:href="#m9a6e735800" y="99.530165"/>
     <use style="fill:#ff0000;" x="720.103594" xlink:href="#m9a6e735800" y="99.530165"/>
     <use style="fill:#ff0000;" x="726.799594" xlink:href="#m9a6e735800" y="99.530165"/>
     <use style="fill:#ff0000;" x="733.495594" xlink:href="#m9a6e735800" y="99.530165"/>
     <use style="fill:#ff0000;" x="740.191594" xlink:href="#m9a6e735800" y="99.530165"/>
     <use style="fill:#ff0000;" x="746.887594" xlink:href="#m9a6e735800" y="99.530165"/>
     <use style="fill:#ff0000;" x="753.583594" xlink:href="#m9a6e735800" y="99.530165"/>
     <use style="fill:#ff0000;" x="760.279594" xlink:href="#m9a6e735800" y="99.530165"/>
     <use style="fill:#ff0000;" x="766.975594" xlink:href="#m9a6e735800" y="99.530165"/>
     <use style="fill:#ff0000;" x="773.671594" xlink:href="#m9a6e735800" y="99.530165"/>
     <use style="fill:#ff0000;" x="780.367594" xlink:href="#m9a6e735800" y="99.530165"/>
     <use style="fill:#ff0000;" x="787.063594" xlink:href="#m9a6e735800" y="99.530165"/>
     <use style="fill:#ff0000;" x="793.759594" xlink:href="#m9a6e735800" y="99.530165"/>
     <use style="fill:#ff0000;" x="800.455594" xlink:href="#m9a6e735800" y="99.530165"/>
     <use style="fill:#ff0000;" x="807.151594" xlink:href="#m9a6e735800" y="99.530165"/>
     <use style="fill:#ff0000;" x="813.847594" xlink:href="#m9a6e735800" y="99.530165"/>
     <use style="fill:#ff0000;" x="820.543594" xlink:href="#m9a6e735800" y="99.530165"/>
     <use style="fill:#ff0000;" x="827.239594" xlink:href="#m9a6e735800" y="99.530165"/>
     <use style="fill:#ff0000;" x="833.935594" xlink:href="#m9a6e735800" y="99.530165"/>
     <use style="fill:#ff0000;" x="840.631594" xlink:href="#m9a6e735800" y="99.530165"/>
     <use style="fill:#ff0000;" x="847.327594" xlink:href="#m9a6e735800" y="99.530165"/>
     <use style="fill:#ff0000;" x="854.023594" xlink:href="#m9a6e735800" y="99.530165"/>
     <use style="fill:#ff0000;" x="860.719594" xlink:href="#m9a6e735800" y="99.530165"/>
     <use style="fill:#ff0000;" x="867.415594" xlink:href="#m9a6e735800" y="99.530165"/>
     <use style="fill:#ff0000;" x="874.111594" xlink:href="#m9a6e735800" y="99.530165"/>
     <use style="fill:#ff0000;" x="880.807594" xlink:href="#m9a6e735800" y="99.530165"/>
     <use style="fill:#ff0000;" x="887.503594" xlink:href="#m9a6e735800" y="99.530165"/>
     <use style="fill:#ff0000;" x="894.199594" xlink:href="#m9a6e735800" y="99.530165"/>
     <use style="fill:#ff0000;" x="900.895594" xlink:href="#m9a6e735800" y="99.530165"/>
     <use style="fill:#ff0000;" x="907.591594" xlink:href="#m9a6e735800" y="99.530165"/>
     <use style="fill:#ff0000;" x="914.287594" xlink:href="#m9a6e735800" y="99.530165"/>
     <use style="fill:#ff0000;" x="920.983594" xlink:href="#m9a6e735800" y="99.530165"/>
     <use style="fill:#ff0000;" x="927.679594" xlink:href="#m9a6e735800" y="99.530165"/>
     <use style="fill:#ff0000;" x="934.375594" xlink:href="#m9a6e735800" y="99.530165"/>
     <use style="fill:#ff0000;" x="941.071594" xlink:href="#m9a6e735800" y="99.530165"/>
     <use style="fill:#ff0000;" x="947.767594" xlink:href="#m9a6e735800" y="99.530165"/>
     <use style="fill:#ff0000;" x="954.463594" xlink:href="#m9a6e735800" y="99.530165"/>
     <use style="fill:#ff0000;" x="961.159594" xlink:href="#m9a6e735800" y="99.530165"/>
     <use style="fill:#ff0000;" x="967.855594" xlink:href="#m9a6e735800" y="99.530165"/>
     <use style="fill:#ff0000;" x="974.551594" xlink:href="#m9a6e735800" y="99.530165"/>
     <use style="fill:#ff0000;" x="981.247594" xlink:href="#m9a6e735800" y="99.530165"/>
     <use style="fill:#ff0000;" x="987.943594" xlink:href="#m9a6e735800" y="99.530165"/>
     <use style="fill:#ff0000;" x="994.639594" xlink:href="#m9a6e735800" y="99.530165"/>
     <use style="fill:#ff0000;" x="1001.335594" xlink:href="#m9a6e735800" y="99.530165"/>
     <use style="fill:#ff0000;" x="1008.031594" xlink:href="#m9a6e735800" y="99.530165"/>
     <use style="fill:#ff0000;" x="1014.727594" xlink:href="#m9a6e735800" y="99.530165"/>
     <use style="fill:#ff0000;" x="1021.423594" xlink:href="#m9a6e735800" y="99.530165"/>
     <use style="fill:#ff0000;" x="1028.119594" xlink:href="#m9a6e735800" y="99.530165"/>
     <use style="fill:#ff0000;" x="1034.815594" xlink:href="#m9a6e735800" y="99.530165"/>
     <use style="fill:#ff0000;" x="1041.511594" xlink:href="#m9a6e735800" y="99.530165"/>
     <use style="fill:#ff0000;" x="1048.207594" xlink:href="#m9a6e735800" y="99.530165"/>
     <use style="fill:#ff0000;" x="1054.903594" xlink:href="#m9a6e735800" y="99.530165"/>
     <use style="fill:#ff0000;" x="1061.599594" xlink:href="#m9a6e735800" y="99.530165"/>
     <use style="fill:#ff0000;" x="1068.295594" xlink:href="#m9a6e735800" y="99.530165"/>
     <use style="fill:#ff0000;" x="1074.991594" xlink:href="#m9a6e735800" y="99.530165"/>
     <use style="fill:#ff0000;" x="1081.687594" xlink:href="#m9a6e735800" y="99.530165"/>
     <use style="fill:#ff0000;" x="1088.383594" xlink:href="#m9a6e735800" y="99.530165"/>
     <use style="fill:#ff0000;" x="1095.079594" xlink:href="#m9a6e735800" y="99.530165"/>
     <use style="fill:#ff0000;" x="1101.775594" xlink:href="#m9a6e735800" y="99.530165"/>
     <use style="fill:#ff0000;" x="1108.471594" xlink:href="#m9a6e735800" y="99.530165"/>
     <use style="fill:#ff0000;" x="1115.167594" xlink:href="#m9a6e735800" y="99.530165"/>
     <use style="fill:#ff0000;" x="1121.863594" xlink:href="#m9a6e735800" y="99.530165"/>
     <use style="fill:#ff0000;" x="1128.559594" xlink:href="#m9a6e735800" y="99.530165"/>
     <use style="fill:#ff0000;" x="1135.255594" xlink:href="#m9a6e735800" y="99.530165"/>
     <use style="fill:#ff0000;" x="1141.951594" xlink:href="#m9a6e735800" y="99.530165"/>
     <use style="fill:#ff0000;" x="1148.647594" xlink:href="#m9a6e735800" y="99.530165"/>
     <use style="fill:#ff0000;" x="1155.343594" xlink:href="#m9a6e735800" y="99.530165"/>
     <use style="fill:#ff0000;" x="1162.039594" xlink:href="#m9a6e735800" y="99.530165"/>
     <use style="fill:#ff0000;" x="1168.735594" xlink:href="#m9a6e735800" y="99.530165"/>
     <use style="fill:#ff0000;" x="1175.431594" xlink:href="#m9a6e735800" y="99.530165"/>
     <use style="fill:#ff0000;" x="1182.127594" xlink:href="#m9a6e735800" y="99.530165"/>
     <use style="fill:#ff0000;" x="1188.823594" xlink:href="#m9a6e735800" y="99.530165"/>
    </g>
   </g>
   <g id="line2d_30">
    <defs>
     <path d="M 0 1.75 
C 0.464105 1.75 0.909265 1.565609 1.237437 1.237437 
C 1.565609 0.909265 1.75 0.464105 1.75 0 
C 1.75 -0.464105 1.565609 -0.909265 1.237437 -1.237437 
C 0.909265 -1.565609 0.464105 -1.75 0 -1.75 
C -0.464105 -1.75 -0.909265 -1.565609 -1.237437 -1.237437 
C -1.565609 -0.909265 -1.75 -0.464105 -1.75 0 
C -1.75 0.464105 -1.565609 0.909265 -1.237437 1.237437 
C -0.909265 1.565609 -0.464105 1.75 0 1.75 
z
" id="m50df57df07"/>
    </defs>
    <g clip-path="url(#p5fafaa2ed9)">
     <use style="fill:#008000;" x="50.503594" xlink:href="#m50df57df07" y="347.297323"/>
     <use style="fill:#008000;" x="57.199594" xlink:href="#m50df57df07" y="346.970346"/>
     <use style="fill:#008000;" x="63.895594" xlink:href="#m50df57df07" y="346.806857"/>
     <use style="fill:#008000;" x="70.591594" xlink:href="#m50df57df07" y="346.152902"/>
     <use style="fill:#008000;" x="77.287594" xlink:href="#m50df57df07" y="345.907669"/>
     <use style="fill:#008000;" x="83.983594" xlink:href="#m50df57df07" y="345.498947"/>
     <use style="fill:#008000;" x="90.679594" xlink:href="#m50df57df07" y="344.681504"/>
     <use style="fill:#008000;" x="97.375594" xlink:href="#m50df57df07" y="343.618827"/>
     <use style="fill:#008000;" x="104.071594" xlink:href="#m50df57df07" y="341.493474"/>
     <use style="fill:#008000;" x="110.767594" xlink:href="#m50df57df07" y="337.896722"/>
     <use style="fill:#008000;" x="117.463594" xlink:href="#m50df57df07" y="333.809504"/>
     <use style="fill:#008000;" x="124.159594" xlink:href="#m50df57df07" y="329.477053"/>
     <use style="fill:#008000;" x="130.855594" xlink:href="#m50df57df07" y="325.962045"/>
     <use style="fill:#008000;" x="137.551594" xlink:href="#m50df57df07" y="322.855759"/>
     <use style="fill:#008000;" x="144.247594" xlink:href="#m50df57df07" y="320.076451"/>
     <use style="fill:#008000;" x="150.943594" xlink:href="#m50df57df07" y="317.378887"/>
     <use style="fill:#008000;" x="157.639594" xlink:href="#m50df57df07" y="316.561444"/>
     <use style="fill:#008000;" x="164.335594" xlink:href="#m50df57df07" y="315.417023"/>
     <use style="fill:#008000;" x="171.031594" xlink:href="#m50df57df07" y="313.12818"/>
     <use style="fill:#008000;" x="177.727594" xlink:href="#m50df57df07" y="312.147248"/>
     <use style="fill:#008000;" x="184.423594" xlink:href="#m50df57df07" y="311.329805"/>
     <use style="fill:#008000;" x="191.119594" xlink:href="#m50df57df07" y="310.512361"/>
     <use style="fill:#008000;" x="197.815594" xlink:href="#m50df57df07" y="309.694917"/>
     <use style="fill:#008000;" x="204.511594" xlink:href="#m50df57df07" y="310.267128"/>
     <use style="fill:#008000;" x="211.207594" xlink:href="#m50df57df07" y="309.858406"/>
     <use style="fill:#008000;" x="217.903594" xlink:href="#m50df57df07" y="308.795729"/>
     <use style="fill:#008000;" x="224.599594" xlink:href="#m50df57df07" y="308.141774"/>
     <use style="fill:#008000;" x="231.295594" xlink:href="#m50df57df07" y="307.733053"/>
     <use style="fill:#008000;" x="237.991594" xlink:href="#m50df57df07" y="308.06003"/>
     <use style="fill:#008000;" x="244.687594" xlink:href="#m50df57df07" y="307.978286"/>
     <use style="fill:#008000;" x="251.383594" xlink:href="#m50df57df07" y="307.651308"/>
     <use style="fill:#008000;" x="258.079594" xlink:href="#m50df57df07" y="308.550496"/>
     <use style="fill:#008000;" x="264.775594" xlink:href="#m50df57df07" y="308.795729"/>
     <use style="fill:#008000;" x="271.471594" xlink:href="#m50df57df07" y="308.959218"/>
     <use style="fill:#008000;" x="278.167594" xlink:href="#m50df57df07" y="309.449684"/>
     <use style="fill:#008000;" x="284.863594" xlink:href="#m50df57df07" y="310.348872"/>
     <use style="fill:#008000;" x="291.559594" xlink:href="#m50df57df07" y="310.757594"/>
     <use style="fill:#008000;" x="298.255594" xlink:href="#m50df57df07" y="311.24806"/>
     <use style="fill:#008000;" x="304.951594" xlink:href="#m50df57df07" y="312.392481"/>
     <use style="fill:#008000;" x="311.647594" xlink:href="#m50df57df07" y="313.618647"/>
     <use style="fill:#008000;" x="318.343594" xlink:href="#m50df57df07" y="314.109113"/>
     <use style="fill:#008000;" x="325.039594" xlink:href="#m50df57df07" y="315.171789"/>
     <use style="fill:#008000;" x="331.735594" xlink:href="#m50df57df07" y="316.643188"/>
     <use style="fill:#008000;" x="338.431594" xlink:href="#m50df57df07" y="317.378887"/>
     <use style="fill:#008000;" x="345.127594" xlink:href="#m50df57df07" y="319.259008"/>
     <use style="fill:#008000;" x="351.823594" xlink:href="#m50df57df07" y="320.158195"/>
     <use style="fill:#008000;" x="358.519594" xlink:href="#m50df57df07" y="320.975639"/>
     <use style="fill:#008000;" x="365.215594" xlink:href="#m50df57df07" y="322.201805"/>
     <use style="fill:#008000;" x="371.911594" xlink:href="#m50df57df07" y="322.937504"/>
     <use style="fill:#008000;" x="378.607594" xlink:href="#m50df57df07" y="323.591459"/>
     <use style="fill:#008000;" x="385.303594" xlink:href="#m50df57df07" y="324.73588"/>
     <use style="fill:#008000;" x="391.999594" xlink:href="#m50df57df07" y="325.471579"/>
     <use style="fill:#008000;" x="398.695594" xlink:href="#m50df57df07" y="326.043789"/>
     <use style="fill:#008000;" x="405.391594" xlink:href="#m50df57df07" y="326.207278"/>
     <use style="fill:#008000;" x="412.087594" xlink:href="#m50df57df07" y="327.188211"/>
     <use style="fill:#008000;" x="418.783594" xlink:href="#m50df57df07" y="327.92391"/>
     <use style="fill:#008000;" x="425.479594" xlink:href="#m50df57df07" y="328.986586"/>
     <use style="fill:#008000;" x="432.175594" xlink:href="#m50df57df07" y="329.722286"/>
     <use style="fill:#008000;" x="438.871594" xlink:href="#m50df57df07" y="330.457985"/>
     <use style="fill:#008000;" x="445.567594" xlink:href="#m50df57df07" y="330.703218"/>
     <use style="fill:#008000;" x="452.263594" xlink:href="#m50df57df07" y="331.193684"/>
     <use style="fill:#008000;" x="458.959594" xlink:href="#m50df57df07" y="331.357173"/>
     <use style="fill:#008000;" x="465.655594" xlink:href="#m50df57df07" y="332.092872"/>
     <use style="fill:#008000;" x="472.351594" xlink:href="#m50df57df07" y="332.746827"/>
     <use style="fill:#008000;" x="479.047594" xlink:href="#m50df57df07" y="333.319038"/>
     <use style="fill:#008000;" x="485.743594" xlink:href="#m50df57df07" y="333.809504"/>
     <use style="fill:#008000;" x="492.439594" xlink:href="#m50df57df07" y="334.381714"/>
     <use style="fill:#008000;" x="499.135594" xlink:href="#m50df57df07" y="335.199158"/>
     <use style="fill:#008000;" x="505.831594" xlink:href="#m50df57df07" y="335.771368"/>
     <use style="fill:#008000;" x="512.527594" xlink:href="#m50df57df07" y="336.343579"/>
     <use style="fill:#008000;" x="519.223594" xlink:href="#m50df57df07" y="336.670556"/>
     <use style="fill:#008000;" x="525.919594" xlink:href="#m50df57df07" y="337.242767"/>
     <use style="fill:#008000;" x="532.615594" xlink:href="#m50df57df07" y="337.651489"/>
     <use style="fill:#008000;" x="539.311594" xlink:href="#m50df57df07" y="338.060211"/>
     <use style="fill:#008000;" x="546.007594" xlink:href="#m50df57df07" y="338.550677"/>
     <use style="fill:#008000;" x="552.703594" xlink:href="#m50df57df07" y="339.041143"/>
     <use style="fill:#008000;" x="559.399594" xlink:href="#m50df57df07" y="339.36812"/>
     <use style="fill:#008000;" x="566.095594" xlink:href="#m50df57df07" y="339.613353"/>
     <use style="fill:#008000;" x="572.791594" xlink:href="#m50df57df07" y="339.940331"/>
     <use style="fill:#008000;" x="579.487594" xlink:href="#m50df57df07" y="340.512541"/>
     <use style="fill:#008000;" x="586.183594" xlink:href="#m50df57df07" y="340.839519"/>
     <use style="fill:#008000;" x="592.879594" xlink:href="#m50df57df07" y="341.003008"/>
     <use style="fill:#008000;" x="599.575594" xlink:href="#m50df57df07" y="341.248241"/>
     <use style="fill:#008000;" x="606.271594" xlink:href="#m50df57df07" y="341.656962"/>
     <use style="fill:#008000;" x="612.967594" xlink:href="#m50df57df07" y="341.820451"/>
     <use style="fill:#008000;" x="619.663594" xlink:href="#m50df57df07" y="342.310917"/>
     <use style="fill:#008000;" x="626.359594" xlink:href="#m50df57df07" y="342.637895"/>
     <use style="fill:#008000;" x="633.055594" xlink:href="#m50df57df07" y="342.964872"/>
     <use style="fill:#008000;" x="639.751594" xlink:href="#m50df57df07" y="343.29185"/>
     <use style="fill:#008000;" x="646.447594" xlink:href="#m50df57df07" y="343.700571"/>
     <use style="fill:#008000;" x="653.143594" xlink:href="#m50df57df07" y="344.191038"/>
     <use style="fill:#008000;" x="659.839594" xlink:href="#m50df57df07" y="344.518015"/>
     <use style="fill:#008000;" x="666.535594" xlink:href="#m50df57df07" y="344.681504"/>
     <use style="fill:#008000;" x="673.231594" xlink:href="#m50df57df07" y="344.763248"/>
     <use style="fill:#008000;" x="679.927594" xlink:href="#m50df57df07" y="344.926737"/>
     <use style="fill:#008000;" x="686.623594" xlink:href="#m50df57df07" y="345.090226"/>
     <use style="fill:#008000;" x="693.319594" xlink:href="#m50df57df07" y="345.335459"/>
     <use style="fill:#008000;" x="700.015594" xlink:href="#m50df57df07" y="345.498947"/>
     <use style="fill:#008000;" x="706.711594" xlink:href="#m50df57df07" y="345.498947"/>
     <use style="fill:#008000;" x="713.407594" xlink:href="#m50df57df07" y="345.498947"/>
     <use style="fill:#008000;" x="720.103594" xlink:href="#m50df57df07" y="345.580692"/>
     <use style="fill:#008000;" x="726.799594" xlink:href="#m50df57df07" y="345.580692"/>
     <use style="fill:#008000;" x="733.495594" xlink:href="#m50df57df07" y="345.662436"/>
     <use style="fill:#008000;" x="740.191594" xlink:href="#m50df57df07" y="345.825925"/>
     <use style="fill:#008000;" x="746.887594" xlink:href="#m50df57df07" y="345.825925"/>
     <use style="fill:#008000;" x="753.583594" xlink:href="#m50df57df07" y="345.825925"/>
     <use style="fill:#008000;" x="760.279594" xlink:href="#m50df57df07" y="345.907669"/>
     <use style="fill:#008000;" x="766.975594" xlink:href="#m50df57df07" y="345.907669"/>
     <use style="fill:#008000;" x="773.671594" xlink:href="#m50df57df07" y="345.989414"/>
     <use style="fill:#008000;" x="780.367594" xlink:href="#m50df57df07" y="346.152902"/>
     <use style="fill:#008000;" x="787.063594" xlink:href="#m50df57df07" y="346.398135"/>
     <use style="fill:#008000;" x="793.759594" xlink:href="#m50df57df07" y="346.398135"/>
     <use style="fill:#008000;" x="800.455594" xlink:href="#m50df57df07" y="346.643368"/>
     <use style="fill:#008000;" x="807.151594" xlink:href="#m50df57df07" y="346.806857"/>
     <use style="fill:#008000;" x="813.847594" xlink:href="#m50df57df07" y="346.888602"/>
     <use style="fill:#008000;" x="820.543594" xlink:href="#m50df57df07" y="346.888602"/>
     <use style="fill:#008000;" x="827.239594" xlink:href="#m50df57df07" y="346.888602"/>
     <use style="fill:#008000;" x="833.935594" xlink:href="#m50df57df07" y="346.888602"/>
     <use style="fill:#008000;" x="840.631594" xlink:href="#m50df57df07" y="346.970346"/>
     <use style="fill:#008000;" x="847.327594" xlink:href="#m50df57df07" y="346.970346"/>
     <use style="fill:#008000;" x="854.023594" xlink:href="#m50df57df07" y="346.970346"/>
     <use style="fill:#008000;" x="860.719594" xlink:href="#m50df57df07" y="346.970346"/>
     <use style="fill:#008000;" x="867.415594" xlink:href="#m50df57df07" y="347.133835"/>
     <use style="fill:#008000;" x="874.111594" xlink:href="#m50df57df07" y="347.133835"/>
     <use style="fill:#008000;" x="880.807594" xlink:href="#m50df57df07" y="347.133835"/>
     <use style="fill:#008000;" x="887.503594" xlink:href="#m50df57df07" y="347.133835"/>
     <use style="fill:#008000;" x="894.199594" xlink:href="#m50df57df07" y="347.215579"/>
     <use style="fill:#008000;" x="900.895594" xlink:href="#m50df57df07" y="347.215579"/>
     <use style="fill:#008000;" x="907.591594" xlink:href="#m50df57df07" y="347.297323"/>
     <use style="fill:#008000;" x="914.287594" xlink:href="#m50df57df07" y="347.460812"/>
     <use style="fill:#008000;" x="920.983594" xlink:href="#m50df57df07" y="347.542556"/>
     <use style="fill:#008000;" x="927.679594" xlink:href="#m50df57df07" y="347.542556"/>
     <use style="fill:#008000;" x="934.375594" xlink:href="#m50df57df07" y="347.624301"/>
     <use style="fill:#008000;" x="941.071594" xlink:href="#m50df57df07" y="347.706045"/>
     <use style="fill:#008000;" x="947.767594" xlink:href="#m50df57df07" y="347.869534"/>
     <use style="fill:#008000;" x="954.463594" xlink:href="#m50df57df07" y="347.869534"/>
     <use style="fill:#008000;" x="961.159594" xlink:href="#m50df57df07" y="347.951278"/>
     <use style="fill:#008000;" x="967.855594" xlink:href="#m50df57df07" y="347.951278"/>
     <use style="fill:#008000;" x="974.551594" xlink:href="#m50df57df07" y="348.033023"/>
     <use style="fill:#008000;" x="981.247594" xlink:href="#m50df57df07" y="348.033023"/>
     <use style="fill:#008000;" x="987.943594" xlink:href="#m50df57df07" y="348.114767"/>
     <use style="fill:#008000;" x="994.639594" xlink:href="#m50df57df07" y="348.114767"/>
     <use style="fill:#008000;" x="1001.335594" xlink:href="#m50df57df07" y="348.114767"/>
     <use style="fill:#008000;" x="1008.031594" xlink:href="#m50df57df07" y="348.196511"/>
     <use style="fill:#008000;" x="1014.727594" xlink:href="#m50df57df07" y="348.196511"/>
     <use style="fill:#008000;" x="1021.423594" xlink:href="#m50df57df07" y="348.196511"/>
     <use style="fill:#008000;" x="1028.119594" xlink:href="#m50df57df07" y="348.196511"/>
     <use style="fill:#008000;" x="1034.815594" xlink:href="#m50df57df07" y="348.278256"/>
     <use style="fill:#008000;" x="1041.511594" xlink:href="#m50df57df07" y="348.278256"/>
     <use style="fill:#008000;" x="1048.207594" xlink:href="#m50df57df07" y="348.278256"/>
     <use style="fill:#008000;" x="1054.903594" xlink:href="#m50df57df07" y="348.278256"/>
     <use style="fill:#008000;" x="1061.599594" xlink:href="#m50df57df07" y="348.278256"/>
     <use style="fill:#008000;" x="1068.295594" xlink:href="#m50df57df07" y="348.278256"/>
     <use style="fill:#008000;" x="1074.991594" xlink:href="#m50df57df07" y="348.278256"/>
     <use style="fill:#008000;" x="1081.687594" xlink:href="#m50df57df07" y="348.278256"/>
     <use style="fill:#008000;" x="1088.383594" xlink:href="#m50df57df07" y="348.278256"/>
     <use style="fill:#008000;" x="1095.079594" xlink:href="#m50df57df07" y="348.278256"/>
     <use style="fill:#008000;" x="1101.775594" xlink:href="#m50df57df07" y="348.278256"/>
     <use style="fill:#008000;" x="1108.471594" xlink:href="#m50df57df07" y="348.278256"/>
     <use style="fill:#008000;" x="1115.167594" xlink:href="#m50df57df07" y="348.278256"/>
     <use style="fill:#008000;" x="1121.863594" xlink:href="#m50df57df07" y="348.278256"/>
     <use style="fill:#008000;" x="1128.559594" xlink:href="#m50df57df07" y="348.278256"/>
     <use style="fill:#008000;" x="1135.255594" xlink:href="#m50df57df07" y="348.278256"/>
     <use style="fill:#008000;" x="1141.951594" xlink:href="#m50df57df07" y="348.278256"/>
     <use style="fill:#008000;" x="1148.647594" xlink:href="#m50df57df07" y="348.278256"/>
     <use style="fill:#008000;" x="1155.343594" xlink:href="#m50df57df07" y="348.278256"/>
     <use style="fill:#008000;" x="1162.039594" xlink:href="#m50df57df07" y="348.278256"/>
     <use style="fill:#008000;" x="1168.735594" xlink:href="#m50df57df07" y="348.278256"/>
     <use style="fill:#008000;" x="1175.431594" xlink:href="#m50df57df07" y="348.278256"/>
     <use style="fill:#008000;" x="1182.127594" xlink:href="#m50df57df07" y="348.278256"/>
     <use style="fill:#008000;" x="1188.823594" xlink:href="#m50df57df07" y="348.278256"/>
    </g>
   </g>
   <g id="patch_3">
    <path d="M 50.503594 348.36 
L 50.503594 22.2 
" style="fill:none;"/>
   </g>
   <g id="patch_4">
    <path d="M 385.303594 348.36 
L 385.303594 22.2 
" style="fill:none;"/>
   </g>
   <g id="patch_5">
    <path d="M 50.503594 348.36 
L 385.303594 348.36 
" style="fill:none;"/>
   </g>
   <g id="patch_6">
    <path d="M 50.503594 22.2 
L 385.303594 22.2 
" style="fill:none;"/>
   </g>
   <g id="text_17">
    <!-- SIR epidemic in the presence of 60% vaccination ($\kappa = 57.0$) -->
    <defs>
     <path d="M 4.5 23 
L 13.421875 23.78125 
Q 14.0625 18.40625 16.375 14.96875 
Q 18.703125 11.53125 23.578125 9.40625 
Q 28.46875 7.28125 34.578125 7.28125 
Q 39.984375 7.28125 44.140625 8.890625 
Q 48.296875 10.5 50.3125 13.296875 
Q 52.34375 16.109375 52.34375 19.4375 
Q 52.34375 22.796875 50.390625 25.3125 
Q 48.4375 27.828125 43.953125 29.546875 
Q 41.0625 30.671875 31.203125 33.03125 
Q 21.34375 35.40625 17.390625 37.5 
Q 12.25 40.1875 9.734375 44.15625 
Q 7.234375 48.140625 7.234375 53.078125 
Q 7.234375 58.5 10.296875 63.203125 
Q 13.375 67.921875 19.28125 70.359375 
Q 25.203125 72.796875 32.421875 72.796875 
Q 40.375 72.796875 46.453125 70.234375 
Q 52.546875 67.671875 55.8125 62.6875 
Q 59.078125 57.71875 59.328125 51.421875 
L 50.25 50.734375 
Q 49.515625 57.515625 45.28125 60.984375 
Q 41.0625 64.453125 32.8125 64.453125 
Q 24.21875 64.453125 20.28125 61.296875 
Q 16.359375 58.15625 16.359375 53.71875 
Q 16.359375 49.859375 19.140625 47.359375 
Q 21.875 44.875 33.421875 42.265625 
Q 44.96875 39.65625 49.265625 37.703125 
Q 55.515625 34.8125 58.484375 30.390625 
Q 61.46875 25.984375 61.46875 20.21875 
Q 61.46875 14.5 58.203125 9.4375 
Q 54.9375 4.390625 48.796875 1.578125 
Q 42.671875 -1.21875 35.015625 -1.21875 
Q 25.296875 -1.21875 18.71875 1.609375 
Q 12.15625 4.4375 8.421875 10.125 
Q 4.6875 15.828125 4.5 23 
z
" id="ArialMT-83"/>
     <path d="M 9.328125 0 
L 9.328125 71.578125 
L 18.796875 71.578125 
L 18.796875 0 
z
" id="ArialMT-73"/>
     <path d="M 7.859375 0 
L 7.859375 71.578125 
L 39.59375 71.578125 
Q 49.171875 71.578125 54.140625 69.640625 
Q 59.125 67.71875 62.109375 62.828125 
Q 65.09375 57.953125 65.09375 52.046875 
Q 65.09375 44.4375 60.15625 39.203125 
Q 55.21875 33.984375 44.921875 32.5625 
Q 48.6875 30.765625 50.640625 29 
Q 54.78125 25.203125 58.5 19.484375 
L 70.953125 0 
L 59.03125 0 
L 49.5625 14.890625 
Q 45.40625 21.34375 42.71875 24.75 
Q 40.046875 28.171875 37.921875 29.53125 
Q 35.796875 30.90625 33.59375 31.453125 
Q 31.984375 31.78125 28.328125 31.78125 
L 17.328125 31.78125 
L 17.328125 0 
z
M 17.328125 39.984375 
L 37.703125 39.984375 
Q 44.1875 39.984375 47.84375 41.328125 
Q 51.515625 42.671875 53.421875 45.625 
Q 55.328125 48.578125 55.328125 52.046875 
Q 55.328125 57.125 51.640625 60.390625 
Q 47.953125 63.671875 39.984375 63.671875 
L 17.328125 63.671875 
z
" id="ArialMT-82"/>
     <path d="M 42.09375 16.703125 
L 51.171875 15.578125 
Q 49.03125 7.625 43.21875 3.21875 
Q 37.40625 -1.171875 28.375 -1.171875 
Q 17 -1.171875 10.328125 5.828125 
Q 3.65625 12.84375 3.65625 25.484375 
Q 3.65625 38.578125 10.390625 45.796875 
Q 17.140625 53.03125 27.875 53.03125 
Q 38.28125 53.03125 44.875 45.953125 
Q 51.46875 38.875 51.46875 26.03125 
Q 51.46875 25.25 51.421875 23.6875 
L 12.75 23.6875 
Q 13.234375 15.140625 17.578125 10.59375 
Q 21.921875 6.0625 28.421875 6.0625 
Q 33.25 6.0625 36.671875 8.59375 
Q 40.09375 11.140625 42.09375 16.703125 
z
M 13.234375 30.90625 
L 42.1875 30.90625 
Q 41.609375 37.453125 38.875 40.71875 
Q 34.671875 45.796875 27.984375 45.796875 
Q 21.921875 45.796875 17.796875 41.75 
Q 13.671875 37.703125 13.234375 30.90625 
z
" id="ArialMT-101"/>
     <path d="M 40.234375 0 
L 40.234375 6.546875 
Q 35.296875 -1.171875 25.734375 -1.171875 
Q 19.53125 -1.171875 14.328125 2.25 
Q 9.125 5.671875 6.265625 11.796875 
Q 3.421875 17.921875 3.421875 25.875 
Q 3.421875 33.640625 6 39.96875 
Q 8.59375 46.296875 13.765625 49.65625 
Q 18.953125 53.03125 25.34375 53.03125 
Q 30.03125 53.03125 33.6875 51.046875 
Q 37.359375 49.078125 39.65625 45.90625 
L 39.65625 71.578125 
L 48.390625 71.578125 
L 48.390625 0 
z
M 12.453125 25.875 
Q 12.453125 15.921875 16.640625 10.984375 
Q 20.84375 6.0625 26.5625 6.0625 
Q 32.328125 6.0625 36.34375 10.765625 
Q 40.375 15.484375 40.375 25.140625 
Q 40.375 35.796875 36.265625 40.765625 
Q 32.171875 45.75 26.171875 45.75 
Q 20.3125 45.75 16.375 40.96875 
Q 12.453125 36.1875 12.453125 25.875 
z
" id="ArialMT-100"/>
     <path d="M 6.59375 0 
L 6.59375 51.859375 
L 14.453125 51.859375 
L 14.453125 44.578125 
Q 16.890625 48.390625 20.9375 50.703125 
Q 25 53.03125 30.171875 53.03125 
Q 35.9375 53.03125 39.625 50.640625 
Q 43.3125 48.25 44.828125 43.953125 
Q 50.984375 53.03125 60.84375 53.03125 
Q 68.5625 53.03125 72.703125 48.75 
Q 76.859375 44.484375 76.859375 35.59375 
L 76.859375 0 
L 68.109375 0 
L 68.109375 32.671875 
Q 68.109375 37.9375 67.25 40.25 
Q 66.40625 42.578125 64.15625 43.984375 
Q 61.921875 45.40625 58.890625 45.40625 
Q 53.421875 45.40625 49.796875 41.765625 
Q 46.1875 38.140625 46.1875 30.125 
L 46.1875 0 
L 37.40625 0 
L 37.40625 33.6875 
Q 37.40625 39.546875 35.25 42.46875 
Q 33.109375 45.40625 28.21875 45.40625 
Q 24.515625 45.40625 21.359375 43.453125 
Q 18.21875 41.5 16.796875 37.734375 
Q 15.375 33.984375 15.375 26.90625 
L 15.375 0 
z
" id="ArialMT-109"/>
     <path d="M 40.4375 19 
L 49.078125 17.875 
Q 47.65625 8.9375 41.8125 3.875 
Q 35.984375 -1.171875 27.484375 -1.171875 
Q 16.84375 -1.171875 10.375 5.78125 
Q 3.90625 12.75 3.90625 25.734375 
Q 3.90625 34.125 6.6875 40.421875 
Q 9.46875 46.734375 15.15625 49.875 
Q 20.84375 53.03125 27.546875 53.03125 
Q 35.984375 53.03125 41.359375 48.75 
Q 46.734375 44.484375 48.25 36.625 
L 39.703125 35.296875 
Q 38.484375 40.53125 35.375 43.15625 
Q 32.28125 45.796875 27.875 45.796875 
Q 21.234375 45.796875 17.078125 41.03125 
Q 12.9375 36.28125 12.9375 25.984375 
Q 12.9375 15.53125 16.9375 10.796875 
Q 20.953125 6.0625 27.390625 6.0625 
Q 32.5625 6.0625 36.03125 9.234375 
Q 39.5 12.40625 40.4375 19 
z
" id="ArialMT-99"/>
     <path d="M 6.5 0 
L 6.5 51.859375 
L 14.40625 51.859375 
L 14.40625 44 
Q 17.4375 49.515625 20 51.265625 
Q 22.5625 53.03125 25.640625 53.03125 
Q 30.078125 53.03125 34.671875 50.203125 
L 31.640625 42.046875 
Q 28.421875 43.953125 25.203125 43.953125 
Q 22.3125 43.953125 20.015625 42.21875 
Q 17.71875 40.484375 16.75 37.40625 
Q 15.28125 32.71875 15.28125 27.15625 
L 15.28125 0 
z
" id="ArialMT-114"/>
     <path d="M 8.6875 0 
L 8.6875 45.015625 
L 0.921875 45.015625 
L 0.921875 51.859375 
L 8.6875 51.859375 
L 8.6875 57.375 
Q 8.6875 62.59375 9.625 65.140625 
Q 10.890625 68.5625 14.078125 70.671875 
Q 17.28125 72.796875 23.046875 72.796875 
Q 26.765625 72.796875 31.25 71.921875 
L 29.9375 64.265625 
Q 27.203125 64.75 24.75 64.75 
Q 20.75 64.75 19.09375 63.03125 
Q 17.4375 61.328125 17.4375 56.640625 
L 17.4375 51.859375 
L 27.546875 51.859375 
L 27.546875 45.015625 
L 17.4375 45.015625 
L 17.4375 0 
z
" id="ArialMT-102"/>
     <path d="M 5.8125 54.390625 
Q 5.8125 62.0625 9.671875 67.421875 
Q 13.53125 72.796875 20.84375 72.796875 
Q 27.59375 72.796875 32 67.984375 
Q 36.421875 63.1875 36.421875 53.859375 
Q 36.421875 44.78125 31.953125 39.875 
Q 27.484375 34.96875 20.953125 34.96875 
Q 14.453125 34.96875 10.125 39.796875 
Q 5.8125 44.625 5.8125 54.390625 
z
M 21.09375 66.75 
Q 17.828125 66.75 15.65625 63.90625 
Q 13.484375 61.078125 13.484375 53.515625 
Q 13.484375 46.625 15.671875 43.8125 
Q 17.875 41.015625 21.09375 41.015625 
Q 24.421875 41.015625 26.59375 43.84375 
Q 28.765625 46.6875 28.765625 54.203125 
Q 28.765625 61.140625 26.5625 63.9375 
Q 24.359375 66.75 21.09375 66.75 
z
M 21.140625 -2.640625 
L 60.296875 72.796875 
L 67.4375 72.796875 
L 28.421875 -2.640625 
z
M 52.09375 16.796875 
Q 52.09375 24.515625 55.953125 29.859375 
Q 59.8125 35.203125 67.1875 35.203125 
Q 73.921875 35.203125 78.34375 30.390625 
Q 82.765625 25.59375 82.765625 16.265625 
Q 82.765625 7.171875 78.296875 2.265625 
Q 73.828125 -2.640625 67.234375 -2.640625 
Q 60.75 -2.640625 56.421875 2.21875 
Q 52.09375 7.078125 52.09375 16.796875 
z
M 67.4375 29.15625 
Q 64.109375 29.15625 61.9375 26.3125 
Q 59.765625 23.484375 59.765625 15.921875 
Q 59.765625 9.078125 61.953125 6.25 
Q 64.15625 3.421875 67.390625 3.421875 
Q 70.75 3.421875 72.921875 6.25 
Q 75.09375 9.078125 75.09375 16.609375 
Q 75.09375 23.53125 72.890625 26.34375 
Q 70.703125 29.15625 67.4375 29.15625 
z
" id="ArialMT-37"/>
     <path d="M 21 0 
L 1.265625 51.859375 
L 10.546875 51.859375 
L 21.6875 20.796875 
Q 23.484375 15.765625 25 10.359375 
Q 26.171875 14.453125 28.265625 20.21875 
L 39.796875 51.859375 
L 48.828125 51.859375 
L 29.203125 0 
z
" id="ArialMT-118"/>
     <path d="M 23.390625 -21.046875 
Q 16.109375 -11.859375 11.078125 0.4375 
Q 6.0625 12.75 6.0625 25.921875 
Q 6.0625 37.546875 9.8125 48.1875 
Q 14.203125 60.546875 23.390625 72.796875 
L 29.6875 72.796875 
Q 23.78125 62.640625 21.875 58.296875 
Q 18.890625 51.5625 17.1875 44.234375 
Q 15.09375 35.109375 15.09375 25.875 
Q 15.09375 2.390625 29.6875 -21.046875 
z
" id="ArialMT-40"/>
     <path d="M 14.65625 54.6875 
L 23.921875 54.6875 
L 19.484375 31.984375 
L 47.515625 54.6875 
L 58.453125 54.6875 
L 32.90625 34.078125 
L 51.171875 0 
L 40.1875 0 
L 25.4375 28.21875 
L 17.53125 21.921875 
L 13.28125 0 
L 4 0 
z
" id="DejaVuSans-Oblique-954"/>
     <path d="M 10.59375 45.40625 
L 73.1875 45.40625 
L 73.1875 37.203125 
L 10.59375 37.203125 
z
M 10.59375 25.484375 
L 73.1875 25.484375 
L 73.1875 17.1875 
L 10.59375 17.1875 
z
" id="DejaVuSans-61"/>
     <path d="M 10.796875 72.90625 
L 49.515625 72.90625 
L 49.515625 64.59375 
L 19.828125 64.59375 
L 19.828125 46.734375 
Q 21.96875 47.46875 24.109375 47.828125 
Q 26.265625 48.1875 28.421875 48.1875 
Q 40.625 48.1875 47.75 41.5 
Q 54.890625 34.8125 54.890625 23.390625 
Q 54.890625 11.625 47.5625 5.09375 
Q 40.234375 -1.421875 26.90625 -1.421875 
Q 22.3125 -1.421875 17.546875 -0.640625 
Q 12.796875 0.140625 7.71875 1.703125 
L 7.71875 11.625 
Q 12.109375 9.234375 16.796875 8.0625 
Q 21.484375 6.890625 26.703125 6.890625 
Q 35.15625 6.890625 40.078125 11.328125 
Q 45.015625 15.765625 45.015625 23.390625 
Q 45.015625 31 40.078125 35.4375 
Q 35.15625 39.890625 26.703125 39.890625 
Q 22.75 39.890625 18.8125 39.015625 
Q 14.890625 38.140625 10.796875 36.28125 
z
" id="DejaVuSans-53"/>
     <path d="M 8.203125 72.90625 
L 55.078125 72.90625 
L 55.078125 68.703125 
L 28.609375 0 
L 18.3125 0 
L 43.21875 64.59375 
L 8.203125 64.59375 
z
" id="DejaVuSans-55"/>
     <path d="M 10.6875 12.40625 
L 21 12.40625 
L 21 0 
L 10.6875 0 
z
" id="DejaVuSans-46"/>
     <path d="M 31.78125 66.40625 
Q 24.171875 66.40625 20.328125 58.90625 
Q 16.5 51.421875 16.5 36.375 
Q 16.5 21.390625 20.328125 13.890625 
Q 24.171875 6.390625 31.78125 6.390625 
Q 39.453125 6.390625 43.28125 13.890625 
Q 47.125 21.390625 47.125 36.375 
Q 47.125 51.421875 43.28125 58.90625 
Q 39.453125 66.40625 31.78125 66.40625 
z
M 31.78125 74.21875 
Q 44.046875 74.21875 50.515625 64.515625 
Q 56.984375 54.828125 56.984375 36.375 
Q 56.984375 17.96875 50.515625 8.265625 
Q 44.046875 -1.421875 31.78125 -1.421875 
Q 19.53125 -1.421875 13.0625 8.265625 
Q 6.59375 17.96875 6.59375 36.375 
Q 6.59375 54.828125 13.0625 64.515625 
Q 19.53125 74.21875 31.78125 74.21875 
z
" id="DejaVuSans-48"/>
     <path d="M 12.359375 -21.046875 
L 6.0625 -21.046875 
Q 20.65625 2.390625 20.65625 25.875 
Q 20.65625 35.0625 18.5625 44.09375 
Q 16.890625 51.421875 13.921875 58.15625 
Q 12.015625 62.546875 6.0625 72.796875 
L 12.359375 72.796875 
Q 21.53125 60.546875 25.921875 48.1875 
Q 29.6875 37.546875 29.6875 25.921875 
Q 29.6875 12.75 24.625 0.4375 
Q 19.578125 -11.859375 12.359375 -21.046875 
z
" id="ArialMT-41"/>
    </defs>
    <g style="fill:#262626;" transform="translate(58.003594 16.2)scale(0.12 -0.12)">
     <use transform="translate(0 0.78125)" xlink:href="#ArialMT-83"/>
     <use transform="translate(66.699219 0.78125)" xlink:href="#ArialMT-73"/>
     <use transform="translate(94.482422 0.78125)" xlink:href="#ArialMT-82"/>
     <use transform="translate(166.699219 0.78125)" xlink:href="#ArialMT-32"/>
     <use transform="translate(194.482422 0.78125)" xlink:href="#ArialMT-101"/>
     <use transform="translate(250.097656 0.78125)" xlink:href="#ArialMT-112"/>
     <use transform="translate(305.712891 0.78125)" xlink:href="#ArialMT-105"/>
     <use transform="translate(327.929688 0.78125)" xlink:href="#ArialMT-100"/>
     <use transform="translate(383.544922 0.78125)" xlink:href="#ArialMT-101"/>
     <use transform="translate(439.160156 0.78125)" xlink:href="#ArialMT-109"/>
     <use transform="translate(522.460938 0.78125)" xlink:href="#ArialMT-105"/>
     <use transform="translate(544.677734 0.78125)" xlink:href="#ArialMT-99"/>
     <use transform="translate(594.677734 0.78125)" xlink:href="#ArialMT-32"/>
     <use transform="translate(622.460938 0.78125)" xlink:href="#ArialMT-105"/>
     <use transform="translate(644.677734 0.78125)" xlink:href="#ArialMT-110"/>
     <use transform="translate(700.292969 0.78125)" xlink:href="#ArialMT-32"/>
     <use transform="translate(728.076172 0.78125)" xlink:href="#ArialMT-116"/>
     <use transform="translate(755.859375 0.78125)" xlink:href="#ArialMT-104"/>
     <use transform="translate(811.474609 0.78125)" xlink:href="#ArialMT-101"/>
     <use transform="translate(867.089844 0.78125)" xlink:href="#ArialMT-32"/>
     <use transform="translate(894.873047 0.78125)" xlink:href="#ArialMT-112"/>
     <use transform="translate(950.488281 0.78125)" xlink:href="#ArialMT-114"/>
     <use transform="translate(983.789062 0.78125)" xlink:href="#ArialMT-101"/>
     <use transform="translate(1039.404297 0.78125)" xlink:href="#ArialMT-115"/>
     <use transform="translate(1089.404297 0.78125)" xlink:href="#ArialMT-101"/>
     <use transform="translate(1145.019531 0.78125)" xlink:href="#ArialMT-110"/>
     <use transform="translate(1200.634766 0.78125)" xlink:href="#ArialMT-99"/>
     <use transform="translate(1250.634766 0.78125)" xlink:href="#ArialMT-101"/>
     <use transform="translate(1306.25 0.78125)" xlink:href="#ArialMT-32"/>
     <use transform="translate(1334.033203 0.78125)" xlink:href="#ArialMT-111"/>
     <use transform="translate(1389.648438 0.78125)" xlink:href="#ArialMT-102"/>
     <use transform="translate(1417.431641 0.78125)" xlink:href="#ArialMT-32"/>
     <use transform="translate(1445.214844 0.78125)" xlink:href="#ArialMT-54"/>
     <use transform="translate(1500.830078 0.78125)" xlink:href="#ArialMT-48"/>
     <use transform="translate(1556.445312 0.78125)" xlink:href="#ArialMT-37"/>
     <use transform="translate(1645.361328 0.78125)" xlink:href="#ArialMT-32"/>
     <use transform="translate(1673.144531 0.78125)" xlink:href="#ArialMT-118"/>
     <use transform="translate(1723.144531 0.78125)" xlink:href="#ArialMT-97"/>
     <use transform="translate(1778.759766 0.78125)" xlink:href="#ArialMT-99"/>
     <use transform="translate(1828.759766 0.78125)" xlink:href="#ArialMT-99"/>
     <use transform="translate(1878.759766 0.78125)" xlink:href="#ArialMT-105"/>
     <use transform="translate(1900.976562 0.78125)" xlink:href="#ArialMT-110"/>
     <use transform="translate(1956.591797 0.78125)" xlink:href="#ArialMT-97"/>
     <use transform="translate(2012.207031 0.78125)" xlink:href="#ArialMT-116"/>
     <use transform="translate(2039.990234 0.78125)" xlink:href="#ArialMT-105"/>
     <use transform="translate(2062.207031 0.78125)" xlink:href="#ArialMT-111"/>
     <use transform="translate(2117.822266 0.78125)" xlink:href="#ArialMT-110"/>
     <use transform="translate(2173.4375 0.78125)" xlink:href="#ArialMT-32"/>
     <use transform="translate(2201.220703 0.78125)" xlink:href="#ArialMT-40"/>
     <use transform="translate(2234.521484 0.78125)" xlink:href="#DejaVuSans-Oblique-954"/>
     <use transform="translate(2312.939453 0.78125)" xlink:href="#DejaVuSans-61"/>
     <use transform="translate(2416.210938 0.78125)" xlink:href="#DejaVuSans-53"/>
     <use transform="translate(2472.583984 0.78125)" xlink:href="#DejaVuSans-55"/>
     <use transform="translate(2536.207031 0.78125)" xlink:href="#DejaVuSans-46"/>
     <use transform="translate(2567.994141 0.78125)" xlink:href="#DejaVuSans-48"/>
     <use transform="translate(2631.617188 0.78125)" xlink:href="#ArialMT-41"/>
    </g>
   </g>
   <g id="legend_1">
    <g id="line2d_31"/>
    <g id="line2d_32">
     <g>
      <use style="fill:#ff0000;" x="313.277031" xlink:href="#m9a6e735800" y="34.857812"/>
     </g>
    </g>
    <g id="text_18">
     <!-- suceptible -->
     <defs>
      <path d="M 14.703125 0 
L 6.546875 0 
L 6.546875 71.578125 
L 15.328125 71.578125 
L 15.328125 46.046875 
Q 20.90625 53.03125 29.546875 53.03125 
Q 34.328125 53.03125 38.59375 51.09375 
Q 42.875 49.171875 45.625 45.671875 
Q 48.390625 42.1875 49.953125 37.25 
Q 51.515625 32.328125 51.515625 26.703125 
Q 51.515625 13.375 44.921875 6.09375 
Q 38.328125 -1.171875 29.109375 -1.171875 
Q 19.921875 -1.171875 14.703125 6.5 
z
M 14.59375 26.3125 
Q 14.59375 17 17.140625 12.84375 
Q 21.296875 6.0625 28.375 6.0625 
Q 34.125 6.0625 38.328125 11.0625 
Q 42.53125 16.0625 42.53125 25.984375 
Q 42.53125 36.140625 38.5 40.96875 
Q 34.46875 45.796875 28.765625 45.796875 
Q 23 45.796875 18.796875 40.796875 
Q 14.59375 35.796875 14.59375 26.3125 
z
" id="ArialMT-98"/>
     </defs>
     <g style="fill:#262626;" transform="translate(331.277031 38.357812)scale(0.1 -0.1)">
      <use xlink:href="#ArialMT-115"/>
      <use x="50" xlink:href="#ArialMT-117"/>
      <use x="105.615234" xlink:href="#ArialMT-99"/>
      <use x="155.615234" xlink:href="#ArialMT-101"/>
      <use x="211.230469" xlink:href="#ArialMT-112"/>
      <use x="266.845703" xlink:href="#ArialMT-116"/>
      <use x="294.628906" xlink:href="#ArialMT-105"/>
      <use x="316.845703" xlink:href="#ArialMT-98"/>
      <use x="372.460938" xlink:href="#ArialMT-108"/>
      <use x="394.677734" xlink:href="#ArialMT-101"/>
     </g>
    </g>
    <g id="line2d_33"/>
    <g id="line2d_34">
     <g>
      <use style="fill:#008000;" x="313.277031" xlink:href="#m50df57df07" y="49.003125"/>
     </g>
    </g>
    <g id="text_19">
     <!-- infected -->
     <g style="fill:#262626;" transform="translate(331.277031 52.503125)scale(0.1 -0.1)">
      <use xlink:href="#ArialMT-105"/>
      <use x="22.216797" xlink:href="#ArialMT-110"/>
      <use x="77.832031" xlink:href="#ArialMT-102"/>
      <use x="105.615234" xlink:href="#ArialMT-101"/>
      <use x="161.230469" xlink:href="#ArialMT-99"/>
      <use x="211.230469" xlink:href="#ArialMT-116"/>
      <use x="239.013672" xlink:href="#ArialMT-101"/>
      <use x="294.628906" xlink:href="#ArialMT-100"/>
     </g>
    </g>
   </g>
  </g>
 </g>
 <defs>
  <clipPath id="p5fafaa2ed9">
   <rect height="326.16" width="334.8" x="50.503594" y="22.2"/>
  </clipPath>
 </defs>
</svg>
