<?xml version="1.0" encoding="utf-8"?>
<!-- Generator: Adobe Illustrator 14.0.0, SVG Export Plug-In . SVG Version: 6.00 Build 43363)  -->
<!DOCTYPE svg PUBLIC "-//W3C//DTD SVG 1.1//EN" "http://www.w3.org/Graphics/SVG/1.1/DTD/svg11.dtd">
<svg version="1.1" id="Layer_1" xmlns="http://www.w3.org/2000/svg" xmlns:xlink="http://www.w3.org/1999/xlink" x="0px" y="0px"
	 width="918px" height="577.28px" viewBox="0 0 918 577.28" enable-background="new 0 0 918 577.28" xml:space="preserve">
<line fill="none" stroke="#000000" stroke-width="2" x1="36" y1="136.28" x2="396" y2="136.28"/>
<text transform="matrix(1 0 0 1 18 82.2803)" font-family="'MyriadPro-Regular'" font-size="10">infection</text>
<text transform="matrix(1 0 0 1 153 28.2803)"><tspan x="0" y="0" font-family="'MyriadPro-Regular'" font-size="10">onset of </tspan><tspan x="0" y="12" font-family="'MyriadPro-Regular'" font-size="10">infectiousness</tspan></text>
<text transform="matrix(1 0 0 1 234 73.2803)"><tspan x="0" y="0" font-family="'MyriadPro-Regular'" font-size="10">onset of</tspan><tspan x="0" y="12" font-family="'MyriadPro-Regular'" font-size="10">symptoms</tspan></text>
<text transform="matrix(1 0 0 1 297 28.2803)"><tspan x="0" y="0" font-family="'MyriadPro-Regular'" font-size="10">end of </tspan><tspan x="0" y="12" font-family="'MyriadPro-Regular'" font-size="10">infectiousness</tspan></text>
<text transform="matrix(1 0 0 1 369 82.2803)" font-family="'MyriadPro-Regular'" font-size="10">resolution</text>
<g>
	<g>
		<line fill="none" stroke="#000000" x1="36" y1="91.28" x2="36" y2="118.28"/>
		<polygon points="36,125.341 31.936,115.391 36,117.752 40.065,115.391 		"/>
	</g>
</g>
<g>
	<g>
		<line fill="none" stroke="#000000" x1="180" y1="46.28" x2="180" y2="118.28"/>
		<polygon points="180,125.341 175.935,115.391 180,117.752 184.064,115.391 		"/>
	</g>
</g>
<g>
	<g>
		<line fill="none" stroke="#000000" x1="252" y1="91.28" x2="252" y2="118.28"/>
		<polygon points="252,125.341 247.936,115.391 252,117.752 256.064,115.391 		"/>
	</g>
</g>
<g>
	<g>
		<line fill="none" stroke="#000000" x1="324" y1="55.28" x2="324" y2="127.28"/>
		<polygon points="324,134.341 319.936,124.391 324,126.752 328.064,124.391 		"/>
	</g>
</g>
<g>
	<g>
		<line fill="none" stroke="#000000" x1="396" y1="91.28" x2="396" y2="118.28"/>
		<polygon points="396,125.341 391.936,115.391 396,117.752 400.064,115.391 		"/>
	</g>
</g>
<text transform="matrix(1 0 0 1 81 172.2803)" font-family="'MyriadPro-Regular'" font-size="10">latent period</text>
<line fill="none" stroke="#000000" x1="36" y1="145.28" x2="36" y2="163.28"/>
<line fill="none" stroke="#000000" x1="180" y1="145.28" x2="180" y2="163.28"/>
<g>
	<g>
		<line fill="none" stroke="#000000" stroke-dasharray="6,6" x1="45" y1="154.28" x2="171" y2="154.28"/>
		<polygon points="178.061,154.28 168.111,158.346 170.472,154.28 168.111,150.216 		"/>
		<polygon points="37.939,154.28 47.889,150.215 45.528,154.28 47.889,158.345 		"/>
	</g>
</g>
<text transform="matrix(1 0 0 1 99 217.2803)" font-family="'MyriadPro-Regular'" font-size="10">incubation period</text>
<line fill="none" stroke="#000000" x1="36" y1="190.28" x2="36" y2="208.28"/>
<line fill="none" stroke="#000000" x1="252" y1="190.28" x2="252" y2="208.28"/>
<g>
	<g>
		<line fill="none" stroke="#000000" stroke-dasharray="6,6" x1="45" y1="199.28" x2="243" y2="199.28"/>
		<polygon points="250.061,199.28 240.111,203.346 242.473,199.28 240.111,195.216 		"/>
		<polygon points="37.939,199.28 47.889,195.215 45.528,199.28 47.889,203.345 		"/>
	</g>
</g>
<line fill="none" stroke="#000000" x1="324" y1="145.28" x2="324" y2="163.28"/>
<g>
	<g>
		<line fill="none" stroke="#000000" stroke-dasharray="6,6" x1="189" y1="154.28" x2="315" y2="154.28"/>
		<polygon points="322.061,154.28 312.11,158.346 314.472,154.28 312.11,150.216 		"/>
		<polygon points="181.939,154.28 191.889,150.215 189.528,154.28 191.889,158.345 		"/>
	</g>
</g>
<line fill="none" stroke="#000000" stroke-width="2" x1="522.001" y1="136.281" x2="882" y2="136.281"/>
<text transform="matrix(1 0 0 1 504 82.2803)" font-family="'MyriadPro-Regular'" font-size="10">infection</text>
<text transform="matrix(1 0 0 1 639 28.2803)"><tspan x="0" y="0" font-family="'MyriadPro-Regular'" font-size="10">onset of </tspan><tspan x="0" y="12" font-family="'MyriadPro-Regular'" font-size="10">infectiousness</tspan></text>
<text transform="matrix(1 0 0 1 576 28.2812)"><tspan x="0" y="0" font-family="'MyriadPro-Regular'" font-size="10">onset of</tspan><tspan x="0" y="12" font-family="'MyriadPro-Regular'" font-size="10">symptoms</tspan></text>
<text transform="matrix(1 0 0 1 783 28.2803)"><tspan x="0" y="0" font-family="'MyriadPro-Regular'" font-size="10">end of </tspan><tspan x="0" y="12" font-family="'MyriadPro-Regular'" font-size="10">infectiousness</tspan></text>
<text transform="matrix(1 0 0 1 855 82.2803)" font-family="'MyriadPro-Regular'" font-size="10">resolution</text>
<g>
	<g>
		<line fill="none" stroke="#000000" x1="522.001" y1="91.281" x2="522.001" y2="118.281"/>
		<polygon points="522.001,125.341 517.937,115.391 522.001,117.752 526.065,115.391 		"/>
	</g>
</g>
<g>
	<g>
		<line fill="none" stroke="#000000" x1="666" y1="46.281" x2="666" y2="118.281"/>
		<polygon points="666,125.341 661.936,115.391 666,117.752 670.064,115.391 		"/>
	</g>
</g>
<g>
	<g>
		<line fill="none" stroke="#000000" x1="594.001" y1="46.282" x2="594.001" y2="118.284"/>
		<polygon points="594.001,125.344 589.936,115.395 594.001,117.756 598.065,115.395 		"/>
	</g>
</g>
<g>
	<g>
		<line fill="none" stroke="#000000" x1="810" y1="55.281" x2="810" y2="127.281"/>
		<polygon points="810,134.341 805.936,124.391 810,126.752 814.064,124.391 		"/>
	</g>
</g>
<g>
	<g>
		<line fill="none" stroke="#000000" x1="882" y1="91.281" x2="882" y2="118.281"/>
		<polygon points="882,125.341 877.936,115.39 882,117.751 886.064,115.39 		"/>
	</g>
</g>
<text transform="matrix(1 0 0 1 567 172.2803)" font-family="'MyriadPro-Regular'" font-size="10">latent period</text>
<line fill="none" stroke="#000000" x1="522" y1="145.281" x2="522" y2="163.281"/>
<line fill="none" stroke="#000000" x1="666" y1="145.281" x2="666" y2="163.281"/>
<g>
	<g>
		<line fill="none" stroke="#000000" stroke-dasharray="6,6" x1="531" y1="154.281" x2="657" y2="154.281"/>
		<polygon points="664.061,154.281 654.111,158.345 656.473,154.281 654.111,150.216 		"/>
		<polygon points="523.939,154.281 533.89,150.214 531.528,154.281 533.89,158.345 		"/>
	</g>
</g>
<text transform="matrix(1 0 0 1 531 217.2803)"><tspan x="0" y="0" font-family="'MyriadPro-Regular'" font-size="10">incubation</tspan><tspan x="0" y="12" font-family="'MyriadPro-Regular'" font-size="10">period</tspan></text>
<line fill="none" stroke="#000000" x1="522" y1="190.281" x2="522" y2="208.281"/>
<line fill="none" stroke="#000000" x1="594" y1="190.281" x2="594" y2="208.281"/>
<g>
	<g>
		<line fill="none" stroke="#000000" stroke-dasharray="6,6" x1="531" y1="199.281" x2="584.998" y2="199.281"/>
		<polygon points="592.059,199.281 582.109,203.346 584.471,199.281 582.109,195.216 		"/>
		<polygon points="523.939,199.281 533.89,195.215 531.528,199.281 533.89,203.345 		"/>
	</g>
</g>
<text transform="matrix(1 0 0 1 693 172.2803)" font-family="'MyriadPro-Regular'" font-size="10">infectious period</text>
<line fill="none" stroke="#000000" x1="810" y1="145.281" x2="810" y2="163.281"/>
<g>
	<g>
		<line fill="none" stroke="#000000" stroke-dasharray="6,6" x1="675" y1="154.281" x2="801" y2="154.281"/>
		<polygon points="808.061,154.281 798.111,158.345 800.473,154.281 798.111,150.216 		"/>
		<polygon points="667.939,154.281 677.889,150.214 675.527,154.281 677.889,158.345 		"/>
	</g>
</g>
<text transform="matrix(1 0 0 1 207 172.2803)" font-family="'MyriadPro-Regular'" font-size="10">infectious period</text>
<line fill="none" stroke="#000000" stroke-width="2" x1="522.001" y1="442.281" x2="810" y2="442.281"/>
<text transform="matrix(1 0 0 1 504 388.2812)" font-family="'MyriadPro-Regular'" font-size="10">infection</text>
<text transform="matrix(1 0 0 1 567.002 379.2822)"><tspan x="0" y="0" font-family="'MyriadPro-Regular'" font-size="10">onset of symptoms </tspan><tspan x="0" y="12" font-family="'MyriadPro-Regular'" font-size="10">&amp; infectiousness</tspan></text>
<text transform="matrix(1 0 0 1 783 334.2812)"><tspan x="0" y="0" font-family="'MyriadPro-Regular'" font-size="10">end of infec</tspan><tspan x="49.15" y="0" font-family="'MyriadPro-Regular'" font-size="10">t</tspan><tspan x="52.859" y="0" font-family="'MyriadPro-Regular'" font-size="10">iousness</tspan><tspan x="0" y="12" font-family="'MyriadPro-Regular'" font-size="10">&amp; resolution</tspan></text>
<g>
	<g>
		<line fill="none" stroke="#000000" x1="522.001" y1="397.281" x2="522.001" y2="424.281"/>
		<polygon points="522.001,431.342 517.937,421.393 522.001,423.754 526.065,421.393 		"/>
	</g>
</g>
<g>
	<g>
		<line fill="none" stroke="#000000" x1="594.001" y1="397.281" x2="594.001" y2="424.285"/>
		<polygon points="594.001,431.346 589.936,421.396 594.001,423.758 598.065,421.396 		"/>
	</g>
</g>
<g>
	<g>
		<line fill="none" stroke="#000000" x1="810" y1="352.281" x2="810" y2="424.281"/>
		<polygon points="810,431.342 805.936,421.393 810,423.754 814.064,421.393 		"/>
	</g>
</g>
<text transform="matrix(1 0 0 1 531 478.2803)" font-family="'MyriadPro-Regular'" font-size="10">latent period</text>
<line fill="none" stroke="#000000" x1="522" y1="451.281" x2="522" y2="469.281"/>
<line fill="none" stroke="#000000" x1="594" y1="451.282" x2="594" y2="469.282"/>
<g>
	<g>
		<line fill="none" stroke="#000000" stroke-dasharray="6,6" x1="531" y1="460.281" x2="585" y2="460.281"/>
		<polygon points="592.061,460.281 582.111,464.346 584.473,460.281 582.111,456.217 		"/>
		<polygon points="523.939,460.281 533.889,456.217 531.527,460.281 533.889,464.346 		"/>
	</g>
</g>
<text transform="matrix(1 0 0 1 531 523.2812)"><tspan x="0" y="0" font-family="'MyriadPro-Regular'" font-size="10">incubation</tspan><tspan x="0" y="12" font-family="'MyriadPro-Regular'" font-size="10">period</tspan></text>
<line fill="none" stroke="#000000" x1="522" y1="496.281" x2="522" y2="514.281"/>
<line fill="none" stroke="#000000" x1="594" y1="496.281" x2="594" y2="514.281"/>
<g>
	<g>
		<line fill="none" stroke="#000000" stroke-dasharray="6,6" x1="531" y1="505.281" x2="584.998" y2="505.281"/>
		<polygon points="592.059,505.281 582.109,509.348 584.471,505.281 582.109,501.217 		"/>
		<polygon points="523.939,505.281 533.89,501.217 531.528,505.281 533.89,509.346 		"/>
	</g>
</g>
<text transform="matrix(1 0 0 1 675 478.2803)" font-family="'MyriadPro-Regular'" font-size="10">infectious period</text>
<line fill="none" stroke="#000000" x1="810" y1="451.281" x2="810" y2="469.281"/>
<g>
	<g>
		<line fill="none" stroke="#000000" stroke-dasharray="6,6" x1="603" y1="460.281" x2="801" y2="460.281"/>
		<polygon points="808.061,460.281 798.111,464.346 800.473,460.281 798.111,456.217 		"/>
		<polygon points="595.939,460.281 605.889,456.217 603.527,460.281 605.889,464.346 		"/>
	</g>
</g>
<line fill="none" stroke="#000000" stroke-width="2" x1="36.001" y1="442.28" x2="369" y2="442.28"/>
<text transform="matrix(1 0 0 1 18.0005 388.2793)" font-family="'MyriadPro-Regular'" font-size="10">infection</text>
<text transform="matrix(1 0 0 1 153.0005 334.2793)"><tspan x="0" y="0" font-family="'MyriadPro-Regular'" font-size="10">onset of </tspan><tspan x="0" y="12" font-family="'MyriadPro-Regular'" font-size="10">infectiousness</tspan></text>
<text transform="matrix(1 0 0 1 90.0005 334.2812)"><tspan x="0" y="0" font-family="'MyriadPro-Regular'" font-size="10">onset of</tspan><tspan x="0" y="12" font-family="'MyriadPro-Regular'" font-size="10">symptoms</tspan></text>
<text transform="matrix(1 0 0 1 342.0005 379.2793)"><tspan x="0" y="0" font-family="'MyriadPro-Regular'" font-size="10">end of </tspan><tspan x="0" y="12" font-family="'MyriadPro-Regular'" font-size="10">infectiousness</tspan></text>
<text transform="matrix(1 0 0 1 297.0005 343.2793)" font-family="'MyriadPro-Regular'" font-size="10">resolution</text>
<g>
	<g>
		<line fill="none" stroke="#000000" x1="36.001" y1="397.28" x2="36.001" y2="424.28"/>
		<polygon points="36.001,431.341 31.937,421.391 36.001,423.752 40.065,421.391 		"/>
	</g>
</g>
<g>
	<g>
		<line fill="none" stroke="#000000" x1="180" y1="352.28" x2="180" y2="424.28"/>
		<polygon points="180,431.341 175.936,421.391 180,423.752 184.064,421.391 		"/>
	</g>
</g>
<g>
	<g>
		<line fill="none" stroke="#000000" x1="108.001" y1="352.281" x2="108.001" y2="424.283"/>
		<polygon points="108.001,431.344 103.936,421.395 108.001,423.756 112.065,421.395 		"/>
	</g>
</g>
<g>
	<g>
		<line fill="none" stroke="#000000" x1="324" y1="352.279" x2="324" y2="424.279"/>
		<polygon points="324,431.34 319.936,421.39 324,423.751 328.064,421.39 		"/>
	</g>
</g>
<g>
	<g>
		<line fill="none" stroke="#000000" x1="369" y1="397.279" x2="369" y2="424.279"/>
		<polygon points="369,431.34 364.936,421.389 369,423.75 373.064,421.389 		"/>
	</g>
</g>
<text transform="matrix(1 0 0 1 81.0005 478.2793)" font-family="'MyriadPro-Regular'" font-size="10">latent period</text>
<line fill="none" stroke="#000000" x1="36" y1="451.28" x2="36" y2="469.28"/>
<line fill="none" stroke="#000000" x1="180" y1="451.28" x2="180" y2="469.28"/>
<g>
	<g>
		<line fill="none" stroke="#000000" stroke-dasharray="6,6" x1="45" y1="460.28" x2="171" y2="460.28"/>
		<polygon points="178.061,460.28 168.111,464.345 170.473,460.28 168.111,456.216 		"/>
		<polygon points="37.939,460.28 47.89,456.214 45.528,460.28 47.89,464.345 		"/>
	</g>
</g>
<text transform="matrix(1 0 0 1 44.9995 523.2793)"><tspan x="0" y="0" font-family="'MyriadPro-Regular'" font-size="10">incubation</tspan><tspan x="0" y="12" font-family="'MyriadPro-Regular'" font-size="10">period</tspan></text>
<line fill="none" stroke="#000000" x1="36" y1="496.28" x2="36" y2="514.28"/>
<line fill="none" stroke="#000000" x1="108" y1="496.28" x2="108" y2="514.28"/>
<g>
	<g>
		<line fill="none" stroke="#000000" stroke-dasharray="6,6" x1="45" y1="505.28" x2="98.998" y2="505.28"/>
		<polygon points="106.059,505.28 96.109,509.346 98.471,505.28 96.109,501.216 		"/>
		<polygon points="37.939,505.28 47.89,501.215 45.528,505.28 47.89,509.345 		"/>
	</g>
</g>
<text transform="matrix(1 0 0 1 252.0005 478.2793)" font-family="'MyriadPro-Regular'" font-size="10">infectious period</text>
<line fill="none" stroke="#000000" x1="360" y1="451.279" x2="360" y2="469.279"/>
<g>
	<g>
		<line fill="none" stroke="#000000" stroke-dasharray="6,6" x1="189" y1="460.28" x2="360" y2="460.28"/>
		<polygon points="367.061,460.28 357.111,464.345 359.473,460.28 357.111,456.216 		"/>
		<polygon points="181.939,460.28 191.889,456.216 189.527,460.28 191.889,464.345 		"/>
	</g>
</g>
<text transform="matrix(1 0 0 1 143.9995 253.2808)" font-family="'MyriadPro-Regular'" font-size="12">Measles (Type A)</text>
<rect x="153" y="541.28" fill="none" width="126" height="27"/>
<text transform="matrix(1 0 0 1 152.9995 549.7998)" font-family="'MyriadPro-Regular'" font-size="12">Ebola (Type B)</text>
<rect x="621" y="541.28" fill="none" width="144" height="27"/>
<text transform="matrix(1 0 0 1 621 549.7998)" font-family="'MyriadPro-Regular'" font-size="12">Zombie apocalype</text>
<rect x="135" y="235.28" fill="none" stroke="#000000" width="99" height="27"/>
<rect x="144" y="532.28" fill="none" stroke="#000000" width="90" height="27"/>
<rect x="612" y="532.28" fill="none" stroke="#000000" width="117.001" height="27"/>
<rect x="648" y="244.28" fill="none" width="126" height="27"/>
<text transform="matrix(1 0 0 1 648 252.7998)" font-family="'MyriadPro-Regular'" font-size="12">SARS (Type B)</text>
<rect x="639" y="235.28" fill="none" stroke="#000000" width="90" height="27"/>
</svg>
