<?xml version="1.0" encoding="utf-8" standalone="no"?>
<!DOCTYPE svg PUBLIC "-//W3C//DTD SVG 1.1//EN"
  "http://www.w3.org/Graphics/SVG/1.1/DTD/svg11.dtd">
<!-- Created with matplotlib (https://matplotlib.org/) -->
<svg height="576pt" version="1.1" viewBox="0 0 576 576" width="576pt" xmlns="http://www.w3.org/2000/svg" xmlns:xlink="http://www.w3.org/1999/xlink">
 <defs>
  <style type="text/css">
*{stroke-linecap:butt;stroke-linejoin:round;}
  </style>
 </defs>
 <g id="figure_1">
  <g id="patch_1">
   <path d="M 0 576 
L 576 576 
L 576 0 
L 0 0 
z
" style="fill:#ffffff;"/>
  </g>
  <g id="axes_1">
   <g id="patch_2">
    <path d="M 72 504 
L 518.4 504 
L 518.4 69.12 
L 72 69.12 
z
" style="fill:#eaeaf2;"/>
   </g>
   <g id="matplotlib.axis_1">
    <g id="xtick_1">
     <g id="line2d_1">
      <path clip-path="url(#p185a9fc52c)" d="M 72 504 
L 72 69.12 
" style="fill:none;stroke:#ffffff;stroke-linecap:round;"/>
     </g>
     <g id="line2d_2">
      <defs>
       <path d="M 0 0 
L 0 6 
" id="m3034c89e3b" style="stroke:#262626;stroke-width:1.25;"/>
      </defs>
      <g>
       <use style="fill:#262626;stroke:#262626;stroke-width:1.25;" x="72" xlink:href="#m3034c89e3b" y="504"/>
      </g>
     </g>
     <g id="text_1">
      <!-- 0 -->
      <defs>
       <path d="M 4.15625 35.296875 
Q 4.15625 48 6.765625 55.734375 
Q 9.375 63.484375 14.515625 67.671875 
Q 19.671875 71.875 27.484375 71.875 
Q 33.25 71.875 37.59375 69.546875 
Q 41.9375 67.234375 44.765625 62.859375 
Q 47.609375 58.5 49.21875 52.21875 
Q 50.828125 45.953125 50.828125 35.296875 
Q 50.828125 22.703125 48.234375 14.96875 
Q 45.65625 7.234375 40.5 3 
Q 35.359375 -1.21875 27.484375 -1.21875 
Q 17.140625 -1.21875 11.234375 6.203125 
Q 4.15625 15.140625 4.15625 35.296875 
z
M 13.1875 35.296875 
Q 13.1875 17.671875 17.3125 11.828125 
Q 21.4375 6 27.484375 6 
Q 33.546875 6 37.671875 11.859375 
Q 41.796875 17.71875 41.796875 35.296875 
Q 41.796875 52.984375 37.671875 58.78125 
Q 33.546875 64.59375 27.390625 64.59375 
Q 21.34375 64.59375 17.71875 59.46875 
Q 13.1875 52.9375 13.1875 35.296875 
z
" id="ArialMT-48"/>
      </defs>
      <g style="fill:#262626;" transform="translate(66.647598 530.778789)scale(0.1925 -0.1925)">
       <use xlink:href="#ArialMT-48"/>
      </g>
     </g>
    </g>
    <g id="xtick_2">
     <g id="line2d_3">
      <path clip-path="url(#p185a9fc52c)" d="M 161.28 504 
L 161.28 69.12 
" style="fill:none;stroke:#ffffff;stroke-linecap:round;"/>
     </g>
     <g id="line2d_4">
      <g>
       <use style="fill:#262626;stroke:#262626;stroke-width:1.25;" x="161.28" xlink:href="#m3034c89e3b" y="504"/>
      </g>
     </g>
     <g id="text_2">
      <!-- 1000 -->
      <defs>
       <path d="M 37.25 0 
L 28.46875 0 
L 28.46875 56 
Q 25.296875 52.984375 20.140625 49.953125 
Q 14.984375 46.921875 10.890625 45.40625 
L 10.890625 53.90625 
Q 18.265625 57.375 23.78125 62.296875 
Q 29.296875 67.234375 31.59375 71.875 
L 37.25 71.875 
z
" id="ArialMT-49"/>
      </defs>
      <g style="fill:#262626;" transform="translate(139.870391 530.778789)scale(0.1925 -0.1925)">
       <use xlink:href="#ArialMT-49"/>
       <use x="55.615234" xlink:href="#ArialMT-48"/>
       <use x="111.230469" xlink:href="#ArialMT-48"/>
       <use x="166.845703" xlink:href="#ArialMT-48"/>
      </g>
     </g>
    </g>
    <g id="xtick_3">
     <g id="line2d_5">
      <path clip-path="url(#p185a9fc52c)" d="M 250.56 504 
L 250.56 69.12 
" style="fill:none;stroke:#ffffff;stroke-linecap:round;"/>
     </g>
     <g id="line2d_6">
      <g>
       <use style="fill:#262626;stroke:#262626;stroke-width:1.25;" x="250.56" xlink:href="#m3034c89e3b" y="504"/>
      </g>
     </g>
     <g id="text_3">
      <!-- 2000 -->
      <defs>
       <path d="M 50.34375 8.453125 
L 50.34375 0 
L 3.03125 0 
Q 2.9375 3.171875 4.046875 6.109375 
Q 5.859375 10.9375 9.828125 15.625 
Q 13.8125 20.3125 21.34375 26.46875 
Q 33.015625 36.03125 37.109375 41.625 
Q 41.21875 47.21875 41.21875 52.203125 
Q 41.21875 57.421875 37.46875 61 
Q 33.734375 64.59375 27.734375 64.59375 
Q 21.390625 64.59375 17.578125 60.78125 
Q 13.765625 56.984375 13.71875 50.25 
L 4.6875 51.171875 
Q 5.609375 61.28125 11.65625 66.578125 
Q 17.71875 71.875 27.9375 71.875 
Q 38.234375 71.875 44.234375 66.15625 
Q 50.25 60.453125 50.25 52 
Q 50.25 47.703125 48.484375 43.546875 
Q 46.734375 39.40625 42.65625 34.8125 
Q 38.578125 30.21875 29.109375 22.21875 
Q 21.1875 15.578125 18.9375 13.203125 
Q 16.703125 10.84375 15.234375 8.453125 
z
" id="ArialMT-50"/>
      </defs>
      <g style="fill:#262626;" transform="translate(229.150391 530.778789)scale(0.1925 -0.1925)">
       <use xlink:href="#ArialMT-50"/>
       <use x="55.615234" xlink:href="#ArialMT-48"/>
       <use x="111.230469" xlink:href="#ArialMT-48"/>
       <use x="166.845703" xlink:href="#ArialMT-48"/>
      </g>
     </g>
    </g>
    <g id="xtick_4">
     <g id="line2d_7">
      <path clip-path="url(#p185a9fc52c)" d="M 339.84 504 
L 339.84 69.12 
" style="fill:none;stroke:#ffffff;stroke-linecap:round;"/>
     </g>
     <g id="line2d_8">
      <g>
       <use style="fill:#262626;stroke:#262626;stroke-width:1.25;" x="339.84" xlink:href="#m3034c89e3b" y="504"/>
      </g>
     </g>
     <g id="text_4">
      <!-- 3000 -->
      <defs>
       <path d="M 4.203125 18.890625 
L 12.984375 20.0625 
Q 14.5 12.59375 18.140625 9.296875 
Q 21.78125 6 27 6 
Q 33.203125 6 37.46875 10.296875 
Q 41.75 14.59375 41.75 20.953125 
Q 41.75 27 37.796875 30.921875 
Q 33.84375 34.859375 27.734375 34.859375 
Q 25.25 34.859375 21.53125 33.890625 
L 22.515625 41.609375 
Q 23.390625 41.5 23.921875 41.5 
Q 29.546875 41.5 34.03125 44.421875 
Q 38.53125 47.359375 38.53125 53.46875 
Q 38.53125 58.296875 35.25 61.46875 
Q 31.984375 64.65625 26.8125 64.65625 
Q 21.6875 64.65625 18.265625 61.421875 
Q 14.84375 58.203125 13.875 51.765625 
L 5.078125 53.328125 
Q 6.6875 62.15625 12.390625 67.015625 
Q 18.109375 71.875 26.609375 71.875 
Q 32.46875 71.875 37.390625 69.359375 
Q 42.328125 66.84375 44.9375 62.5 
Q 47.5625 58.15625 47.5625 53.265625 
Q 47.5625 48.640625 45.0625 44.828125 
Q 42.578125 41.015625 37.703125 38.765625 
Q 44.046875 37.3125 47.5625 32.6875 
Q 51.078125 28.078125 51.078125 21.140625 
Q 51.078125 11.765625 44.234375 5.25 
Q 37.40625 -1.265625 26.953125 -1.265625 
Q 17.53125 -1.265625 11.296875 4.34375 
Q 5.078125 9.96875 4.203125 18.890625 
z
" id="ArialMT-51"/>
      </defs>
      <g style="fill:#262626;" transform="translate(318.430391 530.778789)scale(0.1925 -0.1925)">
       <use xlink:href="#ArialMT-51"/>
       <use x="55.615234" xlink:href="#ArialMT-48"/>
       <use x="111.230469" xlink:href="#ArialMT-48"/>
       <use x="166.845703" xlink:href="#ArialMT-48"/>
      </g>
     </g>
    </g>
    <g id="xtick_5">
     <g id="line2d_9">
      <path clip-path="url(#p185a9fc52c)" d="M 429.12 504 
L 429.12 69.12 
" style="fill:none;stroke:#ffffff;stroke-linecap:round;"/>
     </g>
     <g id="line2d_10">
      <g>
       <use style="fill:#262626;stroke:#262626;stroke-width:1.25;" x="429.12" xlink:href="#m3034c89e3b" y="504"/>
      </g>
     </g>
     <g id="text_5">
      <!-- 4000 -->
      <defs>
       <path d="M 32.328125 0 
L 32.328125 17.140625 
L 1.265625 17.140625 
L 1.265625 25.203125 
L 33.9375 71.578125 
L 41.109375 71.578125 
L 41.109375 25.203125 
L 50.78125 25.203125 
L 50.78125 17.140625 
L 41.109375 17.140625 
L 41.109375 0 
z
M 32.328125 25.203125 
L 32.328125 57.46875 
L 9.90625 25.203125 
z
" id="ArialMT-52"/>
      </defs>
      <g style="fill:#262626;" transform="translate(407.710391 530.778789)scale(0.1925 -0.1925)">
       <use xlink:href="#ArialMT-52"/>
       <use x="55.615234" xlink:href="#ArialMT-48"/>
       <use x="111.230469" xlink:href="#ArialMT-48"/>
       <use x="166.845703" xlink:href="#ArialMT-48"/>
      </g>
     </g>
    </g>
    <g id="xtick_6">
     <g id="line2d_11">
      <path clip-path="url(#p185a9fc52c)" d="M 518.4 504 
L 518.4 69.12 
" style="fill:none;stroke:#ffffff;stroke-linecap:round;"/>
     </g>
     <g id="line2d_12">
      <g>
       <use style="fill:#262626;stroke:#262626;stroke-width:1.25;" x="518.4" xlink:href="#m3034c89e3b" y="504"/>
      </g>
     </g>
     <g id="text_6">
      <!-- 5000 -->
      <defs>
       <path d="M 4.15625 18.75 
L 13.375 19.53125 
Q 14.40625 12.796875 18.140625 9.390625 
Q 21.875 6 27.15625 6 
Q 33.5 6 37.890625 10.78125 
Q 42.28125 15.578125 42.28125 23.484375 
Q 42.28125 31 38.0625 35.34375 
Q 33.84375 39.703125 27 39.703125 
Q 22.75 39.703125 19.328125 37.765625 
Q 15.921875 35.84375 13.96875 32.765625 
L 5.71875 33.84375 
L 12.640625 70.609375 
L 48.25 70.609375 
L 48.25 62.203125 
L 19.671875 62.203125 
L 15.828125 42.96875 
Q 22.265625 47.46875 29.34375 47.46875 
Q 38.71875 47.46875 45.15625 40.96875 
Q 51.609375 34.46875 51.609375 24.265625 
Q 51.609375 14.546875 45.953125 7.46875 
Q 39.0625 -1.21875 27.15625 -1.21875 
Q 17.390625 -1.21875 11.203125 4.25 
Q 5.03125 9.71875 4.15625 18.75 
z
" id="ArialMT-53"/>
      </defs>
      <g style="fill:#262626;" transform="translate(496.990391 530.778789)scale(0.1925 -0.1925)">
       <use xlink:href="#ArialMT-53"/>
       <use x="55.615234" xlink:href="#ArialMT-48"/>
       <use x="111.230469" xlink:href="#ArialMT-48"/>
       <use x="166.845703" xlink:href="#ArialMT-48"/>
      </g>
     </g>
    </g>
    <g id="text_7">
     <!-- $t$ -->
     <defs>
      <path d="M 42.28125 54.6875 
L 40.921875 47.703125 
L 23 47.703125 
L 17.1875 18.015625 
Q 16.890625 16.359375 16.75 15.234375 
Q 16.609375 14.109375 16.609375 13.484375 
Q 16.609375 10.359375 18.484375 8.9375 
Q 20.359375 7.515625 24.515625 7.515625 
L 33.59375 7.515625 
L 32.078125 0 
L 23.484375 0 
Q 15.484375 0 11.546875 3.125 
Q 7.625 6.25 7.625 12.59375 
Q 7.625 13.71875 7.765625 15.0625 
Q 7.90625 16.40625 8.203125 18.015625 
L 14.015625 47.703125 
L 6.390625 47.703125 
L 7.8125 54.6875 
L 15.28125 54.6875 
L 18.3125 70.21875 
L 27.296875 70.21875 
L 24.3125 54.6875 
z
" id="DejaVuSans-Oblique-116"/>
     </defs>
     <g style="fill:#262626;" transform="translate(291 553.636133)scale(0.21 -0.21)">
      <use transform="translate(0 0.78125)" xlink:href="#DejaVuSans-Oblique-116"/>
     </g>
    </g>
   </g>
   <g id="matplotlib.axis_2">
    <g id="ytick_1">
     <g id="line2d_13">
      <path clip-path="url(#p185a9fc52c)" d="M 72 504 
L 518.4 504 
" style="fill:none;stroke:#ffffff;stroke-linecap:round;"/>
     </g>
     <g id="line2d_14">
      <defs>
       <path d="M 0 0 
L -6 0 
" id="m8e70d24c82" style="stroke:#262626;stroke-width:1.25;"/>
      </defs>
      <g>
       <use style="fill:#262626;stroke:#262626;stroke-width:1.25;" x="72" xlink:href="#m8e70d24c82" y="504"/>
      </g>
     </g>
     <g id="text_8">
      <!-- 0 -->
      <g style="fill:#262626;" transform="translate(48.295195 510.889395)scale(0.1925 -0.1925)">
       <use xlink:href="#ArialMT-48"/>
      </g>
     </g>
    </g>
    <g id="ytick_2">
     <g id="line2d_15">
      <path clip-path="url(#p185a9fc52c)" d="M 72 449.64 
L 518.4 449.64 
" style="fill:none;stroke:#ffffff;stroke-linecap:round;"/>
     </g>
     <g id="line2d_16">
      <g>
       <use style="fill:#262626;stroke:#262626;stroke-width:1.25;" x="72" xlink:href="#m8e70d24c82" y="449.64"/>
      </g>
     </g>
     <g id="text_9">
      <!-- 250 -->
      <g style="fill:#262626;" transform="translate(26.885586 456.529395)scale(0.1925 -0.1925)">
       <use xlink:href="#ArialMT-50"/>
       <use x="55.615234" xlink:href="#ArialMT-53"/>
       <use x="111.230469" xlink:href="#ArialMT-48"/>
      </g>
     </g>
    </g>
    <g id="ytick_3">
     <g id="line2d_17">
      <path clip-path="url(#p185a9fc52c)" d="M 72 395.28 
L 518.4 395.28 
" style="fill:none;stroke:#ffffff;stroke-linecap:round;"/>
     </g>
     <g id="line2d_18">
      <g>
       <use style="fill:#262626;stroke:#262626;stroke-width:1.25;" x="72" xlink:href="#m8e70d24c82" y="395.28"/>
      </g>
     </g>
     <g id="text_10">
      <!-- 500 -->
      <g style="fill:#262626;" transform="translate(26.885586 402.169395)scale(0.1925 -0.1925)">
       <use xlink:href="#ArialMT-53"/>
       <use x="55.615234" xlink:href="#ArialMT-48"/>
       <use x="111.230469" xlink:href="#ArialMT-48"/>
      </g>
     </g>
    </g>
    <g id="ytick_4">
     <g id="line2d_19">
      <path clip-path="url(#p185a9fc52c)" d="M 72 340.92 
L 518.4 340.92 
" style="fill:none;stroke:#ffffff;stroke-linecap:round;"/>
     </g>
     <g id="line2d_20">
      <g>
       <use style="fill:#262626;stroke:#262626;stroke-width:1.25;" x="72" xlink:href="#m8e70d24c82" y="340.92"/>
      </g>
     </g>
     <g id="text_11">
      <!-- 750 -->
      <defs>
       <path d="M 4.734375 62.203125 
L 4.734375 70.65625 
L 51.078125 70.65625 
L 51.078125 63.8125 
Q 44.234375 56.546875 37.515625 44.484375 
Q 30.8125 32.421875 27.15625 19.671875 
Q 24.515625 10.6875 23.78125 0 
L 14.75 0 
Q 14.890625 8.453125 18.0625 20.40625 
Q 21.234375 32.375 27.171875 43.484375 
Q 33.109375 54.59375 39.796875 62.203125 
z
" id="ArialMT-55"/>
      </defs>
      <g style="fill:#262626;" transform="translate(26.885586 347.809395)scale(0.1925 -0.1925)">
       <use xlink:href="#ArialMT-55"/>
       <use x="55.615234" xlink:href="#ArialMT-53"/>
       <use x="111.230469" xlink:href="#ArialMT-48"/>
      </g>
     </g>
    </g>
    <g id="ytick_5">
     <g id="line2d_21">
      <path clip-path="url(#p185a9fc52c)" d="M 72 286.56 
L 518.4 286.56 
" style="fill:none;stroke:#ffffff;stroke-linecap:round;"/>
     </g>
     <g id="line2d_22">
      <g>
       <use style="fill:#262626;stroke:#262626;stroke-width:1.25;" x="72" xlink:href="#m8e70d24c82" y="286.56"/>
      </g>
     </g>
     <g id="text_12">
      <!-- 1000 -->
      <g style="fill:#262626;" transform="translate(16.180781 293.449395)scale(0.1925 -0.1925)">
       <use xlink:href="#ArialMT-49"/>
       <use x="55.615234" xlink:href="#ArialMT-48"/>
       <use x="111.230469" xlink:href="#ArialMT-48"/>
       <use x="166.845703" xlink:href="#ArialMT-48"/>
      </g>
     </g>
    </g>
    <g id="ytick_6">
     <g id="line2d_23">
      <path clip-path="url(#p185a9fc52c)" d="M 72 232.2 
L 518.4 232.2 
" style="fill:none;stroke:#ffffff;stroke-linecap:round;"/>
     </g>
     <g id="line2d_24">
      <g>
       <use style="fill:#262626;stroke:#262626;stroke-width:1.25;" x="72" xlink:href="#m8e70d24c82" y="232.2"/>
      </g>
     </g>
     <g id="text_13">
      <!-- 1250 -->
      <g style="fill:#262626;" transform="translate(16.180781 239.089395)scale(0.1925 -0.1925)">
       <use xlink:href="#ArialMT-49"/>
       <use x="55.615234" xlink:href="#ArialMT-50"/>
       <use x="111.230469" xlink:href="#ArialMT-53"/>
       <use x="166.845703" xlink:href="#ArialMT-48"/>
      </g>
     </g>
    </g>
    <g id="ytick_7">
     <g id="line2d_25">
      <path clip-path="url(#p185a9fc52c)" d="M 72 177.84 
L 518.4 177.84 
" style="fill:none;stroke:#ffffff;stroke-linecap:round;"/>
     </g>
     <g id="line2d_26">
      <g>
       <use style="fill:#262626;stroke:#262626;stroke-width:1.25;" x="72" xlink:href="#m8e70d24c82" y="177.84"/>
      </g>
     </g>
     <g id="text_14">
      <!-- 1500 -->
      <g style="fill:#262626;" transform="translate(16.180781 184.729395)scale(0.1925 -0.1925)">
       <use xlink:href="#ArialMT-49"/>
       <use x="55.615234" xlink:href="#ArialMT-53"/>
       <use x="111.230469" xlink:href="#ArialMT-48"/>
       <use x="166.845703" xlink:href="#ArialMT-48"/>
      </g>
     </g>
    </g>
    <g id="ytick_8">
     <g id="line2d_27">
      <path clip-path="url(#p185a9fc52c)" d="M 72 123.48 
L 518.4 123.48 
" style="fill:none;stroke:#ffffff;stroke-linecap:round;"/>
     </g>
     <g id="line2d_28">
      <g>
       <use style="fill:#262626;stroke:#262626;stroke-width:1.25;" x="72" xlink:href="#m8e70d24c82" y="123.48"/>
      </g>
     </g>
     <g id="text_15">
      <!-- 1750 -->
      <g style="fill:#262626;" transform="translate(16.180781 130.369395)scale(0.1925 -0.1925)">
       <use xlink:href="#ArialMT-49"/>
       <use x="55.615234" xlink:href="#ArialMT-55"/>
       <use x="111.230469" xlink:href="#ArialMT-53"/>
       <use x="166.845703" xlink:href="#ArialMT-48"/>
      </g>
     </g>
    </g>
    <g id="ytick_9">
     <g id="line2d_29">
      <path clip-path="url(#p185a9fc52c)" d="M 72 69.12 
L 518.4 69.12 
" style="fill:none;stroke:#ffffff;stroke-linecap:round;"/>
     </g>
     <g id="line2d_30">
      <g>
       <use style="fill:#262626;stroke:#262626;stroke-width:1.25;" x="72" xlink:href="#m8e70d24c82" y="69.12"/>
      </g>
     </g>
     <g id="text_16">
      <!-- 2000 -->
      <g style="fill:#262626;" transform="translate(16.180781 76.009395)scale(0.1925 -0.1925)">
       <use xlink:href="#ArialMT-50"/>
       <use x="55.615234" xlink:href="#ArialMT-48"/>
       <use x="111.230469" xlink:href="#ArialMT-48"/>
       <use x="166.845703" xlink:href="#ArialMT-48"/>
      </g>
     </g>
    </g>
    <g id="text_17">
     <!-- population that is... -->
     <defs>
      <path d="M 6.59375 -19.875 
L 6.59375 51.859375 
L 14.59375 51.859375 
L 14.59375 45.125 
Q 17.4375 49.078125 21 51.046875 
Q 24.5625 53.03125 29.640625 53.03125 
Q 36.28125 53.03125 41.359375 49.609375 
Q 46.4375 46.1875 49.015625 39.953125 
Q 51.609375 33.734375 51.609375 26.3125 
Q 51.609375 18.359375 48.75 11.984375 
Q 45.90625 5.609375 40.453125 2.21875 
Q 35.015625 -1.171875 29 -1.171875 
Q 24.609375 -1.171875 21.109375 0.6875 
Q 17.625 2.546875 15.375 5.375 
L 15.375 -19.875 
z
M 14.546875 25.640625 
Q 14.546875 15.625 18.59375 10.84375 
Q 22.65625 6.0625 28.421875 6.0625 
Q 34.28125 6.0625 38.453125 11.015625 
Q 42.625 15.96875 42.625 26.375 
Q 42.625 36.28125 38.546875 41.203125 
Q 34.46875 46.140625 28.8125 46.140625 
Q 23.1875 46.140625 18.859375 40.890625 
Q 14.546875 35.640625 14.546875 25.640625 
z
" id="ArialMT-112"/>
      <path d="M 3.328125 25.921875 
Q 3.328125 40.328125 11.328125 47.265625 
Q 18.015625 53.03125 27.640625 53.03125 
Q 38.328125 53.03125 45.109375 46.015625 
Q 51.90625 39.015625 51.90625 26.65625 
Q 51.90625 16.65625 48.90625 10.90625 
Q 45.90625 5.171875 40.15625 2 
Q 34.421875 -1.171875 27.640625 -1.171875 
Q 16.75 -1.171875 10.03125 5.8125 
Q 3.328125 12.796875 3.328125 25.921875 
z
M 12.359375 25.921875 
Q 12.359375 15.96875 16.703125 11.015625 
Q 21.046875 6.0625 27.640625 6.0625 
Q 34.1875 6.0625 38.53125 11.03125 
Q 42.875 16.015625 42.875 26.21875 
Q 42.875 35.84375 38.5 40.796875 
Q 34.125 45.75 27.640625 45.75 
Q 21.046875 45.75 16.703125 40.8125 
Q 12.359375 35.890625 12.359375 25.921875 
z
" id="ArialMT-111"/>
      <path d="M 40.578125 0 
L 40.578125 7.625 
Q 34.515625 -1.171875 24.125 -1.171875 
Q 19.53125 -1.171875 15.546875 0.578125 
Q 11.578125 2.34375 9.640625 5 
Q 7.71875 7.671875 6.9375 11.53125 
Q 6.390625 14.109375 6.390625 19.734375 
L 6.390625 51.859375 
L 15.1875 51.859375 
L 15.1875 23.09375 
Q 15.1875 16.21875 15.71875 13.8125 
Q 16.546875 10.359375 19.234375 8.375 
Q 21.921875 6.390625 25.875 6.390625 
Q 29.828125 6.390625 33.296875 8.421875 
Q 36.765625 10.453125 38.203125 13.9375 
Q 39.65625 17.4375 39.65625 24.078125 
L 39.65625 51.859375 
L 48.4375 51.859375 
L 48.4375 0 
z
" id="ArialMT-117"/>
      <path d="M 6.390625 0 
L 6.390625 71.578125 
L 15.1875 71.578125 
L 15.1875 0 
z
" id="ArialMT-108"/>
      <path d="M 40.4375 6.390625 
Q 35.546875 2.25 31.03125 0.53125 
Q 26.515625 -1.171875 21.34375 -1.171875 
Q 12.796875 -1.171875 8.203125 3 
Q 3.609375 7.171875 3.609375 13.671875 
Q 3.609375 17.484375 5.34375 20.625 
Q 7.078125 23.78125 9.890625 25.6875 
Q 12.703125 27.59375 16.21875 28.5625 
Q 18.796875 29.25 24.03125 29.890625 
Q 34.671875 31.15625 39.703125 32.90625 
Q 39.75 34.71875 39.75 35.203125 
Q 39.75 40.578125 37.25 42.78125 
Q 33.890625 45.75 27.25 45.75 
Q 21.046875 45.75 18.09375 43.578125 
Q 15.140625 41.40625 13.71875 35.890625 
L 5.125 37.0625 
Q 6.296875 42.578125 8.984375 45.96875 
Q 11.671875 49.359375 16.75 51.1875 
Q 21.828125 53.03125 28.515625 53.03125 
Q 35.15625 53.03125 39.296875 51.46875 
Q 43.453125 49.90625 45.40625 47.53125 
Q 47.359375 45.171875 48.140625 41.546875 
Q 48.578125 39.3125 48.578125 33.453125 
L 48.578125 21.734375 
Q 48.578125 9.46875 49.140625 6.21875 
Q 49.703125 2.984375 51.375 0 
L 42.1875 0 
Q 40.828125 2.734375 40.4375 6.390625 
z
M 39.703125 26.03125 
Q 34.90625 24.078125 25.34375 22.703125 
Q 19.921875 21.921875 17.671875 20.9375 
Q 15.4375 19.96875 14.203125 18.09375 
Q 12.984375 16.21875 12.984375 13.921875 
Q 12.984375 10.40625 15.640625 8.0625 
Q 18.3125 5.71875 23.4375 5.71875 
Q 28.515625 5.71875 32.46875 7.9375 
Q 36.421875 10.15625 38.28125 14.015625 
Q 39.703125 17 39.703125 22.796875 
z
" id="ArialMT-97"/>
      <path d="M 25.78125 7.859375 
L 27.046875 0.09375 
Q 23.34375 -0.6875 20.40625 -0.6875 
Q 15.625 -0.6875 12.984375 0.828125 
Q 10.359375 2.34375 9.28125 4.8125 
Q 8.203125 7.28125 8.203125 15.1875 
L 8.203125 45.015625 
L 1.765625 45.015625 
L 1.765625 51.859375 
L 8.203125 51.859375 
L 8.203125 64.703125 
L 16.9375 69.96875 
L 16.9375 51.859375 
L 25.78125 51.859375 
L 25.78125 45.015625 
L 16.9375 45.015625 
L 16.9375 14.703125 
Q 16.9375 10.9375 17.40625 9.859375 
Q 17.875 8.796875 18.921875 8.15625 
Q 19.96875 7.515625 21.921875 7.515625 
Q 23.390625 7.515625 25.78125 7.859375 
z
" id="ArialMT-116"/>
      <path d="M 6.640625 61.46875 
L 6.640625 71.578125 
L 15.4375 71.578125 
L 15.4375 61.46875 
z
M 6.640625 0 
L 6.640625 51.859375 
L 15.4375 51.859375 
L 15.4375 0 
z
" id="ArialMT-105"/>
      <path d="M 6.59375 0 
L 6.59375 51.859375 
L 14.5 51.859375 
L 14.5 44.484375 
Q 20.21875 53.03125 31 53.03125 
Q 35.6875 53.03125 39.625 51.34375 
Q 43.5625 49.65625 45.515625 46.921875 
Q 47.46875 44.1875 48.25 40.4375 
Q 48.734375 37.984375 48.734375 31.890625 
L 48.734375 0 
L 39.9375 0 
L 39.9375 31.546875 
Q 39.9375 36.921875 38.90625 39.578125 
Q 37.890625 42.234375 35.28125 43.8125 
Q 32.671875 45.40625 29.15625 45.40625 
Q 23.53125 45.40625 19.453125 41.84375 
Q 15.375 38.28125 15.375 28.328125 
L 15.375 0 
z
" id="ArialMT-110"/>
      <path id="ArialMT-32"/>
      <path d="M 6.59375 0 
L 6.59375 71.578125 
L 15.375 71.578125 
L 15.375 45.90625 
Q 21.53125 53.03125 30.90625 53.03125 
Q 36.671875 53.03125 40.921875 50.75 
Q 45.171875 48.484375 47 44.484375 
Q 48.828125 40.484375 48.828125 32.859375 
L 48.828125 0 
L 40.046875 0 
L 40.046875 32.859375 
Q 40.046875 39.453125 37.1875 42.453125 
Q 34.328125 45.453125 29.109375 45.453125 
Q 25.203125 45.453125 21.75 43.421875 
Q 18.3125 41.40625 16.84375 37.9375 
Q 15.375 34.46875 15.375 28.375 
L 15.375 0 
z
" id="ArialMT-104"/>
      <path d="M 3.078125 15.484375 
L 11.765625 16.84375 
Q 12.5 11.625 15.84375 8.84375 
Q 19.1875 6.0625 25.203125 6.0625 
Q 31.25 6.0625 34.171875 8.515625 
Q 37.109375 10.984375 37.109375 14.3125 
Q 37.109375 17.28125 34.515625 19 
Q 32.71875 20.171875 25.53125 21.96875 
Q 15.875 24.421875 12.140625 26.203125 
Q 8.40625 27.984375 6.46875 31.125 
Q 4.546875 34.28125 4.546875 38.09375 
Q 4.546875 41.546875 6.125 44.5 
Q 7.71875 47.46875 10.453125 49.421875 
Q 12.5 50.921875 16.03125 51.96875 
Q 19.578125 53.03125 23.640625 53.03125 
Q 29.734375 53.03125 34.34375 51.265625 
Q 38.96875 49.515625 41.15625 46.5 
Q 43.359375 43.5 44.1875 38.484375 
L 35.59375 37.3125 
Q 35.015625 41.3125 32.203125 43.546875 
Q 29.390625 45.796875 24.265625 45.796875 
Q 18.21875 45.796875 15.625 43.796875 
Q 13.03125 41.796875 13.03125 39.109375 
Q 13.03125 37.40625 14.109375 36.03125 
Q 15.1875 34.625 17.484375 33.6875 
Q 18.796875 33.203125 25.25 31.453125 
Q 34.578125 28.953125 38.25 27.359375 
Q 41.9375 25.78125 44.03125 22.75 
Q 46.140625 19.734375 46.140625 15.234375 
Q 46.140625 10.84375 43.578125 6.953125 
Q 41.015625 3.078125 36.171875 0.953125 
Q 31.34375 -1.171875 25.25 -1.171875 
Q 15.140625 -1.171875 9.84375 3.03125 
Q 4.546875 7.234375 3.078125 15.484375 
z
" id="ArialMT-115"/>
      <path d="M 9.078125 0 
L 9.078125 10.015625 
L 19.09375 10.015625 
L 19.09375 0 
z
" id="ArialMT-46"/>
     </defs>
     <g style="fill:#262626;" transform="translate(8.007031 374.696016)rotate(-90)scale(0.21 -0.21)">
      <use xlink:href="#ArialMT-112"/>
      <use x="55.615234" xlink:href="#ArialMT-111"/>
      <use x="111.230469" xlink:href="#ArialMT-112"/>
      <use x="166.845703" xlink:href="#ArialMT-117"/>
      <use x="222.460938" xlink:href="#ArialMT-108"/>
      <use x="244.677734" xlink:href="#ArialMT-97"/>
      <use x="300.292969" xlink:href="#ArialMT-116"/>
      <use x="328.076172" xlink:href="#ArialMT-105"/>
      <use x="350.292969" xlink:href="#ArialMT-111"/>
      <use x="405.908203" xlink:href="#ArialMT-110"/>
      <use x="461.523438" xlink:href="#ArialMT-32"/>
      <use x="489.306641" xlink:href="#ArialMT-116"/>
      <use x="517.089844" xlink:href="#ArialMT-104"/>
      <use x="572.705078" xlink:href="#ArialMT-97"/>
      <use x="628.320312" xlink:href="#ArialMT-116"/>
      <use x="656.103516" xlink:href="#ArialMT-32"/>
      <use x="683.886719" xlink:href="#ArialMT-105"/>
      <use x="706.103516" xlink:href="#ArialMT-115"/>
      <use x="756.103516" xlink:href="#ArialMT-46"/>
      <use x="783.886719" xlink:href="#ArialMT-46"/>
      <use x="811.669922" xlink:href="#ArialMT-46"/>
     </g>
    </g>
   </g>
   <g id="line2d_31">
    <path clip-path="url(#p185a9fc52c)" d="M 72 73.4688 
L 74.232 74.6666 
L 76.28544 76.024382 
L 78.16032 77.523621 
L 79.94592 79.226078 
L 81.73152 81.2445 
L 83.42784 83.504187 
L 85.12416 86.151242 
L 86.7312 89.070299 
L 88.33824 92.446774 
L 89.94528 96.34211 
L 91.55232 100.822465 
L 93.15936 105.957807 
L 94.7664 111.820487 
L 96.46272 118.878205 
L 98.15904 126.909609 
L 99.94464 136.497414 
L 101.73024 147.317183 
L 103.60512 160.053229 
L 105.56928 174.918583 
L 107.712 192.854492 
L 110.12256 214.973808 
L 113.0688 244.222429 
L 118.51488 301.162074 
L 122.26464 339.089427 
L 124.94304 364.039937 
L 127.26432 383.713391 
L 129.40704 400.080329 
L 131.46048 414.098537 
L 133.42464 426.003109 
L 135.29952 436.055747 
L 137.1744 444.912146 
L 138.96 452.324164 
L 140.7456 458.830518 
L 142.5312 464.522714 
L 144.3168 469.489695 
L 146.1024 473.815496 
L 147.888 477.577823 
L 149.6736 480.847339 
L 151.54848 483.819241 
L 153.42336 486.3827 
L 155.38752 488.692063 
L 157.44096 490.755254 
L 159.58368 492.584337 
L 161.81568 494.194392 
L 164.22624 495.651852 
L 166.81536 496.949633 
L 169.58304 498.088142 
L 172.70784 499.12695 
L 176.18976 500.043452 
L 180.11808 500.84485 
L 184.76064 501.557007 
L 190.296 502.170164 
L 197.08128 502.686533 
L 205.74144 503.109892 
L 217.43712 503.443651 
L 234.57888 503.690831 
L 263.32704 503.856144 
L 325.82304 503.947847 
L 518.31072 503.97848 
L 518.31072 503.97848 
" style="fill:none;stroke:#ff0000;stroke-linecap:round;stroke-width:1.5;"/>
   </g>
   <g id="line2d_32">
    <path clip-path="url(#p185a9fc52c)" d="M 72 499.6512 
L 74.32128 498.526415 
L 76.464 497.236492 
L 78.42816 495.794894 
L 80.30304 494.141158 
L 82.08864 492.267695 
L 83.78496 490.172336 
L 85.48128 487.720538 
L 87.1776 484.858475 
L 88.78464 481.714847 
L 90.39168 478.094972 
L 91.99872 473.940586 
L 93.69504 468.908473 
L 95.39136 463.140998 
L 97.08768 456.567987 
L 98.87328 448.708361 
L 100.65888 439.823531 
L 102.53376 429.346921 
L 104.49792 417.098507 
L 106.64064 402.300187 
L 109.0512 384.040168 
L 111.99744 359.931355 
L 120.92544 285.575885 
L 123.24672 268.841003 
L 125.21088 256.232467 
L 126.99648 246.149891 
L 128.60352 238.254086 
L 130.12128 231.833347 
L 131.54976 226.697788 
L 132.88896 222.65863 
L 134.13888 219.538014 
L 135.3888 217.013146 
L 136.54944 215.172305 
L 137.6208 213.87776 
L 138.60288 213.01162 
L 139.58496 212.433087 
L 140.56704 212.12379 
L 141.54912 212.065611 
L 142.5312 212.240851 
L 143.60256 212.678094 
L 144.7632 213.417442 
L 146.01312 214.49382 
L 147.4416 216.04186 
L 149.04864 218.138939 
L 150.83424 220.84739 
L 152.88768 224.371985 
L 155.38752 229.134769 
L 158.42304 235.438291 
L 162.26208 243.955833 
L 168.24384 257.841771 
L 180.29664 285.873065 
L 186.36768 299.369228 
L 191.90304 311.140021 
L 197.17056 321.826393 
L 202.3488 331.829147 
L 207.43776 341.175091 
L 212.43744 349.898133 
L 217.43712 358.179311 
L 222.4368 366.034241 
L 227.43648 373.48003 
L 232.43616 380.534498 
L 237.52512 387.331686 
L 242.61408 393.760965 
L 247.79232 399.944439 
L 252.97056 405.784941 
L 258.23808 411.392984 
L 263.59488 416.770268 
L 269.04096 421.919204 
L 274.57632 426.842839 
L 280.20096 431.544784 
L 285.91488 436.029148 
L 291.71808 440.300475 
L 297.61056 444.363691 
L 303.6816 448.27974 
L 309.9312 452.04305 
L 316.27008 455.600986 
L 322.78752 459.005634 
L 329.48352 462.254587 
L 336.44736 465.385134 
L 343.58976 468.352456 
L 351 471.190463 
L 358.67808 473.893098 
L 366.71328 476.483482 
L 375.01632 478.92641 
L 383.76576 481.266469 
L 392.87232 483.470477 
L 402.42528 485.553321 
L 412.51392 487.524041 
L 423.22752 489.386907 
L 434.56608 491.129585 
L 446.61888 492.75479 
L 459.56448 494.272557 
L 473.49216 495.677541 
L 488.4912 496.964547 
L 504.82944 498.141087 
L 518.31072 498.962227 
L 518.31072 498.962227 
" style="fill:none;stroke:#008000;stroke-linecap:round;stroke-width:1.5;"/>
   </g>
   <g id="line2d_33">
    <defs>
     <path d="M -3 3 
L 3 3 
L 3 -3 
L -3 -3 
z
" id="m1435c93f80"/>
    </defs>
    <g clip-path="url(#p185a9fc52c)">
     <use style="fill:#ff0000;" x="72" xlink:href="#m1435c93f80" y="73.25136"/>
     <use style="fill:#ff0000;" x="80.928" xlink:href="#m1435c93f80" y="76.51296"/>
     <use style="fill:#ff0000;" x="89.856" xlink:href="#m1435c93f80" y="88.6896"/>
     <use style="fill:#ff0000;" x="98.784" xlink:href="#m1435c93f80" y="117.39168"/>
     <use style="fill:#ff0000;" x="107.712" xlink:href="#m1435c93f80" y="171.3168"/>
     <use style="fill:#ff0000;" x="116.64" xlink:href="#m1435c93f80" y="264.38112"/>
     <use style="fill:#ff0000;" x="125.568" xlink:href="#m1435c93f80" y="351.35712"/>
     <use style="fill:#ff0000;" x="134.496" xlink:href="#m1435c93f80" y="424.19952"/>
     <use style="fill:#ff0000;" x="143.424" xlink:href="#m1435c93f80" y="463.33872"/>
     <use style="fill:#ff0000;" x="152.352" xlink:href="#m1435c93f80" y="482.69088"/>
     <use style="fill:#ff0000;" x="161.28" xlink:href="#m1435c93f80" y="492.91056"/>
     <use style="fill:#ff0000;" x="170.208" xlink:href="#m1435c93f80" y="498.34656"/>
     <use style="fill:#ff0000;" x="179.136" xlink:href="#m1435c93f80" y="500.95584"/>
     <use style="fill:#ff0000;" x="188.064" xlink:href="#m1435c93f80" y="502.26048"/>
     <use style="fill:#ff0000;" x="196.992" xlink:href="#m1435c93f80" y="503.34768"/>
     <use style="fill:#ff0000;" x="205.92" xlink:href="#m1435c93f80" y="503.56512"/>
     <use style="fill:#ff0000;" x="214.848" xlink:href="#m1435c93f80" y="503.56512"/>
     <use style="fill:#ff0000;" x="223.776" xlink:href="#m1435c93f80" y="503.78256"/>
     <use style="fill:#ff0000;" x="232.704" xlink:href="#m1435c93f80" y="503.78256"/>
     <use style="fill:#ff0000;" x="241.632" xlink:href="#m1435c93f80" y="503.78256"/>
     <use style="fill:#ff0000;" x="250.56" xlink:href="#m1435c93f80" y="503.78256"/>
     <use style="fill:#ff0000;" x="259.488" xlink:href="#m1435c93f80" y="503.78256"/>
     <use style="fill:#ff0000;" x="268.416" xlink:href="#m1435c93f80" y="504"/>
     <use style="fill:#ff0000;" x="277.344" xlink:href="#m1435c93f80" y="504"/>
     <use style="fill:#ff0000;" x="286.272" xlink:href="#m1435c93f80" y="504"/>
     <use style="fill:#ff0000;" x="295.2" xlink:href="#m1435c93f80" y="504"/>
     <use style="fill:#ff0000;" x="304.128" xlink:href="#m1435c93f80" y="504"/>
     <use style="fill:#ff0000;" x="313.056" xlink:href="#m1435c93f80" y="504"/>
     <use style="fill:#ff0000;" x="321.984" xlink:href="#m1435c93f80" y="504"/>
     <use style="fill:#ff0000;" x="330.912" xlink:href="#m1435c93f80" y="504"/>
     <use style="fill:#ff0000;" x="339.84" xlink:href="#m1435c93f80" y="504"/>
     <use style="fill:#ff0000;" x="348.768" xlink:href="#m1435c93f80" y="504"/>
     <use style="fill:#ff0000;" x="357.696" xlink:href="#m1435c93f80" y="504"/>
     <use style="fill:#ff0000;" x="366.624" xlink:href="#m1435c93f80" y="504"/>
     <use style="fill:#ff0000;" x="375.552" xlink:href="#m1435c93f80" y="504"/>
     <use style="fill:#ff0000;" x="384.48" xlink:href="#m1435c93f80" y="504"/>
     <use style="fill:#ff0000;" x="393.408" xlink:href="#m1435c93f80" y="504"/>
     <use style="fill:#ff0000;" x="402.336" xlink:href="#m1435c93f80" y="504"/>
     <use style="fill:#ff0000;" x="411.264" xlink:href="#m1435c93f80" y="504"/>
     <use style="fill:#ff0000;" x="420.192" xlink:href="#m1435c93f80" y="504"/>
     <use style="fill:#ff0000;" x="429.12" xlink:href="#m1435c93f80" y="504"/>
     <use style="fill:#ff0000;" x="438.048" xlink:href="#m1435c93f80" y="504"/>
     <use style="fill:#ff0000;" x="446.976" xlink:href="#m1435c93f80" y="504"/>
     <use style="fill:#ff0000;" x="455.904" xlink:href="#m1435c93f80" y="504"/>
     <use style="fill:#ff0000;" x="464.832" xlink:href="#m1435c93f80" y="504"/>
     <use style="fill:#ff0000;" x="473.76" xlink:href="#m1435c93f80" y="504"/>
     <use style="fill:#ff0000;" x="482.688" xlink:href="#m1435c93f80" y="504"/>
     <use style="fill:#ff0000;" x="491.616" xlink:href="#m1435c93f80" y="504"/>
     <use style="fill:#ff0000;" x="500.544" xlink:href="#m1435c93f80" y="504"/>
     <use style="fill:#ff0000;" x="509.472" xlink:href="#m1435c93f80" y="504"/>
    </g>
   </g>
   <g id="line2d_34">
    <defs>
     <path d="M -3 3 
L 3 3 
L 3 -3 
L -3 -3 
z
" id="mbda281ef43"/>
    </defs>
    <g clip-path="url(#p185a9fc52c)">
     <use style="fill:#008000;" x="72" xlink:href="#mbda281ef43" y="499.86864"/>
     <use style="fill:#008000;" x="80.928" xlink:href="#mbda281ef43" y="496.82448"/>
     <use style="fill:#008000;" x="89.856" xlink:href="#mbda281ef43" y="485.30016"/>
     <use style="fill:#008000;" x="98.784" xlink:href="#mbda281ef43" y="458.55504"/>
     <use style="fill:#008000;" x="107.712" xlink:href="#mbda281ef43" y="409.19616"/>
     <use style="fill:#008000;" x="116.64" xlink:href="#mbda281ef43" y="330.26544"/>
     <use style="fill:#008000;" x="125.568" xlink:href="#mbda281ef43" y="266.77296"/>
     <use style="fill:#008000;" x="134.496" xlink:href="#mbda281ef43" y="220.02336"/>
     <use style="fill:#008000;" x="143.424" xlink:href="#mbda281ef43" y="208.93392"/>
     <use style="fill:#008000;" x="152.352" xlink:href="#mbda281ef43" y="218.50128"/>
     <use style="fill:#008000;" x="161.28" xlink:href="#mbda281ef43" y="231.76512"/>
     <use style="fill:#008000;" x="170.208" xlink:href="#mbda281ef43" y="253.72656"/>
     <use style="fill:#008000;" x="179.136" xlink:href="#mbda281ef43" y="271.3392"/>
     <use style="fill:#008000;" x="188.064" xlink:href="#mbda281ef43" y="292.64832"/>
     <use style="fill:#008000;" x="196.992" xlink:href="#mbda281ef43" y="312.6528"/>
     <use style="fill:#008000;" x="205.92" xlink:href="#mbda281ef43" y="330.26544"/>
     <use style="fill:#008000;" x="214.848" xlink:href="#mbda281ef43" y="346.79088"/>
     <use style="fill:#008000;" x="223.776" xlink:href="#mbda281ef43" y="364.18608"/>
     <use style="fill:#008000;" x="232.704" xlink:href="#mbda281ef43" y="376.58016"/>
     <use style="fill:#008000;" x="241.632" xlink:href="#mbda281ef43" y="390.06144"/>
     <use style="fill:#008000;" x="250.56" xlink:href="#mbda281ef43" y="400.28112"/>
     <use style="fill:#008000;" x="259.488" xlink:href="#mbda281ef43" y="411.588"/>
     <use style="fill:#008000;" x="268.416" xlink:href="#mbda281ef43" y="418.98096"/>
     <use style="fill:#008000;" x="277.344" xlink:href="#mbda281ef43" y="426.59136"/>
     <use style="fill:#008000;" x="286.272" xlink:href="#mbda281ef43" y="434.20176"/>
     <use style="fill:#008000;" x="295.2" xlink:href="#mbda281ef43" y="441.81216"/>
     <use style="fill:#008000;" x="304.128" xlink:href="#mbda281ef43" y="446.81328"/>
     <use style="fill:#008000;" x="313.056" xlink:href="#mbda281ef43" y="451.8144"/>
     <use style="fill:#008000;" x="321.984" xlink:href="#mbda281ef43" y="456.1632"/>
     <use style="fill:#008000;" x="330.912" xlink:href="#mbda281ef43" y="461.81664"/>
     <use style="fill:#008000;" x="339.84" xlink:href="#mbda281ef43" y="464.64336"/>
     <use style="fill:#008000;" x="348.768" xlink:href="#mbda281ef43" y="468.33984"/>
     <use style="fill:#008000;" x="357.696" xlink:href="#mbda281ef43" y="471.16656"/>
     <use style="fill:#008000;" x="366.624" xlink:href="#mbda281ef43" y="473.12352"/>
     <use style="fill:#008000;" x="375.552" xlink:href="#mbda281ef43" y="476.60256"/>
     <use style="fill:#008000;" x="384.48" xlink:href="#mbda281ef43" y="480.29904"/>
     <use style="fill:#008000;" x="393.408" xlink:href="#mbda281ef43" y="482.69088"/>
     <use style="fill:#008000;" x="402.336" xlink:href="#mbda281ef43" y="485.30016"/>
     <use style="fill:#008000;" x="411.264" xlink:href="#mbda281ef43" y="487.47456"/>
     <use style="fill:#008000;" x="420.192" xlink:href="#mbda281ef43" y="489.21408"/>
     <use style="fill:#008000;" x="429.12" xlink:href="#mbda281ef43" y="490.9536"/>
     <use style="fill:#008000;" x="438.048" xlink:href="#mbda281ef43" y="492.47568"/>
     <use style="fill:#008000;" x="446.976" xlink:href="#mbda281ef43" y="494.86752"/>
     <use style="fill:#008000;" x="455.904" xlink:href="#mbda281ef43" y="495.3024"/>
     <use style="fill:#008000;" x="464.832" xlink:href="#mbda281ef43" y="495.95472"/>
     <use style="fill:#008000;" x="473.76" xlink:href="#mbda281ef43" y="496.82448"/>
     <use style="fill:#008000;" x="482.688" xlink:href="#mbda281ef43" y="498.12912"/>
     <use style="fill:#008000;" x="491.616" xlink:href="#mbda281ef43" y="498.564"/>
     <use style="fill:#008000;" x="500.544" xlink:href="#mbda281ef43" y="498.564"/>
     <use style="fill:#008000;" x="509.472" xlink:href="#mbda281ef43" y="498.78144"/>
    </g>
   </g>
   <g id="patch_3">
    <path d="M 72 504 
L 72 69.12 
" style="fill:none;stroke:#ffffff;stroke-linecap:square;stroke-linejoin:miter;stroke-width:1.25;"/>
   </g>
   <g id="patch_4">
    <path d="M 518.4 504 
L 518.4 69.12 
" style="fill:none;stroke:#ffffff;stroke-linecap:square;stroke-linejoin:miter;stroke-width:1.25;"/>
   </g>
   <g id="patch_5">
    <path d="M 72 504 
L 518.4 504 
" style="fill:none;stroke:#ffffff;stroke-linecap:square;stroke-linejoin:miter;stroke-width:1.25;"/>
   </g>
   <g id="patch_6">
    <path d="M 72 69.12 
L 518.4 69.12 
" style="fill:none;stroke:#ffffff;stroke-linecap:square;stroke-linejoin:miter;stroke-width:1.25;"/>
   </g>
   <g id="text_18">
    <!-- Equations vs network ($p_{\mathit{infect}} = 0.0000050$, $p_{remove} = 0.001$) -->
    <defs>
     <path d="M 7.90625 0 
L 7.90625 71.578125 
L 59.671875 71.578125 
L 59.671875 63.140625 
L 17.390625 63.140625 
L 17.390625 41.21875 
L 56.984375 41.21875 
L 56.984375 32.8125 
L 17.390625 32.8125 
L 17.390625 8.453125 
L 61.328125 8.453125 
L 61.328125 0 
z
" id="ArialMT-69"/>
     <path d="M 39.65625 -19.875 
L 39.65625 5.515625 
Q 37.59375 2.640625 33.90625 0.734375 
Q 30.21875 -1.171875 26.078125 -1.171875 
Q 16.84375 -1.171875 10.171875 6.203125 
Q 3.515625 13.578125 3.515625 26.421875 
Q 3.515625 34.234375 6.21875 40.421875 
Q 8.9375 46.625 14.078125 49.828125 
Q 19.234375 53.03125 25.390625 53.03125 
Q 35.015625 53.03125 40.53125 44.921875 
L 40.53125 51.859375 
L 48.4375 51.859375 
L 48.4375 -19.875 
z
M 12.546875 26.078125 
Q 12.546875 16.0625 16.75 11.0625 
Q 20.953125 6.0625 26.8125 6.0625 
Q 32.421875 6.0625 36.46875 10.8125 
Q 40.53125 15.578125 40.53125 25.296875 
Q 40.53125 35.640625 36.25 40.859375 
Q 31.984375 46.09375 26.21875 46.09375 
Q 20.515625 46.09375 16.53125 41.234375 
Q 12.546875 36.375 12.546875 26.078125 
z
" id="ArialMT-113"/>
     <path d="M 21 0 
L 1.265625 51.859375 
L 10.546875 51.859375 
L 21.6875 20.796875 
Q 23.484375 15.765625 25 10.359375 
Q 26.171875 14.453125 28.265625 20.21875 
L 39.796875 51.859375 
L 48.828125 51.859375 
L 29.203125 0 
z
" id="ArialMT-118"/>
     <path d="M 42.09375 16.703125 
L 51.171875 15.578125 
Q 49.03125 7.625 43.21875 3.21875 
Q 37.40625 -1.171875 28.375 -1.171875 
Q 17 -1.171875 10.328125 5.828125 
Q 3.65625 12.84375 3.65625 25.484375 
Q 3.65625 38.578125 10.390625 45.796875 
Q 17.140625 53.03125 27.875 53.03125 
Q 38.28125 53.03125 44.875 45.953125 
Q 51.46875 38.875 51.46875 26.03125 
Q 51.46875 25.25 51.421875 23.6875 
L 12.75 23.6875 
Q 13.234375 15.140625 17.578125 10.59375 
Q 21.921875 6.0625 28.421875 6.0625 
Q 33.25 6.0625 36.671875 8.59375 
Q 40.09375 11.140625 42.09375 16.703125 
z
M 13.234375 30.90625 
L 42.1875 30.90625 
Q 41.609375 37.453125 38.875 40.71875 
Q 34.671875 45.796875 27.984375 45.796875 
Q 21.921875 45.796875 17.796875 41.75 
Q 13.671875 37.703125 13.234375 30.90625 
z
" id="ArialMT-101"/>
     <path d="M 16.15625 0 
L 0.296875 51.859375 
L 9.375 51.859375 
L 17.625 21.921875 
L 20.703125 10.796875 
Q 20.90625 11.625 23.390625 21.484375 
L 31.640625 51.859375 
L 40.671875 51.859375 
L 48.4375 21.78125 
L 51.03125 11.859375 
L 54 21.875 
L 62.890625 51.859375 
L 71.4375 51.859375 
L 55.21875 0 
L 46.09375 0 
L 37.84375 31.0625 
L 35.84375 39.890625 
L 25.34375 0 
z
" id="ArialMT-119"/>
     <path d="M 6.5 0 
L 6.5 51.859375 
L 14.40625 51.859375 
L 14.40625 44 
Q 17.4375 49.515625 20 51.265625 
Q 22.5625 53.03125 25.640625 53.03125 
Q 30.078125 53.03125 34.671875 50.203125 
L 31.640625 42.046875 
Q 28.421875 43.953125 25.203125 43.953125 
Q 22.3125 43.953125 20.015625 42.21875 
Q 17.71875 40.484375 16.75 37.40625 
Q 15.28125 32.71875 15.28125 27.15625 
L 15.28125 0 
z
" id="ArialMT-114"/>
     <path d="M 6.640625 0 
L 6.640625 71.578125 
L 15.4375 71.578125 
L 15.4375 30.765625 
L 36.234375 51.859375 
L 47.609375 51.859375 
L 27.78125 32.625 
L 49.609375 0 
L 38.765625 0 
L 21.625 26.515625 
L 15.4375 20.5625 
L 15.4375 0 
z
" id="ArialMT-107"/>
     <path d="M 23.390625 -21.046875 
Q 16.109375 -11.859375 11.078125 0.4375 
Q 6.0625 12.75 6.0625 25.921875 
Q 6.0625 37.546875 9.8125 48.1875 
Q 14.203125 60.546875 23.390625 72.796875 
L 29.6875 72.796875 
Q 23.78125 62.640625 21.875 58.296875 
Q 18.890625 51.5625 17.1875 44.234375 
Q 15.09375 35.109375 15.09375 25.875 
Q 15.09375 2.390625 29.6875 -21.046875 
z
" id="ArialMT-40"/>
     <path d="M 49.609375 33.6875 
Q 49.609375 40.875 46.484375 44.671875 
Q 43.359375 48.484375 37.5 48.484375 
Q 33.5 48.484375 29.859375 46.4375 
Q 26.21875 44.390625 23.390625 40.484375 
Q 20.609375 36.625 18.9375 31.15625 
Q 17.28125 25.6875 17.28125 20.3125 
Q 17.28125 13.484375 20.40625 9.796875 
Q 23.53125 6.109375 29.296875 6.109375 
Q 33.546875 6.109375 37.1875 8.109375 
Q 40.828125 10.109375 43.40625 13.921875 
Q 46.1875 17.921875 47.890625 23.34375 
Q 49.609375 28.765625 49.609375 33.6875 
z
M 21.78125 46.390625 
Q 25.390625 51.125 30.296875 53.5625 
Q 35.203125 56 41.21875 56 
Q 49.609375 56 54.25 50.5 
Q 58.890625 45.015625 58.890625 35.109375 
Q 58.890625 27 56 19.65625 
Q 53.125 12.3125 47.703125 6.5 
Q 44.09375 2.640625 39.546875 0.609375 
Q 35.015625 -1.421875 29.984375 -1.421875 
Q 24.171875 -1.421875 20.21875 1 
Q 16.265625 3.421875 14.3125 8.203125 
L 8.6875 -20.796875 
L -0.296875 -20.796875 
L 14.40625 54.6875 
L 23.390625 54.6875 
z
" id="DejaVuSans-Oblique-112"/>
     <path d="M 18.3125 75.984375 
L 27.296875 75.984375 
L 25.09375 64.59375 
L 16.109375 64.59375 
z
M 14.203125 54.6875 
L 23.1875 54.6875 
L 12.5 0 
L 3.515625 0 
z
" id="DejaVuSans-Oblique-105"/>
     <path d="M 55.71875 33.015625 
L 49.3125 0 
L 40.28125 0 
L 46.6875 32.671875 
Q 47.125 34.96875 47.359375 36.71875 
Q 47.609375 38.484375 47.609375 39.5 
Q 47.609375 43.609375 45.015625 45.890625 
Q 42.4375 48.1875 37.796875 48.1875 
Q 30.5625 48.1875 25.34375 43.375 
Q 20.125 38.578125 18.5 30.328125 
L 12.5 0 
L 3.515625 0 
L 14.109375 54.6875 
L 23.09375 54.6875 
L 21.296875 46.09375 
Q 25.046875 50.828125 30.3125 53.40625 
Q 35.59375 56 41.40625 56 
Q 48.640625 56 52.609375 52.09375 
Q 56.59375 48.1875 56.59375 41.109375 
Q 56.59375 39.359375 56.375 37.359375 
Q 56.15625 35.359375 55.71875 33.015625 
z
" id="DejaVuSans-Oblique-110"/>
     <path d="M 47.796875 75.984375 
L 46.390625 68.5 
L 37.796875 68.5 
Q 32.90625 68.5 30.6875 66.578125 
Q 28.46875 64.65625 27.390625 59.515625 
L 26.421875 54.6875 
L 41.21875 54.6875 
L 39.890625 47.703125 
L 25.09375 47.703125 
L 15.828125 0 
L 6.78125 0 
L 16.109375 47.703125 
L 7.515625 47.703125 
L 8.796875 54.6875 
L 17.390625 54.6875 
L 18.109375 58.5 
Q 19.96875 68.171875 24.625 72.078125 
Q 29.296875 75.984375 39.3125 75.984375 
z
" id="DejaVuSans-Oblique-102"/>
     <path d="M 48.09375 32.234375 
Q 48.25 33.015625 48.3125 33.84375 
Q 48.390625 34.671875 48.390625 35.5 
Q 48.390625 41.453125 44.890625 44.921875 
Q 41.40625 48.390625 35.40625 48.390625 
Q 28.71875 48.390625 23.578125 44.15625 
Q 18.453125 39.9375 15.828125 32.171875 
z
M 55.90625 25.203125 
L 14.109375 25.203125 
Q 13.8125 23.34375 13.71875 22.265625 
Q 13.625 21.1875 13.625 20.40625 
Q 13.625 13.625 17.796875 9.90625 
Q 21.96875 6.203125 29.59375 6.203125 
Q 35.453125 6.203125 40.671875 7.515625 
Q 45.90625 8.84375 50.390625 11.375 
L 48.6875 2.484375 
Q 43.84375 0.53125 38.6875 -0.4375 
Q 33.546875 -1.421875 28.21875 -1.421875 
Q 16.84375 -1.421875 10.71875 4.015625 
Q 4.59375 9.46875 4.59375 19.484375 
Q 4.59375 28.03125 7.640625 35.375 
Q 10.6875 42.71875 16.609375 48.484375 
Q 20.40625 52.09375 25.65625 54.046875 
Q 30.90625 56 36.8125 56 
Q 46.09375 56 51.578125 50.4375 
Q 57.078125 44.875 57.078125 35.5 
Q 57.078125 33.25 56.78125 30.6875 
Q 56.5 28.125 55.90625 25.203125 
z
" id="DejaVuSans-Oblique-101"/>
     <path d="M 53.609375 52.59375 
L 51.8125 43.703125 
Q 48.578125 46.046875 44.9375 47.21875 
Q 41.3125 48.390625 37.40625 48.390625 
Q 33.109375 48.390625 29.21875 46.875 
Q 25.34375 45.359375 22.703125 42.578125 
Q 18.5 38.328125 16.203125 32.609375 
Q 13.921875 26.90625 13.921875 20.796875 
Q 13.921875 13.421875 17.609375 9.8125 
Q 21.296875 6.203125 28.8125 6.203125 
Q 32.515625 6.203125 36.6875 7.328125 
Q 40.875 8.453125 45.40625 10.6875 
L 43.703125 1.8125 
Q 39.796875 0.203125 35.671875 -0.609375 
Q 31.546875 -1.421875 27.203125 -1.421875 
Q 16.3125 -1.421875 10.453125 4.015625 
Q 4.59375 9.46875 4.59375 19.578125 
Q 4.59375 28.078125 7.640625 35.234375 
Q 10.6875 42.390625 16.703125 48.09375 
Q 20.796875 52 26.3125 54 
Q 31.84375 56 38.375 56 
Q 42.1875 56 45.9375 55.140625 
Q 49.703125 54.296875 53.609375 52.59375 
z
" id="DejaVuSans-Oblique-99"/>
     <path d="M 10.59375 45.40625 
L 73.1875 45.40625 
L 73.1875 37.203125 
L 10.59375 37.203125 
z
M 10.59375 25.484375 
L 73.1875 25.484375 
L 73.1875 17.1875 
L 10.59375 17.1875 
z
" id="DejaVuSans-61"/>
     <path d="M 31.78125 66.40625 
Q 24.171875 66.40625 20.328125 58.90625 
Q 16.5 51.421875 16.5 36.375 
Q 16.5 21.390625 20.328125 13.890625 
Q 24.171875 6.390625 31.78125 6.390625 
Q 39.453125 6.390625 43.28125 13.890625 
Q 47.125 21.390625 47.125 36.375 
Q 47.125 51.421875 43.28125 58.90625 
Q 39.453125 66.40625 31.78125 66.40625 
z
M 31.78125 74.21875 
Q 44.046875 74.21875 50.515625 64.515625 
Q 56.984375 54.828125 56.984375 36.375 
Q 56.984375 17.96875 50.515625 8.265625 
Q 44.046875 -1.421875 31.78125 -1.421875 
Q 19.53125 -1.421875 13.0625 8.265625 
Q 6.59375 17.96875 6.59375 36.375 
Q 6.59375 54.828125 13.0625 64.515625 
Q 19.53125 74.21875 31.78125 74.21875 
z
" id="DejaVuSans-48"/>
     <path d="M 10.6875 12.40625 
L 21 12.40625 
L 21 0 
L 10.6875 0 
z
" id="DejaVuSans-46"/>
     <path d="M 10.796875 72.90625 
L 49.515625 72.90625 
L 49.515625 64.59375 
L 19.828125 64.59375 
L 19.828125 46.734375 
Q 21.96875 47.46875 24.109375 47.828125 
Q 26.265625 48.1875 28.421875 48.1875 
Q 40.625 48.1875 47.75 41.5 
Q 54.890625 34.8125 54.890625 23.390625 
Q 54.890625 11.625 47.5625 5.09375 
Q 40.234375 -1.421875 26.90625 -1.421875 
Q 22.3125 -1.421875 17.546875 -0.640625 
Q 12.796875 0.140625 7.71875 1.703125 
L 7.71875 11.625 
Q 12.109375 9.234375 16.796875 8.0625 
Q 21.484375 6.890625 26.703125 6.890625 
Q 35.15625 6.890625 40.078125 11.328125 
Q 45.015625 15.765625 45.015625 23.390625 
Q 45.015625 31 40.078125 35.4375 
Q 35.15625 39.890625 26.703125 39.890625 
Q 22.75 39.890625 18.8125 39.015625 
Q 14.890625 38.140625 10.796875 36.28125 
z
" id="DejaVuSans-53"/>
     <path d="M 8.890625 0 
L 8.890625 10.015625 
L 18.890625 10.015625 
L 18.890625 0 
Q 18.890625 -5.515625 16.9375 -8.90625 
Q 14.984375 -12.3125 10.75 -14.15625 
L 8.296875 -10.40625 
Q 11.078125 -9.1875 12.390625 -6.8125 
Q 13.71875 -4.4375 13.875 0 
z
" id="ArialMT-44"/>
     <path d="M 44.578125 46.390625 
Q 43.21875 47.125 41.453125 47.515625 
Q 39.703125 47.90625 37.703125 47.90625 
Q 30.515625 47.90625 25.140625 42.453125 
Q 19.78125 37.015625 18.015625 27.875 
L 12.5 0 
L 3.515625 0 
L 14.203125 54.6875 
L 23.1875 54.6875 
L 21.484375 46.1875 
Q 25.046875 50.921875 30 53.453125 
Q 34.96875 56 40.578125 56 
Q 42.046875 56 43.453125 55.828125 
Q 44.875 55.671875 46.296875 55.28125 
z
" id="DejaVuSans-Oblique-114"/>
     <path d="M 89.796875 33.015625 
L 83.40625 0 
L 74.421875 0 
L 80.71875 32.71875 
Q 81.109375 34.8125 81.296875 36.328125 
Q 81.5 37.84375 81.5 38.921875 
Q 81.5 43.3125 79.046875 45.75 
Q 76.609375 48.1875 72.21875 48.1875 
Q 65.671875 48.1875 60.546875 43.28125 
Q 55.421875 38.375 53.90625 30.515625 
L 47.90625 0 
L 38.921875 0 
L 45.3125 32.71875 
Q 45.703125 34.515625 45.890625 36.046875 
Q 46.09375 37.59375 46.09375 38.8125 
Q 46.09375 43.265625 43.65625 45.71875 
Q 41.21875 48.1875 36.921875 48.1875 
Q 30.28125 48.1875 25.140625 43.28125 
Q 20.015625 38.375 18.5 30.515625 
L 12.5 0 
L 3.515625 0 
L 14.203125 54.6875 
L 23.1875 54.6875 
L 21.484375 46.1875 
Q 25.140625 50.984375 30.046875 53.484375 
Q 34.96875 56 40.578125 56 
Q 46.53125 56 50.359375 52.875 
Q 54.203125 49.75 54.984375 44.1875 
Q 59.078125 49.953125 64.46875 52.96875 
Q 69.875 56 75.875 56 
Q 82.90625 56 86.734375 51.953125 
Q 90.578125 47.90625 90.578125 40.484375 
Q 90.578125 38.875 90.375 36.9375 
Q 90.1875 35.015625 89.796875 33.015625 
z
" id="DejaVuSans-Oblique-109"/>
     <path d="M 25.390625 -1.421875 
Q 15.765625 -1.421875 10.171875 4.515625 
Q 4.59375 10.453125 4.59375 20.703125 
Q 4.59375 26.65625 6.515625 32.828125 
Q 8.453125 39.015625 11.53125 43.21875 
Q 16.359375 49.75 22.3125 52.875 
Q 28.265625 56 35.796875 56 
Q 45.125 56 50.859375 50.1875 
Q 56.59375 44.390625 56.59375 35.015625 
Q 56.59375 28.515625 54.6875 22.0625 
Q 52.78125 15.625 49.703125 11.375 
Q 44.921875 4.828125 38.96875 1.703125 
Q 33.015625 -1.421875 25.390625 -1.421875 
z
M 13.921875 21 
Q 13.921875 13.578125 17.015625 9.890625 
Q 20.125 6.203125 26.421875 6.203125 
Q 35.453125 6.203125 41.375 14.078125 
Q 47.3125 21.96875 47.3125 34.078125 
Q 47.3125 41.15625 44.140625 44.765625 
Q 40.96875 48.390625 34.8125 48.390625 
Q 29.734375 48.390625 25.78125 46.015625 
Q 21.828125 43.65625 18.703125 38.8125 
Q 16.40625 35.203125 15.15625 30.5625 
Q 13.921875 25.921875 13.921875 21 
z
" id="DejaVuSans-Oblique-111"/>
     <path d="M 7.171875 54.6875 
L 16.703125 54.6875 
L 24.703125 8.203125 
L 50.875 54.6875 
L 60.40625 54.6875 
L 29.296875 0 
L 17.1875 0 
z
" id="DejaVuSans-Oblique-118"/>
     <path d="M 12.40625 8.296875 
L 28.515625 8.296875 
L 28.515625 63.921875 
L 10.984375 60.40625 
L 10.984375 69.390625 
L 28.421875 72.90625 
L 38.28125 72.90625 
L 38.28125 8.296875 
L 54.390625 8.296875 
L 54.390625 0 
L 12.40625 0 
z
" id="DejaVuSans-49"/>
     <path d="M 12.359375 -21.046875 
L 6.0625 -21.046875 
Q 20.65625 2.390625 20.65625 25.875 
Q 20.65625 35.0625 18.5625 44.09375 
Q 16.890625 51.421875 13.921875 58.15625 
Q 12.015625 62.546875 6.0625 72.796875 
L 12.359375 72.796875 
Q 21.53125 60.546875 25.921875 48.1875 
Q 29.6875 37.546875 29.6875 25.921875 
Q 29.6875 12.75 24.625 0.4375 
Q 19.578125 -11.859375 12.359375 -21.046875 
z
" id="ArialMT-41"/>
    </defs>
    <g style="fill:#262626;" transform="translate(4.245 41.376)scale(0.21 -0.21)">
     <use transform="translate(0 0.78125)" xlink:href="#ArialMT-69"/>
     <use transform="translate(66.699219 0.78125)" xlink:href="#ArialMT-113"/>
     <use transform="translate(122.314453 0.78125)" xlink:href="#ArialMT-117"/>
     <use transform="translate(177.929688 0.78125)" xlink:href="#ArialMT-97"/>
     <use transform="translate(233.544922 0.78125)" xlink:href="#ArialMT-116"/>
     <use transform="translate(261.328125 0.78125)" xlink:href="#ArialMT-105"/>
     <use transform="translate(283.544922 0.78125)" xlink:href="#ArialMT-111"/>
     <use transform="translate(339.160156 0.78125)" xlink:href="#ArialMT-110"/>
     <use transform="translate(394.775391 0.78125)" xlink:href="#ArialMT-115"/>
     <use transform="translate(444.775391 0.78125)" xlink:href="#ArialMT-32"/>
     <use transform="translate(472.558594 0.78125)" xlink:href="#ArialMT-118"/>
     <use transform="translate(522.558594 0.78125)" xlink:href="#ArialMT-115"/>
     <use transform="translate(572.558594 0.78125)" xlink:href="#ArialMT-32"/>
     <use transform="translate(600.341797 0.78125)" xlink:href="#ArialMT-110"/>
     <use transform="translate(655.957031 0.78125)" xlink:href="#ArialMT-101"/>
     <use transform="translate(711.572266 0.78125)" xlink:href="#ArialMT-116"/>
     <use transform="translate(739.355469 0.78125)" xlink:href="#ArialMT-119"/>
     <use transform="translate(811.572266 0.78125)" xlink:href="#ArialMT-111"/>
     <use transform="translate(867.1875 0.78125)" xlink:href="#ArialMT-114"/>
     <use transform="translate(900.488281 0.78125)" xlink:href="#ArialMT-107"/>
     <use transform="translate(950.488281 0.78125)" xlink:href="#ArialMT-32"/>
     <use transform="translate(978.271484 0.78125)" xlink:href="#ArialMT-40"/>
     <use transform="translate(1011.572266 0.78125)" xlink:href="#DejaVuSans-Oblique-112"/>
     <use transform="translate(1075.048828 -15.625)scale(0.7)" xlink:href="#DejaVuSans-Oblique-105"/>
     <use transform="translate(1094.49707 -15.625)scale(0.7)" xlink:href="#DejaVuSans-Oblique-110"/>
     <use transform="translate(1138.862305 -15.625)scale(0.7)" xlink:href="#DejaVuSans-Oblique-102"/>
     <use transform="translate(1163.505859 -15.625)scale(0.7)" xlink:href="#DejaVuSans-Oblique-101"/>
     <use transform="translate(1206.572266 -15.625)scale(0.7)" xlink:href="#DejaVuSans-Oblique-99"/>
     <use transform="translate(1245.058594 -15.625)scale(0.7)" xlink:href="#DejaVuSans-Oblique-116"/>
     <use transform="translate(1294.72168 0.78125)" xlink:href="#DejaVuSans-61"/>
     <use transform="translate(1397.993164 0.78125)" xlink:href="#DejaVuSans-48"/>
     <use transform="translate(1461.616211 0.78125)" xlink:href="#DejaVuSans-46"/>
     <use transform="translate(1493.40332 0.78125)" xlink:href="#DejaVuSans-48"/>
     <use transform="translate(1557.026367 0.78125)" xlink:href="#DejaVuSans-48"/>
     <use transform="translate(1620.649414 0.78125)" xlink:href="#DejaVuSans-48"/>
     <use transform="translate(1684.272461 0.78125)" xlink:href="#DejaVuSans-48"/>
     <use transform="translate(1747.895508 0.78125)" xlink:href="#DejaVuSans-48"/>
     <use transform="translate(1811.518555 0.78125)" xlink:href="#DejaVuSans-53"/>
     <use transform="translate(1875.141602 0.78125)" xlink:href="#DejaVuSans-48"/>
     <use transform="translate(1938.764648 0.78125)" xlink:href="#ArialMT-44"/>
     <use transform="translate(1966.547852 0.78125)" xlink:href="#ArialMT-32"/>
     <use transform="translate(1994.331055 0.78125)" xlink:href="#DejaVuSans-Oblique-112"/>
     <use transform="translate(2057.807617 -15.625)scale(0.7)" xlink:href="#DejaVuSans-Oblique-114"/>
     <use transform="translate(2086.586914 -15.625)scale(0.7)" xlink:href="#DejaVuSans-Oblique-101"/>
     <use transform="translate(2129.65332 -15.625)scale(0.7)" xlink:href="#DejaVuSans-Oblique-109"/>
     <use transform="translate(2197.841797 -15.625)scale(0.7)" xlink:href="#DejaVuSans-Oblique-111"/>
     <use transform="translate(2240.668945 -15.625)scale(0.7)" xlink:href="#DejaVuSans-Oblique-118"/>
     <use transform="translate(2282.094727 -15.625)scale(0.7)" xlink:href="#DejaVuSans-Oblique-101"/>
     <use transform="translate(2347.37793 0.78125)" xlink:href="#DejaVuSans-61"/>
     <use transform="translate(2450.649414 0.78125)" xlink:href="#DejaVuSans-48"/>
     <use transform="translate(2514.272461 0.78125)" xlink:href="#DejaVuSans-46"/>
     <use transform="translate(2546.05957 0.78125)" xlink:href="#DejaVuSans-48"/>
     <use transform="translate(2609.682617 0.78125)" xlink:href="#DejaVuSans-48"/>
     <use transform="translate(2673.305664 0.78125)" xlink:href="#DejaVuSans-49"/>
     <use transform="translate(2736.928711 0.78125)" xlink:href="#ArialMT-41"/>
    </g>
   </g>
   <g id="legend_1">
    <g id="line2d_35">
     <path d="M 255.673594 243.268555 
L 294.173594 243.268555 
" style="fill:none;stroke:#ff0000;stroke-linecap:round;stroke-width:1.5;"/>
    </g>
    <g id="line2d_36"/>
    <g id="text_19">
     <!-- suceptible (theory) -->
     <defs>
      <path d="M 40.4375 19 
L 49.078125 17.875 
Q 47.65625 8.9375 41.8125 3.875 
Q 35.984375 -1.171875 27.484375 -1.171875 
Q 16.84375 -1.171875 10.375 5.78125 
Q 3.90625 12.75 3.90625 25.734375 
Q 3.90625 34.125 6.6875 40.421875 
Q 9.46875 46.734375 15.15625 49.875 
Q 20.84375 53.03125 27.546875 53.03125 
Q 35.984375 53.03125 41.359375 48.75 
Q 46.734375 44.484375 48.25 36.625 
L 39.703125 35.296875 
Q 38.484375 40.53125 35.375 43.15625 
Q 32.28125 45.796875 27.875 45.796875 
Q 21.234375 45.796875 17.078125 41.03125 
Q 12.9375 36.28125 12.9375 25.984375 
Q 12.9375 15.53125 16.9375 10.796875 
Q 20.953125 6.0625 27.390625 6.0625 
Q 32.5625 6.0625 36.03125 9.234375 
Q 39.5 12.40625 40.4375 19 
z
" id="ArialMT-99"/>
      <path d="M 14.703125 0 
L 6.546875 0 
L 6.546875 71.578125 
L 15.328125 71.578125 
L 15.328125 46.046875 
Q 20.90625 53.03125 29.546875 53.03125 
Q 34.328125 53.03125 38.59375 51.09375 
Q 42.875 49.171875 45.625 45.671875 
Q 48.390625 42.1875 49.953125 37.25 
Q 51.515625 32.328125 51.515625 26.703125 
Q 51.515625 13.375 44.921875 6.09375 
Q 38.328125 -1.171875 29.109375 -1.171875 
Q 19.921875 -1.171875 14.703125 6.5 
z
M 14.59375 26.3125 
Q 14.59375 17 17.140625 12.84375 
Q 21.296875 6.0625 28.375 6.0625 
Q 34.125 6.0625 38.328125 11.0625 
Q 42.53125 16.0625 42.53125 25.984375 
Q 42.53125 36.140625 38.5 40.96875 
Q 34.46875 45.796875 28.765625 45.796875 
Q 23 45.796875 18.796875 40.796875 
Q 14.59375 35.796875 14.59375 26.3125 
z
" id="ArialMT-98"/>
      <path d="M 6.203125 -19.96875 
L 5.21875 -11.71875 
Q 8.109375 -12.5 10.25 -12.5 
Q 13.1875 -12.5 14.9375 -11.515625 
Q 16.703125 -10.546875 17.828125 -8.796875 
Q 18.65625 -7.46875 20.515625 -2.25 
Q 20.75 -1.515625 21.296875 -0.09375 
L 1.609375 51.859375 
L 11.078125 51.859375 
L 21.875 21.828125 
Q 23.96875 16.109375 25.640625 9.8125 
Q 27.15625 15.875 29.25 21.625 
L 40.328125 51.859375 
L 49.125 51.859375 
L 29.390625 -0.875 
Q 26.21875 -9.421875 24.46875 -12.640625 
Q 22.125 -17 19.09375 -19.015625 
Q 16.0625 -21.046875 11.859375 -21.046875 
Q 9.328125 -21.046875 6.203125 -19.96875 
z
" id="ArialMT-121"/>
     </defs>
     <g style="fill:#262626;" transform="translate(309.573594 250.006055)scale(0.1925 -0.1925)">
      <use xlink:href="#ArialMT-115"/>
      <use x="50" xlink:href="#ArialMT-117"/>
      <use x="105.615234" xlink:href="#ArialMT-99"/>
      <use x="155.615234" xlink:href="#ArialMT-101"/>
      <use x="211.230469" xlink:href="#ArialMT-112"/>
      <use x="266.845703" xlink:href="#ArialMT-116"/>
      <use x="294.628906" xlink:href="#ArialMT-105"/>
      <use x="316.845703" xlink:href="#ArialMT-98"/>
      <use x="372.460938" xlink:href="#ArialMT-108"/>
      <use x="394.677734" xlink:href="#ArialMT-101"/>
      <use x="450.292969" xlink:href="#ArialMT-32"/>
      <use x="478.076172" xlink:href="#ArialMT-40"/>
      <use x="511.376953" xlink:href="#ArialMT-116"/>
      <use x="539.160156" xlink:href="#ArialMT-104"/>
      <use x="594.775391" xlink:href="#ArialMT-101"/>
      <use x="650.390625" xlink:href="#ArialMT-111"/>
      <use x="706.005859" xlink:href="#ArialMT-114"/>
      <use x="739.306641" xlink:href="#ArialMT-121"/>
      <use x="789.306641" xlink:href="#ArialMT-41"/>
     </g>
    </g>
    <g id="line2d_37">
     <path d="M 255.673594 270.958477 
L 294.173594 270.958477 
" style="fill:none;stroke:#008000;stroke-linecap:round;stroke-width:1.5;"/>
    </g>
    <g id="line2d_38"/>
    <g id="text_20">
     <!-- infected (theory) -->
     <defs>
      <path d="M 8.6875 0 
L 8.6875 45.015625 
L 0.921875 45.015625 
L 0.921875 51.859375 
L 8.6875 51.859375 
L 8.6875 57.375 
Q 8.6875 62.59375 9.625 65.140625 
Q 10.890625 68.5625 14.078125 70.671875 
Q 17.28125 72.796875 23.046875 72.796875 
Q 26.765625 72.796875 31.25 71.921875 
L 29.9375 64.265625 
Q 27.203125 64.75 24.75 64.75 
Q 20.75 64.75 19.09375 63.03125 
Q 17.4375 61.328125 17.4375 56.640625 
L 17.4375 51.859375 
L 27.546875 51.859375 
L 27.546875 45.015625 
L 17.4375 45.015625 
L 17.4375 0 
z
" id="ArialMT-102"/>
      <path d="M 40.234375 0 
L 40.234375 6.546875 
Q 35.296875 -1.171875 25.734375 -1.171875 
Q 19.53125 -1.171875 14.328125 2.25 
Q 9.125 5.671875 6.265625 11.796875 
Q 3.421875 17.921875 3.421875 25.875 
Q 3.421875 33.640625 6 39.96875 
Q 8.59375 46.296875 13.765625 49.65625 
Q 18.953125 53.03125 25.34375 53.03125 
Q 30.03125 53.03125 33.6875 51.046875 
Q 37.359375 49.078125 39.65625 45.90625 
L 39.65625 71.578125 
L 48.390625 71.578125 
L 48.390625 0 
z
M 12.453125 25.875 
Q 12.453125 15.921875 16.640625 10.984375 
Q 20.84375 6.0625 26.5625 6.0625 
Q 32.328125 6.0625 36.34375 10.765625 
Q 40.375 15.484375 40.375 25.140625 
Q 40.375 35.796875 36.265625 40.765625 
Q 32.171875 45.75 26.171875 45.75 
Q 20.3125 45.75 16.375 40.96875 
Q 12.453125 36.1875 12.453125 25.875 
z
" id="ArialMT-100"/>
     </defs>
     <g style="fill:#262626;" transform="translate(309.573594 277.695977)scale(0.1925 -0.1925)">
      <use xlink:href="#ArialMT-105"/>
      <use x="22.216797" xlink:href="#ArialMT-110"/>
      <use x="77.832031" xlink:href="#ArialMT-102"/>
      <use x="105.615234" xlink:href="#ArialMT-101"/>
      <use x="161.230469" xlink:href="#ArialMT-99"/>
      <use x="211.230469" xlink:href="#ArialMT-116"/>
      <use x="239.013672" xlink:href="#ArialMT-101"/>
      <use x="294.628906" xlink:href="#ArialMT-100"/>
      <use x="350.244141" xlink:href="#ArialMT-32"/>
      <use x="378.027344" xlink:href="#ArialMT-40"/>
      <use x="411.328125" xlink:href="#ArialMT-116"/>
      <use x="439.111328" xlink:href="#ArialMT-104"/>
      <use x="494.726562" xlink:href="#ArialMT-101"/>
      <use x="550.341797" xlink:href="#ArialMT-111"/>
      <use x="605.957031" xlink:href="#ArialMT-114"/>
      <use x="639.257812" xlink:href="#ArialMT-121"/>
      <use x="689.257812" xlink:href="#ArialMT-41"/>
     </g>
    </g>
    <g id="line2d_39"/>
    <g id="line2d_40">
     <g>
      <use style="fill:#ff0000;" x="274.923594" xlink:href="#m1435c93f80" y="298.648398"/>
     </g>
    </g>
    <g id="text_21">
     <!-- suceptible (simulation) -->
     <defs>
      <path d="M 6.59375 0 
L 6.59375 51.859375 
L 14.453125 51.859375 
L 14.453125 44.578125 
Q 16.890625 48.390625 20.9375 50.703125 
Q 25 53.03125 30.171875 53.03125 
Q 35.9375 53.03125 39.625 50.640625 
Q 43.3125 48.25 44.828125 43.953125 
Q 50.984375 53.03125 60.84375 53.03125 
Q 68.5625 53.03125 72.703125 48.75 
Q 76.859375 44.484375 76.859375 35.59375 
L 76.859375 0 
L 68.109375 0 
L 68.109375 32.671875 
Q 68.109375 37.9375 67.25 40.25 
Q 66.40625 42.578125 64.15625 43.984375 
Q 61.921875 45.40625 58.890625 45.40625 
Q 53.421875 45.40625 49.796875 41.765625 
Q 46.1875 38.140625 46.1875 30.125 
L 46.1875 0 
L 37.40625 0 
L 37.40625 33.6875 
Q 37.40625 39.546875 35.25 42.46875 
Q 33.109375 45.40625 28.21875 45.40625 
Q 24.515625 45.40625 21.359375 43.453125 
Q 18.21875 41.5 16.796875 37.734375 
Q 15.375 33.984375 15.375 26.90625 
L 15.375 0 
z
" id="ArialMT-109"/>
     </defs>
     <g style="fill:#262626;" transform="translate(309.573594 305.385898)scale(0.1925 -0.1925)">
      <use xlink:href="#ArialMT-115"/>
      <use x="50" xlink:href="#ArialMT-117"/>
      <use x="105.615234" xlink:href="#ArialMT-99"/>
      <use x="155.615234" xlink:href="#ArialMT-101"/>
      <use x="211.230469" xlink:href="#ArialMT-112"/>
      <use x="266.845703" xlink:href="#ArialMT-116"/>
      <use x="294.628906" xlink:href="#ArialMT-105"/>
      <use x="316.845703" xlink:href="#ArialMT-98"/>
      <use x="372.460938" xlink:href="#ArialMT-108"/>
      <use x="394.677734" xlink:href="#ArialMT-101"/>
      <use x="450.292969" xlink:href="#ArialMT-32"/>
      <use x="478.076172" xlink:href="#ArialMT-40"/>
      <use x="511.376953" xlink:href="#ArialMT-115"/>
      <use x="561.376953" xlink:href="#ArialMT-105"/>
      <use x="583.59375" xlink:href="#ArialMT-109"/>
      <use x="666.894531" xlink:href="#ArialMT-117"/>
      <use x="722.509766" xlink:href="#ArialMT-108"/>
      <use x="744.726562" xlink:href="#ArialMT-97"/>
      <use x="800.341797" xlink:href="#ArialMT-116"/>
      <use x="828.125" xlink:href="#ArialMT-105"/>
      <use x="850.341797" xlink:href="#ArialMT-111"/>
      <use x="905.957031" xlink:href="#ArialMT-110"/>
      <use x="961.572266" xlink:href="#ArialMT-41"/>
     </g>
    </g>
    <g id="line2d_41"/>
    <g id="line2d_42">
     <g>
      <use style="fill:#008000;" x="274.923594" xlink:href="#mbda281ef43" y="326.33832"/>
     </g>
    </g>
    <g id="text_22">
     <!-- infected (simulation) -->
     <g style="fill:#262626;" transform="translate(309.573594 333.07582)scale(0.1925 -0.1925)">
      <use xlink:href="#ArialMT-105"/>
      <use x="22.216797" xlink:href="#ArialMT-110"/>
      <use x="77.832031" xlink:href="#ArialMT-102"/>
      <use x="105.615234" xlink:href="#ArialMT-101"/>
      <use x="161.230469" xlink:href="#ArialMT-99"/>
      <use x="211.230469" xlink:href="#ArialMT-116"/>
      <use x="239.013672" xlink:href="#ArialMT-101"/>
      <use x="294.628906" xlink:href="#ArialMT-100"/>
      <use x="350.244141" xlink:href="#ArialMT-32"/>
      <use x="378.027344" xlink:href="#ArialMT-40"/>
      <use x="411.328125" xlink:href="#ArialMT-115"/>
      <use x="461.328125" xlink:href="#ArialMT-105"/>
      <use x="483.544922" xlink:href="#ArialMT-109"/>
      <use x="566.845703" xlink:href="#ArialMT-117"/>
      <use x="622.460938" xlink:href="#ArialMT-108"/>
      <use x="644.677734" xlink:href="#ArialMT-97"/>
      <use x="700.292969" xlink:href="#ArialMT-116"/>
      <use x="728.076172" xlink:href="#ArialMT-105"/>
      <use x="750.292969" xlink:href="#ArialMT-111"/>
      <use x="805.908203" xlink:href="#ArialMT-110"/>
      <use x="861.523438" xlink:href="#ArialMT-41"/>
     </g>
    </g>
   </g>
  </g>
 </g>
 <defs>
  <clipPath id="p185a9fc52c">
   <rect height="434.88" width="446.4" x="72" y="69.12"/>
  </clipPath>
 </defs>
</svg>
