<?xml version="1.0" encoding="utf-8" standalone="no"?>
<!DOCTYPE svg PUBLIC "-//W3C//DTD SVG 1.1//EN"
  "http://www.w3.org/Graphics/SVG/1.1/DTD/svg11.dtd">
<!-- Created with matplotlib (https://matplotlib.org/) -->
<svg height="576pt" version="1.1" viewBox="0 0 576 576" width="576pt" xmlns="http://www.w3.org/2000/svg" xmlns:xlink="http://www.w3.org/1999/xlink">
 <defs>
  <style type="text/css">
*{stroke-linecap:butt;stroke-linejoin:round;}
  </style>
 </defs>
 <g id="figure_1">
  <g id="patch_1">
   <path d="M 0 576 
L 576 576 
L 576 0 
L 0 0 
z
" style="fill:#ffffff;"/>
  </g>
  <g id="axes_1">
   <g id="patch_2">
    <path d="M 72 504 
L 518.4 504 
L 518.4 69.12 
L 72 69.12 
z
" style="fill:#eaeaf2;"/>
   </g>
   <g id="matplotlib.axis_1">
    <g id="xtick_1">
     <g id="line2d_1">
      <path clip-path="url(#p7d1feb85ab)" d="M 72 504 
L 72 69.12 
" style="fill:none;stroke:#ffffff;stroke-linecap:round;"/>
     </g>
     <g id="line2d_2">
      <defs>
       <path d="M 0 0 
L 0 6 
" id="m4243d57057" style="stroke:#262626;stroke-width:1.25;"/>
      </defs>
      <g>
       <use style="fill:#262626;stroke:#262626;stroke-width:1.25;" x="72" xlink:href="#m4243d57057" y="504"/>
      </g>
     </g>
     <g id="text_1">
      <!-- 0 -->
      <defs>
       <path d="M 51.703125 34.421875 
Q 51.703125 17.1875 45.625 8.09375 
Q 39.546875 -0.984375 27.6875 -0.984375 
Q 15.828125 -0.984375 9.859375 8.046875 
Q 3.90625 17.09375 3.90625 34.421875 
Q 3.90625 52.15625 9.6875 60.984375 
Q 15.484375 69.828125 27.984375 69.828125 
Q 40.140625 69.828125 45.921875 60.890625 
Q 51.703125 51.953125 51.703125 34.421875 
z
M 42.78125 34.421875 
Q 42.78125 49.3125 39.328125 56 
Q 35.890625 62.703125 27.984375 62.703125 
Q 19.875 62.703125 16.328125 56.109375 
Q 12.796875 49.515625 12.796875 34.421875 
Q 12.796875 19.78125 16.375 12.984375 
Q 19.96875 6.203125 27.78125 6.203125 
Q 35.546875 6.203125 39.15625 13.125 
Q 42.78125 20.0625 42.78125 34.421875 
z
" id="LiberationSans-48"/>
      </defs>
      <g style="fill:#262626;" transform="translate(66.647598 530.950234)scale(0.1925 -0.1925)">
       <use xlink:href="#LiberationSans-48"/>
      </g>
     </g>
    </g>
    <g id="xtick_2">
     <g id="line2d_3">
      <path clip-path="url(#p7d1feb85ab)" d="M 161.28 504 
L 161.28 69.12 
" style="fill:none;stroke:#ffffff;stroke-linecap:round;"/>
     </g>
     <g id="line2d_4">
      <g>
       <use style="fill:#262626;stroke:#262626;stroke-width:1.25;" x="161.28" xlink:href="#m4243d57057" y="504"/>
      </g>
     </g>
     <g id="text_2">
      <!-- 1000 -->
      <defs>
       <path d="M 7.625 0 
L 7.625 7.46875 
L 25.140625 7.46875 
L 25.140625 60.40625 
L 9.625 49.3125 
L 9.625 57.625 
L 25.875 68.796875 
L 33.984375 68.796875 
L 33.984375 7.46875 
L 50.734375 7.46875 
L 50.734375 0 
z
" id="LiberationSans-49"/>
      </defs>
      <g style="fill:#262626;" transform="translate(139.870391 530.950234)scale(0.1925 -0.1925)">
       <use xlink:href="#LiberationSans-49"/>
       <use x="55.615234" xlink:href="#LiberationSans-48"/>
       <use x="111.230469" xlink:href="#LiberationSans-48"/>
       <use x="166.845703" xlink:href="#LiberationSans-48"/>
      </g>
     </g>
    </g>
    <g id="xtick_3">
     <g id="line2d_5">
      <path clip-path="url(#p7d1feb85ab)" d="M 250.56 504 
L 250.56 69.12 
" style="fill:none;stroke:#ffffff;stroke-linecap:round;"/>
     </g>
     <g id="line2d_6">
      <g>
       <use style="fill:#262626;stroke:#262626;stroke-width:1.25;" x="250.56" xlink:href="#m4243d57057" y="504"/>
      </g>
     </g>
     <g id="text_3">
      <!-- 2000 -->
      <defs>
       <path d="M 5.03125 0 
L 5.03125 6.203125 
Q 7.515625 11.921875 11.109375 16.28125 
Q 14.703125 20.65625 18.65625 24.1875 
Q 22.609375 27.734375 26.484375 30.765625 
Q 30.375 33.796875 33.5 36.8125 
Q 36.625 39.84375 38.546875 43.15625 
Q 40.484375 46.484375 40.484375 50.6875 
Q 40.484375 56.34375 37.15625 59.46875 
Q 33.84375 62.59375 27.9375 62.59375 
Q 22.3125 62.59375 18.671875 59.546875 
Q 15.046875 56.5 14.40625 50.984375 
L 5.421875 51.8125 
Q 6.390625 60.0625 12.421875 64.9375 
Q 18.453125 69.828125 27.9375 69.828125 
Q 38.328125 69.828125 43.921875 64.921875 
Q 49.515625 60.015625 49.515625 50.984375 
Q 49.515625 46.96875 47.671875 43.015625 
Q 45.84375 39.0625 42.234375 35.109375 
Q 38.625 31.15625 28.421875 22.859375 
Q 22.796875 18.265625 19.46875 14.578125 
Q 16.15625 10.890625 14.703125 7.46875 
L 50.59375 7.46875 
L 50.59375 0 
z
" id="LiberationSans-50"/>
      </defs>
      <g style="fill:#262626;" transform="translate(229.150391 530.950234)scale(0.1925 -0.1925)">
       <use xlink:href="#LiberationSans-50"/>
       <use x="55.615234" xlink:href="#LiberationSans-48"/>
       <use x="111.230469" xlink:href="#LiberationSans-48"/>
       <use x="166.845703" xlink:href="#LiberationSans-48"/>
      </g>
     </g>
    </g>
    <g id="xtick_4">
     <g id="line2d_7">
      <path clip-path="url(#p7d1feb85ab)" d="M 339.84 504 
L 339.84 69.12 
" style="fill:none;stroke:#ffffff;stroke-linecap:round;"/>
     </g>
     <g id="line2d_8">
      <g>
       <use style="fill:#262626;stroke:#262626;stroke-width:1.25;" x="339.84" xlink:href="#m4243d57057" y="504"/>
      </g>
     </g>
     <g id="text_4">
      <!-- 3000 -->
      <defs>
       <path d="M 51.21875 19 
Q 51.21875 9.46875 45.15625 4.234375 
Q 39.109375 -0.984375 27.875 -0.984375 
Q 17.4375 -0.984375 11.203125 3.734375 
Q 4.984375 8.453125 3.8125 17.671875 
L 12.890625 18.5 
Q 14.65625 6.296875 27.875 6.296875 
Q 34.515625 6.296875 38.296875 9.5625 
Q 42.09375 12.84375 42.09375 19.28125 
Q 42.09375 24.90625 37.765625 28.046875 
Q 33.453125 31.203125 25.296875 31.203125 
L 20.3125 31.203125 
L 20.3125 38.8125 
L 25.09375 38.8125 
Q 32.328125 38.8125 36.296875 41.96875 
Q 40.28125 45.125 40.28125 50.6875 
Q 40.28125 56.203125 37.03125 59.390625 
Q 33.796875 62.59375 27.390625 62.59375 
Q 21.578125 62.59375 17.984375 59.609375 
Q 14.40625 56.640625 13.8125 51.21875 
L 4.984375 51.90625 
Q 5.953125 60.359375 11.984375 65.09375 
Q 18.015625 69.828125 27.484375 69.828125 
Q 37.84375 69.828125 43.578125 65.015625 
Q 49.3125 60.203125 49.3125 51.609375 
Q 49.3125 45.015625 45.625 40.890625 
Q 41.9375 36.765625 34.90625 35.296875 
L 34.90625 35.109375 
Q 42.625 34.28125 46.921875 29.9375 
Q 51.21875 25.59375 51.21875 19 
z
" id="LiberationSans-51"/>
      </defs>
      <g style="fill:#262626;" transform="translate(318.430391 530.950234)scale(0.1925 -0.1925)">
       <use xlink:href="#LiberationSans-51"/>
       <use x="55.615234" xlink:href="#LiberationSans-48"/>
       <use x="111.230469" xlink:href="#LiberationSans-48"/>
       <use x="166.845703" xlink:href="#LiberationSans-48"/>
      </g>
     </g>
    </g>
    <g id="xtick_5">
     <g id="line2d_9">
      <path clip-path="url(#p7d1feb85ab)" d="M 429.12 504 
L 429.12 69.12 
" style="fill:none;stroke:#ffffff;stroke-linecap:round;"/>
     </g>
     <g id="line2d_10">
      <g>
       <use style="fill:#262626;stroke:#262626;stroke-width:1.25;" x="429.12" xlink:href="#m4243d57057" y="504"/>
      </g>
     </g>
     <g id="text_5">
      <!-- 4000 -->
      <defs>
       <path d="M 43.015625 15.578125 
L 43.015625 0 
L 34.71875 0 
L 34.71875 15.578125 
L 2.296875 15.578125 
L 2.296875 22.40625 
L 33.796875 68.796875 
L 43.015625 68.796875 
L 43.015625 22.515625 
L 52.6875 22.515625 
L 52.6875 15.578125 
z
M 34.71875 58.890625 
Q 34.625 58.59375 33.34375 56.296875 
Q 32.078125 54 31.453125 53.078125 
L 13.8125 27.09375 
L 11.1875 23.484375 
L 10.40625 22.515625 
L 34.71875 22.515625 
z
" id="LiberationSans-52"/>
      </defs>
      <g style="fill:#262626;" transform="translate(407.710391 530.950234)scale(0.1925 -0.1925)">
       <use xlink:href="#LiberationSans-52"/>
       <use x="55.615234" xlink:href="#LiberationSans-48"/>
       <use x="111.230469" xlink:href="#LiberationSans-48"/>
       <use x="166.845703" xlink:href="#LiberationSans-48"/>
      </g>
     </g>
    </g>
    <g id="xtick_6">
     <g id="line2d_11">
      <path clip-path="url(#p7d1feb85ab)" d="M 518.4 504 
L 518.4 69.12 
" style="fill:none;stroke:#ffffff;stroke-linecap:round;"/>
     </g>
     <g id="line2d_12">
      <g>
       <use style="fill:#262626;stroke:#262626;stroke-width:1.25;" x="518.4" xlink:href="#m4243d57057" y="504"/>
      </g>
     </g>
     <g id="text_6">
      <!-- 5000 -->
      <defs>
       <path d="M 51.421875 22.40625 
Q 51.421875 11.53125 44.953125 5.265625 
Q 38.484375 -0.984375 27 -0.984375 
Q 17.390625 -0.984375 11.46875 3.21875 
Q 5.5625 7.421875 4 15.375 
L 12.890625 16.40625 
Q 15.671875 6.203125 27.203125 6.203125 
Q 34.28125 6.203125 38.28125 10.46875 
Q 42.28125 14.75 42.28125 22.21875 
Q 42.28125 28.71875 38.25 32.71875 
Q 34.234375 36.71875 27.390625 36.71875 
Q 23.828125 36.71875 20.75 35.59375 
Q 17.671875 34.46875 14.59375 31.78125 
L 6 31.78125 
L 8.296875 68.796875 
L 47.40625 68.796875 
L 47.40625 61.328125 
L 16.3125 61.328125 
L 14.984375 39.5 
Q 20.703125 43.890625 29.203125 43.890625 
Q 39.359375 43.890625 45.390625 37.9375 
Q 51.421875 31.984375 51.421875 22.40625 
z
" id="LiberationSans-53"/>
      </defs>
      <g style="fill:#262626;" transform="translate(496.990391 530.950234)scale(0.1925 -0.1925)">
       <use xlink:href="#LiberationSans-53"/>
       <use x="55.615234" xlink:href="#LiberationSans-48"/>
       <use x="111.230469" xlink:href="#LiberationSans-48"/>
       <use x="166.845703" xlink:href="#LiberationSans-48"/>
      </g>
     </g>
    </g>
    <g id="text_7">
     <!-- $t$ -->
     <defs>
      <path d="M 42.28125 54.6875 
L 40.921875 47.703125 
L 23 47.703125 
L 17.1875 18.015625 
Q 16.890625 16.359375 16.75 15.234375 
Q 16.609375 14.109375 16.609375 13.484375 
Q 16.609375 10.359375 18.484375 8.9375 
Q 20.359375 7.515625 24.515625 7.515625 
L 33.59375 7.515625 
L 32.078125 0 
L 23.484375 0 
Q 15.484375 0 11.546875 3.125 
Q 7.625 6.25 7.625 12.59375 
Q 7.625 13.71875 7.765625 15.0625 
Q 7.90625 16.40625 8.203125 18.015625 
L 14.015625 47.703125 
L 6.390625 47.703125 
L 7.8125 54.6875 
L 15.28125 54.6875 
L 18.3125 70.21875 
L 27.296875 70.21875 
L 24.3125 54.6875 
z
" id="DejaVuSans-Oblique-116"/>
     </defs>
     <g style="fill:#262626;" transform="translate(291 554.163047)scale(0.21 -0.21)">
      <use transform="translate(0 0.78125)" xlink:href="#DejaVuSans-Oblique-116"/>
     </g>
    </g>
   </g>
   <g id="matplotlib.axis_2">
    <g id="ytick_1">
     <g id="line2d_13">
      <path clip-path="url(#p7d1feb85ab)" d="M 72 504 
L 518.4 504 
" style="fill:none;stroke:#ffffff;stroke-linecap:round;"/>
     </g>
     <g id="line2d_14">
      <defs>
       <path d="M 0 0 
L -6 0 
" id="m3c3bc4ba3b" style="stroke:#262626;stroke-width:1.25;"/>
      </defs>
      <g>
       <use style="fill:#262626;stroke:#262626;stroke-width:1.25;" x="72" xlink:href="#m3c3bc4ba3b" y="504"/>
      </g>
     </g>
     <g id="text_8">
      <!-- 0 -->
      <g style="fill:#262626;" transform="translate(48.295195 510.975117)scale(0.1925 -0.1925)">
       <use xlink:href="#LiberationSans-48"/>
      </g>
     </g>
    </g>
    <g id="ytick_2">
     <g id="line2d_15">
      <path clip-path="url(#p7d1feb85ab)" d="M 72 449.64 
L 518.4 449.64 
" style="fill:none;stroke:#ffffff;stroke-linecap:round;"/>
     </g>
     <g id="line2d_16">
      <g>
       <use style="fill:#262626;stroke:#262626;stroke-width:1.25;" x="72" xlink:href="#m3c3bc4ba3b" y="449.64"/>
      </g>
     </g>
     <g id="text_9">
      <!-- 250 -->
      <g style="fill:#262626;" transform="translate(26.885586 456.615117)scale(0.1925 -0.1925)">
       <use xlink:href="#LiberationSans-50"/>
       <use x="55.615234" xlink:href="#LiberationSans-53"/>
       <use x="111.230469" xlink:href="#LiberationSans-48"/>
      </g>
     </g>
    </g>
    <g id="ytick_3">
     <g id="line2d_17">
      <path clip-path="url(#p7d1feb85ab)" d="M 72 395.28 
L 518.4 395.28 
" style="fill:none;stroke:#ffffff;stroke-linecap:round;"/>
     </g>
     <g id="line2d_18">
      <g>
       <use style="fill:#262626;stroke:#262626;stroke-width:1.25;" x="72" xlink:href="#m3c3bc4ba3b" y="395.28"/>
      </g>
     </g>
     <g id="text_10">
      <!-- 500 -->
      <g style="fill:#262626;" transform="translate(26.885586 402.255117)scale(0.1925 -0.1925)">
       <use xlink:href="#LiberationSans-53"/>
       <use x="55.615234" xlink:href="#LiberationSans-48"/>
       <use x="111.230469" xlink:href="#LiberationSans-48"/>
      </g>
     </g>
    </g>
    <g id="ytick_4">
     <g id="line2d_19">
      <path clip-path="url(#p7d1feb85ab)" d="M 72 340.92 
L 518.4 340.92 
" style="fill:none;stroke:#ffffff;stroke-linecap:round;"/>
     </g>
     <g id="line2d_20">
      <g>
       <use style="fill:#262626;stroke:#262626;stroke-width:1.25;" x="72" xlink:href="#m3c3bc4ba3b" y="340.92"/>
      </g>
     </g>
     <g id="text_11">
      <!-- 750 -->
      <defs>
       <path d="M 50.59375 61.671875 
Q 40.046875 45.5625 35.6875 36.421875 
Q 31.34375 27.296875 29.171875 18.40625 
Q 27 9.515625 27 0 
L 17.828125 0 
Q 17.828125 13.1875 23.40625 27.75 
Q 29 42.328125 42.09375 61.328125 
L 5.125 61.328125 
L 5.125 68.796875 
L 50.59375 68.796875 
z
" id="LiberationSans-55"/>
      </defs>
      <g style="fill:#262626;" transform="translate(26.885586 347.895117)scale(0.1925 -0.1925)">
       <use xlink:href="#LiberationSans-55"/>
       <use x="55.615234" xlink:href="#LiberationSans-53"/>
       <use x="111.230469" xlink:href="#LiberationSans-48"/>
      </g>
     </g>
    </g>
    <g id="ytick_5">
     <g id="line2d_21">
      <path clip-path="url(#p7d1feb85ab)" d="M 72 286.56 
L 518.4 286.56 
" style="fill:none;stroke:#ffffff;stroke-linecap:round;"/>
     </g>
     <g id="line2d_22">
      <g>
       <use style="fill:#262626;stroke:#262626;stroke-width:1.25;" x="72" xlink:href="#m3c3bc4ba3b" y="286.56"/>
      </g>
     </g>
     <g id="text_12">
      <!-- 1000 -->
      <g style="fill:#262626;" transform="translate(16.180781 293.535117)scale(0.1925 -0.1925)">
       <use xlink:href="#LiberationSans-49"/>
       <use x="55.615234" xlink:href="#LiberationSans-48"/>
       <use x="111.230469" xlink:href="#LiberationSans-48"/>
       <use x="166.845703" xlink:href="#LiberationSans-48"/>
      </g>
     </g>
    </g>
    <g id="ytick_6">
     <g id="line2d_23">
      <path clip-path="url(#p7d1feb85ab)" d="M 72 232.2 
L 518.4 232.2 
" style="fill:none;stroke:#ffffff;stroke-linecap:round;"/>
     </g>
     <g id="line2d_24">
      <g>
       <use style="fill:#262626;stroke:#262626;stroke-width:1.25;" x="72" xlink:href="#m3c3bc4ba3b" y="232.2"/>
      </g>
     </g>
     <g id="text_13">
      <!-- 1250 -->
      <g style="fill:#262626;" transform="translate(16.180781 239.175117)scale(0.1925 -0.1925)">
       <use xlink:href="#LiberationSans-49"/>
       <use x="55.615234" xlink:href="#LiberationSans-50"/>
       <use x="111.230469" xlink:href="#LiberationSans-53"/>
       <use x="166.845703" xlink:href="#LiberationSans-48"/>
      </g>
     </g>
    </g>
    <g id="ytick_7">
     <g id="line2d_25">
      <path clip-path="url(#p7d1feb85ab)" d="M 72 177.84 
L 518.4 177.84 
" style="fill:none;stroke:#ffffff;stroke-linecap:round;"/>
     </g>
     <g id="line2d_26">
      <g>
       <use style="fill:#262626;stroke:#262626;stroke-width:1.25;" x="72" xlink:href="#m3c3bc4ba3b" y="177.84"/>
      </g>
     </g>
     <g id="text_14">
      <!-- 1500 -->
      <g style="fill:#262626;" transform="translate(16.180781 184.815117)scale(0.1925 -0.1925)">
       <use xlink:href="#LiberationSans-49"/>
       <use x="55.615234" xlink:href="#LiberationSans-53"/>
       <use x="111.230469" xlink:href="#LiberationSans-48"/>
       <use x="166.845703" xlink:href="#LiberationSans-48"/>
      </g>
     </g>
    </g>
    <g id="ytick_8">
     <g id="line2d_27">
      <path clip-path="url(#p7d1feb85ab)" d="M 72 123.48 
L 518.4 123.48 
" style="fill:none;stroke:#ffffff;stroke-linecap:round;"/>
     </g>
     <g id="line2d_28">
      <g>
       <use style="fill:#262626;stroke:#262626;stroke-width:1.25;" x="72" xlink:href="#m3c3bc4ba3b" y="123.48"/>
      </g>
     </g>
     <g id="text_15">
      <!-- 1750 -->
      <g style="fill:#262626;" transform="translate(16.180781 130.455117)scale(0.1925 -0.1925)">
       <use xlink:href="#LiberationSans-49"/>
       <use x="55.615234" xlink:href="#LiberationSans-55"/>
       <use x="111.230469" xlink:href="#LiberationSans-53"/>
       <use x="166.845703" xlink:href="#LiberationSans-48"/>
      </g>
     </g>
    </g>
    <g id="ytick_9">
     <g id="line2d_29">
      <path clip-path="url(#p7d1feb85ab)" d="M 72 69.12 
L 518.4 69.12 
" style="fill:none;stroke:#ffffff;stroke-linecap:round;"/>
     </g>
     <g id="line2d_30">
      <g>
       <use style="fill:#262626;stroke:#262626;stroke-width:1.25;" x="72" xlink:href="#m3c3bc4ba3b" y="69.12"/>
      </g>
     </g>
     <g id="text_16">
      <!-- 2000 -->
      <g style="fill:#262626;" transform="translate(16.180781 76.095117)scale(0.1925 -0.1925)">
       <use xlink:href="#LiberationSans-50"/>
       <use x="55.615234" xlink:href="#LiberationSans-48"/>
       <use x="111.230469" xlink:href="#LiberationSans-48"/>
       <use x="166.845703" xlink:href="#LiberationSans-48"/>
      </g>
     </g>
    </g>
    <g id="text_17">
     <!-- population that is... -->
     <defs>
      <path d="M 51.421875 26.65625 
Q 51.421875 -0.984375 31.984375 -0.984375 
Q 19.78125 -0.984375 15.578125 8.203125 
L 15.328125 8.203125 
Q 15.53125 7.8125 15.53125 -0.09375 
L 15.53125 -20.75 
L 6.734375 -20.75 
L 6.734375 42.046875 
Q 6.734375 50.203125 6.453125 52.828125 
L 14.9375 52.828125 
Q 14.984375 52.640625 15.078125 51.4375 
Q 15.1875 50.25 15.3125 47.75 
Q 15.4375 45.265625 15.4375 44.34375 
L 15.625 44.34375 
Q 17.96875 49.21875 21.828125 51.484375 
Q 25.6875 53.765625 31.984375 53.765625 
Q 41.75 53.765625 46.578125 47.21875 
Q 51.421875 40.671875 51.421875 26.65625 
z
M 42.1875 26.46875 
Q 42.1875 37.5 39.203125 42.234375 
Q 36.234375 46.96875 29.734375 46.96875 
Q 24.515625 46.96875 21.5625 44.765625 
Q 18.609375 42.578125 17.0625 37.90625 
Q 15.53125 33.25 15.53125 25.78125 
Q 15.53125 15.375 18.84375 10.4375 
Q 22.171875 5.515625 29.640625 5.515625 
Q 36.1875 5.515625 39.1875 10.328125 
Q 42.1875 15.140625 42.1875 26.46875 
z
" id="LiberationSans-112"/>
      <path d="M 51.421875 26.46875 
Q 51.421875 12.59375 45.3125 5.796875 
Q 39.203125 -0.984375 27.59375 -0.984375 
Q 16.015625 -0.984375 10.109375 6.078125 
Q 4.203125 13.140625 4.203125 26.46875 
Q 4.203125 53.8125 27.875 53.8125 
Q 39.984375 53.8125 45.703125 47.140625 
Q 51.421875 40.484375 51.421875 26.46875 
z
M 42.1875 26.46875 
Q 42.1875 37.40625 38.9375 42.359375 
Q 35.6875 47.3125 28.03125 47.3125 
Q 20.3125 47.3125 16.859375 42.25 
Q 13.421875 37.203125 13.421875 26.46875 
Q 13.421875 16.015625 16.8125 10.765625 
Q 20.21875 5.515625 27.484375 5.515625 
Q 35.40625 5.515625 38.796875 10.59375 
Q 42.1875 15.671875 42.1875 26.46875 
z
" id="LiberationSans-111"/>
      <path d="M 15.328125 52.828125 
L 15.328125 19.34375 
Q 15.328125 14.109375 16.359375 11.21875 
Q 17.390625 8.34375 19.625 7.078125 
Q 21.875 5.8125 26.21875 5.8125 
Q 32.5625 5.8125 36.21875 10.15625 
Q 39.890625 14.5 39.890625 22.21875 
L 39.890625 52.828125 
L 48.6875 52.828125 
L 48.6875 11.28125 
Q 48.6875 2.046875 48.96875 0 
L 40.671875 0 
Q 40.625 0.25 40.578125 1.3125 
Q 40.53125 2.390625 40.453125 3.78125 
Q 40.375 5.171875 40.28125 9.03125 
L 40.140625 9.03125 
Q 37.109375 3.5625 33.125 1.28125 
Q 29.15625 -0.984375 23.25 -0.984375 
Q 14.546875 -0.984375 10.515625 3.34375 
Q 6.5 7.671875 6.5 17.625 
L 6.5 52.828125 
z
" id="LiberationSans-117"/>
      <path d="M 6.734375 0 
L 6.734375 72.46875 
L 15.53125 72.46875 
L 15.53125 0 
z
" id="LiberationSans-108"/>
      <path d="M 20.21875 -0.984375 
Q 12.25 -0.984375 8.25 3.21875 
Q 4.25 7.421875 4.25 14.75 
Q 4.25 22.953125 9.640625 27.34375 
Q 15.046875 31.734375 27.046875 32.03125 
L 38.921875 32.234375 
L 38.921875 35.109375 
Q 38.921875 41.546875 36.1875 44.328125 
Q 33.453125 47.125 27.59375 47.125 
Q 21.6875 47.125 19 45.109375 
Q 16.3125 43.109375 15.765625 38.71875 
L 6.59375 39.546875 
Q 8.84375 53.8125 27.78125 53.8125 
Q 37.75 53.8125 42.765625 49.234375 
Q 47.796875 44.671875 47.796875 36.03125 
L 47.796875 13.28125 
Q 47.796875 9.375 48.828125 7.390625 
Q 49.859375 5.421875 52.734375 5.421875 
Q 54 5.421875 55.609375 5.765625 
L 55.609375 0.296875 
Q 52.296875 -0.484375 48.828125 -0.484375 
Q 43.953125 -0.484375 41.71875 2.078125 
Q 39.5 4.640625 39.203125 10.109375 
L 38.921875 10.109375 
Q 35.546875 4.046875 31.078125 1.53125 
Q 26.609375 -0.984375 20.21875 -0.984375 
z
M 22.21875 5.609375 
Q 27.046875 5.609375 30.8125 7.8125 
Q 34.578125 10.015625 36.75 13.84375 
Q 38.921875 17.671875 38.921875 21.734375 
L 38.921875 26.078125 
L 29.296875 25.875 
Q 23.09375 25.78125 19.890625 24.609375 
Q 16.703125 23.4375 14.984375 21 
Q 13.28125 18.5625 13.28125 14.59375 
Q 13.28125 10.296875 15.59375 7.953125 
Q 17.921875 5.609375 22.21875 5.609375 
z
" id="LiberationSans-97"/>
      <path d="M 27.046875 0.390625 
Q 22.703125 -0.78125 18.171875 -0.78125 
Q 7.625 -0.78125 7.625 11.1875 
L 7.625 46.4375 
L 1.515625 46.4375 
L 1.515625 52.828125 
L 7.953125 52.828125 
L 10.546875 64.65625 
L 16.40625 64.65625 
L 16.40625 52.828125 
L 26.171875 52.828125 
L 26.171875 46.4375 
L 16.40625 46.4375 
L 16.40625 13.09375 
Q 16.40625 9.28125 17.640625 7.734375 
Q 18.890625 6.203125 21.96875 6.203125 
Q 23.734375 6.203125 27.046875 6.890625 
z
" id="LiberationSans-116"/>
      <path d="M 6.6875 64.0625 
L 6.6875 72.46875 
L 15.484375 72.46875 
L 15.484375 64.0625 
z
M 6.6875 0 
L 6.6875 52.828125 
L 15.484375 52.828125 
L 15.484375 0 
z
" id="LiberationSans-105"/>
      <path d="M 40.28125 0 
L 40.28125 33.5 
Q 40.28125 38.71875 39.25 41.59375 
Q 38.234375 44.484375 35.984375 45.75 
Q 33.734375 47.015625 29.390625 47.015625 
Q 23.046875 47.015625 19.375 42.671875 
Q 15.71875 38.328125 15.71875 30.609375 
L 15.71875 0 
L 6.9375 0 
L 6.9375 41.546875 
Q 6.9375 50.78125 6.640625 52.828125 
L 14.9375 52.828125 
Q 14.984375 52.59375 15.03125 51.515625 
Q 15.09375 50.4375 15.15625 49.046875 
Q 15.234375 47.65625 15.328125 43.796875 
L 15.484375 43.796875 
Q 18.5 49.265625 22.484375 51.53125 
Q 26.46875 53.8125 32.375 53.8125 
Q 41.0625 53.8125 45.09375 49.484375 
Q 49.125 45.171875 49.125 35.203125 
L 49.125 0 
z
" id="LiberationSans-110"/>
      <path id="LiberationSans-32"/>
      <path d="M 15.484375 43.796875 
Q 18.3125 48.96875 22.28125 51.390625 
Q 26.265625 53.8125 32.375 53.8125 
Q 40.96875 53.8125 45.046875 49.53125 
Q 49.125 45.265625 49.125 35.203125 
L 49.125 0 
L 40.28125 0 
L 40.28125 33.5 
Q 40.28125 39.0625 39.25 41.765625 
Q 38.234375 44.484375 35.890625 45.75 
Q 33.546875 47.015625 29.390625 47.015625 
Q 23.1875 47.015625 19.453125 42.71875 
Q 15.71875 38.421875 15.71875 31.15625 
L 15.71875 0 
L 6.9375 0 
L 6.9375 72.46875 
L 15.71875 72.46875 
L 15.71875 53.609375 
Q 15.71875 50.640625 15.546875 47.453125 
Q 15.375 44.28125 15.328125 43.796875 
z
" id="LiberationSans-104"/>
      <path d="M 46.390625 14.59375 
Q 46.390625 7.125 40.75 3.0625 
Q 35.109375 -0.984375 24.953125 -0.984375 
Q 15.09375 -0.984375 9.734375 2.265625 
Q 4.390625 5.515625 2.78125 12.40625 
L 10.546875 13.921875 
Q 11.671875 9.671875 15.1875 7.6875 
Q 18.703125 5.71875 24.953125 5.71875 
Q 31.640625 5.71875 34.734375 7.765625 
Q 37.84375 9.8125 37.84375 13.921875 
Q 37.84375 17.046875 35.6875 19 
Q 33.546875 20.953125 28.765625 22.21875 
L 22.46875 23.875 
Q 14.890625 25.828125 11.6875 27.703125 
Q 8.5 29.59375 6.6875 32.28125 
Q 4.890625 34.96875 4.890625 38.875 
Q 4.890625 46.09375 10.03125 49.875 
Q 15.1875 53.65625 25.046875 53.65625 
Q 33.796875 53.65625 38.9375 50.578125 
Q 44.09375 47.515625 45.453125 40.71875 
L 37.546875 39.75 
Q 36.8125 43.265625 33.609375 45.140625 
Q 30.421875 47.015625 25.046875 47.015625 
Q 19.09375 47.015625 16.25 45.203125 
Q 13.421875 43.40625 13.421875 39.75 
Q 13.421875 37.5 14.59375 36.03125 
Q 15.765625 34.578125 18.0625 33.546875 
Q 20.359375 32.515625 27.734375 30.71875 
Q 34.71875 28.953125 37.796875 27.46875 
Q 40.875 25.984375 42.65625 24.171875 
Q 44.4375 22.359375 45.40625 19.984375 
Q 46.390625 17.625 46.390625 14.59375 
z
" id="LiberationSans-115"/>
      <path d="M 9.125 0 
L 9.125 10.6875 
L 18.65625 10.6875 
L 18.65625 0 
z
" id="LiberationSans-46"/>
     </defs>
     <g style="fill:#262626;" transform="translate(7.823281 374.696016)rotate(-90)scale(0.21 -0.21)">
      <use xlink:href="#LiberationSans-112"/>
      <use x="55.615234" xlink:href="#LiberationSans-111"/>
      <use x="111.230469" xlink:href="#LiberationSans-112"/>
      <use x="166.845703" xlink:href="#LiberationSans-117"/>
      <use x="222.460938" xlink:href="#LiberationSans-108"/>
      <use x="244.677734" xlink:href="#LiberationSans-97"/>
      <use x="300.292969" xlink:href="#LiberationSans-116"/>
      <use x="328.076172" xlink:href="#LiberationSans-105"/>
      <use x="350.292969" xlink:href="#LiberationSans-111"/>
      <use x="405.908203" xlink:href="#LiberationSans-110"/>
      <use x="461.523438" xlink:href="#LiberationSans-32"/>
      <use x="489.306641" xlink:href="#LiberationSans-116"/>
      <use x="517.089844" xlink:href="#LiberationSans-104"/>
      <use x="572.705078" xlink:href="#LiberationSans-97"/>
      <use x="628.320312" xlink:href="#LiberationSans-116"/>
      <use x="656.103516" xlink:href="#LiberationSans-32"/>
      <use x="683.886719" xlink:href="#LiberationSans-105"/>
      <use x="706.103516" xlink:href="#LiberationSans-115"/>
      <use x="756.103516" xlink:href="#LiberationSans-46"/>
      <use x="783.886719" xlink:href="#LiberationSans-46"/>
      <use x="811.669922" xlink:href="#LiberationSans-46"/>
     </g>
    </g>
   </g>
   <g id="line2d_31">
    <path clip-path="url(#p7d1feb85ab)" d="M 72 73.4688 
L 74.232 74.6666 
L 76.28544 76.024382 
L 78.16032 77.523621 
L 79.94592 79.226078 
L 81.73152 81.2445 
L 83.42784 83.504187 
L 85.12416 86.151242 
L 86.7312 89.070299 
L 88.33824 92.446774 
L 89.94528 96.34211 
L 91.55232 100.822465 
L 93.15936 105.957807 
L 94.7664 111.820487 
L 96.46272 118.878205 
L 98.15904 126.909609 
L 99.94464 136.497414 
L 101.73024 147.317183 
L 103.60512 160.053229 
L 105.56928 174.918583 
L 107.712 192.854492 
L 110.12256 214.973808 
L 113.0688 244.222429 
L 118.51488 301.162074 
L 122.26464 339.089427 
L 124.94304 364.039937 
L 127.26432 383.713391 
L 129.40704 400.080329 
L 131.46048 414.098537 
L 133.42464 426.003109 
L 135.29952 436.055747 
L 137.1744 444.912146 
L 138.96 452.324164 
L 140.7456 458.830518 
L 142.5312 464.522714 
L 144.3168 469.489695 
L 146.1024 473.815496 
L 147.888 477.577823 
L 149.6736 480.847339 
L 151.54848 483.819241 
L 153.42336 486.3827 
L 155.38752 488.692063 
L 157.44096 490.755254 
L 159.58368 492.584337 
L 161.81568 494.194392 
L 164.22624 495.651852 
L 166.81536 496.949633 
L 169.58304 498.088142 
L 172.70784 499.12695 
L 176.18976 500.043452 
L 180.11808 500.84485 
L 184.76064 501.557007 
L 190.296 502.170164 
L 197.08128 502.686533 
L 205.74144 503.109892 
L 217.43712 503.443651 
L 234.57888 503.690831 
L 263.32704 503.856144 
L 325.82304 503.947847 
L 518.31072 503.97848 
L 518.31072 503.97848 
" style="fill:none;stroke:#ff0000;stroke-linecap:round;stroke-width:1.5;"/>
   </g>
   <g id="line2d_32">
    <path clip-path="url(#p7d1feb85ab)" d="M 72 499.6512 
L 74.32128 498.526415 
L 76.464 497.236492 
L 78.42816 495.794894 
L 80.30304 494.141158 
L 82.08864 492.267695 
L 83.78496 490.172336 
L 85.48128 487.720538 
L 87.1776 484.858475 
L 88.78464 481.714847 
L 90.39168 478.094972 
L 91.99872 473.940586 
L 93.69504 468.908473 
L 95.39136 463.140998 
L 97.08768 456.567987 
L 98.87328 448.708361 
L 100.65888 439.823531 
L 102.53376 429.346921 
L 104.49792 417.098507 
L 106.64064 402.300187 
L 109.0512 384.040168 
L 111.99744 359.931355 
L 120.92544 285.575885 
L 123.24672 268.841003 
L 125.21088 256.232467 
L 126.99648 246.149891 
L 128.60352 238.254086 
L 130.12128 231.833347 
L 131.54976 226.697788 
L 132.88896 222.65863 
L 134.13888 219.538014 
L 135.3888 217.013146 
L 136.54944 215.172305 
L 137.6208 213.87776 
L 138.60288 213.01162 
L 139.58496 212.433087 
L 140.56704 212.12379 
L 141.54912 212.065611 
L 142.5312 212.240851 
L 143.60256 212.678094 
L 144.7632 213.417442 
L 146.01312 214.49382 
L 147.4416 216.04186 
L 149.04864 218.138939 
L 150.83424 220.84739 
L 152.88768 224.371985 
L 155.38752 229.134769 
L 158.42304 235.438291 
L 162.26208 243.955833 
L 168.24384 257.841771 
L 180.29664 285.873065 
L 186.36768 299.369228 
L 191.90304 311.140021 
L 197.17056 321.826393 
L 202.3488 331.829147 
L 207.43776 341.175091 
L 212.43744 349.898133 
L 217.43712 358.179311 
L 222.4368 366.034241 
L 227.43648 373.48003 
L 232.43616 380.534498 
L 237.52512 387.331686 
L 242.61408 393.760965 
L 247.79232 399.944439 
L 252.97056 405.784941 
L 258.23808 411.392984 
L 263.59488 416.770268 
L 269.04096 421.919204 
L 274.57632 426.842839 
L 280.20096 431.544784 
L 285.91488 436.029148 
L 291.71808 440.300475 
L 297.61056 444.363691 
L 303.6816 448.27974 
L 309.9312 452.04305 
L 316.27008 455.600986 
L 322.78752 459.005634 
L 329.48352 462.254587 
L 336.44736 465.385134 
L 343.58976 468.352456 
L 351 471.190463 
L 358.67808 473.893098 
L 366.71328 476.483482 
L 375.01632 478.92641 
L 383.76576 481.266469 
L 392.87232 483.470477 
L 402.42528 485.553321 
L 412.51392 487.524041 
L 423.22752 489.386907 
L 434.56608 491.129585 
L 446.61888 492.75479 
L 459.56448 494.272557 
L 473.49216 495.677541 
L 488.4912 496.964547 
L 504.82944 498.141087 
L 518.31072 498.962227 
L 518.31072 498.962227 
" style="fill:none;stroke:#008000;stroke-linecap:round;stroke-width:1.5;"/>
   </g>
   <g id="line2d_33">
    <defs>
     <path d="M -3 3 
L 3 3 
L 3 -3 
L -3 -3 
z
" id="me117c2d111"/>
    </defs>
    <g clip-path="url(#p7d1feb85ab)">
     <use style="fill:#ff0000;" x="72" xlink:href="#me117c2d111" y="74.12112"/>
     <use style="fill:#ff0000;" x="80.928" xlink:href="#me117c2d111" y="81.0792"/>
     <use style="fill:#ff0000;" x="89.856" xlink:href="#me117c2d111" y="100.86624"/>
     <use style="fill:#ff0000;" x="98.784" xlink:href="#me117c2d111" y="142.17984"/>
     <use style="fill:#ff0000;" x="107.712" xlink:href="#me117c2d111" y="211.32576"/>
     <use style="fill:#ff0000;" x="116.64" xlink:href="#me117c2d111" y="310.4784"/>
     <use style="fill:#ff0000;" x="125.568" xlink:href="#me117c2d111" y="388.7568"/>
     <use style="fill:#ff0000;" x="134.496" xlink:href="#me117c2d111" y="442.0296"/>
     <use style="fill:#ff0000;" x="143.424" xlink:href="#me117c2d111" y="474.86304"/>
     <use style="fill:#ff0000;" x="152.352" xlink:href="#me117c2d111" y="489.43152"/>
     <use style="fill:#ff0000;" x="161.28" xlink:href="#me117c2d111" y="495.73728"/>
     <use style="fill:#ff0000;" x="170.208" xlink:href="#me117c2d111" y="499.86864"/>
     <use style="fill:#ff0000;" x="179.136" xlink:href="#me117c2d111" y="501.39072"/>
     <use style="fill:#ff0000;" x="188.064" xlink:href="#me117c2d111" y="502.04304"/>
     <use style="fill:#ff0000;" x="196.992" xlink:href="#me117c2d111" y="502.47792"/>
     <use style="fill:#ff0000;" x="205.92" xlink:href="#me117c2d111" y="502.9128"/>
     <use style="fill:#ff0000;" x="214.848" xlink:href="#me117c2d111" y="502.9128"/>
     <use style="fill:#ff0000;" x="223.776" xlink:href="#me117c2d111" y="503.13024"/>
     <use style="fill:#ff0000;" x="232.704" xlink:href="#me117c2d111" y="503.13024"/>
     <use style="fill:#ff0000;" x="241.632" xlink:href="#me117c2d111" y="503.13024"/>
     <use style="fill:#ff0000;" x="250.56" xlink:href="#me117c2d111" y="503.56512"/>
     <use style="fill:#ff0000;" x="259.488" xlink:href="#me117c2d111" y="503.56512"/>
     <use style="fill:#ff0000;" x="268.416" xlink:href="#me117c2d111" y="504"/>
     <use style="fill:#ff0000;" x="277.344" xlink:href="#me117c2d111" y="504"/>
     <use style="fill:#ff0000;" x="286.272" xlink:href="#me117c2d111" y="504"/>
     <use style="fill:#ff0000;" x="295.2" xlink:href="#me117c2d111" y="504"/>
     <use style="fill:#ff0000;" x="304.128" xlink:href="#me117c2d111" y="504"/>
     <use style="fill:#ff0000;" x="313.056" xlink:href="#me117c2d111" y="504"/>
     <use style="fill:#ff0000;" x="321.984" xlink:href="#me117c2d111" y="504"/>
     <use style="fill:#ff0000;" x="330.912" xlink:href="#me117c2d111" y="504"/>
     <use style="fill:#ff0000;" x="339.84" xlink:href="#me117c2d111" y="504"/>
     <use style="fill:#ff0000;" x="348.768" xlink:href="#me117c2d111" y="504"/>
     <use style="fill:#ff0000;" x="357.696" xlink:href="#me117c2d111" y="504"/>
     <use style="fill:#ff0000;" x="366.624" xlink:href="#me117c2d111" y="504"/>
     <use style="fill:#ff0000;" x="375.552" xlink:href="#me117c2d111" y="504"/>
     <use style="fill:#ff0000;" x="384.48" xlink:href="#me117c2d111" y="504"/>
     <use style="fill:#ff0000;" x="393.408" xlink:href="#me117c2d111" y="504"/>
     <use style="fill:#ff0000;" x="402.336" xlink:href="#me117c2d111" y="504"/>
     <use style="fill:#ff0000;" x="411.264" xlink:href="#me117c2d111" y="504"/>
     <use style="fill:#ff0000;" x="420.192" xlink:href="#me117c2d111" y="504"/>
     <use style="fill:#ff0000;" x="429.12" xlink:href="#me117c2d111" y="504"/>
     <use style="fill:#ff0000;" x="438.048" xlink:href="#me117c2d111" y="504"/>
     <use style="fill:#ff0000;" x="446.976" xlink:href="#me117c2d111" y="504"/>
     <use style="fill:#ff0000;" x="455.904" xlink:href="#me117c2d111" y="504"/>
     <use style="fill:#ff0000;" x="464.832" xlink:href="#me117c2d111" y="504"/>
     <use style="fill:#ff0000;" x="473.76" xlink:href="#me117c2d111" y="504"/>
     <use style="fill:#ff0000;" x="482.688" xlink:href="#me117c2d111" y="504"/>
     <use style="fill:#ff0000;" x="491.616" xlink:href="#me117c2d111" y="504"/>
     <use style="fill:#ff0000;" x="500.544" xlink:href="#me117c2d111" y="504"/>
     <use style="fill:#ff0000;" x="509.472" xlink:href="#me117c2d111" y="504"/>
    </g>
   </g>
   <g id="line2d_34">
    <defs>
     <path d="M -3 3 
L 3 3 
L 3 -3 
L -3 -3 
z
" id="mbd7f153a98"/>
    </defs>
    <g clip-path="url(#p7d1feb85ab)">
     <use style="fill:#008000;" x="72" xlink:href="#mbd7f153a98" y="498.99888"/>
     <use style="fill:#008000;" x="80.928" xlink:href="#mbd7f153a98" y="492.91056"/>
     <use style="fill:#008000;" x="89.856" xlink:href="#mbd7f153a98" y="474.6456"/>
     <use style="fill:#008000;" x="98.784" xlink:href="#mbd7f153a98" y="437.46336"/>
     <use style="fill:#008000;" x="107.712" xlink:href="#mbd7f153a98" y="377.01504"/>
     <use style="fill:#008000;" x="116.64" xlink:href="#mbd7f153a98" y="293.51808"/>
     <use style="fill:#008000;" x="125.568" xlink:href="#mbd7f153a98" y="238.07088"/>
     <use style="fill:#008000;" x="134.496" xlink:href="#mbd7f153a98" y="213.28272"/>
     <use style="fill:#008000;" x="143.424" xlink:href="#mbd7f153a98" y="209.3688"/>
     <use style="fill:#008000;" x="152.352" xlink:href="#mbd7f153a98" y="224.80704"/>
     <use style="fill:#008000;" x="161.28" xlink:href="#mbd7f153a98" y="247.20336"/>
     <use style="fill:#008000;" x="170.208" xlink:href="#mbd7f153a98" y="269.1648"/>
     <use style="fill:#008000;" x="179.136" xlink:href="#mbd7f153a98" y="291.12624"/>
     <use style="fill:#008000;" x="188.064" xlink:href="#mbd7f153a98" y="310.26096"/>
     <use style="fill:#008000;" x="196.992" xlink:href="#mbd7f153a98" y="326.7864"/>
     <use style="fill:#008000;" x="205.92" xlink:href="#mbd7f153a98" y="342.65952"/>
     <use style="fill:#008000;" x="214.848" xlink:href="#mbd7f153a98" y="360.05472"/>
     <use style="fill:#008000;" x="223.776" xlink:href="#mbd7f153a98" y="373.97088"/>
     <use style="fill:#008000;" x="232.704" xlink:href="#mbd7f153a98" y="387.45216"/>
     <use style="fill:#008000;" x="241.632" xlink:href="#mbd7f153a98" y="398.5416"/>
     <use style="fill:#008000;" x="250.56" xlink:href="#mbd7f153a98" y="407.02176"/>
     <use style="fill:#008000;" x="259.488" xlink:href="#mbd7f153a98" y="417.24144"/>
     <use style="fill:#008000;" x="268.416" xlink:href="#mbd7f153a98" y="425.7216"/>
     <use style="fill:#008000;" x="277.344" xlink:href="#mbd7f153a98" y="435.5064"/>
     <use style="fill:#008000;" x="286.272" xlink:href="#mbd7f153a98" y="444.204"/>
     <use style="fill:#008000;" x="295.2" xlink:href="#mbd7f153a98" y="448.77024"/>
     <use style="fill:#008000;" x="304.128" xlink:href="#mbd7f153a98" y="453.55392"/>
     <use style="fill:#008000;" x="313.056" xlink:href="#mbd7f153a98" y="457.46784"/>
     <use style="fill:#008000;" x="321.984" xlink:href="#mbd7f153a98" y="462.6864"/>
     <use style="fill:#008000;" x="330.912" xlink:href="#mbd7f153a98" y="465.73056"/>
     <use style="fill:#008000;" x="339.84" xlink:href="#mbd7f153a98" y="469.2096"/>
     <use style="fill:#008000;" x="348.768" xlink:href="#mbd7f153a98" y="472.4712"/>
     <use style="fill:#008000;" x="357.696" xlink:href="#mbd7f153a98" y="475.08048"/>
     <use style="fill:#008000;" x="366.624" xlink:href="#mbd7f153a98" y="478.9944"/>
     <use style="fill:#008000;" x="375.552" xlink:href="#mbd7f153a98" y="481.1688"/>
     <use style="fill:#008000;" x="384.48" xlink:href="#mbd7f153a98" y="482.69088"/>
     <use style="fill:#008000;" x="393.408" xlink:href="#mbd7f153a98" y="485.73504"/>
     <use style="fill:#008000;" x="402.336" xlink:href="#mbd7f153a98" y="487.90944"/>
     <use style="fill:#008000;" x="411.264" xlink:href="#mbd7f153a98" y="489.21408"/>
     <use style="fill:#008000;" x="420.192" xlink:href="#mbd7f153a98" y="490.9536"/>
     <use style="fill:#008000;" x="429.12" xlink:href="#mbd7f153a98" y="492.91056"/>
     <use style="fill:#008000;" x="438.048" xlink:href="#mbd7f153a98" y="494.2152"/>
     <use style="fill:#008000;" x="446.976" xlink:href="#mbd7f153a98" y="495.3024"/>
     <use style="fill:#008000;" x="455.904" xlink:href="#mbd7f153a98" y="495.95472"/>
     <use style="fill:#008000;" x="464.832" xlink:href="#mbd7f153a98" y="497.25936"/>
     <use style="fill:#008000;" x="473.76" xlink:href="#mbd7f153a98" y="497.4768"/>
     <use style="fill:#008000;" x="482.688" xlink:href="#mbd7f153a98" y="497.69424"/>
     <use style="fill:#008000;" x="491.616" xlink:href="#mbd7f153a98" y="498.564"/>
     <use style="fill:#008000;" x="500.544" xlink:href="#mbd7f153a98" y="499.21632"/>
     <use style="fill:#008000;" x="509.472" xlink:href="#mbd7f153a98" y="500.30352"/>
    </g>
   </g>
   <g id="patch_3">
    <path d="M 72 504 
L 72 69.12 
" style="fill:none;stroke:#ffffff;stroke-linecap:square;stroke-linejoin:miter;stroke-width:1.25;"/>
   </g>
   <g id="patch_4">
    <path d="M 518.4 504 
L 518.4 69.12 
" style="fill:none;stroke:#ffffff;stroke-linecap:square;stroke-linejoin:miter;stroke-width:1.25;"/>
   </g>
   <g id="patch_5">
    <path d="M 72 504 
L 518.4 504 
" style="fill:none;stroke:#ffffff;stroke-linecap:square;stroke-linejoin:miter;stroke-width:1.25;"/>
   </g>
   <g id="patch_6">
    <path d="M 72 69.12 
L 518.4 69.12 
" style="fill:none;stroke:#ffffff;stroke-linecap:square;stroke-linejoin:miter;stroke-width:1.25;"/>
   </g>
   <g id="text_18">
    <!-- Equations vs network ($p_{\mathit{infect}} = 0.0000050$, $p_{remove} = 0.001$) -->
    <defs>
     <path d="M 8.203125 0 
L 8.203125 68.796875 
L 60.40625 68.796875 
L 60.40625 61.1875 
L 17.53125 61.1875 
L 17.53125 39.109375 
L 57.46875 39.109375 
L 57.46875 31.59375 
L 17.53125 31.59375 
L 17.53125 7.625 
L 62.40625 7.625 
L 62.40625 0 
z
" id="LiberationSans-69"/>
     <path d="M 23.640625 -0.984375 
Q 13.578125 -0.984375 8.890625 5.796875 
Q 4.203125 12.59375 4.203125 26.171875 
Q 4.203125 53.8125 23.640625 53.8125 
Q 29.640625 53.8125 33.546875 51.6875 
Q 37.453125 49.5625 40.09375 44.625 
L 40.1875 44.625 
Q 40.1875 46.09375 40.375 49.671875 
Q 40.578125 53.265625 40.765625 53.515625 
L 49.21875 53.515625 
Q 48.875 50.640625 48.875 39.109375 
L 48.875 -20.75 
L 40.09375 -20.75 
L 40.09375 0.6875 
L 40.28125 8.6875 
L 40.1875 8.6875 
Q 37.546875 3.46875 33.6875 1.234375 
Q 29.828125 -0.984375 23.640625 -0.984375 
z
M 40.09375 27.046875 
Q 40.09375 37.359375 36.71875 42.328125 
Q 33.34375 47.3125 25.984375 47.3125 
Q 19.28125 47.3125 16.34375 42.328125 
Q 13.421875 37.359375 13.421875 26.46875 
Q 13.421875 15.375 16.375 10.59375 
Q 19.34375 5.8125 25.875 5.8125 
Q 33.34375 5.8125 36.71875 11.125 
Q 40.09375 16.453125 40.09375 27.046875 
z
" id="LiberationSans-113"/>
     <path d="M 29.9375 0 
L 19.53125 0 
L 0.34375 52.828125 
L 9.71875 52.828125 
L 21.34375 18.453125 
Q 21.96875 16.5 24.703125 6.890625 
L 26.421875 12.59375 
L 28.328125 18.359375 
L 40.328125 52.828125 
L 49.65625 52.828125 
z
" id="LiberationSans-118"/>
     <path d="M 13.484375 24.5625 
Q 13.484375 15.484375 17.234375 10.546875 
Q 21 5.609375 28.21875 5.609375 
Q 33.9375 5.609375 37.375 7.90625 
Q 40.828125 10.203125 42.046875 13.71875 
L 49.75 11.53125 
Q 45.015625 -0.984375 28.21875 -0.984375 
Q 16.5 -0.984375 10.375 6 
Q 4.25 12.984375 4.25 26.765625 
Q 4.25 39.84375 10.375 46.828125 
Q 16.5 53.8125 27.875 53.8125 
Q 51.171875 53.8125 51.171875 25.734375 
L 51.171875 24.5625 
z
M 42.09375 31.296875 
Q 41.359375 39.65625 37.84375 43.484375 
Q 34.328125 47.3125 27.734375 47.3125 
Q 21.34375 47.3125 17.609375 43.03125 
Q 13.875 38.765625 13.578125 31.296875 
z
" id="LiberationSans-101"/>
     <path d="M 57.328125 0 
L 47.125 0 
L 37.890625 37.359375 
L 36.140625 45.609375 
Q 35.6875 43.40625 34.765625 39.28125 
Q 33.84375 35.15625 24.8125 0 
L 14.65625 0 
L -0.140625 52.828125 
L 8.546875 52.828125 
L 17.484375 16.9375 
Q 17.828125 15.765625 19.578125 7.28125 
L 20.40625 10.890625 
L 31.453125 52.828125 
L 40.875 52.828125 
L 50.09375 16.546875 
L 52.34375 7.28125 
L 53.859375 14.0625 
L 63.875 52.828125 
L 72.46875 52.828125 
z
" id="LiberationSans-119"/>
     <path d="M 6.9375 0 
L 6.9375 40.53125 
Q 6.9375 46.09375 6.640625 52.828125 
L 14.9375 52.828125 
Q 15.328125 43.84375 15.328125 42.046875 
L 15.53125 42.046875 
Q 17.625 48.828125 20.359375 51.3125 
Q 23.09375 53.8125 28.078125 53.8125 
Q 29.828125 53.8125 31.640625 53.328125 
L 31.640625 45.265625 
Q 29.890625 45.75 26.953125 45.75 
Q 21.484375 45.75 18.59375 41.03125 
Q 15.71875 36.328125 15.71875 27.546875 
L 15.71875 0 
z
" id="LiberationSans-114"/>
     <path d="M 39.84375 0 
L 21.96875 24.125 
L 15.53125 18.796875 
L 15.53125 0 
L 6.734375 0 
L 6.734375 72.46875 
L 15.53125 72.46875 
L 15.53125 27.203125 
L 38.71875 52.828125 
L 49.03125 52.828125 
L 27.59375 30.125 
L 50.140625 0 
z
" id="LiberationSans-107"/>
     <path d="M 6.203125 25.984375 
Q 6.203125 40.09375 10.625 51.3125 
Q 15.046875 62.546875 24.21875 72.46875 
L 32.71875 72.46875 
Q 23.578125 62.3125 19.3125 50.875 
Q 15.046875 39.453125 15.046875 25.875 
Q 15.046875 12.359375 19.265625 0.96875 
Q 23.484375 -10.40625 32.71875 -20.703125 
L 24.21875 -20.703125 
Q 14.984375 -10.75 10.59375 0.5 
Q 6.203125 11.765625 6.203125 25.78125 
z
" id="LiberationSans-40"/>
     <path d="M 49.609375 33.6875 
Q 49.609375 40.875 46.484375 44.671875 
Q 43.359375 48.484375 37.5 48.484375 
Q 33.5 48.484375 29.859375 46.4375 
Q 26.21875 44.390625 23.390625 40.484375 
Q 20.609375 36.625 18.9375 31.15625 
Q 17.28125 25.6875 17.28125 20.3125 
Q 17.28125 13.484375 20.40625 9.796875 
Q 23.53125 6.109375 29.296875 6.109375 
Q 33.546875 6.109375 37.1875 8.109375 
Q 40.828125 10.109375 43.40625 13.921875 
Q 46.1875 17.921875 47.890625 23.34375 
Q 49.609375 28.765625 49.609375 33.6875 
z
M 21.78125 46.390625 
Q 25.390625 51.125 30.296875 53.5625 
Q 35.203125 56 41.21875 56 
Q 49.609375 56 54.25 50.5 
Q 58.890625 45.015625 58.890625 35.109375 
Q 58.890625 27 56 19.65625 
Q 53.125 12.3125 47.703125 6.5 
Q 44.09375 2.640625 39.546875 0.609375 
Q 35.015625 -1.421875 29.984375 -1.421875 
Q 24.171875 -1.421875 20.21875 1 
Q 16.265625 3.421875 14.3125 8.203125 
L 8.6875 -20.796875 
L -0.296875 -20.796875 
L 14.40625 54.6875 
L 23.390625 54.6875 
z
" id="DejaVuSans-Oblique-112"/>
     <path d="M 18.3125 75.984375 
L 27.296875 75.984375 
L 25.09375 64.59375 
L 16.109375 64.59375 
z
M 14.203125 54.6875 
L 23.1875 54.6875 
L 12.5 0 
L 3.515625 0 
z
" id="DejaVuSans-Oblique-105"/>
     <path d="M 55.71875 33.015625 
L 49.3125 0 
L 40.28125 0 
L 46.6875 32.671875 
Q 47.125 34.96875 47.359375 36.71875 
Q 47.609375 38.484375 47.609375 39.5 
Q 47.609375 43.609375 45.015625 45.890625 
Q 42.4375 48.1875 37.796875 48.1875 
Q 30.5625 48.1875 25.34375 43.375 
Q 20.125 38.578125 18.5 30.328125 
L 12.5 0 
L 3.515625 0 
L 14.109375 54.6875 
L 23.09375 54.6875 
L 21.296875 46.09375 
Q 25.046875 50.828125 30.3125 53.40625 
Q 35.59375 56 41.40625 56 
Q 48.640625 56 52.609375 52.09375 
Q 56.59375 48.1875 56.59375 41.109375 
Q 56.59375 39.359375 56.375 37.359375 
Q 56.15625 35.359375 55.71875 33.015625 
z
" id="DejaVuSans-Oblique-110"/>
     <path d="M 47.796875 75.984375 
L 46.390625 68.5 
L 37.796875 68.5 
Q 32.90625 68.5 30.6875 66.578125 
Q 28.46875 64.65625 27.390625 59.515625 
L 26.421875 54.6875 
L 41.21875 54.6875 
L 39.890625 47.703125 
L 25.09375 47.703125 
L 15.828125 0 
L 6.78125 0 
L 16.109375 47.703125 
L 7.515625 47.703125 
L 8.796875 54.6875 
L 17.390625 54.6875 
L 18.109375 58.5 
Q 19.96875 68.171875 24.625 72.078125 
Q 29.296875 75.984375 39.3125 75.984375 
z
" id="DejaVuSans-Oblique-102"/>
     <path d="M 48.09375 32.234375 
Q 48.25 33.015625 48.3125 33.84375 
Q 48.390625 34.671875 48.390625 35.5 
Q 48.390625 41.453125 44.890625 44.921875 
Q 41.40625 48.390625 35.40625 48.390625 
Q 28.71875 48.390625 23.578125 44.15625 
Q 18.453125 39.9375 15.828125 32.171875 
z
M 55.90625 25.203125 
L 14.109375 25.203125 
Q 13.8125 23.34375 13.71875 22.265625 
Q 13.625 21.1875 13.625 20.40625 
Q 13.625 13.625 17.796875 9.90625 
Q 21.96875 6.203125 29.59375 6.203125 
Q 35.453125 6.203125 40.671875 7.515625 
Q 45.90625 8.84375 50.390625 11.375 
L 48.6875 2.484375 
Q 43.84375 0.53125 38.6875 -0.4375 
Q 33.546875 -1.421875 28.21875 -1.421875 
Q 16.84375 -1.421875 10.71875 4.015625 
Q 4.59375 9.46875 4.59375 19.484375 
Q 4.59375 28.03125 7.640625 35.375 
Q 10.6875 42.71875 16.609375 48.484375 
Q 20.40625 52.09375 25.65625 54.046875 
Q 30.90625 56 36.8125 56 
Q 46.09375 56 51.578125 50.4375 
Q 57.078125 44.875 57.078125 35.5 
Q 57.078125 33.25 56.78125 30.6875 
Q 56.5 28.125 55.90625 25.203125 
z
" id="DejaVuSans-Oblique-101"/>
     <path d="M 53.609375 52.59375 
L 51.8125 43.703125 
Q 48.578125 46.046875 44.9375 47.21875 
Q 41.3125 48.390625 37.40625 48.390625 
Q 33.109375 48.390625 29.21875 46.875 
Q 25.34375 45.359375 22.703125 42.578125 
Q 18.5 38.328125 16.203125 32.609375 
Q 13.921875 26.90625 13.921875 20.796875 
Q 13.921875 13.421875 17.609375 9.8125 
Q 21.296875 6.203125 28.8125 6.203125 
Q 32.515625 6.203125 36.6875 7.328125 
Q 40.875 8.453125 45.40625 10.6875 
L 43.703125 1.8125 
Q 39.796875 0.203125 35.671875 -0.609375 
Q 31.546875 -1.421875 27.203125 -1.421875 
Q 16.3125 -1.421875 10.453125 4.015625 
Q 4.59375 9.46875 4.59375 19.578125 
Q 4.59375 28.078125 7.640625 35.234375 
Q 10.6875 42.390625 16.703125 48.09375 
Q 20.796875 52 26.3125 54 
Q 31.84375 56 38.375 56 
Q 42.1875 56 45.9375 55.140625 
Q 49.703125 54.296875 53.609375 52.59375 
z
" id="DejaVuSans-Oblique-99"/>
     <path d="M 10.59375 45.40625 
L 73.1875 45.40625 
L 73.1875 37.203125 
L 10.59375 37.203125 
z
M 10.59375 25.484375 
L 73.1875 25.484375 
L 73.1875 17.1875 
L 10.59375 17.1875 
z
" id="DejaVuSans-61"/>
     <path d="M 31.78125 66.40625 
Q 24.171875 66.40625 20.328125 58.90625 
Q 16.5 51.421875 16.5 36.375 
Q 16.5 21.390625 20.328125 13.890625 
Q 24.171875 6.390625 31.78125 6.390625 
Q 39.453125 6.390625 43.28125 13.890625 
Q 47.125 21.390625 47.125 36.375 
Q 47.125 51.421875 43.28125 58.90625 
Q 39.453125 66.40625 31.78125 66.40625 
z
M 31.78125 74.21875 
Q 44.046875 74.21875 50.515625 64.515625 
Q 56.984375 54.828125 56.984375 36.375 
Q 56.984375 17.96875 50.515625 8.265625 
Q 44.046875 -1.421875 31.78125 -1.421875 
Q 19.53125 -1.421875 13.0625 8.265625 
Q 6.59375 17.96875 6.59375 36.375 
Q 6.59375 54.828125 13.0625 64.515625 
Q 19.53125 74.21875 31.78125 74.21875 
z
" id="DejaVuSans-48"/>
     <path d="M 10.6875 12.40625 
L 21 12.40625 
L 21 0 
L 10.6875 0 
z
" id="DejaVuSans-46"/>
     <path d="M 10.796875 72.90625 
L 49.515625 72.90625 
L 49.515625 64.59375 
L 19.828125 64.59375 
L 19.828125 46.734375 
Q 21.96875 47.46875 24.109375 47.828125 
Q 26.265625 48.1875 28.421875 48.1875 
Q 40.625 48.1875 47.75 41.5 
Q 54.890625 34.8125 54.890625 23.390625 
Q 54.890625 11.625 47.5625 5.09375 
Q 40.234375 -1.421875 26.90625 -1.421875 
Q 22.3125 -1.421875 17.546875 -0.640625 
Q 12.796875 0.140625 7.71875 1.703125 
L 7.71875 11.625 
Q 12.109375 9.234375 16.796875 8.0625 
Q 21.484375 6.890625 26.703125 6.890625 
Q 35.15625 6.890625 40.078125 11.328125 
Q 45.015625 15.765625 45.015625 23.390625 
Q 45.015625 31 40.078125 35.4375 
Q 35.15625 39.890625 26.703125 39.890625 
Q 22.75 39.890625 18.8125 39.015625 
Q 14.890625 38.140625 10.796875 36.28125 
z
" id="DejaVuSans-53"/>
     <path d="M 18.796875 10.6875 
L 18.796875 2.484375 
Q 18.796875 -2.6875 17.859375 -6.15625 
Q 16.9375 -9.625 14.984375 -12.796875 
L 8.984375 -12.796875 
Q 13.578125 -6.15625 13.578125 0 
L 9.28125 0 
L 9.28125 10.6875 
z
" id="LiberationSans-44"/>
     <path d="M 44.578125 46.390625 
Q 43.21875 47.125 41.453125 47.515625 
Q 39.703125 47.90625 37.703125 47.90625 
Q 30.515625 47.90625 25.140625 42.453125 
Q 19.78125 37.015625 18.015625 27.875 
L 12.5 0 
L 3.515625 0 
L 14.203125 54.6875 
L 23.1875 54.6875 
L 21.484375 46.1875 
Q 25.046875 50.921875 30 53.453125 
Q 34.96875 56 40.578125 56 
Q 42.046875 56 43.453125 55.828125 
Q 44.875 55.671875 46.296875 55.28125 
z
" id="DejaVuSans-Oblique-114"/>
     <path d="M 89.796875 33.015625 
L 83.40625 0 
L 74.421875 0 
L 80.71875 32.71875 
Q 81.109375 34.8125 81.296875 36.328125 
Q 81.5 37.84375 81.5 38.921875 
Q 81.5 43.3125 79.046875 45.75 
Q 76.609375 48.1875 72.21875 48.1875 
Q 65.671875 48.1875 60.546875 43.28125 
Q 55.421875 38.375 53.90625 30.515625 
L 47.90625 0 
L 38.921875 0 
L 45.3125 32.71875 
Q 45.703125 34.515625 45.890625 36.046875 
Q 46.09375 37.59375 46.09375 38.8125 
Q 46.09375 43.265625 43.65625 45.71875 
Q 41.21875 48.1875 36.921875 48.1875 
Q 30.28125 48.1875 25.140625 43.28125 
Q 20.015625 38.375 18.5 30.515625 
L 12.5 0 
L 3.515625 0 
L 14.203125 54.6875 
L 23.1875 54.6875 
L 21.484375 46.1875 
Q 25.140625 50.984375 30.046875 53.484375 
Q 34.96875 56 40.578125 56 
Q 46.53125 56 50.359375 52.875 
Q 54.203125 49.75 54.984375 44.1875 
Q 59.078125 49.953125 64.46875 52.96875 
Q 69.875 56 75.875 56 
Q 82.90625 56 86.734375 51.953125 
Q 90.578125 47.90625 90.578125 40.484375 
Q 90.578125 38.875 90.375 36.9375 
Q 90.1875 35.015625 89.796875 33.015625 
z
" id="DejaVuSans-Oblique-109"/>
     <path d="M 25.390625 -1.421875 
Q 15.765625 -1.421875 10.171875 4.515625 
Q 4.59375 10.453125 4.59375 20.703125 
Q 4.59375 26.65625 6.515625 32.828125 
Q 8.453125 39.015625 11.53125 43.21875 
Q 16.359375 49.75 22.3125 52.875 
Q 28.265625 56 35.796875 56 
Q 45.125 56 50.859375 50.1875 
Q 56.59375 44.390625 56.59375 35.015625 
Q 56.59375 28.515625 54.6875 22.0625 
Q 52.78125 15.625 49.703125 11.375 
Q 44.921875 4.828125 38.96875 1.703125 
Q 33.015625 -1.421875 25.390625 -1.421875 
z
M 13.921875 21 
Q 13.921875 13.578125 17.015625 9.890625 
Q 20.125 6.203125 26.421875 6.203125 
Q 35.453125 6.203125 41.375 14.078125 
Q 47.3125 21.96875 47.3125 34.078125 
Q 47.3125 41.15625 44.140625 44.765625 
Q 40.96875 48.390625 34.8125 48.390625 
Q 29.734375 48.390625 25.78125 46.015625 
Q 21.828125 43.65625 18.703125 38.8125 
Q 16.40625 35.203125 15.15625 30.5625 
Q 13.921875 25.921875 13.921875 21 
z
" id="DejaVuSans-Oblique-111"/>
     <path d="M 7.171875 54.6875 
L 16.703125 54.6875 
L 24.703125 8.203125 
L 50.875 54.6875 
L 60.40625 54.6875 
L 29.296875 0 
L 17.1875 0 
z
" id="DejaVuSans-Oblique-118"/>
     <path d="M 12.40625 8.296875 
L 28.515625 8.296875 
L 28.515625 63.921875 
L 10.984375 60.40625 
L 10.984375 69.390625 
L 28.421875 72.90625 
L 38.28125 72.90625 
L 38.28125 8.296875 
L 54.390625 8.296875 
L 54.390625 0 
L 12.40625 0 
z
" id="DejaVuSans-49"/>
     <path d="M 27.09375 25.78125 
Q 27.09375 11.671875 22.671875 0.4375 
Q 18.265625 -10.796875 9.078125 -20.703125 
L 0.59375 -20.703125 
Q 9.765625 -10.453125 14.015625 0.890625 
Q 18.265625 12.25 18.265625 25.875 
Q 18.265625 39.5 13.984375 50.875 
Q 9.71875 62.25 0.59375 72.46875 
L 9.078125 72.46875 
Q 18.3125 62.5 22.703125 51.234375 
Q 27.09375 39.984375 27.09375 25.984375 
z
" id="LiberationSans-41"/>
    </defs>
    <g style="fill:#262626;" transform="translate(4.245 41.376)scale(0.21 -0.21)">
     <use transform="translate(0 0.78125)" xlink:href="#LiberationSans-69"/>
     <use transform="translate(66.699219 0.78125)" xlink:href="#LiberationSans-113"/>
     <use transform="translate(122.314453 0.78125)" xlink:href="#LiberationSans-117"/>
     <use transform="translate(177.929688 0.78125)" xlink:href="#LiberationSans-97"/>
     <use transform="translate(233.544922 0.78125)" xlink:href="#LiberationSans-116"/>
     <use transform="translate(261.328125 0.78125)" xlink:href="#LiberationSans-105"/>
     <use transform="translate(283.544922 0.78125)" xlink:href="#LiberationSans-111"/>
     <use transform="translate(339.160156 0.78125)" xlink:href="#LiberationSans-110"/>
     <use transform="translate(394.775391 0.78125)" xlink:href="#LiberationSans-115"/>
     <use transform="translate(444.775391 0.78125)" xlink:href="#LiberationSans-32"/>
     <use transform="translate(472.558594 0.78125)" xlink:href="#LiberationSans-118"/>
     <use transform="translate(522.558594 0.78125)" xlink:href="#LiberationSans-115"/>
     <use transform="translate(572.558594 0.78125)" xlink:href="#LiberationSans-32"/>
     <use transform="translate(600.341797 0.78125)" xlink:href="#LiberationSans-110"/>
     <use transform="translate(655.957031 0.78125)" xlink:href="#LiberationSans-101"/>
     <use transform="translate(711.572266 0.78125)" xlink:href="#LiberationSans-116"/>
     <use transform="translate(739.355469 0.78125)" xlink:href="#LiberationSans-119"/>
     <use transform="translate(811.572266 0.78125)" xlink:href="#LiberationSans-111"/>
     <use transform="translate(867.1875 0.78125)" xlink:href="#LiberationSans-114"/>
     <use transform="translate(900.488281 0.78125)" xlink:href="#LiberationSans-107"/>
     <use transform="translate(950.488281 0.78125)" xlink:href="#LiberationSans-32"/>
     <use transform="translate(978.271484 0.78125)" xlink:href="#LiberationSans-40"/>
     <use transform="translate(1011.572266 0.78125)" xlink:href="#DejaVuSans-Oblique-112"/>
     <use transform="translate(1075.048828 -15.625)scale(0.7)" xlink:href="#DejaVuSans-Oblique-105"/>
     <use transform="translate(1094.49707 -15.625)scale(0.7)" xlink:href="#DejaVuSans-Oblique-110"/>
     <use transform="translate(1138.862305 -15.625)scale(0.7)" xlink:href="#DejaVuSans-Oblique-102"/>
     <use transform="translate(1163.505859 -15.625)scale(0.7)" xlink:href="#DejaVuSans-Oblique-101"/>
     <use transform="translate(1206.572266 -15.625)scale(0.7)" xlink:href="#DejaVuSans-Oblique-99"/>
     <use transform="translate(1245.058594 -15.625)scale(0.7)" xlink:href="#DejaVuSans-Oblique-116"/>
     <use transform="translate(1294.72168 0.78125)" xlink:href="#DejaVuSans-61"/>
     <use transform="translate(1397.993164 0.78125)" xlink:href="#DejaVuSans-48"/>
     <use transform="translate(1461.616211 0.78125)" xlink:href="#DejaVuSans-46"/>
     <use transform="translate(1493.40332 0.78125)" xlink:href="#DejaVuSans-48"/>
     <use transform="translate(1557.026367 0.78125)" xlink:href="#DejaVuSans-48"/>
     <use transform="translate(1620.649414 0.78125)" xlink:href="#DejaVuSans-48"/>
     <use transform="translate(1684.272461 0.78125)" xlink:href="#DejaVuSans-48"/>
     <use transform="translate(1747.895508 0.78125)" xlink:href="#DejaVuSans-48"/>
     <use transform="translate(1811.518555 0.78125)" xlink:href="#DejaVuSans-53"/>
     <use transform="translate(1875.141602 0.78125)" xlink:href="#DejaVuSans-48"/>
     <use transform="translate(1938.764648 0.78125)" xlink:href="#LiberationSans-44"/>
     <use transform="translate(1966.547852 0.78125)" xlink:href="#LiberationSans-32"/>
     <use transform="translate(1994.331055 0.78125)" xlink:href="#DejaVuSans-Oblique-112"/>
     <use transform="translate(2057.807617 -15.625)scale(0.7)" xlink:href="#DejaVuSans-Oblique-114"/>
     <use transform="translate(2086.586914 -15.625)scale(0.7)" xlink:href="#DejaVuSans-Oblique-101"/>
     <use transform="translate(2129.65332 -15.625)scale(0.7)" xlink:href="#DejaVuSans-Oblique-109"/>
     <use transform="translate(2197.841797 -15.625)scale(0.7)" xlink:href="#DejaVuSans-Oblique-111"/>
     <use transform="translate(2240.668945 -15.625)scale(0.7)" xlink:href="#DejaVuSans-Oblique-118"/>
     <use transform="translate(2282.094727 -15.625)scale(0.7)" xlink:href="#DejaVuSans-Oblique-101"/>
     <use transform="translate(2347.37793 0.78125)" xlink:href="#DejaVuSans-61"/>
     <use transform="translate(2450.649414 0.78125)" xlink:href="#DejaVuSans-48"/>
     <use transform="translate(2514.272461 0.78125)" xlink:href="#DejaVuSans-46"/>
     <use transform="translate(2546.05957 0.78125)" xlink:href="#DejaVuSans-48"/>
     <use transform="translate(2609.682617 0.78125)" xlink:href="#DejaVuSans-48"/>
     <use transform="translate(2673.305664 0.78125)" xlink:href="#DejaVuSans-49"/>
     <use transform="translate(2736.928711 0.78125)" xlink:href="#LiberationSans-41"/>
    </g>
   </g>
   <g id="legend_1">
    <g id="line2d_35">
     <path d="M 255.673594 243.446016 
L 294.173594 243.446016 
" style="fill:none;stroke:#ff0000;stroke-linecap:round;stroke-width:1.5;"/>
    </g>
    <g id="line2d_36"/>
    <g id="text_19">
     <!-- suceptible (theory) -->
     <defs>
      <path d="M 13.421875 26.65625 
Q 13.421875 16.109375 16.734375 11.03125 
Q 20.0625 5.953125 26.765625 5.953125 
Q 31.453125 5.953125 34.59375 8.484375 
Q 37.75 11.03125 38.484375 16.3125 
L 47.359375 15.71875 
Q 46.34375 8.109375 40.875 3.5625 
Q 35.40625 -0.984375 27 -0.984375 
Q 15.921875 -0.984375 10.078125 6.015625 
Q 4.25 13.03125 4.25 26.46875 
Q 4.25 39.796875 10.109375 46.796875 
Q 15.96875 53.8125 26.90625 53.8125 
Q 35.015625 53.8125 40.359375 49.609375 
Q 45.703125 45.40625 47.078125 38.03125 
L 38.03125 37.359375 
Q 37.359375 41.75 34.5625 44.328125 
Q 31.78125 46.921875 26.65625 46.921875 
Q 19.671875 46.921875 16.546875 42.28125 
Q 13.421875 37.640625 13.421875 26.65625 
z
" id="LiberationSans-99"/>
      <path d="M 51.421875 26.65625 
Q 51.421875 -0.984375 31.984375 -0.984375 
Q 25.984375 -0.984375 22 1.1875 
Q 18.015625 3.375 15.53125 8.203125 
L 15.4375 8.203125 
Q 15.4375 6.6875 15.234375 3.578125 
Q 15.046875 0.484375 14.9375 0 
L 6.453125 0 
Q 6.734375 2.640625 6.734375 10.890625 
L 6.734375 72.46875 
L 15.53125 72.46875 
L 15.53125 51.8125 
Q 15.53125 48.640625 15.328125 44.34375 
L 15.53125 44.34375 
Q 17.96875 49.421875 22 51.609375 
Q 26.03125 53.8125 31.984375 53.8125 
Q 42 53.8125 46.703125 47.0625 
Q 51.421875 40.328125 51.421875 26.65625 
z
M 42.1875 26.375 
Q 42.1875 37.453125 39.25 42.234375 
Q 36.328125 47.015625 29.734375 47.015625 
Q 22.3125 47.015625 18.921875 41.9375 
Q 15.53125 36.859375 15.53125 25.828125 
Q 15.53125 15.4375 18.84375 10.46875 
Q 22.171875 5.515625 29.640625 5.515625 
Q 36.28125 5.515625 39.234375 10.421875 
Q 42.1875 15.328125 42.1875 26.375 
z
" id="LiberationSans-98"/>
      <path d="M 9.328125 -20.75 
Q 5.71875 -20.75 3.265625 -20.21875 
L 3.265625 -13.625 
Q 5.125 -13.921875 7.375 -13.921875 
Q 15.578125 -13.921875 20.359375 -1.859375 
L 21.1875 0.25 
L 0.25 52.828125 
L 9.625 52.828125 
L 20.75 23.640625 
Q 21 22.953125 21.34375 22 
Q 21.6875 21.046875 23.53125 15.625 
Q 25.390625 10.203125 25.53125 9.578125 
L 28.953125 19.1875 
L 40.53125 52.828125 
L 49.8125 52.828125 
L 29.5 0 
Q 26.21875 -8.453125 23.390625 -12.578125 
Q 20.5625 -16.703125 17.109375 -18.71875 
Q 13.671875 -20.75 9.328125 -20.75 
z
" id="LiberationSans-121"/>
     </defs>
     <g style="fill:#262626;" transform="translate(309.573594 250.183516)scale(0.1925 -0.1925)">
      <use xlink:href="#LiberationSans-115"/>
      <use x="50" xlink:href="#LiberationSans-117"/>
      <use x="105.615234" xlink:href="#LiberationSans-99"/>
      <use x="155.615234" xlink:href="#LiberationSans-101"/>
      <use x="211.230469" xlink:href="#LiberationSans-112"/>
      <use x="266.845703" xlink:href="#LiberationSans-116"/>
      <use x="294.628906" xlink:href="#LiberationSans-105"/>
      <use x="316.845703" xlink:href="#LiberationSans-98"/>
      <use x="372.460938" xlink:href="#LiberationSans-108"/>
      <use x="394.677734" xlink:href="#LiberationSans-101"/>
      <use x="450.292969" xlink:href="#LiberationSans-32"/>
      <use x="478.076172" xlink:href="#LiberationSans-40"/>
      <use x="511.376953" xlink:href="#LiberationSans-116"/>
      <use x="539.160156" xlink:href="#LiberationSans-104"/>
      <use x="594.775391" xlink:href="#LiberationSans-101"/>
      <use x="650.390625" xlink:href="#LiberationSans-111"/>
      <use x="706.005859" xlink:href="#LiberationSans-114"/>
      <use x="739.306641" xlink:href="#LiberationSans-121"/>
      <use x="789.306641" xlink:href="#LiberationSans-41"/>
     </g>
    </g>
    <g id="line2d_37">
     <path d="M 255.673594 271.015625 
L 294.173594 271.015625 
" style="fill:none;stroke:#008000;stroke-linecap:round;stroke-width:1.5;"/>
    </g>
    <g id="line2d_38"/>
    <g id="text_20">
     <!-- infected (theory) -->
     <defs>
      <path d="M 17.625 46.4375 
L 17.625 0 
L 8.84375 0 
L 8.84375 46.4375 
L 1.421875 46.4375 
L 1.421875 52.828125 
L 8.84375 52.828125 
L 8.84375 58.796875 
Q 8.84375 66.015625 12.015625 69.1875 
Q 15.1875 72.359375 21.734375 72.359375 
Q 25.390625 72.359375 27.9375 71.78125 
L 27.9375 65.09375 
Q 25.734375 65.484375 24.03125 65.484375 
Q 20.65625 65.484375 19.140625 63.765625 
Q 17.625 62.0625 17.625 57.5625 
L 17.625 52.828125 
L 27.9375 52.828125 
L 27.9375 46.4375 
z
" id="LiberationSans-102"/>
      <path d="M 40.09375 8.5 
Q 37.640625 3.421875 33.609375 1.21875 
Q 29.59375 -0.984375 23.640625 -0.984375 
Q 13.625 -0.984375 8.90625 5.75 
Q 4.203125 12.5 4.203125 26.171875 
Q 4.203125 53.8125 23.640625 53.8125 
Q 29.640625 53.8125 33.640625 51.609375 
Q 37.640625 49.421875 40.09375 44.625 
L 40.1875 44.625 
L 40.09375 50.53125 
L 40.09375 72.46875 
L 48.875 72.46875 
L 48.875 10.890625 
Q 48.875 2.640625 49.171875 0 
L 40.765625 0 
Q 40.625 0.78125 40.453125 3.609375 
Q 40.28125 6.453125 40.28125 8.5 
z
M 13.421875 26.46875 
Q 13.421875 15.375 16.34375 10.59375 
Q 19.28125 5.8125 25.875 5.8125 
Q 33.34375 5.8125 36.71875 10.984375 
Q 40.09375 16.15625 40.09375 27.046875 
Q 40.09375 37.546875 36.71875 42.421875 
Q 33.34375 47.3125 25.984375 47.3125 
Q 19.34375 47.3125 16.375 42.40625 
Q 13.421875 37.5 13.421875 26.46875 
z
" id="LiberationSans-100"/>
     </defs>
     <g style="fill:#262626;" transform="translate(309.573594 277.753125)scale(0.1925 -0.1925)">
      <use xlink:href="#LiberationSans-105"/>
      <use x="22.216797" xlink:href="#LiberationSans-110"/>
      <use x="77.832031" xlink:href="#LiberationSans-102"/>
      <use x="105.615234" xlink:href="#LiberationSans-101"/>
      <use x="161.230469" xlink:href="#LiberationSans-99"/>
      <use x="211.230469" xlink:href="#LiberationSans-116"/>
      <use x="239.013672" xlink:href="#LiberationSans-101"/>
      <use x="294.628906" xlink:href="#LiberationSans-100"/>
      <use x="350.244141" xlink:href="#LiberationSans-32"/>
      <use x="378.027344" xlink:href="#LiberationSans-40"/>
      <use x="411.328125" xlink:href="#LiberationSans-116"/>
      <use x="439.111328" xlink:href="#LiberationSans-104"/>
      <use x="494.726562" xlink:href="#LiberationSans-101"/>
      <use x="550.341797" xlink:href="#LiberationSans-111"/>
      <use x="605.957031" xlink:href="#LiberationSans-114"/>
      <use x="639.257812" xlink:href="#LiberationSans-121"/>
      <use x="689.257812" xlink:href="#LiberationSans-41"/>
     </g>
    </g>
    <g id="line2d_39"/>
    <g id="line2d_40">
     <g>
      <use style="fill:#ff0000;" x="274.923594" xlink:href="#me117c2d111" y="298.585234"/>
     </g>
    </g>
    <g id="text_21">
     <!-- suceptible (simulation) -->
     <defs>
      <path d="M 37.5 0 
L 37.5 33.5 
Q 37.5 41.15625 35.390625 44.078125 
Q 33.296875 47.015625 27.828125 47.015625 
Q 22.21875 47.015625 18.9375 42.71875 
Q 15.671875 38.421875 15.671875 30.609375 
L 15.671875 0 
L 6.9375 0 
L 6.9375 41.546875 
Q 6.9375 50.78125 6.640625 52.828125 
L 14.9375 52.828125 
Q 14.984375 52.59375 15.03125 51.515625 
Q 15.09375 50.4375 15.15625 49.046875 
Q 15.234375 47.65625 15.328125 43.796875 
L 15.484375 43.796875 
Q 18.3125 49.421875 21.96875 51.609375 
Q 25.640625 53.8125 30.90625 53.8125 
Q 36.921875 53.8125 40.40625 51.421875 
Q 43.890625 49.03125 45.265625 43.796875 
L 45.40625 43.796875 
Q 48.140625 49.125 52.015625 51.46875 
Q 55.90625 53.8125 61.421875 53.8125 
Q 69.4375 53.8125 73.0625 49.46875 
Q 76.703125 45.125 76.703125 35.203125 
L 76.703125 0 
L 68.015625 0 
L 68.015625 33.5 
Q 68.015625 41.15625 65.90625 44.078125 
Q 63.8125 47.015625 58.34375 47.015625 
Q 52.59375 47.015625 49.390625 42.75 
Q 46.1875 38.484375 46.1875 30.609375 
L 46.1875 0 
z
" id="LiberationSans-109"/>
     </defs>
     <g style="fill:#262626;" transform="translate(309.573594 305.322734)scale(0.1925 -0.1925)">
      <use xlink:href="#LiberationSans-115"/>
      <use x="50" xlink:href="#LiberationSans-117"/>
      <use x="105.615234" xlink:href="#LiberationSans-99"/>
      <use x="155.615234" xlink:href="#LiberationSans-101"/>
      <use x="211.230469" xlink:href="#LiberationSans-112"/>
      <use x="266.845703" xlink:href="#LiberationSans-116"/>
      <use x="294.628906" xlink:href="#LiberationSans-105"/>
      <use x="316.845703" xlink:href="#LiberationSans-98"/>
      <use x="372.460938" xlink:href="#LiberationSans-108"/>
      <use x="394.677734" xlink:href="#LiberationSans-101"/>
      <use x="450.292969" xlink:href="#LiberationSans-32"/>
      <use x="478.076172" xlink:href="#LiberationSans-40"/>
      <use x="511.376953" xlink:href="#LiberationSans-115"/>
      <use x="561.376953" xlink:href="#LiberationSans-105"/>
      <use x="583.59375" xlink:href="#LiberationSans-109"/>
      <use x="666.894531" xlink:href="#LiberationSans-117"/>
      <use x="722.509766" xlink:href="#LiberationSans-108"/>
      <use x="744.726562" xlink:href="#LiberationSans-97"/>
      <use x="800.341797" xlink:href="#LiberationSans-116"/>
      <use x="828.125" xlink:href="#LiberationSans-105"/>
      <use x="850.341797" xlink:href="#LiberationSans-111"/>
      <use x="905.957031" xlink:href="#LiberationSans-110"/>
      <use x="961.572266" xlink:href="#LiberationSans-41"/>
     </g>
    </g>
    <g id="line2d_41"/>
    <g id="line2d_42">
     <g>
      <use style="fill:#008000;" x="274.923594" xlink:href="#mbd7f153a98" y="326.154844"/>
     </g>
    </g>
    <g id="text_22">
     <!-- infected (simulation) -->
     <g style="fill:#262626;" transform="translate(309.573594 332.892344)scale(0.1925 -0.1925)">
      <use xlink:href="#LiberationSans-105"/>
      <use x="22.216797" xlink:href="#LiberationSans-110"/>
      <use x="77.832031" xlink:href="#LiberationSans-102"/>
      <use x="105.615234" xlink:href="#LiberationSans-101"/>
      <use x="161.230469" xlink:href="#LiberationSans-99"/>
      <use x="211.230469" xlink:href="#LiberationSans-116"/>
      <use x="239.013672" xlink:href="#LiberationSans-101"/>
      <use x="294.628906" xlink:href="#LiberationSans-100"/>
      <use x="350.244141" xlink:href="#LiberationSans-32"/>
      <use x="378.027344" xlink:href="#LiberationSans-40"/>
      <use x="411.328125" xlink:href="#LiberationSans-115"/>
      <use x="461.328125" xlink:href="#LiberationSans-105"/>
      <use x="483.544922" xlink:href="#LiberationSans-109"/>
      <use x="566.845703" xlink:href="#LiberationSans-117"/>
      <use x="622.460938" xlink:href="#LiberationSans-108"/>
      <use x="644.677734" xlink:href="#LiberationSans-97"/>
      <use x="700.292969" xlink:href="#LiberationSans-116"/>
      <use x="728.076172" xlink:href="#LiberationSans-105"/>
      <use x="750.292969" xlink:href="#LiberationSans-111"/>
      <use x="805.908203" xlink:href="#LiberationSans-110"/>
      <use x="861.523438" xlink:href="#LiberationSans-41"/>
     </g>
    </g>
   </g>
  </g>
 </g>
 <defs>
  <clipPath id="p7d1feb85ab">
   <rect height="434.88" width="446.4" x="72" y="69.12"/>
  </clipPath>
 </defs>
</svg>
